<?xml version="1.0" encoding="utf-8"?>
<!-- Generator: Adobe Illustrator 21.0.0, SVG Export Plug-In . SVG Version: 6.00 Build 0)  -->
<svg version="1.1" xmlns="http://www.w3.org/2000/svg" xmlns:xlink="http://www.w3.org/1999/xlink" x="0px" y="0px"
	 viewBox="0 0 389 157" style="enable-background:new 0 0 389 157;" xml:space="preserve">
<style type="text/css">
	.st0{display:none;}
	.st1{display:inline;}
	.st2{fill:#732A13;}
	.st3{fill:#6C151C;}
	.st4{fill:#F6C073;}
	.st5{fill:#F1A12E;}
	.st6{opacity:0.3;fill:#FBE0BA;}
	.st7{fill:#6F4026;}
	.st8{fill:#F6C278;}
	.st9{display:inline;fill:#AB1717;}
	.st10{display:inline;fill:#F9E2B4;}
	.st11{fill:#CC4452;}
	.st12{fill:#D3B6A9;}
	.st13{fill:#E28681;}
	.st14{fill:#FFDDD7;}
	.st15{opacity:0.34;fill:#FFFFFF;enable-background:new    ;}
</style>
<g id="Layer_1" class="st0">
	<g class="st1">
		
			<ellipse transform="matrix(0.9998 -1.910915e-02 1.910915e-02 0.9998 -1.7332 3.9663)" class="st2" cx="206.7" cy="92.7" rx="175.1" ry="48.7"/>
		
			<ellipse transform="matrix(0.9998 -1.911543e-02 1.911543e-02 0.9998 -1.5265 3.9296)" class="st3" cx="204.8" cy="81.8" rx="161" ry="44.8"/>
		
			<ellipse transform="matrix(0.9998 -1.911880e-02 1.911880e-02 0.9998 -1.4451 3.938)" class="st4" cx="205.2" cy="77.5" rx="158.3" ry="44.6"/>
		
			<ellipse transform="matrix(0.9998 -1.910344e-02 1.910344e-02 0.9998 -1.3162 3.9312)" class="st5" cx="205.1" cy="70.9" rx="145.6" ry="32.3"/>
		
			<ellipse transform="matrix(0.9998 -1.911081e-02 1.911081e-02 0.9998 -1.3431 3.9335)" class="st5" cx="205.1" cy="72.2" rx="139.4" ry="30.9"/>
		<path class="st6" d="M204.5,41.3c-77,1.5-139.1,16.5-138.8,33.6c0.3,17.1,63,29.7,140,28.3c77-1.5,139.1-16.5,138.8-33.6
			C344.2,52.5,281.5,39.9,204.5,41.3z M76.5,69.9c-0.4-0.2-0.5-0.7-0.3-1.1c3.1-9.1,15.8-8,22.9-11.7c0.3-0.2,0.6-0.2,0.8-0.1
			c15-5,30.2-7.7,46.5-8.8c9-0.6,18.1-0.6,27.1-0.7c5.3-0.1,12.1-0.5,16.1,3.6c0.6,0.6-0.1,1.5-0.7,1.7c-8,3.7-17.1,2.5-25.7,3.3
			c-11,1-22.1,2.7-32.9,4.8c-10.9,2.1-22.2,3.3-33,6.1C90.6,68.8,83.3,72.4,76.5,69.9z M180.5,95.3c-6.8,1.8-14,1.7-21,1.7
			c-9.1,0-18.1-0.1-27.2,0c-5.6,0-12.9,0-17.3-4.1c-4.6-4.3-9.2-3.7-15-3.6c-4.6,0-17.9,0.3-17.1-7.4c0.6-5.4,10.5-7.5,14.4-8.5
			c8.1-2.1,16.5-3.3,24.8-4c3.8-0.3,7.4-0.5,11.1-1.1c0.1-0.1,0.3-0.2,0.4-0.2c12.3-2.4,24.7-4,37.2-4.6c8.1-0.4,22-1.8,22.4,9.6
			C193.7,82.5,190.7,92.5,180.5,95.3z M213.5,49.7c7-6.9,18.9-4.7,27.8-6c0.5-0.1,0.7,0.1,0.8,0.4c6,0,12.1,0.7,18.1,1.3
			c6.4,0.6,16.7,0.8,21.1,6.5c0.4,0.6,0.1,1.6-0.7,1.7c-12.9,3.4-25.5-0.7-38.5,0c-8.7,0.5-20.9,2.9-28.6-2.4
			C213,50.8,213,50.1,213.5,49.7z M261.1,84.1c-1.6,4.3-7.6,5.8-11.6,6.6c-7.1,1.4-14.7,2.8-21.8,3.4c-7,0.6-12.6-1.2-15.8-7.8
			c-1.4-3-6.8-16-3.7-20.4c0.1-0.1,0.2-0.3,0.3-0.4c0.4-0.4,0.9-0.7,1.6-0.9c2-0.8,4.1-0.6,6.5,0.2c5.2,1.6,10.6,2.4,15.9,3.9
			c7,1.9,14.2,4.3,20.9,7.3C256.2,77.1,262.7,79.8,261.1,84.1z M300.7,71.4c-4.1,5.6-14.6,4.6-20.5,4.1c-11.3-0.9-22.3-2.5-33.2-5.8
			c-3.7-1.1-18.2-3.5-18.9-8.4c-0.3-2.3,2.3-3.5,5.3-4.1c9.4-3.8,19.3,0,28.9,0.7c5.4,0.4,10.9,1.2,16.2,2.1
			C281.8,60.5,306.3,63.8,300.7,71.4z"/>
		<path class="st7" d="M38.5,90c0,0-6.8,2.4-0.1,15.3c6.7,12.9,86.2,37.6,160.7,32.7c0,0,51.9,0,52.2-4.1c0.3-4.1-19.8-4.3-19.8-4.3
			s-23.5,0.7-33.8,0.8C187.5,130.4,54.8,131.5,38.5,90z"/>
		<path class="st8" d="M55.9,70.2c0,0-3.4-0.2-6.1,6.4c-2.7,6.6,7.9,22.9,55,33.2c47,10.3,115.1,12.6,150.4,6.2
			c35.3-6.4,18.1-15.1,0.9-12.8c-17.2,2.3-17.2,2.3-17.2,2.3S153,108.1,110,99.9C69.2,92.2,55.1,87.1,55.9,70.2z"/>
	</g>
</g>
<g id="Слой_3" class="st0">
	<path class="st9" d="M142.3,45.8c0,0,46.5-2,75.9-1.5c19.1,0.2,41.2-3.1,77.1,5.1c17.5,3.8,28.6,7.5,34.6,10.6
		c3.6,1.9,6,5.6,5.9,9.7c-0.1,6.2-6.3,15.6-56.8,26c-49.7,4.8-55.4,4.6-77.4,3.8c-24.5,0.9-52.2,3.2-76.1-2.4
		c-26.9-5.6-68.6-13.4-56.1-25.5C77.3,64.7,87.5,54.1,142.3,45.8z"/>
	<circle class="st9" cx="-19" cy="-86" r="14.3"/>
	<circle class="st10" cx="39" cy="-81.3" r="14.3"/>
</g>
<g id="Слой_4">
	<g>
		<path class="st11" d="M91,76.3c0.3,0.5,0.8,0.8,1.4,1.1c0.7,0.3,1.5,0.6,2.1,1c0.4,0.3,0.8,0.6,1.2,0.7c0.2-0.6-0.1-1.2-0.5-1.6
			c-0.4-0.4-0.9-0.7-1.5-0.9c-0.5-0.3-1.1-0.4-1.6-0.8c-0.3-0.2-0.8-1-1.1-0.8C90.7,75.2,90.9,76,91,76.3z"/>
		<path class="st12" d="M96.1,79.3c0.7,0.3,1.5,0.6,2.2,0.9c1.1,0.4,2.2,0.9,3.4,0.9c1.2-0.1,2.2-0.6,3.4-1c3.7-1.3,8-0.7,11.8-1.8
			c2.6-0.8,4.8-2.2,7.3-3.1c3.9-1.5,8.3-1.6,12.5-1.4c2.3,0.1,4.7,0.3,7-0.3c0.5-0.1,1.1-0.8,0.8-1.1c-0.1-0.1-0.4-0.1-0.7-0.1
			c-7.2-1-14.6-0.7-21.7,0.9c-6.5,1.4-12.8,4-19.5,3.9c-1.8,0-3.6-0.2-5.3,0.2c-0.6,0.1-1.7,0.3-2.1,0.7
			C94.5,78.6,95.6,79.1,96.1,79.3z"/>
		<path class="st13" d="M96,72.9c2.1-0.2,4.3-0.2,6.4-0.5c5-0.7,9.6-3.1,14.6-4c5.4-1,10.9-0.1,16.3,0.8c3.8,0.6,7.8,1.3,11.2,3.2
			c-1.6,0.6-3.4,0.6-5.2,0.6c-2.4,0-4.9,0-7.3,0.1c-3.5,0.1-7.2,0.4-10.3,1.9c-1.7,0.8-3.2,1.9-4.9,2.5c-2.3,0.9-4.9,0.8-7.4,1
			c-1.8,0.2-3.6,0.5-5.3,1.2c-1,0.4-2,0.9-3.1,0.9c-1.1,0-2.1-0.5-3.1-1c-1.9-1-3.8-2-5.7-3C88.6,74.7,94.6,73,96,72.9z"/>
		<g>
			<path class="st14" d="M126,69.3c-1.8,0.3-3.7,0.5-5.4,1c-3.1,0.9-6,2.6-9.2,3.2c-1.7,0.3-3.6,0.3-4.7,1.6
				c2.5-0.9,5.2-0.9,7.7-1.5c2.9-0.7,5.6-2.1,8.4-2.9c3.5-0.9,7.1-0.9,10.7-0.9c1.1,0,2.2,0,3.3,0c-1.2-0.3-2.5-0.4-3.7-0.6
				c-0.9-0.2-1.9-0.3-2.9-0.5C128.9,68.9,127.4,69.1,126,69.3z"/>
			<path class="st14" d="M140.9,70.8c-5.1,0.3-10.1,0.7-15.2,1c-2.5,0.2-5,0.3-7.3,1.1c-1.4,0.4-2.7,1.1-4.1,1.5
				c-3.4,1.1-7.1,0.8-10.7,0.9c-3,0.2-6.2,0.8-8.5,2.6c0.9,0.5,1.8,0.9,2.7,1.4c1,0.5,2,1,3.1,1s2.1-0.5,3.1-0.9
				c1.7-0.6,3.5-1,5.3-1.2c2.5-0.2,5-0.2,7.4-1c1.7-0.6,3.2-1.7,4.9-2.5c3.2-1.5,6.8-1.8,10.3-1.9c2.4-0.1,4.9-0.1,7.3-0.1
				c1.7,0,3.6,0,5.2-0.6C143.3,71.8,142.1,71.3,140.9,70.8z"/>
			<path class="st14" d="M92.2,76.6c0.4,0.2,0.8,0.4,1.2,0.6c0.1-0.1,0.2-0.1,0.3-0.2c5.5-3.5,12.3-3.7,18.6-5.4
				c3.2-0.9,6.2-2.2,9.4-3c0.9-0.3,1.9-0.4,2.9-0.6c-1.2-0.1-2.5-0.1-3.7-0.1c-2.8,1-5.6,2-8.5,2.8C105.6,72.7,98.3,73.3,92.2,76.6z
				"/>
		</g>
		<path class="st15" d="M112.4,70.4c-0.1,0.1-0.1,0.1-0.1,0.2c0,0.1,0.1,0.2,0.2,0.3c1.4,0.6,3.2-0.3,4.4,0.6c0.5,0.3,0.7,1,0.7,1.6
			c-0.1,0.8-0.8,1.4-1.1,2.2c-0.1,0.3-0.2,0.5,0,0.7c0.1,0.1,0.2,0.2,0.4,0.2c0.6,0.1,1.2-0.3,1.7-0.6c0.5-0.3,0.9-0.7,1.4-1
			c0.3-0.2,0.5-0.4,0.7-0.7c0.2-0.3,0.2-0.7,0.1-1c-0.1-0.5-0.3-1-0.6-1.4c-0.9-0.9-2.5-0.9-3.2-1.9c-0.1-0.2-0.2-0.3-0.3-0.4
			c-0.2-0.2-0.5-0.2-0.8-0.1C114.4,69.1,113.5,69.3,112.4,70.4z"/>
		<path class="st15" d="M94.8,74.3c0.2,0.2,0.6,0.2,0.9,0.2c1.7-0.2,3.5,0.1,5,0.9c0.5,0.3,0.9,0.5,1.2,1c0.2,0.3,0.3,0.7,0.5,1
			c0.5,0.8,1.7,1.2,2.5,0.7c0.3-0.2,0.6-0.5,0.6-0.9c0-0.2-0.2-0.4-0.3-0.5c-0.7-0.7-1.8-0.8-2.6-1.3c-0.4-0.3-0.8-0.7-1.2-0.9
			c-0.5-0.3-1.2-0.5-1.8-0.6c-0.9-0.2-1.7-0.3-2.6-0.5C96.6,73.3,93.7,73.3,94.8,74.3z"/>
	</g>
	<g>
		<path class="st11" d="M247.6,86.7c0.3,0.4,0.8,0.6,1.3,0.8c0.7,0.3,1.5,0.5,2.1,0.8c0.4,0.2,0.7,0.4,1.2,0.5
			c0.2-0.4-0.1-0.9-0.5-1.2c-0.4-0.3-0.9-0.5-1.5-0.7c-0.5-0.2-1.1-0.4-1.6-0.6c-0.2-0.1-0.8-0.7-1.1-0.6
			C247.2,85.9,247.4,86.5,247.6,86.7z"/>
		<path class="st12" d="M252.6,89.1c0.7,0.2,1.5,0.5,2.2,0.7c1.1,0.4,2.2,0.7,3.4,0.7c1.2,0,2.2-0.4,3.4-0.6c3.8-0.8,8-0.3,11.8-1
			c2.6-0.5,4.8-1.5,7.3-2.1c4-1,8.3-0.9,12.5-0.7c2.3,0.2,4.7,0.4,7,0c0.5-0.1,1.1-0.5,0.8-0.8c-0.1-0.1-0.4-0.1-0.7-0.1
			c-7.2-0.9-14.6-0.9-21.7,0.1c-6.5,0.9-12.9,2.6-19.6,2.4c-1.8-0.1-3.6-0.3-5.3,0c-0.6,0.1-1.7,0.2-2.1,0.5
			C251,88.5,252.1,88.9,252.6,89.1z"/>
		<path class="st13" d="M252.6,84.4c2.1-0.1,4.3,0,6.4-0.2c5-0.4,9.6-2,14.6-2.6c5.4-0.6,10.9,0.2,16.3,1c3.8,0.6,7.8,1.1,11.1,2.6
			c-1.6,0.4-3.4,0.3-5.2,0.3c-2.4-0.1-4.9-0.1-7.3-0.1c-3.5,0-7.2,0.1-10.4,1.1c-1.7,0.5-3.2,1.3-5,1.7c-2.3,0.6-4.9,0.5-7.4,0.5
			c-1.8,0.1-3.6,0.3-5.3,0.7c-1,0.3-2.1,0.6-3.1,0.6c-1.1,0-2.1-0.4-3.1-0.8c-1.9-0.8-3.8-1.6-5.6-2.3
			C245.1,85.5,251.2,84.4,252.6,84.4z"/>
		<g>
			<path class="st14" d="M282.7,82.5c-1.8,0.1-3.7,0.3-5.4,0.6c-3.1,0.6-6,1.8-9.2,2.1c-1.7,0.2-3.6,0.1-4.8,1.1
				c2.5-0.6,5.2-0.6,7.8-0.9c2.9-0.4,5.6-1.4,8.5-1.9c3.5-0.6,7.1-0.5,10.7-0.4c1.1,0,2.2,0.1,3.3,0.1c-1.2-0.2-2.4-0.4-3.6-0.6
				c-0.9-0.1-1.9-0.3-2.9-0.4C285.6,82.3,284.1,82.4,282.7,82.5z"/>
			<path class="st14" d="M297.5,84c-5.1,0.1-10.1,0.2-15.2,0.3c-2.5,0.1-5,0.1-7.3,0.6c-1.4,0.3-2.7,0.7-4.1,1
				c-3.5,0.7-7.1,0.4-10.7,0.4c-3,0-6.3,0.4-8.6,1.7c0.9,0.4,1.8,0.7,2.7,1.1c1,0.4,2,0.8,3.1,0.8c1.1,0,2.1-0.3,3.1-0.6
				c1.7-0.4,3.5-0.6,5.3-0.7c2.5-0.1,5,0,7.4-0.5c1.7-0.4,3.3-1.2,5-1.7c3.2-1,6.8-1.1,10.4-1.1c2.4,0,4.9,0,7.3,0.1
				c1.7,0,3.6,0.1,5.2-0.3C299.9,84.8,298.7,84.4,297.5,84z"/>
			<path class="st14" d="M248.7,87c0.4,0.2,0.8,0.3,1.2,0.5c0.1,0,0.2-0.1,0.3-0.1c5.5-2.4,12.4-2.4,18.7-3.5c3.2-0.6,6.2-1.5,9.4-2
				c0.9-0.2,1.9-0.3,2.9-0.3c-1.2-0.1-2.5-0.2-3.7-0.2c-2.8,0.7-5.6,1.4-8.5,1.9C262.3,84.4,254.9,84.7,248.7,87z"/>
		</g>
		<path class="st15" d="M269.1,83c-0.1,0-0.1,0.1-0.1,0.2c0,0.1,0.1,0.1,0.2,0.2c1.3,0.5,3.2-0.1,4.4,0.6c0.5,0.3,0.7,0.7,0.6,1.2
			c-0.1,0.6-0.8,1-1.1,1.6c-0.1,0.2-0.2,0.4,0,0.5c0.1,0.1,0.2,0.1,0.4,0.1c0.6,0.1,1.2-0.2,1.7-0.4c0.5-0.2,1-0.5,1.4-0.7
			c0.3-0.1,0.5-0.3,0.7-0.5c0.2-0.2,0.2-0.5,0.1-0.7c-0.1-0.4-0.2-0.7-0.6-1c-0.8-0.7-2.4-0.7-3.1-1.4c-0.1-0.1-0.2-0.2-0.3-0.3
			c-0.2-0.1-0.5-0.1-0.8-0.1C271,82.1,270.2,82.2,269.1,83z"/>
		<path class="st15" d="M251.4,85.4c0.2,0.2,0.6,0.2,0.9,0.2c1.7-0.1,3.5,0.2,5,0.8c0.5,0.2,0.9,0.4,1.1,0.7
			c0.2,0.2,0.3,0.5,0.5,0.8c0.5,0.6,1.6,0.9,2.5,0.6c0.3-0.1,0.6-0.4,0.6-0.6c0-0.2-0.2-0.3-0.3-0.4c-0.7-0.5-1.8-0.6-2.6-1
			c-0.4-0.2-0.7-0.5-1.1-0.7c-0.5-0.3-1.2-0.4-1.8-0.5c-0.9-0.2-1.7-0.3-2.6-0.5C253.2,84.7,250.3,84.6,251.4,85.4z"/>
	</g>
	<g>
		<path class="st11" d="M183.2,69.5c0.2,0.3,0.7,0.5,1.1,0.7c0.6,0.2,1.2,0.4,1.8,0.7c0.3,0.2,0.6,0.4,1,0.5c0.1-0.3-0.1-0.7-0.4-1
			c-0.3-0.3-0.8-0.4-1.2-0.6s-0.9-0.3-1.3-0.5c-0.2-0.1-0.6-0.6-0.9-0.5C183,68.8,183.1,69.3,183.2,69.5z"/>
		<path class="st12" d="M187.4,71.5c0.6,0.2,1.2,0.4,1.8,0.6c0.9,0.3,1.9,0.6,2.9,0.6c1,0,1.9-0.3,2.9-0.5c3.2-0.7,6.7-0.3,10-0.9
			c2.2-0.4,4.1-1.3,6.2-1.8c3.3-0.8,7-0.8,10.5-0.6c2,0.1,3.9,0.3,5.9,0c0.4-0.1,0.9-0.4,0.7-0.7c-0.1-0.1-0.3-0.1-0.6-0.1
			c-6.1-0.8-12.3-0.7-18.3,0.1c-5.5,0.7-10.9,2.2-16.5,2c-1.5-0.1-3-0.2-4.5,0c-0.5,0.1-1.4,0.2-1.8,0.4
			C186.2,71,187,71.4,187.4,71.5z"/>
		<path class="st13" d="M187.5,67.5c1.8-0.1,3.6,0,5.4-0.2c4.2-0.3,8.1-1.7,12.3-2.1c4.5-0.5,9.2,0.2,13.7,0.8
			c3.2,0.5,6.5,1,9.4,2.2c-1.4,0.4-2.9,0.3-4.4,0.3c-2-0.1-4.1-0.1-6.1-0.1c-3,0-6,0.1-8.7,0.9c-1.4,0.4-2.7,1.1-4.2,1.4
			c-2,0.5-4.1,0.4-6.2,0.5c-1.5,0.1-3.1,0.2-4.5,0.6c-0.9,0.2-1.7,0.5-2.6,0.5c-0.9,0-1.8-0.4-2.6-0.7c-1.6-0.6-3.2-1.3-4.8-2
			C181.2,68.5,186.3,67.6,187.5,67.5z"/>
		<g>
			<path class="st14" d="M212.8,66c-1.5,0.1-3.1,0.3-4.6,0.5c-2.6,0.5-5.1,1.5-7.8,1.8c-1.4,0.1-3,0.1-4,0.9
				c2.1-0.5,4.4-0.5,6.5-0.8c2.5-0.4,4.7-1.2,7.2-1.6c2.9-0.5,6-0.4,9-0.3c0.9,0,1.9,0.1,2.8,0.1c-1-0.2-2.1-0.3-3.1-0.5
				c-0.8-0.1-1.6-0.2-2.4-0.4C215.2,65.8,214,65.9,212.8,66z"/>
			<path class="st14" d="M225.3,67.2c-4.3,0.1-8.5,0.2-12.8,0.3c-2.1,0-4.2,0.1-6.2,0.5c-1.2,0.2-2.3,0.6-3.4,0.9
				c-2.9,0.6-6,0.3-9,0.3c-2.5,0-5.3,0.3-7.2,1.4c0.8,0.3,1.5,0.6,2.3,0.9c0.8,0.3,1.7,0.7,2.6,0.7c0.9,0,1.8-0.3,2.6-0.5
				c1.4-0.4,3-0.5,4.5-0.6c2.1-0.1,4.2,0,6.2-0.5c1.5-0.4,2.8-1,4.2-1.4c2.7-0.9,5.8-0.9,8.7-0.9c2,0,4.1,0,6.1,0.1
				c1.5,0,3,0.1,4.4-0.3C227.3,67.8,226.3,67.5,225.3,67.2z"/>
			<path class="st14" d="M184.2,69.7c0.3,0.1,0.7,0.3,1,0.4c0.1,0,0.2-0.1,0.3-0.1c4.6-2,10.5-2,15.8-2.9c2.7-0.5,5.3-1.2,7.9-1.7
				c0.8-0.1,1.6-0.2,2.4-0.3c-1-0.1-2.1-0.1-3.1-0.1c-2.4,0.6-4.8,1.1-7.2,1.6C195.6,67.6,189.4,67.8,184.2,69.7z"/>
		</g>
		<path class="st15" d="M201.3,66.3c-0.1,0-0.1,0.1-0.1,0.1c0,0.1,0.1,0.1,0.2,0.2c1.1,0.4,2.7-0.1,3.7,0.5c0.4,0.2,0.6,0.6,0.5,1
			c-0.1,0.5-0.7,0.9-1,1.3c-0.1,0.2-0.1,0.3,0,0.4c0.1,0.1,0.2,0.1,0.3,0.1c0.5,0.1,1-0.1,1.4-0.3c0.4-0.2,0.8-0.4,1.2-0.6
			c0.2-0.1,0.4-0.2,0.6-0.4c0.1-0.2,0.1-0.4,0.1-0.6c0-0.3-0.2-0.6-0.5-0.9c-0.7-0.6-2.1-0.6-2.6-1.2c-0.1-0.1-0.2-0.2-0.3-0.3
			c-0.2-0.1-0.4-0.1-0.7-0.1C203,65.6,202.3,65.7,201.3,66.3z"/>
		<path class="st15" d="M186.4,68.4c0.2,0.1,0.5,0.1,0.8,0.1c1.4-0.1,2.9,0.1,4.2,0.6c0.4,0.2,0.8,0.4,1,0.6
			c0.2,0.2,0.2,0.5,0.4,0.7c0.4,0.5,1.4,0.8,2.1,0.5c0.3-0.1,0.5-0.3,0.5-0.5c0-0.1-0.2-0.2-0.3-0.3c-0.6-0.4-1.5-0.5-2.2-0.9
			c-0.3-0.2-0.6-0.4-1-0.6c-0.4-0.2-1-0.3-1.5-0.4c-0.7-0.1-1.5-0.3-2.2-0.4C188,67.8,185.5,67.7,186.4,68.4z"/>
	</g>
	<g>
		<path class="st11" d="M222.4,54c0.2,0.3,0.5,0.4,0.9,0.5c0.5,0.2,1,0.3,1.4,0.5c0.3,0.1,0.5,0.3,0.8,0.4c0.1-0.3,0-0.6-0.3-0.8
			c-0.3-0.2-0.6-0.4-1-0.5c-0.4-0.1-0.7-0.2-1-0.4c-0.2-0.1-0.5-0.5-0.7-0.4C222.2,53.4,222.3,53.8,222.4,54z"/>
		<path class="st12" d="M225.8,55.5c0.5,0.2,1,0.3,1.5,0.5c0.7,0.2,1.5,0.5,2.3,0.5c0.8,0,1.5-0.3,2.3-0.4c2.5-0.6,5.3-0.2,7.9-0.7
			c1.7-0.3,3.2-1,4.9-1.4c2.7-0.7,5.6-0.6,8.4-0.4c1.6,0.1,3.1,0.2,4.7,0c0.3-0.1,0.7-0.4,0.5-0.5c-0.1,0-0.3-0.1-0.4-0.1
			c-4.8-0.6-9.8-0.6-14.5,0.1c-4.4,0.6-8.6,1.7-13.1,1.6c-1.2,0-2.4-0.2-3.5,0c-0.4,0.1-1.1,0.1-1.4,0.3
			C224.7,55.1,225.5,55.4,225.8,55.5z"/>
		<path class="st13" d="M225.8,52.4c1.4-0.1,2.8,0,4.3-0.1c3.3-0.3,6.5-1.4,9.8-1.7c3.6-0.4,7.3,0.1,10.9,0.7
			c2.6,0.4,5.2,0.8,7.4,1.8c-1.1,0.3-2.3,0.2-3.5,0.2c-1.6-0.1-3.2-0.1-4.9-0.1c-2.4,0-4.8,0.1-6.9,0.7c-1.1,0.4-2.2,0.9-3.3,1.2
			c-1.6,0.4-3.3,0.3-4.9,0.4c-1.2,0-2.4,0.2-3.6,0.5c-0.7,0.2-1.4,0.4-2.1,0.4c-0.7,0-1.4-0.3-2.1-0.6c-1.3-0.5-2.5-1-3.8-1.6
			C220.8,53.2,224.9,52.4,225.8,52.4z"/>
		<g>
			<path class="st14" d="M245.9,51.2c-1.2,0.1-2.5,0.2-3.6,0.4c-2.1,0.4-4,1.2-6.2,1.4c-1.1,0.1-2.4,0.1-3.2,0.7
				c1.7-0.4,3.5-0.4,5.2-0.6c1.9-0.3,3.8-0.9,5.7-1.3c2.3-0.4,4.8-0.3,7.2-0.3c0.7,0,1.5,0.1,2.2,0.1c-0.8-0.1-1.6-0.3-2.4-0.4
				c-0.6-0.1-1.3-0.2-1.9-0.3C247.9,51,246.9,51.1,245.9,51.2z"/>
			<path class="st14" d="M255.9,52.2c-3.4,0.1-6.8,0.1-10.2,0.2c-1.6,0-3.3,0.1-4.9,0.4c-0.9,0.2-1.8,0.5-2.7,0.7
				c-2.3,0.5-4.8,0.2-7.2,0.3c-2,0-4.2,0.3-5.7,1.1c0.6,0.2,1.2,0.5,1.8,0.7c0.6,0.3,1.3,0.5,2.1,0.6c0.7,0,1.4-0.2,2.1-0.4
				c1.1-0.3,2.4-0.4,3.6-0.5c1.7-0.1,3.4,0,4.9-0.4c1.2-0.3,2.2-0.8,3.3-1.2c2.1-0.7,4.6-0.7,6.9-0.7c1.6,0,3.2,0,4.9,0.1
				c1.2,0,2.4,0.1,3.5-0.2C257.5,52.7,256.7,52.4,255.9,52.2z"/>
			<path class="st14" d="M223.2,54.1c0.3,0.1,0.5,0.2,0.8,0.3c0.1,0,0.1-0.1,0.2-0.1c3.7-1.6,8.3-1.6,12.5-2.3
				c2.1-0.4,4.2-1,6.3-1.3c0.6-0.1,1.3-0.2,1.9-0.2c-0.8-0.1-1.6-0.1-2.5-0.1c-1.9,0.4-3.8,0.9-5.7,1.2
				C232.3,52.4,227.4,52.6,223.2,54.1z"/>
		</g>
		<path class="st15" d="M236.8,51.5c0,0-0.1,0.1-0.1,0.1c0,0.1,0.1,0.1,0.1,0.1c0.9,0.3,2.1-0.1,2.9,0.4c0.3,0.2,0.5,0.5,0.4,0.8
			c-0.1,0.4-0.5,0.7-0.8,1.1c-0.1,0.1-0.1,0.3,0,0.4c0.1,0,0.1,0.1,0.3,0.1c0.4,0.1,0.8-0.1,1.1-0.3c0.3-0.2,0.6-0.3,1-0.5
			c0.2-0.1,0.3-0.2,0.5-0.3c0.1-0.2,0.1-0.3,0.1-0.5c0-0.2-0.2-0.5-0.4-0.7c-0.6-0.5-1.6-0.5-2.1-1c-0.1-0.1-0.1-0.2-0.2-0.2
			c-0.1-0.1-0.4-0.1-0.5-0.1C238.1,50.9,237.6,50.9,236.8,51.5z"/>
		<path class="st15" d="M225,53.1c0.1,0.1,0.4,0.1,0.6,0.1c1.1,0,2.3,0.1,3.3,0.5c0.3,0.1,0.6,0.3,0.8,0.5c0.1,0.2,0.2,0.4,0.3,0.5
			c0.3,0.4,1.1,0.6,1.7,0.4c0.2-0.1,0.4-0.2,0.4-0.4c0-0.1-0.1-0.2-0.2-0.3c-0.5-0.3-1.2-0.4-1.7-0.7c-0.3-0.1-0.5-0.3-0.8-0.5
			c-0.4-0.2-0.8-0.3-1.2-0.3c-0.6-0.1-1.2-0.2-1.7-0.3C226.2,52.6,224.2,52.5,225,53.1z"/>
	</g>
	<g>
		<path class="st11" d="M274.5,53.1c0.1,0.3,0.5,0.5,0.8,0.7c0.4,0.3,0.9,0.5,1.3,0.8c0.2,0.2,0.4,0.4,0.7,0.5
			c0.2-0.3,0-0.6-0.2-0.8c-0.2-0.3-0.6-0.4-0.9-0.6c-0.3-0.2-0.7-0.3-1-0.6c-0.1-0.1-0.4-0.6-0.7-0.5
			C274.4,52.6,274.5,53,274.5,53.1z"/>
		<path class="st12" d="M277.6,55.2c0.4,0.2,0.9,0.5,1.4,0.7c0.7,0.3,1.4,0.7,2.2,0.8c0.8,0.1,1.5,0,2.3-0.1
			c2.6-0.2,5.3,0.6,7.9,0.5c1.7-0.1,3.3-0.5,5.1-0.6c2.7-0.2,5.6,0.2,8.4,0.9c1.5,0.3,3.1,0.7,4.6,0.7c0.3,0,0.8-0.2,0.6-0.5
			c-0.1-0.1-0.2-0.1-0.4-0.1c-4.7-1.3-9.6-2.1-14.4-2.2c-4.4-0.1-8.8,0.4-13.2-0.5c-1.2-0.2-2.3-0.5-3.5-0.6c-0.4,0-1.1,0-1.5,0.1
			C276.6,54.6,277.3,55,277.6,55.2z"/>
		<path class="st13" d="M278.1,52.1c1.4,0.1,2.8,0.4,4.2,0.5c3.3,0.3,6.6-0.4,9.9-0.2c3.6,0.2,7.2,1.3,10.7,2.3
			c2.5,0.8,5,1.6,7.1,2.9c-1.1,0.1-2.3-0.1-3.5-0.3c-1.6-0.3-3.2-0.6-4.8-0.8c-2.3-0.4-4.7-0.7-7-0.3c-1.2,0.2-2.3,0.5-3.5,0.6
			c-1.6,0.1-3.3-0.2-4.9-0.4c-1.2-0.1-2.4-0.2-3.6-0.1c-0.7,0.1-1.4,0.2-2.1,0c-0.7-0.1-1.4-0.5-2-0.9c-1.2-0.7-2.3-1.4-3.5-2.1
			C273.1,52.1,277.2,52,278.1,52.1z"/>
		<g>
			<path class="st14" d="M298.2,54c-1.2-0.1-2.5-0.2-3.7-0.2c-2.1,0.1-4.2,0.6-6.3,0.4c-1.1-0.1-2.4-0.3-3.3,0.2
				c1.7-0.2,3.5,0.2,5.2,0.2c2,0,3.9-0.3,5.8-0.4c2.4,0,4.8,0.4,7.1,0.9c0.7,0.1,1.4,0.3,2.2,0.4c-0.8-0.3-1.6-0.5-2.4-0.7
				c-0.6-0.2-1.2-0.4-1.8-0.6C300.1,54.1,299.2,54.1,298.2,54z"/>
			<path class="st14" d="M307.9,56.5c-3.4-0.4-6.7-0.9-10.1-1.3c-1.6-0.2-3.3-0.4-4.9-0.3c-1,0-1.9,0.2-2.8,0.3
				c-2.4,0.1-4.8-0.5-7.1-0.8c-2-0.3-4.2-0.4-5.9,0.2c0.6,0.3,1.1,0.7,1.7,1c0.6,0.4,1.2,0.7,2,0.9c0.7,0.1,1.4,0,2.1,0
				c1.2-0.1,2.4,0,3.6,0.1c1.7,0.2,3.3,0.5,4.9,0.4c1.2-0.1,2.3-0.4,3.5-0.6c2.2-0.3,4.6,0,7,0.3c1.6,0.2,3.2,0.5,4.8,0.8
				c1.1,0.2,2.3,0.4,3.5,0.3C309.4,57.2,308.6,56.9,307.9,56.5z"/>
			<path class="st14" d="M275.3,53.4c0.3,0.2,0.5,0.3,0.7,0.4c0.1,0,0.2,0,0.2-0.1c3.9-1,8.5-0.3,12.7-0.4c2.2,0,4.3-0.3,6.5-0.3
				c0.6,0,1.3,0,1.9,0.1c-0.8-0.2-1.6-0.4-2.4-0.5c-1.9,0.1-3.9,0.3-5.8,0.3C284.5,53.1,279.6,52.6,275.3,53.4z"/>
		</g>
		<path class="st15" d="M289.2,52.9c0,0-0.1,0-0.1,0.1c0,0.1,0.1,0.1,0.1,0.1c0.8,0.5,2.1,0.2,2.8,0.8c0.3,0.2,0.4,0.6,0.3,0.8
			c-0.1,0.4-0.6,0.6-0.9,0.9c-0.1,0.1-0.2,0.2,0,0.4c0.1,0.1,0.1,0.1,0.2,0.1c0.4,0.1,0.8,0,1.2-0.1c0.3-0.1,0.7-0.2,1-0.3
			c0.2-0.1,0.4-0.1,0.5-0.3c0.1-0.1,0.2-0.3,0.2-0.5c0-0.3-0.1-0.5-0.3-0.7c-0.5-0.5-1.5-0.7-1.9-1.3c0-0.1-0.1-0.2-0.2-0.2
			c-0.1-0.1-0.3-0.1-0.5-0.2C290.6,52.5,290,52.4,289.2,52.9z"/>
		<path class="st15" d="M277.2,52.6c0.1,0.1,0.4,0.2,0.6,0.2c1.1,0.1,2.3,0.5,3.2,1c0.3,0.2,0.6,0.4,0.7,0.6
			c0.1,0.2,0.1,0.4,0.2,0.6c0.2,0.5,1,0.8,1.6,0.6c0.2-0.1,0.5-0.2,0.5-0.4c0-0.1-0.1-0.2-0.2-0.3c-0.4-0.4-1.1-0.6-1.6-0.9
			c-0.2-0.2-0.4-0.4-0.7-0.6c-0.3-0.2-0.7-0.4-1.1-0.5c-0.6-0.2-1.1-0.4-1.7-0.6C278.5,52.4,276.6,52,277.2,52.6z"/>
	</g>
	<g>
		<path class="st11" d="M135.4,53.1c0.2,0.3,0.5,0.4,0.9,0.5c0.5,0.2,1,0.3,1.4,0.5c0.3,0.1,0.5,0.3,0.8,0.4c0.1-0.3,0-0.6-0.3-0.8
			c-0.3-0.2-0.6-0.4-1-0.5c-0.4-0.1-0.7-0.2-1-0.4c-0.2-0.1-0.5-0.5-0.7-0.4C135.2,52.6,135.3,53,135.4,53.1z"/>
		<path class="st12" d="M138.7,54.7c0.5,0.2,1,0.3,1.5,0.5c0.7,0.2,1.5,0.5,2.3,0.5c0.8,0,1.5-0.3,2.3-0.4c2.5-0.6,5.3-0.2,7.9-0.7
			c1.7-0.3,3.2-1,4.9-1.4c2.7-0.7,5.6-0.6,8.4-0.4c1.6,0.1,3.1,0.2,4.7,0c0.3-0.1,0.7-0.4,0.5-0.5c-0.1,0-0.3-0.1-0.4-0.1
			c-4.8-0.6-9.8-0.6-14.5,0.1c-4.4,0.6-8.6,1.7-13.1,1.6c-1.2,0-2.4-0.2-3.5,0c-0.4,0.1-1.1,0.1-1.4,0.3
			C137.7,54.3,138.4,54.6,138.7,54.7z"/>
		<path class="st13" d="M138.7,51.5c1.4-0.1,2.8,0,4.3-0.1c3.3-0.3,6.5-1.4,9.8-1.7c3.6-0.4,7.3,0.1,10.9,0.7
			c2.6,0.4,5.2,0.8,7.4,1.8c-1.1,0.3-2.3,0.2-3.5,0.2c-1.6-0.1-3.2-0.1-4.9-0.1c-2.4,0-4.8,0.1-6.9,0.7c-1.1,0.4-2.2,0.9-3.3,1.2
			c-1.6,0.4-3.3,0.3-4.9,0.4c-1.2,0-2.4,0.2-3.6,0.5c-0.7,0.2-1.4,0.4-2.1,0.4c-0.7,0-1.4-0.3-2.1-0.6c-1.3-0.5-2.5-1-3.8-1.6
			C133.8,52.3,137.8,51.6,138.7,51.5z"/>
		<g>
			<path class="st14" d="M158.9,50.3c-1.2,0.1-2.5,0.2-3.6,0.4c-2.1,0.4-4,1.2-6.2,1.4c-1.1,0.1-2.4,0.1-3.2,0.7
				c1.7-0.4,3.5-0.4,5.2-0.6c1.9-0.3,3.8-0.9,5.7-1.3c2.3-0.4,4.8-0.3,7.2-0.3c0.7,0,1.5,0.1,2.2,0.1c-0.8-0.1-1.6-0.3-2.4-0.4
				c-0.6-0.1-1.3-0.2-1.9-0.3C160.8,50.2,159.9,50.2,158.9,50.3z"/>
			<path class="st14" d="M168.8,51.3c-3.4,0.1-6.8,0.1-10.2,0.2c-1.6,0-3.3,0.1-4.9,0.4c-0.9,0.2-1.8,0.5-2.7,0.7
				c-2.3,0.5-4.8,0.2-7.2,0.3c-2,0-4.2,0.3-5.7,1.1c0.6,0.2,1.2,0.5,1.8,0.7c0.6,0.3,1.3,0.5,2.1,0.6s1.4-0.2,2.1-0.4
				c1.1-0.3,2.4-0.4,3.6-0.5c1.7-0.1,3.4,0,4.9-0.4c1.2-0.3,2.2-0.8,3.3-1.2c2.1-0.7,4.6-0.7,6.9-0.7c1.6,0,3.2,0,4.9,0.1
				c1.2,0,2.4,0.1,3.5-0.2C170.4,51.8,169.6,51.5,168.8,51.3z"/>
			<path class="st14" d="M136.2,53.3c0.3,0.1,0.5,0.2,0.8,0.3c0.1,0,0.1-0.1,0.2-0.1c3.7-1.6,8.3-1.6,12.5-2.3
				c2.1-0.4,4.2-1,6.3-1.3c0.6-0.1,1.3-0.2,1.9-0.2c-0.8-0.1-1.6-0.1-2.5-0.1c-1.9,0.4-3.8,0.9-5.7,1.2
				C145.2,51.6,140.3,51.8,136.2,53.3z"/>
		</g>
		<path class="st15" d="M149.8,50.6c0,0-0.1,0.1-0.1,0.1c0,0.1,0.1,0.1,0.1,0.1c0.9,0.3,2.1-0.1,2.9,0.4c0.3,0.2,0.5,0.5,0.4,0.8
			c-0.1,0.4-0.5,0.7-0.8,1.1c-0.1,0.1-0.1,0.3,0,0.4c0.1,0,0.1,0.1,0.3,0.1c0.4,0.1,0.8-0.1,1.1-0.3c0.3-0.2,0.6-0.3,1-0.5
			c0.2-0.1,0.3-0.2,0.5-0.3c0.1-0.2,0.1-0.3,0.1-0.5c0-0.2-0.2-0.5-0.4-0.7c-0.6-0.5-1.6-0.5-2.1-1c-0.1-0.1-0.1-0.2-0.2-0.2
			c-0.1-0.1-0.4-0.1-0.5-0.1C151.1,50,150.5,50.1,149.8,50.6z"/>
		<path class="st15" d="M137.9,52.2c0.1,0.1,0.4,0.1,0.6,0.1c1.1,0,2.3,0.1,3.3,0.5c0.3,0.1,0.6,0.3,0.8,0.5
			c0.1,0.2,0.2,0.4,0.3,0.5c0.3,0.4,1.1,0.6,1.7,0.4c0.2-0.1,0.4-0.2,0.4-0.4c0-0.1-0.1-0.2-0.2-0.3c-0.5-0.3-1.2-0.4-1.7-0.7
			c-0.3-0.1-0.5-0.3-0.8-0.5c-0.4-0.2-0.8-0.3-1.2-0.3c-0.6-0.1-1.2-0.2-1.7-0.3C139.1,51.7,137.2,51.7,137.9,52.2z"/>
	</g>
	<g>
		<path class="st11" d="M141.3,91.1c0.3,0.4,0.8,0.6,1.4,0.9c0.7,0.3,1.5,0.5,2.2,0.9c0.4,0.2,0.8,0.5,1.3,0.6
			c0.2-0.4-0.1-0.9-0.5-1.2c-0.4-0.3-1-0.6-1.5-0.8c-0.6-0.2-1.1-0.4-1.6-0.7c-0.3-0.2-0.8-0.8-1.2-0.6
			C141,90.2,141.2,90.9,141.3,91.1z"/>
		<path class="st12" d="M146.5,93.5c0.7,0.3,1.5,0.5,2.3,0.8c1.1,0.4,2.3,0.8,3.6,0.7c1.2,0,2.3-0.4,3.5-0.7
			c3.9-0.9,8.3-0.3,12.3-1.1c2.7-0.5,5-1.6,7.6-2.2c4.1-1,8.7-1,13-0.7c2.4,0.2,4.9,0.4,7.3,0c0.5-0.1,1.1-0.5,0.8-0.8
			c-0.1-0.1-0.4-0.1-0.7-0.1c-7.5-0.9-15.2-0.9-22.6,0.1c-6.8,0.9-13.4,2.7-20.4,2.5c-1.8-0.1-3.7-0.3-5.5,0
			c-0.6,0.1-1.7,0.2-2.2,0.5C144.9,92.9,146,93.4,146.5,93.5z"/>
		<path class="st13" d="M146.6,88.6c2.2-0.1,4.4,0,6.6-0.2c5.2-0.4,10-2.1,15.2-2.7c5.6-0.6,11.4,0.2,17,1c4,0.6,8.1,1.2,11.6,2.7
			c-1.7,0.4-3.6,0.4-5.4,0.3c-2.5-0.1-5-0.1-7.6-0.1c-3.7,0-7.4,0.1-10.8,1.2c-1.8,0.6-3.3,1.4-5.2,1.8c-2.4,0.6-5.1,0.5-7.7,0.6
			c-1.9,0.1-3.8,0.3-5.6,0.7c-1.1,0.3-2.1,0.6-3.3,0.6c-1.1,0-2.2-0.5-3.2-0.9c-1.9-0.8-3.9-1.6-5.9-2.4
			C138.8,89.8,145.1,88.7,146.6,88.6z"/>
		<g>
			<path class="st14" d="M177.9,86.7c-1.9,0.1-3.8,0.3-5.7,0.6c-3.3,0.6-6.3,1.9-9.6,2.2c-1.7,0.2-3.7,0.1-4.9,1.1
				c2.6-0.7,5.4-0.6,8.1-1c3-0.5,5.8-1.5,8.8-2c3.6-0.6,7.4-0.5,11.2-0.4c1.1,0,2.3,0.1,3.4,0.1c-1.3-0.2-2.5-0.4-3.8-0.6
				c-1-0.1-2-0.3-3-0.4C180.9,86.5,179.4,86.6,177.9,86.7z"/>
			<path class="st14" d="M193.3,88.3c-5.3,0.1-10.5,0.2-15.8,0.4c-2.6,0.1-5.2,0.1-7.6,0.6c-1.5,0.3-2.8,0.8-4.3,1.1
				c-3.6,0.7-7.4,0.4-11.2,0.4c-3.2,0-6.5,0.4-8.9,1.8c0.9,0.4,1.9,0.8,2.8,1.2c1,0.4,2.1,0.8,3.2,0.9c1.1,0,2.2-0.3,3.3-0.6
				c1.8-0.4,3.7-0.7,5.6-0.7c2.6-0.1,5.2,0,7.7-0.6c1.8-0.4,3.4-1.2,5.2-1.8c3.3-1.1,7.1-1.2,10.8-1.2c2.5,0,5.1,0,7.6,0.1
				c1.8,0,3.7,0.1,5.4-0.3C195.8,89,194.6,88.6,193.3,88.3z"/>
			<path class="st14" d="M142.6,91.3c0.4,0.2,0.8,0.3,1.2,0.5c0.1,0,0.2-0.1,0.3-0.1c5.7-2.5,12.9-2.5,19.5-3.6
				c3.3-0.6,6.5-1.5,9.8-2.1c1-0.2,2-0.3,3-0.4c-1.3-0.1-2.6-0.2-3.8-0.2c-2.9,0.7-5.9,1.4-8.9,1.9C156.6,88.7,149,89,142.6,91.3z"
				/>
		</g>
		<path class="st15" d="M163.7,87.2c-0.1,0-0.1,0.1-0.1,0.2c0,0.1,0.1,0.1,0.2,0.2c1.4,0.5,3.3-0.2,4.5,0.6c0.5,0.3,0.7,0.8,0.7,1.2
			c-0.1,0.6-0.8,1.1-1.2,1.7c-0.1,0.2-0.2,0.4,0,0.6c0.1,0.1,0.2,0.1,0.4,0.2c0.6,0.1,1.2-0.2,1.7-0.4c0.5-0.3,1-0.5,1.5-0.8
			c0.3-0.1,0.5-0.3,0.7-0.5c0.2-0.2,0.2-0.5,0.2-0.8c-0.1-0.4-0.2-0.8-0.6-1.1c-0.9-0.7-2.5-0.7-3.3-1.5c-0.1-0.1-0.2-0.2-0.3-0.3
			c-0.2-0.1-0.6-0.1-0.8-0.1C165.8,86.2,164.9,86.3,163.7,87.2z"/>
		<path class="st15" d="M145.3,89.7c0.2,0.2,0.6,0.2,0.9,0.2c1.8-0.1,3.6,0.2,5.2,0.8c0.5,0.2,0.9,0.4,1.2,0.8
			c0.2,0.2,0.3,0.6,0.5,0.8c0.5,0.6,1.7,0.9,2.6,0.6c0.3-0.1,0.7-0.4,0.6-0.7c0-0.2-0.2-0.3-0.4-0.4c-0.7-0.5-1.9-0.6-2.7-1.1
			c-0.4-0.2-0.8-0.5-1.2-0.7c-0.6-0.3-1.2-0.4-1.9-0.5c-0.9-0.2-1.8-0.3-2.7-0.5C147.2,88.9,144.2,88.8,145.3,89.7z"/>
	</g>
</g>
</svg>
