<svg xmlns="http://www.w3.org/2000/svg" viewBox="0 0 389 157"  xmlns:v="https://vecta.io/nano"><style><![CDATA[.R{fill:#cc4452}.S{fill:#d3b6a9}.T{fill:#e28681}.U{fill:#ffddd7}.V{fill:#fff}.W{opacity:.34}.X{enable-background:new}]]></style><path d="M73.3 62.4c.3.5.8.8 1.4 1.1.7.3 1.5.6 2.1 1 .4.3.8.6 1.2.7.2-.6-.1-1.2-.5-1.6s-.9-.7-1.5-.9c-.5-.3-1.1-.4-1.6-.8-.3-.2-.8-1-1.1-.8s-.1 1 0 1.3z" class="R"/><path d="M78.4 65.4l2.2.9c1.1.4 2.2.9 3.4.9 1.2-.1 2.2-.6 3.4-1 3.7-1.3 8-.7 11.8-1.8 2.6-.8 4.8-2.2 7.3-3.1 3.9-1.5 8.3-1.6 12.5-1.4 2.3.1 4.7.3 7-.3.5-.1 1.1-.8.8-1.1-.1-.1-.4-.1-.7-.1a60.92 60.92 0 0 0-21.7.9c-6.5 1.4-12.8 4-19.5 3.9-1.8 0-3.6-.2-5.3.2-.6.1-1.7.3-2.1.7-.7.6.4 1.1.9 1.3z" class="S"/><path d="M78.3 59l6.4-.5c5-.7 9.6-3.1 14.6-4 5.4-1 10.9-.1 16.3.8 3.8.6 7.8 1.3 11.2 3.2-1.6.6-3.4.6-5.2.6l-7.3.1c-3.5.1-7.2.4-10.3 1.9-1.7.8-3.2 1.9-4.9 2.5-2.3.9-4.9.8-7.4 1-1.8.2-3.6.5-5.3 1.2-1 .4-2 .9-3.1.9s-2.1-.5-3.1-1l-5.7-3c-3.6-1.9 2.4-3.6 3.8-3.7z" class="T"/><path d="M108.3 55.4l-5.4 1c-3.1.9-6 2.6-9.2 3.2-1.7.3-3.6.3-4.7 1.6 2.5-.9 5.2-.9 7.7-1.5 2.9-.7 5.6-2.1 8.4-2.9 3.5-.9 7.1-.9 10.7-.9h3.3c-1.2-.3-2.5-.4-3.7-.6-.9-.2-1.9-.3-2.9-.5l-4.2.6zm14.9 1.5l-15.2 1c-2.5.2-5 .3-7.3 1.1-1.4.4-2.7 1.1-4.1 1.5-3.4 1.1-7.1.8-10.7.9-3 .2-6.2.8-8.5 2.6.9.5 1.8.9 2.7 1.4 1 .5 2 1 3.1 1s2.1-.5 3.1-.9c1.7-.6 3.5-1 5.3-1.2 2.5-.2 5-.2 7.4-1 1.7-.6 3.2-1.7 4.9-2.5 3.2-1.5 6.8-1.8 10.3-1.9 2.4-.1 4.9-.1 7.3-.1 1.7 0 3.6 0 5.2-.6-1.1-.3-2.3-.8-3.5-1.3zm-48.7 5.8l1.2.6c.1-.1.2-.1.3-.2 5.5-3.5 12.3-3.7 18.6-5.4 3.2-.9 6.2-2.2 9.4-3 .9-.3 1.9-.4 2.9-.6-1.2-.1-2.5-.1-3.7-.1-2.8 1-5.6 2-8.5 2.8-6.8 2-14.1 2.6-20.2 5.9z" class="U"/><path d="M94.7 56.5c-.1.1-.1.1-.1.2s.1.2.2.3c1.4.6 3.2-.3 4.4.6.5.3.7 1 .7 1.6-.1.8-.8 1.4-1.1 2.2-.1.3-.2.5 0 .7.1.1.2.2.4.2.6.1 1.2-.3 1.7-.6s.9-.7 1.4-1c.3-.2.5-.4.7-.7s.2-.7.1-1c-.1-.5-.3-1-.6-1.4-.9-.9-2.5-.9-3.2-1.9-.1-.2-.2-.3-.3-.4-.2-.2-.5-.2-.8-.1-1.5 0-2.4.2-3.5 1.3zm-17.6 3.9c.2.2.6.2.9.2 1.7-.2 3.5.1 5 .9.5.3.9.5 1.2 1 .2.3.3.7.5 1 .5.8 1.7 1.2 2.5.7.3-.2.6-.5.6-.9 0-.2-.2-.4-.3-.5-.7-.7-1.8-.8-2.6-1.3-.4-.3-.8-.7-1.2-.9-.5-.3-1.2-.5-1.8-.6l-2.6-.5c-.4-.1-3.3-.1-2.2.9z" class="W V X"/><path d="M178.8 67.9c.2.3.7.5 1.1.7l1.8.7c.3.2.6.4 1 .5.1-.3-.1-.7-.4-1s-.8-.4-1.2-.6-.9-.3-1.3-.5c-.2-.1-.6-.6-.9-.5-.3 0-.2.5-.1.7z" class="R"/><path d="M183 69.9l1.8.6c.9.3 1.9.6 2.9.6s1.9-.3 2.9-.5c3.2-.7 6.7-.3 10-.9 2.2-.4 4.1-1.3 6.2-1.8 3.3-.8 7-.8 10.5-.6 2 .1 3.9.3 5.9 0 .4-.1.9-.4.7-.7-.1-.1-.3-.1-.6-.1-6.1-.8-12.3-.7-18.3.1-5.5.7-10.9 2.2-16.5 2-1.5-.1-3-.2-4.5 0-.5.1-1.4.2-1.8.4-.4.4.4.8.8.9z" class="S"/><path d="M183.1 65.9l5.4-.2c4.2-.3 8.1-1.7 12.3-2.1 4.5-.5 9.2.2 13.7.8 3.2.5 6.5 1 9.4 2.2-1.4.4-2.9.3-4.4.3-2-.1-4.1-.1-6.1-.1-3 0-6 .1-8.7.9-1.4.4-2.7 1.1-4.2 1.4-2 .5-4.1.4-6.2.5-1.5.1-3.1.2-4.5.6-.9.2-1.7.5-2.6.5s-1.8-.4-2.6-.7c-1.6-.6-3.2-1.3-4.8-2-3-1.1 2.1-2 3.3-2.1z" class="T"/><g class="U"><path d="M208.4 64.4l-4.6.5c-2.6.5-5.1 1.5-7.8 1.8-1.4.1-3 .1-4 .9 2.1-.5 4.4-.5 6.5-.8 2.5-.4 4.7-1.2 7.2-1.6 2.9-.5 6-.4 9-.3l2.8.1-3.1-.5-2.4-.4-3.6.3z"/><path d="M220.9 65.6l-12.8.3c-2.1 0-4.2.1-6.2.5-1.2.2-2.3.6-3.4.9-2.9.6-6 .3-9 .3-2.5 0-5.3.3-7.2 1.4l2.3.9c.8.3 1.7.7 2.6.7s1.8-.3 2.6-.5c1.4-.4 3-.5 4.5-.6 2.1-.1 4.2 0 6.2-.5 1.5-.4 2.8-1 4.2-1.4 2.7-.9 5.8-.9 8.7-.9l6.1.1c1.5 0 3 .1 4.4-.3l-3-.9zm-41.1 2.5c.3.1.7.3 1 .4.1 0 .2-.1.3-.1 4.6-2 10.5-2 15.8-2.9 2.7-.5 5.3-1.2 7.9-1.7l2.4-.3c-1-.1-2.1-.1-3.1-.1-2.4.6-4.8 1.1-7.2 1.6-5.7 1-11.9 1.2-17.1 3.1z"/></g><path d="M196.9 64.7c-.1 0-.1.1-.1.1 0 .1.1.1.2.2 1.1.4 2.7-.1 3.7.5.4.2.6.6.5 1-.1.5-.7.9-1 1.3-.1.2-.1.3 0 .4s.2.1.3.1c.5.1 1-.1 1.4-.3l1.2-.6c.2-.1.4-.2.6-.4.1-.2.1-.4.1-.6 0-.3-.2-.6-.5-.9-.7-.6-2.1-.6-2.6-1.2l-.3-.3c-.2-.1-.4-.1-.7-.1-1.1.1-1.8.2-2.8.8zM182 66.8c.2.1.5.1.8.1 1.4-.1 2.9.1 4.2.6.4.2.8.4 1 .6s.2.5.4.7c.4.5 1.4.8 2.1.5.3-.1.5-.3.5-.5 0-.1-.2-.2-.3-.3-.6-.4-1.5-.5-2.2-.9l-1-.6c-.4-.2-1-.3-1.5-.4l-2.2-.4c-.2 0-2.7-.1-1.8.6z" class="W V X"/><path d="M257.6 92.6c.2.3.5.4.9.5.5.2 1 .3 1.4.5.3.1.5.3.8.4.1-.3 0-.6-.3-.8s-.6-.4-1-.5-.7-.2-1-.4c-.2-.1-.5-.5-.7-.4-.3.1-.2.5-.1.7z" class="R"/><path d="M261 94.1c.5.2 1 .3 1.5.5.7.2 1.5.5 2.3.5s1.5-.3 2.3-.4c2.5-.6 5.3-.2 7.9-.7 1.7-.3 3.2-1 4.9-1.4 2.7-.7 5.6-.6 8.4-.4 1.6.1 3.1.2 4.7 0 .3-.1.7-.4.5-.5-.1 0-.3-.1-.4-.1-4.8-.6-9.8-.6-14.5.1-4.4.6-8.6 1.7-13.1 1.6-1.2 0-2.4-.2-3.5 0-.4.1-1.1.1-1.4.3-.7.1.1.4.4.5z" class="S"/><path d="M261 91l4.3-.1c3.3-.3 6.5-1.4 9.8-1.7 3.6-.4 7.3.1 10.9.7 2.6.4 5.2.8 7.4 1.8-1.1.3-2.3.2-3.5.2-1.6-.1-3.2-.1-4.9-.1-2.4 0-4.8.1-6.9.7-1.1.4-2.2.9-3.3 1.2-1.6.4-3.3.3-4.9.4-1.2 0-2.4.2-3.6.5-.7.2-1.4.4-2.1.4s-1.4-.3-2.1-.6a61.5 61.5 0 0 1-3.8-1.6c-2.3-1 1.8-1.8 2.7-1.8z" class="T"/><g class="U"><path d="M281.1 89.8l-3.6.4c-2.1.4-4 1.2-6.2 1.4-1.1.1-2.4.1-3.2.7 1.7-.4 3.5-.4 5.2-.6 1.9-.3 3.8-.9 5.7-1.3 2.3-.4 4.8-.3 7.2-.3l2.2.1-2.4-.4-1.9-.3-3 .3z"/><path d="M291.1 90.8l-10.2.2c-1.6 0-3.3.1-4.9.4l-2.7.7c-2.3.5-4.8.2-7.2.3-2 0-4.2.3-5.7 1.1l1.8.7c.6.3 1.3.5 2.1.6.7 0 1.4-.2 2.1-.4 1.1-.3 2.4-.4 3.6-.5 1.7-.1 3.4 0 4.9-.4 1.2-.3 2.2-.8 3.3-1.2 2.1-.7 4.6-.7 6.9-.7l4.9.1c1.2 0 2.4.1 3.5-.2l-2.4-.7zm-32.7 1.9l.8.3c.1 0 .1-.1.2-.1 3.7-1.6 8.3-1.6 12.5-2.3 2.1-.4 4.2-1 6.3-1.3.6-.1 1.3-.2 1.9-.2-.8-.1-1.6-.1-2.5-.1-1.9.4-3.8.9-5.7 1.2-4.4.8-9.3 1-13.5 2.5z"/></g><path d="M272 90.1l-.1.1c0 .1.1.1.1.1.9.3 2.1-.1 2.9.4.3.2.5.5.4.8-.1.4-.5.7-.8 1.1-.1.1-.1.3 0 .4.1 0 .1.1.3.1.4.1.8-.1 1.1-.3s.6-.3 1-.5c.2-.1.3-.2.5-.3.1-.2.1-.3.1-.5s-.2-.5-.4-.7c-.6-.5-1.6-.5-2.1-1-.1-.1-.1-.2-.2-.2-.1-.1-.4-.1-.5-.1-1 0-1.5 0-2.3.6zm-11.8 1.6c.1.1.4.1.6.1 1.1 0 2.3.1 3.3.5.3.1.6.3.8.5.1.2.2.4.3.5.3.4 1.1.6 1.7.4.2-.1.4-.2.4-.4 0-.1-.1-.2-.2-.3-.5-.3-1.2-.4-1.7-.7-.3-.1-.5-.3-.8-.5-.4-.2-.8-.3-1.2-.3l-1.7-.3c-.3 0-2.3-.1-1.5.5z" class="W V X"/><path d="M294.5 53.6c.1.2.5.4.8.5l1.3.6c.2.1.4.3.7.4.2-.2 0-.4-.2-.6s-.6-.3-.9-.4-.7-.2-1-.4c-.1-.1-.4-.4-.7-.4-.1-.1 0 .2 0 .3z" class="R"/><path d="M297.6 55.1c.4.1.9.4 1.4.5.7.2 1.4.5 2.2.6s1.5 0 2.3-.1c2.6-.1 5.3.4 7.9.4l5.1-.4c2.7-.1 5.6.1 8.4.6 1.5.2 3.1.5 4.6.5.3 0 .8-.1.6-.4-.1-.1-.2-.1-.4-.1-4.7-.9-9.6-1.5-14.4-1.6-4.4-.1-8.8.3-13.2-.4-1.2-.1-2.3-.4-3.5-.4-.4 0-1.1 0-1.5.1-.5.2.2.5.5.7z" class="S"/><path d="M298.1 52.9l4.2.4c3.3.2 6.6-.3 9.9-.1 3.6.1 7.2.9 10.7 1.6 2.5.6 5 1.1 7.1 2.1-1.1.1-2.3-.1-3.5-.2l-4.8-.6c-2.3-.3-4.7-.5-7-.2-1.2.1-2.3.4-3.5.4-1.6.1-3.3-.1-4.9-.3-1.2-.1-2.4-.1-3.6-.1-.7.1-1.4.1-2.1 0s-1.4-.4-2-.6l-3.5-1.5c-2-.9 2.1-1 3-.9z" class="T"/><g class="U"><path d="M318.2 54.2c-1.2-.1-2.5-.1-3.7-.1l-6.3.3c-1.1-.1-2.4-.2-3.3.1 1.7-.1 3.5.1 5.2.1 2 0 3.9-.2 5.8-.3 2.4 0 4.8.3 7.1.6l2.2.3-2.4-.5c-.6-.1-1.2-.3-1.8-.4l-2.8-.1z"/><path d="M327.9 56l-10.1-.9-4.9-.2c-1 0-1.9.1-2.8.2-2.4.1-4.8-.4-7.1-.6-2-.2-4.2-.3-5.9.1.6.2 1.1.5 1.7.7a5.87 5.87 0 0 0 2 .6c.7.1 1.4 0 2.1 0 1.2-.1 2.4 0 3.6.1 1.7.1 3.3.4 4.9.3l3.5-.4c2.2-.2 4.6 0 7 .2 1.6.1 3.2.4 4.8.6 1.1.1 2.3.3 3.5.2-.8-.4-1.6-.6-2.3-.9zm-32.6-2.2c.3.1.5.2.7.3.1 0 .2 0 .2-.1 3.9-.7 8.5-.2 12.7-.3 2.2 0 4.3-.2 6.5-.2.6 0 1.3 0 1.9.1-.8-.1-1.6-.3-2.4-.4-1.9.1-3.9.2-5.8.2-4.6.2-9.5-.2-13.8.4z"/></g><path d="M309.2 53.4s-.1 0-.1.1.1.1.1.1c.8.4 2.1.1 2.8.6.3.1.4.4.3.6-.1.3-.6.4-.9.6-.1.1-.2.1 0 .3.1.1.1.1.2.1.4.1.8 0 1.2-.1.3-.1.7-.1 1-.2.2-.1.4-.1.5-.2s.2-.2.2-.4a.55.55 0 0 0-.3-.5c-.5-.4-1.5-.5-1.9-.9 0-.1-.1-.1-.2-.1-.1-.1-.3-.1-.5-.1-1-.2-1.6-.2-2.4.1zm-12-.2c.1.1.4.1.6.1 1.1.1 2.3.4 3.2.7.3.1.6.3.7.4s.1.3.2.4c.2.4 1 .6 1.6.4.2-.1.5-.1.5-.3 0-.1-.1-.1-.2-.2-.4-.3-1.1-.4-1.6-.6-.2-.1-.4-.3-.7-.4s-.7-.3-1.1-.4c-.6-.1-1.1-.3-1.7-.4-.2.2-2.1-.1-1.5.3z" class="W V X"/><path d="M158.5 100.3c.2.3.5.4.9.5.5.2 1 .3 1.4.5.3.1.5.3.8.4.1-.3 0-.6-.3-.8s-.6-.4-1-.5-.7-.2-1-.4c-.2-.1-.5-.5-.7-.4-.3.2-.2.6-.1.7z" class="R"/><path d="M161.8 101.9c.5.2 1 .3 1.5.5.7.2 1.5.5 2.3.5s1.5-.3 2.3-.4c2.5-.6 5.3-.2 7.9-.7 1.7-.3 3.2-1 4.9-1.4 2.7-.7 5.6-.6 8.4-.4 1.6.1 3.1.2 4.7 0 .3-.1.7-.4.5-.5-.1 0-.3-.1-.4-.1-4.8-.6-9.8-.6-14.5.1-4.4.6-8.6 1.7-13.1 1.6-1.2 0-2.4-.2-3.5 0-.4.1-1.1.1-1.4.3-.6.1.1.4.4.5z" class="S"/><path d="M161.8 98.7l4.3-.1c3.3-.3 6.5-1.4 9.8-1.7 3.6-.4 7.3.1 10.9.7 2.6.4 5.2.8 7.4 1.8-1.1.3-2.3.2-3.5.2-1.6-.1-3.2-.1-4.9-.1-2.4 0-4.8.1-6.9.7-1.1.4-2.2.9-3.3 1.2-1.6.4-3.3.3-4.9.4-1.2 0-2.4.2-3.6.5-.7.2-1.4.4-2.1.4s-1.4-.3-2.1-.6a61.5 61.5 0 0 1-3.8-1.6c-2.2-1 1.8-1.7 2.7-1.8z" class="T"/><g class="U"><path d="M182 97.5l-3.6.4c-2.1.4-4 1.2-6.2 1.4-1.1.1-2.4.1-3.2.7 1.7-.4 3.5-.4 5.2-.6 1.9-.3 3.8-.9 5.7-1.3 2.3-.4 4.8-.3 7.2-.3l2.2.1-2.4-.4-1.9-.3c-1.1.2-2 .2-3 .3z"/><path d="M191.9 98.5l-10.2.2c-1.6 0-3.3.1-4.9.4l-2.7.7c-2.3.5-4.8.2-7.2.3-2 0-4.2.3-5.7 1.1l1.8.7c.6.3 1.3.5 2.1.6s1.4-.2 2.1-.4c1.1-.3 2.4-.4 3.6-.5 1.7-.1 3.4 0 4.9-.4 1.2-.3 2.2-.8 3.3-1.2 2.1-.7 4.6-.7 6.9-.7l4.9.1c1.2 0 2.4.1 3.5-.2l-2.4-.7zm-32.6 2l.8.3c.1 0 .1-.1.2-.1 3.7-1.6 8.3-1.6 12.5-2.3 2.1-.4 4.2-1 6.3-1.3.6-.1 1.3-.2 1.9-.2-.8-.1-1.6-.1-2.5-.1-1.9.4-3.8.9-5.7 1.2-4.5.8-9.4 1-13.5 2.5z"/></g><path d="M172.9 97.8l-.1.1c0 .1.1.1.1.1.9.3 2.1-.1 2.9.4.3.2.5.5.4.8-.1.4-.5.7-.8 1.1-.1.1-.1.3 0 .4.1 0 .1.1.3.1.4.1.8-.1 1.1-.3s.6-.3 1-.5c.2-.1.3-.2.5-.3.1-.2.1-.3.1-.5s-.2-.5-.4-.7c-.6-.5-1.6-.5-2.1-1-.1-.1-.1-.2-.2-.2-.1-.1-.4-.1-.5-.1-1 0-1.6.1-2.3.6zM161 99.4c.1.1.4.1.6.1 1.1 0 2.3.1 3.3.5.3.1.6.3.8.5.1.2.2.4.3.5.3.4 1.1.6 1.7.4.2-.1.4-.2.4-.4 0-.1-.1-.2-.2-.3-.5-.3-1.2-.4-1.7-.7-.3-.1-.5-.3-.8-.5-.4-.2-.8-.3-1.2-.3l-1.7-.3c-.3 0-2.2 0-1.5.5z" class="W V X"/><path d="M102.2 77.3c.3.4.8.6 1.4.9.7.3 1.5.5 2.2.9.4.2.8.5 1.3.6.2-.4-.1-.9-.5-1.2s-1-.6-1.5-.8c-.6-.2-1.1-.4-1.6-.7-.3-.2-.8-.8-1.2-.6-.4 0-.2.7-.1.9z" class="R"/><path d="M107.4 79.7c.7.3 1.5.5 2.3.8 1.1.4 2.3.8 3.6.7 1.2 0 2.3-.4 3.5-.7 3.9-.9 8.3-.3 12.3-1.1 2.7-.5 5-1.6 7.6-2.2 4.1-1 8.7-1 13-.7 2.4.2 4.9.4 7.3 0 .5-.1 1.1-.5.8-.8-.1-.1-.4-.1-.7-.1-7.5-.9-15.2-.9-22.6.1-6.8.9-13.4 2.7-20.4 2.5-1.8-.1-3.7-.3-5.5 0-.6.1-1.7.2-2.2.5-.6.4.5.9 1 1z" class="S"/><path d="M107.5 74.8l6.6-.2c5.2-.4 10-2.1 15.2-2.7 5.6-.6 11.4.2 17 1 4 .6 8.1 1.2 11.6 2.7-1.7.4-3.6.4-5.4.3-2.5-.1-5-.1-7.6-.1-3.7 0-7.4.1-10.8 1.2-1.8.6-3.3 1.4-5.2 1.8-2.4.6-5.1.5-7.7.6-1.9.1-3.8.3-5.6.7-1.1.3-2.1.6-3.3.6-1.1 0-2.2-.5-3.2-.9l-5.9-2.4c-3.5-1.4 2.8-2.5 4.3-2.6z" class="T"/><path d="M138.8 72.9a55.09 55.09 0 0 0-5.7.6c-3.3.6-6.3 1.9-9.6 2.2-1.7.2-3.7.1-4.9 1.1 2.6-.7 5.4-.6 8.1-1 3-.5 5.8-1.5 8.8-2 3.6-.6 7.4-.5 11.2-.4 1.1 0 2.3.1 3.4.1l-3.8-.6c-1-.1-2-.3-3-.4-1.5.2-3 .3-4.5.4zm15.4 1.6l-15.8.4c-2.6.1-5.2.1-7.6.6-1.5.3-2.8.8-4.3 1.1-3.6.7-7.4.4-11.2.4-3.2 0-6.5.4-8.9 1.8l2.8 1.2c1 .4 2.1.8 3.2.9 1.1 0 2.2-.3 3.3-.6 1.8-.4 3.7-.7 5.6-.7 2.6-.1 5.2 0 7.7-.6 1.8-.4 3.4-1.2 5.2-1.8 3.3-1.1 7.1-1.2 10.8-1.2l7.6.1c1.8 0 3.7.1 5.4-.3a18.99 18.99 0 0 0-3.8-1.3zm-50.7 3c.4.2.8.3 1.2.5.1 0 .2-.1.3-.1 5.7-2.5 12.9-2.5 19.5-3.6 3.3-.6 6.5-1.5 9.8-2.1 1-.2 2-.3 3-.4-1.3-.1-2.6-.2-3.8-.2-2.9.7-5.9 1.4-8.9 1.9-7.1 1.4-14.7 1.7-21.1 4z" class="U"/><path d="M124.6 73.4c-.1 0-.1.1-.1.2s.1.1.2.2c1.4.5 3.3-.2 4.5.6.5.3.7.8.7 1.2-.1.6-.8 1.1-1.2 1.7-.1.2-.2.4 0 .6.1.1.2.1.4.2.6.1 1.2-.2 1.7-.4.5-.3 1-.5 1.5-.8.3-.1.5-.3.7-.5s.2-.5.2-.8c-.1-.4-.2-.8-.6-1.1-.9-.7-2.5-.7-3.3-1.5l-.3-.3c-.2-.1-.6-.1-.8-.1-1.5-.2-2.4-.1-3.6.8zm-18.4 2.5c.2.2.6.2.9.2a12.91 12.91 0 0 1 5.2.8c.5.2.9.4 1.2.8.2.2.3.6.5.8.5.6 1.7.9 2.6.6.3-.1.7-.4.6-.7 0-.2-.2-.3-.4-.4-.7-.5-1.9-.6-2.7-1.1-.4-.2-.8-.5-1.2-.7-.6-.3-1.2-.4-1.9-.5l-2.7-.5c-.2-.1-3.2-.2-2.1.7z" class="W V X"/></svg>