<svg xmlns="http://www.w3.org/2000/svg" xmlns:xlink="http://www.w3.org/1999/xlink" viewBox="0 0 389 157" xmlns:v="https://vecta.io/nano"><style><![CDATA[.R{fill:#ff7900}.S{fill:#ef5d00}.T{fill:#c53e00}.U{fill:#ff9d26}.V{fill:#f2d1b2}.W{fill:#d24c00}]]></style><use xlink:href="#B" class="R"/><use xlink:href="#C" class="S"/><use xlink:href="#D" class="T"/><g class="U"><use xlink:href="#E"/><use xlink:href="#F"/></g><use xlink:href="#G" class="V"/><g class="W"><path d="M163.2 83.4h0c0 .2-.2.1-.2 0v-.1c.1 0 .3 0 .2.1zm-1 .9c.2 0 .1.4-.1.3s-.1-.3.1-.3zm.2 1.2h.2c.1 0 .1.1 0 .2h-.2s-.1-.2 0-.2z"/><use xlink:href="#H"/><path d="M161.7 87.3c.1 0 .1.2 0 .2-.1-.1-.1-.3 0-.2z"/><use xlink:href="#I"/><use xlink:href="#H" x="-1.3" y="3"/><use xlink:href="#H" x="1.7" y="1.3"/><use xlink:href="#H" x="2.1" y="-1.2"/><use xlink:href="#J"/><use xlink:href="#K"/><use xlink:href="#L"/><use xlink:href="#M"/><use xlink:href="#N"/><use xlink:href="#O"/><use xlink:href="#P"/><path d="M154.9 87.6h.1c.2 0 .1.4-.1.3h-.1c-.2-.1-.1-.4.1-.3z"/><use xlink:href="#Q"/><path d="M151.6 87.6l.2.2c.1.1 0 .2-.1.1l-.2-.2c-.1-.1 0-.2.1-.1z"/><use xlink:href="#R"/><path d="M160.6 88.3h0c.2 0 .2.2.1.2h-.1c-.1 0-.1-.2 0-.2zm1.1-.4c.1 0 .1.2 0 .2s-.1-.2 0-.2z"/><use xlink:href="#S"/><path d="M159.8 89.6c.1-.1.2 0 .2.2 0 .1-.2.1-.2 0v-.2zm-2.3-.7h0c.3-.1.2.3 0 0 0 .1 0 .1 0 0z"/><use xlink:href="#T"/><use xlink:href="#U"/></g><path d="M140.4 48.6c-.3.5-.9 1.6-1.9 2.3s-1.7.8-2.9.3c-1.3-.5-1.7-.2-2.3-1.3-.7-1.1-1.1-.9-.8-1.6s-.2-1.1.4-1.5 2-1 3.1-.5 1.7-1 2.9-1 1.2 2.2 1.2 2.2.6.6.3 1.1z" class="R"/><path d="M140.3 47.6l.2.4-.1.7s-.1.2-.3.5-.8 1.2-1.4 1.6c-.5.4-1.6.7-2.1.7s-2.2-.7-2.9-1.4c-.8-.8-.8-1-1-1.3-.1-.2.1-1.3.1-1.3s.1.3.4.8c.2.5.7.2 1.3.7.6.4 1 .4 2 .4s1.3.1 2-.4c.7-.4 1.2-1 1.3-1.2s.2-1.3.2-1.3c.3.4.2 1.1.3 1.1z" class="S"/><path d="M132.9 48.7c.1.2.4.4.7.8.3.5.8.6 1.6.8.7.2 1 .1 1.3.2.4.1 1.3.1 1.7 0s1.1-.7 1.4-1 .7-.9.8-1.3c.2-.4-.3-.7-.1-.7.2.1.3.2.4.5.1.4 0 .6-.2.8s-.4.9-1.5 2-2 .8-2.8.5l-2.2-.6c-.4-.2-.6-.7-.7-1s-.7-.8-.7-1 .3-.8.3-.8-.2.6 0 .8z" class="T"/><path d="M138.2 47.3c.1.2 0 1-1.1 1.3s-1.7.1-2.8-.5-1.1-.7-.6-1.1 1.3-.1 1.8-.3 2 .5 2 .5.7 0 .7.1zm.7-.2c-.5.1-.7-.2-1.1-.2s-.6-.2-.2-.5c.4-.2.5-.4 1-.7s1 .2 1 .2c.3.4-.1 1.1-.7 1.2z" class="U"/><path d="M136.4 47.7c-.2.2-.7.2-1.4.2-.8-.1-1-.2-1.1-.4s0-.4.5-.4c.5-.1.8-.1 1.2-.1s.7.4.7.4.3.1.1.3z" class="V"/><g class="W"><path d="M133 47.1h0c0 .1-.1.2 0 0h0c-.1 0 0 0 0 0zm.6.7c-.1.1-.2-.2-.1-.2.1.1.2.2.1.2zm-.2.7c-.1 0-.1 0 0 0-.2-.1-.2-.1 0 0 0-.1 0-.1 0 0h0zm.7.1c-.1.1-.2-.2-.1-.2.2-.1.2.1.1.2zm-.3 1c-.1 0-.1-.1 0 0 .1-.2.1-.1 0 0zm.6-.1h0c-.2.1-.2 0 0 0h0c.1-.1.1-.1 0 0zm.5.9c-.1.1-.2-.2-.1-.2.2-.1.2.1.1.2zm-1.8-1c-.1.1-.2-.2-.1-.2.2-.1.2.1.1.2zm-.2-1.6c-.1.1-.2-.2-.1-.2s.2.2.1.2zm3.6 1.9c-.1 0-.1-.1-.2-.1 0-.1 0-.1.1-.1s.1 0 .2.1h0c0-.1 0 .1-.1.1zm.5.7c-.1.1-.2.1-.2 0-.1 0-.1-.1-.1-.1.1-.1.1-.1.2-.1 0 .1 0 0 0 0 .1 0 .2.2.1.2zm-1.1.3c0 .1-.1.1-.1.1l-.1-.1c-.1 0-.1-.1-.1-.1l.1-.1.1.1c.1 0 .1.1.1.1z"/><path d="M137.8 49.4c-.1.1-.1.1-.2 0-.1 0-.1-.1-.1-.1s.1-.1.1 0h0c.2-.1.2 0 .2.1zm-2.2-.2c0-.1-.1-.1-.1-.1-.1-.1-.1-.2.1-.2l.1.1s0 .2-.1.2zm3.5-.1h0c-.1.1-.1.1-.2.1s-.1-.1-.1-.1c.1 0 .1-.1.1-.1 0-.1.1-.1.1-.1.1.1.1.2.1.2zm-.2 1.2c-.1.1-.2.1-.2 0-.1 0-.1-.1-.1-.1.1-.1.1-.1.2-.1-.1.1 0 0 0 0 .1 0 .2.2.1.2z"/><path d="M138 49.8h0c-.2.1-.2-.2-.1-.2h.1s.1.2 0 .2zm1.2-.2h0c-.1 0-.2-.1-.1-.1h0c.1 0 .1 0 .1.1zm.8.1l-.1.1c-.1.1-.1 0-.1-.1h.2c0-.1 0 0 0 0zm-4.4-.2c.1.1 0 .2 0 0h0c-.1.1-.1 0 0 0h0zm-1.1.7h0c-.1 0-.1-.1 0 0h0c0-.1 0 0 0 0zm-.7-.2c-.1 0-.1-.1 0 0 .1-.1.1 0 0 0zm-.9-.9s-.1 0 0 0c-.1-.1-.1-.1 0 0 .1-.1 0-.1 0 0zM135 51c0 .1-.1.1 0 0-.1-.1 0-.2 0 0 0-.1 0-.1 0 0zm1.3-.6c-.1.2-.1 0 0 0h0c0 .1 0 .1 0 0zm2 .2s0 .1 0 0c-.1.1-.2-.1-.1-.1s.1.1.1.1zm.5-.8h0c-.1 0-.2-.1-.1-.1h0c.1 0 .1.1.1.1z"/></g><use xlink:href="#B" x="122" y="-39.4" class="R"/><use xlink:href="#C" x="122" y="-39.4" class="S"/><use xlink:href="#D" x="122" y="-39.4" class="T"/><g class="U"><use xlink:href="#E" x="122" y="-39.4"/><use xlink:href="#F" x="122" y="-39.4"/></g><use xlink:href="#G" x="122" y="-39.4" class="V"/><g class="W"><path d="M285.2 44h0c0 .2-.2.1-.2 0v-.1c.1 0 .3 0 .2.1zm-1 .9c.2 0 .1.4-.1.3s-.1-.3.1-.3zm.2 1.2h.2c.1 0 .1.1 0 .2h-.2s-.1-.2 0-.2z"/><use xlink:href="#H" x="122" y="-39.4"/><path d="M283.7 47.9c.1 0 .1.2 0 .2-.1-.1-.1-.3 0-.2z"/><use xlink:href="#I" x="122" y="-39.4"/><use xlink:href="#H" x="120.7" y="-36.4"/><use xlink:href="#H" x="123.7" y="-38.1"/><use xlink:href="#H" x="124.1" y="-40.6"/><use xlink:href="#J" x="122" y="-39.4"/><use xlink:href="#K" x="122" y="-39.4"/><use xlink:href="#L" x="122" y="-39.4"/><use xlink:href="#M" x="122" y="-39.4"/><use xlink:href="#N" x="122" y="-39.4"/><use xlink:href="#O" x="122" y="-39.4"/><use xlink:href="#P" x="122" y="-39.4"/><path d="M276.9 48.2h.1c.2 0 .1.4-.1.3h-.1c-.2-.1-.1-.4.1-.3z"/><use xlink:href="#Q" x="122" y="-39.4"/><path d="M273.6 48.2l.2.2c.1.1 0 .2-.1.1s-.1-.1-.1-.3c-.2 0-.1-.1 0 0z"/><use xlink:href="#R" x="122" y="-39.4"/><path d="M282.6 48.9h.1c.1 0 .1.2 0 .2h-.1c-.1 0-.1-.2 0-.2zm1.1-.4c.1 0 .1.2 0 .2s-.1-.2 0-.2z"/><use xlink:href="#S" x="122" y="-39.4"/><path d="M281.8 50.2c.1-.1.2 0 .2.2 0 .1-.2.1-.2 0v-.2zm-2.3-.7h0c.3-.1.2.3 0 0 0 .1 0 .1 0 0z"/><use xlink:href="#T" x="122" y="-39.4"/><use xlink:href="#U" x="122" y="-39.4"/></g><path d="M230.1 85.2c.4-.7 1.3-2.3 2.7-3.3s2.4-1.1 4.3-.4c1.8.7 2.4.3 3.3 1.9 1 1.6 1.6 1.3 1.1 2.3s.3 1.7-.5 2.2c-.9.5-3 1.4-4.5.7-1.6-.7-2.5 1.4-4.3 1.4-1.7 0-1.7-3.2-1.7-3.2s-.7-.9-.4-1.6z" class="R"/><path d="M230.3 86.7l-.3-.5.1-1s.2-.3.4-.8c.3-.4 1.2-1.7 2-2.3.8-.5 2.3-1 3-1 .8 0 3.1 1 4.3 2.1 1.2 1.2 1.2 1.4 1.4 1.8.1.3-.1 1.9-.1 1.9l-.6-1.2c-.3-.7-1-.3-1.9-1-.9-.6-1.5-.6-3-.6s-1.9-.1-2.9.5-1.7 1.5-1.8 1.7c-.1.3-.3 1.8-.3 1.8-.2-.4-.1-1.4-.3-1.4z" class="S"/><path d="M241.1 85.1c-.2-.3-.5-.5-1-1.2-.4-.7-1.2-.9-2.3-1.2-1-.3-1.4-.2-1.8-.3-.5-.1-1.9-.1-2.4 0s-1.7 1-2.1 1.5-1 1.3-1.2 1.9c-.3.6.4 1 .2 1-.3-.1-.4-.3-.5-.8-.2-.5 0-.9.3-1.2s.6-1.3 2.2-2.9 3-1.2 4.1-.8c1.2.3 2.6.5 3.1.9.5.3.9 1 1 1.5.2.4 1 1.1 1 1.5s-.4 1.1-.4 1.1-.1-.7-.2-1z" class="T"/><path d="M233.3 87.1c-.1-.3 0-1.4 1.7-1.8s2.5-.1 4.1.8 1.6 1 .9 1.6c-.8.6-1.8.1-2.6.4s-2.9-.8-2.9-.8-1.2 0-1.2-.2zm-1 .4c.8-.2 1 .3 1.6.3s.9.3.3.7c-.5.3-.7.6-1.4 1s-1.4-.3-1.4-.3c-.5-.7.1-1.6.9-1.7z" class="U"/><path d="M235.9 86.5c.3-.3 1-.3 2.1-.3 1.1.1 1.4.3 1.6.5s0 .5-.7.6l-1.7.2c-.5 0-1-.5-1-.5s-.6-.1-.3-.5z" class="V"/><g class="W"><path d="M240.8 87.5h0c0-.2.2-.3.2-.1h0c.1.1-.1.1-.2.1zm-.8-1.1c.2-.1.3.3.1.3-.2-.1-.3-.3-.1-.3zm.3-1h.2c.1.1.1.2 0 .2h-.2c-.1 0 0-.2 0-.2zm-1.1-.1c.2-.1.3.3.1.3-.2.1-.2-.2-.1-.3zm.5-1.5c.1 0 .1.2 0 .2-.1.1-.1-.1 0-.2zm-.9.2l.2-.1c.1 0 .1.2 0 .2l-.2.1c-.1 0-.1-.1 0-.2zm-.7-1.3c.2-.1.3.3.1.3-.2.1-.3-.2-.1-.3zm2.6 1.5c.2-.1.3.3.1.3s-.3-.2-.1-.3zm.4 2.2c.2-.1.3.3.1.3s-.3-.3-.1-.3zm-5.3-2.6c.1 0 .2.1.3.2 0 .1 0 .2-.1.2s-.2 0-.3-.1h0c-.1-.1-.1-.4.1-.3zm-.7-1.2c.1-.1.3-.1.3 0 .1 0 .1.1.1.2-.1.1-.2.1-.3.1 0-.1 0 0 0 0-.1.1-.2-.2-.1-.3zm1.5-.4c0-.1.1-.1.2-.1 0 0 .1.1.2.1s.1.1.1.2-.1.1-.2.1c0 0-.1-.1-.2-.1s-.1-.2-.1-.2zm-2.7 2c.1-.1.2-.1.3 0 .1 0 .1.1.1.2 0 0-.1.1-.2 0h0c-.2 0-.3-.1-.2-.2zm3.2.2c0 .1.1.1.2.1.2.1.1.3-.1.3l-.2-.1c-.1 0 0-.3.1-.3zm-5.1.2c.1 0 .1-.1 0 0 .1-.2.2-.2.3-.2s.2.1.1.2c-.1 0-.1.1-.1.1 0 .1-.1.1-.2.1-.1-.1-.1-.2-.1-.2zm.3-1.8c.1-.1.3-.1.3 0 .1 0 .1.1.1.2-.1.1-.2.1-.3.1.1-.1 0 0 0 0-.1 0-.2-.2-.1-.3z"/><path d="M233.7 83.5h0c.3-.1.3.3.2.3h-.1c-.2 0-.3-.2-.1-.3zm-1.8.3h0c.2 0 .3.2.1.2h0c-.1 0-.2-.1-.1-.2zm-1.1-.1l.2-.2c.1-.1.2 0 .1.1s-.1.1-.3.1c0 .1-.1.1 0 0zm6.3.2c-.1-.1 0-.1 0 0h0c.1-.1.1.1 0 0 0 .1-.1.1 0 0zm1.6-.9h0c.2 0 .2.2.1.2h-.1c-.1-.1-.1-.2 0-.2zm1 .3c.1 0 .1.2 0 .2s-.1-.2 0-.2zm1.4 1.3s0-.1 0 0c.2.1.1.2 0 .2s-.1-.1 0-.2zm-3.1-2.8c0-.1.2-.1.2 0 0 .2-.1.3-.2.2v-.2zm-2 .8c.2-.2.3.1 0 0h0c0-.1 0-.1 0 0zm-2.8-.2c-.1 0-.1-.1 0 0 .2-.1.3.2.1.2-.1-.1-.1-.2-.1-.2zm-.7 1.2h0c.2 0 .3.2.1.2h0c-.1 0-.1-.2-.1-.2z"/></g><use xlink:href="#B" x="44.1" y="-36.3" class="R"/><use xlink:href="#C" x="44.1" y="-36.3" class="S"/><use xlink:href="#D" x="44.1" y="-36.3" class="T"/><g class="U"><use xlink:href="#E" x="44.1" y="-36.3"/><use xlink:href="#F" x="44.1" y="-36.3"/></g><use xlink:href="#G" x="44.1" y="-36.3" class="V"/><g class="W"><path d="M207.3 47.1h0c0 .2-.2.1-.2 0V47c.1 0 .3 0 .2.1zm-1 .9c.2 0 .1.4-.1.3s-.1-.3.1-.3zm.2 1.2h.2c.1 0 .1.1 0 .2h-.2s-.1-.2 0-.2z"/><use xlink:href="#H" x="44.1" y="-36.3"/><path d="M205.8 51c.1 0 .1.2 0 .2-.1-.1-.1-.3 0-.2z"/><use xlink:href="#I" x="44.1" y="-36.3"/><use xlink:href="#H" x="42.8" y="-33.3"/><use xlink:href="#H" x="45.8" y="-35"/><use xlink:href="#H" x="46.2" y="-37.5"/><use xlink:href="#J" x="44.1" y="-36.3"/><use xlink:href="#K" x="44.1" y="-36.3"/><use xlink:href="#L" x="44.1" y="-36.3"/><use xlink:href="#M" x="44.1" y="-36.3"/><use xlink:href="#N" x="44.1" y="-36.3"/><use xlink:href="#O" x="44.1" y="-36.3"/><use xlink:href="#P" x="44.1" y="-36.3"/><path d="M199 51.3h0c.3 0 .2.4 0 .3h-.1c-.2-.1-.1-.4.1-.3z"/><use xlink:href="#Q" x="44.1" y="-36.3"/><path d="M195.7 51.3l.2.2c.1.1 0 .2-.1.1l-.2-.2c-.1-.1 0-.2.1-.1z"/><use xlink:href="#R" x="44.1" y="-36.3"/><path d="M204.7 52h0c.2 0 .2.2.1.2h-.1c-.1 0-.1-.2 0-.2zm1.1-.4c.1 0 .1.2 0 .2s-.1-.2 0-.2z"/><use xlink:href="#S" x="44.1" y="-36.3"/><path d="M203.9 53.3c.1-.1.2 0 .2.2 0 .1-.2.1-.2 0v-.2zm-2.3-.7h0c.3-.1.2.3 0 0 0 .1 0 .1 0 0z"/><use xlink:href="#T" x="44.1" y="-36.3"/><use xlink:href="#U" x="44.1" y="-36.3"/></g><use xlink:href="#B" x="178.8" y="-10.8" class="R"/><use xlink:href="#C" x="178.8" y="-10.8" class="S"/><use xlink:href="#D" x="178.8" y="-10.8" class="T"/><g class="U"><use xlink:href="#E" x="178.8" y="-10.8"/><use xlink:href="#F" x="178.8" y="-10.8"/></g><use xlink:href="#G" x="178.8" y="-10.8" class="V"/><g class="W"><path d="M342 72.6h0c0 .2-.2.1-.2 0v-.1c.1 0 .3 0 .2.1zm-1 .9c.2 0 .1.4-.1.3s-.1-.3.1-.3zm.2 1.2h.2c.1 0 .1.1 0 .2h-.2s-.1-.2 0-.2z"/><use xlink:href="#H" x="178.8" y="-10.8"/><path d="M340.5 76.5c.1 0 .1.2 0 .2-.1-.1-.1-.3 0-.2z"/><use xlink:href="#I" x="178.8" y="-10.8"/><use xlink:href="#H" x="177.5" y="-7.8"/><use xlink:href="#H" x="180.5" y="-9.5"/><use xlink:href="#H" x="180.9" y="-12"/><use xlink:href="#J" x="178.8" y="-10.8"/><use xlink:href="#K" x="178.8" y="-10.8"/><use xlink:href="#L" x="178.8" y="-10.8"/><use xlink:href="#M" x="178.8" y="-10.8"/><use xlink:href="#N" x="178.8" y="-10.8"/><use xlink:href="#O" x="178.8" y="-10.8"/><use xlink:href="#P" x="178.8" y="-10.8"/><path d="M333.7 76.8h.1c.2 0 .1.4-.1.3h-.1c-.2-.1-.1-.4.1-.3z"/><use xlink:href="#Q" x="178.8" y="-10.8"/><path d="M330.4 76.8l.2.2c.1.1 0 .2-.1.1s-.1-.1-.1-.3c-.2 0-.1-.1 0 0z"/><use xlink:href="#R" x="178.8" y="-10.8"/><path d="M339.4 77.5h.1c.1 0 .1.2 0 .2h-.1c-.1 0-.1-.2 0-.2zm1.1-.4c.1 0 .1.2 0 .2s-.1-.2 0-.2z"/><use xlink:href="#S" x="178.8" y="-10.8"/><path d="M338.6 78.8c.1-.1.2 0 .2.2 0 .1-.2.1-.2 0v-.2zm-2.3-.7h0c.3-.1.2.3 0 0 0 .1 0 .1 0 0z"/><use xlink:href="#T" x="178.8" y="-10.8"/><use xlink:href="#U" x="178.8" y="-10.8"/></g><use xlink:href="#B" x="-70" y="-6.1" class="R"/><use xlink:href="#C" x="-70" y="-6.1" class="S"/><use xlink:href="#D" x="-70" y="-6.1" class="T"/><g class="U"><use xlink:href="#E" x="-70" y="-6.1"/><use xlink:href="#F" x="-70" y="-6.1"/></g><use xlink:href="#G" x="-70" y="-6.1" class="V"/><g class="W"><path d="M93.2 77.3h0c0 .2-.2.1-.2 0v-.1c.1 0 .3 0 .2.1zm-1 .9c.2 0 .1.4-.1.3s-.1-.3.1-.3zm.2 1.2h.2c.1 0 .1.1 0 .2h-.2s-.1-.2 0-.2z"/><use xlink:href="#H" x="-70" y="-6.1"/><path d="M91.7 81.2c.1 0 .1.2 0 .2-.1-.1-.1-.3 0-.2z"/><use xlink:href="#I" x="-70" y="-6.1"/><use xlink:href="#H" x="-71.3" y="-3.1"/><use xlink:href="#H" x="-68.3" y="-4.8"/><use xlink:href="#H" x="-67.9" y="-7.3"/><use xlink:href="#J" x="-70" y="-6.1"/><use xlink:href="#K" x="-70" y="-6.1"/><use xlink:href="#L" x="-70" y="-6.1"/><use xlink:href="#M" x="-70" y="-6.1"/><use xlink:href="#N" x="-70" y="-6.1"/><use xlink:href="#O" x="-70" y="-6.1"/><use xlink:href="#P" x="-70" y="-6.1"/><path d="M84.9 81.5h0c.3 0 .2.4 0 .3h-.1c-.2-.1-.1-.4.1-.3z"/><use xlink:href="#Q" x="-70" y="-6.1"/><path d="M81.6 81.5l.2.2c.1.1 0 .2-.1.1s-.1-.1-.1-.3c-.2 0-.1-.1 0 0zm7.2-.3c.1 0 .1.2 0 .2h0c0 .1-.2 0 0-.2-.2 0-.1 0 0 0zm1.8 1h0c.2 0 .2.2.1.2h-.1c-.1 0-.1-.2 0-.2zm1.1-.4c.1 0 .1.2 0 .2s-.1-.2 0-.2z"/><use xlink:href="#S" x="-70" y="-6.1"/><path d="M89.8 83.5c.1-.1.2 0 .2.2 0 .1-.2.1-.2 0v-.2zm-2.3-.7h0c.3-.1.2.3 0 0 0 .1 0 .1 0 0z"/><use xlink:href="#T" x="-70" y="-6.1"/><use xlink:href="#U" x="-70" y="-6.1"/></g><defs ><path id="B" d="M151.1 84.2s0-3.7 2-3.7 3.1 2.4 4.9 1.6 4.2.2 5.2.8c.9.6.1 1.4.6 2.5s-.2.8-1.3 2.6c-1 1.8-1.7 1.4-3.8 2.2s-3.3.7-4.9-.5c-1.6-1.1-2.6-3-3.1-3.8-.4-.8.4-1.7.4-1.7z"/><path id="C" d="M151.3 82.3l.3 2.1c.1.3 1 1.3 2.1 2s1.6.6 3.3.6 2.4 0 3.4-.7c1.1-.7 1.8-.3 2.2-1.1l.7-1.4s.2 1.8.1 2.2c-.2.5-.2.7-1.6 2.1-1.3 1.3-4 2.4-4.9 2.4s-2.6-.5-3.5-1.1-2-2.1-2.3-2.6l-.5-.9-.1-1.1.4-.6c.2 0 .1-1.2.4-1.9z"/><path id="D" d="M163.5 85s.5.9.5 1.3-1 1.2-1.2 1.7-.6 1.3-1.2 1.7-2.2.6-3.6 1c-1.3.5-2.9.9-4.7-.9s-2.2-2.9-2.5-3.3-.5-.8-.3-1.4c.1-.5.3-.8.6-.9s-.5.4-.2 1.1.9 1.6 1.4 2.2 1.8 1.6 2.4 1.7 2.2.1 2.8 0c.5-.1.9.1 2.1-.3s2.1-.6 2.6-1.4.9-1 1.1-1.4.2-1.1.2-1.1z"/><path id="E" d="M155.7 83.5s2.4-1.3 3.3-.9 2.1-.2 3 .5c.8.7.8.8-1 1.8s-2.8 1.4-4.7.9-2-1.7-1.9-2.1c0-.2 1.3-.2 1.3-.2z"/><path id="F" d="M152.2 81.5s.8-.8 1.6-.4 1 .7 1.6 1.1c.6.5.3.8-.4.8s-.9.5-1.8.3c-.9-.1-1.6-1.2-1-1.8z"/><path id="G" d="M157.6 83.8s.6-.6 1.2-.6 1.2.1 2 .2 1 .4.8.7-.5.5-1.8.6-2.1 0-2.4-.3c-.4-.4.2-.6.2-.6z"/><path id="H" d="M161.3 85.5c.2 0 .1.4-.1.3s-.1-.4.1-.3z"/><path id="I" d="M160.7 87.1l.2.1c.1 0 .1.2 0 .2l-.2-.1c-.1-.1-.1-.2 0-.2z"/><path id="J" d="M157.2 87.3h0c.1-.1.2-.1.3-.1s.1.1.1.2c-.1.1-.2.2-.3.2-.3.1-.3-.3-.1-.3z"/><path id="K" d="M156.6 88.6s0 .1 0 0c.1 0 .2 0 .3.1 0 .1 0 .2-.1.2-.1.1-.3.1-.4 0s0-.4.2-.3z"/><path id="L" d="M158.3 89.2c.1 0 .2-.1.2-.1.1 0 .2 0 .2.1s0 .2-.1.2-.2.1-.2.1c-.1 0-.2 0-.2-.1 0 0 0-.2.1-.2z"/><path id="M" d="M155.3 86.9h0c.1-.1.2 0 .2 0 0 .1 0 .2-.1.2-.1.1-.2.1-.3 0s0-.3.2-.2z"/><path id="N" d="M158.7 86.5l.2-.1c.2-.1.3.2.1.3-.1 0-.2 0-.2.1-.2 0-.3-.3-.1-.3z"/><path id="O" d="M153 86.4c.1 0 .2 0 .2.1 0 0 0 .1.1.1.1.1 0 .2-.1.2s-.2 0-.2-.1c0 0 0-.1-.1-.1 0 0 0-.1.1-.2z"/><path id="P" d="M153.4 88.4s.1.1 0 0c.1 0 .2 0 .3.1 0 .1 0 .2-.1.2-.1.1-.3.1-.4 0s0-.4.2-.3z"/><path id="Q" d="M152.9 87.3h0c.2 0 .1.2 0 .2h-.1c-.1-.1 0-.2.1-.2z"/><path id="R" d="M158.8 87.3c.1 0 .1.2 0 .2h0c0 .1-.2 0-.1-.1-.1-.1 0-.1.1-.1z"/><path id="S" d="M163.3 86.4c.1 0 .2.1.1.2 0 .1-.1 0-.1 0-.1-.1-.1-.2 0-.2z"/><path id="T" d="M154.4 89c.2 0 .1.3-.1.3-.1 0-.1-.1 0-.1 0-.1 0-.2.1-.2z"/><path id="U" d="M153.6 87.6h0c.2 0 .1.2 0 .2h-.1c-.1 0 0-.2.1-.2z"/></defs></svg>