<?xml version="1.0" encoding="utf-8"?>
<!-- Generator: Adobe Illustrator 21.0.0, SVG Export Plug-In . SVG Version: 6.00 Build 0)  -->
<svg version="1.1" id="Слой_1" xmlns="http://www.w3.org/2000/svg" xmlns:xlink="http://www.w3.org/1999/xlink" x="0px" y="0px"
	 viewBox="0 0 389 157" style="enable-background:new 0 0 389 157;" xml:space="preserve">
<style type="text/css">
	.st0{display:none;}
	.st1{display:inline;}
	.st2{fill:#732A13;}
	.st3{fill:#6C151C;}
	.st4{fill:#F6C073;}
	.st5{fill:#F1A12E;}
	.st6{opacity:0.3;fill:#FBE0BA;enable-background:new    ;}
	.st7{fill:#6F4026;}
	.st8{fill:#F6C278;}
	.st9{display:inline;fill:#AB1717;}
	.st10{fill:#FF7900;}
	.st11{fill:#EF5D00;}
	.st12{fill:#C53E00;}
	.st13{fill:#FF9D26;}
	.st14{fill:#F2D1B2;}
	.st15{fill:#D24C00;}
</style>
<g id="Layer_1" class="st0">
	<g class="st1">
		
			<ellipse transform="matrix(0.9998 -1.910948e-02 1.910948e-02 0.9998 -1.7337 3.9668)" class="st2" cx="206.7" cy="92.7" rx="175.1" ry="48.7"/>
		
			<ellipse transform="matrix(0.9998 -1.911576e-02 1.911576e-02 0.9998 -1.5262 3.9298)" class="st3" cx="204.8" cy="81.8" rx="161" ry="44.8"/>
		
			<ellipse transform="matrix(0.9998 -1.911913e-02 1.911913e-02 0.9998 -1.4442 3.9373)" class="st4" cx="205.2" cy="77.5" rx="158.3" ry="44.6"/>
		
			<ellipse transform="matrix(0.9998 -1.910377e-02 1.910377e-02 0.9998 -1.317 3.9311)" class="st5" cx="205.1" cy="70.9" rx="145.6" ry="32.3"/>
		
			<ellipse transform="matrix(0.9998 -1.911114e-02 1.911114e-02 0.9998 -1.3424 3.9328)" class="st5" cx="205.1" cy="72.2" rx="139.4" ry="30.9"/>
		<path class="st6" d="M204.5,41.3c-77,1.5-139.1,16.5-138.8,33.6s63,29.7,140,28.3c77-1.5,139.1-16.5,138.8-33.6
			S281.5,39.9,204.5,41.3z M76.5,69.9c-0.4-0.2-0.5-0.7-0.3-1.1c3.1-9.1,15.8-8,22.9-11.7c0.3-0.2,0.6-0.2,0.8-0.1
			c15-5,30.2-7.7,46.5-8.8c9-0.6,18.1-0.6,27.1-0.7c5.3-0.1,12.1-0.5,16.1,3.6c0.6,0.6-0.1,1.5-0.7,1.7c-8,3.7-17.1,2.5-25.7,3.3
			c-11,1-22.1,2.7-32.9,4.8c-10.9,2.1-22.2,3.3-33,6.1C90.6,68.8,83.3,72.4,76.5,69.9z M180.5,95.3c-6.8,1.8-14,1.7-21,1.7
			c-9.1,0-18.1-0.1-27.2,0c-5.6,0-12.9,0-17.3-4.1c-4.6-4.3-9.2-3.7-15-3.6c-4.6,0-17.9,0.3-17.1-7.4c0.6-5.4,10.5-7.5,14.4-8.5
			c8.1-2.1,16.5-3.3,24.8-4c3.8-0.3,7.4-0.5,11.1-1.1c0.1-0.1,0.3-0.2,0.4-0.2c12.3-2.4,24.7-4,37.2-4.6c8.1-0.4,22-1.8,22.4,9.6
			C193.7,82.5,190.7,92.5,180.5,95.3z M213.5,49.7c7-6.9,18.9-4.7,27.8-6c0.5-0.1,0.7,0.1,0.8,0.4c6,0,12.1,0.7,18.1,1.3
			c6.4,0.6,16.7,0.8,21.1,6.5c0.4,0.6,0.1,1.6-0.7,1.7c-12.9,3.4-25.5-0.7-38.5,0c-8.7,0.5-20.9,2.9-28.6-2.4
			C213,50.8,213,50.1,213.5,49.7z M261.1,84.1c-1.6,4.3-7.6,5.8-11.6,6.6c-7.1,1.4-14.7,2.8-21.8,3.4c-7,0.6-12.6-1.2-15.8-7.8
			c-1.4-3-6.8-16-3.7-20.4c0.1-0.1,0.2-0.3,0.3-0.4c0.4-0.4,0.9-0.7,1.6-0.9c2-0.8,4.1-0.6,6.5,0.2c5.2,1.6,10.6,2.4,15.9,3.9
			c7,1.9,14.2,4.3,20.9,7.3C256.2,77.1,262.7,79.8,261.1,84.1z M300.7,71.4c-4.1,5.6-14.6,4.6-20.5,4.1c-11.3-0.9-22.3-2.5-33.2-5.8
			c-3.7-1.1-18.2-3.5-18.9-8.4c-0.3-2.3,2.3-3.5,5.3-4.1c9.4-3.8,19.3,0,28.9,0.7c5.4,0.4,10.9,1.2,16.2,2.1
			C281.8,60.5,306.3,63.8,300.7,71.4z"/>
		<path class="st7" d="M38.5,90c0,0-6.8,2.4-0.1,15.3s86.2,37.6,160.7,32.7c0,0,51.9,0,52.2-4.1s-19.8-4.3-19.8-4.3
			s-23.5,0.7-33.8,0.8C187.5,130.4,54.8,131.5,38.5,90z"/>
		<path class="st8" d="M55.9,70.2c0,0-3.4-0.2-6.1,6.4c-2.7,6.6,7.9,22.9,55,33.2c47,10.3,115.1,12.6,150.4,6.2s18.1-15.1,0.9-12.8
			c-17.2,2.3-17.2,2.3-17.2,2.3S153,108.1,110,99.9C69.2,92.2,55.1,87.1,55.9,70.2z"/>
	</g>
</g>
<g id="Слой_3" class="st0">
	<path class="st9" d="M142.3,45.8c0,0,46.5-2,75.9-1.5c19.1,0.2,41.2-3.1,77.1,5.1c17.5,3.8,28.6,7.5,34.6,10.6
		c3.6,1.9,6,5.6,5.9,9.7c-0.1,6.2-6.3,15.6-56.8,26c-49.7,4.8-55.4,4.6-77.4,3.8c-24.5,0.9-52.2,3.2-76.1-2.4
		c-26.9-5.6-68.6-13.4-56.1-25.5C77.3,64.7,87.5,54.1,142.3,45.8z"/>
</g>
<g id="Слой_4">
	<g>
		<g>
			<path class="st10" d="M151.1,84.2c0,0,0-3.7,2-3.7s3.1,2.4,4.9,1.6s4.2,0.2,5.2,0.8c0.9,0.6,0.1,1.4,0.6,2.5s-0.2,0.8-1.3,2.6
				c-1,1.8-1.7,1.4-3.8,2.2c-2.1,0.8-3.3,0.7-4.9-0.5c-1.6-1.1-2.6-3-3.1-3.8C150.3,85.1,151.1,84.2,151.1,84.2z"/>
			<path class="st11" d="M151.3,82.3c0,0,0.2,1.8,0.3,2.1c0.1,0.3,1,1.3,2.1,2s1.6,0.6,3.3,0.6s2.4,0,3.4-0.7
				c1.1-0.7,1.8-0.3,2.2-1.1c0.5-0.9,0.7-1.4,0.7-1.4s0.2,1.8,0.1,2.2c-0.2,0.5-0.2,0.7-1.6,2.1c-1.3,1.3-4,2.4-4.9,2.4
				s-2.6-0.5-3.5-1.1s-2-2.1-2.3-2.6s-0.5-0.9-0.5-0.9l-0.1-1.1l0.4-0.6C151.1,84.2,151,83,151.3,82.3z"/>
			<path class="st12" d="M163.5,85c0,0,0.5,0.9,0.5,1.3s-1,1.2-1.2,1.7s-0.6,1.3-1.2,1.7c-0.6,0.4-2.2,0.6-3.6,1
				c-1.3,0.5-2.9,0.9-4.7-0.9s-2.2-2.9-2.5-3.3s-0.5-0.8-0.3-1.4c0.1-0.5,0.3-0.8,0.6-0.9s-0.5,0.4-0.2,1.1s0.9,1.6,1.4,2.2
				s1.8,1.6,2.4,1.7c0.6,0.1,2.2,0.1,2.8,0c0.5-0.1,0.9,0.1,2.1-0.3c1.2-0.4,2.1-0.6,2.6-1.4s0.9-1,1.1-1.4
				C163.5,85.7,163.5,85,163.5,85z"/>
			<path class="st13" d="M155.7,83.5c0,0,2.4-1.3,3.3-0.9s2.1-0.2,3,0.5c0.8,0.7,0.8,0.8-1,1.8s-2.8,1.4-4.7,0.9s-2-1.7-1.9-2.1
				C154.4,83.5,155.7,83.5,155.7,83.5z"/>
			<path class="st13" d="M152.2,81.5c0,0,0.8-0.8,1.6-0.4s1,0.7,1.6,1.1c0.6,0.5,0.3,0.8-0.4,0.8s-0.9,0.5-1.8,0.3
				C152.3,83.2,151.6,82.1,152.2,81.5z"/>
			<path class="st14" d="M157.6,83.8c0,0,0.6-0.6,1.2-0.6c0.6,0,1.2,0.1,2,0.2s1,0.4,0.8,0.7c-0.2,0.3-0.5,0.5-1.8,0.6
				s-2.1,0-2.4-0.3C157,84,157.6,83.8,157.6,83.8z"/>
		</g>
		<g>
			<path class="st15" d="M163.2,83.4L163.2,83.4c0,0.2-0.2,0.1-0.2,0v-0.1C163.1,83.3,163.3,83.3,163.2,83.4z"/>
			<path class="st15" d="M162.2,84.3c0.2,0,0.1,0.4-0.1,0.3S162,84.3,162.2,84.3z"/>
			<path class="st15" d="M162.4,85.5c0.1,0,0.1,0,0.2,0c0.1,0,0.1,0.1,0,0.2c-0.1,0-0.1,0-0.2,0C162.4,85.7,162.3,85.5,162.4,85.5z"
				/>
			<path class="st15" d="M161.3,85.5c0.2,0,0.1,0.4-0.1,0.3C161,85.7,161.1,85.4,161.3,85.5z"/>
			<path class="st15" d="M161.7,87.3c0.1,0,0.1,0.2,0,0.2C161.6,87.4,161.6,87.2,161.7,87.3z"/>
			<path class="st15" d="M160.7,87.1l0.2,0.1c0.1,0,0.1,0.2,0,0.2l-0.2-0.1C160.6,87.2,160.6,87.1,160.7,87.1z"/>
			<path class="st15" d="M160,88.5c0.2,0,0.1,0.4-0.1,0.3C159.7,88.7,159.8,88.4,160,88.5z"/>
			<path class="st15" d="M163,86.8c0.2,0,0.1,0.4-0.1,0.3S162.8,86.7,163,86.8z"/>
			<path class="st15" d="M163.4,84.3c0.2,0,0.1,0.4-0.1,0.3S163.2,84.2,163.4,84.3z"/>
			<path class="st15" d="M157.2,87.3L157.2,87.3c0.1-0.1,0.2-0.1,0.3-0.1s0.1,0.1,0.1,0.2c-0.1,0.1-0.2,0.2-0.3,0.2
				C157,87.7,157,87.3,157.2,87.3z"/>
			<path class="st15" d="M156.6,88.6C156.6,88.6,156.6,88.7,156.6,88.6c0.1,0,0.2,0,0.3,0.1c0,0.1,0,0.2-0.1,0.2
				c-0.1,0.1-0.3,0.1-0.4,0C156.3,88.8,156.4,88.5,156.6,88.6z"/>
			<path class="st15" d="M158.3,89.2c0.1,0,0.2-0.1,0.2-0.1c0.1,0,0.2,0,0.2,0.1s0,0.2-0.1,0.2s-0.2,0.1-0.2,0.1
				c-0.1,0-0.2,0-0.2-0.1C158.2,89.4,158.2,89.2,158.3,89.2z"/>
			<path class="st15" d="M155.3,86.9L155.3,86.9c0.1-0.1,0.2,0,0.2,0c0,0.1,0,0.2-0.1,0.2c-0.1,0.1-0.2,0.1-0.3,0
				C155,87,155.1,86.8,155.3,86.9z"/>
			<path class="st15" d="M158.7,86.5l0.2-0.1c0.2-0.1,0.3,0.2,0.1,0.3c-0.1,0-0.2,0-0.2,0.1C158.6,86.8,158.5,86.5,158.7,86.5z"/>
			<path class="st15" d="M153,86.4c0.1,0,0.2,0,0.2,0.1c0,0,0,0.1,0.1,0.1c0.1,0.1,0,0.2-0.1,0.2s-0.2,0-0.2-0.1c0,0,0-0.1-0.1-0.1
				C152.9,86.6,152.9,86.5,153,86.4z"/>
			<path class="st15" d="M153.4,88.4C153.4,88.4,153.5,88.5,153.4,88.4c0.1,0,0.2,0,0.3,0.1c0,0.1,0,0.2-0.1,0.2
				c-0.1,0.1-0.3,0.1-0.4,0S153.2,88.3,153.4,88.4z"/>
			<path class="st15" d="M154.9,87.6h0.1c0.2,0,0.1,0.4-0.1,0.3h-0.1C154.6,87.8,154.7,87.5,154.9,87.6z"/>
			<path class="st15" d="M152.9,87.3L152.9,87.3c0.2,0,0.1,0.2,0,0.2h-0.1C152.7,87.4,152.8,87.3,152.9,87.3z"/>
			<path class="st15" d="M151.6,87.6c0.1,0.1,0.1,0.1,0.2,0.2c0.1,0.1,0,0.2-0.1,0.1s-0.1-0.1-0.2-0.2S151.5,87.5,151.6,87.6z"/>
			<path class="st15" d="M158.8,87.3c0.1,0,0.1,0.2,0,0.2l0,0c0,0.1-0.2,0-0.1-0.1C158.6,87.3,158.7,87.3,158.8,87.3z"/>
			<path class="st15" d="M160.6,88.3L160.6,88.3c0.2,0,0.2,0.2,0.1,0.2h-0.1C160.5,88.5,160.5,88.3,160.6,88.3z"/>
			<path class="st15" d="M161.7,87.9c0.1,0,0.1,0.2,0,0.2C161.6,88.1,161.6,87.9,161.7,87.9z"/>
			<path class="st15" d="M163.3,86.4c0.1,0,0.2,0.1,0.1,0.2c0,0.1-0.1,0-0.1,0C163.2,86.5,163.2,86.4,163.3,86.4z"/>
			<path class="st15" d="M159.8,89.6c0.1-0.1,0.2,0,0.2,0.2c0,0.1-0.2,0.1-0.2,0S159.8,89.6,159.8,89.6z"/>
			<path class="st15" d="M157.5,88.9L157.5,88.9C157.8,88.8,157.7,89.2,157.5,88.9C157.5,89,157.5,89,157.5,88.9z"/>
			<path class="st15" d="M154.4,89c0.2,0,0.1,0.3-0.1,0.3c-0.1,0-0.1-0.1,0-0.1C154.3,89.1,154.3,89,154.4,89z"/>
			<path class="st15" d="M153.6,87.6L153.6,87.6c0.2,0,0.1,0.2,0,0.2h-0.1C153.4,87.8,153.5,87.6,153.6,87.6z"/>
		</g>
	</g>
	<g>
		<g>
			<path class="st10" d="M133.4,55.6c-0.3,0.5-0.9,1.6-1.9,2.3s-1.7,0.8-2.9,0.3c-1.3-0.5-1.7-0.2-2.3-1.3c-0.7-1.1-1.1-0.9-0.8-1.6
				s-0.2-1.1,0.4-1.5s2-1,3.1-0.5c1.1,0.5,1.7-1,2.9-1s1.2,2.2,1.2,2.2S133.7,55.1,133.4,55.6z"/>
			<path class="st11" d="M133.3,54.6l0.2,0.4l-0.1,0.7c0,0-0.1,0.2-0.3,0.5s-0.8,1.2-1.4,1.6c-0.5,0.4-1.6,0.7-2.1,0.7
				s-2.2-0.7-2.9-1.4c-0.8-0.8-0.8-1-1-1.3c-0.1-0.2,0.1-1.3,0.1-1.3s0.1,0.3,0.4,0.8c0.2,0.5,0.7,0.2,1.3,0.7c0.6,0.4,1,0.4,2,0.4
				s1.3,0.1,2-0.4c0.7-0.4,1.2-1,1.3-1.2s0.2-1.3,0.2-1.3C133.3,53.9,133.2,54.6,133.3,54.6z"/>
			<path class="st12" d="M125.9,55.7c0.1,0.2,0.4,0.4,0.7,0.8c0.3,0.5,0.8,0.6,1.6,0.8c0.7,0.2,1,0.1,1.3,0.2c0.4,0.1,1.3,0.1,1.7,0
				s1.1-0.7,1.4-1s0.7-0.9,0.8-1.3c0.2-0.4-0.3-0.7-0.1-0.7c0.2,0.1,0.3,0.2,0.4,0.5c0.1,0.4,0,0.6-0.2,0.8s-0.4,0.9-1.5,2
				s-2,0.8-2.8,0.5c-0.8-0.2-1.8-0.4-2.2-0.6c-0.4-0.2-0.6-0.7-0.7-1s-0.7-0.8-0.7-1s0.3-0.8,0.3-0.8S125.7,55.5,125.9,55.7z"/>
			<path class="st13" d="M131.2,54.3c0.1,0.2,0,1-1.1,1.3s-1.7,0.1-2.8-0.5c-1.1-0.6-1.1-0.7-0.6-1.1c0.5-0.4,1.3-0.1,1.8-0.3
				c0.5-0.2,2,0.5,2,0.5S131.2,54.2,131.2,54.3z"/>
			<path class="st13" d="M131.9,54.1c-0.5,0.1-0.7-0.2-1.1-0.2s-0.6-0.2-0.2-0.5c0.4-0.2,0.5-0.4,1-0.7s1,0.2,1,0.2
				C132.9,53.3,132.5,54,131.9,54.1z"/>
			<path class="st14" d="M129.4,54.7c-0.2,0.2-0.7,0.2-1.4,0.2c-0.8-0.1-1-0.2-1.1-0.4s0-0.4,0.5-0.4c0.5-0.1,0.8-0.1,1.2-0.1
				s0.7,0.4,0.7,0.4S129.6,54.5,129.4,54.7z"/>
		</g>
		<g>
			<path class="st15" d="M126,54.1L126,54.1C126,54.2,125.9,54.3,126,54.1L126,54.1C125.9,54.1,126,54.1,126,54.1z"/>
			<path class="st15" d="M126.6,54.8c-0.1,0.1-0.2-0.2-0.1-0.2C126.6,54.7,126.7,54.8,126.6,54.8z"/>
			<path class="st15" d="M126.4,55.5C126.3,55.5,126.3,55.5,126.4,55.5C126.2,55.4,126.2,55.4,126.4,55.5
				C126.4,55.4,126.4,55.4,126.4,55.5L126.4,55.5z"/>
			<path class="st15" d="M127.1,55.6c-0.1,0.1-0.2-0.2-0.1-0.2C127.2,55.3,127.2,55.5,127.1,55.6z"/>
			<path class="st15" d="M126.8,56.6C126.7,56.6,126.7,56.5,126.8,56.6C126.9,56.4,126.9,56.5,126.8,56.6z"/>
			<path class="st15" d="M127.4,56.5L127.4,56.5C127.2,56.6,127.2,56.5,127.4,56.5L127.4,56.5C127.5,56.4,127.5,56.4,127.4,56.5z"/>
			<path class="st15" d="M127.9,57.4c-0.1,0.1-0.2-0.2-0.1-0.2C128,57.1,128,57.3,127.9,57.4z"/>
			<path class="st15" d="M126.1,56.4c-0.1,0.1-0.2-0.2-0.1-0.2C126.2,56.1,126.2,56.3,126.1,56.4z"/>
			<path class="st15" d="M125.9,54.8c-0.1,0.1-0.2-0.2-0.1-0.2S126,54.8,125.9,54.8z"/>
			<path class="st15" d="M129.5,56.7c-0.1,0-0.1-0.1-0.2-0.1c0-0.1,0-0.1,0.1-0.1s0.1,0,0.2,0.1l0,0
				C129.6,56.5,129.6,56.7,129.5,56.7z"/>
			<path class="st15" d="M130,57.4c-0.1,0.1-0.2,0.1-0.2,0c-0.1,0-0.1-0.1-0.1-0.1c0.1-0.1,0.1-0.1,0.2-0.1c0,0.1,0,0,0,0
				C130,57.2,130.1,57.4,130,57.4z"/>
			<path class="st15" d="M128.9,57.7c0,0.1-0.1,0.1-0.1,0.1l-0.1-0.1c-0.1,0-0.1-0.1-0.1-0.1l0.1-0.1l0.1,0.1
				C128.9,57.6,128.9,57.7,128.9,57.7z"/>
			<path class="st15" d="M130.8,56.4c-0.1,0.1-0.1,0.1-0.2,0c-0.1,0-0.1-0.1-0.1-0.1s0.1-0.1,0.1,0l0,0
				C130.8,56.2,130.8,56.3,130.8,56.4z"/>
			<path class="st15" d="M128.6,56.2c0-0.1-0.1-0.1-0.1-0.1c-0.1-0.1-0.1-0.2,0.1-0.2l0.1,0.1C128.7,56,128.7,56.2,128.6,56.2z"/>
			<path class="st15" d="M132.1,56.1L132.1,56.1c-0.1,0.1-0.1,0.1-0.2,0.1c-0.1,0-0.1-0.1-0.1-0.1c0.1,0,0.1-0.1,0.1-0.1
				c0-0.1,0.1-0.1,0.1-0.1C132.1,56,132.1,56.1,132.1,56.1z"/>
			<path class="st15" d="M131.9,57.3c-0.1,0.1-0.2,0.1-0.2,0c-0.1,0-0.1-0.1-0.1-0.1c0.1-0.1,0.1-0.1,0.2-0.1c-0.1,0.1,0,0,0,0
				C131.9,57.1,132,57.3,131.9,57.3z"/>
			<path class="st15" d="M131,56.8L131,56.8c-0.2,0.1-0.2-0.2-0.1-0.2h0.1C131,56.6,131.1,56.8,131,56.8z"/>
			<path class="st15" d="M132.2,56.6L132.2,56.6c-0.1,0-0.2-0.1-0.1-0.1l0,0C132.2,56.5,132.2,56.5,132.2,56.6z"/>
			<path class="st15" d="M133,56.7c-0.1,0.1-0.1,0.1-0.1,0.1c-0.1,0.1-0.1,0-0.1-0.1C132.8,56.7,132.8,56.7,133,56.7
				C133,56.6,133,56.7,133,56.7z"/>
			<path class="st15" d="M128.6,56.5C128.7,56.6,128.6,56.7,128.6,56.5L128.6,56.5C128.5,56.6,128.5,56.5,128.6,56.5
				C128.6,56.5,128.7,56.5,128.6,56.5z"/>
			<path class="st15" d="M127.5,57.2L127.5,57.2C127.4,57.2,127.4,57.1,127.5,57.2L127.5,57.2C127.5,57.1,127.5,57.2,127.5,57.2z"/>
			<path class="st15" d="M126.8,57C126.7,57,126.7,56.9,126.8,57C126.9,56.9,126.9,57,126.8,57z"/>
			<path class="st15" d="M125.9,56.1C125.9,56.1,125.8,56.1,125.9,56.1C125.8,56,125.8,56,125.9,56.1C126,56,125.9,56,125.9,56.1z"
				/>
			<path class="st15" d="M128,58C128,58.1,127.9,58.1,128,58C127.9,57.9,128,57.8,128,58C128,57.9,128,57.9,128,58z"/>
			<path class="st15" d="M129.3,57.4C129.2,57.6,129.2,57.4,129.3,57.4L129.3,57.4C129.3,57.5,129.3,57.5,129.3,57.4z"/>
			<path class="st15" d="M131.3,57.6C131.3,57.6,131.3,57.7,131.3,57.6c-0.1,0.1-0.2-0.1-0.1-0.1C131.3,57.5,131.3,57.6,131.3,57.6z
				"/>
			<path class="st15" d="M131.8,56.8L131.8,56.8c-0.1,0-0.2-0.1-0.1-0.1l0,0C131.8,56.7,131.8,56.8,131.8,56.8z"/>
		</g>
	</g>
	<g>
		<g>
			<path class="st10" d="M252,79.2c0,0,0-3.7,2-3.7s3.1,2.4,4.9,1.6s4.2,0.2,5.2,0.8c0.9,0.6,0.1,1.4,0.6,2.5s-0.2,0.8-1.3,2.6
				c-1,1.8-1.7,1.4-3.8,2.2s-3.3,0.7-4.9-0.5c-1.6-1.1-2.6-3-3.1-3.8C251.2,80.1,252,79.2,252,79.2z"/>
			<path class="st11" d="M252.2,77.3c0,0,0.2,1.8,0.3,2.1c0.1,0.3,1,1.3,2.1,2s1.6,0.6,3.3,0.6c1.7,0,2.4,0,3.4-0.7
				c1.1-0.7,1.8-0.3,2.2-1.1c0.5-0.9,0.7-1.4,0.7-1.4s0.2,1.8,0.1,2.2c-0.2,0.5-0.2,0.7-1.6,2.1c-1.3,1.3-4,2.4-4.9,2.4
				s-2.6-0.5-3.5-1.1s-2-2.1-2.3-2.6s-0.5-0.9-0.5-0.9l-0.1-1.1l0.4-0.6C252,79.2,251.9,78,252.2,77.3z"/>
			<path class="st12" d="M264.4,80c0,0,0.5,0.9,0.5,1.3s-1,1.2-1.2,1.7s-0.6,1.3-1.2,1.7c-0.6,0.4-2.2,0.6-3.6,1
				c-1.3,0.5-2.9,0.9-4.7-0.9s-2.2-2.9-2.5-3.3s-0.5-0.8-0.3-1.4c0.1-0.5,0.3-0.8,0.6-0.9s-0.5,0.4-0.2,1.1s0.9,1.6,1.4,2.2
				s1.8,1.6,2.4,1.7s2.2,0.1,2.8,0c0.5-0.1,0.9,0.1,2.1-0.3s2.1-0.6,2.6-1.4s0.9-1,1.1-1.4C264.4,80.7,264.4,80,264.4,80z"/>
			<path class="st13" d="M256.6,78.5c0,0,2.4-1.3,3.3-0.9s2.1-0.2,3,0.5c0.8,0.7,0.8,0.8-1,1.8s-2.8,1.4-4.7,0.9
				c-1.9-0.5-2-1.7-1.9-2.1C255.3,78.5,256.6,78.5,256.6,78.5z"/>
			<path class="st13" d="M253.1,76.5c0,0,0.8-0.8,1.6-0.4s1,0.7,1.6,1.1c0.6,0.5,0.3,0.8-0.4,0.8s-0.9,0.5-1.8,0.3
				C253.2,78.2,252.5,77.1,253.1,76.5z"/>
			<path class="st14" d="M258.5,78.8c0,0,0.6-0.6,1.2-0.6s1.2,0.1,2,0.2s1,0.4,0.8,0.7c-0.2,0.3-0.5,0.5-1.8,0.6s-2.1,0-2.4-0.3
				C257.9,79,258.5,78.8,258.5,78.8z"/>
		</g>
		<g>
			<path class="st15" d="M264.1,78.4L264.1,78.4c0,0.2-0.2,0.1-0.2,0v-0.1C264,78.3,264.2,78.3,264.1,78.4z"/>
			<path class="st15" d="M263.1,79.3c0.2,0,0.1,0.4-0.1,0.3C262.8,79.5,262.9,79.3,263.1,79.3z"/>
			<path class="st15" d="M263.3,80.5c0.1,0,0.1,0,0.2,0s0.1,0.1,0,0.2c-0.1,0-0.1,0-0.2,0C263.3,80.7,263.2,80.5,263.3,80.5z"/>
			<path class="st15" d="M262.2,80.5c0.2,0,0.1,0.4-0.1,0.3C261.9,80.7,262,80.4,262.2,80.5z"/>
			<path class="st15" d="M262.6,82.3c0.1,0,0.1,0.2,0,0.2C262.5,82.4,262.5,82.2,262.6,82.3z"/>
			<path class="st15" d="M261.6,82.1l0.2,0.1c0.1,0,0.1,0.2,0,0.2l-0.2-0.1C261.5,82.2,261.5,82.1,261.6,82.1z"/>
			<path class="st15" d="M260.9,83.5c0.2,0,0.1,0.4-0.1,0.3C260.6,83.7,260.7,83.4,260.9,83.5z"/>
			<path class="st15" d="M263.9,81.8c0.2,0,0.1,0.4-0.1,0.3C263.6,82,263.7,81.7,263.9,81.8z"/>
			<path class="st15" d="M264.3,79.3c0.2,0,0.1,0.4-0.1,0.3C264,79.5,264.1,79.2,264.3,79.3z"/>
			<path class="st15" d="M258.1,82.3L258.1,82.3c0.1-0.1,0.2-0.1,0.3-0.1c0.1,0,0.1,0.1,0.1,0.2c-0.1,0.1-0.2,0.2-0.3,0.2
				C257.9,82.7,257.9,82.3,258.1,82.3z"/>
			<path class="st15" d="M257.5,83.6C257.5,83.6,257.5,83.7,257.5,83.6c0.1,0,0.2,0,0.3,0.1c0,0.1,0,0.2-0.1,0.2
				c-0.1,0.1-0.3,0.1-0.4,0C257.2,83.8,257.3,83.5,257.5,83.6z"/>
			<path class="st15" d="M259.2,84.2c0.1,0,0.2-0.1,0.2-0.1c0.1,0,0.2,0,0.2,0.1s0,0.2-0.1,0.2s-0.2,0.1-0.2,0.1
				c-0.1,0-0.2,0-0.2-0.1C259.1,84.4,259.1,84.2,259.2,84.2z"/>
			<path class="st15" d="M256.2,81.9L256.2,81.9c0.1-0.1,0.2,0,0.2,0c0,0.1,0,0.2-0.1,0.2c-0.1,0.1-0.2,0.1-0.3,0
				C255.9,82,256,81.8,256.2,81.9z"/>
			<path class="st15" d="M259.6,81.5l0.2-0.1c0.2-0.1,0.3,0.2,0.1,0.3c-0.1,0-0.2,0-0.2,0.1C259.5,81.8,259.4,81.5,259.6,81.5z"/>
			<path class="st15" d="M253.9,81.4c0.1,0,0.2,0,0.2,0.1c0,0,0,0.1,0.1,0.1c0.1,0.1,0,0.2-0.1,0.2s-0.2,0-0.2-0.1
				c0,0,0-0.1-0.1-0.1C253.8,81.6,253.8,81.5,253.9,81.4z"/>
			<path class="st15" d="M254.3,83.4C254.3,83.4,254.4,83.5,254.3,83.4c0.1,0,0.2,0,0.3,0.1c0,0.1,0,0.2-0.1,0.2
				c-0.1,0.1-0.3,0.1-0.4,0C254,83.6,254.1,83.3,254.3,83.4z"/>
			<path class="st15" d="M255.8,82.6h0.1c0.2,0,0.1,0.4-0.1,0.3h-0.1C255.5,82.8,255.6,82.5,255.8,82.6z"/>
			<path class="st15" d="M253.8,82.3L253.8,82.3c0.2,0,0.1,0.2,0,0.2h-0.1C253.6,82.4,253.7,82.3,253.8,82.3z"/>
			<path class="st15" d="M252.5,82.6c0.1,0.1,0.1,0.1,0.2,0.2c0.1,0.1,0,0.2-0.1,0.1S252.5,82.8,252.5,82.6
				C252.3,82.6,252.4,82.5,252.5,82.6z"/>
			<path class="st15" d="M259.7,82.3c0.1,0,0.1,0.2,0,0.2l0,0c0,0.1-0.2,0-0.1-0.1C259.5,82.3,259.6,82.3,259.7,82.3z"/>
			<path class="st15" d="M261.5,83.3h0.1c0.1,0,0.1,0.2,0,0.2h-0.1C261.4,83.5,261.4,83.3,261.5,83.3z"/>
			<path class="st15" d="M262.6,82.9c0.1,0,0.1,0.2,0,0.2S262.5,82.9,262.6,82.9z"/>
			<path class="st15" d="M264.2,81.4c0.1,0,0.2,0.1,0.1,0.2c0,0.1-0.1,0-0.1,0C264.1,81.5,264.1,81.4,264.2,81.4z"/>
			<path class="st15" d="M260.7,84.6c0.1-0.1,0.2,0,0.2,0.2c0,0.1-0.2,0.1-0.2,0S260.7,84.6,260.7,84.6z"/>
			<path class="st15" d="M258.4,83.9L258.4,83.9C258.7,83.8,258.6,84.2,258.4,83.9C258.4,84,258.4,84,258.4,83.9z"/>
			<path class="st15" d="M255.3,84c0.2,0,0.1,0.3-0.1,0.3c-0.1,0-0.1-0.1,0-0.1C255.2,84.1,255.2,84,255.3,84z"/>
			<path class="st15" d="M254.5,82.6L254.5,82.6c0.2,0,0.1,0.2,0,0.2h-0.1C254.3,82.8,254.4,82.6,254.5,82.6z"/>
		</g>
	</g>
	<g>
		<g>
			<path class="st10" d="M233.8,57.6c0,0,0-3.2,1.7-3.2s2.7,2.1,4.3,1.4c1.6-0.7,3.6,0.2,4.5,0.7c0.8,0.5,0.1,1.2,0.5,2.2
				s-0.2,0.7-1.1,2.3c-0.9,1.6-1.5,1.2-3.3,1.9s-2.9,0.6-4.3-0.4c-1.4-1-2.3-2.6-2.7-3.3C233.1,58.4,233.8,57.6,233.8,57.6z"/>
			<path class="st11" d="M234,55.9c0,0,0.2,1.6,0.3,1.8c0.1,0.3,0.9,1.1,1.8,1.7s1.4,0.5,2.9,0.5s2.1,0,3-0.6c1-0.6,1.6-0.3,1.9-1
				c0.4-0.8,0.6-1.2,0.6-1.2s0.2,1.6,0.1,1.9c-0.2,0.4-0.2,0.6-1.4,1.8c-1.1,1.1-3.5,2.1-4.3,2.1s-2.3-0.4-3-1
				c-0.8-0.5-1.7-1.8-2-2.3c-0.3-0.4-0.4-0.8-0.4-0.8l-0.1-1l0.3-0.5C233.8,57.6,233.7,56.5,234,55.9z"/>
			<path class="st12" d="M244.6,58.3c0,0,0.4,0.8,0.4,1.1s-0.9,1-1,1.5c-0.2,0.4-0.5,1.1-1,1.5c-0.5,0.3-1.9,0.5-3.1,0.9
				c-1.1,0.4-2.5,0.8-4.1-0.8s-1.9-2.5-2.2-2.9c-0.3-0.3-0.4-0.7-0.3-1.2c0.1-0.4,0.3-0.7,0.5-0.8c0.3-0.1-0.4,0.3-0.2,1
				s0.8,1.4,1.2,1.9s1.6,1.4,2.1,1.5s1.9,0.1,2.4,0c0.4-0.1,0.8,0.1,1.8-0.3c1-0.3,1.8-0.5,2.3-1.2c0.4-0.7,0.8-0.9,1-1.2
				C244.6,58.9,244.6,58.3,244.6,58.3z"/>
			<path class="st13" d="M237.8,57c0,0,2.1-1.1,2.9-0.8s1.8-0.2,2.6,0.4c0.7,0.6,0.7,0.7-0.9,1.6c-1.6,0.9-2.4,1.2-4.1,0.8
				c-1.7-0.4-1.7-1.5-1.7-1.8C236.7,57,237.8,57,237.8,57z"/>
			<path class="st13" d="M234.7,55.2c0,0,0.7-0.7,1.4-0.3c0.7,0.3,0.9,0.6,1.4,1s0.3,0.7-0.3,0.7s-0.8,0.4-1.6,0.3
				C234.8,56.7,234.2,55.8,234.7,55.2z"/>
			<path class="st14" d="M239.4,57.2c0,0,0.5-0.5,1-0.5s1,0.1,1.7,0.2s0.9,0.3,0.7,0.6s-0.4,0.4-1.6,0.5c-1.1,0.1-1.8,0-2.1-0.3
				C238.9,57.4,239.4,57.2,239.4,57.2z"/>
		</g>
		<g>
			<path class="st15" d="M244.3,56.9L244.3,56.9c0,0.2-0.2,0.1-0.2,0v-0.1C244.2,56.8,244.4,56.8,244.3,56.9z"/>
			<path class="st15" d="M243.4,57.7c0.2,0,0.1,0.3-0.1,0.3S243.3,57.7,243.4,57.7z"/>
			<path class="st15" d="M243.6,58.7c0.1,0,0.1,0,0.2,0c0.1,0,0.1,0.1,0,0.2c-0.1,0-0.1,0-0.2,0C243.6,58.9,243.5,58.7,243.6,58.7z"
				/>
			<path class="st15" d="M242.7,58.7c0.2,0,0.1,0.3-0.1,0.3C242.4,58.9,242.5,58.6,242.7,58.7z"/>
			<path class="st15" d="M243,60.3c0.1,0,0.1,0.2,0,0.2C242.9,60.4,242.9,60.2,243,60.3z"/>
			<path class="st15" d="M242.1,60.1l0.2,0.1c0.1,0,0.1,0.2,0,0.2l-0.2-0.1C242,60.2,242,60.1,242.1,60.1z"/>
			<path class="st15" d="M241.5,61.3c0.2,0,0.1,0.3-0.1,0.3C241.3,61.5,241.4,61.2,241.5,61.3z"/>
			<path class="st15" d="M244.1,59.8c0.2,0,0.1,0.3-0.1,0.3C243.9,60,244,59.8,244.1,59.8z"/>
			<path class="st15" d="M244.5,57.7c0.2,0,0.1,0.3-0.1,0.3S244.3,57.6,244.5,57.7z"/>
			<path class="st15" d="M239.1,60.3L239.1,60.3c0.1-0.1,0.2-0.1,0.3-0.1s0.1,0.1,0.1,0.2c-0.1,0.1-0.2,0.2-0.3,0.2
				C238.9,60.6,238.9,60.3,239.1,60.3z"/>
			<path class="st15" d="M238.6,61.4C238.6,61.4,238.6,61.5,238.6,61.4c0.1,0,0.2,0,0.3,0.1c0,0.1,0,0.2-0.1,0.2
				c-0.1,0.1-0.3,0.1-0.3,0C238.3,61.6,238.4,61.3,238.6,61.4z"/>
			<path class="st15" d="M240,61.9c0.1,0,0.2-0.1,0.2-0.1c0.1,0,0.2,0,0.2,0.1s0,0.2-0.1,0.2s-0.2,0.1-0.2,0.1c-0.1,0-0.2,0-0.2-0.1
				C240,62.1,240,61.9,240,61.9z"/>
			<path class="st15" d="M237.4,59.9L237.4,59.9c0.1-0.1,0.2,0,0.2,0c0,0.1,0,0.2-0.1,0.2c-0.1,0.1-0.2,0.1-0.3,0
				C237.2,60,237.3,59.8,237.4,59.9z"/>
			<path class="st15" d="M240.4,59.6l0.2-0.1c0.2-0.1,0.3,0.2,0.1,0.3c-0.1,0-0.2,0-0.2,0.1C240.3,59.8,240.2,59.6,240.4,59.6z"/>
			<path class="st15" d="M235.4,59.5c0.1,0,0.2,0,0.2,0.1c0,0,0,0.1,0.1,0.1c0.1,0.1,0,0.2-0.1,0.2s-0.2,0-0.2-0.1
				c0,0,0-0.1-0.1-0.1C235.4,59.7,235.4,59.6,235.4,59.5z"/>
			<path class="st15" d="M235.8,61.2C235.8,61.2,235.9,61.3,235.8,61.2c0.1,0,0.2,0,0.3,0.1c0,0.1,0,0.2-0.1,0.2
				c-0.1,0.1-0.3,0.1-0.3,0C235.5,61.4,235.6,61.1,235.8,61.2z"/>
			<path class="st15" d="M237.1,60.5L237.1,60.5c0.3,0,0.2,0.3,0,0.3H237C236.8,60.7,236.9,60.5,237.1,60.5z"/>
			<path class="st15" d="M235.4,60.3L235.4,60.3c0.2,0,0.1,0.2,0,0.2h-0.1C235.2,60.4,235.3,60.3,235.4,60.3z"/>
			<path class="st15" d="M234.2,60.5c0.1,0.1,0.1,0.1,0.2,0.2c0.1,0.1,0,0.2-0.1,0.1C234.2,60.7,234.2,60.7,234.2,60.5
				C234.1,60.5,234.1,60.5,234.2,60.5z"/>
			<path class="st15" d="M240.5,60.3c0.1,0,0.1,0.2,0,0.2l0,0C240.5,60.5,240.3,60.5,240.5,60.3C240.3,60.3,240.4,60.3,240.5,60.3z"
				/>
			<path class="st15" d="M242,61.1L242,61.1c0.2,0,0.2,0.2,0.1,0.2H242V61.1z"/>
			<path class="st15" d="M243,60.8c0.1,0,0.1,0.2,0,0.2S242.9,60.8,243,60.8z"/>
			<path class="st15" d="M244.4,59.5c0.1,0,0.2,0.1,0.1,0.2c0,0.1-0.1,0-0.1,0C244.3,59.6,244.3,59.5,244.4,59.5z"/>
			<path class="st15" d="M241.4,62.3c0.1-0.1,0.2,0,0.2,0.2c0,0.1-0.2,0.1-0.2,0S241.4,62.3,241.4,62.3z"/>
			<path class="st15" d="M239.4,61.7L239.4,61.7C239.6,61.6,239.5,61.9,239.4,61.7C239.4,61.8,239.4,61.8,239.4,61.7z"/>
			<path class="st15" d="M236.7,61.8c0.2,0,0.1,0.3-0.1,0.3c-0.1,0-0.1-0.1,0-0.1C236.6,61.8,236.6,61.8,236.7,61.8z"/>
			<path class="st15" d="M236,60.5L236,60.5c0.2,0,0.1,0.2,0,0.2h-0.1C235.8,60.7,235.9,60.5,236,60.5z"/>
		</g>
	</g>
	<g>
		<g>
			<path class="st10" d="M211.7,88.5c0.4-0.7,1.3-2.3,2.7-3.3s2.4-1.1,4.3-0.4c1.8,0.7,2.4,0.3,3.3,1.9c1,1.6,1.6,1.3,1.1,2.3
				s0.3,1.7-0.5,2.2c-0.9,0.5-3,1.4-4.5,0.7c-1.6-0.7-2.5,1.4-4.3,1.4c-1.7,0-1.7-3.2-1.7-3.2S211.4,89.2,211.7,88.5z"/>
			<path class="st11" d="M211.9,90l-0.3-0.5l0.1-1c0,0,0.2-0.3,0.4-0.8c0.3-0.4,1.2-1.7,2-2.3c0.8-0.5,2.3-1,3-1
				c0.8,0,3.1,1,4.3,2.1c1.2,1.2,1.2,1.4,1.4,1.8c0.1,0.3-0.1,1.9-0.1,1.9s-0.2-0.4-0.6-1.2c-0.3-0.7-1-0.3-1.9-1
				c-0.9-0.6-1.5-0.6-3-0.6s-1.9-0.1-2.9,0.5s-1.7,1.5-1.8,1.7c-0.1,0.3-0.3,1.8-0.3,1.8C212,91,212.1,90,211.9,90z"/>
			<path class="st12" d="M222.7,88.4c-0.2-0.3-0.5-0.5-1-1.2c-0.4-0.7-1.2-0.9-2.3-1.2c-1-0.3-1.4-0.2-1.8-0.3
				c-0.5-0.1-1.9-0.1-2.4,0s-1.7,1-2.1,1.5c-0.4,0.5-1,1.3-1.2,1.9c-0.3,0.6,0.4,1,0.2,1c-0.3-0.1-0.4-0.3-0.5-0.8
				c-0.2-0.5,0-0.9,0.3-1.2s0.6-1.3,2.2-2.9s3-1.2,4.1-0.8c1.2,0.3,2.6,0.5,3.1,0.9c0.5,0.3,0.9,1,1,1.5c0.2,0.4,1,1.1,1,1.5
				s-0.4,1.1-0.4,1.1S222.8,88.7,222.7,88.4z"/>
			<path class="st13" d="M214.9,90.4c-0.1-0.3,0-1.4,1.7-1.8s2.5-0.1,4.1,0.8s1.6,1,0.9,1.6c-0.8,0.6-1.8,0.1-2.6,0.4
				s-2.9-0.8-2.9-0.8S214.9,90.6,214.9,90.4z"/>
			<path class="st13" d="M213.9,90.8c0.8-0.2,1,0.3,1.6,0.3s0.9,0.3,0.3,0.7c-0.5,0.3-0.7,0.6-1.4,1s-1.4-0.3-1.4-0.3
				C212.5,91.8,213.1,90.9,213.9,90.8z"/>
			<path class="st14" d="M217.5,89.8c0.3-0.3,1-0.3,2.1-0.3c1.1,0.1,1.4,0.3,1.6,0.5s0,0.5-0.7,0.6s-1.2,0.2-1.7,0.2s-1-0.5-1-0.5
				S217.2,90.2,217.5,89.8z"/>
		</g>
		<g>
			<path class="st15" d="M222.4,90.8L222.4,90.8c0-0.2,0.2-0.3,0.2-0.1l0,0C222.7,90.8,222.5,90.8,222.4,90.8z"/>
			<path class="st15" d="M221.6,89.7c0.2-0.1,0.3,0.3,0.1,0.3C221.5,89.9,221.4,89.7,221.6,89.7z"/>
			<path class="st15" d="M221.9,88.7c0.1,0,0.1,0,0.2,0c0.1,0.1,0.1,0.2,0,0.2s-0.1,0-0.2,0S221.9,88.7,221.9,88.7z"/>
			<path class="st15" d="M220.8,88.6c0.2-0.1,0.3,0.3,0.1,0.3C220.7,89,220.7,88.7,220.8,88.6z"/>
			<path class="st15" d="M221.3,87.1c0.1,0,0.1,0.2,0,0.2C221.2,87.4,221.2,87.2,221.3,87.1z"/>
			<path class="st15" d="M220.4,87.3l0.2-0.1c0.1,0,0.1,0.2,0,0.2l-0.2,0.1C220.3,87.5,220.3,87.4,220.4,87.3z"/>
			<path class="st15" d="M219.7,86c0.2-0.1,0.3,0.3,0.1,0.3C219.6,86.4,219.5,86.1,219.7,86z"/>
			<path class="st15" d="M222.3,87.5c0.2-0.1,0.3,0.3,0.1,0.3C222.2,87.8,222.1,87.6,222.3,87.5z"/>
			<path class="st15" d="M222.7,89.7c0.2-0.1,0.3,0.3,0.1,0.3S222.5,89.7,222.7,89.7z"/>
			<path class="st15" d="M217.4,87.1c0.1,0,0.2,0.1,0.3,0.2c0,0.1,0,0.2-0.1,0.2s-0.2,0-0.3-0.1l0,0C217.2,87.3,217.2,87,217.4,87.1
				z"/>
			<path class="st15" d="M216.7,85.9c0.1-0.1,0.3-0.1,0.3,0c0.1,0,0.1,0.1,0.1,0.2c-0.1,0.1-0.2,0.1-0.3,0.1c0-0.1,0,0,0,0
				C216.7,86.3,216.6,86,216.7,85.9z"/>
			<path class="st15" d="M218.2,85.5c0-0.1,0.1-0.1,0.2-0.1c0,0,0.1,0.1,0.2,0.1s0.1,0.1,0.1,0.2s-0.1,0.1-0.2,0.1
				c0,0-0.1-0.1-0.2-0.1C218.2,85.7,218.2,85.5,218.2,85.5z"/>
			<path class="st15" d="M215.5,87.5c0.1-0.1,0.2-0.1,0.3,0c0.1,0,0.1,0.1,0.1,0.2c0,0-0.1,0.1-0.2,0l0,0
				C215.5,87.7,215.4,87.6,215.5,87.5z"/>
			<path class="st15" d="M218.7,87.7c0,0.1,0.1,0.1,0.2,0.1c0.2,0.1,0.1,0.3-0.1,0.3l-0.2-0.1C218.5,88,218.6,87.7,218.7,87.7z"/>
			<path class="st15" d="M213.6,87.9C213.7,87.9,213.7,87.8,213.6,87.9c0.1-0.2,0.2-0.2,0.3-0.2s0.2,0.1,0.1,0.2
				c-0.1,0-0.1,0.1-0.1,0.1c0,0.1-0.1,0.1-0.2,0.1C213.6,88,213.6,87.9,213.6,87.9z"/>
			<path class="st15" d="M213.9,86.1c0.1-0.1,0.3-0.1,0.3,0c0.1,0,0.1,0.1,0.1,0.2c-0.1,0.1-0.2,0.1-0.3,0.1c0.1-0.1,0,0,0,0
				C213.9,86.4,213.8,86.2,213.9,86.1z"/>
			<path class="st15" d="M215.3,86.8L215.3,86.8c0.3-0.1,0.3,0.3,0.2,0.3h-0.1C215.2,87.1,215.1,86.9,215.3,86.8z"/>
			<path class="st15" d="M213.5,87.1L213.5,87.1c0.2,0,0.3,0.2,0.1,0.2l0,0C213.5,87.3,213.4,87.2,213.5,87.1z"/>
			<path class="st15" d="M212.4,87c0.1-0.1,0.1-0.1,0.2-0.2c0.1-0.1,0.2,0,0.1,0.1S212.6,87,212.4,87
				C212.4,87.1,212.3,87.1,212.4,87z"/>
			<path class="st15" d="M218.7,87.2C218.6,87.1,218.7,87.1,218.7,87.2L218.7,87.2C218.8,87.1,218.8,87.3,218.7,87.2
				C218.7,87.3,218.6,87.3,218.7,87.2z"/>
			<path class="st15" d="M220.3,86.3L220.3,86.3c0.2,0,0.2,0.2,0.1,0.2h-0.1C220.2,86.4,220.2,86.3,220.3,86.3z"/>
			<path class="st15" d="M221.3,86.6c0.1,0,0.1,0.2,0,0.2C221.2,86.8,221.2,86.6,221.3,86.6z"/>
			<path class="st15" d="M222.7,87.9C222.7,87.9,222.7,87.8,222.7,87.9c0.2,0.1,0.1,0.2,0,0.2C222.6,88.1,222.6,88,222.7,87.9z"/>
			<path class="st15" d="M219.6,85.1c0-0.1,0.2-0.1,0.2,0c0,0.2-0.1,0.3-0.2,0.2C219.6,85.3,219.6,85.2,219.6,85.1z"/>
			<path class="st15" d="M217.6,85.9C217.8,85.7,217.9,86,217.6,85.9L217.6,85.9C217.6,85.8,217.6,85.8,217.6,85.9z"/>
			<path class="st15" d="M214.8,85.7C214.7,85.7,214.7,85.6,214.8,85.7c0.2-0.1,0.3,0.2,0.1,0.2C214.8,85.8,214.8,85.7,214.8,85.7z"
				/>
			<path class="st15" d="M214.1,86.9L214.1,86.9c0.2,0,0.3,0.2,0.1,0.2l0,0C214.1,87.1,214.1,86.9,214.1,86.9z"/>
		</g>
	</g>
	<g>
		<g>
			<path class="st10" d="M171.3,62.1c0,0,0-3.7,2-3.7s3.1,2.4,4.9,1.6s4.2,0.2,5.2,0.8c0.9,0.6,0.1,1.4,0.6,2.5s-0.2,0.8-1.3,2.6
				c-1,1.8-1.7,1.4-3.8,2.2c-2.1,0.8-3.3,0.7-4.9-0.5c-1.6-1.1-2.6-3-3.1-3.8C170.5,63,171.3,62.1,171.3,62.1z"/>
			<path class="st11" d="M171.5,60.2c0,0,0.2,1.8,0.3,2.1s1,1.3,2.1,2c1.1,0.7,1.6,0.6,3.3,0.6s2.4,0,3.4-0.7
				c1.1-0.7,1.8-0.3,2.2-1.1c0.5-0.9,0.7-1.4,0.7-1.4s0.2,1.8,0.1,2.2c-0.2,0.5-0.2,0.7-1.6,2.1c-1.3,1.3-4,2.4-4.9,2.4
				s-2.6-0.5-3.5-1.1s-2-2.1-2.3-2.6s-0.5-0.9-0.5-0.9l-0.1-1.1l0.4-0.6C171.3,62.1,171.2,60.9,171.5,60.2z"/>
			<path class="st12" d="M183.7,62.9c0,0,0.5,0.9,0.5,1.3s-1,1.2-1.2,1.7s-0.6,1.3-1.2,1.7c-0.6,0.4-2.2,0.6-3.6,1
				c-1.3,0.5-2.9,0.9-4.7-0.9s-2.2-2.9-2.5-3.3s-0.5-0.8-0.3-1.4c0.1-0.5,0.3-0.8,0.6-0.9s-0.5,0.4-0.2,1.1c0.3,0.7,0.9,1.6,1.4,2.2
				s1.8,1.6,2.4,1.7c0.6,0.1,2.2,0.1,2.8,0c0.5-0.1,0.9,0.1,2.1-0.3c1.2-0.4,2.1-0.6,2.6-1.4s0.9-1,1.1-1.4
				C183.7,63.6,183.7,62.9,183.7,62.9z"/>
			<path class="st13" d="M175.9,61.4c0,0,2.4-1.3,3.3-0.9s2.1-0.2,3,0.5c0.8,0.7,0.8,0.8-1,1.8s-2.8,1.4-4.7,0.9
				c-1.9-0.5-2-1.7-1.9-2.1C174.6,61.4,175.9,61.4,175.9,61.4z"/>
			<path class="st13" d="M172.4,59.4c0,0,0.8-0.8,1.6-0.4s1,0.7,1.6,1.1c0.6,0.5,0.3,0.8-0.4,0.8s-0.9,0.5-1.8,0.3
				C172.5,61.1,171.8,60,172.4,59.4z"/>
			<path class="st14" d="M177.8,61.7c0,0,0.6-0.6,1.2-0.6s1.2,0.1,2,0.2s1,0.4,0.8,0.7s-0.5,0.5-1.8,0.6s-2.1,0-2.4-0.3
				C177.2,61.9,177.8,61.7,177.8,61.7z"/>
		</g>
		<g>
			<path class="st15" d="M183.4,61.3L183.4,61.3c0,0.2-0.2,0.1-0.2,0v-0.1C183.3,61.2,183.5,61.2,183.4,61.3z"/>
			<path class="st15" d="M182.4,62.2c0.2,0,0.1,0.4-0.1,0.3S182.2,62.2,182.4,62.2z"/>
			<path class="st15" d="M182.6,63.4c0.1,0,0.1,0,0.2,0c0.1,0,0.1,0.1,0,0.2c-0.1,0-0.1,0-0.2,0C182.6,63.6,182.5,63.4,182.6,63.4z"
				/>
			<path class="st15" d="M181.5,63.4c0.2,0,0.1,0.4-0.1,0.3C181.2,63.6,181.3,63.3,181.5,63.4z"/>
			<path class="st15" d="M181.9,65.2c0.1,0,0.1,0.2,0,0.2C181.8,65.3,181.8,65.1,181.9,65.2z"/>
			<path class="st15" d="M180.9,65l0.2,0.1c0.1,0,0.1,0.2,0,0.2l-0.2-0.1C180.8,65.1,180.8,65,180.9,65z"/>
			<path class="st15" d="M180.2,66.4c0.2,0,0.1,0.4-0.1,0.3C179.9,66.6,180,66.3,180.2,66.4z"/>
			<path class="st15" d="M183.2,64.7c0.2,0,0.1,0.4-0.1,0.3S183,64.6,183.2,64.7z"/>
			<path class="st15" d="M183.6,62.2c0.2,0,0.1,0.4-0.1,0.3S183.4,62.1,183.6,62.2z"/>
			<path class="st15" d="M177.4,65.2L177.4,65.2c0.1-0.1,0.2-0.1,0.3-0.1s0.1,0.1,0.1,0.2c-0.1,0.1-0.2,0.2-0.3,0.2
				C177.2,65.6,177.2,65.2,177.4,65.2z"/>
			<path class="st15" d="M176.8,66.5C176.8,66.5,176.8,66.6,176.8,66.5c0.1,0,0.2,0,0.3,0.1c0,0.1,0,0.2-0.1,0.2
				c-0.1,0.1-0.3,0.1-0.4,0C176.5,66.7,176.6,66.4,176.8,66.5z"/>
			<path class="st15" d="M178.5,67.1c0.1,0,0.2-0.1,0.2-0.1c0.1,0,0.2,0,0.2,0.1s0,0.2-0.1,0.2s-0.2,0.1-0.2,0.1
				c-0.1,0-0.2,0-0.2-0.1C178.4,67.3,178.4,67.1,178.5,67.1z"/>
			<path class="st15" d="M175.5,64.8L175.5,64.8c0.1-0.1,0.2,0,0.2,0c0,0.1,0,0.2-0.1,0.2c-0.1,0.1-0.2,0.1-0.3,0
				C175.2,64.9,175.3,64.7,175.5,64.8z"/>
			<path class="st15" d="M178.9,64.4l0.2-0.1c0.2-0.1,0.3,0.2,0.1,0.3c-0.1,0-0.2,0-0.2,0.1C178.8,64.7,178.7,64.4,178.9,64.4z"/>
			<path class="st15" d="M173.2,64.3c0.1,0,0.2,0,0.2,0.1c0,0,0,0.1,0.1,0.1c0.1,0.1,0,0.2-0.1,0.2s-0.2,0-0.2-0.1
				c0,0,0-0.1-0.1-0.1C173.1,64.5,173.1,64.4,173.2,64.3z"/>
			<path class="st15" d="M173.6,66.3C173.6,66.3,173.7,66.4,173.6,66.3c0.1,0,0.2,0,0.3,0.1c0,0.1,0,0.2-0.1,0.2
				c-0.1,0.1-0.3,0.1-0.4,0C173.3,66.5,173.4,66.2,173.6,66.3z"/>
			<path class="st15" d="M175.1,65.5L175.1,65.5c0.3,0,0.2,0.4,0,0.3H175C174.8,65.7,174.9,65.4,175.1,65.5z"/>
			<path class="st15" d="M173.1,65.2L173.1,65.2c0.2,0,0.1,0.2,0,0.2H173C172.9,65.3,173,65.2,173.1,65.2z"/>
			<path class="st15" d="M171.8,65.5c0.1,0.1,0.1,0.1,0.2,0.2s0,0.2-0.1,0.1s-0.1-0.1-0.2-0.2S171.7,65.4,171.8,65.5z"/>
			<path class="st15" d="M179,65.2c0.1,0,0.1,0.2,0,0.2l0,0c0,0.1-0.2,0-0.1-0.1C178.8,65.2,178.9,65.2,179,65.2z"/>
			<path class="st15" d="M180.8,66.2L180.8,66.2c0.2,0,0.2,0.2,0.1,0.2h-0.1C180.7,66.4,180.7,66.2,180.8,66.2z"/>
			<path class="st15" d="M181.9,65.8c0.1,0,0.1,0.2,0,0.2C181.8,66,181.8,65.8,181.9,65.8z"/>
			<path class="st15" d="M183.5,64.3c0.1,0,0.2,0.1,0.1,0.2c0,0.1-0.1,0-0.1,0C183.4,64.4,183.4,64.3,183.5,64.3z"/>
			<path class="st15" d="M180,67.5c0.1-0.1,0.2,0,0.2,0.2c0,0.1-0.2,0.1-0.2,0S180,67.5,180,67.5z"/>
			<path class="st15" d="M177.7,66.8L177.7,66.8C178,66.7,177.9,67.1,177.7,66.8C177.7,66.9,177.7,66.9,177.7,66.8z"/>
			<path class="st15" d="M174.6,66.9c0.2,0,0.1,0.3-0.1,0.3c-0.1,0-0.1-0.1,0-0.1C174.5,67,174.5,66.9,174.6,66.9z"/>
			<path class="st15" d="M173.8,65.5L173.8,65.5c0.2,0,0.1,0.2,0,0.2h-0.1C173.6,65.7,173.7,65.5,173.8,65.5z"/>
		</g>
	</g>
	<g>
		<g>
			<path class="st10" d="M316.3,68.5c0,0,0-3.7,2-3.7s3.1,2.4,4.9,1.6s4.2,0.2,5.2,0.8c0.9,0.6,0.1,1.4,0.6,2.5s-0.2,0.8-1.3,2.6
				c-1,1.8-1.7,1.4-3.8,2.2s-3.3,0.7-4.9-0.5c-1.6-1.1-2.6-3-3.1-3.8C315.5,69.4,316.3,68.5,316.3,68.5z"/>
			<path class="st11" d="M316.5,66.6c0,0,0.2,1.8,0.3,2.1c0.1,0.3,1,1.3,2.1,2s1.6,0.6,3.3,0.6c1.7,0,2.4,0,3.4-0.7
				c1.1-0.7,1.8-0.3,2.2-1.1c0.5-0.9,0.7-1.4,0.7-1.4s0.2,1.8,0.1,2.2c-0.2,0.5-0.2,0.7-1.6,2.1c-1.3,1.3-4,2.4-4.9,2.4
				s-2.6-0.5-3.5-1.1s-2-2.1-2.3-2.6s-0.5-0.9-0.5-0.9l-0.1-1.1l0.4-0.6C316.3,68.5,316.2,67.3,316.5,66.6z"/>
			<path class="st12" d="M328.7,69.3c0,0,0.5,0.9,0.5,1.3s-1,1.2-1.2,1.7s-0.6,1.3-1.2,1.7c-0.6,0.4-2.2,0.6-3.6,1
				c-1.3,0.5-2.9,0.9-4.7-0.9s-2.2-2.9-2.5-3.3s-0.5-0.8-0.3-1.4c0.1-0.5,0.3-0.8,0.6-0.9c0.3-0.1-0.5,0.4-0.2,1.1s0.9,1.6,1.4,2.2
				s1.8,1.6,2.4,1.7s2.2,0.1,2.8,0c0.5-0.1,0.9,0.1,2.1-0.3s2.1-0.6,2.6-1.4s0.9-1,1.1-1.4C328.7,70,328.7,69.3,328.7,69.3z"/>
			<path class="st13" d="M320.9,67.8c0,0,2.4-1.3,3.3-0.9s2.1-0.2,3,0.5c0.8,0.7,0.8,0.8-1,1.8s-2.8,1.4-4.7,0.9s-2-1.7-1.9-2.1
				C319.6,67.8,320.9,67.8,320.9,67.8z"/>
			<path class="st13" d="M317.4,65.8c0,0,0.8-0.8,1.6-0.4c0.8,0.4,1,0.7,1.6,1.1c0.6,0.5,0.3,0.8-0.4,0.8c-0.7,0-0.9,0.5-1.8,0.3
				C317.5,67.5,316.8,66.4,317.4,65.8z"/>
			<path class="st14" d="M322.8,68.1c0,0,0.6-0.6,1.2-0.6s1.2,0.1,2,0.2s1,0.4,0.8,0.7c-0.2,0.3-0.5,0.5-1.8,0.6s-2.1,0-2.4-0.3
				C322.2,68.3,322.8,68.1,322.8,68.1z"/>
		</g>
		<g>
			<path class="st15" d="M328.4,67.7L328.4,67.7c0,0.2-0.2,0.1-0.2,0v-0.1C328.3,67.6,328.5,67.6,328.4,67.7z"/>
			<path class="st15" d="M327.4,68.6c0.2,0,0.1,0.4-0.1,0.3C327.1,68.8,327.2,68.6,327.4,68.6z"/>
			<path class="st15" d="M327.6,69.8c0.1,0,0.1,0,0.2,0s0.1,0.1,0,0.2c-0.1,0-0.1,0-0.2,0C327.6,70,327.5,69.8,327.6,69.8z"/>
			<path class="st15" d="M326.5,69.8c0.2,0,0.1,0.4-0.1,0.3C326.2,70,326.3,69.7,326.5,69.8z"/>
			<path class="st15" d="M326.9,71.6c0.1,0,0.1,0.2,0,0.2C326.8,71.7,326.8,71.5,326.9,71.6z"/>
			<path class="st15" d="M325.9,71.4l0.2,0.1c0.1,0,0.1,0.2,0,0.2l-0.2-0.1C325.8,71.5,325.8,71.4,325.9,71.4z"/>
			<path class="st15" d="M325.2,72.8c0.2,0,0.1,0.4-0.1,0.3C324.9,73,325,72.7,325.2,72.8z"/>
			<path class="st15" d="M328.2,71.1c0.2,0,0.1,0.4-0.1,0.3S328,71,328.2,71.1z"/>
			<path class="st15" d="M328.6,68.6c0.2,0,0.1,0.4-0.1,0.3S328.4,68.5,328.6,68.6z"/>
			<path class="st15" d="M322.4,71.6L322.4,71.6c0.1-0.1,0.2-0.1,0.3-0.1c0.1,0,0.1,0.1,0.1,0.2c-0.1,0.1-0.2,0.2-0.3,0.2
				C322.2,72,322.2,71.6,322.4,71.6z"/>
			<path class="st15" d="M321.8,72.9C321.8,72.9,321.8,73,321.8,72.9c0.1,0,0.2,0,0.3,0.1c0,0.1,0,0.2-0.1,0.2
				c-0.1,0.1-0.3,0.1-0.4,0S321.6,72.8,321.8,72.9z"/>
			<path class="st15" d="M323.5,73.5c0.1,0,0.2-0.1,0.2-0.1c0.1,0,0.2,0,0.2,0.1s0,0.2-0.1,0.2s-0.2,0.1-0.2,0.1
				c-0.1,0-0.2,0-0.2-0.1C323.4,73.7,323.4,73.5,323.5,73.5z"/>
			<path class="st15" d="M320.5,71.2L320.5,71.2c0.1-0.1,0.2,0,0.2,0c0,0.1,0,0.2-0.1,0.2c-0.1,0.1-0.2,0.1-0.3,0
				C320.2,71.3,320.3,71.1,320.5,71.2z"/>
			<path class="st15" d="M323.9,70.8l0.2-0.1c0.2-0.1,0.3,0.2,0.1,0.3c-0.1,0-0.2,0-0.2,0.1C323.8,71.1,323.7,70.8,323.9,70.8z"/>
			<path class="st15" d="M318.2,70.7c0.1,0,0.2,0,0.2,0.1c0,0,0,0.1,0.1,0.1c0.1,0.1,0,0.2-0.1,0.2s-0.2,0-0.2-0.1
				c0,0,0-0.1-0.1-0.1C318.1,70.9,318.1,70.8,318.2,70.7z"/>
			<path class="st15" d="M318.6,72.7C318.6,72.7,318.7,72.8,318.6,72.7c0.1,0,0.2,0,0.3,0.1c0,0.1,0,0.2-0.1,0.2
				c-0.1,0.1-0.3,0.1-0.4,0C318.3,72.9,318.4,72.6,318.6,72.7z"/>
			<path class="st15" d="M320.1,71.9h0.1c0.2,0,0.1,0.4-0.1,0.3H320C319.8,72.1,319.9,71.8,320.1,71.9z"/>
			<path class="st15" d="M318.1,71.6L318.1,71.6c0.2,0,0.1,0.2,0,0.2H318C317.9,71.7,318,71.6,318.1,71.6z"/>
			<path class="st15" d="M316.8,71.9c0.1,0.1,0.1,0.1,0.2,0.2s0,0.2-0.1,0.1S316.8,72.1,316.8,71.9
				C316.6,71.9,316.7,71.8,316.8,71.9z"/>
			<path class="st15" d="M324,71.6c0.1,0,0.1,0.2,0,0.2l0,0c0,0.1-0.2,0-0.1-0.1C323.8,71.6,323.9,71.6,324,71.6z"/>
			<path class="st15" d="M325.8,72.6h0.1c0.1,0,0.1,0.2,0,0.2h-0.1C325.7,72.8,325.7,72.6,325.8,72.6z"/>
			<path class="st15" d="M326.9,72.2c0.1,0,0.1,0.2,0,0.2C326.8,72.4,326.8,72.2,326.9,72.2z"/>
			<path class="st15" d="M328.5,70.7c0.1,0,0.2,0.1,0.1,0.2c0,0.1-0.1,0-0.1,0C328.4,70.8,328.4,70.7,328.5,70.7z"/>
			<path class="st15" d="M325,73.9c0.1-0.1,0.2,0,0.2,0.2c0,0.1-0.2,0.1-0.2,0S325,73.9,325,73.9z"/>
			<path class="st15" d="M322.7,73.2L322.7,73.2C323,73.1,322.9,73.5,322.7,73.2C322.7,73.3,322.7,73.3,322.7,73.2z"/>
			<path class="st15" d="M319.6,73.3c0.2,0,0.1,0.3-0.1,0.3c-0.1,0-0.1-0.1,0-0.1C319.5,73.4,319.5,73.3,319.6,73.3z"/>
			<path class="st15" d="M318.8,71.9L318.8,71.9c0.2,0,0.1,0.2,0,0.2h-0.1C318.6,72.1,318.7,71.9,318.8,71.9z"/>
		</g>
	</g>
	<g>
		<g>
			<path class="st10" d="M95.2,79.2c0,0,0-3.7,2-3.7s3.1,2.4,4.9,1.6s4.2,0.2,5.2,0.8c0.9,0.6,0.1,1.4,0.6,2.5s-0.2,0.8-1.3,2.6
				c-1,1.8-1.7,1.4-3.8,2.2s-3.3,0.7-4.9-0.5c-1.6-1.1-2.6-3-3.1-3.8C94.4,80.1,95.2,79.2,95.2,79.2z"/>
			<path class="st11" d="M95.4,77.3c0,0,0.2,1.8,0.3,2.1c0.1,0.3,1,1.3,2.1,2s1.6,0.6,3.3,0.6s2.4,0,3.4-0.7
				c1.1-0.7,1.8-0.3,2.2-1.1c0.5-0.9,0.7-1.4,0.7-1.4s0.2,1.8,0.1,2.2c-0.2,0.5-0.2,0.7-1.6,2.1c-1.3,1.3-4,2.4-4.9,2.4
				s-2.6-0.5-3.5-1.1s-2-2.1-2.3-2.6s-0.5-0.9-0.5-0.9l-0.1-1.1l0.4-0.6C95.2,79.2,95.1,78,95.4,77.3z"/>
			<path class="st12" d="M107.6,80c0,0,0.5,0.9,0.5,1.3s-1,1.2-1.2,1.7s-0.6,1.3-1.2,1.7c-0.6,0.4-2.2,0.6-3.6,1
				c-1.3,0.5-2.9,0.9-4.7-0.9c-1.8-1.8-2.2-2.9-2.5-3.3s-0.5-0.8-0.3-1.4c0.1-0.5,0.3-0.8,0.6-0.9c0.3-0.1-0.5,0.4-0.2,1.1
				s0.9,1.6,1.4,2.2s1.8,1.6,2.4,1.7s2.2,0.1,2.8,0c0.5-0.1,0.9,0.1,2.1-0.3s2.1-0.6,2.6-1.4s0.9-1,1.1-1.4
				C107.6,80.7,107.6,80,107.6,80z"/>
			<path class="st13" d="M99.8,78.5c0,0,2.4-1.3,3.3-0.9s2.1-0.2,3,0.5c0.8,0.7,0.8,0.8-1,1.8s-2.8,1.4-4.7,0.9s-2-1.7-1.9-2.1
				C98.5,78.5,99.8,78.5,99.8,78.5z"/>
			<path class="st13" d="M96.3,76.5c0,0,0.8-0.8,1.6-0.4s1,0.7,1.6,1.1c0.6,0.5,0.3,0.8-0.4,0.8c-0.7,0-0.9,0.5-1.8,0.3
				C96.4,78.2,95.7,77.1,96.3,76.5z"/>
			<path class="st14" d="M101.7,78.8c0,0,0.6-0.6,1.2-0.6s1.2,0.1,2,0.2s1,0.4,0.8,0.7c-0.2,0.3-0.5,0.5-1.8,0.6s-2.1,0-2.4-0.3
				C101.1,79,101.7,78.8,101.7,78.8z"/>
		</g>
		<g>
			<path class="st15" d="M107.3,78.4L107.3,78.4c0,0.2-0.2,0.1-0.2,0v-0.1C107.2,78.3,107.4,78.3,107.3,78.4z"/>
			<path class="st15" d="M106.3,79.3c0.2,0,0.1,0.4-0.1,0.3S106.1,79.3,106.3,79.3z"/>
			<path class="st15" d="M106.5,80.5c0.1,0,0.1,0,0.2,0s0.1,0.1,0,0.2c-0.1,0-0.1,0-0.2,0C106.5,80.7,106.4,80.5,106.5,80.5z"/>
			<path class="st15" d="M105.4,80.5c0.2,0,0.1,0.4-0.1,0.3C105.1,80.7,105.2,80.4,105.4,80.5z"/>
			<path class="st15" d="M105.8,82.3c0.1,0,0.1,0.2,0,0.2C105.7,82.4,105.7,82.2,105.8,82.3z"/>
			<path class="st15" d="M104.8,82.1l0.2,0.1c0.1,0,0.1,0.2,0,0.2l-0.2-0.1C104.7,82.2,104.7,82.1,104.8,82.1z"/>
			<path class="st15" d="M104.1,83.5c0.2,0,0.1,0.4-0.1,0.3C103.8,83.7,103.9,83.4,104.1,83.5z"/>
			<path class="st15" d="M107.1,81.8c0.2,0,0.1,0.4-0.1,0.3S106.9,81.7,107.1,81.8z"/>
			<path class="st15" d="M107.5,79.3c0.2,0,0.1,0.4-0.1,0.3C107.2,79.5,107.3,79.2,107.5,79.3z"/>
			<path class="st15" d="M101.3,82.3L101.3,82.3c0.1-0.1,0.2-0.1,0.3-0.1s0.1,0.1,0.1,0.2c-0.1,0.1-0.2,0.2-0.3,0.2
				C101.1,82.7,101.1,82.3,101.3,82.3z"/>
			<path class="st15" d="M100.7,83.6C100.7,83.6,100.7,83.7,100.7,83.6c0.1,0,0.2,0,0.3,0.1c0,0.1,0,0.2-0.1,0.2
				c-0.1,0.1-0.3,0.1-0.4,0S100.5,83.5,100.7,83.6z"/>
			<path class="st15" d="M102.4,84.2c0.1,0,0.2-0.1,0.2-0.1c0.1,0,0.2,0,0.2,0.1s0,0.2-0.1,0.2s-0.2,0.1-0.2,0.1
				c-0.1,0-0.2,0-0.2-0.1C102.3,84.4,102.3,84.2,102.4,84.2z"/>
			<path class="st15" d="M99.4,81.9L99.4,81.9c0.1-0.1,0.2,0,0.2,0c0,0.1,0,0.2-0.1,0.2c-0.1,0.1-0.2,0.1-0.3,0
				C99.1,82,99.2,81.8,99.4,81.9z"/>
			<path class="st15" d="M102.8,81.5l0.2-0.1c0.2-0.1,0.3,0.2,0.1,0.3c-0.1,0-0.2,0-0.2,0.1C102.7,81.8,102.6,81.5,102.8,81.5z"/>
			<path class="st15" d="M97.1,81.4c0.1,0,0.2,0,0.2,0.1c0,0,0,0.1,0.1,0.1c0.1,0.1,0,0.2-0.1,0.2s-0.2,0-0.2-0.1c0,0,0-0.1-0.1-0.1
				C97,81.6,97,81.5,97.1,81.4z"/>
			<path class="st15" d="M97.5,83.4C97.5,83.4,97.6,83.5,97.5,83.4c0.1,0,0.2,0,0.3,0.1c0,0.1,0,0.2-0.1,0.2c-0.1,0.1-0.3,0.1-0.4,0
				C97.2,83.6,97.3,83.3,97.5,83.4z"/>
			<path class="st15" d="M99,82.6L99,82.6c0.3,0,0.2,0.4,0,0.3h-0.1C98.7,82.8,98.8,82.5,99,82.6z"/>
			<path class="st15" d="M97,82.3L97,82.3c0.2,0,0.1,0.2,0,0.2h-0.1C96.8,82.4,96.9,82.3,97,82.3z"/>
			<path class="st15" d="M95.7,82.6c0.1,0.1,0.1,0.1,0.2,0.2s0,0.2-0.1,0.1C95.7,82.8,95.7,82.8,95.7,82.6
				C95.5,82.6,95.6,82.5,95.7,82.6z"/>
			<path class="st15" d="M102.9,82.3c0.1,0,0.1,0.2,0,0.2l0,0C102.9,82.6,102.7,82.5,102.9,82.3C102.7,82.3,102.8,82.3,102.9,82.3z"
				/>
			<path class="st15" d="M104.7,83.3L104.7,83.3c0.2,0,0.2,0.2,0.1,0.2h-0.1C104.6,83.5,104.6,83.3,104.7,83.3z"/>
			<path class="st15" d="M105.8,82.9c0.1,0,0.1,0.2,0,0.2C105.7,83.1,105.7,82.9,105.8,82.9z"/>
			<path class="st15" d="M107.4,81.4c0.1,0,0.2,0.1,0.1,0.2c0,0.1-0.1,0-0.1,0C107.3,81.5,107.3,81.4,107.4,81.4z"/>
			<path class="st15" d="M103.9,84.6c0.1-0.1,0.2,0,0.2,0.2c0,0.1-0.2,0.1-0.2,0S103.9,84.6,103.9,84.6z"/>
			<path class="st15" d="M101.6,83.9L101.6,83.9C101.9,83.8,101.8,84.2,101.6,83.9C101.6,84,101.6,84,101.6,83.9z"/>
			<path class="st15" d="M98.5,84c0.2,0,0.1,0.3-0.1,0.3c-0.1,0-0.1-0.1,0-0.1C98.4,84.1,98.4,84,98.5,84z"/>
			<path class="st15" d="M97.7,82.6L97.7,82.6c0.2,0,0.1,0.2,0,0.2h-0.1C97.5,82.8,97.6,82.6,97.7,82.6z"/>
		</g>
	</g>
</g>
</svg>
