<svg xmlns="http://www.w3.org/2000/svg" xmlns:xlink="http://www.w3.org/1999/xlink" viewBox="0 0 389 157" xmlns:v="https://vecta.io/nano"><style><![CDATA[.d{fill:#d9412c}.e{opacity:.37}.f{fill:#df4636}.g{opacity:.19}.h{fill:#e87c79}]]></style><path d="M148.2 50.2l-.9-.9c-.9-.8-2.1-1.3-3.3-1-.8.2-1.5.8-2 1.3-2.2 2.2-3.9 4.9-6.3 6.9l-2 1.6c-.7.6-1.4 1.3-2 2l-4.1 4.2c-.2.2-.4.5-.1.7.1.1.2 0 .3 0 3.7-.8 7.3-2.1 10.5-4.1 1.9-1.2 6.3-5 7.4-6.1 1.1-1 2.2-2.1 2.7-3.5.1-.2.1-.4.1-.6s-.2-.3-.3-.5z" class="f"/><defs><path id="A" d="M148.2 50.2l-.9-.9c-.9-.8-2.1-1.3-3.3-1-.8.2-1.5.8-2 1.3-2.2 2.2-3.9 4.9-6.3 6.9l-2 1.6c-.7.6-1.4 1.3-2 2l-4.1 4.2c-.2.2-.4.5-.1.7.1.1.2 0 .3 0 3.7-.8 7.3-2.1 10.5-4.1 1.9-1.2 6.3-5 7.4-6.1 1.1-1 2.2-2.1 2.7-3.5.1-.2.1-.4.1-.6s-.2-.3-.3-.5z"/><path id="B" d="M268 51.7v-.9c-.1-.9-.6-1.8-1.4-2.2-.6-.3-1.2-.3-1.8-.3-2.4.1-4.7.8-7 .7-.6 0-1.3-.1-1.9-.1l-2.1.1-4.4.3c-.2 0-.5.1-.4.3 0 .1.1.1.2.2 2.5 1.4 5.2 2.5 8 3 1.7.3 6.1.3 7.3.3 1.1 0 2.3-.1 3.3-.6.1-.1.3-.2.3-.3-.1-.2-.1-.4-.1-.5z"/><path id="C" d="M257.2 51.3c.4.3.8.4 1.3.3.4-.1.3-.6 0-.7-.4-.1-.8 0-1.2.1-.2 0-.2.2-.1.3h0z"/></defs><clipPath id="D"><use xlink:href="#A"/></clipPath><g clip-path="url(#D)" class="g d"><path d="M126.2 63.9c.4.8 1.5.7 2.2.7.4-.1.8-.3 1.2-.5l1.9-.9c2.6-1.2 5-3 7-5.1 2-1.9 3.3-4.3 5.1-6.4.4-.5.8-.9 1.3-1.3.3-.3.7-.5.9-.5.4 0 .7-.2 1.2 0s1.2.5 1.9 1.2c.6.6 1.4-1.4 1.1-2.3-.8-2.7-4.5-2.9-6.5-1.7-1.2.7-2.1 1.8-3 2.9-1 1.2-1.8 2.4-2.7 3.7-1.6 2.2-3.8 4-6.2 5.5-1.3.8-2.6 1.3-3.8 2.2-.3.3-.7.6-.9 1-.1.2-.2.3-.3.5.1-.1-.3.2-.1.1-.4.2-.5.6-.3.9h0z"/></g><defs><path id="E" d="M148.2 50.2l-.9-.9c-.9-.8-2.1-1.3-3.3-1-.8.2-1.5.8-2 1.3-2.2 2.2-3.9 4.9-6.3 6.9l-2 1.6c-.7.6-1.4 1.3-2 2l-4.1 4.2c-.2.2-.4.5-.1.7.1.1.2 0 .3 0 3.7-.8 7.3-2.1 10.5-4.1 1.9-1.2 6.3-5 7.4-6.1 1.1-1 2.2-2.1 2.7-3.5.1-.2.1-.4.1-.6s-.2-.3-.3-.5z"/></defs><clipPath id="F"><use xlink:href="#E"/></clipPath><g clip-path="url(#F)" class="e d"><path d="M124.2 63.6c.4.9 1.7.8 2.5.7.4-.1.9-.3 1.3-.5l2.1-.9c2.9-1.4 5.5-3.4 7.7-5.6 2.2-2.1 3.6-4.8 5.6-7.1l1.4-1.5c.4-.3.8-.6 1-.6.5 0 .8-.2 1.3 0 .6.2 1.3.5 2.1 1.4.6.7 1.5-1.5 1.3-2.5-.8-2.9-5-3.3-7.2-1.9-1.3.8-2.3 2-3.3 3.2-1.1 1.3-2 2.7-3 4-1.8 2.4-4.2 4.5-6.8 6.1-1.4.9-2.9 1.5-4.2 2.5-.4.3-.8.7-1 1.1-.1.2-.2.4-.4.6.1-.1-.3.3-.1.1-.3.2-.4.5-.3.9h0z"/></g><defs><path id="G" d="M148.2 50.2l-.9-.9c-.9-.8-2.1-1.3-3.3-1-.8.2-1.5.8-2 1.3-2.2 2.2-3.9 4.9-6.3 6.9l-2 1.6c-.7.6-1.4 1.3-2 2l-4.1 4.2c-.2.2-.4.5-.1.7.1.1.2 0 .3 0 3.7-.8 7.3-2.1 10.5-4.1 1.9-1.2 6.3-5 7.4-6.1 1.1-1 2.2-2.1 2.7-3.5.1-.2.1-.4.1-.6s-.2-.3-.3-.5z"/></defs><clipPath id="H"><use xlink:href="#G"/></clipPath><g clip-path="url(#H)" class="e d"><path d="M123.2 63c.4.9 1.7.8 2.5.7.4-.1.9-.3 1.3-.5l2.1-.9c2.9-1.4 5.5-3.4 7.7-5.6 2.2-2.1 3.6-4.8 5.6-7.1l1.4-1.5c.4-.3.8-.6 1-.6.5 0 .8-.2 1.3 0 .6.2 1.3.5 2.1 1.4.6.7 1.5-1.5 1.3-2.5-.8-2.9-5-3.3-7.2-1.9-1.3.8-2.3 2-3.3 3.2-1.1 1.3-2 2.7-3 4-1.8 2.4-4.2 4.5-6.8 6.1-1.4.9-2.9 1.5-4.2 2.5-.4.3-.8.7-1 1.1-.1.2-.2.4-.4.6.1-.1-.3.3-.1.1-.3.2-.4.6-.3.9h0z"/></g><g class="h"><path d="M137.1 59.3c.6-.1 1.1-.3 1.5-.8.3-.4-.2-.9-.7-.7-.5.3-.7.7-1 1.1-.1.2 0 .4.2.4h0z"/><path d="M137 58.2c.3-.2.7-.3.9-.6.1-.1.1-.3.1-.4s-.1-.1-.1-.1c-.2-.1-.3-.1-.4 0-.3.2-.5.6-.6.9-.2.1 0 .2.1.2h0z"/><path d="M137.6 60.3c2.1-.9 3.8-2.2 5.4-3.7l2.3-2.5c.6-.7 1.6-1.6 1.8-2.5.1-.8-.6-1.2-1.2-.8-.4.3-.6.6-.8 1-.3.4-.7.8-1 1.3l-2 2.4c-1.4 1.6-2.9 3.2-4.5 4.6-.2.2-.1.3 0 .2h0zm-8.1 3.5c.7.6 1.8-.2 2.6-.5l2.2-.9c.7-.3 1.5-.6 2.1-1 .7-.5 0-1.4-.6-.9-.5.4-1.1.6-1.7.9l-1.9.9c-.5.2-1 .5-1.5.8-.4.2-.8.5-1.2.7-.1 0-.1 0 0 0h0z"/></g><path d="M144.5 54.1c.5-.1.9-.6 1.2-1 .2-.3.6-.7.6-1.1 0-.5-.7-.6-.8-.1-.2.3-.3.6-.5 1-.3.3-.7.7-.5 1.2-.1 0 0 0 0 0h0zm-6.5 5.1h.3c-.1 0-.1-.1-.3 0h0c.2 0 .4 0 .5-.2v-.1c0-.1 0-.2-.1-.3l-.1-.1c-.1-.1-.3.1-.4.2h0l.1-.1c0 .1-.1.1-.1.1-.1 0-.1.1-.1.1.1.3.1.4.2.4h0z" fill="#fff"/><path d="M275.4 78.2c-.1-.3-.3-.6-.4-.9-.5-.8-1.3-1.4-2.3-1.5-.7 0-1.3.2-1.8.6-2.2 1.2-4 2.8-6.3 3.8-.6.3-1.2.5-1.8.7-.7.3-1.3.7-2 1l-4 2.3c-.2.1-.4.3-.2.5 0 .1.1.1.2.1 3 .3 6 0 8.8-.7 1.7-.5 5.9-2.4 7-3 1-.5 2.1-1.1 2.8-2a.76.76 0 0 0 .2-.4c0-.2-.1-.4-.2-.5z" class="f"/><defs><path id="I" d="M275.4 78.2c-.1-.3-.3-.6-.4-.9-.5-.8-1.3-1.4-2.3-1.5-.7 0-1.3.2-1.8.6-2.2 1.2-4 2.8-6.3 3.8-.6.3-1.2.5-1.8.7-.7.3-1.3.7-2 1l-4 2.3c-.2.1-.4.3-.2.5 0 .1.1.1.2.1 3 .3 6 0 8.8-.7 1.7-.5 5.9-2.4 7-3 1-.5 2.1-1.1 2.8-2a.76.76 0 0 0 .2-.4c0-.2-.1-.4-.2-.5z"/></defs><clipPath id="J"><use xlink:href="#I"/></clipPath><g clip-path="url(#J)" class="g d"><path d="M255.8 83.7c.1.7 1 .9 1.5 1 .3 0 .7 0 1-.1.5-.1 1.1-.1 1.6-.2 2.2-.3 4.4-1.2 6.4-2.3 1.9-1 3.4-2.5 5.2-3.7.4-.3.8-.5 1.2-.7.3-.1.7-.2.8-.2.3.1.6 0 .9.2.4.2.8.6 1.1 1.3.3.6 1.4-.7 1.4-1.5 0-2.2-2.7-3.2-4.5-2.7-1.1.3-2 .9-2.9 1.5l-2.9 2.2c-1.7 1.3-3.8 2.2-5.9 2.8-1.1.3-2.3.4-3.4.8-.3.1-.7.3-.9.5l-.3.3c.1 0-.2.1-.1.1-.1.1-.2.4-.2.7h0z"/></g><defs><path id="K" d="M275.4 78.2c-.1-.3-.3-.6-.4-.9-.5-.8-1.3-1.4-2.3-1.5-.7 0-1.3.2-1.8.6-2.2 1.2-4 2.8-6.3 3.8-.6.3-1.2.5-1.8.7-.7.3-1.3.7-2 1l-4 2.3c-.2.1-.4.3-.2.5 0 .1.1.1.2.1 3 .3 6 0 8.8-.7 1.7-.5 5.9-2.4 7-3 1-.5 2.1-1.1 2.8-2a.76.76 0 0 0 .2-.4c0-.2-.1-.4-.2-.5z"/></defs><clipPath id="L"><use xlink:href="#K"/></clipPath><g clip-path="url(#L)" class="e d"><path d="M254.4 83c.1.8 1.1 1 1.7 1.1.3.1.8 0 1.1-.1.6-.1 1.2-.1 1.8-.2 2.5-.4 4.9-1.3 7.1-2.5 2.1-1.1 3.8-2.8 5.8-4.1.5-.3.9-.6 1.4-.8.3-.1.7-.2.9-.2.3.1.6 0 1 .3s.9.7 1.2 1.5c.3.6 1.5-.8 1.5-1.6 0-2.4-3-3.6-5-3-1.2.3-2.2 1-3.2 1.7l-3.2 2.4c-1.9 1.4-4.2 2.4-6.5 3.1l-3.7.9c-.3.1-.7.4-1 .6-.1.1-.3.2-.4.3.1 0-.3.1-.1.1-.3-.1-.4.2-.4.5h0z"/></g><defs><path id="M" d="M275.4 78.2c-.1-.3-.3-.6-.4-.9-.5-.8-1.3-1.4-2.3-1.5-.7 0-1.3.2-1.8.6-2.2 1.2-4 2.8-6.3 3.8-.6.3-1.2.5-1.8.7-.7.3-1.3.7-2 1l-4 2.3c-.2.1-.4.3-.2.5 0 .1.1.1.2.1 3 .3 6 0 8.8-.7 1.7-.5 5.9-2.4 7-3 1-.5 2.1-1.1 2.8-2a.76.76 0 0 0 .2-.4c0-.2-.1-.4-.2-.5z"/></defs><clipPath id="N"><use xlink:href="#M"/></clipPath><g clip-path="url(#N)" class="e d"><path d="M253.8 82.3c.1.8 1.1 1 1.7 1.1.3.1.8 0 1.1-.1.6-.1 1.2-.1 1.8-.2 2.5-.4 4.9-1.3 7.1-2.5 2.1-1.1 3.8-2.8 5.8-4.1.5-.3.9-.6 1.4-.8.3-.1.7-.2.9-.2.3.1.6 0 1 .3s.9.7 1.2 1.5c.3.6 1.5-.8 1.5-1.6 0-2.4-3-3.6-5-3-1.2.3-2.2 1-3.2 1.7l-3.2 2.4c-1.9 1.4-4.2 2.4-6.5 3.1l-3.7.9c-.3.1-.7.4-1 .6-.1.1-.3.2-.4.3.1 0-.3.1-.1.1-.3 0-.5.2-.4.5h0z"/></g><path d="M265 82.6c.5.1.9 0 1.3-.3.3-.2 0-.8-.3-.7-.4.1-.7.4-1 .6-.1.2-.1.4 0 .4h0zm.2-.9c.3 0 .6-.1.8-.2.1-.1.2-.2.1-.3 0 0 0-.1-.1-.1-.1-.1-.2-.1-.3-.1-.3.1-.5.3-.7.5.1.1.1.2.2.2h0zm0 1.8c1.8-.2 3.4-.8 4.9-1.6.8-.4 1.5-.9 2.3-1.4.6-.4 1.6-.8 1.9-1.5.3-.5-.2-1.1-.8-.9-.3.1-.6.4-.8.6l-3 2.1c-1.4.9-2.9 1.8-4.5 2.5-.2.1-.1.2 0 .2h0zm-6.9.8c.4.6 1.4.3 2 .2s1.2-.1 1.8-.2 1.2-.1 1.8-.3.3-1-.3-.8c-.4.2-1 .2-1.4.3-.5.1-1.1.1-1.6.2-.4.1-.9.1-1.3.2-.3.2-.7.4-1 .4 0 0-.1 0 0 0h0z" class="h"/><path d="M271.8 80.3c.4 0 .8-.3 1.1-.5.2-.2.6-.4.7-.7.1-.4-.4-.6-.6-.3l-.6.6c-.2.3-.7.5-.6.9-.1 0 0 0 0 0h0zm-6.1 2.4h0c.1.1.2.1.2.1s0-.1-.2-.1h0c.2.2.3.2.4.1v-.3s0-.1-.1-.1c-.1-.1-.3 0-.3.1h0s.1 0 .1-.1c0 0-.1 0-.1.1.1 0 .1.1 0 .2 0-.1 0 0 0 0h0z" fill="#fff"/><path d="M126.5 92a.55.55 0 0 0 .5.3c1.4.6 2.9.5 4.4.4 1.6-.1 7.4-.7 9.5-1.3 3.6-1 7.1-2.7 10.1-4.9.1-.1.2-.1.2-.2 0-.3-.3-.4-.6-.4-2 0-3.9.1-5.9.1-.9 0-1.9 0-2.8.1-.8.1-1.7.3-2.5.4-3.1.4-6.2-.2-9.3-.1-.8 0-1.7.1-2.4.6-1 .6-1.5 1.9-1.5 3.1 0 .4 0 .8.1 1.2.1.3.1.5.2.7z" class="f"/><defs><path id="O" d="M126.5 92a.55.55 0 0 0 .5.3c1.4.6 2.9.5 4.4.4 1.6-.1 7.4-.7 9.5-1.3 3.6-1 7.1-2.7 10.1-4.9.1-.1.2-.1.2-.2 0-.3-.3-.4-.6-.4-2 0-3.9.1-5.9.1-.9 0-1.9 0-2.8.1-.8.1-1.7.3-2.5.4-3.1.4-6.2-.2-9.3-.1-.8 0-1.7.1-2.4.6-1 .6-1.5 1.9-1.5 3.1 0 .4 0 .8.1 1.2.1.3.1.5.2.7z"/></defs><clipPath id="P"><use xlink:href="#O"/></clipPath><g clip-path="url(#P)" class="g d"><path d="M151.4 84.7c-.2-.4-.5-.5-.8-.4.2-.1-.2 0-.1 0-.2 0-.4-.1-.6-.1-.4-.1-.9-.1-1.4 0-1.5.2-2.8.9-4.2 1.2-2.6.7-5.5 1.1-8.2.8l-4.5-.5c-1.4-.1-2.8-.2-4.1.2-2.3.6-4.6 3.6-3.2 5.9.5.8 2.5 1.6 2.4.7-.1-1 .1-1.7.4-2.2.2-.5.5-.6.8-.8.2-.1.6-.3 1-.3.6-.1 1.2 0 1.8 0 2.7.1 5.4.8 8.2.7 2.9-.1 5.8-.6 8.5-1.7.6-.3 1.3-.5 1.9-.8.3-.1.8-.3 1.1-.5.5-.6 1.4-1.4 1-2.2h0z"/></g><defs><path id="Q" d="M126.5 92a.55.55 0 0 0 .5.3c1.4.6 2.9.5 4.4.4 1.6-.1 7.4-.7 9.5-1.3 3.6-1 7.1-2.7 10.1-4.9.1-.1.2-.1.2-.2 0-.3-.3-.4-.6-.4-2 0-3.9.1-5.9.1-.9 0-1.9 0-2.8.1-.8.1-1.7.3-2.5.4-3.1.4-6.2-.2-9.3-.1-.8 0-1.7.1-2.4.6-1 .6-1.5 1.9-1.5 3.1 0 .4 0 .8.1 1.2.1.3.1.5.2.7z"/></defs><clipPath id="R"><use xlink:href="#Q"/></clipPath><g clip-path="url(#R)" class="e d"><path d="M152.5 83c-.2-.4-.5-.6-.9-.4.2-.1-.2 0-.1 0-.2 0-.4-.1-.6-.1a3.79 3.79 0 0 0-1.5 0c-1.6.3-3.1 1-4.7 1.4-2.9.8-6.1 1.2-9.1.8l-5-.6c-1.5-.1-3.1-.2-4.5.2-2.5.7-5.1 4-3.5 6.6.5.9 2.8 1.7 2.7.8-.1-1.1.1-1.9.4-2.5.2-.5.6-.6.9-.9a6.6 6.6 0 0 1 1.1-.4h2c3 .1 6 .9 9 .7 3.2-.2 6.4-.7 9.4-1.8l2.1-.9c.4-.2.9-.3 1.2-.6.6-.5 1.5-1.3 1.1-2.3h0z"/></g><defs><path id="S" d="M126.5 92a.55.55 0 0 0 .5.3c1.4.6 2.9.5 4.4.4 1.6-.1 7.4-.7 9.5-1.3 3.6-1 7.1-2.7 10.1-4.9.1-.1.2-.1.2-.2 0-.3-.3-.4-.6-.4-2 0-3.9.1-5.9.1-.9 0-1.9 0-2.8.1-.8.1-1.7.3-2.5.4-3.1.4-6.2-.2-9.3-.1-.8 0-1.7.1-2.4.6-1 .6-1.5 1.9-1.5 3.1 0 .4 0 .8.1 1.2.1.3.1.5.2.7z"/></defs><clipPath id="T"><use xlink:href="#S"/></clipPath><g clip-path="url(#T)" class="e d"><path d="M152.8 81.9c-.2-.4-.5-.6-.9-.4.2-.1-.2 0-.1 0-.2 0-.4-.1-.6-.1a3.79 3.79 0 0 0-1.5 0c-1.6.3-3.1 1-4.7 1.4-2.9.8-6.1 1.2-9.1.8l-5-.6c-1.5-.1-3.1-.2-4.5.2-2.5.7-5.1 4-3.5 6.6.5.9 2.8 1.7 2.7.8-.1-1.1.1-1.9.4-2.5.2-.5.6-.6.9-.9a6.6 6.6 0 0 1 1.1-.4h2c3 .1 6 .9 9 .7 3.2-.1 6.4-.7 9.3-1.8l2.1-.9c.4-.2.9-.3 1.2-.6.6-.5 1.6-1.4 1.2-2.3h0z"/></g><path d="M140.6 89.5c.1-.1 0-.4-.1-.4-.5-.1-1-.2-1.5 0-.5.1-.4.9 0 .9.6.1 1.2-.1 1.6-.5h0zm-.8-.9c.1-.1.1-.2 0-.3-.3-.1-.7-.2-1.1-.1-.1 0-.2.1-.3.3v.2c.1.1.2.2.3.2.4 0 .8-.1 1.1-.3h0zm1.2 2c.1-.1.1-.2 0-.2-2.1.3-4.3.2-6.5.2-1 0-2.1-.1-3.1-.2-.5-.1-1.1-.1-1.6-.1-.4-.1-.8-.2-1.3-.1-.7.1-.9 1-.3 1.4.8.5 2.1.4 3 .4h3.3c2.3-.1 4.5-.5 6.5-1.4h0zm8.1-3.6c.1-.1 0-.1 0 0-.4.2-.9.3-1.3.4-.5.1-1 .3-1.5.6-.6.3-1.3.5-1.9.8-.6.2-1.2.5-1.8.6-.8.1-.6 1.2.2 1.1.7-.2 1.4-.5 2.1-.9l2.1-1c.8-.4 2.1-.7 2.1-1.6h0z" class="h"/><path d="M131.8 91.3h0c-.2-.5-.8-.4-1.2-.5l-1-.3c-.4-.2-.8.3-.5.7.3.3.8.3 1.2.3.4.1 1.1.1 1.5-.2h0zm8.1-1.3h0c-.1-.1-.1-.1-.2-.1h-.2c0-.1-.2 0-.3.1v.1c0 .1.1.2.1.2h.1c.3.2.4 0 .5-.3-.1.1-.1.1 0 0-.1.1-.1.2-.2.2 0-.1.1-.1.2-.2-.1.1 0 .1 0 0h0z" fill="#fff"/><use xlink:href="#B" class="f"/><defs><path id="U" d="M268 51.7v-.9c-.1-.9-.6-1.8-1.4-2.2-.6-.3-1.2-.3-1.8-.3-2.4.1-4.7.8-7 .7-.6 0-1.3-.1-1.9-.1l-2.1.1-4.4.3c-.2 0-.5.1-.4.3 0 .1.1.1.2.2 2.5 1.4 5.2 2.5 8 3 1.7.3 6.1.3 7.3.3 1.1 0 2.3-.1 3.3-.6.1-.1.3-.2.3-.3-.1-.2-.1-.4-.1-.5z"/></defs><clipPath id="V"><use xlink:href="#U"/></clipPath><g clip-path="url(#V)" class="g d"><path d="M248.7 48.4c-.2.6.5 1.2.9 1.5.2.1.6.2.9.3.5.2 1 .3 1.5.5 2.1.6 4.3.8 6.5.6 2.1-.1 4.1-.8 6.1-1.1.5-.1.9-.1 1.4-.1.3 0 .7.1.8.2.2.2.5.2.7.6s.4.9.4 1.6c0 .6 1.5-.1 1.8-.7.9-1.9-1.1-3.9-2.9-4.2-1-.2-2.1 0-3.1.1l-3.4.7a16.17 16.17 0 0 1-6.2 0c-1.1-.2-2.2-.6-3.3-.6-.3 0-.7 0-1 .1-.1 0-.3.1-.4.1.1 0-.3 0-.1 0-.3 0-.5.2-.6.4h0z"/></g><defs><path id="W" d="M268 51.7v-.9c-.1-.9-.6-1.8-1.4-2.2-.6-.3-1.2-.3-1.8-.3-2.4.1-4.7.8-7 .7-.6 0-1.3-.1-1.9-.1l-2.1.1-4.4.3c-.2 0-.5.1-.4.3 0 .1.1.1.2.2 2.5 1.4 5.2 2.5 8 3 1.7.3 6.1.3 7.3.3 1.1 0 2.3-.1 3.3-.6.1-.1.3-.2.3-.3-.1-.2-.1-.4-.1-.5z"/></defs><clipPath id="X"><use xlink:href="#W"/></clipPath><g clip-path="url(#X)" class="e d"><path d="M247.7 47.3c-.2.7.5 1.3 1 1.6.3.2.7.3 1 .4.6.2 1.1.4 1.7.5 2.3.7 4.8.8 7.2.7 2.3-.1 4.5-.9 6.7-1.2.5-.1 1-.1 1.5-.1.4 0 .7.1.9.2.3.2.5.3.7.6.2.4.5 1 .5 1.8 0 .7 1.6-.1 2-.8 1-2.1-1.2-4.4-3.1-4.7-1.1-.2-2.3 0-3.4.2-1.3.2-2.5.5-3.7.8-2.2.5-4.6.4-6.9 0-1.2-.2-2.4-.6-3.6-.7-.3 0-.8 0-1.1.1-.2 0-.3.1-.5.1.1 0-.3 0-.1 0-.4 0-.7.2-.8.5h0z"/></g><defs><path id="Y" d="M268 51.7v-.9c-.1-.9-.6-1.8-1.4-2.2-.6-.3-1.2-.3-1.8-.3-2.4.1-4.7.8-7 .7-.6 0-1.3-.1-1.9-.1l-2.1.1-4.4.3c-.2 0-.5.1-.4.3 0 .1.1.1.2.2 2.5 1.4 5.2 2.5 8 3 1.7.3 6.1.3 7.3.3 1.1 0 2.3-.1 3.3-.6.1-.1.3-.2.3-.3-.1-.2-.1-.4-.1-.5z"/></defs><clipPath id="Z"><use xlink:href="#Y"/></clipPath><g clip-path="url(#Z)" class="e d"><path d="M247.4 46.5c-.2.7.5 1.3 1 1.6.3.2.7.3 1 .4.6.2 1.1.4 1.7.5 2.3.7 4.8.8 7.2.7 2.3-.1 4.5-.9 6.7-1.2.5-.1 1-.1 1.5-.1.4 0 .7.1.9.2.3.2.5.3.7.6.2.4.5 1 .5 1.8 0 .7 1.6-.1 2-.8 1-2.1-1.2-4.4-3.1-4.7-1.1-.2-2.3 0-3.4.2-1.3.2-2.5.5-3.7.8-2.2.5-4.6.4-6.9 0-1.2-.2-2.4-.6-3.6-.7-.3 0-.8 0-1.1.1-.2 0-.3.1-.5.1.1 0-.3 0-.1 0-.4 0-.7.1-.8.5h0z"/></g><g class="h"><use xlink:href="#C"/><path d="M257.7 50.6c.2.1.6.2.8.1.1 0 .2-.1.2-.2v-.1c-.1-.1-.1-.2-.3-.2-.3 0-.5.1-.8.2 0 0 0 .1.1.2h0zm-.8 1.5c1.6.6 3.3.7 4.9.6.8 0 1.7-.2 2.5-.3.7-.1 1.7-.1 2.2-.5.4-.4.3-1-.3-1.1-.3 0-.6.1-.9.2-.4.1-.8.1-1.2.2l-2.4.4c-1.6.2-3.3.4-4.9.3 0 .1 0 .2.1.2h0zm-6.3-2.1c.1.7 1.1.8 1.7 1l1.7.6a9.83 9.83 0 0 0 1.6.5c.6.1.7-.8.1-.8-.4 0-.9-.2-1.4-.3s-1-.3-1.5-.5l-1.2-.3c-.3 0-.7-.1-1-.2 0 0-.1 0 0 0h0z"/></g><path d="M264 52c.3.2.8.1 1.1 0s.7-.1.9-.3c.3-.3-.1-.6-.4-.5-.2.1-.5.2-.7.3-.3.2-.8.2-.9.5h0zm-6.3-.4c.1.1.1.1 0 0 .1.1.1.1.1.2.1 0 0-.1-.1-.2.1.1.1.1 0 0 .1.2.2.3.3.2h.1c.1 0 .1-.1.1-.2v-.1c0-.1-.2-.1-.3-.1h.1l-.3.2c0-.1 0 0 0 0h0z" fill="#fff"/><use xlink:href="#B" x="-63.4" y="27.4" class="f"/><defs><path id="a" d="M204.6 79.1v-.9c-.1-.9-.6-1.8-1.4-2.2-.6-.3-1.2-.3-1.8-.3-2.4.1-4.7.8-7 .7-.6 0-1.3-.1-1.9-.1l-2.1.1-4.4.3c-.2 0-.5.1-.4.3 0 .1.1.1.2.2 2.5 1.4 5.2 2.5 8 3 1.7.3 6.1.3 7.3.3 1.1 0 2.3-.1 3.3-.6.1-.1.3-.2.3-.3-.1-.2-.1-.4-.1-.5z"/></defs><clipPath id="b"><use xlink:href="#a"/></clipPath><g clip-path="url(#b)" class="g d"><path d="M185.2 75.8c-.2.6.5 1.2.9 1.5.2.1.6.2.9.3.5.2 1 .3 1.5.5 2.1.6 4.3.8 6.5.6 2.1-.1 4.1-.8 6.1-1.1.5-.1.9-.1 1.4-.1.3 0 .7.1.8.2.2.2.5.2.7.6s.4.9.4 1.6c0 .6 1.5-.1 1.8-.7.9-1.9-1.1-3.9-2.9-4.2-1-.2-2.1 0-3.1.1l-3.4.7a16.17 16.17 0 0 1-6.2 0c-1.1-.2-2.2-.6-3.3-.6-.3 0-.7 0-1 .1-.1 0-.3.1-.4.1.1 0-.3 0-.1 0-.3 0-.5.1-.6.4h0z"/></g><defs><path id="c" d="M204.6 79.1v-.9c-.1-.9-.6-1.8-1.4-2.2-.6-.3-1.2-.3-1.8-.3-2.4.1-4.7.8-7 .7-.6 0-1.3-.1-1.9-.1l-2.1.1-4.4.3c-.2 0-.5.1-.4.3 0 .1.1.1.2.2 2.5 1.4 5.2 2.5 8 3 1.7.3 6.1.3 7.3.3 1.1 0 2.3-.1 3.3-.6.1-.1.3-.2.3-.3-.1-.2-.1-.4-.1-.5z"/></defs><clipPath id="d"><use xlink:href="#c"/></clipPath><g clip-path="url(#d)" class="e d"><path d="M184.3 74.6c-.2.7.5 1.3 1 1.6.3.2.7.3 1 .4.6.2 1.1.4 1.7.5 2.3.7 4.8.8 7.2.7 2.3-.1 4.5-.9 6.7-1.2.5-.1 1-.1 1.5-.1.4 0 .7.1.9.2.3.2.5.3.7.6.2.4.5 1 .5 1.8 0 .7 1.6-.1 2-.8 1-2.1-1.2-4.4-3.1-4.7-1.1-.2-2.3 0-3.4.2-1.3.2-2.5.5-3.7.8-2.2.5-4.6.4-6.9 0-1.2-.2-2.4-.6-3.6-.7-.3 0-.8 0-1.1.1-.2 0-.3.1-.5.1.1 0-.3 0-.1 0-.5.1-.8.2-.8.5h0z"/></g><defs><path id="e" d="M204.6 79.1v-.9c-.1-.9-.6-1.8-1.4-2.2-.6-.3-1.2-.3-1.8-.3-2.4.1-4.7.8-7 .7-.6 0-1.3-.1-1.9-.1l-2.1.1-4.4.3c-.2 0-.5.1-.4.3 0 .1.1.1.2.2 2.5 1.4 5.2 2.5 8 3 1.7.3 6.1.3 7.3.3 1.1 0 2.3-.1 3.3-.6.1-.1.3-.2.3-.3-.1-.2-.1-.4-.1-.5z"/></defs><clipPath id="f"><use xlink:href="#e"/></clipPath><g clip-path="url(#f)" class="e d"><path d="M184 73.8c-.2.7.5 1.3 1 1.6.3.2.7.3 1 .4.6.2 1.1.4 1.7.5 2.3.7 4.8.8 7.2.7 2.3-.1 4.5-.9 6.7-1.2.5-.1 1-.1 1.5-.1.4 0 .7.1.9.2.3.2.5.3.7.6.2.4.5 1 .5 1.8 0 .7 1.6-.1 2-.8 1-2.1-1.2-4.4-3.1-4.7-1.1-.2-2.3 0-3.4.2-1.3.2-2.5.5-3.7.8-2.2.5-4.6.4-6.9 0-1.2-.2-2.4-.6-3.6-.7-.3 0-.8 0-1.1.1-.2 0-.3.1-.5.1.1 0-.3 0-.1 0-.5.1-.7.2-.8.5h0z"/></g><g class="h"><use xlink:href="#C" x="-63.5" y="27.4"/><path d="M194.2 77.9c.2.1.6.2.8.1.1 0 .2-.1.2-.2v-.1c-.1-.1-.1-.2-.3-.2-.3 0-.5.1-.8.2 0 .1 0 .2.1.2h0zm-.7 1.6c1.6.6 3.3.7 4.9.6.8 0 1.7-.2 2.5-.3.7-.1 1.7-.1 2.2-.5.4-.4.3-1-.3-1.1-.3 0-.6.1-.9.2-.4.1-.8.1-1.2.2l-2.4.4c-1.6.2-3.3.4-4.9.3 0 0 0 .2.1.2h0zm-6.4-2.1c.1.7 1.1.8 1.7 1l1.7.6a9.83 9.83 0 0 0 1.6.5c.6.1.7-.8.1-.8-.4 0-.9-.2-1.4-.3s-1-.3-1.5-.5l-1.2-.3c-.3-.1-.7-.1-1-.2 0-.1 0-.1 0 0h0z"/></g><path d="M200.5 79.4c.3.2.8.1 1.1 0s.7-.1.9-.3c.3-.3-.1-.6-.4-.5-.2.1-.5.2-.7.3-.3.1-.8.1-.9.5 0-.1 0 0 0 0h0zm-6.2-.4s0 .1 0 0c.1.1.1.1.1.2 0-.1 0-.1-.1-.2h0c.1.2.2.3.3.2h.1c.1 0 .1-.1.1-.2v-.1c0-.1-.2-.1-.3-.1h.1c-.2.1-.3.1-.3.2 0-.1 0 0 0 0h0z" fill="#fff"/></svg>