<?xml version="1.0" encoding="utf-8"?>
<!-- Generator: Adobe Illustrator 21.0.0, SVG Export Plug-In . SVG Version: 6.00 Build 0)  -->
<svg version="1.1" xmlns="http://www.w3.org/2000/svg" xmlns:xlink="http://www.w3.org/1999/xlink" x="0px" y="0px"
	 viewBox="0 0 389 157" style="enable-background:new 0 0 389 157;" xml:space="preserve">
<style type="text/css">
	.st0{display:none;}
	.st1{display:inline;}
	.st2{fill:#732A13;}
	.st3{fill:#6C151C;}
	.st4{fill:#F6C073;}
	.st5{fill:#F1A12E;}
	.st6{opacity:0.3;fill:#FBE0BA;enable-background:new    ;}
	.st7{fill:#6F4026;}
	.st8{fill:#F6C278;}
	.st9{fill:#AB1717;}
	.st10{fill:#DF4636;}
	.st11{opacity:0.19;clip-path:url(#SVGID_7_);}
	.st12{fill:#D9412C;}
	.st13{opacity:0.37;clip-path:url(#SVGID_9_);}
	.st14{opacity:0.37;clip-path:url(#SVGID_11_);}
	.st15{fill:#E87C79;}
	.st16{fill:#FFFFFF;}
	.st17{opacity:0.19;clip-path:url(#SVGID_13_);}
	.st18{opacity:0.37;clip-path:url(#SVGID_15_);}
	.st19{opacity:0.37;clip-path:url(#SVGID_17_);}
	.st20{opacity:0.19;clip-path:url(#SVGID_19_);}
	.st21{opacity:0.37;clip-path:url(#SVGID_21_);}
	.st22{opacity:0.37;clip-path:url(#SVGID_23_);}
	.st23{opacity:0.19;clip-path:url(#SVGID_25_);}
	.st24{opacity:0.37;clip-path:url(#SVGID_27_);}
	.st25{opacity:0.37;clip-path:url(#SVGID_29_);}
	.st26{opacity:0.19;clip-path:url(#SVGID_31_);}
	.st27{opacity:0.37;clip-path:url(#SVGID_33_);}
	.st28{opacity:0.37;clip-path:url(#SVGID_35_);}
</style>
<g id="Слой_1" class="st0">
	<g id="Layer_1" class="st1">
		<g>
			
				<ellipse transform="matrix(0.9998 -1.910948e-02 1.910948e-02 0.9998 -1.7337 3.9668)" class="st2" cx="206.7" cy="92.7" rx="175.1" ry="48.7"/>
			
				<ellipse transform="matrix(0.9998 -1.911576e-02 1.911576e-02 0.9998 -1.5262 3.9298)" class="st3" cx="204.8" cy="81.8" rx="161" ry="44.8"/>
			
				<ellipse transform="matrix(0.9998 -1.911913e-02 1.911913e-02 0.9998 -1.4442 3.9373)" class="st4" cx="205.2" cy="77.5" rx="158.3" ry="44.6"/>
			
				<ellipse transform="matrix(0.9998 -1.910377e-02 1.910377e-02 0.9998 -1.317 3.9311)" class="st5" cx="205.1" cy="70.9" rx="145.6" ry="32.3"/>
			
				<ellipse transform="matrix(0.9998 -1.911114e-02 1.911114e-02 0.9998 -1.3424 3.9328)" class="st5" cx="205.1" cy="72.2" rx="139.4" ry="30.9"/>
			<path class="st6" d="M204.5,41.3c-77,1.5-139.1,16.5-138.8,33.6s63,29.7,140,28.3c77-1.5,139.1-16.5,138.8-33.6
				S281.5,39.9,204.5,41.3z M76.5,69.9c-0.4-0.2-0.5-0.7-0.3-1.1c3.1-9.1,15.8-8,22.9-11.7c0.3-0.2,0.6-0.2,0.8-0.1
				c15-5,30.2-7.7,46.5-8.8c9-0.6,18.1-0.6,27.1-0.7c5.3-0.1,12.1-0.5,16.1,3.6c0.6,0.6-0.1,1.5-0.7,1.7c-8,3.7-17.1,2.5-25.7,3.3
				c-11,1-22.1,2.7-32.9,4.8c-10.9,2.1-22.2,3.3-33,6.1C90.6,68.8,83.3,72.4,76.5,69.9z M180.5,95.3c-6.8,1.8-14,1.7-21,1.7
				c-9.1,0-18.1-0.1-27.2,0c-5.6,0-12.9,0-17.3-4.1c-4.6-4.3-9.2-3.7-15-3.6c-4.6,0-17.9,0.3-17.1-7.4c0.6-5.4,10.5-7.5,14.4-8.5
				c8.1-2.1,16.5-3.3,24.8-4c3.8-0.3,7.4-0.5,11.1-1.1c0.1-0.1,0.3-0.2,0.4-0.2c12.3-2.4,24.7-4,37.2-4.6c8.1-0.4,22-1.8,22.4,9.6
				C193.7,82.5,190.7,92.5,180.5,95.3z M213.5,49.7c7-6.9,18.9-4.7,27.8-6c0.5-0.1,0.7,0.1,0.8,0.4c6,0,12.1,0.7,18.1,1.3
				c6.4,0.6,16.7,0.8,21.1,6.5c0.4,0.6,0.1,1.6-0.7,1.7c-12.9,3.4-25.5-0.7-38.5,0c-8.7,0.5-20.9,2.9-28.6-2.4
				C213,50.8,213,50.1,213.5,49.7z M261.1,84.1c-1.6,4.3-7.6,5.8-11.6,6.6c-7.1,1.4-14.7,2.8-21.8,3.4c-7,0.6-12.6-1.2-15.8-7.8
				c-1.4-3-6.8-16-3.7-20.4c0.1-0.1,0.2-0.3,0.3-0.4c0.4-0.4,0.9-0.7,1.6-0.9c2-0.8,4.1-0.6,6.5,0.2c5.2,1.6,10.6,2.4,15.9,3.9
				c7,1.9,14.2,4.3,20.9,7.3C256.2,77.1,262.7,79.8,261.1,84.1z M300.7,71.4c-4.1,5.6-14.6,4.6-20.5,4.1
				c-11.3-0.9-22.3-2.5-33.2-5.8c-3.7-1.1-18.2-3.5-18.9-8.4c-0.3-2.3,2.3-3.5,5.3-4.1c9.4-3.8,19.3,0,28.9,0.7
				c5.4,0.4,10.9,1.2,16.2,2.1C281.8,60.5,306.3,63.8,300.7,71.4z"/>
			<path class="st7" d="M38.5,90c0,0-6.8,2.4-0.1,15.3s86.2,37.6,160.7,32.7c0,0,51.9,0,52.2-4.1s-19.8-4.3-19.8-4.3
				s-23.5,0.7-33.8,0.8C187.5,130.4,54.8,131.5,38.5,90z"/>
			<path class="st8" d="M55.9,70.2c0,0-3.4-0.2-6.1,6.4c-2.7,6.6,7.9,22.9,55,33.2c47,10.3,115.1,12.6,150.4,6.2s18.1-15.1,0.9-12.8
				c-17.2,2.3-17.2,2.3-17.2,2.3S153,108.1,110,99.9C69.2,92.2,55.1,87.1,55.9,70.2z"/>
		</g>
	</g>
	<g id="Слой_3" class="st1">
		<path class="st9" d="M145.6,45.9c0,0,46.5-2,75.9-1.5c19.1,0.2,41.2-3.1,77.1,5.1c17.5,3.8,28.6,7.5,34.6,10.6
			c3.6,1.9,6,5.6,5.9,9.7c-0.1,6.2-6.3,15.6-56.8,26c-49.7,4.8-55.4,4.6-77.4,3.8c-24.5,0.9-52.2,3.2-76.1-2.4
			c-26.9-5.6-68.6-13.4-56.1-25.5C80.6,64.8,90.8,54.2,145.6,45.9z"/>
	</g>
</g>
<g id="Слой_2">
	<g>
		<g>
			<g>
				<path id="SVGID_3_" class="st10" d="M100.1,63.7c-0.3-0.3-0.6-0.6-0.9-0.9c-0.9-0.8-2.1-1.3-3.3-1c-0.8,0.2-1.5,0.8-2,1.3
					c-2.2,2.2-3.9,4.9-6.3,6.9c-0.6,0.5-1.3,1-2,1.6c-0.7,0.6-1.4,1.3-2,2c-1.4,1.4-2.7,2.8-4.1,4.2c-0.2,0.2-0.4,0.5-0.1,0.7
					c0.1,0.1,0.2,0,0.3,0c3.7-0.8,7.3-2.1,10.5-4.1c1.9-1.2,6.3-5,7.4-6.1c1.1-1,2.2-2.1,2.7-3.5c0.1-0.2,0.1-0.4,0.1-0.6
					C100.4,64,100.2,63.9,100.1,63.7z"/>
			</g>
			<g>
				<defs>
					<path id="SVGID_6_" d="M100.1,63.7c-0.3-0.3-0.6-0.6-0.9-0.9c-0.9-0.8-2.1-1.3-3.3-1c-0.8,0.2-1.5,0.8-2,1.3
						c-2.2,2.2-3.9,4.9-6.3,6.9c-0.6,0.5-1.3,1-2,1.6c-0.7,0.6-1.4,1.3-2,2c-1.4,1.4-2.7,2.8-4.1,4.2c-0.2,0.2-0.4,0.5-0.1,0.7
						c0.1,0.1,0.2,0,0.3,0c3.7-0.8,7.3-2.1,10.5-4.1c1.9-1.2,6.3-5,7.4-6.1c1.1-1,2.2-2.1,2.7-3.5c0.1-0.2,0.1-0.4,0.1-0.6
						C100.4,64,100.2,63.9,100.1,63.7z"/>
				</defs>
				<clipPath id="SVGID_7_">
					<use xlink:href="#SVGID_6_"  style="overflow:visible;"/>
				</clipPath>
				<g class="st11">
					<path class="st12" d="M78.1,77.4c0.4,0.8,1.5,0.7,2.2,0.7c0.4-0.1,0.8-0.3,1.2-0.5c0.6-0.3,1.3-0.6,1.9-0.9c2.6-1.2,5-3,7-5.1
						c2-1.9,3.3-4.3,5.1-6.4c0.4-0.5,0.8-0.9,1.3-1.3c0.3-0.3,0.7-0.5,0.9-0.5c0.4,0,0.7-0.2,1.2,0c0.5,0.2,1.2,0.5,1.9,1.2
						c0.6,0.6,1.4-1.4,1.1-2.3c-0.8-2.7-4.5-2.9-6.5-1.7c-1.2,0.7-2.1,1.8-3,2.9c-1,1.2-1.8,2.4-2.7,3.7c-1.6,2.2-3.8,4-6.2,5.5
						c-1.3,0.8-2.6,1.3-3.8,2.2c-0.3,0.3-0.7,0.6-0.9,1c-0.1,0.2-0.2,0.3-0.3,0.5c0.1-0.1-0.3,0.2-0.1,0.1
						C78,76.7,77.9,77.1,78.1,77.4L78.1,77.4z"/>
				</g>
			</g>
			<g>
				<defs>
					<path id="SVGID_8_" d="M100.1,63.7c-0.3-0.3-0.6-0.6-0.9-0.9c-0.9-0.8-2.1-1.3-3.3-1c-0.8,0.2-1.5,0.8-2,1.3
						c-2.2,2.2-3.9,4.9-6.3,6.9c-0.6,0.5-1.3,1-2,1.6c-0.7,0.6-1.4,1.3-2,2c-1.4,1.4-2.7,2.8-4.1,4.2c-0.2,0.2-0.4,0.5-0.1,0.7
						c0.1,0.1,0.2,0,0.3,0c3.7-0.8,7.3-2.1,10.5-4.1c1.9-1.2,6.3-5,7.4-6.1c1.1-1,2.2-2.1,2.7-3.5c0.1-0.2,0.1-0.4,0.1-0.6
						C100.4,64,100.2,63.9,100.1,63.7z"/>
				</defs>
				<clipPath id="SVGID_9_">
					<use xlink:href="#SVGID_8_"  style="overflow:visible;"/>
				</clipPath>
				<g class="st13">
					<path class="st12" d="M76.1,77.1c0.4,0.9,1.7,0.8,2.5,0.7c0.4-0.1,0.9-0.3,1.3-0.5c0.7-0.3,1.4-0.6,2.1-0.9
						c2.9-1.4,5.5-3.4,7.7-5.6c2.2-2.1,3.6-4.8,5.6-7.1c0.5-0.5,0.9-1,1.4-1.5c0.4-0.3,0.8-0.6,1-0.6c0.5,0,0.8-0.2,1.3,0
						c0.6,0.2,1.3,0.5,2.1,1.4c0.6,0.7,1.5-1.5,1.3-2.5c-0.8-2.9-5-3.3-7.2-1.9c-1.3,0.8-2.3,2-3.3,3.2c-1.1,1.3-2,2.7-3,4
						c-1.8,2.4-4.2,4.5-6.8,6.1c-1.4,0.9-2.9,1.5-4.2,2.5c-0.4,0.3-0.8,0.7-1,1.1c-0.1,0.2-0.2,0.4-0.4,0.6c0.1-0.1-0.3,0.3-0.1,0.1
						C76.1,76.4,76,76.7,76.1,77.1L76.1,77.1z"/>
				</g>
			</g>
			<g>
				<defs>
					<path id="SVGID_10_" d="M100.1,63.7c-0.3-0.3-0.6-0.6-0.9-0.9c-0.9-0.8-2.1-1.3-3.3-1c-0.8,0.2-1.5,0.8-2,1.3
						c-2.2,2.2-3.9,4.9-6.3,6.9c-0.6,0.5-1.3,1-2,1.6c-0.7,0.6-1.4,1.3-2,2c-1.4,1.4-2.7,2.8-4.1,4.2c-0.2,0.2-0.4,0.5-0.1,0.7
						c0.1,0.1,0.2,0,0.3,0c3.7-0.8,7.3-2.1,10.5-4.1c1.9-1.2,6.3-5,7.4-6.1c1.1-1,2.2-2.1,2.7-3.5c0.1-0.2,0.1-0.4,0.1-0.6
						C100.4,64,100.2,63.9,100.1,63.7z"/>
				</defs>
				<clipPath id="SVGID_11_">
					<use xlink:href="#SVGID_10_"  style="overflow:visible;"/>
				</clipPath>
				<g class="st14">
					<path class="st12" d="M75.1,76.5c0.4,0.9,1.7,0.8,2.5,0.7c0.4-0.1,0.9-0.3,1.3-0.5c0.7-0.3,1.4-0.6,2.1-0.9
						c2.9-1.4,5.5-3.4,7.7-5.6c2.2-2.1,3.6-4.8,5.6-7.1c0.5-0.5,0.9-1,1.4-1.5c0.4-0.3,0.8-0.6,1-0.6c0.5,0,0.8-0.2,1.3,0
						c0.6,0.2,1.3,0.5,2.1,1.4c0.6,0.7,1.5-1.5,1.3-2.5c-0.8-2.9-5-3.3-7.2-1.9c-1.3,0.8-2.3,2-3.3,3.2c-1.1,1.3-2,2.7-3,4
						c-1.8,2.4-4.2,4.5-6.8,6.1c-1.4,0.9-2.9,1.5-4.2,2.5c-0.4,0.3-0.8,0.7-1,1.1c-0.1,0.2-0.2,0.4-0.4,0.6c0.1-0.1-0.3,0.3-0.1,0.1
						C75.1,75.8,75,76.2,75.1,76.5L75.1,76.5z"/>
				</g>
			</g>
		</g>
		<g>
			<path class="st15" d="M89,72.8c0.6-0.1,1.1-0.3,1.5-0.8c0.3-0.4-0.2-0.9-0.7-0.7c-0.5,0.3-0.7,0.7-1,1.1
				C88.7,72.6,88.8,72.8,89,72.8L89,72.8z"/>
		</g>
		<g>
			<path class="st15" d="M88.9,71.7c0.3-0.2,0.7-0.3,0.9-0.6c0.1-0.1,0.1-0.3,0.1-0.4c0-0.1-0.1-0.1-0.1-0.1c-0.2-0.1-0.3-0.1-0.4,0
				c-0.3,0.2-0.5,0.6-0.6,0.9C88.6,71.6,88.8,71.7,88.9,71.7L88.9,71.7z"/>
		</g>
		<g>
			<path class="st15" d="M89.5,73.8c2.1-0.9,3.8-2.2,5.4-3.7c0.8-0.8,1.5-1.6,2.3-2.5c0.6-0.7,1.6-1.6,1.8-2.5
				c0.1-0.8-0.6-1.2-1.2-0.8c-0.4,0.3-0.6,0.6-0.8,1c-0.3,0.4-0.7,0.8-1,1.3c-0.7,0.8-1.3,1.7-2,2.4c-1.4,1.6-2.9,3.2-4.5,4.6
				C89.3,73.8,89.4,73.9,89.5,73.8L89.5,73.8z"/>
		</g>
		<g>
			<path class="st15" d="M81.4,77.3c0.7,0.6,1.8-0.2,2.6-0.5s1.5-0.6,2.2-0.9c0.7-0.3,1.5-0.6,2.1-1c0.7-0.5,0-1.4-0.6-0.9
				c-0.5,0.4-1.1,0.6-1.7,0.9c-0.6,0.3-1.3,0.6-1.9,0.9c-0.5,0.2-1,0.5-1.5,0.8C82.2,76.8,81.8,77.1,81.4,77.3
				C81.3,77.3,81.3,77.3,81.4,77.3L81.4,77.3z"/>
		</g>
		<g>
			<path class="st16" d="M96.4,67.6c0.5-0.1,0.9-0.6,1.2-1c0.2-0.3,0.6-0.7,0.6-1.1c0-0.5-0.7-0.6-0.8-0.1c-0.2,0.3-0.3,0.6-0.5,1
				C96.6,66.7,96.2,67.1,96.4,67.6C96.3,67.6,96.4,67.6,96.4,67.6L96.4,67.6z"/>
		</g>
		<g>
			<path class="st16" d="M89.9,72.7c0.1,0,0.1,0,0.1,0c0.1,0,0.1,0,0.2,0c-0.1,0-0.1-0.1-0.2-0.1c0,0,0,0,0,0
				c0.1,0.1,0.3,0.1,0.4-0.1c0,0,0-0.1,0-0.1c0-0.1,0-0.2-0.1-0.3c-0.1-0.1-0.1-0.1-0.1-0.1c-0.1-0.1-0.3,0.1-0.4,0.2v0
				c0,0,0.1-0.1,0.1-0.1c0,0.1-0.1,0.1-0.1,0.1c-0.1,0-0.1,0.1-0.1,0.1C89.8,72.6,89.8,72.7,89.9,72.7L89.9,72.7z"/>
		</g>
	</g>
	<g>
		<g>
			<g>
				<path id="SVGID_1_" class="st10" d="M321.4,78.3c-0.1-0.3-0.3-0.6-0.4-0.9c-0.5-0.8-1.3-1.4-2.3-1.5c-0.7,0-1.3,0.2-1.8,0.6
					c-2.2,1.2-4,2.8-6.3,3.8c-0.6,0.3-1.2,0.5-1.8,0.7c-0.7,0.3-1.3,0.7-2,1c-1.3,0.8-2.7,1.5-4,2.3c-0.2,0.1-0.4,0.3-0.2,0.5
					c0,0.1,0.1,0.1,0.2,0.1c3,0.3,6,0,8.8-0.7c1.7-0.5,5.9-2.4,7-3c1-0.5,2.1-1.1,2.8-2c0.1-0.1,0.2-0.3,0.2-0.4
					C321.6,78.6,321.5,78.4,321.4,78.3z"/>
			</g>
			<g>
				<defs>
					<path id="SVGID_12_" d="M321.4,78.3c-0.1-0.3-0.3-0.6-0.4-0.9c-0.5-0.8-1.3-1.4-2.3-1.5c-0.7,0-1.3,0.2-1.8,0.6
						c-2.2,1.2-4,2.8-6.3,3.8c-0.6,0.3-1.2,0.5-1.8,0.7c-0.7,0.3-1.3,0.7-2,1c-1.3,0.8-2.7,1.5-4,2.3c-0.2,0.1-0.4,0.3-0.2,0.5
						c0,0.1,0.1,0.1,0.2,0.1c3,0.3,6,0,8.8-0.7c1.7-0.5,5.9-2.4,7-3c1-0.5,2.1-1.1,2.8-2c0.1-0.1,0.2-0.3,0.2-0.4
						C321.6,78.6,321.5,78.4,321.4,78.3z"/>
				</defs>
				<clipPath id="SVGID_13_">
					<use xlink:href="#SVGID_12_"  style="overflow:visible;"/>
				</clipPath>
				<g class="st17">
					<path class="st12" d="M301.8,83.8c0.1,0.7,1,0.9,1.5,1c0.3,0,0.7,0,1-0.1c0.5-0.1,1.1-0.1,1.6-0.2c2.2-0.3,4.4-1.2,6.4-2.3
						c1.9-1,3.4-2.5,5.2-3.7c0.4-0.3,0.8-0.5,1.2-0.7c0.3-0.1,0.7-0.2,0.8-0.2c0.3,0.1,0.6,0,0.9,0.2c0.4,0.2,0.8,0.6,1.1,1.3
						c0.3,0.6,1.4-0.7,1.4-1.5c0-2.2-2.7-3.2-4.5-2.7c-1.1,0.3-2,0.9-2.9,1.5c-1,0.7-1.9,1.4-2.9,2.2c-1.7,1.3-3.8,2.2-5.9,2.8
						c-1.1,0.3-2.3,0.4-3.4,0.8c-0.3,0.1-0.7,0.3-0.9,0.5c-0.1,0.1-0.2,0.2-0.3,0.3c0.1,0-0.2,0.1-0.1,0.1
						C301.9,83.2,301.8,83.5,301.8,83.8L301.8,83.8z"/>
				</g>
			</g>
			<g>
				<defs>
					<path id="SVGID_14_" d="M321.4,78.3c-0.1-0.3-0.3-0.6-0.4-0.9c-0.5-0.8-1.3-1.4-2.3-1.5c-0.7,0-1.3,0.2-1.8,0.6
						c-2.2,1.2-4,2.8-6.3,3.8c-0.6,0.3-1.2,0.5-1.8,0.7c-0.7,0.3-1.3,0.7-2,1c-1.3,0.8-2.7,1.5-4,2.3c-0.2,0.1-0.4,0.3-0.2,0.5
						c0,0.1,0.1,0.1,0.2,0.1c3,0.3,6,0,8.8-0.7c1.7-0.5,5.9-2.4,7-3c1-0.5,2.1-1.1,2.8-2c0.1-0.1,0.2-0.3,0.2-0.4
						C321.6,78.6,321.5,78.4,321.4,78.3z"/>
				</defs>
				<clipPath id="SVGID_15_">
					<use xlink:href="#SVGID_14_"  style="overflow:visible;"/>
				</clipPath>
				<g class="st18">
					<path class="st12" d="M300.4,83.1c0.1,0.8,1.1,1,1.7,1.1c0.3,0.1,0.8,0,1.1-0.1c0.6-0.1,1.2-0.1,1.8-0.2
						c2.5-0.4,4.9-1.3,7.1-2.5c2.1-1.1,3.8-2.8,5.8-4.1c0.5-0.3,0.9-0.6,1.4-0.8c0.3-0.1,0.7-0.2,0.9-0.2c0.3,0.1,0.6,0,1,0.3
						c0.4,0.3,0.9,0.7,1.2,1.5c0.3,0.6,1.5-0.8,1.5-1.6c0-2.4-3-3.6-5-3c-1.2,0.3-2.2,1-3.2,1.7c-1.1,0.8-2.1,1.6-3.2,2.4
						c-1.9,1.4-4.2,2.4-6.5,3.1c-1.2,0.3-2.5,0.5-3.7,0.9c-0.3,0.1-0.7,0.4-1,0.6c-0.1,0.1-0.3,0.2-0.4,0.3c0.1,0-0.3,0.1-0.1,0.1
						C300.5,82.5,300.4,82.8,300.4,83.1L300.4,83.1z"/>
				</g>
			</g>
			<g>
				<defs>
					<path id="SVGID_16_" d="M321.4,78.3c-0.1-0.3-0.3-0.6-0.4-0.9c-0.5-0.8-1.3-1.4-2.3-1.5c-0.7,0-1.3,0.2-1.8,0.6
						c-2.2,1.2-4,2.8-6.3,3.8c-0.6,0.3-1.2,0.5-1.8,0.7c-0.7,0.3-1.3,0.7-2,1c-1.3,0.8-2.7,1.5-4,2.3c-0.2,0.1-0.4,0.3-0.2,0.5
						c0,0.1,0.1,0.1,0.2,0.1c3,0.3,6,0,8.8-0.7c1.7-0.5,5.9-2.4,7-3c1-0.5,2.1-1.1,2.8-2c0.1-0.1,0.2-0.3,0.2-0.4
						C321.6,78.6,321.5,78.4,321.4,78.3z"/>
				</defs>
				<clipPath id="SVGID_17_">
					<use xlink:href="#SVGID_16_"  style="overflow:visible;"/>
				</clipPath>
				<g class="st19">
					<path class="st12" d="M299.8,82.4c0.1,0.8,1.1,1,1.7,1.1c0.3,0.1,0.8,0,1.1-0.1c0.6-0.1,1.2-0.1,1.8-0.2
						c2.5-0.4,4.9-1.3,7.1-2.5c2.1-1.1,3.8-2.8,5.8-4.1c0.5-0.3,0.9-0.6,1.4-0.8c0.3-0.1,0.7-0.2,0.9-0.2c0.3,0.1,0.6,0,1,0.3
						c0.4,0.3,0.9,0.7,1.2,1.5c0.3,0.6,1.5-0.8,1.5-1.6c0-2.4-3-3.6-5-3c-1.2,0.3-2.2,1-3.2,1.7c-1.1,0.8-2.1,1.6-3.2,2.4
						c-1.9,1.4-4.2,2.4-6.5,3.1c-1.2,0.3-2.5,0.5-3.7,0.9c-0.3,0.1-0.7,0.4-1,0.6c-0.1,0.1-0.3,0.2-0.4,0.3c0.1,0-0.3,0.1-0.1,0.1
						C299.9,81.9,299.7,82.1,299.8,82.4L299.8,82.4z"/>
				</g>
			</g>
		</g>
		<g>
			<path class="st15" d="M311,82.7c0.5,0.1,0.9,0,1.3-0.3c0.3-0.2,0-0.8-0.3-0.7c-0.4,0.1-0.7,0.4-1,0.6
				C310.9,82.5,310.9,82.7,311,82.7L311,82.7z"/>
		</g>
		<g>
			<path class="st15" d="M311.2,81.8c0.3,0,0.6-0.1,0.8-0.2c0.1-0.1,0.2-0.2,0.1-0.3c0,0,0-0.1-0.1-0.1c-0.1-0.1-0.2-0.1-0.3-0.1
				c-0.3,0.1-0.5,0.3-0.7,0.5C311.1,81.7,311.1,81.8,311.2,81.8L311.2,81.8z"/>
		</g>
		<g>
			<path class="st15" d="M311.2,83.6c1.8-0.2,3.4-0.8,4.9-1.6c0.8-0.4,1.5-0.9,2.3-1.4c0.6-0.4,1.6-0.8,1.9-1.5
				c0.3-0.5-0.2-1.1-0.8-0.9c-0.3,0.1-0.6,0.4-0.8,0.6c-0.3,0.2-0.7,0.5-1,0.7c-0.7,0.5-1.4,1-2,1.4c-1.4,0.9-2.9,1.8-4.5,2.5
				C311,83.5,311.1,83.6,311.2,83.6L311.2,83.6z"/>
		</g>
		<g>
			<path class="st15" d="M304.3,84.4c0.4,0.6,1.4,0.3,2,0.2c0.6-0.1,1.2-0.1,1.8-0.2c0.6-0.1,1.2-0.1,1.8-0.3c0.6-0.2,0.3-1-0.3-0.8
				c-0.4,0.2-1,0.2-1.4,0.3c-0.5,0.1-1.1,0.1-1.6,0.2c-0.4,0.1-0.9,0.1-1.3,0.2C305,84.2,304.6,84.4,304.3,84.4
				C304.3,84.4,304.2,84.4,304.3,84.4L304.3,84.4z"/>
		</g>
		<g>
			<path class="st16" d="M317.8,80.4c0.4,0,0.8-0.3,1.1-0.5c0.2-0.2,0.6-0.4,0.7-0.7c0.1-0.4-0.4-0.6-0.6-0.3
				c-0.2,0.2-0.4,0.4-0.6,0.6C318.2,79.8,317.7,80,317.8,80.4C317.7,80.4,317.8,80.4,317.8,80.4L317.8,80.4z"/>
		</g>
		<g>
			<path class="st16" d="M311.7,82.8C311.8,82.8,311.8,82.8,311.7,82.8c0.1,0.1,0.2,0.1,0.2,0.1C311.9,82.9,311.9,82.8,311.7,82.8
				C311.8,82.8,311.8,82.8,311.7,82.8c0.2,0.2,0.3,0.2,0.4,0.1c0,0,0,0,0-0.1c0-0.1,0-0.2,0-0.2c0,0,0-0.1-0.1-0.1
				c-0.1-0.1-0.3,0-0.3,0.1l0,0c0,0,0.1,0,0.1-0.1c0,0-0.1,0-0.1,0.1C311.8,82.6,311.8,82.7,311.7,82.8
				C311.7,82.7,311.7,82.8,311.7,82.8L311.7,82.8z"/>
		</g>
	</g>
	<g>
		<g>
			<g>
				<path id="SVGID_2_" class="st10" d="M147.2,93.2c0.1,0.2,0.3,0.3,0.5,0.3c1.4,0.6,2.9,0.5,4.4,0.4c1.6-0.1,7.4-0.7,9.5-1.3
					c3.6-1,7.1-2.7,10.1-4.9c0.1-0.1,0.2-0.1,0.2-0.2c0-0.3-0.3-0.4-0.6-0.4c-2,0-3.9,0.1-5.9,0.1c-0.9,0-1.9,0-2.8,0.1
					c-0.8,0.1-1.7,0.3-2.5,0.4c-3.1,0.4-6.2-0.2-9.3-0.1c-0.8,0-1.7,0.1-2.4,0.6c-1,0.6-1.5,1.9-1.5,3.1c0,0.4,0,0.8,0.1,1.2
					C147.1,92.8,147.1,93,147.2,93.2z"/>
			</g>
			<g>
				<defs>
					<path id="SVGID_18_" d="M147.2,93.2c0.1,0.2,0.3,0.3,0.5,0.3c1.4,0.6,2.9,0.5,4.4,0.4c1.6-0.1,7.4-0.7,9.5-1.3
						c3.6-1,7.1-2.7,10.1-4.9c0.1-0.1,0.2-0.1,0.2-0.2c0-0.3-0.3-0.4-0.6-0.4c-2,0-3.9,0.1-5.9,0.1c-0.9,0-1.9,0-2.8,0.1
						c-0.8,0.1-1.7,0.3-2.5,0.4c-3.1,0.4-6.2-0.2-9.3-0.1c-0.8,0-1.7,0.1-2.4,0.6c-1,0.6-1.5,1.9-1.5,3.1c0,0.4,0,0.8,0.1,1.2
						C147.1,92.8,147.1,93,147.2,93.2z"/>
				</defs>
				<clipPath id="SVGID_19_">
					<use xlink:href="#SVGID_18_"  style="overflow:visible;"/>
				</clipPath>
				<g class="st20">
					<path class="st12" d="M172.1,85.9c-0.2-0.4-0.5-0.5-0.8-0.4c0.2-0.1-0.2,0-0.1,0c-0.2,0-0.4-0.1-0.6-0.1
						c-0.4-0.1-0.9-0.1-1.4,0c-1.5,0.2-2.8,0.9-4.2,1.2c-2.6,0.7-5.5,1.1-8.2,0.8c-1.5-0.2-3-0.4-4.5-0.5c-1.4-0.1-2.8-0.2-4.1,0.2
						c-2.3,0.6-4.6,3.6-3.2,5.9c0.5,0.8,2.5,1.6,2.4,0.7c-0.1-1,0.1-1.7,0.4-2.2c0.2-0.5,0.5-0.6,0.8-0.8c0.2-0.1,0.6-0.3,1-0.3
						c0.6-0.1,1.2,0,1.8,0c2.7,0.1,5.4,0.8,8.2,0.7c2.9-0.1,5.8-0.6,8.5-1.7c0.6-0.3,1.3-0.5,1.9-0.8c0.3-0.1,0.8-0.3,1.1-0.5
						C171.6,87.5,172.5,86.7,172.1,85.9L172.1,85.9z"/>
				</g>
			</g>
			<g>
				<defs>
					<path id="SVGID_20_" d="M147.2,93.2c0.1,0.2,0.3,0.3,0.5,0.3c1.4,0.6,2.9,0.5,4.4,0.4c1.6-0.1,7.4-0.7,9.5-1.3
						c3.6-1,7.1-2.7,10.1-4.9c0.1-0.1,0.2-0.1,0.2-0.2c0-0.3-0.3-0.4-0.6-0.4c-2,0-3.9,0.1-5.9,0.1c-0.9,0-1.9,0-2.8,0.1
						c-0.8,0.1-1.7,0.3-2.5,0.4c-3.1,0.4-6.2-0.2-9.3-0.1c-0.8,0-1.7,0.1-2.4,0.6c-1,0.6-1.5,1.9-1.5,3.1c0,0.4,0,0.8,0.1,1.2
						C147.1,92.8,147.1,93,147.2,93.2z"/>
				</defs>
				<clipPath id="SVGID_21_">
					<use xlink:href="#SVGID_20_"  style="overflow:visible;"/>
				</clipPath>
				<g class="st21">
					<path class="st12" d="M173.2,84.2c-0.2-0.4-0.5-0.6-0.9-0.4c0.2-0.1-0.2,0-0.1,0c-0.2,0-0.4-0.1-0.6-0.1
						c-0.4-0.1-1.1-0.1-1.5,0c-1.6,0.3-3.1,1-4.7,1.4c-2.9,0.8-6.1,1.2-9.1,0.8c-1.7-0.2-3.3-0.4-5-0.6c-1.5-0.1-3.1-0.2-4.5,0.2
						c-2.5,0.7-5.1,4-3.5,6.6c0.5,0.9,2.8,1.7,2.7,0.8c-0.1-1.1,0.1-1.9,0.4-2.5c0.2-0.5,0.6-0.6,0.9-0.9c0.2-0.1,0.7-0.3,1.1-0.4
						c0.7,0,1.3,0,2,0c3,0.1,6,0.9,9,0.7c3.2-0.2,6.4-0.7,9.4-1.8c0.7-0.3,1.4-0.6,2.1-0.9c0.4-0.2,0.9-0.3,1.2-0.6
						C172.7,86,173.6,85.2,173.2,84.2L173.2,84.2z"/>
				</g>
			</g>
			<g>
				<defs>
					<path id="SVGID_22_" d="M147.2,93.2c0.1,0.2,0.3,0.3,0.5,0.3c1.4,0.6,2.9,0.5,4.4,0.4c1.6-0.1,7.4-0.7,9.5-1.3
						c3.6-1,7.1-2.7,10.1-4.9c0.1-0.1,0.2-0.1,0.2-0.2c0-0.3-0.3-0.4-0.6-0.4c-2,0-3.9,0.1-5.9,0.1c-0.9,0-1.9,0-2.8,0.1
						c-0.8,0.1-1.7,0.3-2.5,0.4c-3.1,0.4-6.2-0.2-9.3-0.1c-0.8,0-1.7,0.1-2.4,0.6c-1,0.6-1.5,1.9-1.5,3.1c0,0.4,0,0.8,0.1,1.2
						C147.1,92.8,147.1,93,147.2,93.2z"/>
				</defs>
				<clipPath id="SVGID_23_">
					<use xlink:href="#SVGID_22_"  style="overflow:visible;"/>
				</clipPath>
				<g class="st22">
					<path class="st12" d="M173.5,83.1c-0.2-0.4-0.5-0.6-0.9-0.4c0.2-0.1-0.2,0-0.1,0c-0.2,0-0.4-0.1-0.6-0.1
						c-0.4-0.1-1.1-0.1-1.5,0c-1.6,0.3-3.1,1-4.7,1.4c-2.9,0.8-6.1,1.2-9.1,0.8c-1.7-0.2-3.3-0.4-5-0.6c-1.5-0.1-3.1-0.2-4.5,0.2
						c-2.5,0.7-5.1,4-3.5,6.6c0.5,0.9,2.8,1.7,2.7,0.8c-0.1-1.1,0.1-1.9,0.4-2.5c0.2-0.5,0.6-0.6,0.9-0.9c0.2-0.1,0.7-0.3,1.1-0.4
						c0.7,0,1.3,0,2,0c3,0.1,6,0.9,9,0.7c3.2-0.1,6.4-0.7,9.3-1.8c0.7-0.3,1.4-0.6,2.1-0.9c0.4-0.2,0.9-0.3,1.2-0.6
						C172.9,84.9,173.9,84,173.5,83.1L173.5,83.1z"/>
				</g>
			</g>
		</g>
		<g>
			<path class="st15" d="M161.3,90.7c0.1-0.1,0-0.4-0.1-0.4c-0.5-0.1-1-0.2-1.5,0c-0.5,0.1-0.4,0.9,0,0.9
				C160.3,91.3,160.9,91.1,161.3,90.7L161.3,90.7z"/>
		</g>
		<g>
			<path class="st15" d="M160.5,89.8c0.1-0.1,0.1-0.2,0-0.3c-0.3-0.1-0.7-0.2-1.1-0.1c-0.1,0-0.2,0.1-0.3,0.3c0,0.1,0,0.1,0,0.2
				c0.1,0.1,0.2,0.2,0.3,0.2C159.8,90.1,160.2,90,160.5,89.8L160.5,89.8z"/>
		</g>
		<g>
			<path class="st15" d="M161.7,91.8c0.1-0.1,0.1-0.2,0-0.2c-2.1,0.3-4.3,0.2-6.5,0.2c-1,0-2.1-0.1-3.1-0.2
				c-0.5-0.1-1.1-0.1-1.6-0.1c-0.4-0.1-0.8-0.2-1.3-0.1c-0.7,0.1-0.9,1-0.3,1.4c0.8,0.5,2.1,0.4,3,0.4c1.1,0,2.2,0.1,3.3,0
				C157.5,93.1,159.7,92.7,161.7,91.8L161.7,91.8z"/>
		</g>
		<g>
			<path class="st15" d="M169.8,88.2C169.9,88.1,169.8,88.1,169.8,88.2c-0.4,0.2-0.9,0.3-1.3,0.4c-0.5,0.1-1,0.3-1.5,0.6
				c-0.6,0.3-1.3,0.5-1.9,0.8c-0.6,0.2-1.2,0.5-1.8,0.6c-0.8,0.1-0.6,1.2,0.2,1.1c0.7-0.2,1.4-0.5,2.1-0.9c0.7-0.3,1.4-0.7,2.1-1
				C168.5,89.4,169.8,89.1,169.8,88.2L169.8,88.2z"/>
		</g>
		<g>
			<path class="st16" d="M152.5,92.5C152.5,92.5,152.5,92.5,152.5,92.5c-0.2-0.5-0.8-0.4-1.2-0.5c-0.3-0.1-0.7-0.2-1-0.3
				c-0.4-0.2-0.8,0.3-0.5,0.7c0.3,0.3,0.8,0.3,1.2,0.3C151.4,92.8,152.1,92.8,152.5,92.5L152.5,92.5z"/>
		</g>
		<g>
			<path class="st16" d="M160.6,91.2c0,0,0-0.1,0-0.1c-0.1,0-0.1,0-0.2,0c-0.1,0-0.1,0-0.2,0c0,0,0.1,0,0.1,0l0,0
				c-0.1-0.1-0.3,0-0.4,0.1c0,0.1,0,0.1,0,0.1c0,0.1,0.1,0.2,0.1,0.2c0,0,0,0,0.1,0C160.4,91.7,160.5,91.5,160.6,91.2
				C160.5,91.3,160.5,91.3,160.6,91.2c-0.1,0.1-0.1,0.2-0.2,0.2c0-0.1,0.1-0.1,0.1-0.1S160.6,91.3,160.6,91.2L160.6,91.2z"/>
		</g>
	</g>
	<g>
		<g>
			<g>
				<path id="SVGID_4_" class="st10" d="M242.2,50.6c0-0.3,0-0.6,0-0.9c-0.1-0.9-0.6-1.8-1.4-2.2c-0.6-0.3-1.2-0.3-1.8-0.3
					c-2.4,0.1-4.7,0.8-7,0.7c-0.6,0-1.3-0.1-1.9-0.1c-0.7,0-1.4,0-2.1,0.1c-1.5,0.1-3,0.2-4.4,0.3c-0.2,0-0.5,0.1-0.4,0.3
					c0,0.1,0.1,0.1,0.2,0.2c2.5,1.4,5.2,2.5,8,3c1.7,0.3,6.1,0.3,7.3,0.3c1.1,0,2.3-0.1,3.3-0.6c0.1-0.1,0.3-0.2,0.3-0.3
					C242.2,50.9,242.2,50.7,242.2,50.6z"/>
			</g>
			<g>
				<defs>
					<path id="SVGID_24_" d="M242.2,50.6c0-0.3,0-0.6,0-0.9c-0.1-0.9-0.6-1.8-1.4-2.2c-0.6-0.3-1.2-0.3-1.8-0.3
						c-2.4,0.1-4.7,0.8-7,0.7c-0.6,0-1.3-0.1-1.9-0.1c-0.7,0-1.4,0-2.1,0.1c-1.5,0.1-3,0.2-4.4,0.3c-0.2,0-0.5,0.1-0.4,0.3
						c0,0.1,0.1,0.1,0.2,0.2c2.5,1.4,5.2,2.5,8,3c1.7,0.3,6.1,0.3,7.3,0.3c1.1,0,2.3-0.1,3.3-0.6c0.1-0.1,0.3-0.2,0.3-0.3
						C242.2,50.9,242.2,50.7,242.2,50.6z"/>
				</defs>
				<clipPath id="SVGID_25_">
					<use xlink:href="#SVGID_24_"  style="overflow:visible;"/>
				</clipPath>
				<g class="st23">
					<path class="st12" d="M222.9,47.3c-0.2,0.6,0.5,1.2,0.9,1.5c0.2,0.1,0.6,0.2,0.9,0.3c0.5,0.2,1,0.3,1.5,0.5
						c2.1,0.6,4.3,0.8,6.5,0.6c2.1-0.1,4.1-0.8,6.1-1.1c0.5-0.1,0.9-0.1,1.4-0.1c0.3,0,0.7,0.1,0.8,0.2c0.2,0.2,0.5,0.2,0.7,0.6
						c0.2,0.4,0.4,0.9,0.4,1.6c0,0.6,1.5-0.1,1.8-0.7c0.9-1.9-1.1-3.9-2.9-4.2c-1-0.2-2.1,0-3.1,0.1c-1.1,0.2-2.3,0.5-3.4,0.7
						c-2,0.4-4.2,0.4-6.2,0c-1.1-0.2-2.2-0.6-3.3-0.6c-0.3,0-0.7,0-1,0.1c-0.1,0-0.3,0.1-0.4,0.1c0.1,0-0.3,0-0.1,0
						C223.2,46.9,223,47.1,222.9,47.3L222.9,47.3z"/>
				</g>
			</g>
			<g>
				<defs>
					<path id="SVGID_26_" d="M242.2,50.6c0-0.3,0-0.6,0-0.9c-0.1-0.9-0.6-1.8-1.4-2.2c-0.6-0.3-1.2-0.3-1.8-0.3
						c-2.4,0.1-4.7,0.8-7,0.7c-0.6,0-1.3-0.1-1.9-0.1c-0.7,0-1.4,0-2.1,0.1c-1.5,0.1-3,0.2-4.4,0.3c-0.2,0-0.5,0.1-0.4,0.3
						c0,0.1,0.1,0.1,0.2,0.2c2.5,1.4,5.2,2.5,8,3c1.7,0.3,6.1,0.3,7.3,0.3c1.1,0,2.3-0.1,3.3-0.6c0.1-0.1,0.3-0.2,0.3-0.3
						C242.2,50.9,242.2,50.7,242.2,50.6z"/>
				</defs>
				<clipPath id="SVGID_27_">
					<use xlink:href="#SVGID_26_"  style="overflow:visible;"/>
				</clipPath>
				<g class="st24">
					<path class="st12" d="M221.9,46.2c-0.2,0.7,0.5,1.3,1,1.6c0.3,0.2,0.7,0.3,1,0.4c0.6,0.2,1.1,0.4,1.7,0.5
						c2.3,0.7,4.8,0.8,7.2,0.7c2.3-0.1,4.5-0.9,6.7-1.2c0.5-0.1,1-0.1,1.5-0.1c0.4,0,0.7,0.1,0.9,0.2c0.3,0.2,0.5,0.3,0.7,0.6
						c0.2,0.4,0.5,1,0.5,1.8c0,0.7,1.6-0.1,2-0.8c1-2.1-1.2-4.4-3.1-4.7c-1.1-0.2-2.3,0-3.4,0.2c-1.3,0.2-2.5,0.5-3.7,0.8
						c-2.2,0.5-4.6,0.4-6.9,0c-1.2-0.2-2.4-0.6-3.6-0.7c-0.3,0-0.8,0-1.1,0.1c-0.2,0-0.3,0.1-0.5,0.1c0.1,0-0.3,0-0.1,0
						C222.3,45.7,222,45.9,221.9,46.2L221.9,46.2z"/>
				</g>
			</g>
			<g>
				<defs>
					<path id="SVGID_28_" d="M242.2,50.6c0-0.3,0-0.6,0-0.9c-0.1-0.9-0.6-1.8-1.4-2.2c-0.6-0.3-1.2-0.3-1.8-0.3
						c-2.4,0.1-4.7,0.8-7,0.7c-0.6,0-1.3-0.1-1.9-0.1c-0.7,0-1.4,0-2.1,0.1c-1.5,0.1-3,0.2-4.4,0.3c-0.2,0-0.5,0.1-0.4,0.3
						c0,0.1,0.1,0.1,0.2,0.2c2.5,1.4,5.2,2.5,8,3c1.7,0.3,6.1,0.3,7.3,0.3c1.1,0,2.3-0.1,3.3-0.6c0.1-0.1,0.3-0.2,0.3-0.3
						C242.2,50.9,242.2,50.7,242.2,50.6z"/>
				</defs>
				<clipPath id="SVGID_29_">
					<use xlink:href="#SVGID_28_"  style="overflow:visible;"/>
				</clipPath>
				<g class="st25">
					<path class="st12" d="M221.6,45.4c-0.2,0.7,0.5,1.3,1,1.6c0.3,0.2,0.7,0.3,1,0.4c0.6,0.2,1.1,0.4,1.7,0.5
						c2.3,0.7,4.8,0.8,7.2,0.7c2.3-0.1,4.5-0.9,6.7-1.2c0.5-0.1,1-0.1,1.5-0.1c0.4,0,0.7,0.1,0.9,0.2c0.3,0.2,0.5,0.3,0.7,0.6
						c0.2,0.4,0.5,1,0.5,1.8c0,0.7,1.6-0.1,2-0.8c1-2.1-1.2-4.4-3.1-4.7c-1.1-0.2-2.3,0-3.4,0.2c-1.3,0.2-2.5,0.5-3.7,0.8
						c-2.2,0.5-4.6,0.4-6.9,0c-1.2-0.2-2.4-0.6-3.6-0.7c-0.3,0-0.8,0-1.1,0.1c-0.2,0-0.3,0.1-0.5,0.1c0.1,0-0.3,0-0.1,0
						C222,44.9,221.7,45,221.6,45.4L221.6,45.4z"/>
				</g>
			</g>
		</g>
		<g>
			<path class="st15" d="M231.4,50.2c0.4,0.3,0.8,0.4,1.3,0.3c0.4-0.1,0.3-0.6,0-0.7c-0.4-0.1-0.8,0-1.2,0.1
				C231.3,49.9,231.3,50.1,231.4,50.2L231.4,50.2z"/>
		</g>
		<g>
			<path class="st15" d="M231.9,49.5c0.2,0.1,0.6,0.2,0.8,0.1c0.1,0,0.2-0.1,0.2-0.2c0,0,0-0.1,0-0.1c-0.1-0.1-0.1-0.2-0.3-0.2
				c-0.3,0-0.5,0.1-0.8,0.2C231.8,49.3,231.8,49.4,231.9,49.5L231.9,49.5z"/>
		</g>
		<g>
			<path class="st15" d="M231.1,51c1.6,0.6,3.3,0.7,4.9,0.6c0.8,0,1.7-0.2,2.5-0.3c0.7-0.1,1.7-0.1,2.2-0.5c0.4-0.4,0.3-1-0.3-1.1
				c-0.3,0-0.6,0.1-0.9,0.2c-0.4,0.1-0.8,0.1-1.2,0.2c-0.8,0.1-1.6,0.3-2.4,0.4c-1.6,0.2-3.3,0.4-4.9,0.3C231,50.9,231,51,231.1,51
				L231.1,51z"/>
		</g>
		<g>
			<path class="st15" d="M224.8,48.9c0.1,0.7,1.1,0.8,1.7,1c0.6,0.2,1.1,0.4,1.7,0.6c0.5,0.2,1.1,0.4,1.6,0.5
				c0.6,0.1,0.7-0.8,0.1-0.8c-0.4,0-0.9-0.2-1.4-0.3c-0.5-0.1-1-0.3-1.5-0.5c-0.4-0.1-0.8-0.2-1.2-0.3
				C225.5,49.1,225.1,49,224.8,48.9C224.8,48.9,224.7,48.9,224.8,48.9L224.8,48.9z"/>
		</g>
		<g>
			<path class="st16" d="M238.2,50.9c0.3,0.2,0.8,0.1,1.1,0c0.3-0.1,0.7-0.1,0.9-0.3c0.3-0.3-0.1-0.6-0.4-0.5
				c-0.2,0.1-0.5,0.2-0.7,0.3C238.8,50.6,238.3,50.6,238.2,50.9C238.2,50.9,238.2,50.9,238.2,50.9L238.2,50.9z"/>
		</g>
		<g>
			<path class="st16" d="M231.9,50.5C232,50.6,232,50.6,231.9,50.5c0.1,0.1,0.1,0.1,0.1,0.2C232.1,50.7,232,50.6,231.9,50.5
				C232,50.6,232,50.6,231.9,50.5c0.1,0.2,0.2,0.3,0.3,0.2c0,0,0,0,0.1,0c0.1,0,0.1-0.1,0.1-0.2c0-0.1,0-0.1,0-0.1
				c0-0.1-0.2-0.1-0.3-0.1l0,0c0,0,0.1,0,0.1,0c0,0-0.1,0-0.1,0C232,50.4,232,50.4,231.9,50.5C231.9,50.4,231.9,50.5,231.9,50.5
				L231.9,50.5z"/>
		</g>
	</g>
	<g>
		<g>
			<g>
				<path id="SVGID_5_" class="st10" d="M204.5,70.1c0-0.3,0-0.6,0-0.9c-0.1-0.9-0.6-1.8-1.4-2.2c-0.6-0.3-1.2-0.3-1.8-0.3
					c-2.4,0.1-4.7,0.8-7,0.7c-0.6,0-1.3-0.1-1.9-0.1c-0.7,0-1.4,0-2.1,0.1c-1.5,0.1-3,0.2-4.4,0.3c-0.2,0-0.5,0.1-0.4,0.3
					c0,0.1,0.1,0.1,0.2,0.2c2.5,1.4,5.2,2.5,8,3c1.7,0.3,6.1,0.3,7.3,0.3c1.1,0,2.3-0.1,3.3-0.6c0.1-0.1,0.3-0.2,0.3-0.3
					C204.5,70.4,204.5,70.2,204.5,70.1z"/>
			</g>
			<g>
				<defs>
					<path id="SVGID_30_" d="M204.5,70.1c0-0.3,0-0.6,0-0.9c-0.1-0.9-0.6-1.8-1.4-2.2c-0.6-0.3-1.2-0.3-1.8-0.3
						c-2.4,0.1-4.7,0.8-7,0.7c-0.6,0-1.3-0.1-1.9-0.1c-0.7,0-1.4,0-2.1,0.1c-1.5,0.1-3,0.2-4.4,0.3c-0.2,0-0.5,0.1-0.4,0.3
						c0,0.1,0.1,0.1,0.2,0.2c2.5,1.4,5.2,2.5,8,3c1.7,0.3,6.1,0.3,7.3,0.3c1.1,0,2.3-0.1,3.3-0.6c0.1-0.1,0.3-0.2,0.3-0.3
						C204.5,70.4,204.5,70.2,204.5,70.1z"/>
				</defs>
				<clipPath id="SVGID_31_">
					<use xlink:href="#SVGID_30_"  style="overflow:visible;"/>
				</clipPath>
				<g class="st26">
					<path class="st12" d="M185.1,66.8c-0.2,0.6,0.5,1.2,0.9,1.5c0.2,0.1,0.6,0.2,0.9,0.3c0.5,0.2,1,0.3,1.5,0.5
						c2.1,0.6,4.3,0.8,6.5,0.6c2.1-0.1,4.1-0.8,6.1-1.1c0.5-0.1,0.9-0.1,1.4-0.1c0.3,0,0.7,0.1,0.8,0.2c0.2,0.2,0.5,0.2,0.7,0.6
						c0.2,0.4,0.4,0.9,0.4,1.6c0,0.6,1.5-0.1,1.8-0.7c0.9-1.9-1.1-3.9-2.9-4.2c-1-0.2-2.1,0-3.1,0.1c-1.1,0.2-2.3,0.5-3.4,0.7
						c-2,0.4-4.2,0.4-6.2,0c-1.1-0.2-2.2-0.6-3.3-0.6c-0.3,0-0.7,0-1,0.1c-0.1,0-0.3,0.1-0.4,0.1c0.1,0-0.3,0-0.1,0
						C185.4,66.4,185.2,66.5,185.1,66.8L185.1,66.8z"/>
				</g>
			</g>
			<g>
				<defs>
					<path id="SVGID_32_" d="M204.5,70.1c0-0.3,0-0.6,0-0.9c-0.1-0.9-0.6-1.8-1.4-2.2c-0.6-0.3-1.2-0.3-1.8-0.3
						c-2.4,0.1-4.7,0.8-7,0.7c-0.6,0-1.3-0.1-1.9-0.1c-0.7,0-1.4,0-2.1,0.1c-1.5,0.1-3,0.2-4.4,0.3c-0.2,0-0.5,0.1-0.4,0.3
						c0,0.1,0.1,0.1,0.2,0.2c2.5,1.4,5.2,2.5,8,3c1.7,0.3,6.1,0.3,7.3,0.3c1.1,0,2.3-0.1,3.3-0.6c0.1-0.1,0.3-0.2,0.3-0.3
						C204.5,70.4,204.5,70.2,204.5,70.1z"/>
				</defs>
				<clipPath id="SVGID_33_">
					<use xlink:href="#SVGID_32_"  style="overflow:visible;"/>
				</clipPath>
				<g class="st27">
					<path class="st12" d="M184.2,65.6c-0.2,0.7,0.5,1.3,1,1.6c0.3,0.2,0.7,0.3,1,0.4c0.6,0.2,1.1,0.4,1.7,0.5
						c2.3,0.7,4.8,0.8,7.2,0.7c2.3-0.1,4.5-0.9,6.7-1.2c0.5-0.1,1-0.1,1.5-0.1c0.4,0,0.7,0.1,0.9,0.2c0.3,0.2,0.5,0.3,0.7,0.6
						c0.2,0.4,0.5,1,0.5,1.8c0,0.7,1.6-0.1,2-0.8c1-2.1-1.2-4.4-3.1-4.7c-1.1-0.2-2.3,0-3.4,0.2c-1.3,0.2-2.5,0.5-3.7,0.8
						c-2.2,0.5-4.6,0.4-6.9,0c-1.2-0.2-2.4-0.6-3.6-0.7c-0.3,0-0.8,0-1.1,0.1c-0.2,0-0.3,0.1-0.5,0.1c0.1,0-0.3,0-0.1,0
						C184.5,65.2,184.2,65.3,184.2,65.6L184.2,65.6z"/>
				</g>
			</g>
			<g>
				<defs>
					<path id="SVGID_34_" d="M204.5,70.1c0-0.3,0-0.6,0-0.9c-0.1-0.9-0.6-1.8-1.4-2.2c-0.6-0.3-1.2-0.3-1.8-0.3
						c-2.4,0.1-4.7,0.8-7,0.7c-0.6,0-1.3-0.1-1.9-0.1c-0.7,0-1.4,0-2.1,0.1c-1.5,0.1-3,0.2-4.4,0.3c-0.2,0-0.5,0.1-0.4,0.3
						c0,0.1,0.1,0.1,0.2,0.2c2.5,1.4,5.2,2.5,8,3c1.7,0.3,6.1,0.3,7.3,0.3c1.1,0,2.3-0.1,3.3-0.6c0.1-0.1,0.3-0.2,0.3-0.3
						C204.5,70.4,204.5,70.2,204.5,70.1z"/>
				</defs>
				<clipPath id="SVGID_35_">
					<use xlink:href="#SVGID_34_"  style="overflow:visible;"/>
				</clipPath>
				<g class="st28">
					<path class="st12" d="M183.9,64.8c-0.2,0.7,0.5,1.3,1,1.6c0.3,0.2,0.7,0.3,1,0.4c0.6,0.2,1.1,0.4,1.7,0.5
						c2.3,0.7,4.8,0.8,7.2,0.7c2.3-0.1,4.5-0.9,6.7-1.2c0.5-0.1,1-0.1,1.5-0.1c0.4,0,0.7,0.1,0.9,0.2c0.3,0.2,0.5,0.3,0.7,0.6
						c0.2,0.4,0.5,1,0.5,1.8c0,0.7,1.6-0.1,2-0.8c1-2.1-1.2-4.4-3.1-4.7c-1.1-0.2-2.3,0-3.4,0.2c-1.3,0.2-2.5,0.5-3.7,0.8
						c-2.2,0.5-4.6,0.4-6.9,0c-1.2-0.2-2.4-0.6-3.6-0.7c-0.3,0-0.8,0-1.1,0.1c-0.2,0-0.3,0.1-0.5,0.1c0.1,0-0.3,0-0.1,0
						C184.2,64.4,184,64.5,183.9,64.8L183.9,64.8z"/>
				</g>
			</g>
		</g>
		<g>
			<path class="st15" d="M193.6,69.7c0.4,0.3,0.8,0.4,1.3,0.3c0.4-0.1,0.3-0.6,0-0.7c-0.4-0.1-0.8,0-1.2,0.1
				C193.5,69.4,193.5,69.6,193.6,69.7L193.6,69.7z"/>
		</g>
		<g>
			<path class="st15" d="M194.1,68.9c0.2,0.1,0.6,0.2,0.8,0.1c0.1,0,0.2-0.1,0.2-0.2c0,0,0-0.1,0-0.1c-0.1-0.1-0.1-0.2-0.3-0.2
				c-0.3,0-0.5,0.1-0.8,0.2C194,68.8,194,68.9,194.1,68.9L194.1,68.9z"/>
		</g>
		<g>
			<path class="st15" d="M193.4,70.5c1.6,0.6,3.3,0.7,4.9,0.6c0.8,0,1.7-0.2,2.5-0.3c0.7-0.1,1.7-0.1,2.2-0.5c0.4-0.4,0.3-1-0.3-1.1
				c-0.3,0-0.6,0.1-0.9,0.2c-0.4,0.1-0.8,0.1-1.2,0.2c-0.8,0.1-1.6,0.3-2.4,0.4c-1.6,0.2-3.3,0.4-4.9,0.3
				C193.3,70.3,193.3,70.5,193.4,70.5L193.4,70.5z"/>
		</g>
		<g>
			<path class="st15" d="M187,68.4c0.1,0.7,1.1,0.8,1.7,1s1.1,0.4,1.7,0.6c0.5,0.2,1.1,0.4,1.6,0.5c0.6,0.1,0.7-0.8,0.1-0.8
				c-0.4,0-0.9-0.2-1.4-0.3c-0.5-0.1-1-0.3-1.5-0.5c-0.4-0.1-0.8-0.2-1.2-0.3C187.7,68.5,187.3,68.5,187,68.4
				C187,68.3,187,68.3,187,68.4L187,68.4z"/>
		</g>
		<g>
			<path class="st16" d="M200.4,70.4c0.3,0.2,0.8,0.1,1.1,0c0.3-0.1,0.7-0.1,0.9-0.3c0.3-0.3-0.1-0.6-0.4-0.5
				c-0.2,0.1-0.5,0.2-0.7,0.3C201,70,200.5,70,200.4,70.4C200.4,70.3,200.4,70.4,200.4,70.4L200.4,70.4z"/>
		</g>
		<g>
			<path class="st16" d="M194.2,70C194.2,70,194.2,70.1,194.2,70c0.1,0.1,0.1,0.1,0.1,0.2C194.3,70.1,194.3,70.1,194.2,70
				C194.3,70,194.3,70,194.2,70c0.1,0.2,0.2,0.3,0.3,0.2c0,0,0,0,0.1,0c0.1,0,0.1-0.1,0.1-0.2c0-0.1,0-0.1,0-0.1
				c0-0.1-0.2-0.1-0.3-0.1l0,0c0,0,0.1,0,0.1,0c0,0-0.1,0-0.1,0C194.3,69.9,194.2,69.9,194.2,70C194.2,69.9,194.2,70,194.2,70
				L194.2,70z"/>
		</g>
	</g>
</g>
</svg>
