<svg xmlns="http://www.w3.org/2000/svg" xmlns:xlink="http://www.w3.org/1999/xlink" viewBox="0 0 389 157" xmlns:v="https://vecta.io/nano"><g fill="#fddb22"><use xlink:href="#B"/><use xlink:href="#B" x="-25.3" y="15.5"/><path d="M220.2 93.9l-3.5.1c-.8 0-1.3.4-1.3.8v.4c0 .5.6.8 1.3.8l3.5-.1c.8 0 1.3-.4 1.3-.8v-.4c.1-.4-.5-.7-1.3-.8z"/><use xlink:href="#B" x="-75.8" y="9.6"/><path d="M148.4 54.9l-3 .4c-.6.1-1.1-.3-1.1-.8V54c0-.6.5-1 1.1-1.1l3-.4c.6-.1 1.1.3 1.1.8v.5c0 .5-.5 1-1.1 1.1zM98.2 72.3l-3.5.3c-.8 0-1.3-.4-1.5-1.2l-.2-.5c0-.8.4-1.3 1.2-1.5l3.5-.3c.8 0 1.3.4 1.5 1.2l.1.6c.1.7-.4 1.3-1.1 1.4zm134.4-16.1L230 56c-.6-.1-.9-.5-.9-1v-.5c.1-.6.5-.9 1-.9l2.6.2c.6.1.9.5.9 1v.5c0 .5-.5.9-1 .9zm84.9 3.5l-3.5-.2c-.8-.1-1.3-.6-1.3-1.4v-.6c.1-.8.6-1.3 1.4-1.3l3.5.2c.8.1 1.3.6 1.3 1.4v.6c.1.7-.6 1.2-1.4 1.3zM202.9 47.1l-3.3 1.2c-.7.2-1.4-.1-1.7-.8l-.2-.6c-.2-.7.1-1.4.8-1.7l3.3-1.2c.7-.2 1.4.1 1.7.8l.2.6c.2.7-.2 1.4-.8 1.7zm-74.5 11.1l-3.3.8c-.7.1-1.5-.3-1.9-1.1l-.3-.7c-.3-.8-.1-1.5.6-1.7l3.3-.8c.7-.1 1.5.3 1.9 1.1l.3.7c.4.7 0 1.4-.6 1.7zm33.4 24l-3.3.8c-.7.1-1.5-.3-1.9-1.1l-.3-.7c-.3-.8-.1-1.5.6-1.7l3.3-.8c.7-.1 1.5.3 1.9 1.1l.3.7c.4.7 0 1.5-.6 1.7zm87.3 9.5l-3.5-.1c-.8 0-1.3-.6-1.3-1.3v-.6c0-.8.6-1.3 1.3-1.3l3.5.1c.8 0 1.3.6 1.3 1.3v.6c.1.7-.6 1.3-1.3 1.3z"/><use xlink:href="#B" x="82.2" y="15.5"/><use xlink:href="#B" x="82.2" y="-26.2"/><path d="M325 84.8l-3.5-.3c-.8-.1-1.2-.7-1.2-1.4v-.6c.1-.8.7-1.2 1.4-1.2l3.5.3c.8.1 1.2.7 1.2 1.4v.6c0 .7-.7 1.2-1.4 1.2z"/></g><defs ><path id="B" d="M204.9 76.7l-3.3-1.3c-.7-.3-1-1-.8-1.7l.2-.6c.3-.7 1-1 1.7-.8l3.3 1.3c.7.3 1 1 .8 1.7l-.2.6c-.2.7-1 1-1.7.8z"/></defs></svg>