<svg xmlns="http://www.w3.org/2000/svg" xmlns:xlink="http://www.w3.org/1999/xlink" viewBox="0 0 389 157" xmlns:v="https://vecta.io/nano"><style><![CDATA[.P{fill:#d44645}.Q{fill:#f64851}.R{fill:#f6e1e0}.S{fill:#c04041}]]></style><path d="M134.5 90.7c1.7 2.7 4.4 5.7 6 5 2.4-1 8.1-.9 10.6-3 2.9-2.4 1.1-2.7.7-4.5-1.3-3.4-4.6-7.1-5.4-7.3-7 1.2-9.2 3.1-11.6 4.5-.5.2-1.8.8-1.9 1.8-.1.8.7 2 1.6 3.5z" class="P"/><path d="M146.5 92.5c-6 2-5.6.4-6.7-.4" class="Q"/><path d="M137.1 84.9c.3-.3.7-.5 1.1-.6 1.7-.1 1.2-.3 2.1-.8 2.2-.6 2.5 0 3.5-.6 1.3-1.3 1.7-1.3 2.7-.9.5.2 1 .6 1.2 1 .7 1.3 2 3.3 3.3 4.8 1.5 2.6-1.9 2.4-3.1 2.4-2.2 1.9-3.4 1.9-4.7 1.9-2.2.6-2.8-.5-3.4-1.5-.1-1.3-2.1-3.7-2.1-3.7-1.5-.6-1.2-1.2-.6-2z" class="R"/><path d="M133.1 86.9c1.1-1.5 1.6-1.6 2.7-2.1-1 .5.7 2.4.7 2.4s1.3 1.1 3.2 4.6c.7 1 1.1 2.7-.1 3.5-1.8 1-7-7.8-6.5-8.4z" class="S"/><path d="M248.1 96.4c1.3 2.1 3.4 4.5 4.7 3.9 1.9-.8 6.3-.7 8.3-2.4 2.3-1.9.8-2.1.5-3.5-1-2.7-3.6-5.5-4.2-5.7-5.5.9-7.2 2.4-9.1 3.5-.4.1-1.4.6-1.5 1.4 0 .7.6 1.7 1.3 2.8z" class="P"/><path d="M257.5 97.8c-4.7 1.5-4.4.3-5.2-.3" class="Q"/><path d="M250.2 91.9c.2-.2.5-.4.9-.4 1.3 0 .9-.2 1.6-.6 1.8-.4 2 0 2.8-.5 1-1 1.4-1 2.1-.7.4.2.8.4 1 .8.6 1 1.5 2.6 2.6 3.7 1.1 2.1-1.5 1.9-2.4 1.9-1.7 1.5-2.7 1.5-3.7 1.5-1.8.4-2.2-.4-2.7-1.2-.1-1-1.6-2.9-1.6-2.9-1.3-.6-1.1-1-.6-1.6z" class="R"/><path d="M247 93.4c.9-1.2 1.3-1.2 2.1-1.7-.8.4.5 1.9.5 1.9s1 .9 2.5 3.6c.6.8.8 2.1-.1 2.7-1.3.9-5.3-6-5-6.5z" class="S"/><path d="M197.8 85.8c.1 1.7.7 3.6 1.6 3.7 1.3.1 3.9 1.5 5.5 1.1 1.9-.4 1.1-1 1.4-1.9.2-1.9-.4-4.3-.7-4.6-3.5-1.1-4.9-.8-6.4-.7-.3 0-1-.1-1.3.4-.2.4-.2 1.1-.1 2z" class="P"/><path d="M202.9 89.4c-3.2-.5-2.6-1.1-2.9-1.7" class="Q"/><path d="M200.3 83.8c.2-.1.4-.1.6 0 .8.4.6.1 1.1.1 1.2.3 1.2.6 1.7.6.9-.3 1.1-.2 1.4.2.2.2.3.5.3.8 0 .8.1 2 .4 2.9.1 1.5-1.4.7-2 .4-1.4.4-2 .1-2.6-.2-1.2-.3-1.2-.9-1.2-1.5.3-.6-.1-2.2-.1-2.2-.3-.7 0-.9.4-1.1z" class="R"/><path d="M198.1 83.7c.9-.4 1.1-.3 1.7-.4-.6 0-.2 1.2-.2 1.2s.3.8.4 2.9c.1.6-.1 1.5-.9 1.5-1.1.2-1.4-5-1-5.2z" class="S"/><path d="M278.4 51.3c1 1.5 2.5 3.2 3.4 2.8 1.3-.5 4.6-.5 6-1.7 1.6-1.4.6-1.5.4-2.5-.7-1.9-2.6-4-3-4.1-4 .7-5.2 1.7-6.6 2.5-.3.1-1 .5-1.1 1s.4 1.2.9 2z" class="P"/><path d="M285.1 52.3c-3.4 1.1-3.1.2-3.7-.2" class="Q"/><use xlink:href="#B" class="R"/><path d="M277.6 49.2c.6-.8.9-.9 1.5-1.2-.6.3.4 1.3.4 1.3s.7.6 1.8 2.6c.4.5.6 1.5-.1 1.9-1 .7-3.9-4.3-3.6-4.6z" class="S"/><path d="M202.9 42.5c1 1.5 2.5 3.2 3.4 2.8 1.3-.5 4.6-.5 6-1.7 1.6-1.4.6-1.5.4-2.5-.7-1.9-2.6-4-3-4.1-4 .7-5.2 1.7-6.6 2.5-.3.1-1 .5-1.1 1 0 .5.4 1.2.9 2z" class="P"/><path d="M209.7 43.5c-3.4 1.1-3.1.2-3.7-.2" class="Q"/><use xlink:href="#B" x="-75.4" y="-8.8" class="R"/><path d="M202.1 40.4c.6-.8.9-.9 1.5-1.2-.6.3.4 1.3.4 1.3s.7.6 1.8 2.6c.4.5.6 1.5-.1 1.9-.9.7-3.8-4.3-3.6-4.6z" class="S"/><path d="M116.9 52.7c1 1.6 2.6 3.4 3.6 3 1.4-.6 4.8-.6 6.2-1.8 1.7-1.4.6-1.6.4-2.7-.8-2-2.7-4.2-3.2-4.3-4.2.7-5.4 1.8-6.9 2.6-.3.1-1.1.5-1.1 1.1 0 .5.5 1.2 1 2.1z" class="P"/><path d="M124 53.7c-3.5 1.2-3.3.2-3.9-.2" class="Q"/><path d="M118.4 49.3c.2-.2.4-.3.7-.3 1 0 .7-.2 1.2-.5 1.3-.3 1.5 0 2.1-.4.8-.8 1-.7 1.6-.5.3.1.6.3.7.6.4.8 1.2 1.9 2 2.8.9 1.5-1.1 1.4-1.8 1.4-1.3 1.1-2 1.1-2.8 1.1-1.3.3-1.7-.3-2-.9-.1-.8-1.2-2.2-1.2-2.2-1-.4-.8-.7-.5-1.1z" class="R"/><path d="M116.1 50.4c.7-.9 1-.9 1.6-1.3-.6.3.4 1.4.4 1.4s.7.6 1.9 2.7c.4.6.6 1.6-.1 2-1.1.8-4.1-4.4-3.8-4.8z" class="S"/><defs ><path id="B" d="M279.8 48.1c.2-.2.4-.3.6-.3 1 0 .7-.2 1.2-.5 1.3-.3 1.4 0 2-.3.7-.7 1-.7 1.5-.5.3.1.5.3.7.6.4.7 1.1 1.9 1.9 2.7.8 1.5-1 1.4-1.8 1.4-1.2 1.1-1.9 1.1-2.6 1.1-1.3.3-1.6-.3-1.9-.9-.1-.7-1.2-2.1-1.2-2.1-.9-.5-.7-.8-.4-1.2z"/></defs></svg>