<?xml version="1.0" encoding="utf-8"?>
<!-- Generator: Adobe Illustrator 21.0.0, SVG Export Plug-In . SVG Version: 6.00 Build 0)  -->
<svg version="1.1" id="Слой_1" xmlns="http://www.w3.org/2000/svg" xmlns:xlink="http://www.w3.org/1999/xlink" x="0px" y="0px"
	 viewBox="0 0 389 157" style="enable-background:new 0 0 389 157;" xml:space="preserve">
<style type="text/css">
	.st0{fill:#732A13;}
	.st1{fill:#6C151C;}
	.st2{fill:#F6C073;}
	.st3{fill:#F1A12E;}
	.st4{opacity:0.3;fill:#FBE0BA;enable-background:new    ;}
	.st5{fill:#6F4026;}
	.st6{fill:#F6C278;}
	.st7{fill:#F9E2B4;}
</style>
<g id="Layer_1">
	<g>
		
			<ellipse transform="matrix(0.9999 -1.471465e-02 1.471465e-02 0.9999 -1.3413 3.0513)" class="st0" cx="206.7" cy="92.7" rx="175.1" ry="48.7"/>
		
			<ellipse transform="matrix(0.9999 -1.471465e-02 1.471465e-02 0.9999 -1.1821 3.023)" class="st1" cx="204.8" cy="81.8" rx="161" ry="44.8"/>
		
			<ellipse transform="matrix(0.9999 -1.471465e-02 1.471465e-02 0.9999 -1.1192 3.0287)" class="st2" cx="205.3" cy="77.6" rx="158.3" ry="44.6"/>
		
			<ellipse transform="matrix(0.9999 -1.471465e-02 1.471465e-02 0.9999 -1.0199 3.0273)" class="st3" cx="205.2" cy="70.8" rx="145.6" ry="32.3"/>
		
			<ellipse transform="matrix(0.9999 -1.471465e-02 1.471465e-02 0.9999 -1.0407 3.0269)" class="st3" cx="205.2" cy="72.2" rx="139.4" ry="30.9"/>
		<path class="st4" d="M204.7,41.3c-77,1.2-139.2,15.9-138.9,33c0.2,17.1,62.9,30,139.8,28.8c77-1.2,139.1-15.9,138.9-33
			C344.3,53.1,281.7,40.2,204.7,41.3z M76.5,69.4c-0.4-0.1-0.4-0.7-0.3-1c3.1-9,15.9-8,22.9-11.6c0.3-0.2,0.6-0.1,0.8-0.1
			c15.1-4.9,30.3-7.6,46.5-8.6c9-0.5,18.1-0.5,27.1-0.6c5.2-0.1,12.1-0.4,16.1,3.7c0.5,0.6,0,1.5-0.7,1.7
			c-8.1,3.6-17.1,2.4-25.7,3.2c-11,0.9-22.1,2.7-32.9,4.7c-10.9,2-22.2,3.2-32.9,5.9C90.7,68.3,83.3,71.9,76.5,69.4z M180.5,95.1
			c-6.8,1.8-14,1.6-21,1.7c-9,0-18.1-0.2-27.1-0.2c-5.6,0-12.9-0.1-17.3-4.2c-4.5-4.3-9.2-3.7-15-3.7c-4.5,0.1-17.9,0.2-17.1-7.4
			c0.6-5.4,10.5-7.4,14.4-8.4c8-2.1,16.5-3.3,24.8-3.9c3.7-0.2,7.4-0.5,11.2-1.1c0.1-0.1,0.3-0.2,0.4-0.2
			c12.3-2.4,24.7-3.9,37.2-4.5c8.1-0.3,22-1.8,22.4,9.6C193.7,82.5,190.6,92.4,180.5,95.1z M213.6,49.6c7-6.8,18.9-4.7,27.8-5.9
			c0.4-0.1,0.7,0.2,0.8,0.4c6,0,12.1,0.8,18.1,1.4c6.4,0.6,16.7,0.9,21.1,6.6c0.4,0.5,0.1,1.5-0.7,1.7c-13,3.3-25.4-0.8-38.5-0.2
			c-8.7,0.5-20.9,2.9-28.6-2.5C213.1,50.8,213.2,50.1,213.6,49.6z M261.2,84.4c-1.6,4.3-7.6,5.8-11.6,6.5
			c-7.1,1.4-14.6,2.7-21.8,3.4c-7,0.6-12.5-1.2-15.7-7.9c-1.4-3.1-6.7-16-3.6-20.5c0-0.1,0.1-0.3,0.3-0.4c0.4-0.5,1-0.7,1.6-0.8
			c2.1-0.8,4.1-0.6,6.5,0.1c5.2,1.6,10.6,2.5,15.8,4c6.9,2,14.2,4.4,20.9,7.4C256.2,77.4,262.8,80.1,261.2,84.4z M300.8,71.8
			c-4.1,5.6-14.6,4.5-20.5,4c-11.3-0.9-22.4-2.6-33.2-6c-3.6-1.2-18.2-3.6-18.9-8.4c-0.3-2.3,2.4-3.5,5.3-4.1
			c9.4-3.8,19.3,0.1,28.9,0.8c5.4,0.4,10.8,1.3,16.2,2.2C282,60.9,306.4,64.2,300.8,71.8z"/>
		<path class="st5" d="M38.4,89.3c0,0-6.8,2.3-0.1,15.4s86,37.9,160.6,33.4c0,0,51.9,0.3,52.2-3.9c0.3-4.2-19.8-4.5-19.8-4.5
			s-23.6,0.6-33.8,0.6C187.3,130.4,54.6,130.8,38.4,89.3z"/>
		<path class="st6" d="M55.9,69.5c0,0-3.4-0.2-6.2,6.4c-2.8,6.7,7.9,22.9,54.9,33.4s115.1,13,150.4,6.9s18.2-15,0.9-12.8
			c-17.2,2.2-17.2,2.2-17.2,2.2s-85.8,2.2-128.8-6.1C69.2,91.5,55.2,86.5,55.9,69.5z"/>
	</g>
</g>
<g id="Слой_3">
	<path class="st7" d="M143.8,45.3c0,0,46.5-2.1,75.9-1.4c19.2,0.2,41.2-3.1,77.2,5.1c17.5,3.8,28.6,7.4,34.5,10.6
		c3.6,1.9,6,5.6,5.9,9.6c-0.1,6.1-6.3,15.6-56.8,26c-49.7,4.9-55.4,4.6-77.4,3.7c-24.5,0.9-52.3,3.2-76.1-2.5
		C100.1,90.8,58.3,83,70.9,71C78.9,64.2,89.1,53.6,143.8,45.3z"/>
</g>
</svg>
