<svg xmlns="http://www.w3.org/2000/svg" xmlns:xlink="http://www.w3.org/1999/xlink" viewBox="0 0 389 157" xmlns:v="https://vecta.io/nano"><style><![CDATA[.O{fill:#5d9340}.P{fill:#9ecd68}.Q{fill:#d0e7c2}.R{fill:#b6d99b}]]></style><path d="M236.5 88.1c1.6 2.4.5 5.8-2.3 7.3-1.3.7-2.9 1.2-4.4 1.3-1.9.1-3.7-.1-5.2-.9-1.7-.9-3.2-3.4-2.2-5.3.6-1.1 1.7-2.7 3-3.3 2.1-1.1 4.6-1.7 6.8-1.6 1.6.1 3.3 1.1 4.3 2.5z" class="O"/><path d="M237.1 90.7c-.1 3.8-4 5.6-7.6 5.8-1.7.1-3.6-.1-4.9-1-2.2-1.5-3.4-3.9-1.3-6.4 1.7-2 4.8-3.2 7.4-3.4 3.2-.2 6.4 1.8 6.4 5z" class="P"/><path d="M236.5 89.6c.1.5.2 1.3 0 1.9-.4 1.4-1.5 2.6-2.8 3.5-2.2 1.4-6.4 1.6-8.7.6-.8-.3-1.5-1.1-1.9-1.8-.6-1-.6-2.4-.2-3.6.8-2.2 4.5-3.2 6.6-3.4 2.9-.4 6.3-.2 7 2.8z" class="Q"/><path d="M233.7 89.2c-.1-.3-.3-.7-.5-.9-.1-.2-.4-.2-.6-.1-.3.1-.4.4-.3.6.1.4.4.7.7.9.4.3.8-.1.7-.5h0zm-.2 1.2c-.3.2-.4.6-.5.9-.1.4-.1.8-.1 1.1 0 .6 1 .6 1.2.1.1-.3.1-.6.1-1 0-.3.1-.6 0-.9-.1-.2-.4-.4-.7-.2h0zm-1.3-.3v-.4c0-.2-.2-.4-.3-.5-.3-.3-.7-.5-1.2-.4-.4.1-.5.7-.1.8l.6.3c.1.1.2.1.2.2.1.1.2.1.3.2.2 0 .5-.1.5-.2h0zm-.4.8c-.5.1-.8.6-.9 1-.1.3-.2.9.2 1.1.1.1.3.1.4 0 .3-.2.3-.6.4-.8 0-.1 0-.3.1-.4s.2-.2.2-.4c.1-.4-.1-.6-.4-.5h0zm-1.1-.4c0-.3-.4-.7-.7-.9-.2-.2-.7-.5-.9-.2-.5.4.6 1.4 1 1.5.3.2.6-.1.6-.4h0zm-.6 1.1c-.3 0-.8.1-.9.3-.2.3-.1.5.3.6.3 0 .7-.2.9-.5 0-.2-.1-.4-.3-.4h0zm-1.2-.9c.1-.4-.1-.7-.4-1s-.6-.6-1.2-.5c-.3.1-.4.4-.4.6 0 .4.4.5.7.7.2.2.5.4.8.4.2.1.4 0 .5-.2h0zm-.7 1c-.6-.2-1.6.4-1.6 1.1 0 .2.3.4.5.4.3 0 .6-.2.7-.5.2-.2.3-.4.4-.7.2-.1.1-.2 0-.3h0zm-1.6-.5h-.6a1.08 1.08 0 0 0-.7.3c-.2.2-.1.5.2.6.2.1.5 0 .6-.1s.3-.2.5-.3c.2-.2.2-.5 0-.5h0z" class="R"/><path d="M140.7 85.8c1.8 2.8.8 6.5-2 8.1-1.3.7-2.9 1.2-4.4 1.2-1.9.1-3.8-.3-5.4-1.3-1.8-1-3.4-3.9-2.5-6 .5-1.2 1.6-3 2.9-3.6 2.1-1.1 4.6-1.7 6.9-1.4 1.7.2 3.5 1.4 4.5 3z" class="O"/><path d="M141.5 88.8c.1 4.2-3.8 6-7.5 6.1-1.7 0-3.6-.3-5.1-1.3-2.4-1.8-3.7-4.6-1.7-7.2 1.6-2.2 4.7-3.3 7.4-3.4 3.4-.2 6.8 2.1 6.9 5.8z" class="P"/><use xlink:href="#B" class="Q"/><path d="M138 87c-.1-.4-.3-.7-.5-1.1-.1-.2-.4-.2-.6-.2-.3.1-.4.4-.3.7.1.4.5.8.8 1 .3.3.7-.1.6-.4h0zm-.2 1.3c-.3.3-.4.6-.5 1s-.1.8-.1 1.2c0 .6 1 .7 1.2.2.1-.3.1-.7.1-1.1v-1c0-.4-.4-.6-.7-.3h0zm-1.3-.5v-.5c0-.2-.2-.5-.3-.6-.3-.4-.7-.6-1.2-.5-.4.1-.4.7-.1.9l.6.3c.1.1.2.1.3.2s.3.1.3.2c.1.3.4.2.4 0h0zm-.4.9c-.5 0-.7.6-.9 1-.1.4-.1 1 .3 1.3.1.1.3.1.4 0 .3-.2.3-.6.3-.9 0-.1 0-.3.1-.4.1-.2.2-.2.2-.4.1-.4-.1-.7-.4-.6h0zm-1.1-.5c0-.4-.5-.8-.7-1s-.7-.5-1-.3c-.5.4.6 1.6 1.1 1.8.3.2.6-.1.6-.5h0zm-.6 1.1c-.3-.1-.8 0-1 .3s0 .6.3.7.7-.2.9-.5c.2-.1 0-.4-.2-.5h0zm-1.3-.9c.1-.4-.1-.8-.4-1.1-.3-.4-.7-.7-1.2-.6-.3.1-.4.4-.4.6 0 .4.4.6.7.8.2.2.5.5.8.5s.5 0 .5-.2h0zm-.7 1.1c-.7-.3-1.6.4-1.5 1.1 0 .3.3.5.6.4.3 0 .6-.2.7-.5.2-.2.3-.4.4-.7 0-.2-.1-.3-.2-.3h0zm-1.6-.8c-.2-.1-.4-.1-.6-.1a1.08 1.08 0 0 0-.7.3c-.2.2 0 .5.2.6s.5 0 .6-.1.3-.2.5-.3c.2 0 .2-.3 0-.4h0z" class="R"/><use xlink:href="#C" class="O"/><use xlink:href="#D" class="P"/><use xlink:href="#E" class="Q"/><g class="R"><path d="M138.9 48.9l-.3-.6c-.1-.1-.2-.1-.4-.1-.2.1-.2.2-.2.4.1.2.3.4.5.6.2.1.5-.1.4-.3h0zm-.1.7c-.2.2-.2.4-.3.6 0 .2-.1.5 0 .7 0 .4.6.4.7.1.1-.2 0-.4 0-.6v-.6c0-.2-.3-.3-.4-.2h0z"/><use xlink:href="#F"/><use xlink:href="#G"/><path d="M137.1 49.6c0-.2-.3-.5-.4-.6s-.4-.3-.6-.2c-.3.3.4 1 .6 1 .2.2.4 0 .4-.2h0zm-.4.7c-.2 0-.5 0-.6.2s0 .4.2.4a.55.55 0 0 0 .5-.3c.2-.1.1-.3-.1-.3h0zm-.7-.6c.1-.3-.1-.5-.3-.7s-.4-.4-.7-.3c-.2 0-.2.2-.2.4s.2.3.4.5c.1.1.3.3.5.3s.3-.1.3-.2h0zm-.4.6c-.4-.2-1 .2-.9.7 0 .2.2.3.3.3.2 0 .3-.1.4-.3a.76.76 0 0 0 .2-.4c.1-.2.1-.2 0-.3h0z"/><path d="M134.6 49.9h-.3a.76.76 0 0 0-.4.2c-.1.1 0 .3.1.4s.3 0 .4 0 .2-.1.3-.2c.1-.2.1-.3-.1-.4h0z"/></g><use xlink:href="#C" x="40.2" y="16.5" class="O"/><use xlink:href="#D" x="40.2" y="16.5" class="P"/><use xlink:href="#E" x="40.2" y="16.5" class="Q"/><g class="R"><path d="M179.1 65.4l-.3-.6c-.1-.1-.2-.1-.4-.1-.2.1-.2.2-.2.4.1.2.3.4.5.6.2.1.5-.1.4-.3h0zm-.1.7c-.2.2-.2.4-.3.6 0 .2-.1.5 0 .7 0 .4.6.4.7.1.1-.2 0-.4 0-.6v-.6c0-.2-.3-.3-.4-.2h0z"/><use xlink:href="#F" x="40.2" y="16.5"/><use xlink:href="#G" x="40.2" y="16.5"/><path d="M177.3 66.1c0-.2-.3-.5-.4-.6s-.4-.3-.6-.2c-.3.3.4 1 .6 1 .2.2.4 0 .4-.2h0zm-.4.7c-.2 0-.5 0-.6.2s0 .4.2.4a.55.55 0 0 0 .5-.3c.2-.1.1-.3-.1-.3h0zm-.7-.6c.1-.3-.1-.5-.3-.7s-.4-.4-.7-.3c-.2 0-.2.2-.2.4s.2.3.4.5c.1.1.3.3.5.3s.3-.1.3-.2h0zm-.4.6c-.4-.2-1 .2-.9.7 0 .2.2.3.3.3.2 0 .3-.1.4-.3a.76.76 0 0 0 .2-.4c.1-.2.1-.2 0-.3h0z"/><path d="M174.8 66.4h-.3a.76.76 0 0 0-.4.2c-.1.1 0 .3.1.4s.3 0 .4 0 .2-.1.3-.2c.1-.2.1-.3-.1-.4h0z"/></g><path d="M299.1 80.4c1.8 2.8.8 6.5-2 8.1-1.3.7-2.9 1.2-4.4 1.2-1.9.1-3.8-.3-5.4-1.3-1.8-1-3.4-3.9-2.5-6 .5-1.2 1.6-3 2.9-3.6 2.1-1.1 4.6-1.7 6.9-1.4 1.7.1 3.4 1.4 4.5 3z" class="O"/><path d="M299.8 83.3c.1 4.2-3.8 6-7.5 6.1-1.7 0-3.6-.3-5.1-1.3-2.4-1.8-3.7-4.6-1.7-7.2 1.6-2.2 4.7-3.3 7.4-3.4 3.5-.1 6.8 2.2 6.9 5.8z" class="P"/><use xlink:href="#B" x="158.4" y="-5.4" class="Q"/><g class="R"><path d="M296.4 81.5c-.1-.4-.3-.7-.5-1.1-.1-.2-.4-.2-.6-.2-.3.1-.4.4-.3.7.1.4.5.8.8 1 .3.4.7 0 .6-.4h0zm-.2 1.3c-.3.3-.4.6-.5 1s-.1.8-.1 1.2c0 .6 1 .7 1.2.2.1-.3.1-.7.1-1.1v-1c-.1-.3-.5-.5-.7-.3h0zm-1.3-.4v-.5c0-.2-.2-.5-.3-.6-.3-.4-.7-.6-1.2-.5-.4.1-.4.7-.1.9l.6.3c.1.1.2.1.3.2s.3.1.3.2c.1.3.4.1.4 0h0zm-.5.8c-.5 0-.7.6-.9 1-.1.4-.1 1 .3 1.3.1.1.3.1.4 0 .3-.2.3-.6.3-.9 0-.1 0-.3.1-.4.1-.2.2-.2.2-.4.2-.3 0-.6-.4-.6h0z"/><path d="M293.3 82.8c0-.4-.5-.8-.7-1s-.7-.5-1-.3c-.5.4.6 1.6 1.1 1.8.4.1.7-.2.6-.5h0zm-.6 1.1c-.3-.1-.8 0-1 .3s0 .6.3.7.7-.2.9-.5c.2-.1.1-.4-.2-.5h0zm-1.2-1c.1-.4-.1-.8-.4-1.1-.3-.4-.7-.7-1.2-.6-.3.1-.4.4-.4.6 0 .4.4.6.7.8.2.2.5.5.8.5.2.1.4 0 .5-.2h0zm-.7 1.1c-.7-.3-1.6.4-1.5 1.1 0 .3.3.5.6.4.3 0 .6-.2.7-.5.2-.2.3-.4.4-.7 0-.1-.1-.2-.2-.3h0zm-1.7-.7c-.2-.1-.4-.1-.6-.1a1.08 1.08 0 0 0-.7.3c-.2.2 0 .5.2.6s.5 0 .6-.1.3-.2.5-.3c.3 0 .3-.3 0-.4h0z"/></g><path d="M239.3 46.4c1.5 2.3.7 5.4-1.7 6.8-1.1.6-2.4 1-3.7 1-1.6 0-3.2-.2-4.5-1.1-1.5-.9-2.9-3.3-2.1-5 .4-1 1.4-2.5 2.4-3 1.7-.9 3.8-1.4 5.8-1.2 1.4.1 2.9 1.1 3.8 2.5z" class="O"/><path d="M239.9 48.9c.1 3.5-3.2 5.1-6.3 5.2-1.5 0-3.1-.2-4.2-1.1-2-1.5-3.1-3.8-1.4-6.1 1.4-1.8 3.9-2.8 6.2-2.9 2.8-.1 5.6 1.8 5.7 4.9z" class="P"/><path d="M239.3 47.8c.1.5.2 1.2.1 1.7-.3 1.3-1.2 2.4-2.2 3.1-1.8 1.2-5.4 1.3-7.4.2-.7-.4-1.3-1.1-1.7-1.8-.5-1-.6-2.3-.3-3.3.6-2.1 3.7-2.8 5.5-2.9 2.4-.2 5.3.2 6 3z" class="Q"/><path d="M237 47.4c-.1-.3-.3-.6-.5-.9-.1-.2-.3-.2-.5-.1s-.3.3-.2.6.4.6.7.9c.2.1.6-.2.5-.5h0zm-.2 1.1c-.3.2-.3.5-.4.8s-.1.7 0 1c0 .5.9.6 1 .1.1-.3.1-.6.1-.9v-.8c-.2-.3-.5-.4-.7-.2h0zm-1.1-.4v-.4c0-.2-.2-.4-.3-.5-.2-.3-.6-.5-1-.4-.3.1-.4.6-.1.8.2.1.4.2.5.3s.2.1.2.2c.1.1.2.1.3.2.2 0 .4-.1.4-.2h0zm-.3.7c-.4 0-.6.5-.7.9-.1.3-.1.9.2 1.1.1.1.2.1.3 0 .2-.2.2-.5.3-.8 0-.1 0-.3.1-.4s.2-.2.2-.4-.2-.5-.4-.4h0zm-1-.4c0-.3-.4-.6-.6-.8s-.6-.5-.8-.3c-.4.4.5 1.4.9 1.5.3.2.5-.1.5-.4h0zm-.5 1c-.3-.1-.7 0-.8.3-.1.2 0 .5.2.6s.6-.2.7-.4c.2-.2.1-.5-.1-.5h0zm-1-.8c.1-.4-.1-.7-.4-.9-.3-.3-.6-.6-1-.5a.55.55 0 0 0-.3.5c0 .3.3.5.6.7.2.2.4.4.7.4a.76.76 0 0 0 .4-.2h0zm-.6.9c-.6-.3-1.4.3-1.3.9 0 .2.3.4.5.4.3 0 .5-.2.6-.4.2-.2.3-.4.3-.6.1-.2 0-.3-.1-.3h0zm-1.4-.6c-.1-.1-.3 0-.5 0s-.4.1-.6.2c-.2.2 0 .4.2.5s.4 0 .5-.1a.76.76 0 0 1 .4-.2c.2-.1.2-.4 0-.4h0z" class="R"/><defs ><path id="B" d="M140.8 87.4c.2.6.3 1.5.1 2.1-.4 1.5-1.4 2.9-2.6 3.7-2.2 1.5-6.5 1.5-8.8.3-.9-.4-1.6-1.3-2-2.1-.6-1.2-.7-2.7-.4-4 .7-2.4 4.5-3.3 6.6-3.5 2.8-.2 6.2.2 7.1 3.5z"/><path id="C" d="M140.5 48.2c1.1 1.6.5 3.8-1.2 4.8-.8.4-1.7.7-2.6.7-1.1 0-2.2-.2-3.2-.7-1.1-.6-2-2.3-1.5-3.5.3-.7 1-1.7 1.7-2.1 1.2-.6 2.7-1 4.1-.8 1-.1 2.1.6 2.7 1.6z"/><path id="D" d="M140.9 49.9c0 2.5-2.2 3.6-4.4 3.6-1 0-2.2-.2-3-.8-1.4-1.1-2.2-2.7-1-4.2 1-1.3 2.8-2 4.3-2 2.1-.1 4.1 1.3 4.1 3.4z"/><path id="E" d="M140.5 49.2c.1.4.2.9.1 1.2-.2.9-.8 1.7-1.6 2.2-1.3.9-3.8.9-5.2.2-.5-.3-.9-.8-1.2-1.2-.4-.7-.4-1.6-.2-2.3.4-1.4 2.6-2 3.9-2.1 1.7-.3 3.7 0 4.2 2z"/><path id="F" d="M138 49.4v-.3a.76.76 0 0 0-.2-.4c-.2-.2-.4-.3-.7-.3-.2.1-.3.4-.1.5.1.1.2.1.4.2.1 0 .1.1.2.1 0 .1.1.1.2.1 0 .2.2.2.2.1h0z"/><path id="G" d="M137.8 49.9c-.3 0-.4.4-.5.6s-.1.6.1.8c.1 0 .2.1.2 0 .1-.1.2-.4.2-.5s0-.2.1-.3c0-.1.1-.1.1-.2.1-.3-.1-.5-.2-.4h0z"/></defs></svg>