<?xml version="1.0" encoding="utf-8"?>
<!-- Generator: Adobe Illustrator 21.0.0, SVG Export Plug-In . SVG Version: 6.00 Build 0)  -->
<svg version="1.1" xmlns="http://www.w3.org/2000/svg" xmlns:xlink="http://www.w3.org/1999/xlink" x="0px" y="0px"
	 viewBox="0 0 389 157" style="enable-background:new 0 0 389 157;" xml:space="preserve">
<style type="text/css">
	.st0{display:none;}
	.st1{display:inline;}
	.st2{fill:#732A13;}
	.st3{fill:#6C151C;}
	.st4{fill:#F6C073;}
	.st5{fill:#F1A12E;}
	.st6{opacity:0.3;fill:#FBE0BA;enable-background:new    ;}
	.st7{fill:#6F4026;}
	.st8{fill:#F6C278;}
	.st9{fill:#AB1717;}
	.st10{fill:#FFF6D7;}
	.st11{fill:#85A09B;}
	.st12{fill:#F5E0A9;}
	.st13{fill:#9EBDB5;}
	.st14{fill:#EFDDAD;}
</style>
<g id="Слой_1" class="st0">
	<g id="Layer_1" class="st1">
		<g>
			
				<ellipse transform="matrix(0.9998 -1.910948e-02 1.910948e-02 0.9998 -1.7337 3.9668)" class="st2" cx="206.7" cy="92.7" rx="175.1" ry="48.7"/>
			
				<ellipse transform="matrix(0.9998 -1.911576e-02 1.911576e-02 0.9998 -1.5262 3.9298)" class="st3" cx="204.8" cy="81.8" rx="161" ry="44.8"/>
			
				<ellipse transform="matrix(0.9998 -1.911913e-02 1.911913e-02 0.9998 -1.4442 3.9373)" class="st4" cx="205.2" cy="77.5" rx="158.3" ry="44.6"/>
			
				<ellipse transform="matrix(0.9998 -1.910377e-02 1.910377e-02 0.9998 -1.317 3.9311)" class="st5" cx="205.1" cy="70.9" rx="145.6" ry="32.3"/>
			
				<ellipse transform="matrix(0.9998 -1.911114e-02 1.911114e-02 0.9998 -1.3424 3.9328)" class="st5" cx="205.1" cy="72.2" rx="139.4" ry="30.9"/>
			<path class="st6" d="M204.5,41.3c-77,1.5-139.1,16.5-138.8,33.6s63,29.7,140,28.3c77-1.5,139.1-16.5,138.8-33.6
				S281.5,39.9,204.5,41.3z M76.5,69.9c-0.4-0.2-0.5-0.7-0.3-1.1c3.1-9.1,15.8-8,22.9-11.7c0.3-0.2,0.6-0.2,0.8-0.1
				c15-5,30.2-7.7,46.5-8.8c9-0.6,18.1-0.6,27.1-0.7c5.3-0.1,12.1-0.5,16.1,3.6c0.6,0.6-0.1,1.5-0.7,1.7c-8,3.7-17.1,2.5-25.7,3.3
				c-11,1-22.1,2.7-32.9,4.8c-10.9,2.1-22.2,3.3-33,6.1C90.6,68.8,83.3,72.4,76.5,69.9z M180.5,95.3c-6.8,1.8-14,1.7-21,1.7
				c-9.1,0-18.1-0.1-27.2,0c-5.6,0-12.9,0-17.3-4.1c-4.6-4.3-9.2-3.7-15-3.6c-4.6,0-17.9,0.3-17.1-7.4c0.6-5.4,10.5-7.5,14.4-8.5
				c8.1-2.1,16.5-3.3,24.8-4c3.8-0.3,7.4-0.5,11.1-1.1c0.1-0.1,0.3-0.2,0.4-0.2c12.3-2.4,24.7-4,37.2-4.6c8.1-0.4,22-1.8,22.4,9.6
				C193.7,82.5,190.7,92.5,180.5,95.3z M213.5,49.7c7-6.9,18.9-4.7,27.8-6c0.5-0.1,0.7,0.1,0.8,0.4c6,0,12.1,0.7,18.1,1.3
				c6.4,0.6,16.7,0.8,21.1,6.5c0.4,0.6,0.1,1.6-0.7,1.7c-12.9,3.4-25.5-0.7-38.5,0c-8.7,0.5-20.9,2.9-28.6-2.4
				C213,50.8,213,50.1,213.5,49.7z M261.1,84.1c-1.6,4.3-7.6,5.8-11.6,6.6c-7.1,1.4-14.7,2.8-21.8,3.4c-7,0.6-12.6-1.2-15.8-7.8
				c-1.4-3-6.8-16-3.7-20.4c0.1-0.1,0.2-0.3,0.3-0.4c0.4-0.4,0.9-0.7,1.6-0.9c2-0.8,4.1-0.6,6.5,0.2c5.2,1.6,10.6,2.4,15.9,3.9
				c7,1.9,14.2,4.3,20.9,7.3C256.2,77.1,262.7,79.8,261.1,84.1z M300.7,71.4c-4.1,5.6-14.6,4.6-20.5,4.1
				c-11.3-0.9-22.3-2.5-33.2-5.8c-3.7-1.1-18.2-3.5-18.9-8.4c-0.3-2.3,2.3-3.5,5.3-4.1c9.4-3.8,19.3,0,28.9,0.7
				c5.4,0.4,10.9,1.2,16.2,2.1C281.8,60.5,306.3,63.8,300.7,71.4z"/>
			<path class="st7" d="M38.5,90c0,0-6.8,2.4-0.1,15.3s86.2,37.6,160.7,32.7c0,0,51.9,0,52.2-4.1s-19.8-4.3-19.8-4.3
				s-23.5,0.7-33.8,0.8C187.5,130.4,54.8,131.5,38.5,90z"/>
			<path class="st8" d="M55.9,70.2c0,0-3.4-0.2-6.1,6.4c-2.7,6.6,7.9,22.9,55,33.2c47,10.3,115.1,12.6,150.4,6.2s18.1-15.1,0.9-12.8
				c-17.2,2.3-17.2,2.3-17.2,2.3S153,108.1,110,99.9C69.2,92.2,55.1,87.1,55.9,70.2z"/>
		</g>
	</g>
	<g id="Слой_3" class="st1">
		<path class="st9" d="M145.6,45.9c0,0,46.5-2,75.9-1.5c19.1,0.2,41.2-3.1,77.1,5.1c17.5,3.8,28.6,7.5,34.6,10.6
			c3.6,1.9,6,5.6,5.9,9.7c-0.1,6.2-6.3,15.6-56.8,26c-49.7,4.8-55.4,4.6-77.4,3.8c-24.5,0.9-52.2,3.2-76.1-2.4
			c-26.9-5.6-68.6-13.4-56.1-25.5C80.6,64.8,90.8,54.2,145.6,45.9z"/>
	</g>
</g>
<g id="Слой_2">
	<g>
		<path class="st10" d="M240.1,51c-0.1,0-0.2-0.1-0.4-0.1c0,0.2-0.1,0.4-0.2,0.6c-0.3,0.2-0.9,0-1.2-0.4c-0.1-0.2-0.2-0.4-0.3-0.6
			c-2.7-0.7-5.6-1.5-5.6-1.5s-1.4-0.6-2.6,1.9c-1.2,2.5-0.6,1.3-0.6,1.3s-0.5,0.9-0.9,2.1c0,0,0,0,0.1,0.1c0.2,0.3,0.2,0.6,0,0.7
			c-0.1,0.1-0.2,0.1-0.3,0c-0.3,1.3-0.7,3.1,0.2,3.6c1.5,0.8,12.2,3.2,13.3,2.8c0.1-0.4,0.2-1.1,0.4-2c-0.3-0.4-0.3-0.9,0-1.1
			c0.1,0,0.1-0.1,0.2-0.1c0.3-2.5,0.6-5.5,0.6-5.5S243,51.8,240.1,51z"/>
		<path class="st11" d="M229,56.1c0-0.2,0.5-0.4,1.1-0.2c0.7,0.1,1.2,0.4,1.3,0.7c0,0.2-0.5,0.4-1.1,0.2
			C229.7,56.7,229.1,56.4,229,56.1z"/>
		<path class="st11" d="M235.5,50.5c0-0.2,0.4-0.3,0.9-0.2s1,0.4,1,0.6c0,0.2-0.4,0.3-0.9,0.2S235.6,50.7,235.5,50.5z"/>
		<path class="st11" d="M231.9,51c0.2-0.5,0.6-0.7,0.8-0.5c0.2,0.2,0.2,0.7,0,1.1c-0.2,0.5-0.6,0.7-0.8,0.5
			C231.7,51.9,231.7,51.4,231.9,51z"/>
		<path class="st11" d="M234.7,58.3c0-0.1,0.5,0,1.1,0.3c0.6,0.3,1.1,0.6,1.1,0.7c0,0.1-0.5,0-1.1-0.3
			C235.2,58.7,234.7,58.4,234.7,58.3z"/>
		<path class="st11" d="M240.3,52.9c0-0.3,0.3-0.5,0.7-0.3s0.8,0.5,0.8,0.8c0,0.3-0.3,0.5-0.7,0.3S240.3,53.2,240.3,52.9z"/>
		<path class="st11" d="M233.5,51.4c0.1-0.4,0.3-0.5,0.6-0.4c0.3,0.1,0.4,0.6,0.4,0.9c-0.1,0.4-0.3,0.5-0.6,0.4
			C233.6,52.2,233.4,51.8,233.5,51.4z"/>
		<path class="st11" d="M235.8,55c-0.1-0.2,0.1-0.4,0.4-0.5c0.3,0,0.6,0.1,0.7,0.3c0.1,0.2-0.1,0.4-0.4,0.5
			C236.2,55.3,235.9,55.2,235.8,55z"/>
		<path class="st11" d="M238.5,58.7c-0.1-0.1,0.1-0.3,0.4-0.4c0.3-0.1,0.6,0,0.6,0.1c0.1,0.1-0.1,0.3-0.4,0.4
			C238.9,58.9,238.6,58.8,238.5,58.7z"/>
		<path class="st11" d="M236.5,55.8c0-0.1,0.2-0.2,0.5-0.2c0.3-0.1,0.6,0,0.7,0.1c0,0.1-0.2,0.2-0.5,0.2
			C236.8,55.9,236.5,55.9,236.5,55.8z"/>
		<path class="st11" d="M231.6,50c-0.1-0.1,0.2-0.3,0.5-0.4c0.3-0.1,0.6,0,0.7,0.1s-0.2,0.3-0.5,0.4C231.9,50.1,231.6,50.1,231.6,50
			z"/>
		<path class="st11" d="M235.5,57.1c0.1-0.2,0.4-0.2,0.5-0.1c0.1,0.1,0.1,0.4,0,0.6c-0.1,0.2-0.4,0.2-0.5,0.1
			C235.3,57.5,235.4,57.3,235.5,57.1z"/>
		<path class="st11" d="M239.6,59.3c0,0-0.3,1.5,0.9,0.8c0.4-0.5,0.4-0.7-0.2-0.9C239.7,59,239.7,59,239.6,59.3z"/>
		<path class="st11" d="M228.9,54.6c0,0,0.6,0,1-1.2C230,53.8,229.8,54.8,228.9,54.6z"/>
		<path class="st11" d="M238.9,52.8c0,0,0.9,0.8,0.4,2C239.7,53.8,240,53.6,238.9,52.8z"/>
		<path class="st12" d="M236.5,52.4c0-0.3,0.4-0.4,0.9-0.2c0.4,0.2,0.8,0.7,0.7,1c0,0.3-0.4,0.4-0.9,0.2
			C236.8,53.2,236.4,52.8,236.5,52.4z"/>
		<path class="st12" d="M232.7,55c-0.1-0.2,0.1-0.5,0.6-0.7s0.9-0.2,1,0c0.1,0.2-0.1,0.5-0.6,0.7S232.8,55.2,232.7,55z"/>
		<path class="st12" d="M236.1,58.5c-0.1-0.2,0.1-0.4,0.4-0.5c0.3-0.1,0.6,0,0.7,0.1c0.1,0.2-0.1,0.4-0.4,0.5
			C236.5,58.7,236.2,58.7,236.1,58.5z"/>
		<path class="st12" d="M239.9,58.2c-0.1-0.2,0.1-0.3,0.3-0.4c0.3-0.1,0.5,0,0.6,0.2s-0.1,0.3-0.3,0.4
			C240.2,58.5,240,58.4,239.9,58.2z"/>
		
			<ellipse transform="matrix(0.8073 -0.5901 0.5901 0.8073 11.8574 147.7743)" class="st13" cx="232.2" cy="55.7" rx="0.1" ry="0.2"/>
		<path class="st13" d="M240.7,56.2c0-0.1,0.1-0.2,0.2-0.2c0.1,0,0.1,0.2,0.1,0.3s-0.1,0.2-0.2,0.2S240.7,56.4,240.7,56.2z"/>
		<path class="st13" d="M237.6,59.3c0.1-0.1,0.1-0.2,0.2-0.2c0,0,0,0.2,0,0.3s-0.1,0.2-0.2,0.2C237.6,59.5,237.6,59.4,237.6,59.3z"
			/>
		
			<ellipse transform="matrix(0.8073 -0.5901 0.5901 0.8073 14.0252 149.4638)" class="st13" cx="235.9" cy="53.3" rx="0.1" ry="0.2"/>
		<path class="st14" d="M232.2,53.2c0,0,1.6,0.5,2.4-0.1C233.8,53.3,233.9,53.4,232.2,53.2z"/>
	</g>
	<g>
		<path class="st10" d="M130.4,73c-0.2,0-0.3,0-0.5,0c-0.1,0.3-0.2,0.5-0.4,0.7c-0.5,0.4-1.2,0.3-1.5-0.2c-0.1-0.2-0.2-0.4-0.2-0.6
			c-3.3-0.2-7-0.5-7-0.5S119,72,117,75.2s-1.1,1.6-1.1,1.6s-0.8,1.2-1.6,2.6c0,0,0.1,0,0.1,0.1c0.2,0.3,0.1,0.6-0.1,0.8
			c-0.1,0.1-0.3,0.1-0.4,0.1c-0.7,1.6-1.6,3.8-0.5,4.1c1.7,0.6,15.1,1,16.7,0.3c0.2-0.5,0.6-1.4,0.9-2.4c-0.3-0.4-0.2-1,0.2-1.3
			c0.1-0.1,0.2-0.1,0.3-0.1c1-3,2-6.6,2-6.6S134,73.3,130.4,73z"/>
		
			<ellipse transform="matrix(0.9999 -1.099359e-02 1.099359e-02 0.9999 -0.8884 1.284)" class="st11" cx="116.4" cy="81.5" rx="1.5" ry="0.5"/>
		
			<ellipse transform="matrix(2.974574e-02 -0.9996 0.9996 2.974574e-02 48.4477 197.0328)" class="st11" cx="125.7" cy="73.6" rx="0.4" ry="1.2"/>
		
			<ellipse transform="matrix(0.5645 -0.8254 0.8254 0.5645 -9.6682 131.8966)" class="st11" cx="120.2" cy="75.1" rx="1.3" ry="0.5"/>
		<ellipse transform="matrix(0.2268 -0.9739 0.9739 0.2268 14.2595 184.0295)" class="st11" cx="123" cy="83" rx="0.3" ry="1.3"/>
		
			<ellipse transform="matrix(0.1536 -0.9881 0.9881 0.1536 36.5026 193.3409)" class="st11" cx="131.1" cy="75.4" rx="0.7" ry="0.9"/>
		
			<ellipse transform="matrix(0.3482 -0.9374 0.9374 0.3482 9.1743 163.5675)" class="st11" cx="122.2" cy="75.2" rx="0.8" ry="0.6"/>
		
			<ellipse transform="matrix(0.9561 -0.2931 0.2931 0.9561 -17.5047 39.9813)" class="st11" cx="124.7" cy="78.4" rx="0.8" ry="0.4"/>
		
			<ellipse transform="matrix(0.9378 -0.3471 0.3471 0.9378 -20.5723 49.3129)" class="st11" cx="127.3" cy="82.1" rx="0.8" ry="0.3"/>
		
			<ellipse transform="matrix(0.9561 -0.2931 0.2931 0.9561 -17.718 40.2274)" class="st11" cx="125.4" cy="79.2" rx="0.8" ry="0.2"/>
		
			<ellipse transform="matrix(0.9378 -0.3471 0.3471 0.9378 -18.0138 46.332)" class="st11" cx="120.3" cy="73.4" rx="0.8" ry="0.3"/>
		
			<ellipse transform="matrix(0.6998 -0.7143 0.7143 0.6998 -21.1239 112.5055)" class="st11" cx="123.3" cy="81.4" rx="0.6" ry="0.3"/>
		<path class="st11" d="M128,82.8c0,0-0.8,1.8,1,0.8c0.6-0.6,0.6-0.9-0.1-1S128.1,82.4,128,82.8z"/>
		<path class="st11" d="M115.1,79.7c0,0,0.7-0.1,1.6-1.6C116.6,78.6,116.1,79.7,115.1,79.7z"/>
		<path class="st11" d="M128.4,75.4c0,0,1,0.8,0,2.3C129.2,76.5,129.7,76.1,128.4,75.4z"/>
		<ellipse transform="matrix(0.2939 -0.9558 0.9558 0.2939 16.7199 174.2884)" class="st12" cx="126.3" cy="75.8" rx="0.8" ry="1"/>
		<ellipse transform="matrix(0.8789 -0.477 0.477 0.8789 -22.9348 67.2496)" class="st12" cx="121" cy="78.8" rx="1.3" ry="0.4"/>
		
			<ellipse transform="matrix(0.9244 -0.3815 0.3815 0.9244 -22.007 53.6487)" class="st12" cx="124.3" cy="82.3" rx="0.8" ry="0.3"/>
		
			<ellipse transform="matrix(0.9378 -0.3471 0.3471 0.9378 -20.1805 49.8923)" class="st12" cx="129.2" cy="81.3" rx="0.7" ry="0.3"/>
		
			<ellipse transform="matrix(0.8073 -0.5901 0.5901 0.8073 -24.4485 85.7375)" class="st13" cx="119.1" cy="80.3" rx="0.2" ry="0.2"/>
		<ellipse transform="matrix(0.2939 -0.9558 0.9558 0.2939 16.4186 180.2797)" class="st13" cx="130.2" cy="79" rx="0.3" ry="0.2"/>
		
			<ellipse transform="matrix(0.5645 -0.8254 0.8254 0.5645 -14.13 139.7819)" class="st13" cx="125.4" cy="83.3" rx="0.3" ry="0.1"/>
		
			<ellipse transform="matrix(0.8073 -0.5901 0.5901 0.8073 -21.2408 88.1757)" class="st13" cx="124.4" cy="76.6" rx="0.1" ry="0.2"/>
		<path class="st14" d="M119.6,77.4c0,0,2,0.2,3.1-0.6C121.7,77.1,121.8,77.2,119.6,77.4z"/>
	</g>
	<g>
		<path class="st10" d="M165.4,50.4c-0.1,0-0.2,0-0.3,0c0,0.2-0.2,0.4-0.3,0.5c-0.4,0.3-0.9,0.2-1.2-0.2c-0.1-0.1-0.2-0.3-0.2-0.5
			c-2.6-0.1-5.4-0.2-5.4-0.2s-1.3-0.3-3,2.2c-1.7,2.5-0.9,1.3-0.9,1.3s-0.7,0.9-1.3,2c0,0,0,0,0.1,0.1c0.1,0.2,0.1,0.5-0.1,0.6
			c-0.1,0.1-0.2,0.1-0.3,0.1c-0.6,1.2-1.3,2.9-0.5,3.2c1.3,0.4,11.7,0.5,12.9-0.1c0.2-0.4,0.5-1.1,0.8-1.9c-0.2-0.3-0.1-0.8,0.2-1
			c0.1,0,0.1-0.1,0.2-0.1c0.8-2.3,1.7-5,1.7-5S168.1,50.6,165.4,50.4z"/>
		<path class="st11" d="M153.2,57.2c0-0.2,0.5-0.4,1.2-0.4c0.6,0,1.2,0.1,1.2,0.3s-0.5,0.4-1.2,0.4
			C153.7,57.5,153.1,57.4,153.2,57.2z"/>
		<path class="st11" d="M160.8,50.9c0-0.2,0.4-0.3,0.9-0.3c0.5,0,0.9,0.1,0.9,0.3c0,0.2-0.4,0.3-0.9,0.3
			C161.2,51.2,160.8,51.1,160.8,50.9z"/>
		<path class="st11" d="M157.1,52c0.3-0.4,0.7-0.7,0.9-0.6c0.2,0.1,0.1,0.6-0.3,1c-0.3,0.4-0.7,0.7-0.9,0.6
			C156.7,52.9,156.8,52.5,157.1,52z"/>
		<path class="st11" d="M158.5,58c0-0.1,0.5-0.1,1.1,0c0.6,0.1,1,0.3,1,0.4c0,0.1-0.5,0.1-1.1,0C158.9,58.3,158.4,58.1,158.5,58z"/>
		<path class="st11" d="M165.1,52.1c0.1-0.3,0.4-0.5,0.8-0.4c0.4,0.1,0.7,0.3,0.6,0.6s-0.4,0.5-0.8,0.4
			C165.4,52.7,165.1,52.4,165.1,52.1z"/>
		<path class="st11" d="M158.6,52.1c0.1-0.3,0.4-0.5,0.7-0.5c0.2,0.1,0.3,0.4,0.2,0.8c-0.1,0.3-0.4,0.5-0.7,0.5
			C158.5,52.8,158.4,52.4,158.6,52.1z"/>
		<path class="st11" d="M160.2,54.8c0-0.2,0.2-0.4,0.5-0.5c0.3-0.1,0.6,0,0.7,0.1c0,0.2-0.2,0.4-0.5,0.5
			C160.6,55,160.3,55,160.2,54.8z"/>
		<path class="st11" d="M162.3,57.6c0-0.1,0.2-0.3,0.5-0.4c0.3-0.1,0.6-0.1,0.6,0c0,0.1-0.2,0.3-0.5,0.4
			C162.6,57.7,162.3,57.7,162.3,57.6z"/>
		<path class="st11" d="M160.7,55.5c0-0.1,0.2-0.2,0.6-0.3c0.3-0.1,0.6-0.1,0.7-0.1c0,0.1-0.2,0.2-0.6,0.3S160.7,55.5,160.7,55.5z"
			/>
		<path class="st11" d="M156.9,51.2c0-0.1,0.2-0.3,0.6-0.4c0.3-0.1,0.6-0.2,0.7-0.1s-0.2,0.3-0.6,0.4
			C157.3,51.3,157,51.3,156.9,51.2z"/>
		
			<ellipse transform="matrix(0.6936 -0.7204 0.7204 0.6936 7.9253 132.4924)" class="st11" cx="159.7" cy="56.9" rx="0.5" ry="0.3"/>
		<path class="st11" d="M163.3,57.9c0,0-0.6,1.4,0.7,0.6c0.5-0.5,0.5-0.7-0.1-0.7C163.4,57.6,163.4,57.6,163.3,57.9z"/>
		<path class="st11" d="M153.4,55.8c0,0,0.6-0.1,1.2-1.2C154.5,54.9,154.2,55.8,153.4,55.8z"/>
		<path class="st11" d="M163.8,52.2c0,0,0.7,0.6,0,1.7C164.3,53.1,164.8,52.7,163.8,52.2z"/>
		<path class="st12" d="M161.4,52.4c0.1-0.3,0.5-0.5,0.9-0.3s0.7,0.5,0.6,0.8c-0.1,0.3-0.5,0.5-0.9,0.3
			C161.6,53.1,161.3,52.7,161.4,52.4z"/>
		<path class="st12" d="M157.1,55.5c-0.1-0.2,0.2-0.5,0.7-0.8c0.5-0.3,0.9-0.4,1-0.2s-0.2,0.5-0.7,0.8
			C157.6,55.5,157.2,55.6,157.1,55.5z"/>
		<path class="st12" d="M159.8,57.9c-0.1-0.1,0.2-0.4,0.5-0.5c0.3-0.1,0.7-0.2,0.7,0s-0.2,0.4-0.5,0.5C160.2,58,159.9,58,159.8,57.9
			z"/>
		<path class="st12" d="M163.7,56.9c0-0.1,0.1-0.3,0.4-0.4c0.3-0.1,0.5-0.1,0.6,0c0,0.1-0.1,0.3-0.4,0.4
			C164.1,57.1,163.8,57.1,163.7,56.9z"/>
		
			<ellipse transform="matrix(0.8073 -0.5901 0.5901 0.8073 -3.0132 103.1516)" class="st13" cx="156.4" cy="56.2" rx="0.1" ry="0.1"/>
		<path class="st13" d="M165,55c0-0.1,0.1-0.2,0.2-0.2s0.1,0.1,0,0.3c0,0.1-0.1,0.2-0.2,0.2S164.9,55.1,165,55z"/>
		
			<ellipse transform="matrix(0.5506 -0.8348 0.8348 0.5506 23.7987 160.8713)" class="st13" cx="161.3" cy="58.3" rx="0.3" ry="0.1"/>
		
			<ellipse transform="matrix(0.8073 -0.5901 0.5901 0.8073 -0.4846 105.0682)" class="st13" cx="160.6" cy="53.3" rx="0.1" ry="0.1"/>
		<path class="st14" d="M156.9,54c0,0,1.6,0.1,2.4-0.5C158.6,53.7,158.6,53.8,156.9,54z"/>
	</g>
	<g>
		<path class="st10" d="M295.8,56.3c0,0,1,2.9,1.9,5.3c0.1,0,0.2,0.1,0.2,0.1c0.3,0.3,0.4,0.7,0.2,1c0.3,0.9,0.6,1.6,0.8,2
			c1.3,0.6,12.3,0.7,13.7,0.3c0.9-0.3,0.1-2.1-0.6-3.3c-0.1,0-0.2,0-0.4-0.1c-0.2-0.2-0.3-0.5-0.1-0.7c0,0,0,0,0.1-0.1
			c-0.7-1.2-1.4-2.2-1.4-2.2s0.8,1.3-1-1.3c-1.8-2.6-3.2-2.3-3.2-2.3s-3,0-5.8,0.1c0,0.2-0.1,0.3-0.2,0.5c-0.3,0.4-0.8,0.4-1.2,0.1
			c-0.2-0.2-0.3-0.4-0.4-0.6c-0.1,0-0.2,0-0.4,0C295.2,55.3,295.8,56.3,295.8,56.3z"/>
		<path class="st11" d="M310,62.8c-0.7,0-1.2-0.2-1.3-0.5c0-0.2,0.5-0.4,1.2-0.3c0.7,0,1.2,0.2,1.3,0.5
			C311.2,62.7,310.7,62.8,310,62.8z"/>
		<path class="st11" d="M302.1,56.1c-0.5,0-1-0.2-1-0.3c0-0.2,0.4-0.3,0.9-0.3c0.5,0,1,0.2,1,0.3C303,56,302.6,56.1,302.1,56.1z"/>
		<path class="st11" d="M307.3,58.1c-0.2,0.1-0.6-0.2-1-0.6c-0.3-0.5-0.5-1-0.3-1.1s0.6,0.2,1,0.6C307.3,57.5,307.5,58,307.3,58.1z"
			/>
		<path class="st11" d="M304.6,63.7c-0.6,0.1-1.1,0.1-1.1,0s0.4-0.3,1-0.4c0.6-0.1,1.1-0.1,1.1,0C305.7,63.4,305.2,63.5,304.6,63.7z
			"/>
		<path class="st11" d="M297.8,57.6c-0.4,0-0.8-0.2-0.9-0.5c-0.1-0.3,0.2-0.6,0.6-0.6s0.8,0.2,0.9,0.5S298.2,57.5,297.8,57.6z"/>
		<path class="st11" d="M305.3,57.8c-0.2,0.1-0.6-0.1-0.7-0.5s-0.1-0.7,0.2-0.8s0.6,0.1,0.7,0.5S305.5,57.8,305.3,57.8z"/>
		<path class="st11" d="M303,60c-0.3-0.1-0.6-0.3-0.5-0.5c0-0.2,0.4-0.2,0.7-0.1c0.3,0.1,0.6,0.3,0.5,0.5
			C303.6,60.1,303.3,60.1,303,60z"/>
		<path class="st11" d="M300.9,62.7c-0.3-0.1-0.6-0.3-0.5-0.4s0.3-0.1,0.7,0c0.3,0.1,0.6,0.3,0.5,0.4S301.3,62.9,300.9,62.7z"/>
		<path class="st11" d="M302.5,60.5c-0.4-0.1-0.7-0.3-0.6-0.4c0-0.1,0.3,0,0.7,0.1c0.4,0.1,0.7,0.3,0.6,0.4S302.9,60.6,302.5,60.5z"
			/>
		<path class="st11" d="M306.4,56.1c-0.4-0.1-0.6-0.3-0.6-0.4c0-0.1,0.4-0.1,0.7,0.1c0.4,0.1,0.6,0.3,0.6,0.4S306.8,56.2,306.4,56.1
			z"/>
		<path class="st11" d="M304.6,62.5c-0.1,0.1-0.3,0-0.5-0.2s-0.3-0.4-0.2-0.5c0.1-0.1,0.3,0,0.5,0.2S304.8,62.4,304.6,62.5z"/>
		<path class="st11" d="M299.8,62.9c-0.6,0.1-0.5,0.3,0,0.8c1.5,0.9,0.8-0.6,0.8-0.6C300.4,62.8,300.4,62.8,299.8,62.9z"/>
		<path class="st11" d="M309.7,59.7c0.7,1.2,1.3,1.3,1.3,1.3C310.1,61,309.7,60.1,309.7,59.7z"/>
		<path class="st11" d="M300,59c-0.8-1.3-0.1-1.8-0.1-1.8C298.8,57.7,299.3,58,300,59z"/>
		<path class="st12" d="M301.8,58.2c-0.4,0.1-0.9-0.1-1-0.4c-0.1-0.3,0.1-0.7,0.6-0.8c0.4-0.1,0.9,0.1,1,0.4
			C302.5,57.7,302.3,58.1,301.8,58.2z"/>
		<path class="st12" d="M306,60.4c-0.5-0.3-0.9-0.6-0.8-0.8c0.1-0.2,0.6-0.1,1.1,0.2s0.9,0.6,0.8,0.8C307,60.8,306.5,60.7,306,60.4z
			"/>
		<path class="st12" d="M303.4,63.1c-0.4-0.2-0.6-0.4-0.6-0.5c0.1-0.1,0.4-0.1,0.7,0c0.4,0.2,0.6,0.4,0.6,0.5S303.8,63.2,303.4,63.1
			z"/>
		<path class="st12" d="M299.4,62.1c-0.3-0.1-0.5-0.3-0.4-0.5c0-0.1,0.3-0.2,0.6,0c0.3,0.1,0.5,0.3,0.4,0.5
			C300,62.2,299.7,62.2,299.4,62.1z"/>
		<ellipse transform="matrix(0.5901 -0.8073 0.8073 0.5901 76.5588 273.6)" class="st13" cx="307.7" cy="61.4" rx="0.1" ry="0.1"/>
		<path class="st13" d="M298.6,60.3c-0.1,0-0.2-0.1-0.2-0.2s0-0.3,0-0.3c0.1,0,0.2,0.1,0.2,0.2C298.7,60.1,298.7,60.3,298.6,60.3z"
			/>
		
			<ellipse transform="matrix(0.8107 -0.5855 0.5855 0.8107 20.0751 189.2287)" class="st13" cx="302.6" cy="63.6" rx="0.1" ry="0.3"/>
		
			<ellipse transform="matrix(0.5901 -0.8073 0.8073 0.5901 77.2388 268.6884)" class="st13" cx="303.2" cy="58.3" rx="0.1" ry="0.1"/>
		<path class="st14" d="M304.6,58.5c0.9,0.7,2.6,0.6,2.6,0.6C305.4,58.9,305.4,58.8,304.6,58.5z"/>
	</g>
	<g>
		<path class="st10" d="M210.4,81c0,0,1,2.9,1.9,5.3c0.1,0,0.2,0.1,0.2,0.1c0.3,0.3,0.4,0.7,0.2,1c0.3,0.9,0.6,1.6,0.8,2
			c1.3,0.6,12.3,0.7,13.7,0.3c0.9-0.3,0.1-2.1-0.6-3.3c-0.1,0-0.2,0-0.4-0.1c-0.2-0.2-0.3-0.5-0.1-0.7c0,0,0,0,0.1-0.1
			c-0.7-1.2-1.4-2.2-1.4-2.2s0.8,1.3-1-1.3c-1.8-2.6-3.2-2.3-3.2-2.3s-3,0-5.8,0.1c0,0.2-0.1,0.3-0.2,0.5c-0.3,0.4-0.8,0.4-1.2,0.1
			c-0.2-0.2-0.3-0.4-0.4-0.6c-0.1,0-0.2,0-0.4,0C209.8,80.1,210.4,81,210.4,81z"/>
		<path class="st11" d="M224.6,87.5c-0.7,0-1.2-0.2-1.3-0.5s0.5-0.4,1.2-0.3c0.7,0,1.2,0.2,1.3,0.5S225.3,87.6,224.6,87.5z"/>
		<path class="st11" d="M216.7,80.9c-0.5,0-1-0.2-1-0.3c0-0.2,0.4-0.3,0.9-0.3c0.5,0,1,0.2,1,0.3S217.2,80.9,216.7,80.9z"/>
		<path class="st11" d="M221.9,82.8c-0.2,0.1-0.6-0.2-1-0.6c-0.3-0.5-0.5-1-0.3-1.1s0.6,0.2,1,0.6C221.9,82.2,222.1,82.7,221.9,82.8
			z"/>
		<path class="st11" d="M219.2,88.4c-0.6,0.1-1.1,0.1-1.1,0c0-0.1,0.4-0.3,1-0.4c0.6-0.1,1.1-0.1,1.1,0
			C220.3,88.1,219.8,88.3,219.2,88.4z"/>
		<path class="st11" d="M212.4,82.3c-0.4,0-0.8-0.2-0.9-0.5c-0.1-0.3,0.2-0.6,0.6-0.6c0.4,0,0.8,0.2,0.9,0.5
			C213.1,82,212.8,82.3,212.4,82.3z"/>
		<path class="st11" d="M219.9,82.6c-0.2,0.1-0.6-0.1-0.7-0.5c-0.1-0.4-0.1-0.7,0.2-0.8c0.2-0.1,0.6,0.1,0.7,0.5
			S220.1,82.5,219.9,82.6z"/>
		<path class="st11" d="M217.6,84.7c-0.3-0.1-0.6-0.3-0.5-0.5c0-0.2,0.4-0.2,0.7-0.1c0.3,0.1,0.6,0.3,0.5,0.5S217.9,84.9,217.6,84.7
			z"/>
		<path class="st11" d="M215.5,87.5c-0.3-0.1-0.6-0.3-0.5-0.4s0.3-0.1,0.7,0c0.3,0.1,0.6,0.3,0.5,0.4S215.9,87.6,215.5,87.5z"/>
		<path class="st11" d="M217.1,85.2c-0.4-0.1-0.7-0.3-0.6-0.4c0-0.1,0.3,0,0.7,0.1c0.4,0.1,0.7,0.3,0.6,0.4
			C217.8,85.4,217.5,85.3,217.1,85.2z"/>
		<path class="st11" d="M221,80.8c-0.4-0.1-0.6-0.3-0.6-0.4s0.4-0.1,0.7,0.1c0.4,0.1,0.6,0.3,0.6,0.4S221.4,80.9,221,80.8z"/>
		<path class="st11" d="M219.2,87.2c-0.1,0.1-0.3,0-0.5-0.2c-0.2-0.2-0.3-0.4-0.2-0.5c0.1-0.1,0.3,0,0.5,0.2
			C219.3,86.9,219.4,87.1,219.2,87.2z"/>
		<path class="st11" d="M214.4,87.6c-0.6,0.1-0.5,0.3,0,0.8c1.5,0.9,0.8-0.6,0.8-0.6C215,87.5,215,87.5,214.4,87.6z"/>
		<path class="st11" d="M224.3,84.5c0.7,1.2,1.3,1.3,1.3,1.3C224.7,85.8,224.3,84.8,224.3,84.5z"/>
		<path class="st11" d="M214.6,83.7c-0.8-1.3-0.1-1.8-0.1-1.8C213.4,82.4,213.9,82.7,214.6,83.7z"/>
		<path class="st12" d="M216.4,82.9c-0.4,0.1-0.9-0.1-1-0.4c-0.1-0.3,0.1-0.7,0.6-0.8c0.4-0.1,0.9,0.1,1,0.4
			C217.1,82.4,216.9,82.8,216.4,82.9z"/>
		<path class="st12" d="M220.6,85.1c-0.5-0.3-0.9-0.6-0.8-0.8c0.1-0.2,0.6-0.1,1.1,0.2s0.9,0.6,0.8,0.8S221.1,85.4,220.6,85.1z"/>
		<path class="st12" d="M218,87.8c-0.4-0.2-0.6-0.4-0.6-0.5c0.1-0.1,0.4-0.1,0.7,0c0.4,0.2,0.6,0.4,0.6,0.5S218.4,88,218,87.8z"/>
		<path class="st12" d="M214,86.8c-0.3-0.1-0.5-0.3-0.4-0.5s0.3-0.2,0.6,0s0.5,0.3,0.4,0.5C214.6,86.9,214.3,86.9,214,86.8z"/>
		
			<ellipse transform="matrix(0.5901 -0.8073 0.8073 0.5901 21.5958 214.7881)" class="st13" cx="222.3" cy="86.1" rx="0.1" ry="0.1"/>
		<path class="st13" d="M213.2,85c-0.1,0-0.2-0.1-0.2-0.2s0-0.3,0-0.3c0.1,0,0.2,0.1,0.2,0.2S213.3,85,213.2,85z"/>
		
			<ellipse transform="matrix(0.8107 -0.5855 0.5855 0.8107 -10.5718 143.9052)" class="st13" cx="217.2" cy="88.3" rx="0.1" ry="0.3"/>
		<ellipse transform="matrix(0.5901 -0.8073 0.8073 0.5901 22.2759 209.8764)" class="st13" cx="217.8" cy="83" rx="0.1" ry="0.1"/>
		<path class="st14" d="M219.2,83.2c0.9,0.7,2.6,0.6,2.6,0.6C220,83.6,220,83.5,219.2,83.2z"/>
	</g>
</g>
</svg>
