<svg xmlns="http://www.w3.org/2000/svg" viewBox="0 0 389 157"  xmlns:v="https://vecta.io/nano"><style><![CDATA[.P{fill:#fff6d7}.Q{fill:#85a09b}.R{fill:#f5e0a9}.S{fill:#9ebdb5}.T{fill:#efddad}]]></style><path d="M241.9 88.1c-.1 0-.2-.1-.4-.1 0 .2-.1.4-.2.6-.3.2-.9 0-1.2-.4l-.3-.6-5.6-1.5s-1.4-.6-2.6 1.9l-.6 1.3s-.5.9-.9 2.1l.1.1c.2.3.2.6 0 .7-.1.1-.2.1-.3 0-.3 1.3-.7 3.1.2 3.6 1.5.8 12.2 3.2 13.3 2.8.1-.4.2-1.1.4-2-.3-.4-.3-.9 0-1.1.1 0 .1-.1.2-.1l.6-5.5s.2-1-2.7-1.8z" class="P"/><path d="M230.8 93.2c0-.2.5-.4 1.1-.2.7.1 1.2.4 1.3.7 0 .2-.5.4-1.1.2-.6-.1-1.2-.4-1.3-.7zm6.5-5.6c0-.2.4-.3.9-.2s1 .4 1 .6-.4.3-.9.2-.9-.4-1-.6zm-3.6.5c.2-.5.6-.7.8-.5s.2.7 0 1.1c-.2.5-.6.7-.8.5s-.2-.7 0-1.1zm2.8 7.3c0-.1.5 0 1.1.3s1.1.6 1.1.7-.5 0-1.1-.3-1.1-.6-1.1-.7zm5.6-5.4c0-.3.3-.5.7-.3s.8.5.8.8-.3.5-.7.3-.8-.5-.8-.8zm-6.8-1.5c.1-.4.3-.5.6-.4s.4.6.4.9c-.1.4-.3.5-.6.4s-.5-.5-.4-.9zm2.3 3.6c-.1-.2.1-.4.4-.5.3 0 .6.1.7.3s-.1.4-.4.5c-.3 0-.6-.1-.7-.3zm2.7 3.7c-.1-.1.1-.3.4-.4s.6 0 .6.1c.1.1-.1.3-.4.4-.2.1-.5 0-.6-.1zm-2-2.9c0-.1.2-.2.5-.2.3-.1.6 0 .7.1 0 .1-.2.2-.5.2-.4 0-.7 0-.7-.1zm-4.9-5.8c-.1-.1.2-.3.5-.4s.6 0 .7.1-.2.3-.5.4c-.4 0-.7 0-.7-.1zm3.9 7.1c.1-.2.4-.2.5-.1s.1.4 0 .6-.4.2-.5.1c-.2-.2-.1-.4 0-.6zm4.1 2.2s-.3 1.5.9.8c.4-.5.4-.7-.2-.9s-.6-.2-.7.1zm-10.7-4.7s.6 0 1-1.2c.1.4-.1 1.4-1 1.2zm10-1.8s.9.8.4 2c.4-1 .7-1.2-.4-2z" class="Q"/><path d="M238.3 89.5c0-.3.4-.4.9-.2.4.2.8.7.7 1 0 .3-.4.4-.9.2-.4-.2-.8-.6-.7-1zm-3.8 2.6c-.1-.2.1-.5.6-.7s.9-.2 1 0-.1.5-.6.7-.9.2-1 0zm3.4 3.5c-.1-.2.1-.4.4-.5s.6 0 .7.1c.1.2-.1.4-.4.5s-.6.1-.7-.1zm3.8-.3c-.1-.2.1-.3.3-.4.3-.1.5 0 .6.2s-.1.3-.3.4c-.3.1-.5 0-.6-.2z" class="R"/><g class="S"><ellipse transform="matrix(.8073 -.5901 .5901 .8073 -9.7112 155.9831)" cx="234" cy="92.9" rx=".1" ry=".2"/><path d="M242.5 93.3c0-.1.1-.2.2-.2s.1.2.1.3-.1.2-.2.2-.1-.1-.1-.3zm-3.1 3.1c.1-.1.1-.2.2-.2v.3c0 .1-.1.2-.2.2v-.3z"/><ellipse transform="matrix(.8073 -.5901 .5901 .8073 -7.556 157.7208)" cx="237.7" cy="90.4" rx=".1" ry=".2"/></g><path d="M234 90.3s1.6.5 2.4-.1c-.8.2-.7.3-2.4.1z" class="T"/><path d="M83.2 67.4h-.5c-.1.3-.2.5-.4.7-.5.4-1.2.3-1.5-.2-.1-.2-.2-.4-.2-.6l-7-.5s-1.8-.4-3.8 2.8l-1.1 1.6-1.6 2.6s.1 0 .1.1c.2.3.1.6-.1.8-.1.1-.3.1-.4.1-.7 1.6-1.6 3.8-.5 4.1 1.7.6 15.1 1 16.7.3.2-.5.6-1.4.9-2.4a.95.95 0 0 1 .2-1.3c.1-.1.2-.1.3-.1 1-3 2-6.6 2-6.6s.5-1.1-3.1-1.4z" class="P"/><g class="Q"><ellipse transform="matrix(.9999 -.010994 .010994 .9999 -.8301 .7657)" cx="69.2" cy="75.9" rx="1.5" ry=".5"/><ellipse transform="matrix(.029744 -.9996 .9996 .029744 8.3217 144.5047)" cx="78.6" cy="68" rx=".4" ry="1.2"/><ellipse transform="matrix(.5645 -.8254 .8254 .5645 -25.5481 90.5177)" cx="73" cy="69.5" rx="1.3" ry=".5"/><ellipse transform="matrix(.2268 -.9739 .9739 .2268 -16.8099 133.7409)" cx="75.8" cy="77.5" rx=".3" ry="1.3"/><ellipse transform="matrix(.1536 -.9881 .9881 .1536 2.1326 142.0415)" cx="84" cy="69.8" rx=".7" ry=".9"/><ellipse transform="matrix(.3482 -.9374 .9374 .3482 -16.3197 115.7194)" cx="75.1" cy="69.6" rx=".8" ry=".6"/><ellipse transform="matrix(.9561 -.2931 .2931 .9561 -17.9273 25.9224)" cx="77.5" cy="72.8" rx=".8" ry=".4"/><ellipse transform="matrix(.9378 -.3471 .3471 .9378 -21.5757 32.5761)" cx="80.1" cy="76.5" rx=".8" ry=".3"/><ellipse transform="matrix(.9561 -.2931 .2931 .9561 -18.1331 26.1601)" cx="78.2" cy="73.6" rx=".8" ry=".2"/><ellipse transform="matrix(.9378 -.3471 .3471 .9378 -18.9892 29.5959)" cx="73.1" cy="67.8" rx=".8" ry=".3"/><ellipse transform="matrix(.6998 -.7143 .7143 .6998 -31.2812 77.1413)" cx="76.1" cy="75.8" rx=".6" ry=".3"/><path d="M80.8 77.2s-.8 1.8 1 .8c.6-.6.6-.9-.1-1s-.8-.2-.9.2zm-12.9-3.1s.7-.1 1.6-1.6c-.1.5-.6 1.6-1.6 1.6zm13.3-4.3s1 .8 0 2.3c.8-1.2 1.3-1.6 0-2.3z"/></g><g class="R"><ellipse transform="matrix(.2939 -.9558 .9558 .2939 -11.2688 125.2294)" cx="79.1" cy="70.2" rx=".8" ry="1"/><ellipse transform="matrix(.8789 -.477 .477 .8789 -25.967 44.083)" cx="73.8" cy="73.2" rx="1.3" ry=".4"/><ellipse transform="matrix(.9244 -.3815 .3815 .9244 -23.427 35.2253)" cx="77.1" cy="76.7" rx=".8" ry=".3"/><ellipse transform="matrix(.9378 -.3471 .3471 .9378 -21.1696 33.1826)" cx="82" cy="75.7" rx=".7" ry=".3"/></g><g class="S"><circle transform="matrix(.8073 -.5901 .5901 .8073 -30.2092 56.832)" cx="71.9" cy="74.7" r=".2"/><ellipse transform="matrix(.2939 -.9558 .9558 .2939 -11.5752 131.2228)" cx="83" cy="73.4" rx=".3" ry=".2"/><ellipse transform="matrix(.5645 -.8254 .8254 .5645 -30.0521 98.4251)" cx="78.3" cy="77.7" rx=".3" ry=".1"/><ellipse transform="matrix(.8073 -.5901 .5901 .8073 -27.018 59.253)" cx="77.2" cy="71" rx=".1" ry=".2"/></g><path d="M72.4 71.8s2 .2 3.1-.6c-1 .3-.9.4-3.1.6z" class="T"/><path d="M141 49.5h-.3c0 .2-.2.4-.3.5-.4.3-.9.2-1.2-.2-.1-.1-.2-.3-.2-.5l-5.4-.2s-1.3-.3-3 2.2l-.9 1.3s-.7.9-1.3 2l.1.1c.1.2.1.5-.1.6-.1.1-.2.1-.3.1-.6 1.2-1.3 2.9-.5 3.2 1.3.4 11.7.5 12.9-.1.2-.4.5-1.1.8-1.9a.78.78 0 0 1 .2-1c.1 0 .1-.1.2-.1l1.7-5s.3-.8-2.4-1z" class="P"/><g class="Q"><path d="M128.8 56.3c0-.2.5-.4 1.2-.4.6 0 1.2.1 1.2.3s-.5.4-1.2.4-1.3-.1-1.2-.3zm7.6-6.3c0-.2.4-.3.9-.3s.9.1.9.3-.4.3-.9.3-.9-.1-.9-.3zm-3.7 1.1c.3-.4.7-.7.9-.6s.1.6-.3 1c-.3.4-.7.7-.9.6-.1-.1 0-.5.3-1zm1.4 6c0-.1.5-.1 1.1 0s1 .3 1 .4-.5.1-1.1 0-1.1-.3-1-.4zm6.6-5.9c.1-.3.4-.5.8-.4s.7.3.6.6-.4.5-.8.4a.65.65 0 0 1-.6-.6zm-6.5 0c.1-.3.4-.5.7-.5.2.1.3.4.2.8-.1.3-.4.5-.7.5-.3-.1-.4-.5-.2-.8zm1.6 2.7c0-.2.2-.4.5-.5s.6 0 .7.1c0 .2-.2.4-.5.5s-.6.1-.7-.1zm2.1 2.8c0-.1.2-.3.5-.4s.6-.1.6 0-.2.3-.5.4-.6.1-.6 0z"/><path d="M136.3 54.6c0-.1.2-.2.6-.3.3-.1.6-.1.7-.1 0 .1-.2.2-.6.3s-.7.1-.7.1zm-3.8-4.3c0-.1.2-.3.6-.4.3-.1.6-.2.7-.1s-.2.3-.6.4c-.3.2-.6.2-.7.1z"/><ellipse transform="matrix(.6936 -.7204 .7204 .6936 1.09 114.5957)" cx="135.2" cy="56" rx=".5" ry=".3"/><path d="M138.9 57s-.6 1.4.7.6c.5-.5.5-.7-.1-.7-.5-.2-.5-.2-.6.1zm-9.9-2.1s.6-.1 1.2-1.2c-.1.3-.4 1.2-1.2 1.2zm10.4-3.6s.7.6 0 1.7c.5-.8 1-1.2 0-1.7z"/></g><path d="M137 51.5c.1-.3.5-.5.9-.3s.7.5.6.8-.5.5-.9.3c-.4-.1-.7-.5-.6-.8zm-4.3 3.1c-.1-.2.2-.5.7-.8s.9-.4 1-.2-.2.5-.7.8c-.5.2-.9.3-1 .2zm2.7 2.4c-.1-.1.2-.4.5-.5s.7-.2.7 0-.2.4-.5.5-.6.1-.7 0zm3.9-1c0-.1.1-.3.4-.4s.5-.1.6 0c0 .1-.1.3-.4.4-.2.2-.5.2-.6 0z" class="R"/><g class="S"><circle transform="matrix(.8073 -.5901 .5901 .8073 -7.2253 88.5443)" cx="132" cy="55.3" r=".1"/><path d="M140.6 54.1c0-.1.1-.2.2-.2s.1.1 0 .3c0 .1-.1.2-.2.2s-.1-.2 0-.3z"/><ellipse transform="matrix(.5506 -.8348 .8348 .5506 13.5636 140.0426)" cx="136.8" cy="57.4" rx=".3" ry=".1"/><circle transform="matrix(.8073 -.5901 .5901 .8073 -4.7014 90.4681)" cx="136.2" cy="52.4" r=".1"/></g><path d="M132.5 53.1s1.6.1 2.4-.5c-.7.2-.7.3-2.4.5z" class="T"/><path d="M282.9 50.5l1.9 5.3c.1 0 .2.1.2.1.3.3.4.7.2 1 .3.9.6 1.6.8 2 1.3.6 12.3.7 13.7.3.9-.3.1-2.1-.6-3.3-.1 0-.2 0-.4-.1-.2-.2-.3-.5-.1-.7l.1-.1c-.7-1.2-1.4-2.2-1.4-2.2s.8 1.3-1-1.3-3.2-2.3-3.2-2.3-3 0-5.8.1c0 .2-.1.3-.2.5-.3.4-.8.4-1.2.1-.2-.2-.3-.4-.4-.6h-.4c-2.8.2-2.2 1.2-2.2 1.2z" class="P"/><g class="Q"><path d="M297.1 57c-.7 0-1.2-.2-1.3-.5 0-.2.5-.4 1.2-.3.7 0 1.2.2 1.3.5 0 .2-.5.3-1.2.3zm-7.9-6.7c-.5 0-1-.2-1-.3 0-.2.4-.3.9-.3s1 .2 1 .3c0 .2-.4.3-.9.3zm5.2 2c-.2.1-.6-.2-1-.6-.3-.5-.5-1-.3-1.1s.6.2 1 .6c.3.5.5 1 .3 1.1zm-2.7 5.6c-.6.1-1.1.1-1.1 0s.4-.3 1-.4 1.1-.1 1.1 0c.1.1-.4.2-1 .4zm-6.8-6.1c-.4 0-.8-.2-.9-.5s.2-.6.6-.6.8.2.9.5-.2.5-.6.6zm7.5.2c-.2.1-.6-.1-.7-.5s-.1-.7.2-.8.6.1.7.5 0 .8-.2.8zm-2.3 2.2c-.3-.1-.6-.3-.5-.5 0-.2.4-.2.7-.1s.6.3.5.5-.4.2-.7.1zm-2.1 2.7c-.3-.1-.6-.3-.5-.4s.3-.1.7 0c.3.1.6.3.5.4s-.3.2-.7 0z"/><path d="M289.6 54.7c-.4-.1-.7-.3-.6-.4 0-.1.3 0 .7.1s.7.3.6.4-.3 0-.7-.1zm3.9-4.4c-.4-.1-.6-.3-.6-.4s.4-.1.7.1c.4.1.6.3.6.4s-.3 0-.7-.1zm-1.8 6.4c-.1.1-.3 0-.5-.2s-.3-.4-.2-.5.3 0 .5.2.4.4.2.5zm-4.8.4c-.6.1-.5.3 0 .8 1.5.9.8-.6.8-.6-.2-.3-.2-.3-.8-.2zm9.9-3.2c.7 1.2 1.3 1.3 1.3 1.3-.9 0-1.3-.9-1.3-1.3zm-9.7-.7c-.8-1.3-.1-1.8-.1-1.8-1.1.5-.6.8.1 1.8z"/></g><path d="M288.9 52.4c-.4.1-.9-.1-1-.4s.1-.7.6-.8c.4-.1.9.1 1 .4s-.1.7-.6.8zm4.2 2.2c-.5-.3-.9-.6-.8-.8s.6-.1 1.1.2.9.6.8.8-.6.1-1.1-.2zm-2.6 2.7c-.4-.2-.6-.4-.6-.5.1-.1.4-.1.7 0 .4.2.6.4.6.5s-.3.1-.7 0zm-4-1c-.3-.1-.5-.3-.4-.5 0-.1.3-.2.6 0 .3.1.5.3.4.5 0 .1-.3.1-.6 0z" class="R"/><g class="S"><circle transform="matrix(.5901 -.8073 .8073 .5901 75.923 260.7744)" cx="294.8" cy="55.6" r=".1"/><path d="M285.7 54.5c-.1 0-.2-.1-.2-.2V54c.1 0 .2.1.2.2.1.1.1.3 0 .3z"/><ellipse transform="matrix(.8107 -.5855 .5855 .8107 21.0003 180.5626)" cx="289.7" cy="57.8" rx=".1" ry=".3"/><circle transform="matrix(.5901 -.8073 .8073 .5901 76.5967 255.8852)" cx="290.3" cy="52.5" r=".1"/></g><path d="M291.7 52.7c.9.7 2.6.6 2.6.6-1.8-.2-1.8-.3-2.6-.6z" class="T"/><path d="M132.8 88.9l1.9 5.3c.1 0 .2.1.2.1.3.3.4.7.2 1 .3.9.6 1.6.8 2 1.3.6 12.3.7 13.7.3.9-.3.1-2.1-.6-3.3-.1 0-.2 0-.4-.1-.2-.2-.3-.5-.1-.7l.1-.1c-.7-1.2-1.4-2.2-1.4-2.2s.8 1.3-1-1.3-3.2-2.3-3.2-2.3-3 0-5.8.1c0 .2-.1.3-.2.5-.3.4-.8.4-1.2.1-.2-.2-.3-.4-.4-.6h-.4c-2.8.3-2.2 1.2-2.2 1.2z" class="P"/><g class="Q"><path d="M147 95.4c-.7 0-1.2-.2-1.3-.5s.5-.4 1.2-.3c.7 0 1.2.2 1.3.5s-.5.4-1.2.3zm-7.9-6.6c-.5 0-1-.2-1-.3 0-.2.4-.3.9-.3s1 .2 1 .3-.4.3-.9.3zm5.2 1.9c-.2.1-.6-.2-1-.6-.3-.5-.5-1-.3-1.1s.6.2 1 .6c.3.5.5 1 .3 1.1zm-2.7 5.6c-.6.1-1.1.1-1.1 0s.4-.3 1-.4 1.1-.1 1.1 0c.1.1-.4.3-1 .4zm-6.8-6.1c-.4 0-.8-.2-.9-.5s.2-.6.6-.6.8.2.9.5-.2.6-.6.6zm7.5.3c-.2.1-.6-.1-.7-.5s-.1-.7.2-.8c.2-.1.6.1.7.5s0 .7-.2.8zm-2.3 2.1c-.3-.1-.6-.3-.5-.5 0-.2.4-.2.7-.1s.6.3.5.5-.4.3-.7.1zm-2.1 2.8c-.3-.1-.6-.3-.5-.4s.3-.1.7 0c.3.1.6.3.5.4s-.3.1-.7 0z"/><path d="M139.5 93.1c-.4-.1-.7-.3-.6-.4 0-.1.3 0 .7.1s.7.3.6.4c0 .1-.3 0-.7-.1zm3.9-4.4c-.4-.1-.6-.3-.6-.4s.4-.1.7.1c.4.1.6.3.6.4s-.3 0-.7-.1zm-1.8 6.4c-.1.1-.3 0-.5-.2s-.3-.4-.2-.5.3 0 .5.2c.3.2.4.4.2.5zm-4.8.4c-.6.1-.5.3 0 .8 1.5.9.8-.6.8-.6-.2-.3-.2-.3-.8-.2zm9.9-3.1c.7 1.2 1.3 1.3 1.3 1.3-.9 0-1.3-1-1.3-1.3zm-9.7-.8c-.8-1.3-.1-1.8-.1-1.8-1.1.5-.6.8.1 1.8z"/></g><path d="M138.8 90.8c-.4.1-.9-.1-1-.4s.1-.7.6-.8c.4-.1.9.1 1 .4s-.1.7-.6.8zM143 93c-.5-.3-.9-.6-.8-.8s.6-.1 1.1.2.9.6.8.8-.6.1-1.1-.2zm-2.6 2.7c-.4-.2-.6-.4-.6-.5.1-.1.4-.1.7 0 .4.2.6.4.6.5s-.3.2-.7 0zm-4-1c-.3-.1-.5-.3-.4-.5s.3-.2.6 0 .5.3.4.5c0 .1-.3.1-.6 0z" class="R"/><g class="S"><circle transform="matrix(.5901 -.8073 .8073 .5901 -16.5968 155.3436)" cx="144.7" cy="94" r=".1"/><path d="M135.6 92.9c-.1 0-.2-.1-.2-.2v-.3c.1 0 .2.1.2.2s.1.3 0 .3z"/><ellipse transform="matrix(.8107 -.5855 .5855 .8107 -29.8941 99.9551)" cx="139.6" cy="96.2" rx=".1" ry=".3"/><circle transform="matrix(.5901 -.8073 .8073 .5901 -15.923 150.4544)" cx="140.2" cy="90.9" r=".1"/></g><path d="M141.6 91.1c.9.7 2.6.6 2.6.6-1.8-.2-1.8-.3-2.6-.6z" class="T"/></svg>