<svg xmlns="http://www.w3.org/2000/svg" xmlns:xlink="http://www.w3.org/1999/xlink" viewBox="0 0 389 157" xmlns:v="https://vecta.io/nano"><style><![CDATA[.P{fill:#c3301c}.Q{fill:#ec7533}.R{fill:#c02217}.S{fill:#d73b24}]]></style><use xlink:href="#B" class="R"/><ellipse transform="matrix(.058571 -.9983 .9983 .058571 133.4221 240.8791)" cx="194.4" cy="49.7" rx="5.1" ry="7.2" class="S"/><path d="M199 49.1s2.6.5.4-1.7c-.3-.4-5.2-5.3-10.9.4 0 .5-.4.7.8.7 1.2.1 1.9.3 2.8-.2.7-.5 2.9-1.6 4.5.3.4.4.9.4 2.4.5z" class="P"/><g class="Q"><ellipse transform="matrix(.9571 -.2896 .2896 .9571 -5.3285 59.4801)" cx="198.3" cy="47.7" rx=".5" ry=".3"/><ellipse transform="matrix(.6261 -.7797 .7797 .6261 37.1122 170.1495)" cx="196" cy="46.4" rx=".5" ry=".4"/><ellipse transform="matrix(.6261 -.7797 .7797 .6261 36.3781 167.921)" cx="193.3" cy="46" rx=".4" ry=".5"/><ellipse transform="matrix(.5499 -.8352 .8352 .5499 46.4334 180.7661)" cx="190.9" cy="47.3" rx=".3" ry=".5"/></g><path d="M198.9 50.7s2.6-.2.2 1.7c-.4.3-5.8 4.7-10.8-1.7 0-.5-.3-.7.9-.6s1.9-.1 2.7.5c.7.6 2.7 1.9 4.5.3.5-.3 1-.3 2.5-.2z" class="P"/><g class="Q"><ellipse transform="matrix(.3996 -.9167 .9167 .3996 71.1445 212.857)" cx="198.1" cy="52.1" rx=".3" ry=".5"/><ellipse transform="matrix(.8476 -.5306 .5306 .8476 1.5995 111.8935)" cx="195.6" cy="53.2" rx=".4" ry=".5"/><ellipse transform="matrix(.8476 -.5306 .5306 .8476 1.1625 110.4105)" cx="192.8" cy="53.2" rx=".5" ry=".4"/><ellipse transform="matrix(.8938 -.4484 .4484 .8938 -2.9237 90.9555)" cx="190.6" cy="51.7" rx=".5" ry=".3"/></g><path d="M165.5 86.6s-.1 0-.1-.1c-.2-.1-.2-.3 0-.4.4-.3.7-.6.7-1.1v-.5c0-.5 0-.9.3-1.3 0 0 .1-.1.1-.2.2-.4.3-.9 0-1.3-.2-.3-.2-.6-.2-.9v-.3c0-.4-.1-.8-.5-.9-.2-.1-.3-.3-.4-.5s-.2-.4-.2-.6c0-.3-.2-.5-.5-.6l-1.4-.5c-.2-.1-.5-.2-.6-.4-.2-.3-.6-.5-1-.5s-.8 0-1.2-.1c-.2 0-.4-.1-.6-.2s-.4-.2-.6-.4c-.7-.4-1.5-.5-2.3-.1-.6.3-1.2.4-1.9.3h-1.2a1.92 1.92 0 0 0-1.5 1.1c-.1.3-.3.4-.6.6-.1.1-.3.1-.4.2-.2.2-.3.5-.4.8-.1.2-.2.4-.4.4-.1 0-.1.1-.2.1-.2.1-.4.3-.5.6s-.2.6-.2.9c-.1 1.2 0 2.3.6 3.3.2.3.3.6.3.9 0 0 .3 1 2.5 1.9 2.4 1.2 1.6 1.5 3 1.4 1.9-.2 2.5-.5 3.3.2 1.4.3 1.7-.2 2.6-.7s2.1.1 2.4 0c.6-.1 1.2-.4 1.1-1.1z" class="R"/><ellipse transform="matrix(.058571 -.9983 .9983 .058571 67.0885 235.1881)" cx="158.2" cy="82" rx="5.1" ry="7.2" class="S"/><use xlink:href="#C" class="P"/><g class="Q"><ellipse transform="matrix(.9571 -.2896 .2896 .9571 -16.2487 50.3561)" cx="162" cy="80.1" rx=".5" ry=".3"/><ellipse transform="matrix(.6261 -.7797 .7797 .6261 -1.7243 154.0331)" cx="159.8" cy="78.8" rx=".5" ry=".4"/><ellipse transform="matrix(.6261 -.7797 .7797 .6261 -2.4583 151.8046)" cx="157.1" cy="78.5" rx=".4" ry=".5"/><ellipse transform="matrix(.5499 -.8352 .8352 .5499 3.0481 165.0184)" cx="154.6" cy="79.7" rx=".3" ry=".5"/></g><use xlink:href="#D" class="P"/><g class="Q"><ellipse transform="matrix(.3996 -.9167 .9167 .3996 19.6519 199.0307)" cx="161.8" cy="84.5" rx=".3" ry=".5"/><ellipse transform="matrix(.8476 -.5306 .5306 .8476 -21.1356 97.6037)" cx="159.4" cy="85.6" rx=".4" ry=".5"/><ellipse transform="matrix(.8476 -.5306 .5306 .8476 -21.5315 96.1575)" cx="156.6" cy="85.6" rx=".5" ry=".4"/><ellipse transform="matrix(.8938 -.4484 .4484 .8938 -21.3178 78.144)" cx="154.4" cy="84.1" rx=".5" ry=".3"/></g><use xlink:href="#B" x="79.5" y="20.1" class="R"/><ellipse transform="matrix(.058571 -.9983 .9983 .058571 188.2965 339.0471)" cx="273.9" cy="69.7" rx="5.1" ry="7.2" class="S"/><use xlink:href="#C" x="115.8" y="-12.4" class="P"/><g class="Q"><ellipse transform="matrix(.9571 -.2896 .2896 .9571 -7.7431 83.3465)" cx="277.7" cy="67.8" rx=".5" ry=".3"/><ellipse transform="matrix(.6261 -.7797 .7797 .6261 51.1486 239.6181)" cx="275.4" cy="66.5" rx=".5" ry=".4"/><ellipse transform="matrix(.6261 -.7797 .7797 .6261 50.4145 237.3895)" cx="272.7" cy="66.1" rx=".4" ry=".5"/><ellipse transform="matrix(.5499 -.8352 .8352 .5499 65.4187 256.0853)" cx="270.3" cy="67.3" rx=".3" ry=".5"/></g><use xlink:href="#D" x="115.8" y="-12.4" class="P"/><g class="Q"><ellipse transform="matrix(.3996 -.9167 .9167 .3996 100.417 297.6624)" cx="277.4" cy="72.2" rx=".3" ry=".5"/><ellipse transform="matrix(.8476 -.5306 .5306 .8476 3.0419 157.1101)" cx="275.1" cy="73.3" rx=".4" ry=".5"/><ellipse transform="matrix(.8476 -.5306 .5306 .8476 2.646 155.664)" cx="272.3" cy="73.2" rx=".5" ry=".4"/><ellipse transform="matrix(.8938 -.4484 .4484 .8938 -3.4999 128.7115)" cx="270" cy="71.7" rx=".5" ry=".3"/></g><use xlink:href="#B" x="65.3" y="-2" class="R"/><ellipse transform="matrix(.058571 -.9983 .9983 .058571 197.0997 304.1252)" cx="259.8" cy="47.6" rx="5.1" ry="7.2" class="S"/><use xlink:href="#C" x="101.6" y="-34.5" class="P"/><g class="Q"><ellipse transform="matrix(.9571 -.2896 .2896 .9571 -1.9393 78.3106)" cx="263.6" cy="45.7" rx=".5" ry=".3"/><ellipse transform="matrix(.6261 -.7797 .7797 .6261 63.1257 220.3398)" cx="261.3" cy="44.3" rx=".5" ry=".4"/><ellipse transform="matrix(.6261 -.7797 .7797 .6261 62.3917 218.1112)" cx="258.6" cy="44" rx=".4" ry=".5"/><ellipse transform="matrix(.5499 -.8352 .8352 .5499 77.5483 234.3374)" cx="256.2" cy="45.2" rx=".3" ry=".5"/></g><use xlink:href="#D" x="101.6" y="-34.5" class="P"/><g class="Q"><ellipse transform="matrix(.3996 -.9167 .9167 .3996 112.2278 271.4384)" cx="263.3" cy="50" rx=".3" ry=".5"/><ellipse transform="matrix(.8476 -.5306 .5306 .8476 12.6327 146.2491)" cx="260.9" cy="51.1" rx=".4" ry=".5"/><ellipse transform="matrix(.8476 -.5306 .5306 .8476 12.2368 144.803)" cx="258.2" cy="51.1" rx=".5" ry=".4"/><ellipse transform="matrix(.8938 -.4484 .4484 .8938 4.9242 120.0332)" cx="255.9" cy="49.6" rx=".5" ry=".3"/></g><path d="M134.1 56.7s-.1 0-.1-.1c-.2-.1-.2-.3 0-.4.4-.3.7-.6.7-1.1v-.5c0-.5 0-.9.3-1.3 0 0 .1-.1.1-.2.2-.4.3-.9 0-1.3-.2-.3-.2-.6-.2-.9v-.3c0-.4-.1-.8-.5-.9-.2-.1-.3-.3-.4-.5s-.2-.4-.2-.6c0-.3-.2-.5-.5-.6l-1.4-.5c-.2-.1-.5-.2-.6-.4-.2-.3-.6-.5-1-.5s-.8 0-1.2-.1c-.2 0-.4-.1-.6-.2s-.4-.2-.6-.4c-.7-.4-1.5-.5-2.3-.1-.6.3-1.2.4-1.9.3h-1.2a1.92 1.92 0 0 0-1.5 1.1c-.1.3-.3.4-.6.6-.1.1-.3.1-.4.2-.2.2-.3.5-.4.8-.1.2-.2.4-.4.4-.1 0-.1.1-.2.1-.2.1-.4.3-.5.6s-.2.6-.2.9c-.1 1.2 0 2.3.6 3.3.2.3.3.6.3.9 0 0 .3 1 2.5 1.9 2.4 1.2 1.6 1.5 3 1.4 1.9-.2 2.5-.5 3.3.2 1.4.3 1.7-.2 2.6-.7s2.1.1 2.4 0c.6-.2 1.2-.5 1.1-1.1z" class="R"/><ellipse transform="matrix(.058571 -.9983 .9983 .058571 67.3891 175.6227)" cx="126.8" cy="52.1" rx="5.1" ry="7.2" class="S"/><use xlink:href="#C" x="-31.4" y="-30" class="P"/><g class="Q"><ellipse transform="matrix(.9571 -.2896 .2896 .9571 -8.9434 39.989)" cx="130.6" cy="50.2" rx=".5" ry=".3"/><ellipse transform="matrix(.6261 -.7797 .7797 .6261 9.8863 118.3326)" cx="128.3" cy="48.9" rx=".5" ry=".4"/><ellipse transform="matrix(.6261 -.7797 .7797 .6261 9.1522 116.104)" cx="125.6" cy="48.5" rx=".4" ry=".5"/><ellipse transform="matrix(.5499 -.8352 .8352 .5499 13.9232 125.2899)" cx="123.2" cy="49.7" rx=".3" ry=".5"/></g><use xlink:href="#D" x="-31.4" y="-30" class="P"/><g class="Q"><ellipse transform="matrix(.3996 -.9167 .9167 .3996 28.2391 152.2396)" cx="130.3" cy="54.6" rx=".3" ry=".5"/><ellipse transform="matrix(.8476 -.5306 .5306 .8476 -10.0248 76.37)" cx="128" cy="55.6" rx=".4" ry=".5"/><ellipse transform="matrix(.8476 -.5306 .5306 .8476 -10.4207 74.9238)" cx="125.2" cy="55.6" rx=".5" ry=".4"/><ellipse transform="matrix(.8938 -.4484 .4484 .8938 -11.2173 60.8781)" cx="122.9" cy="54.1" rx=".5" ry=".3"/></g><defs ><path id="B" d="M201.8 54.2s-.1 0-.1-.1c-.2-.1-.2-.3 0-.4.4-.3.7-.6.7-1.1v-.5c0-.5 0-.9.3-1.3 0 0 .1-.1.1-.2.2-.4.3-.9 0-1.3-.2-.3-.2-.6-.2-.9v-.3c0-.4-.1-.8-.5-.9-.2-.1-.3-.3-.4-.5s-.2-.4-.2-.6c0-.3-.2-.5-.5-.6l-1.4-.5c-.2-.1-.5-.2-.6-.4-.2-.3-.6-.5-1-.5s-.8 0-1.2-.1c-.2 0-.4-.1-.6-.2s-.4-.2-.6-.4c-.7-.4-1.5-.5-2.3-.1-.6.3-1.2.4-1.9.3h-1.2a1.92 1.92 0 0 0-1.5 1.1c-.1.3-.3.4-.6.6-.1.1-.3.1-.4.2-.2.2-.3.5-.4.8-.1.2-.2.4-.4.4-.1 0-.1.1-.2.1-.2.1-.4.3-.5.6s-.2.6-.2.9c-.1 1.2 0 2.3.6 3.3.2.3.3.6.3.9 0 0 .3 1 2.5 1.9 2.4 1.2 1.6 1.5 3 1.4 1.9-.2 2.5-.5 3.3.2 1.4.3 1.7-.2 2.6-.7s2.1.1 2.4 0 1.2-.5 1.1-1.1z"/><path id="C" d="M162.8 81.6s2.6.5.4-1.7c-.3-.4-5.2-5.3-10.9.4 0 .5-.4.7.8.7 1.2.1 1.9.3 2.8-.2.7-.5 2.9-1.6 4.5.3.3.4.8.4 2.4.5z"/><path id="D" d="M162.7 83.2s2.6-.2.2 1.7c-.4.3-5.8 4.7-10.8-1.7 0-.5-.3-.7.9-.6s1.9-.1 2.7.5c.7.6 2.7 1.9 4.5.3.4-.3.9-.3 2.5-.2z"/></defs></svg>