<svg xmlns="http://www.w3.org/2000/svg" viewBox="0 0 389 157"  xmlns:v="https://vecta.io/nano"><style><![CDATA[.Q{fill:#fffadc}.R{fill:#e0d8c1}.S{fill:#f2e6cc}.T{fill:#ede8c2}.U{fill:#e9dfbb}.V{fill:#d8d0a9}]]></style><path d="M137.4 95.1l-.2-3.1 6.6-1.1 8.4.6.2 3.2-6.7 2.1z" class="Q"/><path d="M152.2 91.5l-6.8 1.7.2 3.6c1.2-.3 6.7-2.1 6.7-2.1l-.1-3.2z" class="R"/><path d="M137.2 92s1.4.3 2 .3c.8 0 1.8.3 2.1.5s4.2.4 4.2.4l.2 3.6-8.3-1.7-.2-3.1z" class="S"/><path d="M144.2 92s.6-1.2 1.4.2c-.4 0-1.3-.1-1.4-.2z" class="T"/><g class="U"><path d="M142.1 94s1.5.2 1.6 1.3c-.4-.3-1.4-1-1.6-1.3z"/><ellipse transform="matrix(.9981 -.061889 .061889 .9981 -5.617 8.8532)" cx="140.1" cy="95.1" rx=".2" ry=".3"/></g><path d="M149.3 93.5s-.2-1.1 1.3-.5c-.6.2-1.1.2-1.3.5zm-2.1 1.3c0-.1.3-.2.6-.1s.5.2.4.3-.3.2-.6.1c-.2-.1-.4-.2-.4-.3z" class="V"/><path d="M139.6 49.6l-.2-2.2 5.6-.8 7 .4.2 2.2-5.7 1.5z" class="Q"/><path d="M152 47l-5.7 1.3.2 2.5c1-.2 5.7-1.5 5.7-1.5L152 47z" class="R"/><path d="M139.4 47.4l1.7.2c.6 0 1.5.2 1.8.3s3.5.3 3.5.3l.2 2.5-6.9-1.1-.3-2.2z" class="S"/><path d="M145.3 47.4s.5-.8 1.2.1c-.4 0-1.1-.1-1.2-.1z" class="T"/><g class="U"><path d="M143.5 48.8s1.3.1 1.3.9c-.3-.2-1.2-.7-1.3-.9z"/><circle transform="matrix(.9981 -.061889 .061889 .9981 -2.7981 8.8714)" cx="141.8" cy="49.6" r=".2"/></g><path d="M149.5 48.4s-.1-.8 1.1-.4c-.4.2-.9.2-1.1.4zm-1.7.9c0-.1.3-.1.5-.1s.4.1.4.2-.3.1-.5.1c-.3 0-.4-.1-.4-.2z" class="V"/><path d="M239.5 50.8l-.2-3.5L246 46l8.5.8.2 3.7-6.8 2.2z" class="Q"/><path d="M254.5 46.8l-6.8 1.9.3 4.1 6.8-2.3-.3-3.7z" class="R"/><path d="M239.3 47.3l2 .4c.8 0 1.8.4 2.1.6s4.2.5 4.2.5l.3 4.1-8.4-2-.2-3.6z" class="S"/><path d="M246.4 47.3s.6-1.3 1.4.2c-.4 0-1.3-.2-1.4-.2z" class="T"/><g class="U"><path d="M244.3 49.5s1.6.2 1.6 1.5c-.4-.2-1.5-1.2-1.6-1.5z"/><ellipse transform="matrix(.9981 -.061889 .061889 .9981 -2.6764 15.0936)" cx="242.3" cy="50.8" rx=".2" ry=".4"/></g><path d="M251.6 49s-.2-1.3 1.3-.6c-.6.4-1.1.4-1.3.6zm-2.1 1.5c0-.1.3-.2.6-.1s.5.2.4.4-.3.2-.6.1-.5-.4-.4-.4z" class="V"/><path d="M328.7 68.7l-.3-4.5 9.3-1.6 11.9.9.3 4.6-9.5 3z" class="Q"/><path d="M349.6 63.5L340 66l.3 5.1 9.5-3-.2-4.6z" class="R"/><path d="M328.4 64.2l2.8.5c1.1-.1 2.5.5 3 .7s5.9.6 5.9.6l.3 5.1-11.7-2.4-.3-4.5z" class="S"/><path d="M338.3 64.2s.8-1.7 2 .2c-.6.1-1.8 0-2-.2z" class="T"/><g class="U"><path d="M335.4 67s2.2.2 2.3 1.9c-.7-.3-2.1-1.4-2.3-1.9z"/><ellipse transform="matrix(.9981 -.061889 .061889 .9981 -3.6142 20.7137)" cx="332.6" cy="68.7" rx=".3" ry=".4"/></g><path d="M345.5 66.4s-.3-1.6 1.8-.7c-.7.3-1.5.3-1.8.7zm-2.9 1.8c.1-.2.4-.2.8-.1s.7.3.6.5-.4.2-.8.1-.7-.3-.6-.5z" class="V"/><path d="M220.7 96.6l-.3-4.5 9.3-1.5 11.9.9.3 4.6-9.5 2.9z" class="Q"/><path d="M241.6 91.5L232 94l.3 5.1 9.5-3-.2-4.6z" class="R"/><path d="M220.4 92.1l2.8.5c1.1-.1 2.5.5 3 .7s5.9.6 5.9.6l.3 5.1-11.7-2.4-.3-4.5z" class="S"/><path d="M230.2 92.2s.8-1.7 2 .2c-.6 0-1.8-.1-2-.2z" class="T"/><g class="U"><path d="M227.3 95s2.2.2 2.3 1.9c-.6-.4-2.1-1.4-2.3-1.9z"/><ellipse transform="matrix(.9981 -.061889 .061889 .9981 -5.5503 14.0801)" cx="224.5" cy="96.6" rx=".3" ry=".4"/></g><path d="M237.5 94.3s-.3-1.6 1.8-.7c-.8.3-1.6.3-1.8.7zm-3 1.8c.1-.2.4-.2.8-.1s.7.3.6.5-.4.2-.8.1c-.3-.1-.6-.3-.6-.5z" class="V"/></svg>