<?xml version="1.0" encoding="utf-8"?>
<!-- Generator: Adobe Illustrator 21.0.0, SVG Export Plug-In . SVG Version: 6.00 Build 0)  -->
<svg version="1.1" xmlns="http://www.w3.org/2000/svg" xmlns:xlink="http://www.w3.org/1999/xlink" x="0px" y="0px"
	 viewBox="0 0 389 157" style="enable-background:new 0 0 389 157;" xml:space="preserve">
<style type="text/css">
	.st0{display:none;}
	.st1{display:inline;}
	.st2{fill:#732A13;}
	.st3{fill:#6C151C;}
	.st4{fill:#F6C073;}
	.st5{fill:#F1A12E;}
	.st6{opacity:0.3;fill:#FBE0BA;enable-background:new    ;}
	.st7{fill:#6F4026;}
	.st8{fill:#F6C278;}
	.st9{fill:#AB1717;}
	.st10{fill:#FFFADC;}
	.st11{fill:#E0D8C1;}
	.st12{fill:#F2E6CC;}
	.st13{fill:#EDE8C2;}
	.st14{fill:#E9DFBB;}
	.st15{fill:#D8D0A9;}
</style>
<g id="Слой_1" class="st0">
	<g id="Layer_1" class="st1">
		<g>
			
				<ellipse transform="matrix(0.9998 -1.910948e-02 1.910948e-02 0.9998 -1.7337 3.9668)" class="st2" cx="206.7" cy="92.7" rx="175.1" ry="48.7"/>
			
				<ellipse transform="matrix(0.9998 -1.911576e-02 1.911576e-02 0.9998 -1.5262 3.9298)" class="st3" cx="204.8" cy="81.8" rx="161" ry="44.8"/>
			
				<ellipse transform="matrix(0.9998 -1.911913e-02 1.911913e-02 0.9998 -1.4442 3.9373)" class="st4" cx="205.2" cy="77.5" rx="158.3" ry="44.6"/>
			
				<ellipse transform="matrix(0.9998 -1.910377e-02 1.910377e-02 0.9998 -1.317 3.9311)" class="st5" cx="205.1" cy="70.9" rx="145.6" ry="32.3"/>
			
				<ellipse transform="matrix(0.9998 -1.911114e-02 1.911114e-02 0.9998 -1.3424 3.9328)" class="st5" cx="205.1" cy="72.2" rx="139.4" ry="30.9"/>
			<path class="st6" d="M204.5,41.3c-77,1.5-139.1,16.5-138.8,33.6s63,29.7,140,28.3c77-1.5,139.1-16.5,138.8-33.6
				S281.5,39.9,204.5,41.3z M76.5,69.9c-0.4-0.2-0.5-0.7-0.3-1.1c3.1-9.1,15.8-8,22.9-11.7c0.3-0.2,0.6-0.2,0.8-0.1
				c15-5,30.2-7.7,46.5-8.8c9-0.6,18.1-0.6,27.1-0.7c5.3-0.1,12.1-0.5,16.1,3.6c0.6,0.6-0.1,1.5-0.7,1.7c-8,3.7-17.1,2.5-25.7,3.3
				c-11,1-22.1,2.7-32.9,4.8c-10.9,2.1-22.2,3.3-33,6.1C90.6,68.8,83.3,72.4,76.5,69.9z M180.5,95.3c-6.8,1.8-14,1.7-21,1.7
				c-9.1,0-18.1-0.1-27.2,0c-5.6,0-12.9,0-17.3-4.1c-4.6-4.3-9.2-3.7-15-3.6c-4.6,0-17.9,0.3-17.1-7.4c0.6-5.4,10.5-7.5,14.4-8.5
				c8.1-2.1,16.5-3.3,24.8-4c3.8-0.3,7.4-0.5,11.1-1.1c0.1-0.1,0.3-0.2,0.4-0.2c12.3-2.4,24.7-4,37.2-4.6c8.1-0.4,22-1.8,22.4,9.6
				C193.7,82.5,190.7,92.5,180.5,95.3z M213.5,49.7c7-6.9,18.9-4.7,27.8-6c0.5-0.1,0.7,0.1,0.8,0.4c6,0,12.1,0.7,18.1,1.3
				c6.4,0.6,16.7,0.8,21.1,6.5c0.4,0.6,0.1,1.6-0.7,1.7c-12.9,3.4-25.5-0.7-38.5,0c-8.7,0.5-20.9,2.9-28.6-2.4
				C213,50.8,213,50.1,213.5,49.7z M261.1,84.1c-1.6,4.3-7.6,5.8-11.6,6.6c-7.1,1.4-14.7,2.8-21.8,3.4c-7,0.6-12.6-1.2-15.8-7.8
				c-1.4-3-6.8-16-3.7-20.4c0.1-0.1,0.2-0.3,0.3-0.4c0.4-0.4,0.9-0.7,1.6-0.9c2-0.8,4.1-0.6,6.5,0.2c5.2,1.6,10.6,2.4,15.9,3.9
				c7,1.9,14.2,4.3,20.9,7.3C256.2,77.1,262.7,79.8,261.1,84.1z M300.7,71.4c-4.1,5.6-14.6,4.6-20.5,4.1
				c-11.3-0.9-22.3-2.5-33.2-5.8c-3.7-1.1-18.2-3.5-18.9-8.4c-0.3-2.3,2.3-3.5,5.3-4.1c9.4-3.8,19.3,0,28.9,0.7
				c5.4,0.4,10.9,1.2,16.2,2.1C281.8,60.5,306.3,63.8,300.7,71.4z"/>
			<path class="st7" d="M38.5,90c0,0-6.8,2.4-0.1,15.3s86.2,37.6,160.7,32.7c0,0,51.9,0,52.2-4.1s-19.8-4.3-19.8-4.3
				s-23.5,0.7-33.8,0.8C187.5,130.4,54.8,131.5,38.5,90z"/>
			<path class="st8" d="M55.9,70.2c0,0-3.4-0.2-6.1,6.4c-2.7,6.6,7.9,22.9,55,33.2c47,10.3,115.1,12.6,150.4,6.2s18.1-15.1,0.9-12.8
				c-17.2,2.3-17.2,2.3-17.2,2.3S153,108.1,110,99.9C69.2,92.2,55.1,87.1,55.9,70.2z"/>
		</g>
	</g>
	<g id="Слой_3" class="st1">
		<path class="st9" d="M145.6,45.9c0,0,46.5-2,75.9-1.5c19.1,0.2,41.2-3.1,77.1,5.1c17.5,3.8,28.6,7.5,34.6,10.6
			c3.6,1.9,6,5.6,5.9,9.7c-0.1,6.2-6.3,15.6-56.8,26c-49.7,4.8-55.4,4.6-77.4,3.8c-24.5,0.9-52.2,3.2-76.1-2.4
			c-26.9-5.6-68.6-13.4-56.1-25.5C80.6,64.8,90.8,54.2,145.6,45.9z"/>
	</g>
</g>
<g id="Слой_2">
	<g id="Слой_2_6_">
		<polygon class="st10" points="165.3,77.3 165.1,74.2 171.7,73.1 180.1,73.7 180.3,76.9 173.6,79 		"/>
		<path class="st11" d="M180.1,73.7c0,0-5.8,1.7-6.8,1.7c0,0,0.1,2.3,0.2,3.6c1.2-0.3,6.7-2.1,6.7-2.1L180.1,73.7z"/>
		<path class="st12" d="M165.1,74.2c0,0,1.4,0.3,2,0.3c0.8,0,1.8,0.3,2.1,0.5c0.3,0.2,4.2,0.4,4.2,0.4l0.2,3.6l-8.3-1.7L165.1,74.2z
			"/>
		<path class="st13" d="M172.1,74.2c0,0,0.6-1.2,1.4,0.2C173.1,74.4,172.2,74.3,172.1,74.2z"/>
		<path class="st14" d="M170,76.2c0,0,1.5,0.2,1.6,1.3C171.2,77.2,170.2,76.5,170,76.2z"/>
		
			<ellipse transform="matrix(0.9981 -6.189051e-02 6.189051e-02 0.9981 -4.4624 10.5473)" class="st14" cx="168" cy="77.3" rx="0.2" ry="0.3"/>
		<path class="st15" d="M177.2,75.7c0,0-0.2-1.1,1.3-0.5C177.9,75.4,177.4,75.4,177.2,75.7z"/>
		<path class="st15" d="M175.1,77c0-0.1,0.3-0.2,0.6-0.1c0.3,0.1,0.5,0.2,0.4,0.3s-0.3,0.2-0.6,0.1C175.3,77.2,175.1,77.1,175.1,77z
			"/>
	</g>
	<g id="Слой_2_2_">
		<polygon class="st10" points="192.9,52.4 192.7,50.2 198.3,49.4 205.3,49.8 205.5,52 199.8,53.5 		"/>
		<path class="st11" d="M205.3,49.8c0,0-4.9,1.2-5.7,1.3c0,0,0.1,1.6,0.2,2.5c1-0.2,5.7-1.5,5.7-1.5L205.3,49.8z"/>
		<path class="st12" d="M192.7,50.2c0,0,1.2,0.2,1.7,0.2c0.6,0,1.5,0.2,1.8,0.3s3.5,0.3,3.5,0.3l0.2,2.5l-6.9-1.1L192.7,50.2z"/>
		<path class="st13" d="M198.6,50.2c0,0,0.5-0.8,1.2,0.1C199.4,50.3,198.7,50.2,198.6,50.2z"/>
		<path class="st14" d="M196.8,51.6c0,0,1.3,0.1,1.3,0.9C197.8,52.3,196.9,51.8,196.8,51.6z"/>
		
			<ellipse transform="matrix(0.9981 -6.189053e-02 6.189053e-02 0.9981 -2.8668 12.1777)" class="st14" cx="195.1" cy="52.4" rx="0.2" ry="0.2"/>
		<path class="st15" d="M202.8,51.2c0,0-0.1-0.8,1.1-0.4C203.5,51,203,51,202.8,51.2z"/>
		<path class="st15" d="M201.1,52.1c0-0.1,0.3-0.1,0.5-0.1c0.2,0,0.4,0.1,0.4,0.2c0,0.1-0.3,0.1-0.5,0.1
			C201.2,52.3,201.1,52.2,201.1,52.1z"/>
	</g>
	<g id="Слой_2_7_">
		<polygon class="st10" points="260,62.2 259.8,58.7 266.5,57.4 275,58.2 275.2,61.9 268.4,64.2 		"/>
		<path class="st11" d="M275,58.2c0,0-5.8,1.9-6.8,1.9c0,0,0.2,2.6,0.3,4.1c1.2-0.4,6.8-2.3,6.8-2.3L275,58.2z"/>
		<path class="st12" d="M259.8,58.7c0,0,1.5,0.3,2,0.4c0.8,0,1.8,0.4,2.1,0.6s4.2,0.5,4.2,0.5l0.3,4.1l-8.4-2L259.8,58.7z"/>
		<path class="st13" d="M266.9,58.7c0,0,0.6-1.3,1.4,0.2C267.9,59,267,58.8,266.9,58.7z"/>
		<path class="st14" d="M264.8,61c0,0,1.6,0.2,1.6,1.5C266,62.2,264.9,61.3,264.8,61z"/>
		
			<ellipse transform="matrix(0.9981 -6.189050e-02 6.189050e-02 0.9981 -3.3476 16.3832)" class="st14" cx="262.8" cy="62.2" rx="0.2" ry="0.4"/>
		<path class="st15" d="M272.1,60.5c0,0-0.2-1.3,1.3-0.6C272.8,60.2,272.3,60.2,272.1,60.5z"/>
		<path class="st15" d="M270,61.9c0-0.1,0.3-0.2,0.6-0.1s0.5,0.2,0.4,0.4s-0.3,0.2-0.6,0.1C270.1,62.2,269.9,62,270,61.9z"/>
	</g>
	<g id="Слой_2_3_">
		<polygon class="st10" points="92.9,74.7 92.7,71.2 100,69.9 109.3,70.6 109.6,74.3 102.1,76.6 		"/>
		<path class="st11" d="M109.3,70.6c0,0-6.4,1.9-7.5,1.9c0,0,0.2,2.5,0.2,4c1.3-0.4,7.5-2.3,7.5-2.3L109.3,70.6z"/>
		<path class="st12" d="M92.7,71.2c0,0,1.6,0.3,2.2,0.4c0.8-0.1,2,0.4,2.3,0.5s4.6,0.5,4.6,0.5l0.2,4l-9.2-1.9L92.7,71.2z"/>
		<path class="st13" d="M100.4,71.2c0,0,0.6-1.3,1.6,0.2C101.5,71.4,100.6,71.3,100.4,71.2z"/>
		<path class="st14" d="M98.2,73.4c0,0,1.7,0.2,1.8,1.5C99.4,74.6,98.3,73.8,98.2,73.4z"/>
		
			<ellipse transform="matrix(0.9981 -6.189051e-02 6.189051e-02 0.9981 -4.4369 6.0807)" class="st14" cx="95.9" cy="74.7" rx="0.2" ry="0.3"/>
		<path class="st15" d="M106.1,72.9c0,0-0.2-1.3,1.4-0.6C106.9,72.6,106.3,72.6,106.1,72.9z"/>
		<path class="st15" d="M103.8,74.3c0-0.1,0.3-0.2,0.7-0.1s0.5,0.2,0.5,0.4c0,0.1-0.3,0.2-0.7,0.1S103.8,74.4,103.8,74.3z"/>
	</g>
	<g id="Слой_2_4_">
		<polygon class="st10" points="287.2,82.1 286.9,77.6 296.2,76 308.1,76.9 308.4,81.5 298.9,84.5 		"/>
		<path class="st11" d="M308.1,76.9c0,0-8.2,2.4-9.6,2.5c0,0,0.2,3.2,0.3,5.1c1.7-0.5,9.5-3,9.5-3L308.1,76.9z"/>
		<path class="st12" d="M286.9,77.6c0,0,2,0.4,2.8,0.5c1.1-0.1,2.5,0.5,3,0.7c0.5,0.2,5.9,0.6,5.9,0.6l0.3,5.1l-11.7-2.4L286.9,77.6
			z"/>
		<path class="st13" d="M296.8,77.6c0,0,0.8-1.7,2,0.2C298.2,77.9,297,77.8,296.8,77.6z"/>
		<path class="st14" d="M293.9,80.4c0,0,2.2,0.2,2.3,1.9C295.5,82,294.1,80.9,293.9,80.4z"/>
		
			<ellipse transform="matrix(0.9981 -6.189051e-02 6.189051e-02 0.9981 -4.5207 18.1709)" class="st14" cx="291.1" cy="82.1" rx="0.3" ry="0.4"/>
		<path class="st15" d="M304,79.8c0,0-0.3-1.6,1.8-0.7C305.1,79.4,304.3,79.4,304,79.8z"/>
		<path class="st15" d="M301.1,81.6c0.1-0.2,0.4-0.2,0.8-0.1c0.4,0.1,0.7,0.3,0.6,0.5c-0.1,0.2-0.4,0.2-0.8,0.1
			C301.3,82,301,81.8,301.1,81.6z"/>
	</g>
	<g id="Слой_2_5_">
		<polygon class="st10" points="237.8,91.8 237.5,87.3 246.8,85.8 258.7,86.7 259,91.3 249.5,94.2 		"/>
		<path class="st11" d="M258.7,86.7c0,0-8.2,2.4-9.6,2.5c0,0,0.2,3.2,0.3,5.1c1.7-0.5,9.5-3,9.5-3L258.7,86.7z"/>
		<path class="st12" d="M237.5,87.3c0,0,2,0.4,2.8,0.5c1.1-0.1,2.5,0.5,3,0.7c0.5,0.2,5.9,0.6,5.9,0.6l0.3,5.1l-11.7-2.4L237.5,87.3
			z"/>
		<path class="st13" d="M247.3,87.4c0,0,0.8-1.7,2,0.2C248.7,87.6,247.5,87.5,247.3,87.4z"/>
		<path class="st14" d="M244.4,90.2c0,0,2.2,0.2,2.3,1.9C246.1,91.7,244.6,90.7,244.4,90.2z"/>
		
			<ellipse transform="matrix(0.9981 -6.189051e-02 6.189051e-02 0.9981 -5.2171 15.129)" class="st14" cx="241.6" cy="91.8" rx="0.3" ry="0.4"/>
		<path class="st15" d="M254.6,89.5c0,0-0.3-1.6,1.8-0.7C255.6,89.1,254.8,89.1,254.6,89.5z"/>
		<path class="st15" d="M251.6,91.3c0.1-0.2,0.4-0.2,0.8-0.1c0.4,0.1,0.7,0.3,0.6,0.5s-0.4,0.2-0.8,0.1
			C251.9,91.7,251.6,91.5,251.6,91.3z"/>
	</g>
</g>
</svg>
