<svg xmlns="http://www.w3.org/2000/svg" xmlns:xlink="http://www.w3.org/1999/xlink" viewBox="0 0 389 157" xmlns:v="https://vecta.io/nano"><style><![CDATA[.o{fill:#d8acab}.p{fill:#f7d5d7}.q{opacity:.45}.r{fill:#fef6f6}.s{opacity:.22}.t{enable-background:new}.u{fill:#fefefe}.v{opacity:.18}]]></style><use xlink:href="#B" class="p"/><defs><path id="A" d="M183.2 97.9c-1.1-.6-1.8-2.2-1.9-3.2 0-.3.2-.5.4-.6 2-.6 4-1.4 6-2.2l2.5-1.1c.2-.1.4-.2.6-.1s.4.3.5.5c.8 1.6.8 3.7-.1 5.3s-2.8 2.6-4.6 2.5c-1-.1-1.8-.1-2.6-.5-.3-.2-.5-.4-.8-.6z"/><path id="B" d="M183.2 98c-1.1-.6-1.8-2.2-1.9-3.2 0-.3.2-.5.4-.6 2-.6 4-1.4 6-2.2l2.5-1.1c.2-.1.4-.2.6-.1s.4.3.5.5c.8 1.6.8 3.7-.1 5.3s-2.8 2.6-4.6 2.5c-1-.1-1.8-.1-2.6-.5-.3-.3-.5-.5-.8-.6z"/><path id="C" d="M187.9 90.4c-1 0-7.4 2.8-7.8 3.6-.7 1.6 1.8 4.4 3.1 5.3 1.2.8 5.1.1 6.6-.2.7-.1 1.7-1.6 2.4-1.8.8-.3 1.3-1.4 1.8-2.1s.3-1.6-.6-2c-1.2-.4-2.5.5-3.6.9-.9.3-1.8.4-2.7.1-.3-.1-.7-.3-.9-.5 0 0-.2-.3-.1-.2-.4-1 1.8-2.5 1.4-2.5l.4-.6z"/><path id="D" d="M185.9 91.9c-1 0-7.4 2.8-7.8 3.6-.7 1.6 1.8 4.4 3.1 5.3 1.2.8 5.1.1 6.6-.2.7-.1 1.7-1.6 2.4-1.8.8-.3 1.3-1.4 1.8-2.1s1.8-1.4.9-1c-1.1.5-3.7 1-4.9 1.1-3.8.5-4.6-1.3-5-2.1-.4-.7 1.5-1.6 1.1-1.5l1.8-1.3z"/><path id="E" d="M184.5 91.9c-1 0-7.4 2.8-7.8 3.6-.7 1.6 1.8 4.4 3.1 5.3 1.2.8 5.1.1 6.6-.2.7-.1 1.7-1.6 2.4-1.8.8-.3 2.5.5 3-.2s1.2-1.8.3-1.4c-1.1.5-3.6.7-4.7.9-3.8.5-5.3-2.5-5.7-3.4-.4-.7 1.8-1.6 1.5-1.6l1.3-1.2z"/></defs><clipPath id="F"><use xlink:href="#A"/></clipPath><g clip-path="url(#F)" class="q r"><path d="M180.8 94.5c.7.4 1.4.2 2.1.1l3.4-.7c2.3-.6 4.6-1.4 6.4-2.9.5-.4.5-1.2.2-1.7-.4-.7-1.3-.8-1.9-.4-.7.4-1.3 1.1-2.1 1.4a15.95 15.95 0 0 1-2.7 1.2l-2.8 1.2-1.1.5c-.3.1-.7.4-1.1.3-.6 0-.9.7-.4 1h0z"/></g><g class="s t"><defs><path id="G" d="M183.2 98c-1.1-.6-1.8-2.2-1.9-3.2 0-.3.2-.5.4-.6 2-.6 4-1.4 6-2.2l2.5-1.1c.2-.1.4-.2.6-.1s.4.3.5.5c.8 1.6.8 3.7-.1 5.3s-2.8 2.6-4.6 2.5c-1-.1-1.8-.1-2.6-.5-.3-.3-.5-.5-.8-.6z"/></defs><clipPath id="H"><use xlink:href="#G"/></clipPath><g clip-path="url(#H)" class="o"><use xlink:href="#C"/></g><defs><path id="I" d="M183.2 98c-1.1-.6-1.8-2.2-1.9-3.2 0-.3.2-.5.4-.6 2-.6 4-1.4 6-2.2l2.5-1.1c.2-.1.4-.2.6-.1s.4.3.5.5c.8 1.6.8 3.7-.1 5.3s-2.8 2.6-4.6 2.5c-1-.1-1.8-.1-2.6-.5-.3-.3-.5-.5-.8-.6z"/></defs><clipPath id="J"><use xlink:href="#I"/></clipPath><g clip-path="url(#J)" class="o"><use xlink:href="#D"/></g><defs><path id="K" d="M183.2 98c-1.1-.6-1.8-2.2-1.9-3.2 0-.3.2-.5.4-.6 2-.6 4-1.4 6-2.2l2.5-1.1c.2-.1.4-.2.6-.1s.4.3.5.5c.8 1.6.8 3.7-.1 5.3s-2.8 2.6-4.6 2.5c-1-.1-1.8-.1-2.6-.5-.3-.3-.5-.5-.8-.6z"/></defs><clipPath id="L"><use xlink:href="#K"/></clipPath><g clip-path="url(#L)" class="o"><use xlink:href="#E"/></g></g><path d="M183.6 94.8c1.1.4 2.3.2 3.4-.1.6-.2 1.2-.4 1.8-.5.2 0 .4-.1.5-.1-.1 0 0 0 .1 0 .4 0-.1 0-.2-.1 1.2 1.4 3.3-1.2 1.5-2.1-1.1-.6-2.2 0-3.2.5-1.2.6-2.4 1.3-3.8 1.4-.6-.1-.6.8-.1 1h0z" class="u v"/><path d="M206.6 65.7c-.8-.5-1.4-1.8-1.5-2.5a.55.55 0 0 1 .3-.5l4.7-1.7 2-.9c.2-.1.3-.1.5-.1a.78.78 0 0 1 .4.4c.6 1.3.6 2.9-.1 4.1s-2.2 2.1-3.6 1.9c-.8-.1-1.4-.1-2.1-.4l-.6-.3z" class="p"/><defs><path id="M" d="M206.6 65.6c-.8-.5-1.4-1.8-1.5-2.5a.55.55 0 0 1 .3-.5l4.7-1.7 2-.9c.2-.1.3-.1.5-.1a.78.78 0 0 1 .4.4c.6 1.3.6 2.9-.1 4.1s-2.2 2.1-3.6 1.9c-.8-.1-1.4-.1-2.1-.4-.2 0-.4-.1-.6-.3z"/></defs><clipPath id="N"><use xlink:href="#M"/></clipPath><g clip-path="url(#N)" class="q r"><path d="M204.8 63c.5.3 1.1.2 1.7.1.9-.1 1.8-.3 2.7-.5 1.8-.5 3.6-1.1 5-2.3.4-.3.4-.9.1-1.3-.3-.5-1-.6-1.5-.3-.6.3-1 .8-1.7 1.1-.7.4-1.4.7-2.1 1l-2.2.9c-.3.1-.6.2-.9.4-.2.1-.6.3-.8.2-.5-.2-.7.4-.3.7h0z"/></g><g class="s t"><defs><path id="O" d="M206.6 65.7c-.8-.5-1.4-1.8-1.5-2.5a.55.55 0 0 1 .3-.5l4.7-1.7 2-.9c.2-.1.3-.1.5-.1a.78.78 0 0 1 .4.4c.6 1.3.6 2.9-.1 4.1s-2.2 2.1-3.6 1.9c-.8-.1-1.4-.1-2.1-.4l-.6-.3z"/></defs><clipPath id="P"><use xlink:href="#O"/></clipPath><g clip-path="url(#P)" class="o"><path d="M210.4 59.7c-.8 0-5.8 2.2-6.1 2.9-.6 1.2 1.4 3.5 2.4 4.1s4 .1 5.2-.2c.6-.1 1.3-1.2 1.9-1.4s1-1.1 1.4-1.6c.4-.6.2-1.3-.5-1.5-.9-.3-2 .4-2.8.7-.7.3-1.4.3-2.1.1-.2-.1-.5-.3-.7-.4 0 0-.1-.2-.1-.1-.3-.8 1.4-2 1.1-2l.3-.6z"/></g><defs><path id="Q" d="M206.6 65.7c-.8-.5-1.4-1.8-1.5-2.5a.55.55 0 0 1 .3-.5l4.7-1.7 2-.9c.2-.1.3-.1.5-.1a.78.78 0 0 1 .4.4c.6 1.3.6 2.9-.1 4.1s-2.2 2.1-3.6 1.9c-.8-.1-1.4-.1-2.1-.4l-.6-.3z"/></defs><clipPath id="R"><use xlink:href="#Q"/></clipPath><g clip-path="url(#R)" class="o"><path d="M208.7 60.9c-.8 0-5.8 2.2-6.1 2.9-.6 1.2 1.4 3.5 2.4 4.1s4 .1 5.2-.2c.6-.1 1.3-1.2 1.9-1.4s1-1.1 1.4-1.6c.4-.6 1.4-1.1.7-.8-.9.4-2.9.8-3.8.9-3 .4-3.6-1-4-1.7-.3-.6 1.2-1.2.9-1.2l1.4-1z"/></g><defs><path id="S" d="M206.6 65.7c-.8-.5-1.4-1.8-1.5-2.5a.55.55 0 0 1 .3-.5l4.7-1.7 2-.9c.2-.1.3-.1.5-.1a.78.78 0 0 1 .4.4c.6 1.3.6 2.9-.1 4.1s-2.2 2.1-3.6 1.9c-.8-.1-1.4-.1-2.1-.4l-.6-.3z"/></defs><clipPath id="T"><use xlink:href="#S"/></clipPath><g clip-path="url(#T)" class="o"><path d="M207.6 60.9c-.8 0-5.8 2.2-6.1 2.9-.6 1.2 1.4 3.5 2.4 4.1s4 .1 5.2-.2c.6-.1 1.3-1.2 1.9-1.4s1.9.4 2.3-.1c.4-.6.9-1.4.2-1.1-.9.4-2.8.6-3.7.7-3 .4-4.1-2-4.5-2.7-.3-.6 1.4-1.2 1.2-1.2l1.1-1z"/></g></g><path d="M207 63.2c.9.3 1.8.1 2.7-.1.5-.1.9-.3 1.4-.4.1 0 .3-.1.4-.1-.1 0 0 0 .1 0 .3 0-.1 0-.2-.1 1 1.1 2.6-.9 1.2-1.7-.9-.5-1.7 0-2.5.4-1 .5-1.9 1-3 1.1-.5 0-.6.7-.1.9h0z" class="u v"/><path d="M299.6 78.9c-1.2-.2-2.5-1.5-2.9-2.3-.1-.3 0-.6.2-.7a48.1 48.1 0 0 0 4.8-4.2c.7-.6 1.3-1.3 2-1.9.2-.2.3-.3.5-.3s.4.1.6.3c1.3 1.3 2 3.2 1.7 5s-1.7 3.4-3.4 3.9c-1 .3-1.7.5-2.6.4-.3-.1-.6-.2-.9-.2z" class="p"/><defs><path id="U" d="M299.6 78.9c-1.2-.2-2.5-1.5-2.9-2.3-.1-.3 0-.6.2-.7a48.1 48.1 0 0 0 4.8-4.2c.7-.6 1.3-1.3 2-1.9.2-.2.3-.3.5-.3s.4.1.6.3c1.3 1.3 2 3.2 1.7 5s-1.7 3.4-3.4 3.9c-1 .3-1.7.5-2.6.4-.3-.1-.6-.2-.9-.2z"/></defs><clipPath id="V"><use xlink:href="#U"/></clipPath><g clip-path="url(#V)" class="q r"><path d="M296.2 76.5c.7.1 1.4-.3 2-.6a23.81 23.81 0 0 0 3-1.8c1.9-1.4 3.8-2.9 5-4.9.3-.5 0-1.3-.5-1.7-.6-.5-1.5-.3-2 .3-.6.6-.9 1.4-1.5 2.1l-2.1 2.1-2.2 2.1c-.3.3-.6.5-.9.8-.2.2-.5.6-.9.6-.5.1-.5.9.1 1h0z"/></g><g class="s t"><defs><path id="W" d="M299.6 78.9c-1.2-.2-2.5-1.5-2.9-2.3-.1-.3 0-.6.2-.7a48.1 48.1 0 0 0 4.8-4.2c.7-.6 1.3-1.3 2-1.9.2-.2.3-.3.5-.3s.4.1.6.3c1.3 1.3 2 3.2 1.7 5s-1.7 3.4-3.4 3.9c-1 .3-1.7.5-2.6.4-.3-.1-.6-.2-.9-.2z"/></defs><clipPath id="X"><use xlink:href="#W"/></clipPath><g clip-path="url(#X)" class="o"><path d="M301.4 70.2c-.9.4-5.9 5.2-6 6.1-.1 1.7 3.3 3.5 4.7 3.9 1.5.3 4.8-1.7 6.1-2.5.6-.4 1.1-2.1 1.6-2.5.6-.6.8-1.7 1-2.6.3-.9-.3-1.6-1.2-1.6-1.3 0-2.2 1.3-3.1 2.1-.8.6-1.5 1-2.5 1-.3 0-.7-.1-1-.2-.1 0-.3-.2-.2-.1-.7-.8.8-2.9.4-2.8l.2-.8z"/></g><defs><path id="Y" d="M299.6 78.9c-1.2-.2-2.5-1.5-2.9-2.3-.1-.3 0-.6.2-.7a48.1 48.1 0 0 0 4.8-4.2c.7-.6 1.3-1.3 2-1.9.2-.2.3-.3.5-.3s.4.1.6.3c1.3 1.3 2 3.2 1.7 5s-1.7 3.4-3.4 3.9c-1 .3-1.7.5-2.6.4-.3-.1-.6-.2-.9-.2z"/></defs><clipPath id="Z"><use xlink:href="#Y"/></clipPath><g clip-path="url(#Z)" class="o"><path d="M300 72.2c-.9.4-6 5.2-6 6.1-.1 1.7 3.3 3.5 4.7 3.9 1.5.3 4.8-1.7 6.1-2.5.6-.4 1.1-2.1 1.6-2.5.6-.6.8-1.7 1-2.6.3-.9 1.2-1.9.5-1.2-.9.9-3.1 2.2-4.2 2.8-3.4 1.8-4.7.4-5.5-.3-.6-.5.8-2 .5-1.8l1.3-1.9z"/></g><defs><path id="a" d="M299.6 78.9c-1.2-.2-2.5-1.5-2.9-2.3-.1-.3 0-.6.2-.7a48.1 48.1 0 0 0 4.8-4.2c.7-.6 1.3-1.3 2-1.9.2-.2.3-.3.5-.3s.4.1.6.3c1.3 1.3 2 3.2 1.7 5s-1.7 3.4-3.4 3.9c-1 .3-1.7.5-2.6.4-.3-.1-.6-.2-.9-.2z"/></defs><clipPath id="b"><use xlink:href="#a"/></clipPath><g clip-path="url(#b)" class="o"><path d="M298.6 72.8c-.9.4-6 5.2-6 6.1-.1 1.7 3.3 3.5 4.7 3.9 1.5.3 4.8-1.7 6.1-2.5.6-.4 1.1-2.1 1.6-2.5.6-.6 2.5-.4 2.7-1.2.3-.9.5-2.1-.2-1.4-.9.9-3.1 1.9-4.1 2.5-3.4 1.8-5.8-.5-6.5-1.2-.6-.5 1.2-2.1.8-2l.9-1.7z"/></g></g><path d="M298.9 75.8c1.2 0 2.2-.6 3.2-1.3l1.5-1.1c.1-.1.3-.2.4-.3-.1 0 0 0 .1 0 .3-.2-.1 0-.2 0 1.6.9 2.7-2.2.7-2.5-1.3-.2-2.1.7-2.9 1.6-1 1-1.8 2.1-3.1 2.6-.6.1-.3 1 .3 1h0z" class="u v"/><path d="M154.7 75.5c.9-.4 1.6-.4 2.6-.5 1.8-.2 3.7.9 4.6 2.5s.9 3.6.1 5.3c-.1.2-.2.4-.5.5-.2 0-.4 0-.6-.1l-2.5-1.1c-1.9-.9-3.9-1.6-6-2.2-.3-.1-.4-.4-.4-.6.1-1 .8-2.6 1.9-3.2.3-.3.5-.5.8-.6z" class="p"/><defs><path id="c" d="M154.7 75.5c.9-.4 1.6-.4 2.6-.5 1.8-.2 3.7.9 4.6 2.5s.9 3.6.1 5.3c-.1.2-.2.4-.5.5-.2 0-.4 0-.6-.1l-2.5-1.1c-1.9-.9-3.9-1.6-6-2.2-.3-.1-.4-.4-.4-.6.1-1 .8-2.6 1.9-3.2.3-.3.5-.5.8-.6z"/></defs><clipPath id="d"><use xlink:href="#c"/></clipPath><g clip-path="url(#d)" class="q r"><path d="M151.6 79.4c-.5.3-.2 1.1.4 1 .4-.1.7.2 1.1.3l1.1.5 2.8 1.2 2.7 1.2c.8.4 1.4 1 2.1 1.4s1.5.2 1.9-.4c.3-.5.3-1.3-.2-1.7-1.8-1.5-4.1-2.3-6.4-2.9-1.1-.3-2.3-.5-3.4-.7-.7-.1-1.5-.3-2.1.1h0z"/></g><g class="s t"><defs><path id="e" d="M154.7 75.5c.9-.4 1.6-.4 2.6-.5 1.8-.2 3.7.9 4.6 2.5s.9 3.6.1 5.3c-.1.2-.2.4-.5.5-.2 0-.4 0-.6-.1l-2.5-1.1c-1.9-.9-3.9-1.6-6-2.2-.3-.1-.4-.4-.4-.6.1-1 .8-2.6 1.9-3.2.3-.3.5-.5.8-.6z"/></defs><clipPath id="f"><use xlink:href="#e"/></clipPath><g clip-path="url(#f)" class="o"><path d="M158.3 82.9c.4 0-1.8-1.5-1.4-2.5 0 .1.1-.1.1-.2.2-.2.6-.4.9-.5.9-.3 1.8-.2 2.7.1 1.1.4 2.4 1.3 3.6.9.9-.3 1.1-1.2.6-2-.5-.7-1-1.8-1.8-2.1-.7-.3-1.7-1.7-2.4-1.8-1.4-.3-5.3-1-6.6-.2-1.2.8-3.8 3.7-3.1 5.3.4.8 6.8 3.6 7.8 3.6l-.4-.6z"/></g><defs><path id="g" d="M154.7 75.5c.9-.4 1.6-.4 2.6-.5 1.8-.2 3.7.9 4.6 2.5s.9 3.6.1 5.3c-.1.2-.2.4-.5.5-.2 0-.4 0-.6-.1l-2.5-1.1c-1.9-.9-3.9-1.6-6-2.2-.3-.1-.4-.4-.4-.6.1-1 .8-2.6 1.9-3.2.3-.3.5-.5.8-.6z"/></defs><clipPath id="h"><use xlink:href="#g"/></clipPath><g clip-path="url(#h)" class="o"><path d="M154.8 80.8c.4 0-1.5-.8-1.1-1.5.5-.9 1.2-2.6 5-2.1 1.2.2 3.7.6 4.9 1.1.9.4-.4-.2-.9-1-.5-.7-1-1.8-1.8-2.1-.7-.3-1.7-1.7-2.4-1.8-1.4-.3-5.3-1-6.6-.2-1.2.8-3.8 3.7-3.1 5.3.4.8 6.8 3.6 7.8 3.6l-1.8-1.3z"/></g><defs><path id="i" d="M154.7 75.5c.9-.4 1.6-.4 2.6-.5 1.8-.2 3.7.9 4.6 2.5s.9 3.6.1 5.3c-.1.2-.2.4-.5.5-.2 0-.4 0-.6-.1l-2.5-1.1c-1.9-.9-3.9-1.6-6-2.2-.3-.1-.4-.4-.4-.6.1-1 .8-2.6 1.9-3.2.3-.3.5-.5.8-.6z"/></defs><clipPath id="j"><use xlink:href="#i"/></clipPath><g clip-path="url(#j)" class="o"><path d="M153.7 80.8c.4 0-1.8-.8-1.5-1.6.5-.9 1.9-3.9 5.7-3.4 1.1.2 3.6.4 4.7.9.9.4.3-.7-.3-1.4-.5-.7-2.2.1-3-.2-.7-.3-1.7-1.7-2.4-1.8-1.4-.3-5.3-1-6.6-.2-1.2.8-3.8 3.7-3.1 5.3.4.8 6.8 3.6 7.8 3.6l-1.3-1.2z"/></g></g><path d="M154.4 79.1c-.6.2-.5 1.1.2 1.1 1.4.1 2.6.8 3.8 1.4 1 .5 2.1 1.1 3.2.5 1.8-1-.3-3.5-1.5-2.1.1-.1.6-.1.2-.1h-.1c-.2 0-.4-.1-.5-.1-.6-.2-1.2-.3-1.8-.5-1.2-.4-2.4-.6-3.5-.2h0z" class="u v"/><use xlink:href="#B" x="67.9" y="-16.4" class="p"/><defs><path id="k" d="M251.1 81.6c-1.1-.6-1.8-2.2-1.9-3.2 0-.3.2-.5.4-.6 2-.6 4-1.4 6-2.2l2.5-1.1c.2-.1.4-.2.6-.1s.4.3.5.5c.8 1.6.8 3.7-.1 5.3s-2.8 2.6-4.6 2.5c-1-.1-1.8-.1-2.6-.5-.3-.3-.5-.5-.8-.6z"/></defs><clipPath id="l"><use xlink:href="#k"/></clipPath><g clip-path="url(#l)" class="q r"><path d="M248.8 78.2c.7.4 1.4.2 2.1.1l3.4-.7c2.3-.6 4.6-1.4 6.4-2.9.5-.4.5-1.2.2-1.7-.4-.7-1.3-.8-1.9-.4-.7.4-1.3 1.1-2.1 1.4a15.95 15.95 0 0 1-2.7 1.2l-2.8 1.2-1.1.5c-.3.1-.7.4-1.1.3-.6-.1-1 .7-.4 1h0z"/></g><g class="s t"><defs><path id="m" d="M251.1 81.6c-1.1-.6-1.8-2.2-1.9-3.2 0-.3.2-.5.4-.6 2-.6 4-1.4 6-2.2l2.5-1.1c.2-.1.4-.2.6-.1s.4.3.5.5c.8 1.6.8 3.7-.1 5.3s-2.8 2.6-4.6 2.5c-1-.1-1.8-.1-2.6-.5-.3-.3-.5-.5-.8-.6z"/></defs><clipPath id="n"><use xlink:href="#m"/></clipPath><g clip-path="url(#n)" class="o"><path d="M255.9 74.1c-1 0-7.4 2.8-7.8 3.6-.7 1.6 1.8 4.4 3.1 5.3 1.2.8 5.1.1 6.6-.2.7-.1 1.7-1.6 2.4-1.8.8-.3 1.3-1.4 1.8-2.1s.3-1.6-.6-2c-1.2-.4-2.5.5-3.6.9-.9.3-1.8.4-2.7.1-.3-.1-.7-.3-.9-.5 0 0-.2-.3-.1-.2-.4-1 1.8-2.5 1.4-2.5l.4-.6z"/></g><defs><path id="o" d="M251.1 81.6c-1.1-.6-1.8-2.2-1.9-3.2 0-.3.2-.5.4-.6 2-.6 4-1.4 6-2.2l2.5-1.1c.2-.1.4-.2.6-.1s.4.3.5.5c.8 1.6.8 3.7-.1 5.3s-2.8 2.6-4.6 2.5c-1-.1-1.8-.1-2.6-.5-.3-.3-.5-.5-.8-.6z"/></defs><clipPath id="p"><use xlink:href="#o"/></clipPath><g clip-path="url(#p)" class="o"><path d="M253.8 75.5c-1 0-7.4 2.8-7.8 3.6-.7 1.6 1.8 4.4 3.1 5.3 1.2.8 5.1.1 6.6-.2.7-.1 1.7-1.6 2.4-1.8.8-.3 1.3-1.4 1.8-2.1s1.8-1.4.9-1c-1.1.5-3.7 1-4.9 1.1-3.8.5-4.6-1.3-5-2.1-.4-.7 1.5-1.6 1.1-1.5l1.8-1.3z"/></g><defs><path id="q" d="M251.1 81.6c-1.1-.6-1.8-2.2-1.9-3.2 0-.3.2-.5.4-.6 2-.6 4-1.4 6-2.2l2.5-1.1c.2-.1.4-.2.6-.1s.4.3.5.5c.8 1.6.8 3.7-.1 5.3s-2.8 2.6-4.6 2.5c-1-.1-1.8-.1-2.6-.5-.3-.3-.5-.5-.8-.6z"/></defs><clipPath id="r"><use xlink:href="#q"/></clipPath><g clip-path="url(#r)" class="o"><path d="M252.4 75.5c-1 0-7.4 2.8-7.8 3.6-.7 1.6 1.8 4.4 3.1 5.3 1.2.8 5.1.1 6.6-.2.7-.1 1.7-1.6 2.4-1.8.8-.3 2.5.5 3-.2s1.2-1.8.3-1.4c-1.1.5-3.6.7-4.7.9-3.8.5-5.3-2.5-5.7-3.4-.4-.7 1.8-1.6 1.5-1.6l1.3-1.2z"/></g></g><path d="M251.6 78.4c1.1.4 2.3.2 3.4-.1.6-.2 1.2-.4 1.8-.5.2 0 .4-.1.5-.1-.1 0 0 0 .1 0 .4 0-.1 0-.2-.1 1.2 1.4 3.3-1.2 1.5-2.1-1.1-.6-2.2 0-3.2.5-1.2.6-2.4 1.3-3.8 1.4-.7 0-.7.8-.1 1h0z" class="u v"/><path d="M117 69.3c-.4-1.2.1-2.9.7-3.7.2-.2.5-.3.7-.2 2 .9 3.9 1.6 6 2.3l2.6.8c.2.1.4.1.5.3s.1.5 0 .7c-.5 1.8-1.8 3.3-3.6 3.9-1.7.6-3.8.2-5.1-1.2-.7-.7-1.3-1.2-1.6-2.1 0-.2-.1-.5-.2-.8z" class="p"/><defs><path id="s" d="M117.1 69.3c-.4-1.2.1-2.9.7-3.7.2-.2.5-.3.7-.2 2 .9 3.9 1.6 6 2.3l2.6.8c.2.1.4.1.5.3s.1.5 0 .7c-.5 1.8-1.8 3.3-3.6 3.9-1.7.6-3.8.2-5.1-1.2-.7-.7-1.3-1.2-1.6-2.1-.1-.2-.1-.5-.2-.8z"/></defs><clipPath id="t"><use xlink:href="#s"/></clipPath><g clip-path="url(#t)" class="q r"><path d="M117.5 65.2c.2.7.9 1.1 1.5 1.5l3 1.7c2.1 1 4.3 2 6.7 2 .6 0 1.1-.6 1.2-1.2.1-.8-.4-1.4-1.2-1.6s-1.7-.1-2.5-.3c-1-.2-1.9-.5-2.9-.8l-2.9-.9c-.4-.1-.8-.3-1.1-.4s-.8-.2-1-.5c-.2-.5-1-.1-.8.5h0z"/></g><g class="s t"><defs><path id="u" d="M117 69.3c-.4-1.2.1-2.9.7-3.7.2-.2.5-.3.7-.2 2 .9 3.9 1.6 6 2.3l2.6.8c.2.1.4.1.5.3s.1.5 0 .7c-.5 1.8-1.8 3.3-3.6 3.9-1.7.6-3.8.2-5.1-1.2-.7-.7-1.3-1.2-1.6-2.1 0-.2-.1-.5-.2-.8z"/></defs><clipPath id="v"><use xlink:href="#u"/></clipPath><g clip-path="url(#v)" class="o"><path d="M125.6 66.7c-.8-.6-7.4-2.7-8.2-2.4-1.6.7-1.6 4.5-1.2 6 .4 1.4 3.8 3.4 5.1 4.2.6.4 2.3 0 3 .2.8.3 1.9-.2 2.7-.4.9-.2 1.3-1 .9-1.9-.6-1.1-2.2-1.3-3.3-1.7-.9-.4-1.6-.8-2.1-1.7-.1-.2-.3-.7-.3-1v-.2c.4-1 3-.7 2.7-1l.7-.1z"/></g><defs><path id="w" d="M117 69.3c-.4-1.2.1-2.9.7-3.7.2-.2.5-.3.7-.2 2 .9 3.9 1.6 6 2.3l2.6.8c.2.1.4.1.5.3s.1.5 0 .7c-.5 1.8-1.8 3.3-3.6 3.9-1.7.6-3.8.2-5.1-1.2-.7-.7-1.3-1.2-1.6-2.1 0-.2-.1-.5-.2-.8z"/></defs><clipPath id="x"><use xlink:href="#w"/></clipPath><g clip-path="url(#x)" class="o"><path d="M123.1 66.5c-.8-.6-7.4-2.8-8.2-2.4-1.6.7-1.6 4.5-1.2 6 .4 1.4 3.8 3.4 5.1 4.2.6.4 2.3 0 3 .2.8.3 1.9-.2 2.7-.4.9-.2 2.2.1 1.3-.2-1.2-.4-3.5-1.7-4.4-2.4-3.2-2.1-2.6-4-2.4-4.9.2-.8 2.1-.2 1.8-.4l2.3.3z"/></g><defs><path id="y" d="M117 69.3c-.4-1.2.1-2.9.7-3.7.2-.2.5-.3.7-.2 2 .9 3.9 1.6 6 2.3l2.6.8c.2.1.4.1.5.3s.1.5 0 .7c-.5 1.8-1.8 3.3-3.6 3.9-1.7.6-3.8.2-5.1-1.2-.7-.7-1.3-1.2-1.6-2.1 0-.2-.1-.5-.2-.8z"/></defs><clipPath id="z"><use xlink:href="#y"/></clipPath><g clip-path="url(#z)" class="o"><path d="M122 65.6c-.8-.6-7.4-2.8-8.2-2.4-1.6.7-1.6 4.5-1.2 6 .4 1.4 3.8 3.4 5.1 4.2.6.4 2.3 0 3 .2.8.3 1.5 2 2.4 1.8s2.1-.6 1.1-.9c-1.2-.4-3.2-1.8-4.1-2.4-3.2-2.1-2.3-5.3-2.1-6.3.2-.8 2.4 0 2.1-.2h1.9z"/></g></g><path d="M119.4 67.2c.6 1.1 1.6 1.6 2.7 2.2l1.7.8c.2.1.3.2.5.2-.1-.1 0 0 .1.1.3.2-.1-.1-.1-.2 0 1.9 3.2 1.3 2.6-.6-.5-1.2-1.7-1.5-2.7-1.8-1.4-.4-2.8-.6-3.9-1.4-.6-.4-1.2.2-.9.7h0z" class="u v"/></svg>