<svg xmlns="http://www.w3.org/2000/svg" viewBox="0 0 389 157"  xmlns:v="https://vecta.io/nano"><style><![CDATA[.O{fill:#d19990}.P{fill:#e2a59f}.Q{fill:#ffd5c5}]]></style><path d="M107.8 92.2c-.8-.6-1.4-1.3-1.6-2.2-.2-.6-.1-1.3 0-1.9.6-2.6 2.9-4.6 5.5-5.1s5.4.2 7.6 1.6c4.7-1.9 10.2-1.5 14.6.9 1.1.5 2 1.3 2.9 2.2 1.4 1.6 2.1 3.6 2.8 5.6.1.6.4 1.2.4 1.7 0 1.1-.8 2.1-1.8 2.6s-2.1.6-3.2.7c-2.2-.1-4.3-.6-6.5-1.1-3.6-.8-7.1-1.6-10.8-2.2-3.4-.6-7.2-.7-9.9-2.8z" class="O"/><g class="P"><path d="M139.5 93.5c-.1-.1 0-.2-.1-.3-.6-2-1.4-4-2.8-5.6-.8-.9-1.8-1.6-2.9-2.2-2.6-1.4-5.6-2.2-8.7-2.1-.2.2-.2.3-.4.5-1.2 2.1-3.5 2.7-5 4.3-.2.3-.4.5-.4.8-.1.5.6.9 1.1 1 .9.2 1.9 0 2.8 0 1.9.1 3.5 1.1 5.3 1.9 1.7.7 3.5 1.2 5.4 1.3 1.6.1 3.2-.1 4.7.3.3.1.7.2 1 .1z"/><path d="M123.2 84.3a2.36 2.36 0 0 0 .8-.9c-1.7.1-3.3.5-4.8 1.1-2.3-1.4-5-2.2-7.6-1.6-1.4.3-2.6 1-3.5 1.8 1.1.2 2 .9 2.6 2 .6.9.8 1.9 1.4 2.8.6.7 1.6 1.1 2.6 1.2.9.1 2 0 2.8-.1.4-.1 1-.1 1.1-.6.1-.4-.1-.7-.2-1 0-.5.4-.9.8-1.3l4-3.4zm3 8.8l-3.6-2m-4.4 2.1c.4-.4 1.1-.7 1.4-1.4.3-.6-.2-1.4-.8-1.2 0 .4-.5.8-.9.9s-.9.1-1.3.1c-1.2-.1-2.6-.2-3.8-.6s-2.3-1.3-2.8-2.4c-.2-.6-.3-1.3-.6-1.9-.4-.8-1.1-1.2-1.9-1.4-.7.7-1.2 1.7-1.4 2.7-.1.6-.2 1.3 0 1.9.2.9 1 1.6 1.6 2.2 2.5 2 6.1 2.1 9.3 2.6l1.2-1.5zm21.6 1.8v-.3c-.5-.1-1-.1-1.5-.2-3.8-.2-7.8-.5-11.2-2.3-1.4-.6-2.7-1.6-4.2-1.4.7.8 1.8 1.2 2.9 1.5 1.5.5 3 1.2 3.8 2.5.7.9.9 2.2 1.7 2.9 1.1.2 2.3.4 3.4.4s2.2-.1 3.2-.7c1.1-.3 1.8-1.3 1.9-2.4z"/></g><g class="Q"><path d="M139.2 92.8c-.6-1.9-1.4-3.7-2.6-5.1-.8-.9-1.8-1.6-2.9-2.2-4.4-2.4-9.9-2.8-14.6-.9-2.3-1.4-5-2.2-7.6-1.6s-4.9 2.6-5.5 5.1c-.1.6-.2 1.3 0 1.9 0 .2.2.5.3.6.1-.9.2-1.8.6-2.7.6-1.1 1.5-1.8 2.6-2.3 2-.8 4.7-1 6.9-.4.9.3 1.8.9 2.6 1 1.4.2 2.2.1 3.5-.1 3.9-.7 8.1-.7 11.4 1.3 2.4 1.4 4 3.3 5.3 5.4z"/><path d="M114.5 85.3l-.6.9c-.2.2-.3.4-.4.6"/></g><path d="M130.6 96.9c2.4.5 5 1 7.1-.1.6-.3 1.2-.8 1.5-1.5m89.9 5.4c-.9-.3-1.7-.8-2.2-1.6-.4-.5-.5-1.2-.6-1.8-.2-2.7 1.3-5.3 3.6-6.6s5.2-1.5 7.7-.8c3.9-3.3 9.2-4.6 14.1-3.7 1.2.2 2.3.6 3.4 1.1 1.8 1.1 3.1 2.8 4.4 4.4.3.5.7 1 .9 1.5.3 1.1-.1 2.2-.9 3s-1.8 1.2-2.9 1.6c-2.1.6-4.3.8-6.5 1-3.7.4-7.3.7-11 1.3-3.1.6-6.8 1.8-10 .6z" class="O"/><g class="P"><path d="M259.7 92c-.1-.1-.1-.2-.2-.3-1.2-1.7-2.5-3.4-4.4-4.4-1-.6-2.2-1-3.4-1.1-2.9-.6-6-.3-8.9.7-.1.2-.1.3-.2.6-.5 2.4-2.4 3.6-3.4 5.7-.1.3-.2.6-.1.9.1.5.8.7 1.3.6.9-.1 1.8-.6 2.7-.8 1.8-.5 3.7-.1 5.6.1 1.8.2 3.7 0 5.5-.5 1.5-.4 3-1 4.6-1.2.2 0 .6 0 .9-.3zm-18.3-3.6c.2-.3.4-.7.5-1.1-1.6.6-3 1.5-4.3 2.6-2.6-.7-5.4-.5-7.7.8-1.2.7-2.2 1.7-2.8 2.8 1.1-.1 2.2.3 3.1 1.1.8.7 1.3 1.6 2.2 2.2.8.5 1.9.6 2.8.4s1.9-.6 2.7-.9c.4-.2.9-.4.9-.9 0-.4-.3-.6-.5-.9-.2-.5.1-1 .4-1.5.8-1.7 1.8-3.1 2.7-4.6z"/><path d="M247 95.8c-1.3-.3-2.7-.5-4-.7m-3.6 3.2c.3-.5.8-1 .9-1.7s-.6-1.3-1.1-.9c.1.4-.2.9-.6 1.1s-.8.4-1.2.5c-1.2.3-2.5.6-3.8.7-1.3 0-2.6-.5-3.4-1.4-.4-.5-.7-1.1-1.1-1.6-.6-.6-1.4-.8-2.2-.8-.4.9-.6 2-.5 3 .1.6.2 1.3.6 1.8.5.8 1.4 1.2 2.2 1.6 3 1.2 6.5.1 9.7-.4 0-.6.2-1.3.5-1.9z"/><path d="M260.4 93.3c0-.1-.1-.2-.1-.3l-1.5.3c-3.7 1-7.6 1.9-11.4 1.4-1.5-.2-3-.7-4.4 0 .9.6 2.1.6 3.2.6 1.6 0 3.2.3 4.4 1.1.9.7 1.5 1.8 2.5 2.3 1.1-.1 2.3-.3 3.4-.7 1.1-.3 2.1-.8 2.9-1.6 1-.9 1.3-2 1-3.1z"/></g><g class="Q"><path d="M259.2 91.5c-1.1-1.6-2.4-3.1-4.1-4-1-.6-2.2-1-3.4-1.1-4.9-.9-10.3.5-14.1 3.7-2.6-.7-5.4-.5-7.7.8s-3.8 4-3.6 6.6c.1.6.2 1.3.6 1.8.1.2.3.4.5.5-.2-.9-.4-1.8-.2-2.8.3-1.2.9-2.2 1.8-3 1.7-1.4 4.2-2.5 6.5-2.5.9 0 2 .3 2.8.2 1.4-.2 2.1-.5 3.3-1.1 3.5-1.9 7.5-3.2 11.3-2.4 2.3.3 4.4 1.7 6.3 3.3z"/><path d="M233.4 92l-.3 1c-.1.2-.2.5-.2.7"/></g><path d="M252.3 98.1c2.4-.2 5.1-.6 6.8-2.3.5-.5.9-1.1 1-1.9m61.8-28.3c-3.4-1.3-6.9-2.5-10.4-3.7-2.1-.6-4.2-1.3-6.1-2.4-1-.6-1.8-1.3-2.4-2.2-.6-1-.7-2.1-.2-3.1.3-.5.7-.9 1.2-1.2 1.6-1.4 3.3-2.8 5.3-3.3 1.1-.3 2.4-.4 3.6-.4 5 .2 9.9 2.8 13 6.8 2.7-.1 5.4.7 7.3 2.5s2.9 4.7 2 7.2c-.1.6-.5 1.2-1 1.6-.7.7-1.6.8-2.5 1-3.4.5-6.7-1.6-9.8-2.8z" class="O"/><g class="P"><path d="M304.9 53.6c1.6.4 2.8 1.4 4.2 2.2 1.6.9 3.4 1.4 5.2 1.7 1.9.3 3.9.1 5.5 1.1.8.4 1.6 1.2 2.4 1.4.5.1 1.1.2 1.4-.3.2-.3.1-.6.1-.9-.5-2.3-2.1-3.9-2.1-6.3 0-.2 0-.4-.1-.6-2.5-1.5-5.4-2.6-8.5-2.7-1.2-.1-2.5 0-3.6.4-2 .6-3.7 2-5.3 3.3-.1.1-.1.2-.3.2.3.3.7.4 1.1.5z"/><path d="M324.3 58.6c.2.5.3 1.1 0 1.6-.2.3-.6.5-.7.8-.1.4.3.8.7 1.1.8.6 1.6 1.2 2.4 1.5.8.4 1.9.6 2.8.3 1-.3 1.7-1.1 2.7-1.6 1.1-.7 2.2-.7 3.3-.3-.4-1.2-1.1-2.4-2.1-3.4-1.9-1.8-4.7-2.6-7.3-2.5-1-1.3-2.3-2.5-3.6-3.5-.1.4 0 .8.2 1.2.4 1.5 1 3.2 1.6 4.8zm-4.8 1.2c-1.3 0-2.7-.2-4.1-.2"/><path d="M322.4 65.8c2.9 1.1 6.2 3 9.3 2.6.9-.1 1.8-.4 2.5-1 .4-.4.8-1 1-1.6.3-.9.4-2.1.2-3-.8-.2-1.6-.2-2.3.3-.6.3-.9.8-1.5 1.3-1 .8-2.4 1-3.7.6s-2.5-.9-3.5-1.5c-.4-.2-.8-.4-1-.8s-.4-.8-.3-1.2c-.4-.5-1.2 0-1.3.6 0 .6.2 1.2.5 1.9.2.4.2 1.2.1 1.8zM303 57.4c.6 1 1.5 1.6 2.4 2.2 1 .6 2 1 3.2 1.4 1.1-.3 1.9-1.2 3-1.6 1.4-.6 3.1-.5 4.6-.1 1.1.3 2.2.5 3.3.2-1.2-.9-2.8-.8-4.3-1-3.8-.3-7.4-2.1-10.8-3.9-.5-.2-.9-.4-1.4-.6 0 .1-.1.2-.2.3-.5.9-.3 2.1.2 3.1z"/></g><path d="M311.6 50.7c3.9 0 7.5 2.2 10.4 4.8 1 .9 1.7 1.4 2.9 1.9.9.3 2 .3 2.8.5 2.2.4 4.4 2 5.7 3.9.7 1 1 2.2 1 3.3 0 1-.5 1.8-.9 2.7.2 0 .4-.2.6-.4.4-.4.8-1 1-1.6.8-2.5-.1-5.5-2-7.2-1.9-1.8-4.7-2.6-7.3-2.5-3-4-8-6.6-13-6.8-1.2-.1-2.5 0-3.6.4-1.9.6-3.4 1.7-4.9 3 2.4-1.2 4.8-2.1 7.3-2zm18 10.1c.1-.2.1-.5 0-.7 0-.3-.1-.6-.1-1" class="Q"/><path d="M303.1 54.8c-.1.7.2 1.4.5 2.1 1.2 2.1 3.8 3 6.1 3.8m-199.6-6.4c3.5-1.2 6.9-2.4 10.3-3.8 2-.8 4.1-1.7 6.2-2 1.1-.2 2.2-.2 3.3.1 1 .4 1.9 1.2 2.1 2.3.1.6 0 1.2-.1 1.8-.4 2.1-.8 4.2-1.9 6-.7 1-1.6 1.8-2.5 2.6-4 3-9.4 4.2-14.3 3-2 1.8-4.6 2.9-7.2 2.7s-5.2-1.8-6.2-4.3c-.2-.6-.4-1.3-.3-1.9.1-.9.7-1.7 1.3-2.4 2.3-2.5 6.1-3.1 9.3-4.1z" class="O"/><g class="P"><path d="M130.9 52.7c-1.4.6-3.1.7-4.6 1-1.8.4-3.5 1-5.1 2s-3.1 2.3-4.9 2.6c-.9.2-1.9.1-2.8.4-.5.2-.9.6-.9 1.1 0 .3.3.5.5.7 1.8 1.4 4.2 1.6 5.6 3.6.1.2.3.3.4.5 3-.4 5.9-1.5 8.2-3.4 1-.7 1.9-1.6 2.5-2.6 1.1-1.8 1.6-3.9 1.9-6 0-.1 0-.2.1-.3l-.9.4zm-18.2 8.5c-.4-.3-.9-.6-1-1.1 0-.3.2-.7 0-1.1s-.7-.4-1.1-.4c-1 0-1.9.1-2.9.3-.9.3-1.8.8-2.3 1.6-.6.9-.6 2-1 2.9-.5 1.2-1.2 2-2.3 2.4 1.1.7 2.4 1.2 3.8 1.3 2.6.2 5.3-1 7.2-2.7 1.6.4 3.3.5 5 .4-.2-.3-.6-.6-.9-.8l-4.5-2.8zm2.9-4l3.3-2.5m-9.3-.2c-3 1-6.6 1.6-8.8 4-.6.7-1.2 1.5-1.3 2.4-.1.6.1 1.3.3 1.9.4 1 1 1.8 1.8 2.5.7-.3 1.3-.9 1.6-1.7.2-.6.2-1.3.3-1.9.3-1.2 1.3-2.2 2.4-2.8 1.2-.6 2.4-.8 3.7-1.1.4-.1.9-.2 1.3-.1s.9.4 1 .8c.6.1 1-.8.6-1.4s-1-.8-1.5-1.1c-.6-.4-1.1-.9-1.4-1.5z"/><path d="M129.9 48.7c-1.1-.4-2.2-.3-3.3-.1s-2.2.5-3.3.9c-.7.9-.8 2.1-1.3 3.2-.7 1.4-2.1 2.3-3.5 3-1 .5-2.1 1-2.6 1.9 1.5-.1 2.7-1.2 3.9-2 3.2-2.2 7-3.1 10.8-3.8.5-.1 1-.2 1.5-.4V51c-.3-1.1-1.2-2-2.2-2.3z"/></g><path d="M127.5 59.2c-3.1 2.5-7.2 3.1-11.1 3-1.4 0-2.2 0-3.5.4-.8.3-1.7 1-2.5 1.4-2 1-4.7 1.2-6.8.7-1.1-.3-2.2-1-2.9-1.9-.7-.8-.8-1.7-1.1-2.6-.1.2-.1.4-.2.7-.1.6.1 1.3.3 1.9.9 2.5 3.5 4.1 6.2 4.3 2.6.2 5.3-1 7.2-2.7 4.9 1.2 10.3 0 14.3-3 1-.7 1.9-1.6 2.5-2.6 1.1-1.6 1.5-3.5 1.8-5.4-.9 2.1-2.3 4.3-4.2 5.8zm-20.3 3.7c0 .3.3.4.5.6.3.2.5.5.7.7" class="Q"/><path d="M131.4 50.6c-.4-.6-1.1-1-1.7-1.2-2.3-.8-4.8.1-7.1 1m77.3-10a208.27 208.27 0 0 0 11-.6c2.2-.2 4.4-.4 6.6-.1 1.1.1 2.2.5 3.1 1.1.9.7 1.5 1.7 1.3 2.8-.1.6-.3 1.1-.7 1.6-.9 1.9-1.9 3.8-3.6 5.1-.9.7-2 1.3-3.2 1.7-4.7 1.7-10.2 1.3-14.6-1.3-2.5 1.1-5.2 1.4-7.7.5s-4.4-3.3-4.6-5.9c-.1-.6 0-1.3.3-1.9.4-.9 1.2-1.4 1.9-1.9 3.1-1.7 7-1.1 10.2-1.1z" class="O"/><g class="P"><path d="M220.3 44.9c-1.6.2-3.2-.2-4.7-.4-1.9-.2-3.6 0-5.5.4-1.8.5-3.6 1.4-5.5 1-.9-.1-1.9-.5-2.8-.4-.5.1-1.1.3-1.2.8-.1.3.1.6.2.9 1.3 1.9 3.5 2.8 4.3 5 0 .2.2.4.3.6 2.9.5 6 .3 8.9-.8 1.2-.4 2.3-1 3.2-1.7 1.6-1.4 2.6-3.2 3.6-5.1.1-.1.1-.2.2-.3-.3-.1-.7 0-1 0zm-19.8 2.9c-.4-.3-.7-.9-.6-1.4.1-.3.4-.7.4-1-.1-.4-.6-.6-1-.8-1-.3-1.9-.5-2.8-.5-.9-.1-2 .2-2.7.8-.8.6-1.2 1.7-1.8 2.5-.8 1-1.8 1.5-2.9 1.6.9 1 2 1.8 3.2 2.3 2.5.9 5.4.6 7.7-.5 1.4.8 3.1 1.5 4.6 1.8-.1-.4-.3-.8-.7-1l-3.4-3.8z"/><path d="M204.4 44.8l3.8-1.4m-8.7-3c-3.1.1-6.8-.4-9.6 1.2-.8.4-1.6 1-1.9 1.9-.2.5-.3 1.3-.3 1.9.1 1 .4 2.1 1 2.9.8-.1 1.6-.4 2.1-1.1.4-.5.5-1.1.8-1.7.6-1.1 1.8-1.8 3.1-2s2.6-.1 3.8 0a3.08 3.08 0 0 1 1.3.3c.3.3.7.6.8 1 .6.3 1.1-.5 1-1.1-.2-.6-.7-1-1.1-1.5-.6-.5-.9-1.1-1-1.8z"/><path d="M220.5 40.8c-.9-.7-2-.9-3.1-1.1-1.1-.1-2.3-.2-3.5-.1-.9.7-1.3 1.8-2.1 2.7-1 1.1-2.7 1.6-4.2 1.9-1.1.2-2.3.3-3.1 1.1 1.5.4 2.9-.3 4.3-.8 3.7-1.2 7.7-.9 11.4-.5.5 0 1 0 1.5.1 0-.1.1-.2.1-.3.2-1.3-.4-2.4-1.3-3z"/></g><path d="M215.2 50.1c-3.6 1.5-7.8.9-11.5-.5-1.3-.4-2.1-.6-3.4-.6-.9 0-1.9.5-2.7.6-2.2.4-4.9-.2-6.8-1.4-1-.7-1.8-1.7-2.2-2.7-.3-1-.3-1.9-.2-2.8-.2.1-.3.3-.4.6-.2.5-.3 1.3-.3 1.9.2 2.6 2.2 5 4.6 5.9s5.4.6 7.7-.5c4.3 2.6 9.9 3 14.6 1.3 1.2-.4 2.3-1 3.2-1.7 1.5-1.2 2.5-2.9 3.3-4.7-1.7 2.1-3.6 3.8-5.9 4.6zm-20.5-2.3c-.1.2.1.5.3.7.1.3.3.6.4.9" class="Q"/><path d="M221.4 43.1c-.2-.7-.7-1.2-1.3-1.7-1.9-1.4-4.7-1.3-7.1-1.1" class="O"/></svg>