<svg xmlns="http://www.w3.org/2000/svg" viewBox="0 0 389 157"  xmlns:v="https://vecta.io/nano"><path d="M99.1 85.2s-28.3-2.7-17.6-7.7c11-2.8 36.9 2.4 47.1-3-7.8-7.4-40.5.8-39.9-4.9 7.6-6.1 31.7-24.2 67.8-20.1 23.4.8 12.7 1.2-7 6.1-3.7 5.7 43.8-6.5 57.2-8.2 13.4-1.6 36.2-10 40.8-6.3-7.4 8.4-23.4 13.9-14.4 13.1 9-.7 33.2-13.6 47.2-7.1 12.7 6.5 14.4 13.4 10.7 15.3 1.6 5.1 23-3.3 12.3-9.6 5.3-3.2 41.4 10.9 28.7 19.6-13.1 8.7-13.9 17.9-42.2 9.4-13.5-.3-22 18.6-30.3 16.1s-34-11.8-54.6-7.9c-2.8 4.6 11.6 1.3 17.3 2.7 2 3.6-11 7.8-27.5 5.5s-24.9-9.8-34.3-5.5c-9.7 4.3-45.7 2.7-61.3-7.5z" fill="#ffe167"/></svg>