<svg xmlns="http://www.w3.org/2000/svg" xmlns:xlink="http://www.w3.org/1999/xlink" viewBox="0 0 389 157" xmlns:v="https://vecta.io/nano"><style><![CDATA[.Q{fill:#fff4c5}.R{fill:#fff424}.S{fill:#f2d025}.T{fill:#e8c325}.U{fill:#fcdf23}.V{enable-background:new}]]></style><g class="Q"><path d="M111.6 69.3l4.1 6.5-.2.1-4.5-6.5z"/><path d="M105.8 70.5l9.7 5.4v.1l-10.1-5.3z"/><path d="M104.1 75l11.2.8.2.1-11.1-.4z"/><path d="M108.4 79.2l7-3.3.3.1-6.8 3.5z"/></g><g class="R"><path d="M114.9 76.7c-.1.1-.3.3-.5.4-.1.1 0 .2.1.1s.3-.3.4-.5c.2 0 .1-.1 0 0h0z"/><use xlink:href="#B"/><path d="M112.8 78.1c-.1 0-.2.1-.3.1-.1.1-.2.1-.3.2s0 .2.1.2c.1-.1.2-.1.2-.2.1 0 .2-.1.2-.1.3 0 .3-.2.1-.2h0z"/><use xlink:href="#B" x="-2.4" y="1"/><path d="M105.7 75.9c.3.1.7 0 1 0 .1 0 .1-.2 0-.2h-1s-.1.2 0 .2h0zm.4.4h.5c.1 0 .1-.2 0-.2h-.5c-.2.1-.2.2 0 .2h0zm1.1.6h.6c.1 0 .2-.2 0-.2h-.7s0 .2.1.2h0z"/><use xlink:href="#C"/><path d="M108.7 78c.2 0 .3-.1.5-.1.1 0 .1-.2-.1-.2s-.3.1-.5.1c-.1 0 0 .2.1.2h0zm.2-.7c.2-.1.4-.1.7-.1.1 0 .1-.2 0-.2-.2 0-.5 0-.7.1s-.2.2 0 .2h0zm1.4.3c.2-.1.4-.1.6-.1.1 0 .1-.2 0-.2-.2 0-.4.1-.6.1-.1 0-.1.2 0 .2h0zm-1.8-1.1h.6c.1 0 .1-.2 0-.2-.2 0-.4.1-.6 0-.1 0-.1.2 0 .2h0z"/><use xlink:href="#D"/><use xlink:href="#D" x="2.1" y="0.2"/><path d="M110.2 76.6h.5c.1 0 .1-.2 0-.2-.2 0-.4 0-.5.2-.2-.1-.1 0 0 0h0zm1.4.3c.2 0 .5-.1.7-.1.1 0 .1-.2-.1-.2s-.4.1-.7.1c0 0 0 .2.1.2h0z"/><use xlink:href="#E"/><path d="M112.9 76.4h.6c.1 0 .1-.2 0-.2h-.6c-.2 0-.2.2 0 .2h0zm-7.9-1.8c.2 0 .4 0 .5.1.1 0 .2-.1.1-.2-.2-.1-.4-.1-.7-.1 0 0 0 .2.1.2h0zm-.3-.7h.4c.1 0 .1-.2 0-.2h-.4s-.1.1 0 .2h0zm1.4.3h.6c.1 0 .2-.2 0-.2s-.4 0-.7-.1c-.1.1-.1.3.1.3h0zm.8.4h.5c.1 0 .1-.2 0-.2h-.5c-.1.1-.1.3 0 .2h0zm1.9.1h.5c.1 0 .2-.1 0-.2h-.5c-.2 0-.1.2 0 .2h0z"/><use xlink:href="#F"/><path d="M106.7 73.1a.9.9 0 0 1 .5.1c.1 0 .1-.2 0-.2s-.3 0-.4-.1c-.2 0-.2.2-.1.2h0zm-1.6-.3c.1 0 .3.1.4.1s.1-.2 0-.2-.2 0-.3-.1c-.2 0-.2.2-.1.2h0zm1.6-.5c.1 0 .2.1.3.1s.2-.1.1-.2-.3-.1-.4-.2c0 .1-.1.3 0 .3h0zm2.1 1.2c.1.1.3.1.4.2.1 0 .2-.1 0-.2-.1 0-.3-.1-.4 0 0-.2-.2-.1 0 0h0zm.6.6c.2 0 .3.1.5.2.1 0 .1-.1 0-.2-.2-.1-.3-.1-.5-.2-.1 0-.2.2 0 .2h0z"/><use xlink:href="#G"/><path d="M111 74.5c.2 0 .3.1.4.1s.1-.1 0-.2-.3-.1-.4-.1-.2.1 0 .2h0z"/><use xlink:href="#F" x="4.3" y="1.2"/><path d="M107.8 70.8l.6.3c.1 0 .2-.1.1-.2-.2-.1-.4-.2-.7-.3 0 0-.1.2 0 .2h0zm1.2-.2c.1.1.2.1.3.2s.2-.1.1-.2-.2-.1-.3-.2c-.1 0-.2.1-.1.2h0zm.5.9c.1.1.2.1.4.2.1.1.2-.1.1-.2s-.2-.1-.4-.2c-.1-.1-.2.1-.1.2h0z"/><path d="M110 71.8c.1 0 .2-.1 0-.2-.1 0-.2.1 0 .2h0zm.9.7c.1.1.2.1.3.2s.2-.1 0-.2c-.1 0-.2-.1-.3 0 .1-.2-.1-.1 0 0h0zm-.3-1.2c.2.1.3.3.5.4.1.1.2-.1.1-.2-.2-.1-.3-.3-.5-.4-.1 0-.2.1-.1.2h0zm.1-1.1l.3.3h.1v-.1l-.2-.2h-.2c-.1-.1-.1 0 0 0h0zm1.5 1.9c.1.1.3.2.4.3s.2 0 .1-.1-.3-.2-.4-.4c-.1 0-.2.1-.1.2h0zm.4 1c.1.1.2.2.3.2.1.1.2-.1.1-.2s-.2-.1-.3-.2c-.1 0-.2.1-.1.2h0zm.6.9c.1 0 .1.1.2.1.1.1.2-.1.1-.2-.1 0-.1-.1-.2-.1s-.2.1-.1.2h0zm1.1-1.4l.3.3c.1.1.2 0 .2-.1l-.3-.3c-.1-.1-.2 0-.2.1h0zm.7-1.2c0 .1.1.2.1.3s.2.1.2-.1c0-.1-.1-.2-.1-.3-.1-.1-.3 0-.2.1h0zm-1 0c0 .1.1.2.2.2h.1v-.1s-.1-.1-.1-.2l-.1-.1c-.1 0-.1.1-.1.2h0zm2 .6h0c0 .1 0 .2.1.2 0 0 .1 0 .1-.1v-.2l-.1-.1c-.1.1-.1.1-.1.2h0zm-.4 1.1v.4c0 .1.2.1.2 0v-.4c0-.2-.2-.2-.2 0h0zm-.4 1c0 .1.1.2.1.3.1.1.2 0 .2-.1-.1-.1-.1-.2-.1-.3s-.2 0-.2.1h0zm.9-.6v.2c0 .1.1.2.2 0v-.3s-.2 0-.2.1h0z"/></g><use xlink:href="#H" class="S"/><path d="M116.1 71.4c-1.5-1.4-3.8-.1-5.9.6-1.8.6-3.3 1.5-4.5 2.7-.2.2-.7.7-.6 1 .1.2.4.4.7.1l-.2.2c1.3.4-.9 3.9-1.6 4.3-.5.3 2.1 0 3-.1 3.3-.5 6.6-2.2 8.3-3.7.5-.5 1-1.5 1.2-2.1.1-.6.2-2.4-.4-3z" class="T"/><ellipse transform="matrix(.9997 -.02627 .02627 .9997 -1.8588 2.7177)" cx="102.5" cy="72.1" rx="13.6" ry="6.8" class="R"/><ellipse transform="matrix(.9997 -.02627 .02627 .9997 -1.8587 2.7203)" cx="102.6" cy="72.1" rx="13" ry="6.4" class="Q"/><ellipse transform="matrix(.9997 -.02627 .02627 .9997 -1.8509 2.7202)" cx="102.6" cy="71.8" rx="11.7" ry="5.5" class="U"/><g class="Q"><ellipse transform="matrix(.9997 -.02627 .02627 .9997 -1.8561 2.7229)" cx="102.7" cy="72" rx="1.2" ry=".4"/><path d="M102.7 72l7.3-4.9.3.2-7.3 4.8z"/><path d="M103.2 66.2l-.5 5.7.3.1.7-6z"/><path d="M97 66.8l5.7 5.1-.1.2-6.1-5.1z"/><path d="M91.8 69.5l10.8 2.6v.1l-11.1-2.4z"/><path d="M91.3 74.3l11-2.3.3.1-10.9 2.6z"/><path d="M96.6 77.2l5.9-5.1.3.1-5.7 5.2zm6.4-5.1l1.5 5.7.4-.1-1.8-5.7z"/><path d="M103.3 72l9.9 2.6-.3.4-9.8-2.9z"/><path d="M114.2 69.9c-.1 0-11.3 2-11.3 2v.1l11.7-1.8-.4-.3z"/></g><g class="R"><path d="M102.2 73c-.1.2-.2.3-.3.5-.1.1.1.2.2.1.1-.2.2-.3.3-.5 0-.1-.1-.2-.2-.1h0zm.3.3c-.1.2-.1.4-.1.6 0 .1.2.1.2 0 0-.2 0-.3.1-.5 0-.2-.2-.3-.2-.1h0zm.3.2c0 .2.1.4.1.6 0 .1.2.2.2 0v-.7c-.1 0-.3 0-.3.1h0zm-1.3.6c-.2.2-.3.4-.4.5s.1.2.1.1c.2-.2.3-.4.3-.6.2 0 .1-.1 0 0h0zm.4.1c-.1.1-.2.3-.2.5 0 .1.2.2.2 0s.1-.3.2-.4c.1-.2-.1-.2-.2-.1h0zm.6.3c-.1.2-.1.4-.1.6 0 .1.2.1.2 0 0-.2 0-.4.1-.6 0-.1-.1-.2-.2 0h0zm.6.3c.1.2.1.3.1.5 0 .1.2.1.2 0 0-.2-.1-.4-.1-.5s-.2-.1-.2 0h0zm-1.2.5c-.1.2-.2.4-.2.6 0 .1.1.2.2 0 0-.2.1-.4.2-.5s-.1-.2-.2-.1h0zm-.6-.2c-.1.1-.2.3-.3.4s.1.2.1.1c.1-.2.2-.3.2-.5.2-.1 0-.1 0 0h0zm-.7-.2c-.1 0-.2.1-.2.2-.1.1-.2.2-.2.3-.1.1 0 .2.1.1s.1-.2.2-.2c.1-.1.1-.2.2-.2 0 0 0-.2-.1-.2h0zm-1.2.8c-.2.2-.3.4-.5.6-.1.1.1.2.1.1.2-.2.3-.4.4-.7.2 0 .1-.1 0 0h0zm.2.5c-.1.2-.2.3-.3.5-.1.1.1.2.2.1.1-.2.2-.3.3-.5.1-.1-.1-.2-.2-.1h0zm.8-.2c-.1.2-.1.4-.2.7 0 .1.1.2.2.1.1-.2.1-.5.2-.7 0-.2-.1-.2-.2-.1h0zm1 .1v.5c0 .1.2.1.2 0v-.5c-.1-.2-.2-.2-.2 0h0zm1.1-.2c-.1.2 0 .5 0 .7 0 .1.2.1.2 0 0-.2-.1-.5 0-.7 0-.1-.2-.1-.2 0h0zm.7 0c0 .3.2.6.3.9 0 .1.2 0 .2-.1-.1-.3-.3-.6-.3-.8 0-.1-.2-.1-.2 0h0zm.4-.1c0 .1.1.3.1.5 0 .1.2.1.2-.1 0-.1 0-.1-.1-.2v-.1c-.1-.2-.3-.2-.2-.1h0zm-10.4-1c.3 0 .7-.2 1-.2.1 0 .1-.2-.1-.2-.3.1-.7.2-1 .2-.1 0-.1.2.1.2h0z"/><path d="M93.6 75.1c.2-.1.4-.1.5-.1s.1-.2-.1-.2c-.2.1-.4.1-.5.1s0 .2.1.2h0zm1.2.2c.2-.1.4-.1.6-.2.1 0 .1-.2 0-.2-.2 0-.4.1-.6.2s-.1.2 0 .2h0zm.3.6c.2-.1.3-.2.5-.2.1 0 0-.2-.1-.2-.2.1-.4.2-.4.4-.3-.1-.2 0 0 0h0zm1.4 0c.2-.1.3-.1.5-.2.1 0 0-.2-.1-.2-.2.1-.3.1-.5.2-.1.1 0 .3.1.2h0z"/><path d="M96.5 75.2l.6-.3c.1 0 .1-.2-.1-.2-.2.1-.5.1-.6.3-.1.1 0 .3.1.2h0zm1.5-.1c.2-.1.3-.2.5-.2.1 0 0-.2-.1-.2-.2.1-.4.2-.6.2 0 .1.1.3.2.2h0zm-2-.5c.2-.1.4-.1.6-.2.1 0 0-.2-.1-.2-.2.1-.4.2-.6.2-.1 0-.1.2.1.2h0zm-1-.3c.2-.1.3-.1.5-.1.1 0 0-.2-.1-.2-.2.1-.3.1-.5.1-.1.1 0 .3.1.2h0z"/><path d="M97.1 74c.2 0 .3-.1.5-.1.1 0 .1-.2-.1-.2-.2.1-.3.1-.5.1-.1 0 0 .2.1.2h0zm.5.2c.2-.1.3-.1.5-.2.1 0 .1-.2-.1-.2-.2.1-.4.1-.6.2 0 .1.1.3.2.2h0zm1.5-.1c.2-.1.5-.2.7-.3.1 0 0-.2-.1-.2l-.6.3c-.2.1-.1.3 0 .2h0zm-.3-.5c.2 0 .4-.1.6-.2.1 0 0-.2-.1-.2-.2.1-.4.1-.6.2 0 0 0 .2.1.2h0zm1.3-.3c.2-.1.4-.1.6-.2.1 0 0-.2-.1-.2-.2.1-.4.1-.6.2 0 0 0 .2.1.2h0zm-8 .4c.2-.1.4-.1.6-.1.1 0 .2-.1 0-.2-.2 0-.4 0-.6.1s-.1.2 0 .2h0zm-.4-.6c.1 0 .3 0 .4-.1.1 0 0-.2-.1-.2s-.2.1-.4.1c-.1 0-.1.2.1.2h0zM93 73c.2-.1.4-.1.6-.1.1 0 .1-.2 0-.2-.2 0-.4.1-.7.1-.1.1 0 .2.1.2h0zm1 .2c.1 0 .3-.1.4-.1s.1-.2-.1-.2c-.1 0-.3.1-.4.1-.1.1-.1.2.1.2h0zm1.8-.4c.2-.1.3-.1.5-.1.1 0 .1-.2 0-.2-.2 0-.3.1-.5.1s-.1.2 0 .2h0zm-1.2-.6h.6c.1 0 .1-.2 0-.2h-.6c-.1.1-.1.3 0 .2h0zm-1.3-.4c.2 0 .3 0 .5-.1.1 0 .1-.2-.1-.2-.1 0-.3.1-.4.1s-.1.2 0 .2h0zm-1.6.1h.4c.1 0 .1-.2-.1-.2h-.4c0 .1 0 .3.1.2h0zm1.5-.9h.4c.1 0 .2-.1 0-.2h-.4c-.2.1-.2.3 0 .2h0zm2.2.6h.4c.1 0 .1-.2 0-.2h-.4s-.1.2 0 .2h0zm.8.4h.5c.1 0 .1-.2 0-.2h-.5c-.2.1-.2.2 0 .2h0z"/><use xlink:href="#E" x="-14.4" y="-3.8"/><path d="M97.8 71.9h.4c.1 0 .1-.2 0-.2h-.4c-.1.1-.1.3 0 .2h0zm1.3.4h.6c.1 0 .1-.2 0-.2h-.6c-.2 0-.2.2 0 .2h0zm4.5.5c.1.2.2.4.4.6.1.1.2 0 .2-.1-.1-.2-.3-.3-.4-.5s-.3-.2-.2 0h0zm.4.1c.1.1.3.2.4.3s.2-.1.1-.1c-.1-.1-.3-.2-.5-.2 0-.2-.1-.1 0 0h0z"/><path d="M104.8 73.1c.2 0 .4.1.6.2.1 0 .2-.2 0-.2-.2-.1-.4-.2-.6-.2 0 0-.1.1 0 .2h0zm-.9.6c.1.2.3.4.4.7.1.1.2 0 .2-.1-.1-.2-.3-.4-.4-.7-.1-.1-.3 0-.2.1h0zm.5.1c.2.1.3.2.4.3s.2-.1.1-.2-.3-.2-.4-.3-.2.1-.1.2h0zm.9 0c.1.1.3.1.4.2s.2-.1.1-.2a.76.76 0 0 0-.4-.2c-.1 0-.2.2-.1.2h0z"/><path d="M106 73.5c.2.1.4.2.6.2.1 0 .2-.2 0-.2-.2-.1-.4-.2-.6-.2-.1 0-.1.2 0 .2h0zm-1.5 1.5a1.38 1.38 0 0 0 .3.4c0 .1.2 0 .2-.1-.1-.2-.2-.3-.3-.4s-.3 0-.2.1h0zm.5-.4l.3.3h.1v-.1c-.1-.1-.2-.1-.4-.2h0zm.9-.1c.2.1.3.2.5.3.1 0 .2-.1.1-.2-.2-.1-.3-.2-.5-.3-.2 0-.3.2-.1.2h0zm.8-.2c.2.1.4.1.6.2.1 0 .2-.2 0-.2s-.4-.1-.6 0c0-.2-.1 0 0 0h0z"/><use xlink:href="#G" x="-2.5" y="-0.8"/><path d="M109 74.4c.2 0 .3.1.5.2.1 0 .2-.1.1-.2-.2-.1-.3-.2-.5-.2-.2-.1-.2.1-.1.2h0zm-4.1 1.6c.1.2.1.4.3.5.1.1.2-.1.1-.1a.76.76 0 0 1-.2-.4c-.1-.2-.2-.1-.2 0h0z"/><path d="M105.3 75.5l.3.3c.1.1.2 0 .2-.1-.1-.1-.2-.3-.3-.4-.2 0-.3.1-.2.2h0z"/><path d="M106.1 76.1l.3.3c.1.1.2 0 .1-.1s-.2-.2-.4-.2h0c-.1 0-.1 0 0 0h0zm-.1-.8c.1.1.2.1.3.2h.1v-.1c-.1-.1-.2-.1-.4-.1h0zm1.2.5c.1.1.2.2.3.2h.1v-.1c-.1-.1-.2-.2-.4-.1h0c-.1 0-.1 0 0 0h0zm-.4-1c.2.1.3.2.5.3.1.1.2-.1.1-.2-.2-.1-.3-.2-.5-.3-.1 0-.2.2-.1.2h0zm1.3.6c.2.1.3.2.4.2s.2-.2 0-.2c-.2-.1-.3-.2-.4-.2 0 0-.1.2 0 .2h0zm-.2-.7c.2.1.4.2.6.2.1 0 .2-.1 0-.2-.2 0-.4-.1-.5-.2s-.2.1-.1.2h0zm1.4.6c.1.1.3.1.4.1s.2-.2 0-.2c-.1 0-.3-.1-.4-.1-.1-.1-.1.1 0 .2h0zm.6-.4c.2.1.5.2.7.3.1 0 .2-.1.1-.2-.2-.1-.5-.2-.8-.3-.1 0-.1.1 0 .2h0z"/><use xlink:href="#D" x="-2.6" y="-3.9"/><path d="M105.7 72.5h.3c.1 0 .2-.2 0-.2h-.4s0 .2.1.2h0zm.9.1a.9.9 0 0 1 .5.1c.1 0 .1-.2 0-.2s-.3 0-.5.1c-.1-.2-.1 0 0 0h0z"/><use xlink:href="#E" x="-4.9" y="-4.3"/><path d="M108.1 72.4c.1 0 .2 0 .3.1s.2-.1 0-.2c-.1 0-.2 0-.3-.1 0 0-.1.2 0 .2h0zm.4.5c.2.1.4.1.6.1.1 0 .1-.2 0-.2-.2 0-.4-.1-.5-.1s-.2.2-.1.2h0zm1.8.7c.1.1.3.1.4.1s.2-.2 0-.2c-.1-.1-.3-.1-.4-.1 0-.1-.1.1 0 .2h0z"/><use xlink:href="#I"/><use xlink:href="#D" x="1.6" y="-4"/><use xlink:href="#C" x="0.9" y="-5.7"/><use xlink:href="#E" x="-0.6" y="-4.9"/><use xlink:href="#D" x="3.5" y="-3.9"/><use xlink:href="#D" x="4.7" y="-3.1"/><path d="M112.9 72.1c.2 0 .3.1.5.1.1 0 .2-.1 0-.2-.2 0-.3-.1-.5-.1 0 0-.1.1 0 .2h0zm-.4-1h.7c.1 0 .1-.2 0-.2h-.7c-.1 0-.1.2 0 .2h0zm-7.9.3c.1-.1.3-.1.4-.2.1 0 0-.2-.1-.2-.2.1-.4.1-.5.2 0 .1.2.3.2.2h0zm1-.1c.1 0 .3-.1.4-.1.1-.1 0-.2-.1-.2-.1.1-.2.1-.4.1-.1 0 0 .2.1.2h0zm2.2-.4c.1 0 .1 0 .2-.1.1 0 0-.2-.1-.2s-.1 0-.2.1 0 .3.1.2h0zm-1.6-.4c.2-.1.3-.1.5-.2.1-.1 0-.2-.1-.2-.1.1-.3.1-.5.2-.1.1 0 .2.1.2h0zm.9.1c.1-.1.3-.1.4-.2.1 0 0-.2-.1-.2-.2.1-.3.1-.4.2-.2 0-.1.2.1.2h0zm1.8-.5c.2-.1.4-.1.6-.2.1 0 0-.2-.1-.2-.2.1-.4.1-.6.2-.1.1 0 .2.1.2h0zm-.9-.5c.1-.1.2-.2.4-.2.1 0 0-.2-.1-.2-.2.1-.3.1-.4.2s0 .3.1.2h0zm1.6-1c.1 0 .2-.1.3-.1s0-.2-.1-.2-.2.1-.2.1c-.2 0-.2.2 0 .2h0zm.1.7l.6-.3c.1 0 .1-.2-.1-.2-.2.1-.5.2-.7.3 0 .1.1.3.2.2h0zm1.5.4c.2-.1.3-.1.5-.1.1 0 .1-.2 0-.2-.2 0-.4.1-.6.1-.1 0-.1.2.1.2h0zm.8.2c.1 0 .2-.1.4-.1.1 0 .1-.2-.1-.2-.1 0-.2.1-.4.1 0 .1 0 .3.1.2h0zm-18.2-.6c.2 0 .5.1.7.1.1 0 .2-.1 0-.2s-.5-.1-.8-.1c0 0 0 .2.1.2h0zm1.1-.6c.1 0 .3 0 .4.1.1 0 .2-.2 0-.2-.1-.1-.2-.1-.4-.1-.1 0-.2.2 0 .2h0zm.6.8c.1 0 .3.1.4.1s.2-.2 0-.2c-.1 0-.3-.1-.4-.1 0 0-.1.1 0 .2h0zm.6.1c.1 0 .1-.2 0-.2s-.1.2 0 .2h0zm1.1.5c.1.1.2.1.4.1.1 0 .1-.2 0-.2s-.2 0-.4.1c0-.3-.1-.1 0 0h0zm-.6-1.1c.2.1.4.2.6.2.1 0 .2-.2 0-.2-.2-.1-.4-.2-.6-.2 0 0-.1.1 0 .2h0zm-.2-1.1c.1.1.2.1.3.2 0 0 .1 0 .1-.1 0 0 0-.1-.1-.1s-.2-.1-.3-.2h-.1c0 .1 0 .2.1.2h0zm2 1.4c.2.1.3.1.4.2s.2-.1.1-.2c-.2-.1-.3-.2-.5-.2-.1 0-.1.2 0 .2h0zm.7.9c.1.1.3.1.4.1s.2-.2 0-.2c-.1 0-.3-.1-.4-.1s-.2.1 0 .2h0zm.7.7c.1 0 .1.1.2.1s.2-.2 0-.2c-.1 0-.1-.1-.2-.1s-.1.2 0 .2h0zm.8-1.6c.1.1.2.2.4.2.1.1.2-.1.1-.1-.1-.1-.2-.2-.5-.1 0-.2-.1-.1 0 0h0z"/><path d="M100.8 67.9c.1.1.1.2.2.3 0 .1.2 0 .2-.1-.1-.1-.1-.2-.2-.3s-.2 0-.2.1h0zm-.9.2l.2.2h.1v-.1c-.1 0-.1-.1-.3-.1.1 0 0-.1 0 0 0-.1 0 0 0 0h0zm2.1.1h0s0 .1 0 0h0c0 .1 0 .2.1.2s.1 0 .1-.1v-.2s-.1-.1-.2.1c0-.1 0 0 0 0h0zm-.1 1.2c0 .1.1.2.1.4 0 .1.2 0 .2-.1s-.1-.2-.1-.4c-.1-.1-.3-.1-.2.1h0z"/><path d="M101.8 70.4c.1.1.1.2.2.3s.2 0 .1-.1-.1-.1-.3-.2c.1-.2 0-.1 0 0h0zm.8-.7v.2c0 .1.2.1.2 0s0-.2-.1-.3c0-.1-.2-.1-.1.1h0zm1 .7c0-.1.1-.2.1-.3s-.1-.2-.2-.1c0 .1-.1.2-.1.3s.1.2.2.1h0zm.1-1.3c0-.1.1-.3.1-.4s-.2-.2-.2 0c-.1.1-.1.3-.1.4s.2.1.2 0h0zm.6.3c.1-.2.2-.4.3-.5 0-.1-.1-.2-.2-.1-.1.2-.2.4-.3.5s.1.2.2.1h0zm1.4-.9c.1-.1.2-.1.3-.2s0-.2-.1-.1-.1.1-.2.3c0-.1-.1 0 0 0-.1.1 0 .1 0 0h0zm1.1 0c.2-.1.3-.2.4-.3s-.1-.2-.1-.1c-.1.1-.3.2-.3.4-.2-.1-.1.1 0 0h0zm-1.8 1.1c.1-.1.3-.2.4-.3s0-.2-.1-.2c-.1.1-.3.2-.4.3s0 .3.1.2h0z"/><path d="M104.1 70.7l.3-.3c.1-.1 0-.2-.1-.1s-.2.2-.2.4c-.2 0-.1.1 0 0h0zm.1-3.6c0 .1 0 .2-.1.3 0 .1.1.2.2 0 0-.1 0-.2.1-.3 0-.1-.1-.1-.2 0h0zm4 .7c.1 0 .2-.1.3-.2s0-.2-.1-.1-.2.1-.2.3c-.2-.2-.1 0 0 0h0z"/></g><g class="Q"><use xlink:href="#J" opacity=".3" class="V"/><path d="M158.2 50.5l3.6 5.7-.1.1-4-5.7z"/><path d="M153.1 51.6l8.6 4.7v.1l-8.9-4.6z"/><path d="M151.6 55.6l9.9.6.2.1-9.8-.4z"/><path d="M155.4 59.2l6.2-2.9.2.1-6 3.1z"/></g><g class="R"><path d="M161.1 57c-.1.1-.3.2-.4.3s0 .2.1.1.3-.2.4-.3 0-.2-.1-.1h0zm-.8.7c-.2.1-.3.2-.5.4-.1.1 0 .2.1.1.2-.1.3-.3.5-.4 0 0 0-.2-.1-.1h0zm-1 .5c-.1 0-.2.1-.2.1-.1.1-.2.1-.3.2s0 .2.1.1c.1 0 .1-.1.2-.1 0 0 .1-.1.2-.1s.1-.2 0-.2h0zm-1.2.4c-.2.1-.4.3-.6.4-.1.1 0 .2.1.1.2-.1.4-.3.6-.4.1 0 0-.2-.1-.1h0zm-5-2.3h.9c.1 0 .1-.2 0-.2h-.9c-.1.1-.1.2 0 .2h0zm.3.4h.5c.1 0 .1-.2 0-.2h-.5c-.2 0-.1.2 0 .2h0zm.9.5h.5c.1 0 .2-.2 0-.2h-.6s0 .2.1.2h0zm.1.5c.2 0 .3-.1.5-.1.1 0 .1-.2 0-.2-.2 0-.4.1-.5.1-.1.1-.1.2 0 .2h0zm1.3.4c.2 0 .3-.1.5-.1.1 0 .1-.2 0-.2-.2 0-.3.1-.5.1-.2.1-.1.2 0 .2h0zm.1-.6c.2-.1.4-.1.6-.1.1 0 .1-.2 0-.2-.2 0-.4 0-.6.1-.1.1-.1.3 0 .2h0zm1.3.3c.2 0 .3 0 .5-.1.1 0 .1-.2 0-.2-.2 0-.4 0-.6.1 0 .1 0 .2.1.2h0zm-1.6-1h.5c.1 0 .1-.2 0-.2h-.5c-.1.1-.1.2 0 .2h0z"/><use xlink:href="#K"/><use xlink:href="#D" x="49" y="-19.4"/><path d="M157 56.9h.5c.1 0 .1-.2 0-.2h-.5c-.2.1-.1.3 0 .2h0zm1.2.3c.2 0 .4-.1.6-.1.1 0 .1-.2 0-.2-.2 0-.4.1-.6.1-.1.1-.1.2 0 .2h0zm-.1-.5h.6c.1 0 .1-.2 0-.2h-.5c-.2 0-.2.2-.1.2h0zm1.2 0h.6c.1 0 .1-.2 0-.2h-.6c-.1.1-.1.2 0 .2h0zm-6.9-1.5a.9.9 0 0 1 .5.1c.1 0 .2-.1.1-.1-.2-.1-.4-.1-.6 0-.1-.2-.1 0 0 0h0zm-.2-.7h.4c.1 0 .1-.2 0-.2h-.3c-.2 0-.2.2-.1.2h0zm1.2.3h.5c.1 0 .2-.2 0-.2h-.6c-.1.1 0 .2.1.2h0z"/><use xlink:href="#K" x="-0.6" y="-1.2"/><path d="M155.7 55.3h.4c.1 0 .2-.1 0-.2h-.5s0 .2.1.2h0zm-.8-.8c.2 0 .4.1.6.1.1 0 .2-.1 0-.2-.2 0-.4-.1-.6-.1-.1.1-.1.2 0 .2h0zm-1-.6c.1 0 .3 0 .4.1.1 0 .1-.2 0-.2s-.2 0-.4-.1c-.1 0-.1.1 0 .2h0zm-1.4-.3c.1 0 .2.1.3.1s.1-.2 0-.2-.2 0-.3-.1c-.1 0-.1.2 0 .2h0z"/><path d="M153.9 53.2c.1 0 .2.1.3.1s.2-.1.1-.1-.2-.1-.3-.1c-.1-.1-.2.1-.1.1h0zm1.8 1c.1 0 .2.1.4.1.1 0 .2-.1 0-.2-.1 0-.2-.1-.3-.1s-.2.1-.1.2h0zm.6.5c.2 0 .3.1.4.1s.1-.1 0-.2-.3-.1-.4-.1c-.1.1-.2.2 0 .2h0zm.6.6a.9.9 0 0 1 .5.1c.1 0 .2-.1 0-.2-.2 0-.3-.1-.5-.1 0 0-.1.2 0 .2h0zm.8-.3c.1 0 .3.1.4.1s.1-.1 0-.2c-.1 0-.3-.1-.4-.1-.1.1-.1.2 0 .2h0zm1 .6c.2 0 .3.1.5.1.1 0 .2-.1 0-.2-.2 0-.3-.1-.5-.1-.1 0-.1.2 0 .2h0zm-3.8-3.7c.2.1.4.1.6.2.1 0 .2-.1.1-.1l-.6-.3c-.1 0-.2.1-.1.2h0zm1-.3c.1 0 .2.1.3.2s.2-.1.1-.1-.2-.1-.3-.2-.2.1-.1.1h0zm.4.8c.1.1.2.1.3.2s.2-.1.1-.1c-.1-.1-.2-.1-.3-.2s-.1.1-.1.1h0z"/><path d="M156.8 52.7c.1 0 .2-.1 0-.2-.1 0-.1.1 0 .2h0zm.8.6c.1.1.2.1.3.1s.2-.1 0-.2c-.1 0-.2-.1-.2-.1s-.2.1-.1.2h0zm-.2-1c.1.1.3.2.4.3s.2-.1.1-.1c-.1-.1-.3-.2-.4-.3-.1-.2-.2 0-.1.1h0zm0-1c.1.1.1.2.2.2h.1v-.1l-.2-.2-.1.1zm1.4 1.7l.3.3c.1.1.2 0 .1-.1s-.2-.2-.4-.2c0-.2-.1-.1 0 0h0zm.3.8c.1.1.2.1.3.2s.2-.1.1-.1c-.1-.1-.2-.1-.3-.2s-.1.1-.1.1h0zm.5.9c.1 0 .1.1.2.1.1.1.2-.1.1-.1s-.1-.1-.2-.1c-.1-.2-.2 0-.1.1h0zm1-1.3c.1.1.2.2.2.3.1.1.2 0 .1-.1s-.2-.2-.2-.3l-.1.1zm.6-1c0 .1.1.2.1.2 0 .1.2.1.2 0s0-.2-.1-.2c-.1-.2-.3-.2-.2 0h0zm-.8-.1c0 .1.1.1.1.2h.1v-.1l-.1-.1h-.1c0-.1-.1 0 0 0h0zm1.7.6h0v.2s.1 0 .1-.1v-.2l-.1-.1v.2zm-.4.9v.3c0 .1.2.1.2 0v-.3c0-.1-.2-.1-.2 0h0zm-.3.9c0 .1 0 .2.1.2.1.1.2 0 .1-.1 0-.1-.1-.1-.1-.2.1 0-.1 0-.1.1h0zm.8-.5v.2c0 .1.1.2.2 0v-.2c0-.1-.2-.1-.2 0h0z"/></g><path d="M162.6 54.1c-.1-1-.9-2.7-.9-2.7s-10.3-.8-13.5-.3-9.9 2.3-9.9 2.3-.4 2.5.1 3.1 3.2 4.7 13.1 4c9.7-.8 11.3-5.1 11.1-6.4z" class="S"/><path d="M162.2 52.4c-1.3-1.2-3.3-.1-5.2.6-1.6.5-2.9 1.3-3.9 2.4-.2.2-.6.6-.5.9.1.2.3.3.6.1l-.2.2c1.2.3-.8 3.4-1.4 3.8-.4.2 1.8 0 2.6-.1 2.9-.4 5.8-2 7.3-3.3.4-.4.9-1.3 1.1-1.9 0-.7.1-2.2-.4-2.7z" class="T"/><ellipse transform="matrix(.9997 -.02627 .02627 .9997 -1.3411 3.9638)" cx="150.2" cy="53" rx="11.9" ry="5.9" class="R"/><ellipse transform="matrix(.9997 -.02627 .02627 .9997 -1.3384 3.9664)" cx="150.3" cy="52.9" rx="11.4" ry="5.7" class="Q"/><ellipse transform="matrix(.9997 -.02627 .02627 .9997 -1.3332 3.9663)" cx="150.3" cy="52.7" rx="10.3" ry="4.9" class="U"/><g class="Q"><ellipse transform="matrix(.9997 -.02627 .02627 .9997 -1.3384 3.969)" cx="150.4" cy="52.9" rx="1.1" ry=".3"/><path d="M150.4 52.9l6.4-4.3.3.2-6.5 4.1z"/><path d="M150.9 47.8l-.5 5h.2l.6-5.2z"/><path d="M145.4 48.3l5 4.5-.1.1-5.4-4.4z"/><path d="M140.8 50.7l9.5 2.2v.1l-9.8-2z"/><path d="M140.4 54.9l9.7-2h.2l-9.6 2.3zm4.7 2.5l5.1-4.4h.3l-5 4.6zm5.5-4.5L152 58l.4-.1-1.7-5z"/><path d="M150.9 52.9l8.7 2.3-.3.3-8.6-2.6z"/><path d="M160.5 51.1c-.1 0-9.9 1.8-9.9 1.8v.1l10.3-1.6-.4-.3z"/></g><g class="R"><path d="M150 53.8c-.1.1-.2.3-.3.4s.1.2.1.1c.1-.1.2-.3.3-.4s-.1-.2-.1-.1h0zm.2.2c-.1.1-.1.3-.1.5 0 .1.2.1.2 0s0-.3.1-.4c0-.1-.1-.2-.2-.1h0zm.3.2c0 .2.1.4 0 .5 0 .1.2.2.2 0v-.6s-.2 0-.2.1h0zm-1.2.5c-.1.2-.3.3-.4.5-.1.1.1.2.1.1.1-.2.2-.3.4-.5.1-.1 0-.2-.1-.1h0z"/><path d="M149.7 54.8a.76.76 0 0 0-.2.4c0 .1.1.1.2 0a.76.76 0 0 1 .2-.4s-.1-.1-.2 0h0zm.5.2c-.1.2-.1.4-.1.6 0 .1.2.1.2 0 0-.2 0-.3.1-.5 0-.1-.1-.2-.2-.1h0zm.6.4c.1.1.1.3.1.4s.2.1.2 0c0-.2-.1-.3-.1-.5-.1-.1-.3 0-.2.1h0zm-1.1.4c-.1.2-.1.3-.2.5 0 .1.1.2.2 0 0-.2.1-.3.2-.5 0 0-.1-.1-.2 0h0zm-.6-.2c-.1.1-.2.3-.3.4s.1.2.1.1c.1-.1.2-.3.3-.4.2-.1 0-.2-.1-.1h0zm-.6-.1c-.1 0-.1.1-.2.2s-.1.2-.2.2c-.1.1 0 .2.1.1l.4-.4c.1 0 0-.2-.1-.1h0zm-1 .6c-.2.1-.3.3-.4.5-.1.1.1.2.1.1.1-.2.3-.4.4-.5.1 0 0-.2-.1-.1h0zm.2.5c-.1.1-.2.3-.3.4s.1.2.1.1c.1-.1.2-.3.3-.4.1-.2 0-.2-.1-.1h0z"/><path d="M148.4 56.4c-.1.2-.1.4-.2.6 0 .1.1.2.1.1.1-.2.1-.4.2-.6s-.1-.2-.1-.1h0zm.8.1v.5c0 .1.2.1.2 0v-.5c0-.2-.2-.2-.2 0h0zm1-.2v.6c0 .1.2.1.2 0 0-.2-.1-.4 0-.6 0 0-.2-.1-.2 0h0zm.7 0c0 .3.2.5.3.8 0 .1.2 0 .2 0-.1-.2-.2-.5-.3-.7s-.2-.2-.2-.1h0zm.3 0c0 .1.1.3.1.4s.2.1.2 0 0-.1-.1-.2v-.1c-.1-.3-.3-.2-.2-.1h0zm-9.2-1c.3 0 .6-.1.9-.2.1 0 .1-.2 0-.2-.3.1-.6.2-.8.2-.2.1-.2.2-.1.2h0z"/><path d="M142.4 55.6c.2 0 .3-.1.4-.1s.1-.2 0-.2c-.2 0-.3.1-.4.1-.1.1-.1.2 0 .2h0zm1.1.2c.2-.1.3-.1.5-.2.1 0 .1-.2 0-.2-.2 0-.4.1-.6.2-.1.1 0 .2.1.2h0zm.2.5c.2-.1.3-.1.4-.2.1 0 0-.2 0-.2-.2.1-.3.2-.5.2-.1.1 0 .2.1.2h0zm1.3 0c.1-.1.3-.1.4-.2.1 0 0-.2-.1-.1s-.3.1-.4.2c-.1 0 0 .2.1.1h0z"/><path d="M145 55.7c.1-.1.4-.2.5-.2s.1-.2 0-.2c-.2.1-.4.1-.6.2-.1.1 0 .3.1.2h0zm1.3-.1c.2-.1.3-.1.5-.2.1 0 0-.2 0-.2-.2.1-.3.2-.5.2-.2.1-.1.3 0 .2h0zm-1.8-.5c.2 0 .3-.1.5-.2.1 0 0-.2 0-.2-.2.1-.3.1-.5.2s-.1.3 0 .2h0zm-.9-.2c.1-.1.3-.1.4-.1s0-.2 0-.2c-.1.1-.3.1-.4.1-.1.1-.1.3 0 .2h0zm1.9-.3c.2 0 .3-.1.4-.1s.1-.2 0-.2c-.2 0-.3.1-.4.1-.2.1-.1.2 0 .2h0z"/><path d="M146 54.8c.1-.1.3-.1.5-.2.1 0 .1-.2 0-.2-.2 0-.3.1-.5.2-.2.2-.1.3 0 .2h0zm1.2 0c.2-.1.4-.2.6-.2.1 0 0-.2-.1-.1-.2.1-.4.2-.5.3-.1-.2-.1 0 0 0h0zm-.2-.5c.2 0 .4-.1.5-.2.1 0 0-.2 0-.2-.2.1-.3.1-.5.1-.2.1-.1.3 0 .3h0zm1.1-.3c.2 0 .4-.1.5-.2.1 0 0-.2 0-.2-.2.1-.4.1-.5.2s0 .2 0 .2h0zm-7 .4c.2 0 .3-.1.5-.1.1 0 .2-.1 0-.2-.2 0-.4 0-.6.1-.1.1 0 .2.1.2h0zm-.4-.6c.1 0 .3 0 .4-.1.1 0 0-.2 0-.2-.1 0-.2.1-.3.1-.2 0-.2.2-.1.2h0zm1.2 0c.2 0 .3-.1.5-.1.1 0 .1-.2 0-.2-.2 0-.4.1-.6.1-.1 0 0 .2.1.2h0zm.8.1c.1 0 .3-.1.4-.1s.1-.2 0-.2-.3 0-.4.1-.1.3 0 .2h0zm1.6-.3c.1-.1.3-.1.4-.1s.1-.2 0-.2c-.2 0-.3.1-.5.1 0 0 0 .2.1.2h0z"/><use xlink:href="#E" x="31.8" y="-23.2"/><path d="M142.2 52.7c.1 0 .3 0 .4-.1.1 0 .1-.2 0-.2s-.2.1-.4 0c-.1.2-.1.3 0 .3h0zm-1.4.1h.4c.1 0 .1-.2 0-.2h-.3c-.3.1-.3.2-.1.2h0zm1.2-.8h.3c.1 0 .2-.1 0-.2s-.2 0-.4 0c0 .1 0 .3.1.2h0zm2 .5h.4c.1 0 .1-.2 0-.2h-.3c-.1.1-.2.2-.1.2h0zm.7.4h.5c.1 0 .1-.2 0-.2h-.5c-.2.1-.1.2 0 .2h0z"/><use xlink:href="#D" x="37.9" y="-22.7"/><path d="M146.1 52.8h.4c.1 0 .1-.2 0-.2h-.4c-.1.1-.1.2 0 .2h0z"/><use xlink:href="#D" x="39.6" y="-22.9"/><path d="M151.2 53.6c.1.2.2.3.3.5.1.1.2 0 .1-.1s-.3-.3-.3-.4c0-.2-.2-.2-.1 0h0z"/><path d="M151.6 53.6c.1.1.2.2.4.3.1.1.2-.1.1-.1-.1-.1-.2-.2-.4-.3-.1 0-.2.1-.1.1h0zm.7.2c.2 0 .3.1.5.2.1 0 .1-.1 0-.2-.2-.1-.3-.1-.5-.2-.1 0-.1.2 0 .2h0zm-.9.6c.1.2.2.4.4.6.1.1.2 0 .1-.1-.1-.2-.2-.4-.4-.6 0-.1-.1 0-.1.1h0z"/><path d="M151.9 54.4a1.38 1.38 0 0 0 .4.3c.1.1.2-.1.1-.1-.1-.1-.2-.2-.4-.3-.1-.1-.2.1-.1.1h0zm.8.1c.1 0 .2.1.3.2s.2-.1.1-.1c-.1-.1-.2-.1-.4-.1 0-.2-.1-.1 0 0h0zm.6-.3c.2.1.3.1.5.2.1 0 .1-.1 0-.2-.2-.1-.3-.1-.5-.2-.1 0-.1.2 0 .2h0zm-1.4 1.3c.1.1.1.3.2.4 0 .1.2 0 .1-.1s-.1-.3-.2-.4c0-.1-.1 0-.1.1h0z"/><path d="M152.4 55.2c.1.1.2.2.3.2h.1v-.1c-.1-.1-.2-.1-.2-.2h-.1c-.1 0-.1.1-.1.1h0zm.8-.1c.1.1.3.1.4.2.1 0 .2-.1.1-.1-.1-.1-.3-.1-.4-.2s-.2 0-.1.1h0zm.7-.2a.9.9 0 0 0 .5.1c.1 0 .1-.2 0-.2-.2 0-.3-.1-.4-.1s-.2.2-.1.2h0zm.9-.2c.2 0 .3.1.5.1.1 0 .2-.1 0-.2-.2 0-.3-.1-.5-.1-.1 0-.1.2 0 .2h0z"/><path d="M155.9 55a.76.76 0 0 1 .4.2c.1 0 .2-.1.1-.1-.2-.1-.3-.1-.5-.1-.1-.2-.1-.1 0 0h0zm-3.6 1.4c0 .2.1.3.3.4.1.1.2-.1.1-.1-.1-.1-.2-.2-.2-.4 0-.1-.2 0-.2.1h0zm.3-.4c.1.1.2.2.2.3.1.1.2 0 .1-.1s-.2-.2-.3-.2c.1-.2 0-.1 0 0h0zm.8.5c.1.1.2.2.2.3.1.1.2 0 .1-.1s-.2-.2-.2-.3l-.1.1c-.1-.1-.1 0 0 0h0z"/><path d="M153.3 55.8c.1.1.2.1.3.2h.1v-.1c-.1-.1-.2-.1-.3-.2l-.1.1c0-.1 0-.1 0 0h0zm1 .5c.1.1.2.1.3.2h.1v-.1c-.1-.1-.2-.1-.3-.2l-.1.1c0-.1 0-.1 0 0h0zm-.3-.9c.1.1.3.2.4.3s.2-.1.1-.1c-.1-.1-.3-.2-.4-.3s-.1 0-.1.1h0zm1.2.5c.1.1.2.1.4.2.1 0 .1-.1 0-.2s-.2-.1-.4-.2c-.1 0-.1.1 0 .2h0z"/><path d="M155 55.2c.2.1.3.1.5.2.1 0 .2-.1 0-.2-.2 0-.3-.1-.5-.2 0 0-.1.2 0 .2h0zm1.2.5c.1 0 .2.1.4.1.1 0 .2-.2 0-.2-.1 0-.3-.1-.4-.1-.1.1-.1.2 0 .2h0z"/><path d="M156.7 55.4c.2.1.4.1.6.2.1 0 .2-.1.1-.1-.2-.1-.4-.2-.7-.1 0-.2-.1 0 0 0h0z"/><use xlink:href="#K" x="-2.2" y="-3.4"/><path d="M153.1 53.3h.3c.1 0 .2-.2 0-.2h-.3c-.2 0-.2.2 0 .2h0zm.7.1c.1 0 .3 0 .4.1.1 0 .1-.2 0-.2h-.4c-.1-.1-.1.1 0 .1h0z"/><use xlink:href="#D" x="46.3" y="-23.1"/><path d="M155.2 53.2c.1 0 .2 0 .3.1.1 0 .2-.1 0-.2-.1 0-.2 0-.3-.1-.1.1-.1.2 0 .2h0zm.3.5c.2.1.3.1.5.1.1 0 .1-.2 0-.2-.2 0-.3 0-.5-.1 0 0-.1.2 0 .2h0zm1.6.6c.1 0 .3.1.4.1s.1-.1 0-.2c-.1 0-.3-.1-.4-.1 0 0-.1.1 0 .2h0z"/><use xlink:href="#F" x="49.2" y="-20.4"/><use xlink:href="#D" x="48.5" y="-23.1"/><path d="M155.2 52.7c.2 0 .3-.1.5-.1.1 0 .1-.2 0-.2-.2 0-.3.1-.5.1-.1 0-.1.2 0 .2h0zm2.4-.4h.5c.1 0 .1-.2 0-.2h-.5c-.1.1-.1.2 0 .2h0zm.2.7h.4c.1 0 .1-.2 0-.2h-.4c-.1 0-.1.1 0 .2h0zm1.1.7h.5c.1 0 .1-.2 0-.2h-.5c-.2 0-.2.2 0 .2h0zm.5-.7c.1 0 .3.1.4.1s.2-.1 0-.2c-.1 0-.3-.1-.4-.1s-.1.1 0 .2h0z"/><use xlink:href="#E" x="47.5" y="-24.2"/><path d="M152.1 52.3c.1-.1.2-.1.3-.2.1 0 0-.2 0-.2-.1.1-.3.1-.4.2-.1.2 0 .3.1.2h0zm.8 0c.1 0 .2-.1.3-.1.1-.1 0-.2-.1-.1s-.2.1-.3.1c0-.1 0 .1.1.1h0zm2-.4c.1 0 .1 0 .2-.1.1 0 0-.2 0-.2-.1 0-.1 0-.2.1-.2.1-.1.3 0 .2h0zm-1.4-.3c.1-.1.3-.1.4-.2s0-.2-.1-.1-.3.1-.4.2c-.1-.1 0 .1.1.1h0zm.7 0c.1-.1.2-.1.3-.2.1 0 0-.2 0-.2-.1.1-.3.1-.4.2s0 .3.1.2h0zm1.6-.4c.2-.1.4-.1.6-.2.1 0 0-.2 0-.2-.2.1-.4.1-.6.2-.1.1-.1.2 0 .2h0zm-.8-.4c.1-.1.2-.1.4-.2.1 0 0-.2 0-.2-.1.1-.3.1-.4.2s-.1.3 0 .2h0zm1.4-.9c.1 0 .2 0 .2-.1.1 0 0-.2 0-.2-.1 0-.1.1-.2.1s-.1.2 0 .2h0z"/><path d="M156.6 50.5c.2-.1.4-.2.5-.2s.1-.2 0-.2c-.2.1-.4.1-.6.2-.1.2 0 .3.1.2h0zm1.3.3c.2 0 .3-.1.5-.1.1 0 .1-.2 0-.2-.2 0-.3.1-.5.1-.2.1-.2.3 0 .2h0zm.7.3c.1 0 .2-.1.3-.1s.1-.2 0-.2-.2.1-.3.1c-.2 0-.1.2 0 .2h0z"/><use xlink:href="#I" x="32.4" y="-22.2"/><path d="M143.5 50c.1 0 .2 0 .3.1.1 0 .1-.1 0-.2-.1 0-.2 0-.3-.1-.1 0-.1.2 0 .2h0zm.6.7c.1 0 .3.1.4.1s.1-.1 0-.2c-.1 0-.3-.1-.4-.1 0 0-.1.1 0 .2h0z"/><path d="M144.6 50.8c.1 0 .1-.2 0-.2s-.1.2 0 .2h0zm1 .4c.1 0 .2.1.3.1s.1-.2 0-.2h-.2c-.1-.1-.2 0-.1.1h0zm-.5-1c.2.1.3.1.5.2.1 0 .1-.1 0-.2-.2-.1-.3-.1-.5-.2-.1 0-.1.2 0 .2h0zm-.2-.9c.1.1.2.1.3.2 0 0 .1 0 .1-.1 0 0 0-.1-.1-.1s-.2-.1-.3-.2h-.1c0 .1 0 .2.1.2h0zm1.7 1.2c.1.1.3.1.4.2s.2-.1.1-.1c-.1-.1-.3-.1-.4-.2-.1 0-.2.1-.1.1h0zm.6.8c.1 0 .2.1.3.1s.1-.1 0-.2c-.1 0-.2-.1-.3-.1s-.1.2 0 .2h0zm.7.6c.1 0 .1 0 .2.1.1 0 .1-.1 0-.2-.1 0-.1 0-.2-.1-.1 0-.1.2 0 .2h0zm.6-1.4c.1.1.2.2.3.2.1.1.2-.1.1-.1-.1-.1-.2-.2-.3-.2 0-.1-.2 0-.1.1h0z"/><path d="M148.8 49.3c0 .1.1.1.2.2 0 .1.2 0 .1-.1 0-.1-.1-.1-.2-.2s-.2 0-.1.1h0zm-.9.2c0 .1.1.1.2.2h.1v-.1c-.1 0-.1-.1-.1-.1s-.1-.1-.2 0c.1-.1 0-.1 0 0h0zm1.9.1c0-.1 0 0 0 0h0c0 .1 0 .2.1.2 0 0 .1 0 .1-.1v-.2s-.1-.1-.1 0c-.1 0-.1 0-.1.1h0zm-.1 1c0 .1.1.2.1.3s.2 0 .2 0-.1-.2-.1-.3c-.1-.2-.2-.1-.2 0h0z"/><path d="M149.6 51.5c0 .1.1.1.2.2s.2 0 .1-.1-.1-.1-.1-.2c-.1-.1-.2 0-.2.1h0zm.7-.7v.2c0 .1.2.1.2 0s0-.2-.2-.2c.1-.1-.1-.1 0 0h0zm.9.7c0-.1.1-.2.1-.3s-.1-.2-.1-.1-.1.2-.1.3c-.1.1 0 .1.1.1h0zm.1-1.2c0-.1.1-.3.1-.4s-.1-.1-.2 0c0 .1-.1.2-.1.4 0 .1.2.1.2 0h0zm.5.3c.1-.1.2-.3.2-.5 0-.1-.1-.2-.1-.1-.1.1-.2.3-.2.5-.1.1 0 .2.1.1h0zm1.3-.8c.1-.1.2-.1.2-.2.1-.1 0-.2-.1-.1l-.2.2s-.1.1 0 .1c0 .1 0 .1.1 0h0z"/><path d="M154 49.8c.1-.1.3-.2.4-.3s0-.2-.1-.1a1.38 1.38 0 0 1-.4.3c0 .1 0 .2.1.1h0zm-1.6 1l.3-.3c.1-.1 0-.2-.1-.1s-.3.2-.4.3l.2.1zm-.8 1c.1-.1.1-.2.2-.3s0-.2-.1-.1-.1.2-.2.3.1.2.1.1h0zm.1-3.3c0 .1 0 .2-.1.3 0 .1.1.2.2 0 0-.1 0-.2.1-.3 0 0-.1-.1-.2 0h0zm3.6.7c.1 0 .2-.1.3-.2s0-.2-.1-.1-.1.1-.2.1c-.2.1-.1.2 0 .2h0z"/></g><g class="Q"><path d="M153.9 48.6c-.8-.4-1.9-.4-2.8-.4-1.9 0-3.8.2-5.6.6-.4.1-1.9.7-2.3.9-.7.2-1.2.7-1.6 1.2-.7 1-1 2.3-.3 3.3.3.5.8.9 1.3 1.3 1.7 1.1 3.2.7 3.6.5.6-.3 1.1-1 1-1.8-.1-.5-.4-.8-.4-1.4.1-.8.5-1.3 1.1-1.7.8-.6 1.7-.8 2.6-1.1 1-.3 2.1-.3 3.1-.5.3 0 .7-.1.7-.5.1-.1-.2-.3-.4-.4z" opacity=".3" class="V"/><path d="M302.5 50.5l4 6.4-.1.1-4.5-6.5z"/><path d="M296.7 51.7l9.7 5.3v.1l-10.1-5.2z"/><path d="M295 56.2l11.2.7.2.1-11.2-.4zm4.3 4.1l7-3.2.3.1-6.8 3.5z"/></g><g class="R"><path d="M305.8 57.9c-.1.1-.3.3-.5.4-.1.1 0 .2.1.1s.3-.3.5-.4c.1-.1 0-.2-.1-.1h0z"/><use xlink:href="#B" x="190.9" y="-18.8"/><path d="M303.7 59.3c-.1 0-.2.1-.3.1-.1.1-.2.1-.3.2s0 .2.1.2c.1-.1.2-.1.2-.2.1 0 .2-.1.2-.1.3-.1.3-.2.1-.2h0z"/><use xlink:href="#B" x="188.5" y="-17.8"/><path d="M296.6 57.1c.3.1.7 0 1 0 .1 0 .1-.2 0-.2h-1c-.1 0-.1.2 0 .2h0zm.4.4h.5c.1 0 .1-.2 0-.2h-.5c-.2 0-.2.2 0 .2h0zm1.1.6h.6c.1 0 .2-.2 0-.2h-.7c-.1 0 0 .2.1.2h0z"/><use xlink:href="#C" x="190.9" y="-18.8"/><path d="M299.6 59.2c.2 0 .3-.1.5-.1.1 0 .1-.2-.1-.2s-.3.1-.5.1c-.1 0 0 .2.1.2h0zm.1-.7c.2-.1.4-.1.7-.1.1 0 .1-.2 0-.2-.2 0-.5 0-.7.1-.1 0-.1.2 0 .2h0zm1.5.3c.2-.1.4-.1.6-.1.1 0 .1-.2 0-.2-.2 0-.4.1-.6.1-.1 0-.1.2 0 .2h0zm-1.8-1.1h.6c.1 0 .1-.2 0-.2-.2 0-.4.1-.6 0-.1 0-.1.2 0 .2h0z"/><use xlink:href="#D" x="190.9" y="-18.8"/><use xlink:href="#D" x="193" y="-18.6"/><path d="M301.1 57.8h.5c.1 0 .1-.2 0-.2-.2 0-.4 0-.6.1-.1-.1 0 .1.1.1h0zm1.4.3c.2 0 .5-.1.7-.1.1 0 .1-.2-.1-.2s-.4.1-.7.1c0 0 0 .2.1.2h0zm-.1-.6h.6c.1 0 .1-.2 0-.2h-.6c-.1 0-.2.2 0 .2h0zm1.4.1h.6c.1 0 .1-.2 0-.2h-.6c-.2 0-.2.2 0 .2h0zm-7.9-1.8c.2 0 .4 0 .5.1.1 0 .2-.1.1-.2-.2-.1-.4-.1-.7-.1 0 0 0 .2.1.2h0zm-.3-.8h.4c.1 0 .1-.2 0-.2h-.4s-.1.2 0 .2h0zm1.4.4h.6c.1 0 .2-.2 0-.2s-.4 0-.7-.1c-.1.1-.1.3.1.3h0z"/><use xlink:href="#D" x="190.2" y="-20.2"/><path d="M299.7 55.9h.5c.1 0 .2-.1 0-.2h-.5c-.2 0-.2.2 0 .2h0zm-1-.8c.2 0 .4.1.6.1.1 0 .2-.1 0-.2-.2 0-.4-.1-.6-.1-.1 0-.1.1 0 .2h0zm-1.1-.8a.9.9 0 0 1 .5.1c.1 0 .1-.2 0-.2s-.3 0-.4-.1c-.2 0-.2.2-.1.2h0zM296 54c.1 0 .3.1.4.1s.1-.2 0-.2-.2 0-.3-.1c-.2 0-.2.2-.1.2h0z"/><path d="M297.6 53.5c.1 0 .2.1.3.1s.2-.1.1-.2-.3-.1-.4-.2c0 .1-.1.3 0 .3h0zm2.1 1.2c.1.1.3.1.4.2.1 0 .2-.1 0-.2-.1 0-.3-.1-.4 0-.1-.2-.2-.1 0 0h0zm.6.6c.2 0 .3.1.5.2.1 0 .1-.1 0-.2-.2-.1-.3-.1-.5-.2-.1 0-.2.2 0 .2h0zm.7.7c.2 0 .4.1.6.1.1 0 .2-.1 0-.2-.2 0-.4-.1-.6-.1 0 0-.1.1 0 .2h0zm.9-.4c.2 0 .3.1.4.1s.1-.1 0-.2-.3-.1-.4-.1-.2.2 0 .2h0z"/><use xlink:href="#F" x="195.2" y="-17.6"/><path d="M298.7 52l.6.3c.1 0 .2-.1.1-.2-.2-.1-.4-.2-.7-.3 0 0-.1.2 0 .2h0zm1.2-.3c.1.1.2.1.3.2s.2-.1.1-.2-.2-.1-.3-.2c-.1 0-.2.2-.1.2h0zm.4 1c.1.1.2.1.4.2.1.1.2-.1.1-.2s-.2-.1-.4-.2c0-.1-.2.1-.1.2h0z"/><path d="M300.9 52.9c.1 0 .2-.1 0-.2-.1 0-.2.2 0 .2h0zm.9.8c.1.1.2.1.3.2.1 0 .2-.1 0-.2-.1 0-.2-.1-.3 0 .1-.2-.1-.1 0 0h0zm-.3-1.2c.2.1.3.3.5.4.1.1.2-.1.1-.2-.2-.1-.3-.3-.5-.4-.1-.1-.2.1-.1.2h0zm.1-1.1l.3.3h.1v-.1l-.2-.2h-.2c-.1-.1-.1-.1 0 0h0zm1.5 1.9c.1.1.3.2.4.3s.2 0 .1-.1-.3-.2-.4-.4c-.1 0-.2.1-.1.2h0zm.4 1c.1.1.2.2.3.2.1.1.2-.1.1-.2s-.2-.1-.3-.2-.2.1-.1.2h0zm.6.9c.1 0 .1.1.2.1.1.1.2-.1.1-.2-.1 0-.1-.1-.2-.1s-.2.1-.1.2h0zm1.1-1.4l.3.3c.1.1.2 0 .2-.1l-.3-.3c-.1-.1-.2 0-.2.1h0zm.7-1.2c0 .1.1.2.1.3s.2.1.2-.1c0-.1-.1-.2-.1-.3-.1-.1-.3 0-.2.1h0zm-1-.1c0 .1.1.2.2.2h.1v-.1c0-.1-.1-.1-.1-.2l-.1-.1c-.1.1-.1.2-.1.2h0zm2 .7h0c0 .1 0 .2.1.2s.1 0 .1-.1v-.2l-.1-.1c-.1.1-.1.1-.1.2h0zm-.4 1v.4c0 .1.2.1.2 0v-.4c0-.1-.2-.1-.2 0h0zm-.4 1.1c0 .1.1.2.1.3.1.1.2 0 .2-.1-.1-.1-.1-.2-.1-.3s-.2 0-.2.1h0zm.9-.6v.2c0 .1.1.2.2 0v-.3s-.2 0-.2.1h0z"/></g><use xlink:href="#H" x="190.9" y="-18.8" class="S"/><path d="M307 52.6c-1.5-1.4-3.8-.1-5.9.6-1.8.6-3.3 1.5-4.5 2.7-.2.2-.7.7-.6 1 .1.2.4.4.7.1l-.2.2c1.3.4-.9 3.9-1.6 4.3-.5.3 2.1 0 3-.1 3.3-.5 6.6-2.2 8.3-3.7.5-.5 1-1.5 1.2-2.1.1-.7.2-2.4-.4-3z" class="T"/><ellipse transform="matrix(.9997 -.02627 .02627 .9997 -1.299 7.7263)" cx="293.4" cy="53.3" rx="13.6" ry="6.8" class="R"/><ellipse transform="matrix(.9997 -.02627 .02627 .9997 -1.299 7.7289)" cx="293.5" cy="53.3" rx="13" ry="6.4" class="Q"/><ellipse transform="matrix(.9997 -.02627 .02627 .9997 -1.2911 7.7288)" cx="293.5" cy="53" rx="11.7" ry="5.5" class="U"/><g class="Q"><ellipse transform="matrix(.9997 -.02627 .02627 .9997 -1.2963 7.7315)" cx="293.6" cy="53.2" rx="1.2" ry=".4"/><path d="M293.6 53.2l7.3-4.9.3.2-7.3 4.7z"/><path d="M294.1 47.3l-.5 5.8h.3l.6-5.9z"/><path d="M287.9 48l5.7 5.1-.1.2-6.1-5.1z"/><path d="M282.6 50.7l10.9 2.6-11.1-2.3z"/><path d="M282.2 55.5l11-2.3.3.1-10.9 2.6z"/><path d="M287.5 58.3l5.9-5h.3l-5.7 5.2zm6.4-5.1l1.5 5.8.4-.1-1.8-5.7z"/><path d="M294.2 53.2l9.9 2.6-.3.4-9.8-3z"/><path d="M305.1 51.1c-.1 0-11.3 2-11.3 2v.1l11.7-1.8-.4-.3z"/></g><g class="R"><path d="M293.1 54.2c-.1.2-.2.3-.3.5-.1.1.1.2.2.1.1-.2.2-.3.3-.5 0-.1-.2-.2-.2-.1h0zm.3.2c-.1.2-.1.4-.1.6 0 .1.2.1.2 0 0-.2 0-.3.1-.5 0-.1-.2-.2-.2-.1h0zm.3.3c0 .2.1.4.1.6 0 .1.2.2.2 0v-.7c-.1-.1-.3-.1-.3.1h0zm-1.3.5c-.2.2-.3.4-.4.5s.1.2.1.1c.2-.2.3-.4.4-.5.1 0-.1-.2-.1-.1h0z"/><path d="M292.8 55.3c-.1.1-.2.3-.2.5 0 .1.2.2.2 0s.1-.3.2-.4c0-.1-.1-.2-.2-.1h0zm.6.3c-.1.2-.1.4-.1.6 0 .1.2.1.2 0 0-.2 0-.4.1-.6 0 0-.2-.1-.2 0h0zm.6.4a.9.9 0 0 1 .1.5c0 .1.2.1.2 0 0-.2-.1-.4-.1-.5-.1-.2-.2-.1-.2 0h0zm-1.2.5c-.1.2-.2.4-.2.6 0 .1.1.2.2 0 0-.2.1-.4.2-.5s-.1-.2-.2-.1h0zm-.6-.3c-.1.1-.2.3-.3.4s.1.2.1.1c.1-.2.2-.3.3-.5.1 0-.1-.1-.1 0h0zm-.7-.1c-.1 0-.2.1-.2.2-.1.1-.2.2-.2.3-.1.1 0 .2.1.1s.1-.2.2-.2c.1-.1.1-.2.2-.2 0 0 0-.2-.1-.2h0zm-1.2.7c-.2.2-.3.4-.5.6-.1.1.1.2.1.1.2-.2.3-.4.5-.6.1 0 0-.1-.1-.1h0zm.2.6c-.1.2-.2.3-.3.5-.1.1.1.2.2.1.1-.2.2-.3.3-.5s-.1-.2-.2-.1h0zm.8-.2c-.1.2-.1.4-.2.7 0 .1.1.2.2.1.1-.2.1-.5.2-.7 0-.2-.2-.2-.2-.1h0zm.9 0v.5c0 .1.2.1.2 0v-.5c0-.1-.2-.1-.2 0h0zm1.2-.1c-.1.2 0 .5 0 .7 0 .1.2.1.2 0 0-.2-.1-.5 0-.7 0-.1-.2-.1-.2 0h0zm.7 0c0 .3.2.6.3.9 0 .1.2 0 .2-.1-.1-.3-.3-.6-.3-.8 0-.1-.2-.1-.2 0h0zm.4-.1c0 .1.1.3.1.5 0 .1.2.1.2-.1 0-.1 0-.1-.1-.2v-.1c-.1-.2-.3-.2-.2-.1h0zm-10.4-1.1c.3 0 .7-.2 1-.2.1 0 .1-.2-.1-.2-.3.1-.7.2-1 .2-.1.1-.1.3.1.2h0z"/><path d="M284.5 56.2c.2-.1.4-.1.5-.1s.1-.2-.1-.2c-.2.1-.4.1-.5.1-.1.1 0 .3.1.2h0zm1.2.3c.2-.1.4-.1.6-.2.1 0 .1-.2 0-.2-.2 0-.4.1-.6.2-.2 0-.1.2 0 .2h0zm.2.5c.2-.1.3-.2.5-.2.1 0 0-.2-.1-.2-.2.1-.4.2-.5.3-.1 0 0 .2.1.1h0zm1.5.1c.2-.1.3-.1.5-.2.1 0 0-.2-.1-.2-.2.1-.3.1-.5.2-.1.1 0 .3.1.2h0z"/><path d="M287.4 56.4l.6-.3c.1 0 .1-.2-.1-.2-.2.1-.5.1-.6.3-.1.1 0 .3.1.2h0zm1.5-.1c.2-.1.3-.2.5-.2.1 0 0-.2-.1-.2-.2.1-.4.2-.6.2 0 .1.1.3.2.2h0zm-2-.6c.2-.1.4-.1.6-.2.1 0 0-.2-.1-.2-.2.1-.4.2-.6.2-.1.1-.1.3.1.2h0zm-1-.2c.2-.1.3-.1.5-.1.1 0 0-.2-.1-.2-.2.1-.3.1-.5.1-.1.1 0 .3.1.2h0zm2.1-.4c.2 0 .3-.1.5-.1.1 0 .1-.2-.1-.2-.2.1-.3.1-.5.1-.1.1 0 .3.1.2h0zm.5.3c.2-.1.3-.1.5-.2.1 0 .1-.2-.1-.2-.2.1-.4.1-.6.2 0 .1.1.3.2.2h0zm1.5-.1c.2-.1.5-.2.7-.3.1 0 0-.2-.1-.2l-.6.3c-.2.1-.1.3 0 .2h0zm-.3-.5c.2 0 .4-.1.6-.2.1 0 0-.2-.1-.2-.2.1-.4.1-.6.2-.1 0-.1.2.1.2h0zm1.3-.3c.2-.1.4-.1.6-.2.1 0 0-.2-.1-.2-.2.1-.4.1-.6.2 0 0 0 .2.1.2h0zm-8 .4c.2-.1.4-.1.6-.1.1 0 .2-.1 0-.2-.2 0-.4 0-.6.1-.2 0-.1.2 0 .2h0z"/><path d="M282.5 54.2c.1 0 .3 0 .4-.1.1 0 0-.2-.1-.2s-.2.1-.4.1c0 0 0 .2.1.2h0zm1.4 0c.2-.1.4-.1.6-.1.1 0 .1-.2 0-.2-.2 0-.4.1-.7.1-.1 0 0 .2.1.2h0zm1 .2c.1 0 .3-.1.4-.1s.1-.2-.1-.2c-.1 0-.3.1-.4.1s-.1.2.1.2h0zm1.7-.4c.2-.1.3-.1.5-.1.1 0 .1-.2 0-.2-.2 0-.3.1-.5.1-.1 0-.1.2 0 .2h0zm-1.1-.6h.6c.1 0 .1-.2 0-.2h-.6c-.2.1-.1.2 0 .2h0zm-1.3-.4c.2 0 .3 0 .5-.1.1 0 .1-.2-.1-.2-.1 0-.3.1-.4.1s-.1.2 0 .2h0zm-1.6.1h.4c.1 0 .1-.2-.1-.2h-.4s0 .2.1.2h0zm1.5-.9h.4c.1 0 .2-.1 0-.2s-.3 0-.4 0c-.2 0-.2.2 0 .2h0z"/><use xlink:href="#K" x="131.6" y="-3.6"/><use xlink:href="#D" x="179.4" y="-22.8"/><path d="M288 53.6h.6c.1 0 .1-.2 0-.2h-.6c-.1.1-.1.3 0 .2h0zm.7-.5h.4c.1 0 .1-.2 0-.2h-.4c-.1.1-.1.2 0 .2h0zm1.3.4h.6c.1 0 .1-.2 0-.2h-.6c-.2 0-.2.1 0 .2h0zm4.5.4c.1.2.2.4.4.6.1.1.2 0 .2-.1-.1-.2-.3-.3-.4-.5-.1-.1-.3-.1-.2 0h0zm.4.1c.1.1.3.2.4.3s.2-.1.1-.1c-.1-.1-.3-.2-.4-.3s-.2.1-.1.1h0zm.8.2c.2 0 .4.1.6.2.1 0 .2-.2 0-.2-.2-.1-.4-.2-.6-.2 0 0-.1.2 0 .2h0zm-.9.7c.1.2.3.4.4.7.1.1.2 0 .2-.1-.1-.2-.3-.4-.4-.7-.1-.1-.3 0-.2.1h0zm.5 0a1.38 1.38 0 0 1 .4.3c.1.1.2-.1.1-.2s-.3-.2-.4-.3c-.1 0-.2.2-.1.2h0z"/><path d="M296.2 55c.1.1.3.1.4.2s.2-.1.1-.2a.76.76 0 0 0-.4-.2c-.1 0-.2.1-.1.2h0zm.7-.3c.2.1.4.2.6.2.1 0 .2-.2 0-.2-.2-.1-.4-.2-.6-.2-.1 0-.1.2 0 .2h0zm-1.6 1.5a1.38 1.38 0 0 0 .3.4c0 .1.2 0 .2-.1-.1-.2-.2-.3-.3-.4 0-.1-.2 0-.2.1h0zm.6-.4l.3.3h.1V56c-.1-.1-.2-.1-.3-.2h-.1c0-.1 0 0 0 0h0z"/><path d="M296.7 55.7c.2.1.3.2.5.3.1 0 .2-.1.1-.2-.2-.1-.3-.2-.5-.3-.1 0-.2.1-.1.2h0zm.9-.2c.2.1.4.1.6.2.1 0 .2-.2 0-.2s-.4-.1-.5-.1c-.1-.1-.2 0-.1.1h0z"/><use xlink:href="#G" x="188.4" y="-19.6"/><path d="M299.9 55.5c.2 0 .3.1.5.2.1 0 .2-.1.1-.2-.2-.1-.3-.2-.5-.2s-.3.2-.1.2h0zm-4.1 1.7c.1.2.1.4.3.5.1.1.2-.1.1-.1a.76.76 0 0 1-.2-.4c-.1-.2-.2-.2-.2 0h0zm.3-.5l.3.3c.1.1.2 0 .2-.1-.1-.1-.2-.3-.3-.4-.1 0-.2.1-.2.2h0zm.9.6l.3.3c.1.1.2 0 .1-.1l-.3-.3-.1.1c-.1-.1-.1 0 0 0h0z"/><path d="M296.9 56.5c.1.1.2.1.3.2h.1v-.1c-.1-.1-.2-.1-.3-.2l-.1.1c-.1-.1 0-.1 0 0h0zm1.2.5c.1.1.2.2.3.2h.1v-.1c-.1-.1-.2-.2-.3-.2l-.1.1c-.1-.1-.1 0 0 0h0zm-.4-1c.2.1.3.2.5.3.1.1.2-.1.1-.2-.2-.1-.3-.2-.5-.3-.1 0-.2.1-.1.2h0zm1.3.6c.2.1.3.2.4.2s.2-.2 0-.2c-.2-.1-.3-.2-.4-.2 0 0-.1.1 0 .2h0zm-.2-.8c.2.1.4.2.6.2.1 0 .2-.1 0-.2-.2 0-.4-.1-.5-.2-.1 0-.2.2-.1.2h0zm1.4.6c.1.1.3.1.4.1s.2-.2 0-.2c-.1 0-.3-.1-.4-.1s-.1.2 0 .2h0zm.6-.3c.2.1.5.2.7.3.1 0 .2-.1.1-.2-.2-.1-.5-.2-.8-.3-.1-.1-.1.1 0 .2h0z"/><use xlink:href="#D" x="188.3" y="-22.7"/><path d="M296.6 53.6h.3c.1 0 .2-.2 0-.2h-.4c0 .1 0 .3.1.2h0zm.9.2a.9.9 0 0 1 .5.1c.1 0 .1-.2 0-.2h-.4c-.2-.1-.2.1-.1.1h0z"/><use xlink:href="#E" x="186" y="-23.1"/><path d="M299 53.6c.1 0 .2 0 .3.1.1 0 .2-.1 0-.2-.1 0-.2 0-.3-.1-.1 0-.1.2 0 .2h0zm.4.5c.2.1.4.1.6.1.1 0 .1-.2 0-.2-.2 0-.4-.1-.5-.1s-.2.2-.1.2h0zm1.8.7c.1.1.3.1.4.1s.2-.2 0-.2c-.1-.1-.3-.1-.4-.1 0-.1-.1.1 0 .2h0z"/><use xlink:href="#I" x="190.9" y="-18.8"/><use xlink:href="#D" x="192.5" y="-22.8"/><path d="M299 52.9c.2 0 .4-.1.6-.1.1 0 .1-.2 0-.2-.2 0-.4.1-.6.1-.1.1-.1.3 0 .2h0z"/><use xlink:href="#E" x="190.3" y="-23.7"/><use xlink:href="#D" x="194.4" y="-22.7"/><use xlink:href="#D" x="195.6" y="-21.9"/><path d="M303.8 53.3c.2 0 .3.1.5.1.1 0 .2-.1 0-.2-.2 0-.3-.1-.5-.1-.1-.1-.1.1 0 .2h0zm-.4-1h.7c.1 0 .1-.2 0-.2h-.7c-.1 0-.1.2 0 .2h0zm-7.9.3c.1-.1.3-.1.4-.2.1 0 0-.2-.1-.2-.2.1-.4.1-.5.2 0 .1.1.2.2.2h0zm1-.1c.1 0 .3-.1.4-.1.1-.1 0-.2-.1-.2-.1.1-.2.1-.4.1-.1 0-.1.2.1.2h0zm2.2-.4c.1 0 .1 0 .2-.1.1 0 0-.2-.1-.2s-.1 0-.2.1 0 .2.1.2h0zm-1.6-.4c.2-.1.3-.1.5-.2.1-.1 0-.2-.1-.2-.1.1-.3.1-.5.2-.1 0 0 .2.1.2h0zm.8 0c.1-.1.3-.1.4-.2.1 0 0-.2-.1-.2-.2.1-.3.1-.4.2s0 .3.1.2h0zm1.9-.4c.2-.1.4-.1.6-.2.1 0 0-.2-.1-.2-.2.1-.4.1-.6.2-.1 0 0 .2.1.2h0zm-.9-.5c.1-.1.2-.2.4-.2.1 0 0-.2-.1-.2-.2.1-.3.1-.4.2s-.1.3.1.2h0zm1.5-1c.1 0 .2-.1.3-.1s0-.2-.1-.2-.2.1-.2.1c-.1 0-.1.2 0 .2h0zm.2.7l.6-.3c.1 0 .1-.2-.1-.2-.2.1-.5.2-.7.3 0 .1.1.3.2.2h0zm1.5.3c.2-.1.3-.1.5-.1.1 0 .1-.2 0-.2-.2 0-.4.1-.6.1-.1.1-.1.3.1.2h0zm.8.3c.1 0 .2-.1.4-.1s.1-.2-.1-.2c-.1 0-.2.1-.4.1-.1.1 0 .2.1.2h0zm-18.2-.6c.2 0 .5.1.7.1.1 0 .2-.1 0-.2s-.5-.1-.8-.1c0 0 0 .2.1.2h0zm1.1-.6c.1 0 .3 0 .4.1.1 0 .2-.2 0-.2-.1-.1-.2-.1-.4-.1-.1 0-.2.2 0 .2h0zm.6.8c.1 0 .3.1.4.1s.2-.2 0-.2c-.1 0-.3-.1-.4-.1 0-.1-.1.1 0 .2h0zm.6.1c.1 0 .1-.2 0-.2s-.1.2 0 .2h0zm1.1.4c.1.1.2.1.4.1.1 0 .1-.2 0-.2h-.3c-.1-.1-.2.1-.1.1h0zm-.6-1c.2.1.4.2.6.2.1 0 .2-.2 0-.2-.2-.1-.4-.2-.6-.2-.1-.1-.1.1 0 .2h0zm-.2-1.1c.1.1.2.1.3.2 0 0 .1 0 .1-.1 0 0 0-.1-.1-.1s-.2-.1-.3-.2h-.1s0 .2.1.2h0zm2 1.4c.2.1.3.1.4.2s.2-.1.1-.2c-.2-.1-.3-.2-.5-.2-.1 0-.1.2 0 .2h0zm.6.9c.1.1.3.1.4.1s.2-.2 0-.2c-.1 0-.3-.1-.4-.1 0-.1-.1.1 0 .2h0zm.8.7c.1 0 .1.1.2.1s.2-.2 0-.2c-.1 0-.1-.1-.2-.1s-.1.2 0 .2h0zm.8-1.7c.1.1.2.2.4.2.1.1.2-.1.1-.1-.1-.1-.2-.2-.4-.2-.1-.1-.2.1-.1.1h0z"/><path d="M291.7 49.1c.1.1.1.2.2.3 0 .1.2 0 .2-.1-.1-.1-.1-.2-.2-.3s-.3 0-.2.1h0zm-.9.2l.2.2h.1v-.1c-.1 0-.1-.1-.2-.1 0 0-.1-.1-.1 0 0-.1 0 0 0 0h0zm2.1.1h0c0 .1 0 .2.1.2 0 0 .1 0 .1-.1v-.2s-.1-.1-.1 0c-.1 0-.1 0-.1.1h0zm-.1 1.1c0 .1.1.2.1.4 0 .1.2 0 .2-.1s-.1-.2-.1-.4c-.1 0-.3 0-.2.1h0z"/><path d="M292.7 51.6c.1.1.1.2.2.3s.2 0 .1-.1l-.2-.2c-.1-.1-.1-.1-.1 0h0zm.7-.8v.2c0 .1.2.1.2 0s0-.2-.1-.3c.1-.1-.1 0-.1.1h0zm1.1.7c0-.1.1-.2.1-.3s-.1-.2-.2-.1c0 .1-.1.2-.1.3-.1.2.1.3.2.1h0zm.1-1.2c0-.1.1-.3.1-.4s-.2-.2-.2 0c-.1.1-.1.3-.1.4s.2.1.2 0h0zm.5.3c.1-.2.2-.4.3-.5 0-.1-.1-.2-.2-.1-.1.2-.2.4-.3.5 0 .1.2.2.2.1h0zm1.5-.9c.1-.1.2-.1.3-.2s0-.2-.1-.1-.1.1-.2.3c0-.1-.1 0 0 0-.1 0 0 .1 0 0h0zm1.1 0a1.38 1.38 0 0 0 .4-.3c.1-.1-.1-.2-.1-.1-.1.1-.3.2-.4.3-.1 0 0 .2.1.1h0zm-1.8 1.1c.1-.1.3-.2.4-.3s0-.2-.1-.2c-.1.1-.3.2-.4.3s0 .2.1.2h0z"/><path d="M295 51.9l.3-.3c.1-.1 0-.2-.1-.1l-.3.3c-.1.1 0 .2.1.1h0zm.1-3.7c0 .1 0 .2-.1.3 0 .1.1.2.2 0 0-.1 0-.2.1-.3 0 0-.2-.1-.2 0h0zm4 .7c.1 0 .2-.1.3-.2s0-.2-.1-.1-.2.1-.3.2c-.1 0 0 .2.1.1h0z"/></g><g class="Q"><use xlink:href="#J" x="190.9" y="-18.8" opacity=".3" class="V"/><path d="M281.4 79.4l2.7 4.2h-.1l-2.9-4.1z"/><path d="M277.7 80.2l6.3 3.4v.1l-6.5-3.4z"/><path d="M276.6 83.1l7.2.5h.2l-7.2-.2z"/><path d="M279.4 85.7l4.5-2.1.2.1-4.4 2.3z"/></g><g class="R"><path d="M283.6 84.2l-.3.3c-.1 0 0 .1.1.1 0-.2.2-.3.2-.4.1 0 0-.1 0 0h0zm-.7.5c-.1.1-.2.2-.4.3-.1 0 0 .1.1.1.1-.1.2-.2.4-.3.1-.1 0-.2-.1-.1h0zm-.7.4c-.1 0-.1 0-.2.1-.1 0-.1.1-.2.1s0 .1.1.1.1-.1.2-.1c0 0 .1-.1.2-.1 0 0 0-.1-.1-.1h0zm-.8.2a1.38 1.38 0 0 0-.4.3c-.1 0 0 .1.1.1.1-.1.3-.2.4-.3 0 0 0-.1-.1-.1h0zm-3.7-1.6h.7c.1 0 .1-.1 0-.1h-.6c-.2 0-.2.1-.1.1h0z"/><use xlink:href="#L"/><path d="M278.6 84.3h.4c.1 0 .1-.1 0-.1s-.3 0-.4.1c-.1-.1-.1 0 0 0h0zm.1.4c.1 0 .2 0 .4-.1.1 0 .1-.1 0-.1s-.3 0-.4.2c-.1-.1-.1 0 0 0h0zm.9.3c.1 0 .2 0 .3-.1.1 0 0-.1 0-.1-.1 0-.2 0-.3.2-.1-.1-.1 0 0 0h0zm.1-.5c.1-.1.3-.1.4-.1s.1-.1 0-.1-.3 0-.5.1c0 .1 0 .2.1.1h0z"/><path d="M280.6 84.7c.1 0 .2 0 .4-.1.1 0 .1-.1 0-.1s-.3 0-.4.2c-.1-.1 0 .1 0 0h0zm-1.1-.7h.4c.1 0 .1-.1 0-.1s-.2 0-.4.1c-.1-.1-.1 0 0 0h0z"/><use xlink:href="#L" x="1" y="-0.2"/><path d="M280.3 83.9h.3c.1 0 .1-.1 0-.1s-.2 0-.3.1c-.1-.2-.1 0 0 0h0zm.3.2h.4c.1 0 .1-.1 0-.1s-.3 0-.4.1c-.2-.1-.1 0 0 0h0zm.9.2c.2 0 .3 0 .5-.1.1 0 0-.1 0-.1-.1 0-.3 0-.4.1-.2 0-.2.1-.1.1h0zm-.1-.4h.4c.1 0 .1-.1 0-.1s-.2 0-.4.1c-.1-.1-.1 0 0 0h0zm.9.1h.4c.1 0 .1-.1 0-.1s-.3 0-.4.1c-.1-.2-.1 0 0 0h0zm-5.1-1.2c.1 0 .3 0 .3.1.1 0 .1-.1.1-.1-.1-.1-.3-.1-.4 0-.1-.1-.1 0 0 0h0zm-.1-.4h.3c.1 0 .1-.1 0-.1s-.2 0-.3.1c-.1-.2-.1-.1 0 0h0zm.8.2h.4c.1 0 .1-.1 0-.1s-.3 0-.4.1c-.1-.2-.1 0 0 0h0zm.6.2h.3c.1 0 .1-.1 0-.1s-.2 0-.3.1c-.1-.1-.1.1 0 0h0zm1.1.1h.3c.1 0 .1-.1 0-.1s-.2 0-.3.1c0-.1 0 0 0 0h0zm-.6-.5c.1 0 .3.1.4.1s.1-.1 0-.1-.3-.1-.4 0c0-.2-.1-.1 0 0h0zm-.7-.5h.3c.1 0 .1-.1 0-.1s-.2 0-.3.1c0-.2-.1 0 0 0h0z"/><path d="M277.3 81.7h.2s.1-.1 0-.1-.1 0-.2.1c-.1-.1-.1 0 0 0h0zm1-.3c.1 0 .2 0 .2.1.1 0 .1-.1.1-.1-.1 0-.2-.1-.2-.1-.1-.1-.1.1-.1.1h0zm1.3.7c.1 0 .2.1.3.1s.1-.1 0-.1-.1-.1-.3 0c0-.1 0 0 0 0h0zm.4.4c.1 0 .2 0 .3.1.1 0 .1-.1 0-.1s-.2-.1-.3 0c0-.1-.1 0 0 0h0zm.5.4c.1 0 .2 0 .4.1.1 0 .1-.1 0-.1s-.2-.1-.4 0c0-.1-.1 0 0 0h0zm.5-.2c.1 0 .2.1.3.1s.1-.1 0-.1-.2-.1-.3 0h0zm.8.5c.1 0 .2.1.4.1.1 0 .1-.1 0-.1s-.2-.1-.4 0c-.1-.2-.1-.1 0 0h0zm-2.8-2.8a.76.76 0 0 1 .4.2c.1 0 .1-.1.1-.1-.1-.1-.3-.2-.5-.1 0-.1 0 0 0 0h0z"/><path d="M279.8 80.2c.1 0 .2.1.2.1.1 0 .1-.1.1-.1-.1 0-.1-.1-.2-.1s-.2.1-.1.1h0zm.3.6c.1 0 .2.1.2.1.1 0 .1-.1.1-.1-.1 0-.2-.1-.2-.1-.1 0-.2.1-.1.1h0zm.3.2c.1 0 .1-.1 0 0 0-.1-.1 0 0 0h0zm.6.5c.1.1.1.1.2.1s.1-.1 0-.1c0-.1 0-.1-.2 0 .1-.2 0-.1 0 0h0z"/><path d="M280.8 80.7c.1.1.2.2.3.2s.1-.1.1-.1c-.1-.1-.2-.2-.3-.2s-.1.1-.1.1h0zm.1-.7c0 .1.1.1.2.2h.1v-.1c-.2-.1-.2-.1-.3-.1 0-.1 0-.1 0 0-.1 0-.1 0 0 0h0zm1 1.2c.1.1.2.1.2.2s.1 0 .1-.1c-.1-.1-.2-.2-.3-.1 0-.1-.1 0 0 0h0zm.2.7c.1 0 .1.1.2.2.1 0 .1-.1.1-.1-.1 0-.2-.1-.2-.2-.1-.1-.1 0-.1.1h0zm.4.5s.1 0 .1.1c.1 0 .1-.1.1-.1s-.1 0-.1-.1c-.1 0-.2.1-.1.1h0zm.7-.8l.2.2c0 .1.1 0 .1-.1l-.2-.2c0-.1-.1 0-.1.1h0zm.4-.8c0 .1 0 .1.1.2 0 .1.1 0 .1 0 0-.1 0-.1-.1-.2 0-.1-.1-.1-.1 0h0z"/><path d="M283 80.7c0 .1.1.1.1.2h.1v-.1l-.1-.1h-.1zm1.3.4s0 .1 0 0c0 .1 0 .1 0 0 0 .1 0 .1 0 0 0 .1 0 .1 0 0 0 .2.1.2 0 0 .1.1.1 0 .1 0h-.1zm-.3.7v.2c0 .1.1.1.1 0v-.2h-.1zm-.2.7c0 .1 0 .1.1.2 0 .1.1 0 .1-.1s0-.1-.1-.2c0 0-.1 0-.1.1h0zm.6-.4h0c0 .2.1.2.1.1V82c0 .1-.1.1-.1.1h0z"/></g><path d="M284.7 82c-.1-.7-.6-2-.6-2s-7.5-.6-9.9-.2-7.2 1.6-7.2 1.6-.3 1.8.1 2.3 2.3 3.4 9.5 2.9c7-.5 8.2-3.6 8.1-4.6z" class="S"/><path d="M284.3 80.8c-1-.9-2.4-.1-3.8.4-1.1.4-2.1 1-2.9 1.7-.1.2-.4.4-.4.6s.2.2.4.1l-.1.2c.9.2-.6 2.5-1 2.7-.3.2 1.3 0 1.9-.1 2.1-.3 4.3-1.4 5.3-2.4.3-.3.7-1 .8-1.4.2-.3.2-1.4-.2-1.8z" class="T"/><ellipse transform="matrix(.9997 -.02627 .02627 .9997 -2.0386 7.2681)" cx="275.6" cy="81.2" rx="8.7" ry="4.3" class="R"/><ellipse transform="matrix(.9997 -.02627 .02627 .9997 -2.0386 7.2707)" cx="275.7" cy="81.2" rx="8.3" ry="4.1" class="Q"/><ellipse transform="matrix(.9997 -.02627 .02627 .9997 -2.0333 7.2706)" cx="275.7" cy="81" rx="7.5" ry="3.5" class="U"/><g class="Q"><ellipse transform="matrix(.9997 -.02627 .02627 .9997 -2.0386 7.2707)" cx="275.7" cy="81.2" rx=".8" ry=".2"/><path d="M275.8 81.2l4.6-3.2.2.2-4.7 3zm.3-3.8l-.4 3.7h.2l.5-3.8z"/><path d="M272.1 77.9l3.6 3.2v.1l-3.9-3.2z"/><path d="M268.7 79.6l7 1.6v.1l-7.1-1.5z"/><path d="M268.5 82.7l7-1.5h.2l-7 1.7z"/><path d="M271.9 84.5l3.7-3.3.2.1-3.6 3.3zm4-3.3l1 3.7.3-.1-1.2-3.6z"/><path d="M276.1 81.1l6.4 1.8-.2.2-6.3-1.9z"/><path d="M283.1 79.8c-.1 0-7.3 1.3-7.3 1.3v.1l7.5-1.2-.2-.2z"/></g><g class="R"><path d="M275.4 81.8c-.1.1-.1.2-.2.3 0 .1.1.1.1.1.1-.1.2-.2.2-.3.1-.1 0-.2-.1-.1h0zm.2.2c-.1.1-.1.2-.1.4 0 .1.1.1.1 0 .1-.2.1-.3 0-.4.2-.1 0-.1 0 0h0zm.2.1v.4c0 .1.1.1.1 0v-.4c.1-.1-.1-.1-.1 0h0zm-.8.4l-.3.3c0 .1 0 .1.1.1.1-.1.2-.2.2-.4.1 0 0-.1 0 0h0z"/><path d="M275.3 82.5c-.1.1-.1.2-.1.3s.1.1.1 0 .1-.2.1-.3h-.1zm.3.2v.4c0 .1.1.1.1 0s0-.3.1-.4c0 0-.1-.1-.2 0h0zm.4.3c0 .1.1.2.1.3s.1.1.1 0-.1-.2-.1-.4c0 0-.1 0-.1.1h0zm-.7.3c-.1.1-.1.2-.1.4 0 .1.1.1.1 0s.1-.2.1-.3-.1-.2-.1-.1h0zm-.5-.2c-.1.1-.1.2-.2.3 0 .1 0 .1.1.1.1-.1.1-.2.2-.3s0-.2-.1-.1h0zm-.4-.1c-.1 0-.1.1-.1.1l-.2.2c-.1.1 0 .1.1.1 0-.1.1-.1.1-.1l.1-.1c.1-.1.1-.2 0-.2h0zm-.8.5c-.1.1-.2.3-.3.4 0 .1 0 .1.1.1.1-.2.2-.3.2-.5h0zm.2.3c-.1.1-.1.2-.2.3 0 .1.1.1.1.1.1-.1.1-.2.2-.3 0-.1-.1-.1-.1-.1h0z"/><path d="M274.3 83.7c0 .1-.1.3-.1.4s.1.1.1.1c.1-.2.1-.3.1-.5 0 0-.1-.1-.1 0h0zm.6.1v.3c0 .1.1.1.1 0v-.3c0-.1-.1-.1-.1 0h0zm.7-.1v.5c0 .1.1.1.1 0v-.4c0-.2-.1-.2-.1-.1h0zm.5 0c0 .2.1.4.2.6 0 .1.1 0 .1 0-.1-.2-.2-.4-.2-.5 0-.2-.1-.2-.1-.1h0zm.2-.1c0 .1.1.2.1.3s.1 0 .1 0v-.2c-.1-.2-.2-.2-.2-.1h0zm-6.7-.7c.2 0 .4-.1.7-.2.1 0 0-.1 0-.1-.2 0-.4.1-.6.1-.1.1-.1.2-.1.2h0zm.3.2c.1 0 .2-.1.3-.1s0-.1 0-.1c-.1 0-.2.1-.3.2-.1-.1-.1 0 0 0h0zm.8.2c.1 0 .2-.1.4-.1.1 0 .1-.1 0-.1a.76.76 0 0 0-.4.2c-.1-.1-.1 0 0 0h0zm.2.3c.1 0 .2-.1.3-.2.1 0 0-.1 0-.1-.1 0-.2.1-.4.2-.1.1 0 .2.1.1h0zm.9.1c.1-.1.2-.1.3-.1s0-.1-.1-.1c-.1.1-.2.1-.3.1 0 0 0 .1.1.1h0zm0-.5c.1-.1.3-.1.4-.2.1 0 0-.1 0-.1-.1 0-.3.1-.4.3-.1 0-.1.1 0 0h0zm1 0c.1 0 .2-.1.3-.2.1 0 0-.1 0-.1a.76.76 0 0 0-.4.2c-.1 0 0 .1.1.1h0zm-1.4-.4c.1 0 .2-.1.4-.1.1 0 0-.1 0-.1-.1 0-.2.1-.4.2-.1-.1 0 0 0 0h0zm-.6-.2c.1 0 .2 0 .3-.1.1 0 0-.1 0-.1-.1 0-.2 0-.3.2-.1 0-.1.1 0 0h0zm1.4-.2c.1 0 .2-.1.3-.1s0-.1 0-.1c-.1 0-.2.1-.3.2-.2-.1-.1 0 0 0h0zm.3.2c.1-.1.2-.1.3-.1s0-.1 0-.1c-.1 0-.2.1-.4.1 0 0 0 .1.1.1h0zm.9-.1c.1-.1.3-.1.4-.2.1 0 0-.1-.1-.1-.1.1-.3.1-.4.2 0 0 .1.2.1.1h0zm-.2-.3c.1 0 .3 0 .4-.1.1 0 0-.1 0-.1-.1 0-.2.1-.4.2h0zm.9-.2c.1 0 .3-.1.4-.1s0-.1 0-.1a.76.76 0 0 0-.4.2c-.1-.1-.1 0 0 0h0zm-5.2.2c.1 0 .2-.1.4 0 .1 0 .1-.1 0-.1s-.3 0-.4.1c-.1 0 0 .1 0 0h0zm-.2-.4c.1 0 .2 0 .3-.1.1 0 0-.1 0-.1-.1 0-.2 0-.3.2-.1-.1-.1 0 0 0h0zm.8 0c.1 0 .3-.1.4-.1s.1-.1 0-.1-.3 0-.4.2c-.1-.1 0 0 0 0h0zm.7.1c.1 0 .2 0 .3-.1.1 0 0-.1 0-.1-.1 0-.2 0-.3.2-.2-.1-.1 0 0 0h0zm1.1-.2c.1 0 .2-.1.3-.1s.1-.1 0-.1-.2 0-.3.2c-.1-.1-.1 0 0 0h0zm-.7-.4h.4c.1 0 .1-.1 0-.1s-.3 0-.4.1c-.1-.1-.1 0 0 0h0zm-.9-.3h.3c.1 0 0-.1 0-.1-.1 0-.2 0-.3.1h0zm-1 .1h.3c.1 0 0-.1 0-.1-.1 0-.2 0-.3.1-.1-.1-.1 0 0 0h0zm.9-.6h.2c.1 0 .1-.1 0-.1s-.2 0-.2.1c0-.1 0 .1 0 0h0z"/><use xlink:href="#L" x="-6.8" y="-3"/><use xlink:href="#L" x="-6.3" y="-2.7"/><path d="M272.2 81.5h.4c.1 0 .1-.1 0-.1s-.2 0-.4.1c-.1-.2-.1 0 0 0h0z"/><use xlink:href="#L" x="-5.3" y="-2.8"/><path d="M273.4 81.3h.4c.1 0 .1-.1 0-.1s-.2 0-.4.1c-.1-.1-.1 0 0 0h0zm2.9.4a1.38 1.38 0 0 1 .3.4c0 .1.1 0 .1-.1-.1-.1-.2-.2-.2-.3-.1-.2-.2-.1-.2 0h0zm.3 0c.1.1.2.1.3.2.1 0 .1 0 .1-.1-.1-.1-.2-.2-.3-.2s-.2.1-.1.1h0zm.5.1c.1 0 .2.1.4.1.1 0 .1-.1 0-.1s-.2-.1-.4 0c0-.1-.1 0 0 0h0zm-.6.5c.1.1.2.3.3.4 0 .1.1 0 .1-.1-.1-.1-.2-.3-.3-.4 0-.1-.1 0-.1.1h0zm.4 0c.1.1.2.1.3.2.1 0 .1-.1.1-.1-.1-.1-.2-.2-.3-.2-.1-.1-.2.1-.1.1h0zm.5 0c.1 0 .2.1.2.1.1 0 .1-.1.1-.1-.1-.1-.2-.1-.3 0 0-.1 0 0 0 0h0zm.5-.2c.1 0 .2.1.4.1.1 0 .1-.1 0-.1s-.2-.1-.4 0c-.1-.1-.1 0 0 0h0z"/><path d="M276.9 83.1c.1.1.1.2.2.3 0 .1.1 0 .1-.1-.1-.1-.1-.2-.2-.3s-.2 0-.1.1h0zm.3-.3l.2.2h.1v-.1c-.1 0-.1-.1-.2-.2l-.1.1zm.6 0c.1.1.2.1.3.2.1 0 .1-.1.1-.1-.1-.1-.2-.1-.3-.2s-.2 0-.1.1h0zm.5-.2c.1 0 .2.1.4.1.1 0 .1-.1 0-.1s-.2-.1-.3-.1-.1.1-.1.1h0z"/><path d="M278.9 82.5c.1 0 .2 0 .4.1.1 0 .1-.1 0-.1h-.4c0-.2 0-.1 0 0h0zm.9.2c.1 0 .2.1.3.1s.1-.1.1-.1c-.1 0-.2-.1-.3-.1-.2-.1-.2.1-.1.1h0zm-2.6 1c0 .1.1.2.2.3.1 0 .1 0 .1-.1-.1-.1-.1-.2-.2-.3 0 0-.2 0-.1.1h0zm.2-.3l.2.2c0 .1.1 0 .1-.1-.1 0-.1-.1-.3-.1 0-.1-.1 0 0 0h0z"/><path d="M277.9 83.8l.2.2c.1.1.1 0 .1-.1-.1 0-.1-.1-.3-.1.1-.1 0-.1 0 0h0zm0-.5c.1 0 .1.1.2.1h.1v-.1c-.1 0-.1-.1-.2-.1-.1-.1-.1 0-.1.1-.1-.1 0-.1 0 0h0zm.7.3c.1 0 .1.1.2.1h.1v-.1c-.1 0-.1-.1-.2-.1 0 0-.1 0-.1.1h0zm-.2-.6c.1.1.2.2.3.2s.1-.1.1-.1c-.1-.1-.2-.1-.3-.2s-.2 0-.1.1h0zm.8.3c.1 0 .2.1.3.1s.1-.1 0-.1-.2-.1-.3 0h0zm-.1-.4c.1.1.2.1.4.1.1 0 .1-.1 0-.1s-.2-.1-.3-.1c-.1-.1-.2 0-.1.1h0zm.9.3c.1 0 .2.1.3.1s.1-.1 0-.1-.2-.1-.3 0c-.1-.1-.1 0 0 0h0zm.4-.2c.2 0 .3.1.5.2.1 0 .1-.1.1-.1-.2-.1-.3-.1-.5-.2-.2 0-.2.1-.1.1h0z"/><use xlink:href="#L" x="-0.6" y="-2.7"/><path d="M277.7 81.5h.2c.1 0 .1-.1 0-.1s-.1 0-.2.1c-.1-.2-.1 0 0 0h0zm.5 0h.3c.1 0 .1-.1 0-.1s-.2 0-.3.1c-.1-.1 0 0 0 0h0z"/><path d="M278.3 81.2h.4c.1 0 .1-.1 0-.1s-.3 0-.4.1c-.1-.1-.1 0 0 0h0zm.9.2h.2c.1 0 .1-.1 0-.1s-.1 0-.2.1c0-.1 0 0 0 0h0zm.3.4c.1 0 .2.1.4.1.1 0 .1-.1 0-.1s-.2 0-.3-.1-.2 0-.1.1h0zm1.1.4c.1 0 .2.1.3.1s.1-.1 0-.1-.2-.1-.3 0c0-.2 0-.1 0 0h0zm0-.6c.1 0 .3 0 .4.1.1 0 .1-.1 0-.1s-.3-.1-.4 0c-.1-.1-.1 0 0 0h0z"/><use xlink:href="#L" x="2" y="-2.8"/><path d="M279.2 81c.1 0 .2 0 .4-.1.1 0 .1-.1 0-.1s-.2 0-.4.2h0zm1.8-.2h.4c.1 0 .1-.1 0-.1s-.2 0-.4.1c-.1-.2 0 0 0 0h0z"/><use xlink:href="#L" x="3.3" y="-2.7"/><use xlink:href="#L" x="4" y="-2.2"/><path d="M282.3 81.2c.1 0 .2.1.3.1s.1-.1 0-.1-.2-.1-.3 0c0-.1-.1 0 0 0h0zm-.3-.6h.4c.1 0 .1-.1 0-.1s-.3 0-.4.1h0zm-5 .2c.1-.1.2-.1.3-.1s0-.1 0-.1c-.2 0-.3 0-.3.2-.1-.1-.1 0 0 0h0zm.6-.1c.1 0 .2 0 .2-.1.1 0 0-.1-.1-.1s-.1.1-.2.1c0 0 0 .1.1.1h0zm1.4-.2h.1c.1 0 0-.1 0-.1l-.1.1c-.1-.1 0 0 0 0h0zm-1-.3c.1 0 .2-.1.3-.1s0-.1-.1-.1c-.1.1-.2.1-.3.1 0 0 0 .1.1.1h0zm.5 0c.1 0 .2-.1.3-.1s0-.1 0-.1c-.1 0-.2.1-.3.2-.1 0 0 .1 0 0h0zm1.2-.3c.1 0 .3-.1.4-.1s0-.1 0-.1a.76.76 0 0 0-.4.2c-.1-.1-.1.1 0 0h0zm-.6-.3c.1-.1.2-.1.3-.1s0-.1 0-.1c-.1 0-.2.1-.3.2-.1 0 0 .1 0 0h0zm1-.6c.1 0 .1 0 .2-.1.1 0 0-.1 0-.1h-.1c-.1.1-.1.2-.1.2h0zm.2.4c.1-.1.3-.1.4-.2.1 0 0-.1 0-.1-.2 0-.3.1-.4.3-.2 0-.1.1 0 0h0zm.9.3c.1 0 .2 0 .3-.1.1 0 .1-.1 0-.1s-.2 0-.4.1c0 0 0 .1.1.1h0zm.5.1c.1 0 .2 0 .2-.1.1 0 0-.1 0-.1-.1 0-.2 0-.2.2-.1-.1 0 0 0 0h0zm-11.6-.4c.1 0 .3 0 .5.1.1 0 .1-.1 0-.1-.2 0-.3-.1-.5 0-.1-.1-.1 0 0 0h0zm.6-.3c.1 0 .2 0 .2.1.1 0 .1-.1 0-.1h-.2c0-.2-.1-.1 0 0h0zm.5.4c.1 0 .2 0 .3.1.1 0 .1-.1 0-.1h-.3c-.1-.1-.1 0 0 0h0z"/><path d="M271.5 79.6c.1 0 .1-.1 0 0h0zm.7.3c.1 0 .2 0 .2.1.1 0 .1-.1 0-.1 0-.1 0-.1-.2 0 0-.1 0 0 0 0h0zm-.3-.7c.1 0 .2.1.4.1.1 0 .1-.1 0-.1s-.2-.1-.4 0c-.1-.1-.1 0 0 0h0zm-.2-.7c.1 0 .1.1.2.1h.1v-.1c-.1 0-.1-.1-.2-.1s-.1 0-.1.1h0zm1.3.9c.1 0 .2.1.3.1s.1-.1.1-.1c-.1-.1-.2-.1-.3-.1-.2 0-.2.1-.1.1h0zm.4.6c.1 0 .2.1.3.1s.1-.1 0-.1-.2-.1-.3 0c0-.1-.1 0 0 0h0zm.5.5h.1c.1 0 .1-.1 0-.1l-.1.1c0-.2-.1-.1 0 0h0zm.5-1.1c.1.1.2.1.2.2.1 0 .1 0 .1-.1-.1-.1-.2-.1-.3-.1 0-.1-.1 0 0 0h0z"/><path d="M274.5 78.5c0 .1.1.1.1.2s.1 0 .1-.1-.1-.1-.1-.2l-.1.1zm-.5.2c0 .1.1.1.1.1h.1v-.1c-.1 0-.1-.1-.2 0 0-.1 0-.1 0 0 0-.1 0-.1 0 0h0zm1.3 0h0s0 .1 0 0c0 .1 0 .1 0 0 0 .1 0 .1.1.1 0 0 .1 0 .1-.1v-.1c-.1 0-.2 0-.2.1h0zm-.1.8c0 .1 0 .1.1.2 0 .1.1 0 .1 0 0-.1-.1-.1-.1-.2s-.1-.1-.1 0h0z"/><path d="M275.2 80.2c0 .1.1.1.1.2.1.1.1 0 .1-.1s-.1-.2-.2-.1c.1-.2 0-.1 0 0h0zm.5-.5h0c0 .2.1.2.1.1v-.2c-.1-.1-.2 0-.1.1h0zm.6.4c0-.1.1-.1.1-.2s-.1-.1-.1-.1c0 .1-.1.1-.1.2s.1.2.1.1h0zm.1-.8c0-.1.1-.2.1-.3s-.1-.1-.1 0-.1.2-.1.3.1.1.1 0h0zm.3.2c.1-.1.1-.2.2-.3 0-.1-.1-.1-.1-.1-.1.1-.1.2-.2.3 0 .1.1.2.1.1h0zm1-.6c.1 0 .1-.1.2-.1.1-.1 0-.1-.1-.1-.1.1-.1.1-.1.2-.1 0-.1 0 0 0-.1.1 0 .1 0 0h0zm.7 0c.1-.1.2-.1.3-.2.1 0 0-.1-.1-.1-.1.1-.2.2-.2.3-.1 0-.1.1 0 0h0zm-1.2.7c.1-.1.2-.1.3-.2.1 0 0-.1-.1-.1-.1.1-.2.2-.2.3-.1 0 0 .1 0 0h0z"/><path d="M276.6 80.4l.2-.2c.1-.1 0-.1-.1-.1s-.1.1-.1.3c-.1-.1 0 0 0 0h0zm.1-2.4v.2c0 .1.1.1.1 0V78c0-.1-.1-.1-.1 0h0zm2.6.4c.1 0 .1-.1.2-.1s0-.1-.1-.1c0 .1-.1.1-.2.1 0 .1 0 .2.1.1h0z"/></g><path d="M278.3 78c-.6-.3-1.4-.3-2-.3-1.4 0-2.8.1-4.1.4l-1.6.6a2.73 2.73 0 0 0-1.2.9c-.5.7-.7 1.7-.2 2.4.2.4.6.7 1 .9 1.2.8 2.4.5 2.6.4.4-.2.8-.8.7-1.3-.1-.4-.3-.6-.3-1 .1-.6.4-.9.8-1.3.6-.4 1.2-.6 1.9-.8.8-.2 1.5-.3 2.3-.4.2 0 .5-.1.5-.4 0 .1-.2 0-.4-.1z" opacity=".3" class="Q V"/><defs ><path id="B" d="M113.9 77.5c-.2.1-.4.3-.6.4-.1.1 0 .2.1.2.2-.1.4-.3.6-.4.1-.1 0-.3-.1-.2h0z"/><path id="C" d="M107.3 77.5c.2 0 .4-.1.6-.1.1 0 .1-.2 0-.2-.2 0-.4.1-.6.1s-.2.2 0 .2h0z"/><path id="D" d="M107.6 76h.5c.1 0 .1-.2 0-.2h-.5c-.1 0-.1.2 0 .2h0z"/><path id="E" d="M111.5 76.3h.6c.1 0 .1-.2 0-.2h-.6c-.1 0-.1.2 0 .2h0z"/><path id="F" d="M107.8 73.9c.2 0 .4.1.6.1.1 0 .2-.1 0-.2-.2 0-.4-.1-.6-.1-.1 0-.1.2 0 .2h0z"/><path id="G" d="M110.1 74.8c.2 0 .4.1.6.1.1 0 .2-.1 0-.2-.2 0-.4-.1-.6-.1 0 0-.1.2 0 .2h0z"/><path id="H" d="M116.6 73.3c-.1-1.1-1-3.1-1-3.1s-11.7-1-15.4-.4-11.3 2.6-11.3 2.6-.5 2.8.1 3.5 3.6 5.3 14.9 4.5c11.1-.7 12.9-5.5 12.7-7.1z"/><path id="I" d="M110.2 72.7c.2 0 .4.1.6.1.1 0 .2-.1 0-.2-.2 0-.4-.1-.7-.1 0 0 0 .2.1.2h0z"/><path id="J" d="M106.7 67.1c-.9-.5-2.2-.5-3.2-.4-2.1 0-4.3.2-6.4.7-.5.1-2.2.8-2.6 1-.7.3-1.4.8-1.9 1.4-.8 1.1-1.1 2.6-.4 3.8.4.6.9 1.1 1.5 1.5 1.9 1.3 3.7.8 4.1.6.7-.4 1.2-1.2 1.1-2-.1-.6-.5-1-.4-1.6.1-.9.6-1.4 1.3-2 .9-.7 1.9-.9 3-1.2 1.2-.3 2.4-.4 3.6-.6.3 0 .8-.2.8-.5.1-.4-.3-.6-.5-.7z"/><path id="K" d="M154.7 56.4h.4c.1 0 .1-.2 0-.2h-.4c-.1 0-.1.2 0 .2h0z"/><path id="L" d="M277.9 83.9h.3c.1 0 .1-.1 0-.1s-.2 0-.3.1c-.1-.1-.1 0 0 0h0z"/></defs></svg>