<svg xmlns="http://www.w3.org/2000/svg" viewBox="0 0 389 157"  xmlns:v="https://vecta.io/nano"><path d="M99.1 85.2s-28.3-2.7-17.6-7.7c11-2.8 36.9 2.4 47.1-3-7.8-7.4-40.5.8-39.9-4.9 7.6-6.1 35-27.1 71-23 23.4.8 9.5 4.2-10.2 9.1-2.3 3.5 19.2-3.7 35.9-7.2 10.3-2.1 16.1-.4 21.3-1 13.4-1.6 36.2-10 40.8-6.3-7.4 8.4-23.4 13.9-14.4 13.1 3.3-.3 9.3-5.4 15.4-7.3 10.6-3.4 22.9-3.9 31.7.2 12.7 6.5 17.1 4.8 13.4 6.6.8 2.6 2.1 4.7 6.3 2.5 4.2-2.3 8.6-.4 3.2-3.5 5.3-3.2 41.4 10.9 28.7 19.6-13.1 8.7-13.9 17.9-42.2 9.4-4.5-.1-2.8 5.5-6.3 8.2-7.1 5.3-18.4 9.6-23.9 7.9-8.3-2.5-34-11.8-54.6-7.9-2.8 4.6 11.6 1.3 17.3 2.7 2 3.6-11 7.8-27.5 5.5s-24.9-9.8-34.3-5.5c-9.6 4.3-45.6 2.7-61.2-7.5z" fill="#ffe5a8"/></svg>