<?xml version="1.0" encoding="utf-8"?>
<!-- Generator: Adobe Illustrator 21.0.0, SVG Export Plug-In . SVG Version: 6.00 Build 0)  -->
<svg version="1.1" xmlns="http://www.w3.org/2000/svg" xmlns:xlink="http://www.w3.org/1999/xlink" x="0px" y="0px"
	 viewBox="0 0 389 157" style="enable-background:new 0 0 389 157;" xml:space="preserve">
<style type="text/css">
	.st0{display:none;}
	.st1{display:inline;}
	.st2{fill:#732A13;}
	.st3{fill:#6C151C;}
	.st4{fill:#F6C073;}
	.st5{fill:#F1A12E;}
	.st6{opacity:0.3;fill:#FBE0BA;}
	.st7{fill:#6F4026;}
	.st8{fill:#F6C278;}
	.st9{display:inline;fill:#AB1717;}
	.st10{fill:#EDE9E0;}
	.st11{fill:#D6BD9E;}
	.st12{clip-path:url(#SVGID_2_);}
	.st13{clip-path:url(#SVGID_4_);}
	.st14{fill:#F9F5ED;}
	.st15{fill:#94867B;}
	.st16{fill:#F3E9DD;}
	.st17{clip-path:url(#SVGID_6_);}
	.st18{clip-path:url(#SVGID_8_);}
	.st19{clip-path:url(#SVGID_10_);}
	.st20{clip-path:url(#SVGID_12_);}
	.st21{clip-path:url(#SVGID_14_);}
	.st22{clip-path:url(#SVGID_16_);}
	.st23{clip-path:url(#SVGID_18_);}
	.st24{clip-path:url(#SVGID_20_);}
	.st25{clip-path:url(#SVGID_22_);}
	.st26{clip-path:url(#SVGID_24_);}
	.st27{clip-path:url(#SVGID_26_);}
	.st28{clip-path:url(#SVGID_28_);}
</style>
<g id="Layer_1" class="st0">
	<g class="st1">
		
			<ellipse transform="matrix(0.9998 -1.910915e-02 1.910915e-02 0.9998 -1.7332 3.9663)" class="st2" cx="206.7" cy="92.7" rx="175.1" ry="48.7"/>
		
			<ellipse transform="matrix(0.9998 -1.911543e-02 1.911543e-02 0.9998 -1.5265 3.9296)" class="st3" cx="204.8" cy="81.8" rx="161" ry="44.8"/>
		
			<ellipse transform="matrix(0.9998 -1.911880e-02 1.911880e-02 0.9998 -1.4451 3.938)" class="st4" cx="205.2" cy="77.5" rx="158.3" ry="44.6"/>
		
			<ellipse transform="matrix(0.9998 -1.910344e-02 1.910344e-02 0.9998 -1.3162 3.9312)" class="st5" cx="205.1" cy="70.9" rx="145.6" ry="32.3"/>
		
			<ellipse transform="matrix(0.9998 -1.911081e-02 1.911081e-02 0.9998 -1.3431 3.9335)" class="st5" cx="205.1" cy="72.2" rx="139.4" ry="30.9"/>
		<path class="st6" d="M204.5,41.3c-77,1.5-139.1,16.5-138.8,33.6c0.3,17.1,63,29.7,140,28.3c77-1.5,139.1-16.5,138.8-33.6
			C344.2,52.5,281.5,39.9,204.5,41.3z M76.5,69.9c-0.4-0.2-0.5-0.7-0.3-1.1c3.1-9.1,15.8-8,22.9-11.7c0.3-0.2,0.6-0.2,0.8-0.1
			c15-5,30.2-7.7,46.5-8.8c9-0.6,18.1-0.6,27.1-0.7c5.3-0.1,12.1-0.5,16.1,3.6c0.6,0.6-0.1,1.5-0.7,1.7c-8,3.7-17.1,2.5-25.7,3.3
			c-11,1-22.1,2.7-32.9,4.8c-10.9,2.1-22.2,3.3-33,6.1C90.6,68.8,83.3,72.4,76.5,69.9z M180.5,95.3c-6.8,1.8-14,1.7-21,1.7
			c-9.1,0-18.1-0.1-27.2,0c-5.6,0-12.9,0-17.3-4.1c-4.6-4.3-9.2-3.7-15-3.6c-4.6,0-17.9,0.3-17.1-7.4c0.6-5.4,10.5-7.5,14.4-8.5
			c8.1-2.1,16.5-3.3,24.8-4c3.8-0.3,7.4-0.5,11.1-1.1c0.1-0.1,0.3-0.2,0.4-0.2c12.3-2.4,24.7-4,37.2-4.6c8.1-0.4,22-1.8,22.4,9.6
			C193.7,82.5,190.7,92.5,180.5,95.3z M213.5,49.7c7-6.9,18.9-4.7,27.8-6c0.5-0.1,0.7,0.1,0.8,0.4c6,0,12.1,0.7,18.1,1.3
			c6.4,0.6,16.7,0.8,21.1,6.5c0.4,0.6,0.1,1.6-0.7,1.7c-12.9,3.4-25.5-0.7-38.5,0c-8.7,0.5-20.9,2.9-28.6-2.4
			C213,50.8,213,50.1,213.5,49.7z M261.1,84.1c-1.6,4.3-7.6,5.8-11.6,6.6c-7.1,1.4-14.7,2.8-21.8,3.4c-7,0.6-12.6-1.2-15.8-7.8
			c-1.4-3-6.8-16-3.7-20.4c0.1-0.1,0.2-0.3,0.3-0.4c0.4-0.4,0.9-0.7,1.6-0.9c2-0.8,4.1-0.6,6.5,0.2c5.2,1.6,10.6,2.4,15.9,3.9
			c7,1.9,14.2,4.3,20.9,7.3C256.2,77.1,262.7,79.8,261.1,84.1z M300.7,71.4c-4.1,5.6-14.6,4.6-20.5,4.1c-11.3-0.9-22.3-2.5-33.2-5.8
			c-3.7-1.1-18.2-3.5-18.9-8.4c-0.3-2.3,2.3-3.5,5.3-4.1c9.4-3.8,19.3,0,28.9,0.7c5.4,0.4,10.9,1.2,16.2,2.1
			C281.8,60.5,306.3,63.8,300.7,71.4z"/>
		<path class="st7" d="M38.5,90c0,0-6.8,2.4-0.1,15.3c6.7,12.9,86.2,37.6,160.7,32.7c0,0,51.9,0,52.2-4.1c0.3-4.1-19.8-4.3-19.8-4.3
			s-23.5,0.7-33.8,0.8C187.5,130.4,54.8,131.5,38.5,90z"/>
		<path class="st8" d="M55.9,70.2c0,0-3.4-0.2-6.1,6.4c-2.7,6.6,7.9,22.9,55,33.2c47,10.3,115.1,12.6,150.4,6.2
			c35.3-6.4,18.1-15.1,0.9-12.8c-17.2,2.3-17.2,2.3-17.2,2.3S153,108.1,110,99.9C69.2,92.2,55.1,87.1,55.9,70.2z"/>
	</g>
</g>
<g id="Слой_3" class="st0">
	<path class="st9" d="M142.3,45.8c0,0,46.5-2,75.9-1.5c19.1,0.2,41.2-3.1,77.1,5.1c17.5,3.8,28.6,7.5,34.6,10.6
		c3.6,1.9,6,5.6,5.9,9.7c-0.1,6.2-6.3,15.6-56.8,26c-49.7,4.8-55.4,4.6-77.4,3.8c-24.5,0.9-52.2,3.2-76.1-2.4
		c-26.9-5.6-68.6-13.4-56.1-25.5C77.3,64.7,87.5,54.1,142.3,45.8z"/>
</g>
<g id="Слой_4">
	<g>
		<g>
			<path class="st10" d="M103.7,79.1c0.4-0.1,0.6-0.3,0.9-0.6c0.3-0.3,0.7-0.6,0.9-1c0.3-0.5,0.3-1.2,0.2-1.8
				c-0.4-2.6-1.4-4.4-3.4-6.1c-0.5-0.4-1.1-0.9-1.8-1.1c-1.2-0.4-3.2-0.7-4.3-0.3c-0.7,0.3-1.3,0.6-1.8,1.1c-0.7,0.7-1,1.8-0.9,2.8
				c0.1,1,0.7,1.9,1.4,2.6c0.1,0.1,0.2,0.1,0.2,0.3c0.1,0.2-0.1,0.4-0.3,0.6c-0.6,0.5-1.2,1.1-1.8,1.6c-0.1,0.1-0.2,0.2-0.2,0.3
				c0,0.2,0.1,0.4,0.2,0.5c1.2,1.2,2.7,2.8,4.3,3.3c0.2,0.1,0.6,0,0.8-0.3c0.3-0.6,1.4-2.2,2.1-2.3c0.4,0,0.8,0.1,1.2,0.3
				C102.2,79.2,103,79.3,103.7,79.1z"/>
			<g>
				<path class="st11" d="M95.8,73c-0.3-0.6,0-1,0.7-1.1c0.3,0,0.6,0,1,0.1c0.4,0.1,0.6,0.4,1,0.5c0.3,0,0.5-0.3,0.6-0.6
					c0.1-0.7-0.8-1.1-1.3-1.3c-0.6-0.1-1.3-0.1-1.8,0.2c-0.5,0.2-0.9,0.6-1,1.1c-0.1,0.6,0.3,1,0.7,1.3C95.7,73.2,95.8,73.1,95.8,73
					L95.8,73z"/>
			</g>
			<g>
				<path class="st11" d="M101.2,76.9c0.5,0.8,1.5,0.5,2-0.1c0.7-0.8,0.5-2.1-0.1-2.9c-0.5-0.7-1.7,0.2-1.2,0.9
					c0.2,0.3,0.4,0.7,0.4,1.1c-0.1,0.4-0.4,0.8-0.9,0.7C101.3,76.6,101.1,76.7,101.2,76.9L101.2,76.9z"/>
			</g>
			<g>
				<g>
					<defs>
						<path id="SVGID_1_" d="M103.7,79.1c0.4-0.1,0.6-0.3,0.9-0.6c0.3-0.3,0.7-0.6,0.9-1c0.3-0.5,0.3-1.2,0.2-1.8
							c-0.4-2.6-1.4-4.4-3.4-6.1c-0.5-0.4-1.1-0.9-1.8-1.1c-1.2-0.4-3.2-0.7-4.3-0.3c-0.7,0.3-1.3,0.6-1.8,1.1
							c-0.7,0.7-1,1.8-0.9,2.8c0.1,1,0.7,1.9,1.4,2.6c0.1,0.1,0.2,0.1,0.2,0.3c0.1,0.2-0.1,0.4-0.3,0.6c-0.6,0.5-1.2,1.1-1.8,1.6
							c-0.1,0.1-0.2,0.2-0.2,0.3c0,0.2,0.1,0.4,0.2,0.5c1.2,1.2,2.7,2.8,4.3,3.3c0.2,0.1,0.6,0,0.8-0.3c0.3-0.6,1.4-2.2,2.1-2.3
							c0.4,0,0.8,0.1,1.2,0.3C102.2,79.2,103,79.3,103.7,79.1z"/>
					</defs>
					<clipPath id="SVGID_2_">
						<use xlink:href="#SVGID_1_"  style="overflow:visible;"/>
					</clipPath>
					<g class="st12">
						<path class="st11" d="M105.8,76.4c-0.3,0.7-0.8,1.6-1.5,2c-1,0.6-2.1,0.1-3.1-0.4c-0.9-0.4-1.6-0.3-2.3,0.5
							c-0.4,0.4-0.6,0.9-0.9,1.4c-0.3,0.5-0.7,1-0.6,1.7c0,0.6,0.6,0.9,1.1,0.6c0.5-0.3,0.8-0.9,1.1-1.4c0.3-0.5,0.5-0.9,0.9-1.3
							c0.1-0.1,0.1-0.1-0.2,0c0.1,0,0.2,0.1,0.3,0.1c0.3,0.1,0.5,0.2,0.8,0.3c0.5,0.1,1.1,0.1,1.6,0c0.9-0.2,1.8-0.5,2.4-1.2
							c0.5-0.6,0.8-1.4,0.9-2.2C106.2,76.2,105.9,76.2,105.8,76.4L105.8,76.4z"/>
					</g>
				</g>
				<g>
					<defs>
						<path id="SVGID_3_" d="M103.7,79.1c0.4-0.1,0.6-0.3,0.9-0.6c0.3-0.3,0.7-0.6,0.9-1c0.3-0.5,0.3-1.2,0.2-1.8
							c-0.4-2.6-1.4-4.4-3.4-6.1c-0.5-0.4-1.1-0.9-1.8-1.1c-1.2-0.4-3.2-0.7-4.3-0.3c-0.7,0.3-1.3,0.6-1.8,1.1
							c-0.7,0.7-1,1.8-0.9,2.8c0.1,1,0.7,1.9,1.4,2.6c0.1,0.1,0.2,0.1,0.2,0.3c0.1,0.2-0.1,0.4-0.3,0.6c-0.6,0.5-1.2,1.1-1.8,1.6
							c-0.1,0.1-0.2,0.2-0.2,0.3c0,0.2,0.1,0.4,0.2,0.5c1.2,1.2,2.7,2.8,4.3,3.3c0.2,0.1,0.6,0,0.8-0.3c0.3-0.6,1.4-2.2,2.1-2.3
							c0.4,0,0.8,0.1,1.2,0.3C102.2,79.2,103,79.3,103.7,79.1z"/>
					</defs>
					<clipPath id="SVGID_4_">
						<use xlink:href="#SVGID_3_"  style="overflow:visible;"/>
					</clipPath>
					<g class="st13">
						<path class="st11" d="M91.9,77.6C91.9,77.6,91.9,77.6,91.9,77.6c-0.1-0.1-0.3-0.1-0.4-0.1c0.2,0.5,0.9,0.8,1.3,1.1
							c0.6,0.4,1.2,0.8,1.7,1.3c0.4,0.4,0.9,0.9,1.1,1.4c0.1,0.2,0,0.5,0.1,0.7c0.1,0.4,0.3,0.6,0.6,0.8c0.6,0.3,1.2,0,1.4-0.6
							c0.2-0.5,0-1.3-0.3-1.8c-0.3-0.7-1-1.3-1.7-1.8c-0.7-0.5-1.4-0.9-2.2-1.3c-0.6-0.3-1.4-0.8-2-0.3c-0.2,0.1-0.1,0.4,0.1,0.5
							c0,0,0.1,0,0.1,0C91.7,77.7,91.8,77.7,91.9,77.6L91.9,77.6z"/>
					</g>
				</g>
			</g>
			<g>
				<path class="st14" d="M100.8,72c-0.5,0.3-0.8,0.7-1.2,1.1c-0.4,0.5-0.9,1-1.3,1.5c-0.3,0.3-0.5,0.5-0.9,0.8
					c-0.1,0.1-0.3,0.2-0.4,0.3c-0.1,0.1-0.1,0.1,0,0c-0.1,0.1-0.3,0.2-0.4,0.3c-0.6,0.5-0.5,1.5,0,2c0.5,0.6,1.4,0.5,2,0
					c0.5-0.5,1-1.1,1.5-1.7c0.4-0.5,0.8-1.1,1-1.7c0.3-0.6,0.7-1.4,0.6-2.1C101.7,72.1,101.3,71.8,100.8,72L100.8,72z"/>
			</g>
			<g>
				<path class="st14" d="M97.1,73.6c0,0.5-0.7,0.3-1,0.2c-0.5-0.1-0.8-0.6-1-1c-0.6-1.1-0.4-2.3,0.9-2.7c0.9-0.3,1.9-0.1,2.7,0.1
					c0.9,0.2,1.7,0.6,2.3,1.2c0.3,0.4,1.1,0.2,1.2-0.3c0.4-2-2-2.5-3.6-2.6c-1.6-0.1-3.3,0.3-4.3,1.5c-1.1,1.3-0.7,3.5,0.7,4.5
					c0.6,0.4,1.3,0.5,1.9,0.4c0.7-0.2,0.8-0.8,0.5-1.3C97.3,73.3,97.1,73.4,97.1,73.6L97.1,73.6z"/>
			</g>
			<g>
				<path class="st14" d="M99.3,70.1c0.1,1.1,0.5,2.1,0.5,3.2c0,1,1.6,1.3,1.8,0.2c0.2-1.4-0.2-2.8-1.2-3.9
					c-0.6-0.8-1.7,0.1-1.5,0.9c0.1,0.7,0.6,1.2,0.9,1.8c0.2,0.4,0.1,0.8,0.3,1.2c0.1-0.4,0.2-0.8,0.3-1.3c0,0,0,0,0,0
					c-0.5,0.3-0.6,1-0.2,1.4l0,0c0.4,0.4,0.9,0.4,1.3,0c0.5-0.5,0.3-1.2,0.1-1.7c-0.2-0.7-0.9-1.3-1-2c-0.5,0.3-1,0.6-1.5,0.9
					c0.6,0.7,0.8,1.5,0.7,2.4c0.6-0.1,1.2-0.2,1.8-0.2c-0.3-1.1-0.9-2.5-1.9-3.2C99.6,69.7,99.3,69.9,99.3,70.1L99.3,70.1z"/>
			</g>
			<g>
				<path class="st14" d="M105,76.5c0.8-1.3,0-2.9-0.6-4.1c-0.4-0.7-0.9-1.3-1.5-1.9c-0.6-0.6-1.5-1.2-2.4-1.2
					c-0.4,0-0.7,0.3-0.8,0.6c-0.1,0.5,0.2,0.8,0.5,1c0.3,0.2,0.8,0.4,1.1,0.6c0.4,0.3,0.8,0.6,1.1,0.9c1.1,1.1,2.1,2.3,2.2,4
					C104.6,76.6,104.9,76.7,105,76.5L105,76.5z"/>
			</g>
			<g>
				<path class="st14" d="M104.1,73.2c-0.2-0.8-1-1.2-1.7-1.5c-0.4-0.1-0.9-0.1-1.3,0.1c-0.5,0.3-0.6,0.6-0.8,1.1
					c-0.2,0.5,0.4,0.8,0.8,0.6c0.3-0.1,0.7-0.3,1-0.4c0.4,0,1,0.2,1.4,0.4C103.9,73.8,104.2,73.6,104.1,73.2L104.1,73.2z"/>
			</g>
			<g>
				<path class="st14" d="M100.8,74.1c0.3-0.2,0.7-0.5,1-0.7c0.4-0.2,0.8-0.1,1.3-0.1c0.9,0,0.9-1.4,0-1.3c-0.6,0-1.2,0.1-1.7,0.5
					c-0.4,0.4-0.6,0.9-0.9,1.3C100.4,73.9,100.6,74.2,100.8,74.1L100.8,74.1z"/>
			</g>
			<g>
				<path class="st14" d="M95.8,70.1c1-0.1,1.9,0.1,2.7,0.7c0.4,0.3,0.8,0.6,1.1,0.9s0.5,0.8,0.9,1c0.4,0.2,0.8,0,0.9-0.4
					c0.4-1.3-1.3-2.3-2.3-2.7c-1.1-0.5-2.5-0.5-3.5,0.2C95.6,69.8,95.6,70.1,95.8,70.1L95.8,70.1z"/>
			</g>
			<g>
				<path class="st14" d="M99.3,74.7c0.7-0.3,1.4-1.1,1.6-1.8c0.3-0.9,0.2-2.3-0.9-2.6c-0.3-0.1-0.7,0.1-0.8,0.4
					c-0.1,0.3,0,0.6,0.1,0.9c0.1,0.3,0.1,0.6,0.1,0.9c0,0.6,0,1.3-0.4,1.9C99,74.5,99.1,74.7,99.3,74.7L99.3,74.7z"/>
			</g>
			<g>
				<path class="st15" d="M98.1,72.3c0.2,0,0.3,0,0.5,0c0-0.1-0.1-0.2-0.1-0.3c0,0,0,0.1,0,0.1c0,0,0,0,0,0c0,0,0,0,0,0
					c0-0.1-0.1-0.1-0.2-0.1C98.2,72.1,98.1,72.2,98.1,72.3c0.1,0.2,0.2,0.3,0.4,0.2c0.1,0,0.3-0.2,0.3-0.3c0-0.1-0.1-0.2-0.2-0.2
					c-0.1,0-0.3,0.1-0.4,0.1C98.1,72.2,98.1,72.3,98.1,72.3L98.1,72.3z"/>
			</g>
			<g>
				<path class="st15" d="M102,74.4c0,0.1-0.1,0.1-0.1,0.1c-0.1,0.2,0.1,0.4,0.3,0.3c0.1,0,0.1-0.1,0.1-0.2
					C102.2,74.5,102.2,74.4,102,74.4c0,0-0.1,0-0.2,0.1c0,0.1,0,0.1,0,0.2c0,0.2,0.3,0.3,0.4,0.1c0,0,0-0.1,0-0.1c0-0.1,0,0,0,0.1
					c0,0-0.1,0-0.1,0.1l0,0c0,0-0.1,0-0.1,0c0,0,0,0,0,0c0-0.1-0.1-0.1-0.1-0.2c0,0,0,0,0,0c0.1,0,0.3,0,0.4,0c0,0,0,0,0-0.1
					s0-0.1,0-0.1C102.1,74.3,102,74.3,102,74.4L102,74.4z"/>
			</g>
			<g>
				<path class="st16" d="M97.8,74.5c-0.8,0.7-1.4,1.4-2.2,2.1c-0.1,0.1,0,0.2,0.1,0.1c0.8-0.6,1.4-1.5,2.2-2.2
					C98,74.5,97.9,74.4,97.8,74.5L97.8,74.5z"/>
			</g>
			<g>
				<path class="st16" d="M98,74.8c-0.6,0.8-1.4,1.4-2,2.2c-0.1,0.1,0.1,0.2,0.1,0.1c0.7-0.7,1.5-1.4,2-2.3
					C98.2,74.8,98.1,74.7,98,74.8L98,74.8z"/>
			</g>
			<g>
				<path class="st16" d="M99.5,76.1c-0.7,1.1-1.7,2.1-2.1,3.4c0,0.1,0.1,0.2,0.2,0.1C98.2,78.4,99,77.3,99.5,76.1
					C99.6,76.1,99.5,76.1,99.5,76.1L99.5,76.1z"/>
			</g>
			<g>
				<path class="st16" d="M99,76.1c-0.7,0.9-1.4,1.8-1.8,2.9c0,0.1,0.1,0.2,0.2,0.1c0.6-1,1.1-1.9,1.8-2.9
					C99.2,76.1,99.1,76.1,99,76.1L99,76.1z"/>
			</g>
			<g>
				<path class="st16" d="M98.1,74.5c0.6-0.5,1.1-1.3,1.1-2.1c0-0.1-0.1-0.1-0.1,0c-0.1,0.3-0.2,0.6-0.3,0.9
					c-0.2,0.4-0.4,0.8-0.8,1.2C97.9,74.5,98,74.6,98.1,74.5L98.1,74.5z"/>
			</g>
			<g>
				<path class="st16" d="M99.5,72.5c-0.1,1-0.7,1.7-1.4,2.4c-0.1,0.1,0,0.2,0.1,0.1c0.8-0.7,1.3-1.5,1.4-2.5
					C99.6,72.4,99.5,72.4,99.5,72.5L99.5,72.5z"/>
			</g>
			<g>
				<path class="st16" d="M95,72.3c-0.1-0.5,0.3-1,0.5-1.4c0.3-0.4,0.8-0.5,1.3-0.5c0.5,0,1,0.1,1.5,0.3c0.3,0.1,0.5,0.3,0.6,0.6
					c0.2,0.3-0.1,0.6-0.1,0.8c0,0.1,0.1,0.3,0.2,0.2c0.6-0.5,0.8-1,0.3-1.6c-0.5-0.7-1.5-0.9-2.3-0.9c-0.7,0-1.3,0.2-1.7,0.8
					c-0.4,0.5-0.7,1.2-0.4,1.8C94.9,72.5,95,72.4,95,72.3L95,72.3z"/>
			</g>
			<g>
				<path class="st16" d="M102.3,77.4c1.5,0,2-1.6,2-2.8c0-0.7-0.6-1.4-1.2-1.6c-0.7-0.2-1.3,0.3-1.4,1c0,0.2,0.2,0.4,0.4,0.2
					c0.4-0.3,0.5-0.9,1.1-0.5c0.5,0.3,0.6,0.9,0.6,1.4C103.7,76.1,103.4,77.2,102.3,77.4C102.3,77.4,102.3,77.4,102.3,77.4
					L102.3,77.4z"/>
			</g>
			<g>
				<path class="st16" d="M93.7,77c0.6-0.3,1.1-0.6,1.5-1c0.1,0,0-0.1-0.1-0.1C94.7,76.3,94.2,76.6,93.7,77
					C93.6,77,93.7,77.1,93.7,77L93.7,77z"/>
			</g>
			<g>
				<path class="st11" d="M94.4,76.6c0.4-0.4,0.8-0.7,1.1-1.1c0,0,0-0.1-0.1-0.1C95.1,75.9,94.7,76.2,94.4,76.6
					C94.3,76.6,94.4,76.6,94.4,76.6L94.4,76.6z"/>
			</g>
			<g>
				<path class="st11" d="M97.7,77.3c-0.4,0.6-0.8,1.2-1.1,1.8c0,0,0,0.1,0.1,0C97.1,78.6,97.5,78,97.7,77.3
					C97.8,77.3,97.7,77.3,97.7,77.3L97.7,77.3z"/>
			</g>
			<g>
				<path class="st11" d="M95.3,76c-0.5,0.4-0.9,0.8-1.4,1.2c0,0,0,0.1,0,0.1C94.5,77,94.9,76.5,95.3,76C95.3,76,95.3,76,95.3,76
					L95.3,76z"/>
			</g>
			<g>
				<path class="st14" d="M96,75.9c-0.4,0.6-1.1,1-1.5,1.6c0,0.1,0,0.1,0.1,0.1c0.5-0.5,1.1-1,1.5-1.6C96.2,75.9,96.1,75.8,96,75.9
					L96,75.9z"/>
			</g>
			<g>
				<path class="st14" d="M95.9,76.6c-0.3,0.3-0.8,0.5-0.9,1c0,0.1,0.1,0.1,0.1,0C95.3,77.2,95.7,77,95.9,76.6
					C96,76.6,95.9,76.5,95.9,76.6L95.9,76.6z"/>
			</g>
			<g>
				<path class="st14" d="M95.8,77.2c-0.2,0.2-0.5,0.4-0.6,0.7c0,0,0,0.1,0.1,0C95.5,77.6,95.7,77.4,95.8,77.2
					C95.9,77.2,95.9,77.1,95.8,77.2L95.8,77.2z"/>
			</g>
			<g>
				<path class="st14" d="M97.5,76.5c0.3-0.4,0.7-0.6,1-1c0.3-0.5,0.5-1.1,0.7-1.7c0.2-1,0.4-1.9,0-2.8c-0.4-0.8-1.3-1.2-2-1.5
					c-0.9-0.3-1.9-0.1-2.3,0.7c-0.1,0.2,0.1,0.4,0.3,0.3c1.2-0.9,3.2-0.2,3.6,1.3c0.2,0.8-0.2,1.8-0.4,2.5c-0.1,0.4-0.3,0.9-0.5,1.3
					c-0.1,0.3-0.4,0.5-0.5,0.9C97.2,76.5,97.4,76.6,97.5,76.5L97.5,76.5z"/>
			</g>
			<g>
				<path class="st14" d="M98.6,70c0.6,0.6,0.7,1.5,0.7,2.3c0,0.6,0.1,1.6-0.4,2.1c0.2,0.1,0.4,0.2,0.6,0.4c0.3-1.6,0.7-3.3-0.1-4.8
					c-0.2-0.4-0.8-0.1-0.6,0.4c0.7,1.3,0.3,2.9,0,4.2c-0.1,0.3,0.3,0.6,0.6,0.4c0.6-0.6,0.6-1.7,0.6-2.6c0-0.9-0.3-2-1.2-2.5
					C98.6,69.6,98.4,69.8,98.6,70L98.6,70z"/>
			</g>
			<g>
				<path class="st14" d="M98.5,70.1C98.5,70.1,98.5,70,98.5,70.1C98.5,70.1,98.5,70.1,98.5,70.1c0.1,0.1,0.1,0.2,0.2,0.3
					c0.1,0.1,0.1,0.1,0.2,0.2c0,0,0,0.1,0.1,0.1c0,0,0.1,0.1,0,0.1c0.2-0.1,0.3-0.2,0.5-0.3c-0.1-0.2-0.3-0.3-0.4-0.3
					c0,0.2-0.1,0.4-0.1,0.6c0.1,0,0.1-0.1,0.2-0.1c0.1-0.1,0.1-0.3,0-0.4c0,0,0,0-0.1-0.1c-0.1-0.1-0.4-0.1-0.5,0
					c-0.1,0.1-0.1,0.4,0.1,0.5c0.2,0.1,0.3,0.2,0.5,0.2c0.3,0,0.4-0.4,0.1-0.5c-0.2-0.1-0.3-0.2-0.5-0.3c-0.1-0.1-0.3-0.2-0.4-0.2
					C98.3,69.8,98.4,70.1,98.5,70.1L98.5,70.1z"/>
			</g>
			<g>
				<path class="st14" d="M103.8,77.8c0.8-0.4,1.4-1.3,1.3-2.2c0-0.1-0.2-0.2-0.3-0.1c-0.2,0.3-0.3,0.6-0.3,0.9
					c-0.1,0.5-0.4,0.9-0.9,1.2C103.6,77.7,103.7,77.9,103.8,77.8L103.8,77.8z"/>
			</g>
			<g>
				<path class="st14" d="M104,77.5c0.6-0.8,0.9-1.5,0.7-2.5c-0.1-0.8-0.3-1.7-1.2-2c-0.8-0.3-1.5-0.1-2.1,0.4
					c-0.6,0.5-1.2,1.1-1.5,1.8c-0.1,0.3,0.1,0.5,0.4,0.4c0.9-0.5,1.3-1.8,2.5-1.9c0.8-0.1,1.1,0.6,1.3,1.3c0.3,0.9,0.2,1.7-0.2,2.5
					C103.7,77.5,103.9,77.6,104,77.5L104,77.5z"/>
			</g>
			<g>
				<path class="st14" d="M100.1,75.9c0.6-0.6,1.2-1.2,1.9-1.7c0.4-0.3,0.9-0.4,1.4-0.3c0.4,0.1,0.7,0.4,1.1,0.6
					c0.2,0.1,0.4-0.2,0.3-0.4c-0.5-1-1.7-1.2-2.6-0.8c-1,0.4-1.5,1.6-2.1,2.4C100,75.9,100.1,76,100.1,75.9L100.1,75.9z"/>
			</g>
			<g>
				<path class="st14" d="M102.6,73.6c0.4,0.2,0.8,0.4,1.2,0.6c0.4,0.2,0.7,0.6,1.2,0.8c0.2,0.1,0.3-0.1,0.2-0.3
					c-0.4-0.7-1.7-1.3-2.5-1.3C102.6,73.4,102.6,73.5,102.6,73.6L102.6,73.6z"/>
			</g>
		</g>
		<g>
			<path class="st14" d="M100.8,76c-1.3,1.1,0.3,2.3,1.4,2.5c0.9,0.2,1.6-0.2,2.1-0.9c0.7-0.8,0.9-1.6,0.8-2.6
				c0-0.3-0.4-0.4-0.6-0.1c-0.3,0.5-0.2,0.9-0.3,1.5c-0.1,0.5-0.7,1.2-1.3,1.4c-0.5,0.2-1.1,0-1.5-0.2c-0.6-0.3-0.9-0.8-0.5-1.4
				C101.1,76,100.9,75.9,100.8,76L100.8,76z"/>
		</g>
	</g>
	<g>
		<g>
			<path class="st10" d="M311.2,71.6c0.4-0.1,0.6-0.3,0.9-0.6c0.3-0.3,0.7-0.6,0.9-1c0.3-0.5,0.3-1.2,0.2-1.8
				c-0.4-2.6-1.4-4.4-3.4-6.1c-0.5-0.4-1.1-0.9-1.8-1.1c-1.2-0.4-3.2-0.7-4.3-0.3c-0.7,0.3-1.3,0.6-1.8,1.1c-0.7,0.7-1,1.8-0.9,2.8
				c0.1,1,0.7,1.9,1.4,2.6c0.1,0.1,0.2,0.1,0.2,0.3c0.1,0.2-0.1,0.4-0.3,0.6c-0.6,0.5-1.2,1.1-1.8,1.6c-0.1,0.1-0.2,0.2-0.2,0.3
				c0,0.2,0.1,0.4,0.2,0.5c1.2,1.2,2.7,2.8,4.3,3.3c0.2,0.1,0.6,0,0.8-0.3c0.3-0.6,1.4-2.2,2.1-2.3c0.4,0,0.8,0.1,1.2,0.3
				C309.7,71.7,310.5,71.9,311.2,71.6z"/>
			<g>
				<path class="st11" d="M303.3,65.5c-0.3-0.6,0-1,0.7-1.1c0.3,0,0.6,0,1,0.1c0.4,0.1,0.6,0.4,1,0.5c0.3,0,0.5-0.3,0.6-0.6
					c0.1-0.7-0.8-1.1-1.3-1.3c-0.6-0.1-1.3-0.1-1.8,0.2c-0.5,0.2-0.9,0.6-1,1.1c-0.1,0.6,0.3,1,0.7,1.3
					C303.2,65.7,303.4,65.6,303.3,65.5L303.3,65.5z"/>
			</g>
			<g>
				<path class="st11" d="M308.8,69.5c0.5,0.8,1.5,0.5,2-0.1c0.7-0.8,0.5-2.1-0.1-2.9c-0.5-0.7-1.7,0.2-1.2,0.9
					c0.2,0.3,0.4,0.7,0.4,1.1c-0.1,0.4-0.4,0.8-0.9,0.7C308.8,69.1,308.6,69.3,308.8,69.5L308.8,69.5z"/>
			</g>
			<g>
				<g>
					<defs>
						<path id="SVGID_5_" d="M311.2,71.6c0.4-0.1,0.6-0.3,0.9-0.6c0.3-0.3,0.7-0.6,0.9-1c0.3-0.5,0.3-1.2,0.2-1.8
							c-0.4-2.6-1.4-4.4-3.4-6.1c-0.5-0.4-1.1-0.9-1.8-1.1c-1.2-0.4-3.2-0.7-4.3-0.3c-0.7,0.3-1.3,0.6-1.8,1.1
							c-0.7,0.7-1,1.8-0.9,2.8c0.1,1,0.7,1.9,1.4,2.6c0.1,0.1,0.2,0.1,0.2,0.3c0.1,0.2-0.1,0.4-0.3,0.6c-0.6,0.5-1.2,1.1-1.8,1.6
							c-0.1,0.1-0.2,0.2-0.2,0.3c0,0.2,0.1,0.4,0.2,0.5c1.2,1.2,2.7,2.8,4.3,3.3c0.2,0.1,0.6,0,0.8-0.3c0.3-0.6,1.4-2.2,2.1-2.3
							c0.4,0,0.8,0.1,1.2,0.3C309.7,71.7,310.5,71.9,311.2,71.6z"/>
					</defs>
					<clipPath id="SVGID_6_">
						<use xlink:href="#SVGID_5_"  style="overflow:visible;"/>
					</clipPath>
					<g class="st17">
						<path class="st11" d="M313.3,68.9c-0.3,0.7-0.8,1.6-1.5,2c-1,0.6-2.1,0.1-3.1-0.4c-0.9-0.4-1.6-0.3-2.3,0.5
							c-0.4,0.4-0.6,0.9-0.9,1.4c-0.3,0.5-0.7,1-0.6,1.7c0,0.6,0.6,0.9,1.1,0.6c0.5-0.3,0.8-0.9,1.1-1.4c0.3-0.5,0.5-0.9,0.9-1.3
							c0.1-0.1,0.1-0.1-0.2,0c0.1,0,0.2,0.1,0.3,0.1c0.3,0.1,0.5,0.2,0.8,0.3c0.5,0.1,1.1,0.1,1.6,0c0.9-0.2,1.8-0.5,2.4-1.2
							c0.5-0.6,0.8-1.4,0.9-2.2C313.7,68.8,313.4,68.7,313.3,68.9L313.3,68.9z"/>
					</g>
				</g>
				<g>
					<defs>
						<path id="SVGID_7_" d="M311.2,71.6c0.4-0.1,0.6-0.3,0.9-0.6c0.3-0.3,0.7-0.6,0.9-1c0.3-0.5,0.3-1.2,0.2-1.8
							c-0.4-2.6-1.4-4.4-3.4-6.1c-0.5-0.4-1.1-0.9-1.8-1.1c-1.2-0.4-3.2-0.7-4.3-0.3c-0.7,0.3-1.3,0.6-1.8,1.1
							c-0.7,0.7-1,1.8-0.9,2.8c0.1,1,0.7,1.9,1.4,2.6c0.1,0.1,0.2,0.1,0.2,0.3c0.1,0.2-0.1,0.4-0.3,0.6c-0.6,0.5-1.2,1.1-1.8,1.6
							c-0.1,0.1-0.2,0.2-0.2,0.3c0,0.2,0.1,0.4,0.2,0.5c1.2,1.2,2.7,2.8,4.3,3.3c0.2,0.1,0.6,0,0.8-0.3c0.3-0.6,1.4-2.2,2.1-2.3
							c0.4,0,0.8,0.1,1.2,0.3C309.7,71.7,310.5,71.9,311.2,71.6z"/>
					</defs>
					<clipPath id="SVGID_8_">
						<use xlink:href="#SVGID_7_"  style="overflow:visible;"/>
					</clipPath>
					<g class="st18">
						<path class="st11" d="M299.4,70.2C299.4,70.1,299.4,70.1,299.4,70.2c-0.1-0.1-0.3-0.1-0.4-0.1c0.2,0.5,0.9,0.8,1.3,1.1
							c0.6,0.4,1.2,0.8,1.7,1.3c0.4,0.4,0.9,0.9,1.1,1.4c0.1,0.2,0,0.5,0.1,0.7c0.1,0.4,0.3,0.6,0.6,0.8c0.6,0.3,1.2,0,1.4-0.6
							c0.2-0.5,0-1.3-0.3-1.8c-0.3-0.7-1-1.3-1.7-1.8c-0.7-0.5-1.4-0.9-2.2-1.3c-0.6-0.3-1.4-0.8-2-0.3c-0.2,0.1-0.1,0.4,0.1,0.5
							c0,0,0.1,0,0.1,0C299.2,70.2,299.3,70.2,299.4,70.2L299.4,70.2z"/>
					</g>
				</g>
			</g>
			<g>
				<path class="st14" d="M308.3,64.5c-0.5,0.3-0.8,0.7-1.2,1.1c-0.4,0.5-0.9,1-1.3,1.5c-0.3,0.3-0.5,0.5-0.9,0.8
					c-0.1,0.1-0.3,0.2-0.4,0.3c-0.1,0.1-0.1,0.1,0,0c-0.1,0.1-0.3,0.2-0.4,0.3c-0.6,0.5-0.5,1.5,0,2c0.5,0.6,1.4,0.5,2,0
					c0.5-0.5,1-1.1,1.5-1.7c0.4-0.5,0.8-1.1,1-1.7c0.3-0.6,0.7-1.4,0.6-2.1C309.2,64.6,308.8,64.3,308.3,64.5L308.3,64.5z"/>
			</g>
			<g>
				<path class="st14" d="M304.6,66.1c0,0.5-0.7,0.3-1,0.2c-0.5-0.1-0.8-0.6-1-1c-0.6-1.1-0.4-2.3,0.9-2.7c0.9-0.3,1.9-0.1,2.7,0.1
					c0.9,0.2,1.7,0.6,2.3,1.2c0.3,0.4,1.1,0.2,1.2-0.3c0.4-2-2-2.5-3.6-2.6c-1.6-0.1-3.3,0.3-4.3,1.5c-1.1,1.3-0.7,3.5,0.7,4.5
					c0.6,0.4,1.3,0.5,1.9,0.4c0.7-0.2,0.8-0.8,0.5-1.3C304.8,65.9,304.6,65.9,304.6,66.1L304.6,66.1z"/>
			</g>
			<g>
				<path class="st14" d="M306.9,62.6c0.1,1.1,0.5,2.1,0.5,3.2c0,1,1.6,1.3,1.8,0.2c0.2-1.4-0.2-2.8-1.2-3.9
					c-0.6-0.8-1.7,0.1-1.5,0.9c0.1,0.7,0.6,1.2,0.9,1.8c0.2,0.4,0.1,0.8,0.3,1.2c0.1-0.4,0.2-0.8,0.3-1.3c0,0,0,0,0,0
					c-0.5,0.3-0.6,1-0.2,1.4l0,0c0.4,0.4,0.9,0.4,1.3,0c0.5-0.5,0.3-1.2,0.1-1.7c-0.2-0.7-0.9-1.3-1-2c-0.5,0.3-1,0.6-1.5,0.9
					c0.6,0.7,0.8,1.5,0.7,2.4c0.6-0.1,1.2-0.2,1.8-0.2c-0.3-1.1-0.9-2.5-1.9-3.2C307.1,62.2,306.8,62.4,306.9,62.6L306.9,62.6z"/>
			</g>
			<g>
				<path class="st14" d="M312.5,69c0.8-1.3,0-2.9-0.6-4.1c-0.4-0.7-0.9-1.3-1.5-1.9c-0.6-0.6-1.5-1.2-2.4-1.2
					c-0.4,0-0.7,0.3-0.8,0.6c-0.1,0.5,0.2,0.8,0.5,1c0.3,0.2,0.8,0.4,1.1,0.6c0.4,0.3,0.8,0.6,1.1,0.9c1.1,1.1,2.1,2.3,2.2,4
					C312.1,69.1,312.4,69.2,312.5,69L312.5,69z"/>
			</g>
			<g>
				<path class="st14" d="M311.6,65.8c-0.2-0.8-1-1.2-1.7-1.5c-0.4-0.1-0.9-0.1-1.3,0.1c-0.5,0.3-0.6,0.6-0.8,1.1
					c-0.2,0.5,0.4,0.8,0.8,0.6c0.3-0.1,0.7-0.3,1-0.4c0.4,0,1,0.2,1.4,0.4C311.4,66.3,311.7,66.1,311.6,65.8L311.6,65.8z"/>
			</g>
			<g>
				<path class="st14" d="M308.3,66.6c0.3-0.2,0.7-0.5,1-0.7c0.4-0.2,0.8-0.1,1.3-0.1c0.9,0,0.9-1.4,0-1.3c-0.6,0-1.2,0.1-1.7,0.5
					c-0.4,0.4-0.6,0.9-0.9,1.3C307.9,66.5,308.1,66.7,308.3,66.6L308.3,66.6z"/>
			</g>
			<g>
				<path class="st14" d="M303.3,62.6c1-0.1,1.9,0.1,2.7,0.7c0.4,0.3,0.8,0.6,1.1,0.9c0.3,0.4,0.5,0.8,0.9,1c0.4,0.2,0.8,0,0.9-0.4
					c0.4-1.3-1.3-2.3-2.3-2.7c-1.1-0.5-2.5-0.5-3.5,0.2C303.1,62.3,303.1,62.6,303.3,62.6L303.3,62.6z"/>
			</g>
			<g>
				<path class="st14" d="M306.8,67.2c0.7-0.3,1.4-1.1,1.6-1.8c0.3-0.9,0.2-2.3-0.9-2.6c-0.3-0.1-0.7,0.1-0.8,0.4
					c-0.1,0.3,0,0.6,0.1,0.9c0.1,0.3,0.1,0.6,0.1,0.9c0,0.6,0,1.3-0.4,1.9C306.6,67.1,306.7,67.2,306.8,67.2L306.8,67.2z"/>
			</g>
			<g>
				<path class="st15" d="M305.7,64.8c0.2,0,0.3,0,0.5,0c0-0.1-0.1-0.2-0.1-0.3c0,0,0,0.1,0,0.1c0,0,0,0,0,0c0,0,0,0,0,0
					c0-0.1-0.1-0.1-0.2-0.1C305.7,64.6,305.6,64.8,305.7,64.8c0.1,0.2,0.2,0.3,0.4,0.2c0.1,0,0.3-0.2,0.3-0.3c0-0.1-0.1-0.2-0.2-0.2
					c-0.1,0-0.3,0.1-0.4,0.1C305.6,64.7,305.6,64.8,305.7,64.8L305.7,64.8z"/>
			</g>
			<g>
				<path class="st15" d="M309.5,66.9c0,0.1-0.1,0.1-0.1,0.1c-0.1,0.2,0.1,0.4,0.3,0.3c0.1,0,0.1-0.1,0.1-0.2
					C309.8,67,309.7,66.9,309.5,66.9c0,0-0.1,0-0.2,0.1c0,0.1,0,0.1,0,0.2c0,0.2,0.3,0.3,0.4,0.1c0,0,0-0.1,0-0.1c0-0.1,0,0,0,0.1
					c0,0-0.1,0-0.1,0.1l0,0c0,0-0.1,0-0.1,0c0,0,0,0,0,0c0-0.1-0.1-0.1-0.1-0.2c0,0,0,0,0,0c0.1,0,0.3,0,0.4,0c0,0,0,0,0-0.1
					s0-0.1,0-0.1C309.7,66.8,309.6,66.8,309.5,66.9L309.5,66.9z"/>
			</g>
			<g>
				<path class="st16" d="M305.3,67c-0.8,0.7-1.4,1.4-2.2,2.1c-0.1,0.1,0,0.2,0.1,0.1c0.8-0.6,1.4-1.5,2.2-2.2
					C305.5,67,305.4,66.9,305.3,67L305.3,67z"/>
			</g>
			<g>
				<path class="st16" d="M305.6,67.3c-0.6,0.8-1.4,1.4-2,2.2c-0.1,0.1,0.1,0.2,0.1,0.1c0.7-0.7,1.5-1.4,2-2.3
					C305.7,67.3,305.6,67.2,305.6,67.3L305.6,67.3z"/>
			</g>
			<g>
				<path class="st16" d="M307,68.6c-0.7,1.1-1.7,2.1-2.1,3.4c0,0.1,0.1,0.2,0.2,0.1C305.7,70.9,306.5,69.9,307,68.6
					C307.1,68.6,307.1,68.6,307,68.6L307,68.6z"/>
			</g>
			<g>
				<path class="st16" d="M306.6,68.6c-0.7,0.9-1.4,1.8-1.8,2.9c0,0.1,0.1,0.2,0.2,0.1c0.6-1,1.1-1.9,1.8-2.9
					C306.7,68.7,306.6,68.6,306.6,68.6L306.6,68.6z"/>
			</g>
			<g>
				<path class="st16" d="M305.6,67c0.6-0.5,1.1-1.3,1.1-2.1c0-0.1-0.1-0.1-0.1,0c-0.1,0.3-0.2,0.6-0.3,0.9
					c-0.2,0.4-0.4,0.8-0.8,1.2C305.4,67,305.5,67.1,305.6,67L305.6,67z"/>
			</g>
			<g>
				<path class="st16" d="M307,65c-0.1,1-0.7,1.7-1.4,2.4c-0.1,0.1,0,0.2,0.1,0.1c0.8-0.7,1.3-1.5,1.4-2.5
					C307.1,64.9,307,64.9,307,65L307,65z"/>
			</g>
			<g>
				<path class="st16" d="M302.5,64.9c-0.1-0.5,0.3-1,0.5-1.4c0.3-0.4,0.8-0.5,1.3-0.5c0.5,0,1,0.1,1.5,0.3c0.3,0.1,0.5,0.3,0.6,0.6
					c0.2,0.3-0.1,0.6-0.1,0.8c0,0.1,0.1,0.3,0.2,0.2c0.6-0.5,0.8-1,0.3-1.6c-0.5-0.7-1.5-0.9-2.3-0.9c-0.7,0-1.3,0.2-1.7,0.8
					c-0.4,0.5-0.7,1.2-0.4,1.8C302.4,65,302.5,64.9,302.5,64.9L302.5,64.9z"/>
			</g>
			<g>
				<path class="st16" d="M309.9,70c1.5,0,2-1.6,2-2.8c0-0.7-0.6-1.4-1.2-1.6c-0.7-0.2-1.3,0.3-1.4,1c0,0.2,0.2,0.4,0.4,0.2
					c0.4-0.3,0.5-0.9,1.1-0.5c0.5,0.3,0.6,0.9,0.6,1.4C311.2,68.6,310.9,69.7,309.9,70C309.8,69.9,309.8,70,309.9,70L309.9,70z"/>
			</g>
			<g>
				<path class="st16" d="M301.3,69.6c0.6-0.3,1.1-0.6,1.5-1c0.1,0,0-0.1-0.1-0.1C302.2,68.8,301.7,69.2,301.3,69.6
					C301.2,69.5,301.2,69.6,301.3,69.6L301.3,69.6z"/>
			</g>
			<g>
				<path class="st11" d="M301.9,69.2c0.4-0.4,0.8-0.7,1.1-1.1c0,0,0-0.1-0.1-0.1C302.6,68.4,302.3,68.7,301.9,69.2
					C301.9,69.1,301.9,69.2,301.9,69.2L301.9,69.2z"/>
			</g>
			<g>
				<path class="st11" d="M305.3,69.9c-0.4,0.6-0.8,1.2-1.1,1.8c0,0,0,0.1,0.1,0C304.6,71.1,305,70.5,305.3,69.9
					C305.3,69.9,305.3,69.8,305.3,69.9L305.3,69.9z"/>
			</g>
			<g>
				<path class="st11" d="M302.8,68.5c-0.5,0.4-0.9,0.8-1.4,1.2c0,0,0,0.1,0,0.1C302,69.5,302.4,69,302.8,68.5
					C302.9,68.5,302.8,68.5,302.8,68.5L302.8,68.5z"/>
			</g>
			<g>
				<path class="st14" d="M303.6,68.4c-0.4,0.6-1.1,1-1.5,1.6c0,0.1,0,0.1,0.1,0.1c0.5-0.5,1.1-1,1.5-1.6
					C303.7,68.4,303.6,68.3,303.6,68.4L303.6,68.4z"/>
			</g>
			<g>
				<path class="st14" d="M303.4,69.1c-0.3,0.3-0.8,0.5-0.9,1c0,0.1,0.1,0.1,0.1,0C302.8,69.7,303.2,69.5,303.4,69.1
					C303.5,69.1,303.4,69,303.4,69.1L303.4,69.1z"/>
			</g>
			<g>
				<path class="st14" d="M303.4,69.7c-0.2,0.2-0.5,0.4-0.6,0.7c0,0,0,0.1,0.1,0C303,70.2,303.2,69.9,303.4,69.7
					C303.4,69.7,303.4,69.6,303.4,69.7L303.4,69.7z"/>
			</g>
			<g>
				<path class="st14" d="M305,69c0.3-0.4,0.7-0.6,1-1c0.3-0.5,0.5-1.1,0.7-1.7c0.2-1,0.4-1.9,0-2.8c-0.4-0.8-1.3-1.2-2-1.5
					c-0.9-0.3-1.9-0.1-2.3,0.7c-0.1,0.2,0.1,0.4,0.3,0.3c1.2-0.9,3.2-0.2,3.6,1.3c0.2,0.8-0.2,1.8-0.4,2.5c-0.1,0.4-0.3,0.9-0.5,1.3
					c-0.1,0.3-0.4,0.5-0.5,0.9C304.7,69,304.9,69.1,305,69L305,69z"/>
			</g>
			<g>
				<path class="st14" d="M306.1,62.5c0.6,0.6,0.7,1.5,0.7,2.3c0,0.6,0.1,1.6-0.4,2.1c0.2,0.1,0.4,0.2,0.6,0.4
					c0.3-1.6,0.7-3.3-0.1-4.8c-0.2-0.4-0.8-0.1-0.6,0.4c0.7,1.3,0.3,2.9,0,4.2c-0.1,0.3,0.3,0.6,0.6,0.4c0.6-0.6,0.6-1.7,0.6-2.6
					c0-0.9-0.3-2-1.2-2.5C306.1,62.1,306,62.3,306.1,62.5L306.1,62.5z"/>
			</g>
			<g>
				<path class="st14" d="M306.1,62.6C306,62.6,306,62.5,306.1,62.6C306,62.6,306,62.6,306.1,62.6c0.1,0.1,0.1,0.2,0.2,0.3
					s0.1,0.1,0.2,0.2c0,0,0,0.1,0.1,0.1c0,0,0.1,0.1,0,0.1c0.2-0.1,0.3-0.2,0.5-0.3c-0.1-0.2-0.3-0.3-0.4-0.3c0,0.2-0.1,0.4-0.1,0.6
					c0.1,0,0.1-0.1,0.2-0.1c0.1-0.1,0.1-0.3,0-0.4c0,0,0,0-0.1-0.1c-0.1-0.1-0.4-0.1-0.5,0c-0.1,0.1-0.1,0.4,0.1,0.5
					c0.2,0.1,0.3,0.2,0.5,0.2c0.3,0,0.4-0.4,0.1-0.5c-0.2-0.1-0.3-0.2-0.5-0.3c-0.1-0.1-0.3-0.2-0.4-0.2
					C305.8,62.3,305.9,62.6,306.1,62.6L306.1,62.6z"/>
			</g>
			<g>
				<path class="st14" d="M311.4,70.3c0.8-0.4,1.4-1.3,1.3-2.2c0-0.1-0.2-0.2-0.3-0.1c-0.2,0.3-0.3,0.6-0.3,0.9
					c-0.1,0.5-0.4,0.9-0.9,1.2C311.2,70.2,311.3,70.4,311.4,70.3L311.4,70.3z"/>
			</g>
			<g>
				<path class="st14" d="M311.5,70.1c0.6-0.8,0.9-1.5,0.7-2.5c-0.1-0.8-0.3-1.7-1.2-2c-0.8-0.3-1.5-0.1-2.1,0.4
					c-0.6,0.5-1.2,1.1-1.5,1.8c-0.1,0.3,0.1,0.5,0.4,0.4c0.9-0.5,1.3-1.8,2.5-1.9c0.8-0.1,1.1,0.6,1.3,1.3c0.3,0.9,0.2,1.7-0.2,2.5
					C311.3,70.1,311.4,70.1,311.5,70.1L311.5,70.1z"/>
			</g>
			<g>
				<path class="st14" d="M307.7,68.4c0.6-0.6,1.2-1.2,1.9-1.7c0.4-0.3,0.9-0.4,1.4-0.3c0.4,0.1,0.7,0.4,1.1,0.6
					c0.2,0.1,0.4-0.2,0.3-0.4c-0.5-1-1.7-1.2-2.6-0.8c-1,0.4-1.5,1.6-2.1,2.4C307.5,68.4,307.6,68.5,307.7,68.4L307.7,68.4z"/>
			</g>
			<g>
				<path class="st14" d="M310.2,66.1c0.4,0.2,0.8,0.4,1.2,0.6c0.4,0.2,0.7,0.6,1.2,0.8c0.2,0.1,0.3-0.1,0.2-0.3
					c-0.4-0.7-1.7-1.3-2.5-1.3C310.1,65.9,310.1,66,310.2,66.1L310.2,66.1z"/>
			</g>
		</g>
		<g>
			<path class="st14" d="M308.3,68.5c-1.3,1.1,0.3,2.3,1.4,2.5c0.9,0.2,1.6-0.2,2.1-0.9c0.7-0.8,0.9-1.6,0.8-2.6
				c0-0.3-0.4-0.4-0.6-0.1c-0.3,0.5-0.2,0.9-0.3,1.5c-0.1,0.5-0.7,1.2-1.3,1.4c-0.5,0.2-1.1,0-1.5-0.2c-0.6-0.3-0.9-0.8-0.5-1.4
				C308.6,68.5,308.4,68.4,308.3,68.5L308.3,68.5z"/>
		</g>
	</g>
	<g>
		<g>
			<path class="st10" d="M160.4,92.5c0.4-0.1,0.8-0.3,1.2-0.3c0.7,0.1,1.8,1.7,2.1,2.3c0.1,0.3,0.6,0.3,0.8,0.3
				c1.7-0.5,3.1-2.1,4.3-3.3c0.1-0.1,0.3-0.3,0.2-0.5c0-0.1-0.1-0.2-0.2-0.3c-0.6-0.5-1.2-1.1-1.8-1.6c-0.1-0.1-0.3-0.4-0.3-0.6
				c0-0.1,0.1-0.2,0.2-0.3c0.8-0.6,1.3-1.6,1.4-2.6s-0.2-2-0.9-2.8c-0.5-0.5-1.2-0.8-1.8-1.1c-1.2-0.4-3.2-0.1-4.3,0.3
				c-0.6,0.3-1.2,0.7-1.8,1.1c-2,1.7-3.1,3.5-3.4,6.1c-0.1,0.6-0.1,1.3,0.2,1.8c0.2,0.4,0.5,0.7,0.9,1c0.3,0.2,0.6,0.4,0.9,0.6
				C158.8,92.9,159.6,92.7,160.4,92.5z"/>
			<g>
				<path class="st11" d="M166,86.5c0,0.1,0.1,0.2,0.2,0.2c0.5-0.3,0.8-0.8,0.7-1.3c-0.1-0.5-0.6-0.9-1-1.1
					c-0.6-0.3-1.2-0.3-1.8-0.2c-0.6,0.1-1.4,0.5-1.3,1.3c0,0.3,0.2,0.6,0.6,0.6c0.4,0,0.7-0.3,1-0.5c0.3-0.1,0.6-0.1,1-0.1
					C166,85.5,166.3,85.9,166,86.5L166,86.5z"/>
			</g>
			<g>
				<path class="st11" d="M160.6,90.5c0.1-0.2-0.1-0.4-0.3-0.3c-0.5,0.1-0.8-0.3-0.9-0.7c-0.1-0.4,0.2-0.7,0.4-1.1
					c0.5-0.7-0.7-1.6-1.2-0.9c-0.6,0.8-0.8,2.1-0.1,2.9C159.1,91,160,91.2,160.6,90.5L160.6,90.5z"/>
			</g>
			<g>
				<g>
					<defs>
						<path id="SVGID_9_" d="M160.4,92.5c0.4-0.1,0.8-0.3,1.2-0.3c0.7,0.1,1.8,1.7,2.1,2.3c0.1,0.3,0.6,0.3,0.8,0.3
							c1.7-0.5,3.1-2.1,4.3-3.3c0.1-0.1,0.3-0.3,0.2-0.5c0-0.1-0.1-0.2-0.2-0.3c-0.6-0.5-1.2-1.1-1.8-1.6c-0.1-0.1-0.3-0.4-0.3-0.6
							c0-0.1,0.1-0.2,0.2-0.3c0.8-0.6,1.3-1.6,1.4-2.6s-0.2-2-0.9-2.8c-0.5-0.5-1.2-0.8-1.8-1.1c-1.2-0.4-3.2-0.1-4.3,0.3
							c-0.6,0.3-1.2,0.7-1.8,1.1c-2,1.7-3.1,3.5-3.4,6.1c-0.1,0.6-0.1,1.3,0.2,1.8c0.2,0.4,0.5,0.7,0.9,1c0.3,0.2,0.6,0.4,0.9,0.6
							C158.8,92.9,159.6,92.7,160.4,92.5z"/>
					</defs>
					<clipPath id="SVGID_10_">
						<use xlink:href="#SVGID_9_"  style="overflow:visible;"/>
					</clipPath>
					<g class="st19">
						<path class="st11" d="M156,89.9c-0.1-0.2-0.4-0.1-0.4,0.1c0.1,0.8,0.4,1.6,0.9,2.2c0.6,0.8,1.5,1,2.4,1.2
							c0.5,0.1,1.1,0.1,1.6,0c0.3-0.1,0.5-0.1,0.8-0.3c0.1,0,0.2-0.1,0.3-0.1c-0.3-0.1-0.3-0.1-0.2,0c0.4,0.4,0.6,0.8,0.9,1.3
							c0.3,0.5,0.5,1.1,1.1,1.4c0.5,0.3,1.1-0.1,1.1-0.6c0.1-0.6-0.4-1.1-0.6-1.7c-0.3-0.5-0.5-1-0.9-1.4c-0.7-0.8-1.4-0.9-2.3-0.5
							c-0.9,0.4-2.1,0.9-3.1,0.4C156.8,91.5,156.3,90.6,156,89.9L156,89.9z"/>
					</g>
				</g>
				<g>
					<defs>
						<path id="SVGID_11_" d="M160.4,92.5c0.4-0.1,0.8-0.3,1.2-0.3c0.7,0.1,1.8,1.7,2.1,2.3c0.1,0.3,0.6,0.3,0.8,0.3
							c1.7-0.5,3.1-2.1,4.3-3.3c0.1-0.1,0.3-0.3,0.2-0.5c0-0.1-0.1-0.2-0.2-0.3c-0.6-0.5-1.2-1.1-1.8-1.6c-0.1-0.1-0.3-0.4-0.3-0.6
							c0-0.1,0.1-0.2,0.2-0.3c0.8-0.6,1.3-1.6,1.4-2.6s-0.2-2-0.9-2.8c-0.5-0.5-1.2-0.8-1.8-1.1c-1.2-0.4-3.2-0.1-4.3,0.3
							c-0.6,0.3-1.2,0.7-1.8,1.1c-2,1.7-3.1,3.5-3.4,6.1c-0.1,0.6-0.1,1.3,0.2,1.8c0.2,0.4,0.5,0.7,0.9,1c0.3,0.2,0.6,0.4,0.9,0.6
							C158.8,92.9,159.6,92.7,160.4,92.5z"/>
					</defs>
					<clipPath id="SVGID_12_">
						<use xlink:href="#SVGID_11_"  style="overflow:visible;"/>
					</clipPath>
					<g class="st20">
						<path class="st11" d="M169.9,91.2c0.1,0.1,0.1,0.1,0.2,0c0,0,0.1,0,0.1,0c0.2-0.1,0.2-0.4,0.1-0.5c-0.6-0.5-1.4,0-2,0.3
							c-0.8,0.4-1.5,0.8-2.2,1.3c-0.6,0.5-1.3,1.1-1.7,1.8c-0.2,0.5-0.4,1.3-0.3,1.8c0.2,0.6,0.8,0.9,1.4,0.6
							c0.3-0.2,0.5-0.4,0.6-0.8c0.1-0.2,0-0.5,0.1-0.7c0.2-0.5,0.6-1.1,1.1-1.4c0.5-0.5,1.1-0.9,1.7-1.3c0.4-0.3,1.1-0.6,1.3-1.1
							C170.2,91.1,170,91.1,169.9,91.2C169.9,91.1,169.9,91.2,169.9,91.2L169.9,91.2z"/>
					</g>
				</g>
			</g>
			<g>
				<path class="st14" d="M161,85.6c-0.5-0.3-0.9,0.1-0.9,0.5c-0.1,0.7,0.3,1.5,0.6,2.1c0.3,0.6,0.7,1.1,1,1.7
					c0.4,0.6,0.9,1.2,1.5,1.7c0.5,0.5,1.4,0.5,2,0c0.5-0.5,0.6-1.5,0-2c-0.1-0.1-0.3-0.2-0.4-0.3c0.1,0.1,0.1,0.1,0,0
					c-0.1-0.1-0.3-0.2-0.4-0.3c-0.3-0.3-0.6-0.5-0.9-0.8c-0.5-0.5-0.9-1-1.3-1.5C161.8,86.3,161.5,85.9,161,85.6L161,85.6z"/>
			</g>
			<g>
				<path class="st14" d="M164.7,87.2c0-0.2-0.3-0.3-0.4-0.1c-0.3,0.6-0.1,1.2,0.5,1.3c0.7,0.2,1.4,0,1.9-0.4
					c1.3-0.9,1.8-3.2,0.7-4.5c-1-1.2-2.8-1.6-4.3-1.5c-1.5,0.1-3.9,0.6-3.6,2.6c0.1,0.5,0.8,0.7,1.2,0.3c0.6-0.6,1.4-1,2.3-1.2
					c0.9-0.2,1.9-0.4,2.7-0.1c1.3,0.4,1.5,1.6,0.9,2.7c-0.2,0.4-0.5,0.9-1,1C165.4,87.5,164.8,87.7,164.7,87.2L164.7,87.2z"/>
			</g>
			<g>
				<path class="st14" d="M162.5,83.6c0-0.2-0.3-0.4-0.4-0.3c-1,0.7-1.6,2.1-1.9,3.2c0.6,0.1,1.2,0.1,1.8,0.2
					c-0.1-0.9,0.1-1.8,0.7-2.4c-0.5-0.3-1-0.6-1.5-0.9c-0.1,0.7-0.8,1.3-1,2c-0.1,0.6-0.4,1.3,0.1,1.7c0.4,0.4,0.9,0.3,1.3,0l0,0
					c0.4-0.4,0.3-1.2-0.2-1.4c0,0,0,0,0,0c0.1,0.4,0.2,0.9,0.3,1.3c0.2-0.5,0.1-0.8,0.3-1.2c0.3-0.6,0.8-1.1,0.9-1.8
					c0.1-0.8-0.9-1.6-1.5-0.9c-0.9,1.1-1.4,2.5-1.2,3.9c0.2,1,1.8,0.8,1.8-0.2C161.9,85.7,162.4,84.7,162.5,83.6L162.5,83.6z"/>
			</g>
			<g>
				<path class="st14" d="M156.8,90c0.1,0.2,0.4,0.1,0.5-0.1c0-1.7,1-2.9,2.2-4c0.3-0.3,0.7-0.7,1.1-0.9c0.3-0.2,0.8-0.3,1.1-0.6
					c0.3-0.3,0.6-0.6,0.5-1c-0.1-0.3-0.4-0.6-0.8-0.6c-0.9,0-1.7,0.6-2.4,1.2c-0.6,0.5-1.1,1.2-1.5,1.9
					C156.8,87.1,156,88.7,156.8,90L156.8,90z"/>
			</g>
			<g>
				<path class="st14" d="M157.7,86.8c-0.1,0.3,0.3,0.6,0.6,0.4c0.4-0.2,1-0.4,1.4-0.4c0.3,0,0.8,0.2,1,0.4c0.4,0.2,1-0.1,0.8-0.6
					c-0.2-0.5-0.3-0.8-0.8-1.1c-0.3-0.2-0.9-0.3-1.3-0.1C158.7,85.6,157.9,86,157.7,86.8L157.7,86.8z"/>
			</g>
			<g>
				<path class="st14" d="M161,87.6c0.2,0.1,0.4-0.1,0.3-0.3c-0.3-0.5-0.5-1-0.9-1.3c-0.5-0.4-1-0.5-1.7-0.5c-0.9-0.1-0.9,1.4,0,1.3
					c0.4,0,0.9-0.1,1.3,0.1C160.4,87.1,160.7,87.4,161,87.6L161,87.6z"/>
			</g>
			<g>
				<path class="st14" d="M166,83.6c0.2,0,0.2-0.3,0.1-0.3c-1-0.7-2.4-0.7-3.5-0.2c-1,0.4-2.6,1.5-2.3,2.7c0.1,0.4,0.5,0.5,0.9,0.4
					c0.4-0.2,0.6-0.6,0.9-1s0.7-0.7,1.1-0.9C164.1,83.8,165.1,83.5,166,83.6L166,83.6z"/>
			</g>
			<g>
				<path class="st14" d="M162.5,88.2c0.1,0.1,0.3-0.1,0.2-0.3c-0.3-0.6-0.4-1.3-0.4-1.9c0-0.3,0-0.6,0.1-0.9
					c0.1-0.3,0.2-0.6,0.1-0.9c-0.1-0.3-0.5-0.5-0.8-0.4c-1.1,0.3-1.2,1.7-0.9,2.6C161.1,87.1,161.8,87.9,162.5,88.2L162.5,88.2z"/>
			</g>
			<g>
				<path class="st15" d="M163.7,85.9c0.1,0,0.1-0.1,0-0.2c-0.1,0-0.3-0.1-0.4-0.1c-0.1,0-0.3,0.1-0.2,0.2c0,0.1,0.1,0.3,0.3,0.3
					C163.5,86.1,163.6,86,163.7,85.9c0-0.1,0-0.2-0.1-0.2c-0.1,0-0.2,0-0.2,0.1c0,0,0,0,0,0c0,0,0.1,0,0,0c0,0,0-0.1,0-0.1
					c0,0.1-0.1,0.2-0.1,0.3C163.3,85.9,163.5,85.9,163.7,85.9L163.7,85.9z"/>
			</g>
			<g>
				<path class="st15" d="M159.8,87.9c0-0.1-0.1-0.1-0.2,0.1c0,0,0,0.1,0,0.1s0,0,0,0.1c0.1,0,0.3,0,0.4,0c0,0,0,0,0,0
					c0,0-0.1,0.1-0.1,0.2c0,0,0,0,0,0c0,0-0.1,0-0.1,0l0,0c0,0-0.1,0-0.1-0.1c-0.1-0.1-0.1-0.1,0-0.1c0,0,0,0,0,0.1
					c0.1,0.2,0.4,0.1,0.4-0.1c0-0.1,0-0.1,0-0.2C159.9,87.9,159.8,87.9,159.8,87.9c-0.2,0-0.3,0.1-0.3,0.2c0,0.1,0,0.1,0.1,0.2
					c0.2,0.1,0.4-0.1,0.3-0.3C159.9,88,159.9,88,159.8,87.9L159.8,87.9z"/>
			</g>
			<g>
				<path class="st16" d="M164,88c-0.1-0.1-0.2,0-0.1,0.1c0.8,0.7,1.4,1.6,2.2,2.2c0.1,0.1,0.2-0.1,0.1-0.1
					C165.5,89.4,164.8,88.7,164,88L164,88z"/>
			</g>
			<g>
				<path class="st16" d="M163.8,88.3c0-0.1-0.1,0-0.1,0.1c0.5,0.9,1.3,1.5,2,2.3c0.1,0.1,0.2,0,0.1-0.1
					C165.2,89.7,164.4,89.1,163.8,88.3L163.8,88.3z"/>
			</g>
			<g>
				<path class="st16" d="M162.3,89.7C162.3,89.6,162.2,89.6,162.3,89.7c0.5,1.2,1.3,2.2,1.9,3.4c0,0.1,0.2,0,0.2-0.1
					C164,91.8,163,90.7,162.3,89.7L162.3,89.7z"/>
			</g>
			<g>
				<path class="st16" d="M162.8,89.7c0-0.1-0.2,0-0.1,0.1c0.7,0.9,1.2,1.9,1.8,2.9c0.1,0.1,0.2,0,0.2-0.1
					C164.2,91.5,163.5,90.5,162.8,89.7L162.8,89.7z"/>
			</g>
			<g>
				<path class="st16" d="M163.7,88.1c0.1,0.1,0.1,0,0.1-0.1c-0.3-0.4-0.6-0.8-0.8-1.2c-0.1-0.3-0.2-0.6-0.3-0.9c0-0.1-0.1,0-0.1,0
					C162.7,86.8,163.2,87.5,163.7,88.1L163.7,88.1z"/>
			</g>
			<g>
				<path class="st16" d="M162.3,86c0-0.1-0.1-0.1-0.1,0c0.1,1,0.6,1.8,1.4,2.5c0.1,0.1,0.2,0,0.1-0.1C163,87.7,162.5,87,162.3,86
					L162.3,86z"/>
			</g>
			<g>
				<path class="st16" d="M166.8,85.9c0,0.1,0.1,0.1,0.1,0c0.3-0.6,0-1.3-0.4-1.8c-0.4-0.6-1.1-0.8-1.7-0.8c-0.8,0-1.8,0.2-2.3,0.9
					c-0.5,0.7-0.3,1.2,0.3,1.6c0.1,0.1,0.3,0,0.2-0.2c-0.1-0.3-0.3-0.5-0.1-0.8c0.1-0.2,0.3-0.4,0.6-0.6c0.5-0.2,1-0.3,1.5-0.3
					s0.9,0.1,1.3,0.5C166.6,84.9,167,85.4,166.8,85.9L166.8,85.9z"/>
			</g>
			<g>
				<path class="st16" d="M159.5,91C159.5,91,159.5,90.9,159.5,91c-1-0.2-1.4-1.4-1.4-2.3c0-0.5,0.1-1.1,0.6-1.4
					c0.6-0.4,0.7,0.2,1.1,0.5c0.2,0.1,0.4,0,0.4-0.2c-0.1-0.7-0.7-1.3-1.4-1c-0.7,0.2-1.2,1-1.2,1.6C157.4,89.4,158,91,159.5,91
					L159.5,91z"/>
			</g>
			<g>
				<path class="st16" d="M168.1,90.6C168.1,90.6,168.2,90.5,168.1,90.6c-0.5-0.4-1-0.8-1.5-1.1c0,0-0.1,0.1-0.1,0.1
					C167,90,167.5,90.3,168.1,90.6L168.1,90.6z"/>
			</g>
			<g>
				<path class="st11" d="M167.4,90.2C167.4,90.2,167.5,90.2,167.4,90.2c-0.4-0.4-0.7-0.8-1.1-1.1c0,0-0.1,0-0.1,0.1
					C166.7,89.5,167,89.8,167.4,90.2L167.4,90.2z"/>
			</g>
			<g>
				<path class="st11" d="M164.1,90.9C164.1,90.9,164,90.9,164.1,90.9c0.3,0.6,0.6,1.2,1,1.8c0,0,0.1,0,0.1,0
					C164.8,92,164.4,91.5,164.1,90.9L164.1,90.9z"/>
			</g>
			<g>
				<path class="st11" d="M166.5,89.5C166.5,89.5,166.5,89.5,166.5,89.5c0.4,0.5,0.8,1,1.4,1.3c0,0,0.1,0,0-0.1
					C167.4,90.4,167,90,166.5,89.5L166.5,89.5z"/>
			</g>
			<g>
				<path class="st14" d="M165.8,89.4c0-0.1-0.1,0-0.1,0.1c0.4,0.6,1,1.1,1.5,1.6c0.1,0,0.1,0,0.1-0.1
					C166.9,90.4,166.2,90,165.8,89.4L165.8,89.4z"/>
			</g>
			<g>
				<path class="st14" d="M165.9,90.1C165.9,90.1,165.8,90.1,165.9,90.1c0.2,0.4,0.6,0.6,0.8,1c0,0,0.1,0,0.1,0
					C166.7,90.6,166.2,90.4,165.9,90.1L165.9,90.1z"/>
			</g>
			<g>
				<path class="st14" d="M166,90.7C165.9,90.7,165.9,90.7,166,90.7c0.2,0.3,0.4,0.5,0.6,0.7c0,0,0.1,0,0.1,0
					C166.4,91.1,166.2,90.9,166,90.7L166,90.7z"/>
			</g>
			<g>
				<path class="st14" d="M164.3,90.1c0.1,0.1,0.3,0,0.3-0.2c-0.1-0.3-0.4-0.5-0.5-0.9c-0.2-0.4-0.4-0.8-0.5-1.3
					c-0.2-0.7-0.6-1.8-0.4-2.5c0.4-1.4,2.4-2.1,3.6-1.3c0.2,0.1,0.4-0.1,0.3-0.3c-0.5-0.8-1.5-1-2.3-0.7c-0.8,0.3-1.7,0.6-2,1.5
					c-0.4,0.9-0.2,1.9,0,2.8c0.1,0.6,0.3,1.2,0.7,1.7C163.6,89.4,164,89.7,164.3,90.1L164.3,90.1z"/>
			</g>
			<g>
				<path class="st14" d="M163.2,83.5c0.1-0.1,0-0.3-0.2-0.3c-0.8,0.5-1.1,1.6-1.2,2.5c0,0.9-0.1,1.9,0.6,2.6c0.3,0.3,0.7,0,0.6-0.4
					c-0.3-1.4-0.6-2.9,0-4.2c0.2-0.4-0.4-0.8-0.6-0.4c-0.8,1.5-0.4,3.2-0.1,4.8c0.2-0.1,0.4-0.2,0.6-0.4c-0.5-0.5-0.4-1.4-0.4-2.1
					C162.5,85,162.6,84.1,163.2,83.5L163.2,83.5z"/>
			</g>
			<g>
				<path class="st14" d="M163.3,83.6c0.2,0,0.2-0.3,0-0.3c-0.2,0-0.3,0.1-0.4,0.2c-0.1,0.1-0.3,0.2-0.5,0.3
					c-0.3,0.1-0.1,0.5,0.1,0.5c0.2,0,0.4-0.1,0.5-0.2c0.2-0.1,0.2-0.4,0.1-0.5c-0.1-0.1-0.4-0.1-0.5,0c0,0.1,0,0-0.1,0.1
					c-0.1,0.1-0.1,0.3,0,0.4c0.1,0,0.1,0.1,0.2,0.1c0-0.2-0.1-0.4-0.1-0.6c-0.1,0.1-0.3,0.2-0.4,0.3c0.2,0.1,0.3,0.2,0.5,0.3
					c0,0,0-0.1,0-0.1c0,0,0.1-0.1,0.1-0.1c0.1-0.1,0.1-0.1,0.2-0.2C163.1,83.8,163.2,83.7,163.3,83.6
					C163.3,83.6,163.3,83.6,163.3,83.6C163.3,83.6,163.3,83.6,163.3,83.6L163.3,83.6z"/>
			</g>
			<g>
				<path class="st14" d="M158,91.3c0.1,0.1,0.2-0.1,0.1-0.2c-0.4-0.3-0.7-0.7-0.9-1.2c-0.1-0.3-0.1-0.6-0.3-0.9
					c-0.1-0.1-0.3-0.1-0.3,0.1C156.6,90,157.2,90.9,158,91.3L158,91.3z"/>
			</g>
			<g>
				<path class="st14" d="M157.8,91.1c0.1,0.1,0.2,0,0.1-0.1c-0.4-0.9-0.5-1.6-0.2-2.5c0.2-0.7,0.5-1.4,1.3-1.3
					c1.2,0.1,1.5,1.5,2.5,1.9c0.3,0.1,0.5-0.1,0.4-0.4c-0.3-0.6-1-1.3-1.5-1.8c-0.6-0.5-1.3-0.6-2.1-0.4c-0.9,0.3-1.1,1.2-1.2,2
					C156.9,89.6,157.2,90.3,157.8,91.1L157.8,91.1z"/>
			</g>
			<g>
				<path class="st14" d="M161.7,89.5c0.1,0.1,0.2,0,0.1-0.1c-0.6-0.9-1.1-2-2.1-2.4c-0.9-0.4-2.2-0.2-2.6,0.8
					c-0.1,0.2,0.1,0.4,0.3,0.4c0.4-0.1,0.7-0.5,1.1-0.6c0.5-0.1,1,0,1.4,0.3C160.5,88.2,161,88.9,161.7,89.5L161.7,89.5z"/>
			</g>
			<g>
				<path class="st14" d="M159.2,87.1c0.1-0.1,0-0.2-0.1-0.2c-0.8,0-2.1,0.6-2.5,1.3c-0.1,0.1,0,0.3,0.2,0.3
					c0.5-0.1,0.8-0.5,1.2-0.8C158.3,87.5,158.8,87.4,159.2,87.1L159.2,87.1z"/>
			</g>
		</g>
		<g>
			<path class="st14" d="M161,89.5c-0.1-0.1-0.3,0-0.2,0.2c0.4,0.6,0.2,1.1-0.5,1.4c-0.4,0.2-1,0.4-1.5,0.2
				c-0.5-0.2-1.1-0.9-1.3-1.4c-0.1-0.5,0-1-0.3-1.5c-0.2-0.3-0.5-0.2-0.6,0.1c-0.1,1,0.1,1.8,0.8,2.6c0.5,0.6,1.3,1.1,2.1,0.9
				C160.7,91.8,162.3,90.6,161,89.5L161,89.5z"/>
		</g>
	</g>
	<g>
		<g>
			<path class="st10" d="M250.1,57.4c0.3-0.1,0.5-0.3,0.8-0.5c0.3-0.2,0.5-0.5,0.7-0.8c0.2-0.4,0.2-1,0.2-1.5
				c-0.3-2.1-1.1-3.6-2.8-5c-0.4-0.4-0.9-0.7-1.4-0.9c-1-0.4-2.6-0.6-3.5-0.3c-0.5,0.2-1.1,0.5-1.5,0.9c-0.6,0.6-0.8,1.4-0.7,2.3
				c0.1,0.8,0.5,1.6,1.2,2.1c0.1,0.1,0.2,0.1,0.2,0.2c0.1,0.2-0.1,0.3-0.2,0.5c-0.5,0.4-1,0.9-1.5,1.3c-0.1,0.1-0.2,0.2-0.2,0.3
				c0,0.2,0.1,0.3,0.2,0.4c1,1,2.2,2.3,3.5,2.7c0.2,0.1,0.5,0,0.6-0.2c0.3-0.5,1.2-1.8,1.7-1.9c0.3,0,0.7,0.1,1,0.2
				C248.9,57.5,249.5,57.6,250.1,57.4z"/>
			<g>
				<path class="st11" d="M243.7,52.4c-0.2-0.5,0-0.9,0.6-0.9c0.3,0,0.5,0,0.8,0.1c0.3,0.1,0.5,0.3,0.9,0.4c0.3,0,0.4-0.2,0.5-0.5
					c0.1-0.6-0.6-0.9-1.1-1c-0.5-0.1-1-0.1-1.5,0.1c-0.4,0.2-0.7,0.5-0.8,0.9c-0.1,0.5,0.2,0.8,0.6,1.1
					C243.6,52.6,243.7,52.5,243.7,52.4L243.7,52.4z"/>
			</g>
			<g>
				<path class="st11" d="M248.1,55.7c0.4,0.6,1.2,0.4,1.7-0.1c0.6-0.7,0.4-1.7-0.1-2.3c-0.4-0.6-1.4,0.2-1,0.7
					c0.2,0.3,0.4,0.5,0.3,0.9c-0.1,0.4-0.3,0.7-0.7,0.6C248.2,55.4,248,55.5,248.1,55.7L248.1,55.7z"/>
			</g>
			<g>
				<g>
					<defs>
						<path id="SVGID_13_" d="M250.1,57.4c0.3-0.1,0.5-0.3,0.8-0.5c0.3-0.2,0.5-0.5,0.7-0.8c0.2-0.4,0.2-1,0.2-1.5
							c-0.3-2.1-1.1-3.6-2.8-5c-0.4-0.4-0.9-0.7-1.4-0.9c-1-0.4-2.6-0.6-3.5-0.3c-0.5,0.2-1.1,0.5-1.5,0.9c-0.6,0.6-0.8,1.4-0.7,2.3
							c0.1,0.8,0.5,1.6,1.2,2.1c0.1,0.1,0.2,0.1,0.2,0.2c0.1,0.2-0.1,0.3-0.2,0.5c-0.5,0.4-1,0.9-1.5,1.3c-0.1,0.1-0.2,0.2-0.2,0.3
							c0,0.2,0.1,0.3,0.2,0.4c1,1,2.2,2.3,3.5,2.7c0.2,0.1,0.5,0,0.6-0.2c0.3-0.5,1.2-1.8,1.7-1.9c0.3,0,0.7,0.1,1,0.2
							C248.9,57.5,249.5,57.6,250.1,57.4z"/>
					</defs>
					<clipPath id="SVGID_14_">
						<use xlink:href="#SVGID_13_"  style="overflow:visible;"/>
					</clipPath>
					<g class="st21">
						<path class="st11" d="M251.8,55.2c-0.3,0.6-0.7,1.3-1.2,1.6c-0.8,0.5-1.7,0.1-2.5-0.3c-0.8-0.3-1.3-0.2-1.9,0.4
							c-0.3,0.3-0.5,0.7-0.7,1.1c-0.2,0.4-0.6,0.9-0.5,1.3c0,0.5,0.5,0.8,0.9,0.5c0.4-0.2,0.6-0.7,0.9-1.1c0.2-0.4,0.4-0.7,0.7-1
							c0.1-0.1,0.1-0.1-0.1,0c0.1,0,0.2,0.1,0.2,0.1c0.2,0.1,0.4,0.2,0.6,0.2c0.4,0.1,0.9,0.1,1.3,0c0.7-0.1,1.4-0.4,1.9-1
							c0.4-0.5,0.7-1.1,0.7-1.8C252.2,55.1,251.9,55,251.8,55.2L251.8,55.2z"/>
					</g>
				</g>
				<g>
					<defs>
						<path id="SVGID_15_" d="M250.1,57.4c0.3-0.1,0.5-0.3,0.8-0.5c0.3-0.2,0.5-0.5,0.7-0.8c0.2-0.4,0.2-1,0.2-1.5
							c-0.3-2.1-1.1-3.6-2.8-5c-0.4-0.4-0.9-0.7-1.4-0.9c-1-0.4-2.6-0.6-3.5-0.3c-0.5,0.2-1.1,0.5-1.5,0.9c-0.6,0.6-0.8,1.4-0.7,2.3
							c0.1,0.8,0.5,1.6,1.2,2.1c0.1,0.1,0.2,0.1,0.2,0.2c0.1,0.2-0.1,0.3-0.2,0.5c-0.5,0.4-1,0.9-1.5,1.3c-0.1,0.1-0.2,0.2-0.2,0.3
							c0,0.2,0.1,0.3,0.2,0.4c1,1,2.2,2.3,3.5,2.7c0.2,0.1,0.5,0,0.6-0.2c0.3-0.5,1.2-1.8,1.7-1.9c0.3,0,0.7,0.1,1,0.2
							C248.9,57.5,249.5,57.6,250.1,57.4z"/>
					</defs>
					<clipPath id="SVGID_16_">
						<use xlink:href="#SVGID_15_"  style="overflow:visible;"/>
					</clipPath>
					<g class="st22">
						<path class="st11" d="M240.5,56.2C240.5,56.2,240.5,56.2,240.5,56.2c-0.1-0.1-0.2-0.1-0.4-0.1c0.2,0.4,0.7,0.6,1.1,0.9
							c0.5,0.4,1,0.7,1.4,1.1c0.3,0.3,0.7,0.7,0.9,1.2c0.1,0.2,0,0.4,0.1,0.6c0.1,0.3,0.2,0.5,0.5,0.6c0.5,0.3,1,0,1.2-0.5
							c0.2-0.4,0-1.1-0.2-1.5c-0.3-0.6-0.9-1.1-1.3-1.5c-0.6-0.4-1.2-0.7-1.8-1c-0.5-0.2-1.1-0.6-1.6-0.2c-0.1,0.1-0.1,0.3,0.1,0.4
							c0,0,0.1,0,0.1,0C240.4,56.3,240.4,56.3,240.5,56.2L240.5,56.2z"/>
					</g>
				</g>
			</g>
			<g>
				<path class="st14" d="M247.8,51.7c-0.4,0.2-0.6,0.6-1,0.9c-0.4,0.4-0.7,0.8-1.1,1.2c-0.2,0.2-0.4,0.4-0.7,0.6
					c-0.1,0.1-0.2,0.2-0.3,0.3c-0.1,0.1-0.1,0.1,0,0c-0.1,0.1-0.2,0.2-0.3,0.3c-0.5,0.4-0.4,1.2,0,1.6c0.4,0.5,1.2,0.4,1.6,0
					c0.4-0.4,0.9-0.9,1.2-1.4c0.3-0.4,0.6-0.9,0.9-1.4c0.3-0.5,0.6-1.1,0.5-1.7C248.5,51.8,248.2,51.4,247.8,51.7L247.8,51.7z"/>
			</g>
			<g>
				<path class="st14" d="M244.7,53c0,0.4-0.5,0.3-0.8,0.2c-0.4-0.1-0.6-0.5-0.8-0.8c-0.5-0.9-0.3-1.9,0.7-2.2
					c0.7-0.2,1.5-0.1,2.2,0.1c0.7,0.2,1.4,0.5,1.9,1c0.3,0.3,0.9,0.2,1-0.3c0.3-1.6-1.7-2-2.9-2.1c-1.3-0.1-2.7,0.2-3.5,1.2
					c-0.9,1-0.5,2.9,0.5,3.6c0.5,0.3,1,0.4,1.6,0.3c0.5-0.1,0.7-0.6,0.4-1.1C244.9,52.7,244.7,52.8,244.7,53L244.7,53z"/>
			</g>
			<g>
				<path class="st14" d="M246.6,50.1c0.1,0.9,0.4,1.7,0.4,2.6c0,0.8,1.3,1,1.4,0.2c0.2-1.2-0.2-2.3-1-3.2c-0.5-0.6-1.4,0.1-1.3,0.7
					c0.1,0.6,0.5,1,0.7,1.5c0.2,0.4,0.1,0.6,0.3,1c0.1-0.3,0.2-0.7,0.3-1c0,0,0,0,0,0c-0.4,0.2-0.5,0.9-0.2,1.2l0,0
					c0.3,0.3,0.8,0.3,1.1,0c0.4-0.4,0.2-1,0.1-1.4c-0.2-0.6-0.7-1-0.9-1.6c-0.4,0.2-0.8,0.5-1.3,0.7c0.5,0.5,0.6,1.3,0.6,2
					c0.5-0.1,1-0.1,1.4-0.2c-0.2-0.9-0.7-2-1.5-2.6C246.8,49.8,246.6,49.9,246.6,50.1L246.6,50.1z"/>
			</g>
			<g>
				<path class="st14" d="M251.2,55.3c0.6-1,0-2.4-0.5-3.3c-0.3-0.6-0.8-1.1-1.3-1.5c-0.5-0.5-1.2-1-1.9-1c-0.3,0-0.6,0.2-0.6,0.5
					c-0.1,0.4,0.2,0.6,0.4,0.8c0.3,0.2,0.6,0.3,0.9,0.5c0.3,0.2,0.6,0.5,0.9,0.7c0.9,0.9,1.7,1.9,1.8,3.2
					C250.8,55.4,251.1,55.4,251.2,55.3L251.2,55.3z"/>
			</g>
			<g>
				<path class="st14" d="M250.5,52.7c-0.2-0.6-0.8-1-1.4-1.2c-0.3-0.1-0.8-0.1-1,0.1c-0.4,0.3-0.5,0.5-0.6,0.9
					c-0.1,0.4,0.3,0.7,0.6,0.5c0.2-0.1,0.6-0.3,0.9-0.3c0.3,0,0.8,0.2,1.1,0.3C250.3,53.1,250.5,52.9,250.5,52.7L250.5,52.7z"/>
			</g>
			<g>
				<path class="st14" d="M247.8,53.3c0.3-0.2,0.5-0.4,0.9-0.5c0.3-0.2,0.7-0.1,1-0.1c0.7,0,0.7-1.1,0-1.1c-0.5,0-1,0.1-1.3,0.4
					c-0.3,0.3-0.5,0.7-0.7,1.1C247.4,53.2,247.6,53.4,247.8,53.3L247.8,53.3z"/>
			</g>
			<g>
				<path class="st14" d="M243.7,50.1c0.8-0.1,1.6,0.1,2.2,0.5c0.3,0.2,0.6,0.5,0.9,0.7c0.3,0.3,0.4,0.6,0.8,0.8
					c0.3,0.1,0.6,0,0.7-0.3c0.3-1-1-1.9-1.8-2.2c-0.9-0.4-2-0.4-2.9,0.2C243.5,49.9,243.5,50.1,243.7,50.1L243.7,50.1z"/>
			</g>
			<g>
				<path class="st14" d="M246.5,53.8c0.6-0.2,1.1-0.9,1.3-1.5c0.2-0.7,0.2-1.9-0.7-2.1c-0.2-0.1-0.6,0.1-0.6,0.3s0,0.5,0.1,0.7
					c0.1,0.2,0.1,0.5,0.1,0.7c0,0.5,0,1.1-0.3,1.5C246.3,53.7,246.4,53.9,246.5,53.8L246.5,53.8z"/>
			</g>
			<g>
				<path class="st15" d="M245.6,51.9c0.1,0,0.3,0,0.4,0c0-0.1-0.1-0.1-0.1-0.2c0,0,0,0.1,0,0.1c0,0,0,0,0,0c0,0,0,0,0,0
					c0-0.1-0.1-0.1-0.2-0.1C245.6,51.7,245.6,51.8,245.6,51.9c0.1,0.1,0.2,0.2,0.3,0.2c0.1,0,0.2-0.2,0.2-0.3s-0.1-0.2-0.2-0.2
					c-0.1,0-0.2,0.1-0.4,0.1C245.5,51.8,245.5,51.9,245.6,51.9L245.6,51.9z"/>
			</g>
			<g>
				<path class="st15" d="M248.7,53.6c0,0.1-0.1,0.1-0.1,0.1c-0.1,0.1,0.1,0.3,0.2,0.2c0.1,0,0.1-0.1,0.1-0.2
					C248.9,53.7,248.9,53.6,248.7,53.6c0,0-0.1,0-0.1,0.1c0,0.1,0,0.1,0,0.1c0,0.2,0.2,0.2,0.3,0.1c0,0,0-0.1,0-0.1c0-0.1,0,0,0,0.1
					c0,0-0.1,0-0.1,0.1l0,0c0,0-0.1,0-0.1,0c0,0,0,0,0,0c0-0.1-0.1-0.1-0.1-0.1c0,0,0,0,0,0c0.1,0,0.2,0,0.3,0c0,0,0,0,0-0.1
					c0,0,0-0.1,0-0.1C248.9,53.5,248.8,53.5,248.7,53.6L248.7,53.6z"/>
			</g>
			<g>
				<path class="st16" d="M245.3,53.6c-0.6,0.5-1.2,1.2-1.8,1.7c-0.1,0.1,0,0.2,0.1,0.1C244.3,55,244.8,54.3,245.3,53.6
					C245.5,53.7,245.4,53.6,245.3,53.6L245.3,53.6z"/>
			</g>
			<g>
				<path class="st16" d="M245.5,53.9c-0.5,0.7-1.2,1.2-1.7,1.8c-0.1,0.1,0.1,0.2,0.1,0.1c0.6-0.6,1.2-1.1,1.7-1.8
					C245.6,53.9,245.6,53.9,245.5,53.9L245.5,53.9z"/>
			</g>
			<g>
				<path class="st16" d="M246.7,55c-0.6,0.9-1.4,1.7-1.7,2.7c0,0.1,0.1,0.1,0.1,0.1C245.6,56.8,246.3,56,246.7,55
					C246.8,55,246.7,54.9,246.7,55L246.7,55z"/>
			</g>
			<g>
				<path class="st16" d="M246.3,55c-0.6,0.7-1.2,1.5-1.5,2.3c0,0.1,0.1,0.1,0.2,0.1c0.5-0.8,0.9-1.6,1.4-2.3
					C246.5,55,246.4,54.9,246.3,55L246.3,55z"/>
			</g>
			<g>
				<path class="st16" d="M245.5,53.7c0.5-0.4,0.9-1.1,0.9-1.7c0-0.1-0.1-0.1-0.1,0c-0.1,0.2-0.2,0.5-0.3,0.7
					C245.9,53,245.7,53.3,245.5,53.7C245.4,53.7,245.5,53.7,245.5,53.7L245.5,53.7z"/>
			</g>
			<g>
				<path class="st16" d="M246.7,52c-0.1,0.8-0.6,1.4-1.1,2c-0.1,0.1,0,0.1,0.1,0.1c0.6-0.6,1.1-1.2,1.1-2.1
					C246.8,52,246.7,52,246.7,52L246.7,52z"/>
			</g>
			<g>
				<path class="st16" d="M243,51.9c-0.1-0.4,0.2-0.8,0.4-1.1c0.3-0.3,0.6-0.4,1-0.4s0.8,0.1,1.2,0.2c0.2,0.1,0.4,0.3,0.5,0.5
					c0.1,0.2-0.1,0.5-0.1,0.7c0,0.1,0.1,0.2,0.2,0.1c0.5-0.4,0.7-0.8,0.3-1.3c-0.4-0.6-1.2-0.7-1.9-0.7c-0.5,0-1.1,0.1-1.4,0.6
					c-0.3,0.4-0.6,1-0.3,1.4C242.9,52,243,52,243,51.9L243,51.9z"/>
			</g>
			<g>
				<path class="st16" d="M249,56.1c1.2,0,1.7-1.3,1.6-2.3c0-0.5-0.5-1.2-1-1.3c-0.6-0.2-1.1,0.3-1.2,0.9c0,0.2,0.2,0.3,0.3,0.2
					c0.3-0.3,0.4-0.7,0.9-0.4c0.4,0.3,0.5,0.7,0.5,1.1C250.1,54.9,249.9,55.9,249,56.1C249,56,249,56.1,249,56.1L249,56.1z"/>
			</g>
			<g>
				<path class="st16" d="M242,55.7c0.5-0.2,0.9-0.5,1.3-0.8c0.1,0,0-0.1-0.1-0.1C242.8,55.1,242.4,55.4,242,55.7
					C241.9,55.7,242,55.8,242,55.7L242,55.7z"/>
			</g>
			<g>
				<path class="st11" d="M242.5,55.4c0.3-0.3,0.6-0.6,0.9-0.9c0,0,0-0.1-0.1-0.1C243.1,54.8,242.8,55.1,242.5,55.4
					C242.5,55.4,242.5,55.4,242.5,55.4L242.5,55.4z"/>
			</g>
			<g>
				<path class="st11" d="M245.3,56c-0.3,0.5-0.6,1-0.9,1.5c0,0,0,0.1,0.1,0C244.8,57,245,56.5,245.3,56C245.3,56,245.3,56,245.3,56
					L245.3,56z"/>
			</g>
			<g>
				<path class="st11" d="M243.3,54.9c-0.4,0.4-0.7,0.7-1.2,1c0,0,0,0.1,0,0.1C242.6,55.7,243,55.3,243.3,54.9
					C243.3,54.9,243.3,54.9,243.3,54.9L243.3,54.9z"/>
			</g>
			<g>
				<path class="st14" d="M243.9,54.8c-0.4,0.5-0.9,0.8-1.2,1.3c0,0.1,0,0.1,0.1,0.1C243.2,55.7,243.6,55.3,243.9,54.8
					C244,54.8,243.9,54.7,243.9,54.8L243.9,54.8z"/>
			</g>
			<g>
				<path class="st14" d="M243.8,55.4c-0.2,0.3-0.6,0.4-0.7,0.8c0,0.1,0.1,0.1,0.1,0C243.3,55.9,243.6,55.7,243.8,55.4
					C243.8,55.4,243.8,55.3,243.8,55.4L243.8,55.4z"/>
			</g>
			<g>
				<path class="st14" d="M243.7,55.9c-0.2,0.2-0.4,0.3-0.5,0.5c0,0,0,0.1,0.1,0C243.4,56.2,243.6,56.1,243.7,55.9
					C243.8,55.9,243.8,55.8,243.7,55.9L243.7,55.9z"/>
			</g>
			<g>
				<path class="st14" d="M245,55.3c0.3-0.3,0.6-0.5,0.8-0.9c0.3-0.4,0.4-0.9,0.5-1.4c0.2-0.8,0.3-1.5,0-2.3c-0.3-0.7-1-1-1.7-1.2
					c-0.7-0.2-1.5-0.1-1.9,0.6c-0.1,0.1,0.1,0.4,0.2,0.2c1-0.7,2.6-0.1,2.9,1c0.2,0.6-0.1,1.5-0.3,2.1c-0.1,0.4-0.3,0.7-0.4,1
					c-0.1,0.3-0.3,0.4-0.4,0.7C244.8,55.3,245,55.4,245,55.3L245,55.3z"/>
			</g>
			<g>
				<path class="st14" d="M246,50c0.5,0.5,0.6,1.2,0.6,1.8c0,0.5,0.1,1.3-0.3,1.7c0.2,0.1,0.3,0.2,0.5,0.3c0.2-1.3,0.6-2.7-0.1-3.9
					c-0.2-0.3-0.7-0.1-0.5,0.3c0.5,1.1,0.2,2.3,0,3.5c-0.1,0.3,0.3,0.5,0.5,0.3c0.5-0.5,0.5-1.4,0.5-2.1c0-0.8-0.3-1.6-1-2
					C246,49.7,245.8,49.9,246,50L246,50z"/>
			</g>
			<g>
				<path class="st14" d="M245.9,50.1C245.9,50.1,245.9,50,245.9,50.1C245.9,50.1,245.9,50.1,245.9,50.1c0.1,0.1,0.1,0.2,0.2,0.2
					c0.1,0.1,0.1,0.1,0.1,0.1c0,0,0,0.1,0.1,0.1c0,0,0.1,0.1,0,0.1c0.1-0.1,0.3-0.2,0.4-0.2c-0.1-0.1-0.2-0.2-0.3-0.3
					c0,0.2-0.1,0.3-0.1,0.5c0.1,0,0.1-0.1,0.2-0.1c0.1-0.1,0.1-0.2,0-0.3c0,0,0,0-0.1-0.1c-0.1-0.1-0.3-0.1-0.4,0
					c-0.1,0.1-0.1,0.4,0.1,0.4c0.1,0.1,0.3,0.2,0.4,0.1c0.2,0,0.3-0.3,0.1-0.4c-0.1-0.1-0.3-0.2-0.4-0.3c-0.1-0.1-0.2-0.2-0.4-0.1
					C245.7,49.8,245.8,50.1,245.9,50.1L245.9,50.1z"/>
			</g>
			<g>
				<path class="st14" d="M250.2,56.4c0.6-0.3,1.1-1.1,1.1-1.8c0-0.1-0.2-0.2-0.2-0.1c-0.2,0.2-0.2,0.5-0.3,0.8
					c-0.1,0.4-0.3,0.7-0.7,1C250.1,56.3,250.1,56.4,250.2,56.4L250.2,56.4z"/>
			</g>
			<g>
				<path class="st14" d="M250.4,56.2c0.5-0.7,0.7-1.2,0.6-2c-0.1-0.7-0.3-1.4-1-1.6c-0.6-0.2-1.2-0.1-1.7,0.3
					c-0.5,0.4-1,0.9-1.3,1.4c-0.1,0.2,0.1,0.4,0.3,0.3c0.8-0.4,1-1.5,2-1.6c0.7-0.1,0.9,0.5,1.1,1.1c0.2,0.7,0.2,1.4-0.2,2.1
					C250.2,56.2,250.3,56.2,250.4,56.2L250.4,56.2z"/>
			</g>
			<g>
				<path class="st14" d="M247.2,54.8c0.5-0.5,1-1,1.5-1.4c0.4-0.2,0.7-0.3,1.1-0.2c0.3,0.1,0.6,0.3,0.9,0.5
					c0.2,0.1,0.3-0.2,0.2-0.3c-0.4-0.8-1.4-1-2.1-0.6c-0.8,0.4-1.2,1.3-1.7,2C247.1,54.8,247.2,54.9,247.2,54.8L247.2,54.8z"/>
			</g>
			<g>
				<path class="st14" d="M249.3,52.9c0.3,0.2,0.7,0.3,1,0.5c0.3,0.2,0.6,0.5,1,0.6c0.1,0.1,0.2-0.1,0.2-0.2
					c-0.4-0.6-1.4-1.1-2.1-1.1C249.2,52.8,249.2,52.9,249.3,52.9L249.3,52.9z"/>
			</g>
		</g>
		<g>
			<path class="st14" d="M247.8,54.9c-1,0.9,0.2,1.8,1.2,2.1c0.7,0.2,1.3-0.2,1.7-0.7c0.6-0.6,0.7-1.3,0.6-2.1
				c0-0.3-0.3-0.3-0.5-0.1c-0.3,0.4-0.2,0.8-0.3,1.2c-0.1,0.4-0.6,1-1,1.2c-0.4,0.2-0.9,0-1.2-0.2c-0.5-0.2-0.7-0.6-0.4-1.2
				C248,54.9,247.9,54.8,247.8,54.9L247.8,54.9z"/>
		</g>
	</g>
	<g>
		<g>
			<path class="st10" d="M212.9,78.3c0.3-0.1,0.5-0.3,0.8-0.5c0.3-0.2,0.5-0.5,0.7-0.8c0.2-0.4,0.2-1,0.2-1.5
				c-0.3-2.1-1.1-3.6-2.8-5c-0.4-0.4-0.9-0.7-1.4-0.9c-1-0.4-2.6-0.6-3.5-0.3c-0.5,0.2-1.1,0.5-1.5,0.9c-0.6,0.6-0.8,1.4-0.7,2.3
				c0.1,0.8,0.5,1.6,1.2,2.1c0.1,0.1,0.2,0.1,0.2,0.2c0.1,0.2-0.1,0.3-0.2,0.5c-0.5,0.4-1,0.9-1.5,1.3c-0.1,0.1-0.2,0.2-0.2,0.3
				c0,0.2,0.1,0.3,0.2,0.4c1,1,2.2,2.3,3.5,2.7c0.2,0.1,0.5,0,0.6-0.2c0.3-0.5,1.2-1.8,1.7-1.9c0.3,0,0.7,0.1,1,0.2
				C211.7,78.4,212.3,78.5,212.9,78.3z"/>
			<g>
				<path class="st11" d="M206.5,73.4c-0.2-0.5,0-0.9,0.6-0.9c0.3,0,0.5,0,0.8,0.1c0.3,0.1,0.5,0.3,0.9,0.4c0.3,0,0.4-0.2,0.5-0.5
					c0.1-0.6-0.6-0.9-1.1-1c-0.5-0.1-1-0.1-1.5,0.1c-0.4,0.2-0.7,0.5-0.8,0.9c-0.1,0.5,0.2,0.8,0.6,1.1
					C206.4,73.5,206.5,73.4,206.5,73.4L206.5,73.4z"/>
			</g>
			<g>
				<path class="st11" d="M210.9,76.6c0.4,0.6,1.2,0.4,1.7-0.1c0.6-0.7,0.4-1.7-0.1-2.3c-0.4-0.6-1.4,0.2-1,0.7
					c0.2,0.3,0.4,0.5,0.3,0.9c-0.1,0.4-0.3,0.7-0.7,0.6C211,76.3,210.8,76.4,210.9,76.6L210.9,76.6z"/>
			</g>
			<g>
				<g>
					<defs>
						<path id="SVGID_17_" d="M212.9,78.3c0.3-0.1,0.5-0.3,0.8-0.5c0.3-0.2,0.5-0.5,0.7-0.8c0.2-0.4,0.2-1,0.2-1.5
							c-0.3-2.1-1.1-3.6-2.8-5c-0.4-0.4-0.9-0.7-1.4-0.9c-1-0.4-2.6-0.6-3.5-0.3c-0.5,0.2-1.1,0.5-1.5,0.9c-0.6,0.6-0.8,1.4-0.7,2.3
							c0.1,0.8,0.5,1.6,1.2,2.1c0.1,0.1,0.2,0.1,0.2,0.2c0.1,0.2-0.1,0.3-0.2,0.5c-0.5,0.4-1,0.9-1.5,1.3c-0.1,0.1-0.2,0.2-0.2,0.3
							c0,0.2,0.1,0.3,0.2,0.4c1,1,2.2,2.3,3.5,2.7c0.2,0.1,0.5,0,0.6-0.2c0.3-0.5,1.2-1.8,1.7-1.9c0.3,0,0.7,0.1,1,0.2
							C211.7,78.4,212.3,78.5,212.9,78.3z"/>
					</defs>
					<clipPath id="SVGID_18_">
						<use xlink:href="#SVGID_17_"  style="overflow:visible;"/>
					</clipPath>
					<g class="st23">
						<path class="st11" d="M214.6,76.1c-0.3,0.6-0.7,1.3-1.2,1.6c-0.8,0.5-1.7,0.1-2.5-0.3c-0.8-0.3-1.3-0.2-1.9,0.4
							c-0.3,0.3-0.5,0.7-0.7,1.1c-0.2,0.4-0.6,0.9-0.5,1.3c0,0.5,0.5,0.8,0.9,0.5c0.4-0.2,0.6-0.7,0.9-1.1c0.2-0.4,0.4-0.7,0.7-1
							c0.1-0.1,0.1-0.1-0.1,0c0.1,0,0.2,0.1,0.2,0.1c0.2,0.1,0.4,0.2,0.6,0.2c0.4,0.1,0.9,0.1,1.3,0c0.7-0.1,1.4-0.4,1.9-1
							c0.4-0.5,0.7-1.1,0.7-1.8C215,76,214.7,75.9,214.6,76.1L214.6,76.1z"/>
					</g>
				</g>
				<g>
					<defs>
						<path id="SVGID_19_" d="M212.9,78.3c0.3-0.1,0.5-0.3,0.8-0.5c0.3-0.2,0.5-0.5,0.7-0.8c0.2-0.4,0.2-1,0.2-1.5
							c-0.3-2.1-1.1-3.6-2.8-5c-0.4-0.4-0.9-0.7-1.4-0.9c-1-0.4-2.6-0.6-3.5-0.3c-0.5,0.2-1.1,0.5-1.5,0.9c-0.6,0.6-0.8,1.4-0.7,2.3
							c0.1,0.8,0.5,1.6,1.2,2.1c0.1,0.1,0.2,0.1,0.2,0.2c0.1,0.2-0.1,0.3-0.2,0.5c-0.5,0.4-1,0.9-1.5,1.3c-0.1,0.1-0.2,0.2-0.2,0.3
							c0,0.2,0.1,0.3,0.2,0.4c1,1,2.2,2.3,3.5,2.7c0.2,0.1,0.5,0,0.6-0.2c0.3-0.5,1.2-1.8,1.7-1.9c0.3,0,0.7,0.1,1,0.2
							C211.7,78.4,212.3,78.5,212.9,78.3z"/>
					</defs>
					<clipPath id="SVGID_20_">
						<use xlink:href="#SVGID_19_"  style="overflow:visible;"/>
					</clipPath>
					<g class="st24">
						<path class="st11" d="M203.3,77.1C203.3,77.1,203.3,77.1,203.3,77.1c-0.1-0.1-0.2-0.1-0.4-0.1c0.2,0.4,0.7,0.6,1.1,0.9
							c0.5,0.4,1,0.7,1.4,1.1c0.3,0.3,0.7,0.7,0.9,1.2c0.1,0.2,0,0.4,0.1,0.6c0.1,0.3,0.2,0.5,0.5,0.6c0.5,0.3,1,0,1.2-0.5
							c0.2-0.4,0-1.1-0.2-1.5c-0.3-0.6-0.9-1.1-1.3-1.5c-0.6-0.4-1.2-0.7-1.8-1c-0.5-0.2-1.1-0.6-1.6-0.2c-0.1,0.1-0.1,0.3,0.1,0.4
							c0,0,0.1,0,0.1,0C203.2,77.2,203.2,77.2,203.3,77.1L203.3,77.1z"/>
					</g>
				</g>
			</g>
			<g>
				<path class="st14" d="M210.6,72.6c-0.4,0.2-0.6,0.6-1,0.9c-0.4,0.4-0.7,0.8-1.1,1.2c-0.2,0.2-0.4,0.4-0.7,0.6
					c-0.1,0.1-0.2,0.2-0.3,0.3c-0.1,0.1-0.1,0.1,0,0c-0.1,0.1-0.2,0.2-0.3,0.3c-0.5,0.4-0.4,1.2,0,1.6c0.4,0.5,1.2,0.4,1.6,0
					s0.9-0.9,1.2-1.4c0.3-0.4,0.6-0.9,0.9-1.4c0.3-0.5,0.6-1.1,0.5-1.7C211.3,72.7,211,72.4,210.6,72.6L210.6,72.6z"/>
			</g>
			<g>
				<path class="st14" d="M207.5,73.9c0,0.4-0.5,0.3-0.8,0.2c-0.4-0.1-0.6-0.5-0.8-0.8c-0.5-0.9-0.3-1.9,0.7-2.2
					c0.7-0.2,1.5-0.1,2.2,0.1c0.7,0.2,1.4,0.5,1.9,1c0.3,0.3,0.9,0.2,1-0.3c0.3-1.6-1.7-2-2.9-2.1c-1.3-0.1-2.7,0.2-3.5,1.2
					c-0.9,1-0.5,2.9,0.5,3.6c0.5,0.3,1,0.4,1.6,0.3c0.5-0.1,0.7-0.6,0.4-1.1C207.7,73.6,207.5,73.7,207.5,73.9L207.5,73.9z"/>
			</g>
			<g>
				<path class="st14" d="M209.4,71c0.1,0.9,0.4,1.7,0.4,2.6c0,0.8,1.3,1,1.4,0.2c0.2-1.2-0.2-2.3-1-3.2c-0.5-0.6-1.4,0.1-1.3,0.7
					c0.1,0.6,0.5,1,0.7,1.5c0.2,0.4,0.1,0.6,0.3,1c0.1-0.3,0.2-0.7,0.3-1c0,0,0,0,0,0c-0.4,0.2-0.5,0.9-0.2,1.2l0,0
					c0.3,0.3,0.8,0.3,1.1,0c0.4-0.4,0.2-1,0.1-1.4c-0.2-0.6-0.7-1-0.9-1.6c-0.4,0.2-0.8,0.5-1.3,0.7c0.5,0.5,0.6,1.3,0.6,2
					c0.5-0.1,1-0.1,1.4-0.2c-0.2-0.9-0.7-2-1.5-2.6C209.6,70.7,209.4,70.8,209.4,71L209.4,71z"/>
			</g>
			<g>
				<path class="st14" d="M214,76.2c0.6-1,0-2.4-0.5-3.3c-0.3-0.6-0.8-1.1-1.3-1.5c-0.5-0.5-1.2-1-1.9-1c-0.3,0-0.6,0.2-0.6,0.5
					c-0.1,0.4,0.2,0.6,0.4,0.8c0.3,0.2,0.6,0.3,0.9,0.5c0.3,0.2,0.6,0.5,0.9,0.7c0.9,0.9,1.7,1.9,1.8,3.2
					C213.6,76.3,213.9,76.3,214,76.2L214,76.2z"/>
			</g>
			<g>
				<path class="st14" d="M213.3,73.6c-0.2-0.6-0.8-1-1.4-1.2c-0.3-0.1-0.8-0.1-1,0.1c-0.4,0.3-0.5,0.5-0.6,0.9
					c-0.1,0.4,0.3,0.7,0.6,0.5c0.2-0.1,0.6-0.3,0.9-0.3c0.3,0,0.8,0.2,1.1,0.3C213,74,213.3,73.8,213.3,73.6L213.3,73.6z"/>
			</g>
			<g>
				<path class="st14" d="M210.5,74.2c0.3-0.2,0.5-0.4,0.9-0.5c0.3-0.2,0.7-0.1,1-0.1c0.7,0,0.7-1.1,0-1.1c-0.5,0-1,0.1-1.3,0.4
					c-0.3,0.3-0.5,0.7-0.7,1.1C210.2,74.1,210.4,74.3,210.5,74.2L210.5,74.2z"/>
			</g>
			<g>
				<path class="st14" d="M206.5,71c0.8-0.1,1.6,0.1,2.2,0.5c0.3,0.2,0.6,0.5,0.9,0.7c0.3,0.3,0.4,0.6,0.8,0.8
					c0.3,0.1,0.6,0,0.7-0.3c0.3-1-1-1.9-1.8-2.2c-0.9-0.4-2-0.4-2.9,0.2C206.3,70.8,206.3,71,206.5,71L206.5,71z"/>
			</g>
			<g>
				<path class="st14" d="M209.3,74.7c0.6-0.2,1.1-0.9,1.3-1.5c0.2-0.7,0.2-1.9-0.7-2.1c-0.2-0.1-0.6,0.1-0.6,0.3
					c-0.1,0.3,0,0.5,0.1,0.7c0.1,0.2,0.1,0.5,0.1,0.7c0,0.5,0,1.1-0.3,1.5C209.1,74.6,209.2,74.8,209.3,74.7L209.3,74.7z"/>
			</g>
			<g>
				<path class="st15" d="M208.4,72.8c0.1,0,0.3,0,0.4,0c0-0.1-0.1-0.1-0.1-0.2c0,0,0,0.1,0,0.1c0,0,0,0,0,0c0,0,0,0,0,0
					c0-0.1-0.1-0.1-0.2-0.1C208.4,72.6,208.4,72.7,208.4,72.8c0.1,0.1,0.2,0.2,0.3,0.2c0.1,0,0.2-0.2,0.2-0.3c0-0.1-0.1-0.2-0.2-0.2
					c-0.1,0-0.2,0.1-0.4,0.1C208.3,72.7,208.3,72.8,208.4,72.8L208.4,72.8z"/>
			</g>
			<g>
				<path class="st15" d="M211.5,74.5c0,0.1-0.1,0.1-0.1,0.1c-0.1,0.1,0.1,0.3,0.2,0.2c0.1,0,0.1-0.1,0.1-0.2
					C211.7,74.6,211.7,74.5,211.5,74.5c0,0-0.1,0-0.1,0.1c0,0.1,0,0.1,0,0.1c0,0.2,0.2,0.2,0.3,0.1c0,0,0-0.1,0-0.1c0-0.1,0,0,0,0.1
					c0,0-0.1,0-0.1,0.1l0,0c0,0-0.1,0-0.1,0c0,0,0,0,0,0c0-0.1-0.1-0.1-0.1-0.1c0,0,0,0,0,0c0.1,0,0.2,0,0.3,0c0,0,0,0,0-0.1
					s0-0.1,0-0.1C211.7,74.4,211.6,74.4,211.5,74.5L211.5,74.5z"/>
			</g>
			<g>
				<path class="st16" d="M208.1,74.5c-0.6,0.5-1.2,1.2-1.8,1.7c-0.1,0.1,0,0.2,0.1,0.1C207.1,75.9,207.6,75.2,208.1,74.5
					C208.3,74.6,208.2,74.5,208.1,74.5L208.1,74.5z"/>
			</g>
			<g>
				<path class="st16" d="M208.3,74.8c-0.5,0.7-1.2,1.2-1.7,1.8c-0.1,0.1,0.1,0.2,0.1,0.1c0.6-0.6,1.2-1.1,1.7-1.8
					C208.4,74.8,208.4,74.8,208.3,74.8L208.3,74.8z"/>
			</g>
			<g>
				<path class="st16" d="M209.5,75.9c-0.6,0.9-1.4,1.7-1.7,2.7c0,0.1,0.1,0.1,0.1,0.1C208.4,77.7,209.1,76.9,209.5,75.9
					C209.6,75.9,209.5,75.9,209.5,75.9L209.5,75.9z"/>
			</g>
			<g>
				<path class="st16" d="M209.1,75.9c-0.6,0.7-1.2,1.5-1.5,2.3c0,0.1,0.1,0.1,0.2,0.1c0.5-0.8,0.9-1.6,1.4-2.3
					C209.3,75.9,209.2,75.9,209.1,75.9L209.1,75.9z"/>
			</g>
			<g>
				<path class="st16" d="M208.3,74.6c0.5-0.4,0.9-1.1,0.9-1.7c0-0.1-0.1-0.1-0.1,0c-0.1,0.2-0.2,0.5-0.3,0.7
					C208.7,73.9,208.5,74.2,208.3,74.6C208.2,74.6,208.3,74.6,208.3,74.6L208.3,74.6z"/>
			</g>
			<g>
				<path class="st16" d="M209.5,72.9c-0.1,0.8-0.6,1.4-1.1,2c-0.1,0.1,0,0.1,0.1,0.1c0.6-0.6,1.1-1.2,1.1-2.1
					C209.6,72.9,209.5,72.9,209.5,72.9L209.5,72.9z"/>
			</g>
			<g>
				<path class="st16" d="M205.8,72.8c-0.1-0.4,0.2-0.8,0.4-1.1c0.3-0.3,0.6-0.4,1-0.4s0.8,0.1,1.2,0.2c0.2,0.1,0.4,0.3,0.5,0.5
					c0.1,0.2-0.1,0.5-0.1,0.7c0,0.1,0.1,0.2,0.2,0.1c0.5-0.4,0.7-0.8,0.3-1.3c-0.4-0.6-1.2-0.7-1.9-0.7c-0.5,0-1.1,0.1-1.4,0.6
					c-0.3,0.4-0.6,1-0.3,1.4C205.7,72.9,205.8,72.9,205.8,72.8L205.8,72.8z"/>
			</g>
			<g>
				<path class="st16" d="M211.8,77c1.2,0,1.7-1.3,1.6-2.3c0-0.5-0.5-1.2-1-1.3c-0.6-0.2-1.1,0.3-1.2,0.9c0,0.2,0.2,0.3,0.3,0.2
					c0.3-0.3,0.4-0.7,0.9-0.4c0.4,0.3,0.5,0.7,0.5,1.1C212.9,75.9,212.7,76.8,211.8,77C211.8,76.9,211.8,77,211.8,77L211.8,77z"/>
			</g>
			<g>
				<path class="st16" d="M204.8,76.7c0.5-0.2,0.9-0.5,1.3-0.8c0.1,0,0-0.1-0.1-0.1C205.6,76,205.2,76.3,204.8,76.7
					C204.7,76.6,204.8,76.7,204.8,76.7L204.8,76.7z"/>
			</g>
			<g>
				<path class="st11" d="M205.3,76.3c0.3-0.3,0.6-0.6,0.9-0.9c0,0,0-0.1-0.1-0.1C205.9,75.7,205.6,76,205.3,76.3
					C205.3,76.3,205.3,76.3,205.3,76.3L205.3,76.3z"/>
			</g>
			<g>
				<path class="st11" d="M208.1,76.9c-0.3,0.5-0.6,1-0.9,1.5c0,0,0,0.1,0.1,0C207.6,77.9,207.8,77.4,208.1,76.9
					C208.1,76.9,208.1,76.9,208.1,76.9L208.1,76.9z"/>
			</g>
			<g>
				<path class="st11" d="M206.1,75.8c-0.4,0.4-0.7,0.7-1.2,1c0,0,0,0.1,0,0.1C205.4,76.6,205.8,76.2,206.1,75.8
					C206.1,75.8,206.1,75.8,206.1,75.8L206.1,75.8z"/>
			</g>
			<g>
				<path class="st14" d="M206.7,75.7c-0.4,0.5-0.9,0.8-1.2,1.3c0,0.1,0,0.1,0.1,0.1C206,76.6,206.4,76.2,206.7,75.7
					C206.8,75.7,206.7,75.6,206.7,75.7L206.7,75.7z"/>
			</g>
			<g>
				<path class="st14" d="M206.5,76.3c-0.2,0.3-0.6,0.4-0.7,0.8c0,0.1,0.1,0.1,0.1,0C206.1,76.8,206.4,76.6,206.5,76.3
					C206.6,76.3,206.6,76.2,206.5,76.3L206.5,76.3z"/>
			</g>
			<g>
				<path class="st14" d="M206.5,76.8c-0.2,0.2-0.4,0.3-0.5,0.5c0,0,0,0.1,0.1,0C206.2,77.1,206.4,77,206.5,76.8
					C206.6,76.8,206.5,76.7,206.5,76.8L206.5,76.8z"/>
			</g>
			<g>
				<path class="st14" d="M207.8,76.2c0.3-0.3,0.6-0.5,0.8-0.9c0.3-0.4,0.4-0.9,0.5-1.4c0.2-0.8,0.3-1.5,0-2.3c-0.3-0.7-1-1-1.7-1.2
					c-0.7-0.2-1.5-0.1-1.9,0.6c-0.1,0.1,0.1,0.4,0.2,0.2c1-0.7,2.6-0.1,2.9,1c0.2,0.6-0.1,1.5-0.3,2.1c-0.1,0.4-0.3,0.7-0.4,1
					c-0.1,0.3-0.3,0.4-0.4,0.7C207.6,76.2,207.8,76.3,207.8,76.2L207.8,76.2z"/>
			</g>
			<g>
				<path class="st14" d="M208.8,70.9c0.5,0.5,0.6,1.2,0.6,1.8c0,0.5,0.1,1.3-0.3,1.7c0.2,0.1,0.3,0.2,0.5,0.3
					c0.2-1.3,0.6-2.7-0.1-3.9c-0.2-0.3-0.7-0.1-0.5,0.3c0.5,1.1,0.2,2.3,0,3.5c-0.1,0.3,0.3,0.5,0.5,0.3c0.5-0.5,0.5-1.4,0.5-2.1
					c0-0.8-0.3-1.6-1-2C208.8,70.6,208.6,70.8,208.8,70.9L208.8,70.9z"/>
			</g>
			<g>
				<path class="st14" d="M208.7,71C208.7,71,208.7,70.9,208.7,71C208.7,71,208.7,71,208.7,71c0.1,0.1,0.1,0.2,0.2,0.2
					c0.1,0.1,0.1,0.1,0.1,0.1c0,0,0,0.1,0.1,0.1c0,0,0.1,0.1,0,0.1c0.1-0.1,0.3-0.2,0.4-0.2c-0.1-0.1-0.2-0.2-0.3-0.3
					c0,0.2-0.1,0.3-0.1,0.5c0.1,0,0.1-0.1,0.2-0.1c0.1-0.1,0.1-0.2,0-0.3c0,0,0,0-0.1-0.1c-0.1-0.1-0.3-0.1-0.4,0
					c-0.1,0.1-0.1,0.4,0.1,0.4c0.1,0.1,0.3,0.2,0.4,0.1c0.2,0,0.3-0.3,0.1-0.4c-0.1-0.1-0.3-0.2-0.4-0.3c-0.1-0.1-0.2-0.2-0.4-0.1
					C208.5,70.7,208.6,71,208.7,71L208.7,71z"/>
			</g>
			<g>
				<path class="st14" d="M213,77.3c0.6-0.3,1.1-1.1,1.1-1.8c0-0.1-0.2-0.2-0.2-0.1c-0.2,0.2-0.2,0.5-0.3,0.8
					c-0.1,0.4-0.3,0.7-0.7,1C212.9,77.2,212.9,77.3,213,77.3L213,77.3z"/>
			</g>
			<g>
				<path class="st14" d="M213.1,77.1c0.5-0.7,0.7-1.2,0.6-2c-0.1-0.7-0.3-1.4-1-1.6c-0.6-0.2-1.2-0.1-1.7,0.3
					c-0.5,0.4-1,0.9-1.3,1.4c-0.1,0.2,0.1,0.4,0.3,0.3c0.8-0.4,1-1.5,2-1.6c0.7-0.1,0.9,0.5,1.1,1.1c0.2,0.7,0.2,1.4-0.2,2.1
					C213,77.1,213.1,77.1,213.1,77.1L213.1,77.1z"/>
			</g>
			<g>
				<path class="st14" d="M210,75.7c0.5-0.5,1-1,1.5-1.4c0.4-0.2,0.7-0.3,1.1-0.2c0.3,0.1,0.6,0.3,0.9,0.5c0.2,0.1,0.3-0.2,0.2-0.3
					c-0.4-0.8-1.4-1-2.1-0.6c-0.8,0.4-1.2,1.3-1.7,2C209.9,75.7,210,75.8,210,75.7L210,75.7z"/>
			</g>
			<g>
				<path class="st14" d="M212.1,73.8c0.3,0.2,0.7,0.3,1,0.5c0.3,0.2,0.6,0.5,1,0.6c0.1,0.1,0.2-0.1,0.2-0.2
					c-0.4-0.6-1.4-1.1-2.1-1.1C212,73.7,212,73.8,212.1,73.8L212.1,73.8z"/>
			</g>
		</g>
		<g>
			<path class="st14" d="M210.6,75.8c-1,0.9,0.2,1.8,1.2,2.1c0.7,0.2,1.3-0.2,1.7-0.7c0.6-0.6,0.7-1.3,0.6-2.1
				c0-0.3-0.3-0.3-0.5-0.1c-0.3,0.4-0.2,0.8-0.3,1.2c-0.1,0.4-0.6,1-1,1.2c-0.4,0.2-0.9,0-1.2-0.2c-0.5-0.2-0.7-0.6-0.4-1.2
				C210.8,75.8,210.6,75.7,210.6,75.8L210.6,75.8z"/>
		</g>
	</g>
	<g>
		<g>
			<path class="st10" d="M254.8,78.5c0.3-0.1,0.7-0.3,1-0.2c0.6,0.1,1.5,1.4,1.7,1.9c0.1,0.2,0.5,0.3,0.6,0.2
				c1.3-0.4,2.5-1.7,3.5-2.7c0.1-0.1,0.2-0.2,0.2-0.4c0-0.1-0.1-0.2-0.2-0.3c-0.5-0.4-1-0.9-1.5-1.3c-0.1-0.1-0.3-0.3-0.2-0.5
				c0-0.1,0.1-0.2,0.2-0.2c0.6-0.5,1.1-1.3,1.2-2.1c0.1-0.8-0.2-1.7-0.7-2.3c-0.4-0.4-1-0.7-1.5-0.9c-1-0.3-2.6-0.1-3.5,0.3
				c-0.5,0.2-1,0.5-1.4,0.9c-1.7,1.4-2.5,2.9-2.8,5c-0.1,0.5-0.1,1,0.2,1.5c0.2,0.3,0.4,0.6,0.7,0.8c0.2,0.2,0.5,0.4,0.8,0.5
				C253.6,78.9,254.2,78.7,254.8,78.5z"/>
			<g>
				<path class="st11" d="M259.4,73.7c0,0.1,0.1,0.2,0.2,0.2c0.4-0.3,0.7-0.6,0.6-1.1c-0.1-0.4-0.5-0.7-0.8-0.9
					c-0.5-0.2-1-0.3-1.5-0.1c-0.5,0.1-1.2,0.4-1.1,1c0,0.2,0.2,0.5,0.5,0.5c0.4,0,0.5-0.3,0.9-0.4c0.3-0.1,0.5-0.1,0.8-0.1
					C259.4,72.9,259.6,73.2,259.4,73.7L259.4,73.7z"/>
			</g>
			<g>
				<path class="st11" d="M255,76.9c0.1-0.2-0.1-0.3-0.2-0.3c-0.4,0.1-0.6-0.2-0.7-0.6c-0.1-0.3,0.1-0.6,0.3-0.9
					c0.4-0.6-0.5-1.3-1-0.7c-0.5,0.6-0.7,1.7-0.1,2.3C253.8,77.3,254.5,77.5,255,76.9L255,76.9z"/>
			</g>
			<g>
				<g>
					<defs>
						<path id="SVGID_21_" d="M254.8,78.5c0.3-0.1,0.7-0.3,1-0.2c0.6,0.1,1.5,1.4,1.7,1.9c0.1,0.2,0.5,0.3,0.6,0.2
							c1.3-0.4,2.5-1.7,3.5-2.7c0.1-0.1,0.2-0.2,0.2-0.4c0-0.1-0.1-0.2-0.2-0.3c-0.5-0.4-1-0.9-1.5-1.3c-0.1-0.1-0.3-0.3-0.2-0.5
							c0-0.1,0.1-0.2,0.2-0.2c0.6-0.5,1.1-1.3,1.2-2.1c0.1-0.8-0.2-1.7-0.7-2.3c-0.4-0.4-1-0.7-1.5-0.9c-1-0.3-2.6-0.1-3.5,0.3
							c-0.5,0.2-1,0.5-1.4,0.9c-1.7,1.4-2.5,2.9-2.8,5c-0.1,0.5-0.1,1,0.2,1.5c0.2,0.3,0.4,0.6,0.7,0.8c0.2,0.2,0.5,0.4,0.8,0.5
							C253.6,78.9,254.2,78.7,254.8,78.5z"/>
					</defs>
					<clipPath id="SVGID_22_">
						<use xlink:href="#SVGID_21_"  style="overflow:visible;"/>
					</clipPath>
					<g class="st25">
						<path class="st11" d="M251.3,76.4c-0.1-0.2-0.3-0.1-0.3,0.1c0.1,0.7,0.3,1.3,0.7,1.8c0.5,0.6,1.2,0.9,1.9,1
							c0.4,0.1,0.9,0.1,1.3,0c0.2-0.1,0.4-0.1,0.6-0.2c0.1,0,0.2-0.1,0.2-0.1c-0.2-0.1-0.3-0.1-0.1,0c0.3,0.3,0.5,0.7,0.7,1
							c0.2,0.4,0.4,0.9,0.9,1.1c0.4,0.2,0.9-0.1,0.9-0.5c0.1-0.5-0.3-0.9-0.5-1.3c-0.2-0.4-0.4-0.8-0.7-1.1
							c-0.6-0.6-1.1-0.7-1.9-0.4c-0.8,0.4-1.7,0.8-2.5,0.3C251.9,77.7,251.5,77,251.3,76.4L251.3,76.4z"/>
					</g>
				</g>
				<g>
					<defs>
						<path id="SVGID_23_" d="M254.8,78.5c0.3-0.1,0.7-0.3,1-0.2c0.6,0.1,1.5,1.4,1.7,1.9c0.1,0.2,0.5,0.3,0.6,0.2
							c1.3-0.4,2.5-1.7,3.5-2.7c0.1-0.1,0.2-0.2,0.2-0.4c0-0.1-0.1-0.2-0.2-0.3c-0.5-0.4-1-0.9-1.5-1.3c-0.1-0.1-0.3-0.3-0.2-0.5
							c0-0.1,0.1-0.2,0.2-0.2c0.6-0.5,1.1-1.3,1.2-2.1c0.1-0.8-0.2-1.7-0.7-2.3c-0.4-0.4-1-0.7-1.5-0.9c-1-0.3-2.6-0.1-3.5,0.3
							c-0.5,0.2-1,0.5-1.4,0.9c-1.7,1.4-2.5,2.9-2.8,5c-0.1,0.5-0.1,1,0.2,1.5c0.2,0.3,0.4,0.6,0.7,0.8c0.2,0.2,0.5,0.4,0.8,0.5
							C253.6,78.9,254.2,78.7,254.8,78.5z"/>
					</defs>
					<clipPath id="SVGID_24_">
						<use xlink:href="#SVGID_23_"  style="overflow:visible;"/>
					</clipPath>
					<g class="st26">
						<path class="st11" d="M262.6,77.5c0.1,0.1,0.1,0.1,0.2,0c0,0,0.1,0,0.1,0c0.2-0.1,0.2-0.3,0.1-0.4c-0.5-0.4-1.1,0-1.6,0.2
							c-0.6,0.3-1.2,0.6-1.8,1c-0.5,0.4-1.1,0.9-1.3,1.5c-0.2,0.4-0.4,1-0.2,1.5c0.2,0.5,0.7,0.7,1.2,0.5c0.3-0.2,0.4-0.4,0.5-0.6
							c0.1-0.2,0-0.4,0.1-0.6c0.1-0.4,0.5-0.9,0.9-1.2c0.4-0.4,0.9-0.7,1.4-1.1c0.3-0.3,0.9-0.5,1.1-0.9
							C262.8,77.4,262.7,77.4,262.6,77.5C262.6,77.5,262.6,77.5,262.6,77.5L262.6,77.5z"/>
					</g>
				</g>
			</g>
			<g>
				<path class="st14" d="M255.3,72.9c-0.4-0.2-0.7,0.1-0.7,0.4c-0.1,0.6,0.2,1.2,0.5,1.7c0.2,0.5,0.5,0.9,0.9,1.4
					c0.4,0.5,0.8,1,1.2,1.4c0.4,0.4,1.2,0.4,1.6,0c0.4-0.4,0.5-1.2,0-1.6c-0.1-0.1-0.2-0.2-0.3-0.3c0.1,0.1,0.1,0.1,0,0
					s-0.2-0.2-0.3-0.3c-0.3-0.2-0.5-0.4-0.7-0.6c-0.4-0.4-0.7-0.8-1.1-1.2C256,73.5,255.7,73.2,255.3,72.9L255.3,72.9z"/>
			</g>
			<g>
				<path class="st14" d="M258.4,74.2c0-0.2-0.2-0.2-0.3-0.1c-0.2,0.5-0.1,1,0.4,1.1c0.5,0.1,1.1,0,1.6-0.3c1.1-0.8,1.4-2.6,0.5-3.6
					c-0.9-1-2.2-1.3-3.5-1.2c-1.2,0.1-3.2,0.5-2.9,2.1c0.1,0.4,0.7,0.5,1,0.3c0.5-0.5,1.2-0.8,1.9-1c0.7-0.2,1.5-0.3,2.2-0.1
					c1.1,0.3,1.2,1.3,0.7,2.2c-0.2,0.3-0.4,0.7-0.8,0.8C258.9,74.5,258.4,74.6,258.4,74.2L258.4,74.2z"/>
			</g>
			<g>
				<path class="st14" d="M256.5,71.4c0-0.2-0.2-0.3-0.3-0.2c-0.8,0.6-1.3,1.7-1.5,2.6c0.5,0.1,1,0.1,1.4,0.2
					c-0.1-0.7,0.1-1.4,0.6-2c-0.4-0.2-0.8-0.5-1.3-0.7c-0.1,0.6-0.7,1-0.9,1.6c-0.1,0.5-0.3,1,0.1,1.4c0.3,0.3,0.8,0.3,1.1,0l0,0
					c0.4-0.3,0.3-1-0.2-1.2c0,0,0,0,0,0c0.1,0.4,0.2,0.7,0.3,1c0.2-0.4,0.1-0.6,0.3-1c0.3-0.5,0.6-0.9,0.7-1.5
					c0.1-0.7-0.7-1.3-1.3-0.7c-0.8,0.9-1.1,2-1,3.2c0.1,0.8,1.5,0.6,1.4-0.2C256.1,73.1,256.4,72.2,256.5,71.4L256.5,71.4z"/>
			</g>
			<g>
				<path class="st14" d="M251.9,76.5c0.1,0.2,0.4,0.1,0.4-0.1c0-1.3,0.8-2.3,1.8-3.2c0.3-0.3,0.6-0.5,0.9-0.7
					c0.3-0.2,0.6-0.3,0.9-0.5c0.3-0.2,0.5-0.5,0.4-0.8c-0.1-0.3-0.3-0.5-0.6-0.5c-0.7,0-1.4,0.5-1.9,1c-0.5,0.4-0.9,1-1.3,1.5
					C251.9,74.2,251.3,75.5,251.9,76.5L251.9,76.5z"/>
			</g>
			<g>
				<path class="st14" d="M252.6,73.9c-0.1,0.3,0.2,0.5,0.5,0.4c0.3-0.2,0.8-0.3,1.1-0.3c0.3,0,0.6,0.2,0.9,0.3
					c0.3,0.2,0.8-0.1,0.6-0.5c-0.1-0.4-0.3-0.7-0.6-0.9c-0.3-0.2-0.7-0.2-1-0.1C253.5,72.9,252.8,73.3,252.6,73.9L252.6,73.9z"/>
			</g>
			<g>
				<path class="st14" d="M255.3,74.6c0.2,0.1,0.3-0.1,0.2-0.2c-0.2-0.4-0.4-0.8-0.7-1.1c-0.4-0.3-0.9-0.4-1.3-0.4
					c-0.7-0.1-0.7,1.1,0,1.1c0.3,0,0.7-0.1,1,0.1S255.1,74.4,255.3,74.6L255.3,74.6z"/>
			</g>
			<g>
				<path class="st14" d="M259.4,71.3c0.2,0,0.2-0.2,0.1-0.3c-0.8-0.5-1.9-0.5-2.9-0.2c-0.8,0.3-2.1,1.2-1.8,2.2
					c0.1,0.3,0.4,0.4,0.7,0.3c0.4-0.2,0.5-0.5,0.8-0.8c0.3-0.3,0.5-0.5,0.9-0.7C257.9,71.5,258.6,71.3,259.4,71.3L259.4,71.3z"/>
			</g>
			<g>
				<path class="st14" d="M256.6,75.1c0.1,0.1,0.2-0.1,0.2-0.2c-0.3-0.5-0.3-1-0.3-1.5c0-0.2,0-0.5,0.1-0.7c0.1-0.3,0.2-0.5,0.1-0.7
					c-0.1-0.3-0.4-0.4-0.6-0.3c-0.9,0.2-1,1.4-0.7,2.1C255.4,74.2,256,74.8,256.6,75.1L256.6,75.1z"/>
			</g>
			<g>
				<path class="st15" d="M257.5,73.2c0.1,0,0.1-0.1,0-0.2c-0.1,0-0.2-0.1-0.4-0.1c-0.1,0-0.2,0.1-0.2,0.2c0,0.1,0.1,0.2,0.2,0.3
					C257.3,73.4,257.4,73.3,257.5,73.2c0-0.1,0-0.2-0.1-0.2c-0.1,0-0.1,0-0.2,0.1c0,0,0,0,0,0c0,0,0.1,0,0,0c0,0,0-0.1,0-0.1
					c0,0.1-0.1,0.1-0.1,0.2C257.2,73.2,257.4,73.2,257.5,73.2L257.5,73.2z"/>
			</g>
			<g>
				<path class="st15" d="M254.4,74.8c0-0.1-0.1-0.1-0.2,0.1c0,0,0,0.1,0,0.1c0,0,0,0,0,0.1c0.1,0,0.2,0,0.3,0c0,0,0,0,0,0
					c0,0-0.1,0.1-0.1,0.1c0,0,0,0,0,0c0,0-0.1,0-0.1,0l0,0c0,0-0.1,0-0.1-0.1c-0.1-0.1-0.1-0.1,0-0.1c0,0,0,0,0,0.1
					c0.1,0.1,0.3,0.1,0.3-0.1c0-0.1,0-0.1,0-0.1C254.5,74.8,254.4,74.8,254.4,74.8c-0.2,0-0.2,0.1-0.2,0.2c0,0.1,0,0.1,0.1,0.2
					c0.1,0.1,0.3-0.1,0.2-0.2C254.4,74.9,254.4,74.9,254.4,74.8L254.4,74.8z"/>
			</g>
			<g>
				<path class="st16" d="M257.8,74.9C257.7,74.8,257.6,74.9,257.8,74.9c0.5,0.7,1,1.4,1.7,1.9c0.1,0.1,0.2-0.1,0.1-0.1
					C259,76.1,258.4,75.4,257.8,74.9L257.8,74.9z"/>
			</g>
			<g>
				<path class="st16" d="M257.6,75.2c0-0.1-0.1,0-0.1,0.1c0.4,0.7,1.1,1.3,1.7,1.8c0.1,0.1,0.2,0,0.1-0.1
					C258.7,76.3,258.1,75.8,257.6,75.2L257.6,75.2z"/>
			</g>
			<g>
				<path class="st16" d="M256.4,76.3C256.4,76.2,256.3,76.2,256.4,76.3c0.4,1,1.1,1.8,1.6,2.8c0,0.1,0.2,0,0.1-0.1
					C257.8,78,256.9,77.1,256.4,76.3L256.4,76.3z"/>
			</g>
			<g>
				<path class="st16" d="M256.8,76.3c0-0.1-0.1,0-0.1,0.1c0.5,0.7,1,1.5,1.4,2.3c0.1,0.1,0.2,0,0.2-0.1
					C258,77.7,257.4,77,256.8,76.3L256.8,76.3z"/>
			</g>
			<g>
				<path class="st16" d="M257.6,75C257.6,75,257.7,74.9,257.6,75c-0.2-0.4-0.4-0.7-0.5-1.1c-0.1-0.2-0.2-0.5-0.3-0.7
					c0-0.1-0.1,0-0.1,0C256.7,73.9,257.1,74.5,257.6,75L257.6,75z"/>
			</g>
			<g>
				<path class="st16" d="M256.4,73.3c0-0.1-0.1-0.1-0.1,0c0.1,0.8,0.5,1.5,1.1,2.1c0.1,0.1,0.1,0,0.1-0.1
					C257,74.7,256.5,74.1,256.4,73.3L256.4,73.3z"/>
			</g>
			<g>
				<path class="st16" d="M260.1,73.2c0,0.1,0.1,0.1,0.1,0c0.2-0.5,0-1-0.3-1.4c-0.3-0.5-0.9-0.6-1.4-0.6c-0.7,0-1.4,0.1-1.9,0.7
					c-0.4,0.5-0.2,1,0.3,1.3c0.1,0.1,0.2,0,0.2-0.1c-0.1-0.2-0.3-0.4-0.1-0.7c0.1-0.2,0.3-0.4,0.5-0.5c0.4-0.2,0.8-0.2,1.2-0.2
					c0.4,0,0.8,0.1,1,0.4C259.9,72.4,260.2,72.8,260.1,73.2L260.1,73.2z"/>
			</g>
			<g>
				<path class="st16" d="M254.1,77.3C254.1,77.3,254.1,77.3,254.1,77.3c-0.9-0.2-1.1-1.1-1.1-1.9c0-0.4,0.1-0.9,0.5-1.1
					c0.5-0.3,0.6,0.2,0.9,0.4c0.2,0.1,0.3,0,0.3-0.2c-0.1-0.6-0.6-1-1.2-0.9c-0.5,0.2-1,0.8-1,1.3C252.4,76.1,252.9,77.4,254.1,77.3
					L254.1,77.3z"/>
			</g>
			<g>
				<path class="st16" d="M261.1,77C261.1,77,261.2,77,261.1,77c-0.4-0.3-0.8-0.6-1.2-0.9c0,0-0.1,0.1-0.1,0.1
					C260.2,76.5,260.6,76.8,261.1,77L261.1,77z"/>
			</g>
			<g>
				<path class="st11" d="M260.6,76.7C260.6,76.7,260.6,76.7,260.6,76.7c-0.3-0.3-0.6-0.6-0.9-0.9c0,0-0.1,0-0.1,0.1
					C259.9,76.1,260.2,76.4,260.6,76.7L260.6,76.7z"/>
			</g>
			<g>
				<path class="st11" d="M257.8,77.2C257.8,77.2,257.8,77.2,257.8,77.2c0.2,0.5,0.5,1,0.8,1.5c0,0,0.1,0,0.1,0
					C258.4,78.2,258.1,77.7,257.8,77.2L257.8,77.2z"/>
			</g>
			<g>
				<path class="st11" d="M259.8,76.1C259.8,76.1,259.8,76.2,259.8,76.1c0.3,0.4,0.7,0.8,1.1,1c0,0,0.1,0,0-0.1
					C260.6,76.8,260.2,76.5,259.8,76.1L259.8,76.1z"/>
			</g>
			<g>
				<path class="st14" d="M259.2,76C259.2,76,259.1,76,259.2,76c0.3,0.5,0.7,0.9,1.2,1.3c0.1,0,0.1,0,0.1-0.1
					C260.1,76.8,259.6,76.5,259.2,76L259.2,76z"/>
			</g>
			<g>
				<path class="st14" d="M259.3,76.6C259.3,76.6,259.3,76.6,259.3,76.6c0.2,0.3,0.5,0.5,0.7,0.8c0,0,0.1,0,0.1,0
					C260,77.1,259.6,76.9,259.3,76.6L259.3,76.6z"/>
			</g>
			<g>
				<path class="st14" d="M259.4,77.1C259.3,77.1,259.3,77.1,259.4,77.1c0.1,0.2,0.3,0.4,0.5,0.6c0,0,0.1,0,0.1,0
					C259.8,77.5,259.6,77.3,259.4,77.1L259.4,77.1z"/>
			</g>
			<g>
				<path class="st14" d="M258.1,76.6c0.1,0.1,0.2,0,0.2-0.1c-0.1-0.3-0.3-0.4-0.4-0.7c-0.2-0.3-0.3-0.7-0.4-1
					c-0.2-0.6-0.5-1.4-0.3-2.1c0.3-1.2,1.9-1.7,2.9-1c0.2,0.1,0.3-0.1,0.2-0.2c-0.4-0.6-1.2-0.8-1.9-0.6c-0.6,0.2-1.4,0.5-1.7,1.2
					c-0.3,0.8-0.2,1.5,0,2.3c0.1,0.5,0.3,1,0.5,1.4C257.5,76.1,257.8,76.3,258.1,76.6L258.1,76.6z"/>
			</g>
			<g>
				<path class="st14" d="M257.1,71.2c0.1-0.1,0-0.3-0.2-0.2c-0.7,0.4-0.9,1.3-1,2c0,0.7-0.1,1.6,0.5,2.1c0.2,0.2,0.5,0,0.5-0.3
					c-0.2-1.1-0.5-2.4,0-3.5c0.2-0.3-0.3-0.6-0.5-0.3c-0.6,1.2-0.3,2.6-0.1,3.9c0.2-0.1,0.3-0.2,0.5-0.3c-0.4-0.4-0.3-1.2-0.3-1.7
					C256.6,72.5,256.7,71.7,257.1,71.2L257.1,71.2z"/>
			</g>
			<g>
				<path class="st14" d="M257.2,71.3c0.2,0,0.2-0.2,0-0.2c-0.1,0-0.3,0.1-0.4,0.1c-0.1,0.1-0.2,0.2-0.4,0.3
					c-0.2,0.1-0.1,0.4,0.1,0.4c0.2,0,0.3-0.1,0.4-0.1c0.2-0.1,0.2-0.3,0.1-0.4c-0.1-0.1-0.3-0.1-0.4,0c0,0.1,0,0-0.1,0.1
					c-0.1,0.1-0.1,0.2,0,0.3c0.1,0,0.1,0.1,0.2,0.1c0-0.2-0.1-0.3-0.1-0.5c-0.1,0.1-0.3,0.1-0.3,0.3c0.1,0.1,0.3,0.2,0.4,0.2
					c0,0,0-0.1,0-0.1c0,0,0.1-0.1,0.1-0.1c0.1-0.1,0.1-0.1,0.1-0.1C257.1,71.5,257.1,71.4,257.2,71.3
					C257.2,71.4,257.2,71.3,257.2,71.3C257.2,71.3,257.2,71.3,257.2,71.3L257.2,71.3z"/>
			</g>
			<g>
				<path class="st14" d="M252.9,77.6c0.1,0.1,0.2-0.1,0.1-0.1c-0.4-0.2-0.6-0.6-0.7-1c-0.1-0.3-0.1-0.5-0.3-0.8
					c-0.1-0.1-0.2-0.1-0.2,0.1C251.7,76.6,252.2,77.3,252.9,77.6L252.9,77.6z"/>
			</g>
			<g>
				<path class="st14" d="M252.7,77.4c0.1,0.1,0.2,0,0.1-0.1c-0.4-0.7-0.4-1.3-0.2-2.1c0.2-0.5,0.4-1.1,1.1-1.1c1,0.1,1.2,1.2,2,1.6
					c0.2,0.1,0.4-0.1,0.3-0.3c-0.3-0.5-0.8-1.1-1.3-1.4c-0.5-0.4-1.1-0.5-1.7-0.3c-0.7,0.2-0.9,1-1,1.6
					C252,76.2,252.3,76.8,252.7,77.4L252.7,77.4z"/>
			</g>
			<g>
				<path class="st14" d="M255.9,76.1c0.1,0.1,0.1,0,0.1-0.1c-0.5-0.7-0.9-1.6-1.7-2c-0.7-0.3-1.8-0.1-2.1,0.6
					c-0.1,0.1,0.1,0.4,0.2,0.3c0.3-0.1,0.6-0.4,0.9-0.5c0.4-0.1,0.8,0,1.1,0.2C254.9,75.1,255.4,75.6,255.9,76.1L255.9,76.1z"/>
			</g>
			<g>
				<path class="st14" d="M253.8,74.2c0.1-0.1,0-0.2-0.1-0.2c-0.7,0-1.7,0.5-2.1,1.1c-0.1,0.1,0,0.3,0.2,0.2c0.4-0.1,0.6-0.4,1-0.6
					C253.2,74.5,253.5,74.4,253.8,74.2L253.8,74.2z"/>
			</g>
		</g>
		<g>
			<path class="st14" d="M255.3,76.1c-0.1-0.1-0.2,0-0.2,0.1c0.3,0.5,0.1,0.9-0.4,1.2c-0.3,0.2-0.8,0.3-1.2,0.2
				c-0.4-0.2-0.9-0.7-1-1.2c-0.1-0.4,0-0.8-0.3-1.2c-0.1-0.2-0.4-0.1-0.5,0.1c-0.1,0.8,0.1,1.5,0.6,2.1c0.4,0.5,1,0.9,1.7,0.7
				C255.1,78,256.4,77,255.3,76.1L255.3,76.1z"/>
		</g>
	</g>
	<g>
		<g>
			<path class="st10" d="M157.5,57.1c0-0.3-0.1-0.6-0.2-0.9c-0.1-0.3-0.3-0.6-0.6-0.9c-0.4-0.3-0.9-0.5-1.4-0.5
				c-2.1-0.3-3.8,0.2-5.6,1.4c-0.5,0.3-0.9,0.7-1.2,1.1c-0.6,0.8-1.2,2.3-1.2,3.3c0.1,0.6,0.2,1.2,0.5,1.7c0.4,0.7,1.2,1.2,2,1.3
				s1.7-0.1,2.3-0.6c0.1,0,0.2-0.1,0.3-0.1c0.2,0,0.3,0.2,0.4,0.3c0.3,0.6,0.6,1.2,0.9,1.8c0,0.1,0.1,0.2,0.2,0.2
				c0.1,0.1,0.3,0,0.4-0.1c1.2-0.7,2.7-1.5,3.5-2.7c0.1-0.2,0.1-0.5-0.1-0.7c-0.4-0.4-1.5-1.6-1.4-2.2c0.1-0.3,0.3-0.6,0.5-0.9
				C157.3,58.2,157.6,57.7,157.5,57.1z"/>
			<g>
				<path class="st11" d="M151.1,62c-0.6,0.1-0.8-0.2-0.7-0.8c0-0.3,0.1-0.5,0.3-0.8c0.2-0.3,0.5-0.4,0.6-0.7
					c0.1-0.3-0.1-0.5-0.3-0.6c-0.6-0.2-1,0.4-1.3,0.8c-0.2,0.4-0.3,1-0.3,1.5c0.1,0.4,0.3,0.8,0.6,1c0.4,0.2,0.9,0,1.2-0.3
					C151.2,62.1,151.2,62,151.1,62L151.1,62z"/>
			</g>
			<g>
				<path class="st11" d="M155.3,58.5c0.7-0.3,0.7-1.1,0.3-1.6c-0.5-0.7-1.5-0.8-2.3-0.5c-0.7,0.3-0.2,1.4,0.5,1.1
					c0.3-0.1,0.6-0.2,0.9-0.1c0.3,0.1,0.6,0.5,0.4,0.8C155,58.4,155.1,58.6,155.3,58.5L155.3,58.5z"/>
			</g>
			<g>
				<g>
					<defs>
						<path id="SVGID_25_" d="M157.5,57.1c0-0.3-0.1-0.6-0.2-0.9c-0.1-0.3-0.3-0.6-0.6-0.9c-0.4-0.3-0.9-0.5-1.4-0.5
							c-2.1-0.3-3.8,0.2-5.6,1.4c-0.5,0.3-0.9,0.7-1.2,1.1c-0.6,0.8-1.2,2.3-1.2,3.3c0.1,0.6,0.2,1.2,0.5,1.7c0.4,0.7,1.2,1.2,2,1.3
							s1.7-0.1,2.3-0.6c0.1,0,0.2-0.1,0.3-0.1c0.2,0,0.3,0.2,0.4,0.3c0.3,0.6,0.6,1.2,0.9,1.8c0,0.1,0.1,0.2,0.2,0.2
							c0.1,0.1,0.3,0,0.4-0.1c1.2-0.7,2.7-1.5,3.5-2.7c0.1-0.2,0.1-0.5-0.1-0.7c-0.4-0.4-1.5-1.6-1.4-2.2c0.1-0.3,0.3-0.6,0.5-0.9
							C157.3,58.2,157.6,57.7,157.5,57.1z"/>
					</defs>
					<clipPath id="SVGID_26_">
						<use xlink:href="#SVGID_25_"  style="overflow:visible;"/>
					</clipPath>
					<g class="st27">
						<path class="st11" d="M155.8,54.8c0.5,0.4,1.1,1,1.3,1.6c0.3,0.9-0.4,1.7-0.9,2.3c-0.5,0.7-0.6,1.2-0.1,1.9
							c0.2,0.4,0.6,0.7,0.9,1c0.3,0.3,0.7,0.8,1.2,0.9c0.5,0.1,0.9-0.3,0.7-0.8c-0.1-0.5-0.5-0.8-0.9-1.1c-0.3-0.3-0.6-0.6-0.8-1
							c0-0.1,0-0.1,0,0.1c0-0.1,0.1-0.1,0.1-0.2c0.1-0.2,0.3-0.4,0.4-0.6c0.2-0.4,0.3-0.8,0.3-1.2c0.1-0.7,0-1.5-0.5-2.1
							c-0.4-0.5-0.9-0.9-1.6-1.2C155.8,54.5,155.7,54.7,155.8,54.8L155.8,54.8z"/>
					</g>
				</g>
				<g>
					<defs>
						<path id="SVGID_27_" d="M157.5,57.1c0-0.3-0.1-0.6-0.2-0.9c-0.1-0.3-0.3-0.6-0.6-0.9c-0.4-0.3-0.9-0.5-1.4-0.5
							c-2.1-0.3-3.8,0.2-5.6,1.4c-0.5,0.3-0.9,0.7-1.2,1.1c-0.6,0.8-1.2,2.3-1.2,3.3c0.1,0.6,0.2,1.2,0.5,1.7c0.4,0.7,1.2,1.2,2,1.3
							s1.7-0.1,2.3-0.6c0.1,0,0.2-0.1,0.3-0.1c0.2,0,0.3,0.2,0.4,0.3c0.3,0.6,0.6,1.2,0.9,1.8c0,0.1,0.1,0.2,0.2,0.2
							c0.1,0.1,0.3,0,0.4-0.1c1.2-0.7,2.7-1.5,3.5-2.7c0.1-0.2,0.1-0.5-0.1-0.7c-0.4-0.4-1.5-1.6-1.4-2.2c0.1-0.3,0.3-0.6,0.5-0.9
							C157.3,58.2,157.6,57.7,157.5,57.1z"/>
					</defs>
					<clipPath id="SVGID_28_">
						<use xlink:href="#SVGID_27_"  style="overflow:visible;"/>
					</clipPath>
					<g class="st28">
						<path class="st11" d="M153.9,66.1C153.9,66,153.9,66,153.9,66.1c-0.1,0.1-0.1,0.2-0.2,0.3c0.4-0.1,0.8-0.5,1.1-0.8
							c0.5-0.4,0.9-0.8,1.4-1.1c0.4-0.3,0.9-0.5,1.3-0.5c0.2,0,0.4,0.1,0.6,0.1c0.3,0,0.5-0.1,0.7-0.3c0.4-0.4,0.3-0.9-0.2-1.2
							c-0.4-0.3-1-0.2-1.5-0.2c-0.6,0.1-1.3,0.5-1.8,0.9c-0.5,0.4-1,0.9-1.4,1.5c-0.3,0.4-0.9,0.9-0.6,1.5c0.1,0.2,0.3,0.2,0.4,0.1
							c0,0,0,0,0.1-0.1C153.9,66.2,153.9,66.1,153.9,66.1L153.9,66.1z"/>
					</g>
				</g>
			</g>
			<g>
				<path class="st14" d="M151.4,57.8c0.1,0.4,0.4,0.8,0.7,1.2c0.3,0.5,0.6,0.9,0.9,1.4c0.2,0.3,0.3,0.5,0.4,0.8
					c0.1,0.1,0.1,0.3,0.2,0.4c0.1,0.1,0.1,0.1,0,0c0.1,0.1,0.1,0.3,0.2,0.4c0.3,0.6,1,0.7,1.5,0.4c0.6-0.3,0.7-1,0.4-1.5
					s-0.7-1.1-1-1.5c-0.3-0.4-0.7-0.8-1.1-1.2c-0.4-0.4-0.9-0.8-1.5-0.9C151.6,57.1,151.2,57.4,151.4,57.8L151.4,57.8z"/>
			</g>
			<g>
				<path class="st14" d="M151.8,61.1c0.4,0.1,0.1,0.6,0,0.8c-0.2,0.4-0.7,0.5-1,0.6c-1,0.2-1.9-0.2-1.9-1.3c0-0.7,0.3-1.5,0.7-2.1
					c0.3-0.6,0.8-1.2,1.4-1.6c0.3-0.2,0.4-0.8,0-1c-1.5-0.7-2.4,1.1-2.8,2.3c-0.4,1.2-0.5,2.6,0.3,3.7c0.8,1.1,2.6,1.3,3.6,0.4
					c0.4-0.4,0.7-0.9,0.7-1.5c0-0.6-0.4-0.8-0.9-0.7C151.7,60.9,151.7,61.1,151.8,61.1L151.8,61.1z"/>
			</g>
			<g>
				<path class="st14" d="M149.5,58.6c0.9,0.1,1.8,0,2.6,0.3c0.8,0.2,1.3-1,0.6-1.3c-1.1-0.5-2.3-0.4-3.3,0.1
					c-0.7,0.4-0.3,1.3,0.4,1.4c0.6,0,1.1-0.2,1.6-0.3c0.4-0.1,0.6,0.1,1,0c-0.3-0.2-0.6-0.4-0.9-0.5c0,0,0,0,0,0
					c0.1,0.5,0.7,0.7,1.1,0.4l0,0c0.4-0.2,0.5-0.7,0.3-1c-0.3-0.5-0.9-0.5-1.3-0.5c-0.6,0-1.2,0.5-1.8,0.4c0.1,0.5,0.2,0.9,0.4,1.4
					c0.6-0.3,1.4-0.3,2.1-0.1c0.1-0.5,0.1-1,0.2-1.4c-1,0-2.1,0.2-2.9,0.8C149.3,58.3,149.4,58.6,149.5,58.6L149.5,58.6z"/>
			</g>
			<g>
				<path class="st14" d="M155.7,55.5c-0.8-0.9-2.3-0.6-3.3-0.4c-0.6,0.2-1.2,0.5-1.8,0.8c-0.6,0.4-1.3,0.9-1.4,1.6
					c-0.1,0.3,0.1,0.6,0.3,0.7c0.3,0.2,0.7,0,0.9-0.2c0.2-0.2,0.4-0.5,0.7-0.7c0.3-0.3,0.6-0.5,1-0.7c1.1-0.7,2.3-1.2,3.6-0.9
					C155.7,55.8,155.9,55.6,155.7,55.5L155.7,55.5z"/>
			</g>
			<g>
				<path class="st14" d="M153,55.5c-0.7,0-1.2,0.6-1.5,1.1c-0.2,0.2-0.3,0.7-0.2,1c0.2,0.4,0.4,0.6,0.7,0.8
					c0.3,0.2,0.7-0.1,0.7-0.5c0-0.2-0.1-0.6-0.1-0.9c0.1-0.3,0.4-0.7,0.6-1C153.4,55.8,153.3,55.5,153,55.5L153,55.5z"/>
			</g>
			<g>
				<path class="st14" d="M152.9,58.3c-0.1-0.3-0.2-0.6-0.3-1s0.1-0.7,0.2-1c0.2-0.7-0.9-1-1.1-0.3c-0.1,0.5-0.2,0.9,0,1.4
					c0.2,0.4,0.5,0.7,0.8,1C152.8,58.6,153,58.5,152.9,58.3L152.9,58.3z"/>
			</g>
			<g>
				<path class="st14" d="M148.8,61.4c0.1-0.8,0.5-1.5,1.1-2c0.3-0.3,0.6-0.5,0.9-0.6c0.3-0.2,0.7-0.2,1-0.5
					c0.2-0.3,0.2-0.6-0.1-0.8c-0.9-0.6-2.1,0.5-2.6,1.2c-0.6,0.8-0.9,1.9-0.6,2.8C148.5,61.5,148.7,61.5,148.8,61.4L148.8,61.4z"/>
			</g>
			<g>
				<path class="st14" d="M153.1,59.6c-0.1-0.6-0.6-1.3-1.1-1.7c-0.7-0.4-1.8-0.7-2.2,0.2c-0.1,0.2-0.1,0.6,0.2,0.7
					c0.2,0.1,0.5,0.1,0.7,0.1c0.2,0,0.5,0.1,0.7,0.1c0.5,0.1,1,0.3,1.4,0.7C153,59.8,153.1,59.7,153.1,59.6L153.1,59.6z"/>
			</g>
			<g>
				<path class="st15" d="M151,60c0.1-0.1,0.1-0.3,0.1-0.4c-0.1,0-0.2,0-0.2,0.1c0,0,0,0,0.1,0.1c0,0,0,0,0,0c0,0,0,0,0,0
					c-0.1,0-0.1,0.1-0.1,0.1C150.9,59.9,151,60,151,60c0.1,0,0.3-0.1,0.3-0.2c0-0.1-0.1-0.2-0.2-0.3c-0.1-0.1-0.2,0-0.2,0.1
					c0,0.1,0,0.2,0,0.4C150.9,60,151,60.1,151,60L151,60z"/>
			</g>
			<g>
				<path class="st15" d="M153.4,57.4c0,0,0,0.1,0.1,0.1c0.1,0.1,0.3,0,0.3-0.2c0-0.1-0.1-0.1-0.1-0.1
					C153.6,57.2,153.5,57.3,153.4,57.4c0,0,0,0.1,0,0.1c0,0,0.1,0.1,0.1,0.1c0.2,0.1,0.3-0.2,0.2-0.3c0,0,0,0,0,0c0,0,0,0,0,0
					c0,0,0,0.1,0,0.1l0,0c0,0,0,0.1,0,0.1c0,0,0,0,0,0c-0.1,0-0.1,0-0.2,0c0,0,0,0,0,0c0-0.1,0.1-0.2,0.1-0.3c0,0,0,0-0.1,0
					c0,0,0,0-0.1,0C153.4,57.3,153.4,57.4,153.4,57.4L153.4,57.4z"/>
			</g>
			<g>
				<path class="st16" d="M152.6,60.7c0.4,0.7,0.8,1.4,1.2,2.2c0,0.1,0.2,0,0.1-0.1c-0.3-0.8-0.8-1.4-1.3-2.2
					C152.7,60.6,152.6,60.6,152.6,60.7L152.6,60.7z"/>
			</g>
			<g>
				<path class="st16" d="M152.9,60.6c0.5,0.6,0.8,1.4,1.3,2.1c0.1,0.1,0.2,0,0.1-0.1C154,61.9,153.6,61.1,152.9,60.6
					C153,60.5,152.9,60.5,152.9,60.6L152.9,60.6z"/>
			</g>
			<g>
				<path class="st16" d="M154.3,59.7c0.7,0.8,1.3,1.8,2.2,2.3c0.1,0,0.2-0.1,0.1-0.1C155.8,61.2,155.1,60.4,154.3,59.7
					C154.3,59.6,154.3,59.7,154.3,59.7L154.3,59.7z"/>
			</g>
			<g>
				<path class="st16" d="M154.2,60.1c0.5,0.7,1.1,1.5,1.9,2c0.1,0.1,0.2-0.1,0.1-0.1C155.5,61.3,154.9,60.7,154.2,60.1
					C154.3,60,154.2,60.1,154.2,60.1L154.2,60.1z"/>
			</g>
			<g>
				<path class="st16" d="M152.7,60.5c-0.3-0.6-0.8-1.1-1.4-1.3c-0.1,0-0.1,0.1-0.1,0.1c0.2,0.2,0.4,0.3,0.6,0.4
					C152.2,59.9,152.4,60.2,152.7,60.5C152.7,60.6,152.8,60.6,152.7,60.5L152.7,60.5z"/>
			</g>
			<g>
				<path class="st16" d="M151.4,59c0.7,0.3,1.2,0.9,1.6,1.6c0,0.1,0.1,0,0.1-0.1C152.8,59.8,152.2,59.2,151.4,59
					C151.4,58.9,151.4,59,151.4,59L151.4,59z"/>
			</g>
			<g>
				<path class="st16" d="M150.4,62.5c-0.4,0-0.7-0.4-1-0.7c-0.3-0.4-0.2-0.7-0.1-1.1c0.1-0.4,0.3-0.8,0.5-1.1
					c0.2-0.2,0.4-0.3,0.6-0.4c0.3-0.1,0.4,0.2,0.6,0.3c0.1,0.1,0.2,0,0.2-0.1c-0.2-0.6-0.6-0.8-1.2-0.6c-0.7,0.3-1,1-1.2,1.6
					c-0.1,0.5-0.1,1.1,0.2,1.5c0.3,0.4,0.8,0.8,1.3,0.7C150.5,62.6,150.4,62.5,150.4,62.5L150.4,62.5z"/>
			</g>
			<g>
				<path class="st16" d="M155.9,57.8c0.3-1.2-0.8-1.9-1.8-2.1c-0.5-0.1-1.3,0.1-1.5,0.6c-0.3,0.5,0,1.1,0.5,1.3
					c0.2,0.1,0.3-0.1,0.3-0.2c-0.2-0.4-0.6-0.6-0.2-1c0.4-0.3,0.8-0.3,1.2-0.2C155.1,56.4,156,56.9,155.9,57.8
					C155.9,57.8,155.9,57.8,155.9,57.8L155.9,57.8z"/>
			</g>
			<g>
				<path class="st16" d="M153.8,64.5c-0.1-0.5-0.3-1-0.5-1.4c0-0.1-0.1,0-0.1,0C153.4,63.5,153.6,64,153.8,64.5
					C153.7,64.5,153.8,64.5,153.8,64.5L153.8,64.5z"/>
			</g>
			<g>
				<path class="st11" d="M153.6,63.9c-0.2-0.4-0.4-0.7-0.6-1.1c0,0-0.1,0-0.1,0C153.2,63.2,153.4,63.5,153.6,63.9
					C153.6,63.9,153.6,63.9,153.6,63.9L153.6,63.9z"/>
			</g>
			<g>
				<path class="st11" d="M154.9,61.4c0.4,0.4,0.8,0.8,1.2,1.2c0,0,0.1,0,0,0C155.7,62.1,155.3,61.7,154.9,61.4
					C154.9,61.3,154.9,61.4,154.9,61.4L154.9,61.4z"/>
			</g>
			<g>
				<path class="st11" d="M153.3,63c0.2,0.5,0.5,0.9,0.6,1.4c0,0,0.1,0,0.1,0C153.9,63.9,153.6,63.4,153.3,63
					C153.3,63,153.3,63,153.3,63L153.3,63z"/>
			</g>
			<g>
				<path class="st14" d="M153.4,62.4c0.4,0.5,0.5,1.1,0.9,1.5c0,0,0.1,0,0.1-0.1C154.1,63.3,153.8,62.8,153.4,62.4
					C153.4,62.3,153.3,62.3,153.4,62.4L153.4,62.4z"/>
			</g>
			<g>
				<path class="st14" d="M153.9,62.7c0.2,0.3,0.3,0.7,0.6,0.9c0,0,0.1,0,0.1-0.1C154.3,63.3,154.2,62.9,153.9,62.7
					C153.9,62.6,153.9,62.6,153.9,62.7L153.9,62.7z"/>
			</g>
			<g>
				<path class="st14" d="M154.4,62.8c0.1,0.2,0.2,0.4,0.4,0.6c0,0,0.1,0,0,0C154.7,63.2,154.5,63,154.4,62.8
					C154.4,62.8,154.3,62.8,154.4,62.8L154.4,62.8z"/>
			</g>
			<g>
				<path class="st14" d="M154.2,61.4c-0.2-0.3-0.3-0.7-0.6-1c-0.3-0.4-0.8-0.7-1.2-0.9c-0.7-0.4-1.4-0.7-2.2-0.6
					c-0.7,0.1-1.2,0.7-1.6,1.3c-0.4,0.6-0.5,1.4,0.1,2c0.1,0.1,0.4,0,0.3-0.2c-0.4-1.1,0.5-2.6,1.7-2.5c0.6,0,1.4,0.5,1.9,0.8
					c0.3,0.2,0.6,0.4,0.9,0.7c0.2,0.2,0.3,0.4,0.6,0.6C154.1,61.6,154.3,61.5,154.2,61.4L154.2,61.4z"/>
			</g>
			<g>
				<path class="st14" d="M149.3,59.2c0.6-0.3,1.3-0.2,1.9-0.1c0.5,0.1,1.3,0.3,1.5,0.8c0.1-0.1,0.3-0.3,0.4-0.4
					c-1.2-0.6-2.4-1.2-3.8-0.9c-0.4,0.1-0.2,0.6,0.1,0.6c1.2-0.3,2.3,0.4,3.3,0.9c0.2,0.1,0.6-0.1,0.4-0.4c-0.4-0.6-1.2-0.8-1.9-1
					c-0.7-0.2-1.6-0.2-2.2,0.4C149,59.1,149.1,59.2,149.3,59.2L149.3,59.2z"/>
			</g>
			<g>
				<path class="st14" d="M149.3,59.2C149.3,59.2,149.3,59.3,149.3,59.2C149.3,59.2,149.4,59.2,149.3,59.2c0.1,0,0.2-0.1,0.2-0.1
					c0.1,0,0.1-0.1,0.2-0.1c0,0,0.1,0,0.1,0c0,0,0.1,0,0.1,0c0-0.1-0.1-0.3-0.1-0.5c-0.1,0-0.3,0.2-0.4,0.3c0.2,0.1,0.3,0.1,0.5,0.2
					c0-0.1,0-0.1-0.1-0.2c0-0.1-0.2-0.2-0.3-0.1c0,0,0,0-0.1,0c-0.1,0.1-0.2,0.3-0.1,0.4c0.1,0.1,0.3,0.2,0.4,0.1
					c0.1-0.1,0.2-0.2,0.2-0.4c0-0.2-0.2-0.4-0.4-0.2c-0.1,0.1-0.2,0.2-0.3,0.3c-0.1,0.1-0.2,0.2-0.2,0.3
					C149.1,59.3,149.3,59.4,149.3,59.2L149.3,59.2z"/>
			</g>
			<g>
				<path class="st14" d="M156.5,56.7c-0.1-0.7-0.7-1.4-1.5-1.5c-0.1,0-0.2,0.1-0.1,0.2c0.2,0.2,0.4,0.3,0.7,0.5
					c0.4,0.2,0.6,0.5,0.8,0.9C156.4,56.8,156.6,56.8,156.5,56.7L156.5,56.7z"/>
			</g>
			<g>
				<path class="st14" d="M156.4,56.5c-0.5-0.6-1-1-1.8-1.1c-0.7-0.1-1.4-0.1-1.8,0.5c-0.4,0.5-0.4,1.1-0.1,1.7
					c0.2,0.5,0.6,1.2,1.1,1.6c0.2,0.2,0.4,0,0.4-0.2c-0.2-0.8-1.2-1.4-1-2.3c0.1-0.7,0.7-0.8,1.3-0.8c0.8,0,1.4,0.2,2,0.7
					C156.3,56.7,156.4,56.6,156.4,56.5L156.4,56.5z"/>
			</g>
			<g>
				<path class="st14" d="M154.3,59.2c-0.3-0.6-0.7-1.2-1-1.8c-0.1-0.4-0.1-0.8,0.1-1.2c0.2-0.3,0.5-0.5,0.7-0.7
					c0.1-0.1-0.1-0.3-0.2-0.3c-0.9,0.2-1.3,1.1-1.2,1.9c0.1,0.9,0.9,1.5,1.5,2.2C154.2,59.3,154.3,59.2,154.3,59.2L154.3,59.2z"/>
			</g>
			<g>
				<path class="st14" d="M153,56.7c0.3-0.2,0.5-0.6,0.7-0.8c0.3-0.3,0.6-0.4,0.8-0.8c0.1-0.1-0.1-0.3-0.2-0.2
					c-0.7,0.2-1.4,1.1-1.6,1.7C152.8,56.7,152.9,56.8,153,56.7L153,56.7z"/>
			</g>
		</g>
		<g>
			<path class="st14" d="M154.4,58.7c0.6,1.2,1.8,0.2,2.3-0.6c0.3-0.6,0.1-1.3-0.2-1.8c-0.5-0.7-1.1-1-1.9-1.2
				c-0.3,0-0.4,0.2-0.2,0.4c0.3,0.4,0.7,0.3,1.1,0.6c0.4,0.2,0.8,0.8,0.9,1.3c0.1,0.4-0.2,0.8-0.5,1.1c-0.4,0.4-0.8,0.5-1.2,0.1
				C154.5,58.5,154.4,58.6,154.4,58.7L154.4,58.7z"/>
		</g>
	</g>
</g>
</svg>
