<svg xmlns="http://www.w3.org/2000/svg" xmlns:xlink="http://www.w3.org/1999/xlink" viewBox="0 0 389 157" xmlns:v="https://vecta.io/nano"><style><![CDATA[.b{fill:#d6bd9e}.c{fill:#f9f5ed}.d{fill:#ede9e0}.e{fill:#94867b}.f{fill:#f3e9dd}]]></style><path d="M204 74.6c.4-.1.6-.4.8-.7a4.44 4.44 0 0 0 .8-1.1c.2-.5.2-1.2 0-1.8-.7-2.5-1.9-4.2-4-5.7-.5-.3-1.2-.8-1.9-.9-1.2-.3-3.3-.3-4.3.2-.7.4-1.2.7-1.7 1.3-.6.8-.8 1.9-.6 2.9s.9 1.8 1.7 2.4c.1.1.2.1.2.3.1.2-.1.4-.2.6l-1.6 1.8c-.1.1-.2.2-.2.3a.55.55 0 0 0 .3.5c1.3 1.1 3 2.5 4.6 2.8.2.1.6-.1.8-.4.2-.6 1.2-2.3 1.8-2.5.4 0 .8 0 1.2.2.8 0 1.6.1 2.3-.2z" class="d"/><path d="M195.5 69.4c-.4-.6-.1-1 .6-1.2.3 0 .6-.1 1 0s.6.3 1 .4c.3 0 .5-.4.5-.7 0-.7-.9-1-1.4-1.2-.6 0-1.3 0-1.8.4-.5.3-.8.7-.9 1.2 0 .6.4 1 .8 1.2.1.1.2 0 .2-.1h0zm5.8 3.3c.6.7 1.5.3 2-.3.6-.9.3-2.1-.4-2.9-.6-.6-1.7.4-1.1 1 .2.3.5.7.5 1.1-.1.4-.3.8-.8.8-.1 0-.3.1-.2.3h0z" class="b"/><defs><path id="A" d="M204 74.6c.4-.1.6-.4.8-.7a4.44 4.44 0 0 0 .8-1.1c.2-.5.2-1.2 0-1.8-.7-2.5-1.9-4.2-4-5.7-.5-.3-1.2-.8-1.9-.9-1.2-.3-3.3-.3-4.3.2-.7.4-1.2.7-1.7 1.3-.6.8-.8 1.9-.6 2.9s.9 1.8 1.7 2.4c.1.1.2.1.2.3.1.2-.1.4-.2.6l-1.6 1.8c-.1.1-.2.2-.2.3a.55.55 0 0 0 .3.5c1.3 1.1 3 2.5 4.6 2.8.2.1.6-.1.8-.4.2-.6 1.2-2.3 1.8-2.5.4 0 .8 0 1.2.2.8 0 1.6.1 2.3-.2z"/><path id="B" d="M143 93.3c.4-.1.8-.3 1.2-.3.7.1 1.8 1.7 2.1 2.3.1.3.6.3.8.3 1.7-.5 3.1-2.1 4.3-3.3.1-.1.3-.3.2-.5 0-.1-.1-.2-.2-.3l-1.8-1.6c-.1-.1-.3-.4-.3-.6 0-.1.1-.2.2-.3.8-.6 1.3-1.6 1.4-2.6s-.2-2-.9-2.8c-.5-.5-1.2-.8-1.8-1.1-1.2-.4-3.2-.1-4.3.3-.6.3-1.2.7-1.8 1.1-2 1.7-3.1 3.5-3.4 6.1-.1.6-.1 1.3.2 1.8.2.4.5.7.9 1l.9.6c.7.3 1.5.1 2.3-.1z"/><path id="C" d="M148.6 87.3c0 .1.1.2.2.2.5-.3.8-.8.7-1.3s-.6-.9-1-1.1c-.6-.3-1.2-.3-1.8-.2s-1.4.5-1.3 1.3c0 .3.2.6.6.6s.7-.3 1-.5c.3-.1.6-.1 1-.1.6.1.9.5.6 1.1h0z"/><path id="D" d="M143.2 91.3a.22.22 0 0 0-.3-.3c-.5.1-.8-.3-.9-.7s.2-.7.4-1.1c.5-.7-.7-1.6-1.2-.9-.6.8-.8 2.1-.1 2.9.6.6 1.5.8 2.1.1h0z"/><path id="E" d="M138.6 90.7c-.1-.2-.4-.1-.4.1.1.8.4 1.6.9 2.2.6.8 1.5 1 2.4 1.2.5.1 1.1.1 1.6 0 .3-.1.5-.1.8-.3.1 0 .2-.1.3-.1-.3-.1-.3-.1-.2 0 .4.4.6.8.9 1.3s.5 1.1 1.1 1.4c.5.3 1.1-.1 1.1-.6.1-.6-.4-1.1-.6-1.7-.3-.5-.5-1-.9-1.4-.7-.8-1.4-.9-2.3-.5s-2.1.9-3.1.4c-.8-.4-1.3-1.3-1.6-2h0z"/><path id="F" d="M152.5 92c.1.1.1.1.2 0h.1c.2-.1.2-.4.1-.5-.6-.5-1.4 0-2 .3-.8.4-1.5.8-2.2 1.3-.6.5-1.3 1.1-1.7 1.8-.2.5-.4 1.3-.3 1.8.2.6.8.9 1.4.6.3-.2.5-.4.6-.8.1-.2 0-.5.1-.7.2-.5.6-1.1 1.1-1.4.5-.5 1.1-.9 1.7-1.3.4-.3 1.1-.6 1.3-1.1-.1-.1-.3-.1-.4 0 0-.1 0 0 0 0h0z"/><path id="G" d="M143.6 86.4c-.5-.3-.9.1-.9.5-.1.7.3 1.5.6 2.1s.7 1.1 1 1.7c.4.6.9 1.2 1.5 1.7.5.5 1.4.5 2 0 .5-.5.6-1.5 0-2-.1-.1-.3-.2-.4-.3.1.1.1.1 0 0s-.3-.2-.4-.3c-.3-.3-.6-.5-.9-.8-.5-.5-.9-1-1.3-1.5-.4-.4-.7-.8-1.2-1.1h0z"/><path id="H" d="M147.3 88c0-.2-.3-.3-.4-.1-.3.6-.1 1.2.5 1.3.7.2 1.4 0 1.9-.4 1.3-.9 1.8-3.2.7-4.5-1-1.2-2.8-1.6-4.3-1.5s-3.9.6-3.6 2.6c.1.5.8.7 1.2.3.6-.6 1.4-1 2.3-1.2s1.9-.4 2.7-.1c1.3.4 1.5 1.6.9 2.7-.2.4-.5.9-1 1-.2.2-.8.4-.9-.1h0z"/><path id="I" d="M145.1 84.4c0-.2-.3-.4-.4-.3-1 .7-1.6 2.1-1.9 3.2.6.1 1.2.1 1.8.2-.1-.9.1-1.8.7-2.4l-1.5-.9c-.1.7-.8 1.3-1 2-.1.6-.4 1.3.1 1.7.4.4.9.3 1.3 0h0c.4-.4.3-1.2-.2-1.4h0l.3 1.3c.2-.5.1-.8.3-1.2.3-.6.8-1.1.9-1.8.1-.8-.9-1.6-1.5-.9-.9 1.1-1.4 2.5-1.2 3.9.2 1 1.8.8 1.8-.2-.1-1.1.4-2.1.5-3.2h0z"/><path id="J" d="M139.4 90.8c.1.2.4.1.5-.1 0-1.7 1-2.9 2.2-4 .3-.3.7-.7 1.1-.9.3-.2.8-.3 1.1-.6s.6-.6.5-1c-.1-.3-.4-.6-.8-.6-.9 0-1.7.6-2.4 1.2-.6.5-1.1 1.2-1.5 1.9-.7 1.2-1.5 2.8-.7 4.1h0z"/><path id="K" d="M140.3 87.6c-.1.3.3.6.6.4.4-.2 1-.4 1.4-.4a1.78 1.78 0 0 1 1 .4c.4.2 1-.1.8-.6s-.3-.8-.8-1.1c-.3-.2-.9-.3-1.3-.1-.7.2-1.5.6-1.7 1.4h0z"/><path id="L" d="M143.6 88.4a.22.22 0 0 0 .3-.3c-.3-.5-.5-1-.9-1.3-.5-.4-1-.5-1.7-.5-.9-.1-.9 1.4 0 1.3.4 0 .9-.1 1.3.1s.7.5 1 .7h0z"/><path id="M" d="M148.6 84.4c.2 0 .2-.3.1-.3-1-.7-2.4-.7-3.5-.2-1 .4-2.6 1.5-2.3 2.7.1.4.5.5.9.4.4-.2.6-.6.9-1s.7-.7 1.1-.9c.9-.5 1.9-.8 2.8-.7h0z"/><path id="N" d="M145.1 89c.1.1.3-.1.2-.3-.3-.6-.4-1.3-.4-1.9 0-.3 0-.6.1-.9s.2-.6.1-.9-.5-.5-.8-.4c-1.1.3-1.2 1.7-.9 2.6.3.7 1 1.5 1.7 1.8h0z"/><path id="O" d="M142.4 88.7c0-.1-.1-.1-.2.1v.2h.4s-.1.1-.1.2h0-.1s-.1 0-.1-.1c-.1-.1-.1-.1 0-.1v.1c.1.2.4.1.4-.1v-.2c-.2-.1-.3-.1-.3-.1-.2 0-.3.1-.3.2s0 .1.1.2a.22.22 0 0 0 .3-.3c0 0 0 0-.1-.1h0z"/><path id="P" d="M146.6 88.8c-.1-.1-.2 0-.1.1.8.7 1.4 1.6 2.2 2.2.1.1.2-.1.1-.1a22.84 22.84 0 0 0-2.2-2.2h0z"/><path id="Q" d="M146.4 89.1c0-.1-.1 0-.1.1.5.9 1.3 1.5 2 2.3.1.1.2 0 .1-.1-.6-.9-1.4-1.5-2-2.3h0z"/><path id="R" d="M144.9 90.5c0-.1-.1-.1 0 0 .5 1.2 1.3 2.2 1.9 3.4 0 .1.2 0 .2-.1-.4-1.2-1.4-2.3-2.1-3.3h0z"/><path id="S" d="M145.4 90.5c0-.1-.2 0-.1.1.7.9 1.2 1.9 1.8 2.9.1.1.2 0 .2-.1-.5-1.1-1.2-2.1-1.9-2.9h0z"/><path id="T" d="M146.3 88.9c.1.1.1 0 .1-.1-.3-.4-.6-.8-.8-1.2l-.3-.9c0-.1-.1 0-.1 0 .1.9.6 1.6 1.1 2.2h0z"/><path id="U" d="M144.9 86.8c0-.1-.1-.1-.1 0 .1 1 .6 1.8 1.4 2.5.1.1.2 0 .1-.1-.7-.7-1.2-1.4-1.4-2.4h0z"/><path id="V" d="M149.4 86.7c0 .1.1.1.1 0 .3-.6 0-1.3-.4-1.8-.4-.6-1.1-.8-1.7-.8-.8 0-1.8.2-2.3.9s-.3 1.2.3 1.6c.1.1.3 0 .2-.2-.1-.3-.3-.5-.1-.8.1-.2.3-.4.6-.6.5-.2 1-.3 1.5-.3s.9.1 1.3.5c.3.5.7 1 .5 1.5h0z"/><path id="W" d="M142.1 91.8s0-.1 0 0c-1-.2-1.4-1.4-1.4-2.3 0-.5.1-1.1.6-1.4.6-.4.7.2 1.1.5.2.1.4 0 .4-.2-.1-.7-.7-1.3-1.4-1-.7.2-1.2 1-1.2 1.6-.2 1.2.4 2.8 1.9 2.8h0z"/><path id="X" d="M150 91h0c-.4-.4-.7-.8-1.1-1.1 0 0-.1 0-.1.1.5.3.8.6 1.2 1h0z"/><path id="Y" d="M149.1 90.3h0c.4.5.8 1 1.4 1.3 0 0 .1 0 0-.1-.5-.3-.9-.7-1.4-1.2h0z"/><path id="Z" d="M148.4 90.2c0-.1-.1 0-.1.1.4.6 1 1.1 1.5 1.6.1 0 .1 0 .1-.1-.4-.6-1.1-1-1.5-1.6h0z"/><path id="a" d="M146.9 90.9c.1.1.3 0 .3-.2-.1-.3-.4-.5-.5-.9-.2-.4-.4-.8-.5-1.3-.2-.7-.6-1.8-.4-2.5.4-1.4 2.4-2.1 3.6-1.3a.22.22 0 0 0 .3-.3c-.5-.8-1.5-1-2.3-.7s-1.7.6-2 1.5c-.4.9-.2 1.9 0 2.8.1.6.3 1.2.7 1.7.1.5.5.8.8 1.2h0z"/><path id="b" d="M145.8 84.3c.1-.1 0-.3-.2-.3-.8.5-1.1 1.6-1.2 2.5 0 .9-.1 1.9.6 2.6.3.3.7 0 .6-.4-.3-1.4-.6-2.9 0-4.2.2-.4-.4-.8-.6-.4-.8 1.5-.4 3.2-.1 4.8.2-.1.4-.2.6-.4-.5-.5-.4-1.4-.4-2.1 0-.6.1-1.5.7-2.1h0z"/><path id="c" d="M145.9 84.4c.2 0 .2-.3 0-.3s-.3.1-.4.2-.3.2-.5.3c-.3.1-.1.5.1.5s.4-.1.5-.2c.2-.1.2-.4.1-.5s-.4-.1-.5 0c0 .1 0 0-.1.1s-.1.3 0 .4c.1 0 .1.1.2.1 0-.2-.1-.4-.1-.6-.1.1-.3.2-.4.3.2.1.3.2.5.3v-.1l.3-.3c.1 0 .2-.1.3-.2h0z"/><path id="d" d="M140.6 92.1c.1.1.2-.1.1-.2a2.73 2.73 0 0 1-.9-1.2c-.1-.3-.1-.6-.3-.9-.1-.1-.3-.1-.3.1 0 .9.6 1.8 1.4 2.2h0z"/><path id="e" d="M140.4 91.9c.1.1.2 0 .1-.1-.4-.9-.5-1.6-.2-2.5.2-.7.5-1.4 1.3-1.3 1.2.1 1.5 1.5 2.5 1.9.3.1.5-.1.4-.4-.3-.6-1-1.3-1.5-1.8-.6-.5-1.3-.6-2.1-.4-.9.3-1.1 1.2-1.2 2-.2 1.1.1 1.8.7 2.6h0z"/><path id="f" d="M144.3 90.3c.1.1.2 0 .1-.1-.6-.9-1.1-2-2.1-2.4-.9-.4-2.2-.2-2.6.8-.1.2.1.4.3.4.4-.1.7-.5 1.1-.6.5-.1 1 0 1.4.3.6.3 1.1 1 1.8 1.6h0z"/><path id="g" d="M141.8 87.9c.1-.1 0-.2-.1-.2-.8 0-2.1.6-2.5 1.3-.1.1 0 .3.2.3.5-.1.8-.5 1.2-.8.3-.2.8-.3 1.2-.6h0z"/><path id="h" d="M143.6 90.3c-.1-.1-.3 0-.2.2.4.6.2 1.1-.5 1.4-.4.2-1 .4-1.5.2s-1.1-.9-1.3-1.4c-.1-.5 0-1-.3-1.5-.2-.3-.5-.2-.6.1-.1 1 .1 1.8.8 2.6.5.6 1.3 1.1 2.1.9 1.2-.2 2.8-1.4 1.5-2.5h0z"/><path id="i" d="M258 92.5c.3-.1.7-.3 1-.2.6.1 1.5 1.4 1.7 1.9.1.2.5.3.6.2 1.3-.4 2.5-1.7 3.5-2.7.1-.1.2-.2.2-.4 0-.1-.1-.2-.2-.3l-1.5-1.3c-.1-.1-.3-.3-.2-.5 0-.1.1-.2.2-.2.6-.5 1.1-1.3 1.2-2.1s-.2-1.7-.7-2.3c-.4-.4-1-.7-1.5-.9-1-.3-2.6-.1-3.5.3-.5.2-1 .5-1.4.9-1.7 1.4-2.5 2.9-2.8 5-.1.5-.1 1 .2 1.5.2.3.4.6.7.8.2.2.5.4.8.5.5.2 1.1 0 1.7-.2z"/><path id="j" d="M262.6 87.7c0 .1.1.2.2.2.4-.3.7-.6.6-1.1-.1-.4-.5-.7-.8-.9-.5-.2-1-.3-1.5-.1-.5.1-1.2.4-1.1 1 0 .2.2.5.5.5.4 0 .5-.3.9-.4.3-.1.5-.1.8-.1.4.1.6.4.4.9h0z"/><path id="k" d="M258.2 90.9c.1-.2-.1-.3-.2-.3-.4.1-.6-.2-.7-.6-.1-.3.1-.6.3-.9.4-.6-.5-1.3-1-.7s-.7 1.7-.1 2.3c.5.6 1.2.8 1.7.2h0z"/><path id="l" d="M254.5 90.4c-.1-.2-.3-.1-.3.1.1.7.3 1.3.7 1.8.5.6 1.2.9 1.9 1 .4.1.9.1 1.3 0 .2-.1.4-.1.6-.2.1 0 .2-.1.2-.1-.2-.1-.3-.1-.1 0 .3.3.5.7.7 1 .2.4.4.9.9 1.1.4.2.9-.1.9-.5.1-.5-.3-.9-.5-1.3s-.4-.8-.7-1.1c-.6-.6-1.1-.7-1.9-.4-.8.4-1.7.8-2.5.3-.6-.4-1-1.1-1.2-1.7h0z"/><path id="m" d="M258.5 86.9c-.4-.2-.7.1-.7.4-.1.6.2 1.2.5 1.7.2.5.5.9.9 1.4l1.2 1.4c.4.4 1.2.4 1.6 0s.5-1.2 0-1.6l-.3-.3c.1.1.1.1 0 0l-.3-.3c-.3-.2-.5-.4-.7-.6l-1.1-1.2-1.1-.9z"/><path id="n" d="M261.6 88.2c0-.2-.2-.2-.3-.1-.2.5-.1 1 .4 1.1s1.1 0 1.6-.3c1.1-.8 1.4-2.6.5-3.6s-2.2-1.3-3.5-1.2c-1.2.1-3.2.5-2.9 2.1.1.4.7.5 1 .3.5-.5 1.2-.8 1.9-1s1.5-.3 2.2-.1c1.1.3 1.2 1.3.7 2.2-.2.3-.4.7-.8.8-.3.1-.8.2-.8-.2h0z"/><path id="o" d="M259.7 85.4c0-.2-.2-.3-.3-.2-.8.6-1.3 1.7-1.5 2.6.5.1 1 .1 1.4.2-.1-.7.1-1.4.6-2-.4-.2-.8-.5-1.3-.7-.1.6-.7 1-.9 1.6-.1.5-.3 1 .1 1.4.3.3.8.3 1.1 0h0c.4-.3.3-1-.2-1.2h0l.3 1c.2-.4.1-.6.3-1 .3-.5.6-.9.7-1.5.1-.7-.7-1.3-1.3-.7-.8.9-1.1 2-1 3.2.1.8 1.5.6 1.4-.2.2-.8.5-1.7.6-2.5h0z"/><path id="p" d="M255.1 90.5c.1.2.4.1.4-.1 0-1.3.8-2.3 1.8-3.2.3-.3.6-.5.9-.7s.6-.3.9-.5.5-.5.4-.8-.3-.5-.6-.5c-.7 0-1.4.5-1.9 1-.5.4-.9 1-1.3 1.5-.6 1-1.2 2.3-.6 3.3h0z"/><path id="q" d="M255.8 87.9c-.1.3.2.5.5.4.3-.2.8-.3 1.1-.3s.6.2.9.3c.3.2.8-.1.6-.5-.1-.4-.3-.7-.6-.9s-.7-.2-1-.1c-.6.1-1.3.5-1.5 1.1h0z"/><path id="r" d="M258.5 88.6c.2.1.3-.1.2-.2-.2-.4-.4-.8-.7-1.1-.4-.3-.9-.4-1.3-.4-.7-.1-.7 1.1 0 1.1.3 0 .7-.1 1 .1s.6.3.8.5h0z"/><path id="s" d="M262.6 85.3c.2 0 .2-.2.1-.3-.8-.5-1.9-.5-2.9-.2-.8.3-2.1 1.2-1.8 2.2.1.3.4.4.7.3.4-.2.5-.5.8-.8s.5-.5.9-.7c.7-.3 1.4-.5 2.2-.5h0z"/><path id="t" d="M259.8 89.1c.1.1.2-.1.2-.2-.3-.5-.3-1-.3-1.5 0-.2 0-.5.1-.7.1-.3.2-.5.1-.7-.1-.3-.4-.4-.6-.3-.9.2-1 1.4-.7 2.1 0 .4.6 1 1.2 1.3h0z"/><path id="u" d="M257.6 88.8c0-.1-.1-.1-.2.1v.2h.3l-.1.1h-.1s-.1 0-.1-.1c-.1-.1-.1-.1 0-.1v.1c.1.1.3.1.3-.1 0-.1 0-.1-.1-.2h0c-.2 0-.2.1-.2.2s0 .1.1.2.3-.1.2-.2-.1-.1-.1-.2h0z"/><path id="v" d="M261 88.9c-.1-.1-.2 0 0 0 .5.7 1 1.4 1.7 1.9.1.1.2-.1.1-.1l-1.8-1.8z"/><path id="w" d="M260.8 89.2c0-.1-.1 0-.1.1.4.7 1.1 1.3 1.7 1.8.1.1.2 0 .1-.1l-1.7-1.8z"/><path id="x" d="M259.6 90.3c0-.1-.1-.1 0 0 .4 1 1.1 1.8 1.6 2.8 0 .1.2 0 .1-.1-.3-1-1.2-1.9-1.7-2.7h0z"/><path id="y" d="M260 90.3c0-.1-.1 0-.1.1a17.61 17.61 0 0 1 1.4 2.3c.1.1.2 0 .2-.1-.3-.9-.9-1.6-1.5-2.3h0z"/><path id="z" d="M260.8 89s.1-.1 0 0c-.2-.4-.4-.7-.5-1.1-.1-.2-.2-.5-.3-.7 0-.1-.1 0-.1 0 0 .7.4 1.3.9 1.8h0z"/><path id="AA" d="M259.6 87.3c0-.1-.1-.1-.1 0 .1.8.5 1.5 1.1 2.1.1.1.1 0 .1-.1-.5-.6-1-1.2-1.1-2h0z"/><path id="AB" d="M263.3 87.2c0 .1.1.1.1 0 .2-.5 0-1-.3-1.4-.3-.5-.9-.6-1.4-.6-.7 0-1.4.1-1.9.7-.4.5-.2 1 .3 1.3.1.1.2 0 .2-.1-.1-.2-.3-.4-.1-.7.1-.2.3-.4.5-.5.4-.2.8-.2 1.2-.2s.8.1 1 .4.5.7.4 1.1h0z"/><path id="AC" d="M257.3 91.3h0c-.9-.2-1.1-1.1-1.1-1.9 0-.4.1-.9.5-1.1.5-.3.6.2.9.4.2.1.3 0 .3-.2-.1-.6-.6-1-1.2-.9-.5.2-1 .8-1 1.3-.1 1.2.4 2.5 1.6 2.4h0z"/><path id="AD" d="M263 90.1s0 .1 0 0c.3.4.7.8 1.1 1 0 0 .1 0 0-.1-.3-.2-.7-.5-1.1-.9h0z"/><path id="AE" d="M262.4 90s-.1 0 0 0c.3.5.7.9 1.2 1.3.1 0 .1 0 .1-.1-.4-.4-.9-.7-1.3-1.2h0z"/><path id="AF" d="M261.3 90.6c.1.1.2 0 .2-.1-.1-.3-.3-.4-.4-.7-.2-.3-.3-.7-.4-1-.2-.6-.5-1.4-.3-2.1.3-1.2 1.9-1.7 2.9-1 .2.1.3-.1.2-.2-.4-.6-1.2-.8-1.9-.6-.6.2-1.4.5-1.7 1.2-.3.8-.2 1.5 0 2.3.1.5.3 1 .5 1.4.3.3.6.5.9.8h0z"/><path id="AG" d="M260.3 85.2c.1-.1 0-.3-.2-.2-.7.4-.9 1.3-1 2 0 .7-.1 1.6.5 2.1.2.2.5 0 .5-.3-.2-1.1-.5-2.4 0-3.5.2-.3-.3-.6-.5-.3-.6 1.2-.3 2.6-.1 3.9.2-.1.3-.2.5-.3-.4-.4-.3-1.2-.3-1.7.1-.4.2-1.2.6-1.7h0z"/><path id="AH" d="M260.4 85.3c.2 0 .2-.2 0-.2-.1 0-.3.1-.4.1-.1.1-.2.2-.4.3s-.1.4.1.4.3-.1.4-.1c.2-.1.2-.3.1-.4s-.3-.1-.4 0c0 .1 0 0-.1.1s-.1.2 0 .3c.1 0 .1.1.2.1 0-.2-.1-.3-.1-.5-.1.1-.3.1-.3.3a.76.76 0 0 0 .4.2v-.1l.2-.2c.2-.1.2-.2.3-.3 0 .1 0 0 0 0h0z"/><path id="AI" d="M256.1 91.6c.1.1.2-.1.1-.1-.4-.2-.6-.6-.7-1-.1-.3-.1-.5-.3-.8-.1-.1-.2-.1-.2.1-.1.8.4 1.5 1.1 1.8h0z"/><path id="AJ" d="M255.9 91.4c.1.1.2 0 .1-.1-.4-.7-.4-1.3-.2-2.1.2-.5.4-1.1 1.1-1.1 1 .1 1.2 1.2 2 1.6a.22.22 0 0 0 .3-.3c-.3-.5-.8-1.1-1.3-1.4-.5-.4-1.1-.5-1.7-.3-.7.2-.9 1-1 1.6 0 .9.3 1.5.7 2.1h0z"/><path id="AK" d="M259.1 90.1c.1.1.1 0 .1-.1-.5-.7-.9-1.6-1.7-2-.7-.3-1.8-.1-2.1.6-.1.1.1.4.2.3.3-.1.6-.4.9-.5a1.39 1.39 0 0 1 1.1.2l1.5 1.5z"/><path id="AL" d="M257 88.2c.1-.1 0-.2-.1-.2-.7 0-1.7.5-2.1 1.1-.1.1 0 .3.2.2.4-.1.6-.4 1-.6s.7-.3 1-.5h0z"/></defs><clipPath id="AM"><use xlink:href="#A"/></clipPath><g clip-path="url(#AM)" class="b"><path d="M205.8 71.7c-.2.7-.6 1.7-1.3 2.2-.9.7-2.1.3-3.1-.1-.9-.3-1.6-.1-2.2.7-.4.4-.5 1-.7 1.5s-.6 1.1-.4 1.8c.1.6.7.8 1.2.5s.7-1 .9-1.5.4-.9.8-1.4c.1-.1.1-.1-.2 0 .1 0 .2.1.3.1.3.1.5.1.8.2.5 0 1.1 0 1.6-.2.9-.3 1.7-.7 2.3-1.5.4-.7.6-1.5.7-2.3-.3-.3-.6-.2-.7 0h0z"/></g><defs><path id="AN" d="M204 74.6c.4-.1.6-.4.8-.7a4.44 4.44 0 0 0 .8-1.1c.2-.5.2-1.2 0-1.8-.7-2.5-1.9-4.2-4-5.7-.5-.3-1.2-.8-1.9-.9-1.2-.3-3.3-.3-4.3.2-.7.4-1.2.7-1.7 1.3-.6.8-.8 1.9-.6 2.9s.9 1.8 1.7 2.4c.1.1.2.1.2.3.1.2-.1.4-.2.6l-1.6 1.8c-.1.1-.2.2-.2.3a.55.55 0 0 0 .3.5c1.3 1.1 3 2.5 4.6 2.8.2.1.6-.1.8-.4.2-.6 1.2-2.3 1.8-2.5.4 0 .8 0 1.2.2.8 0 1.6.1 2.3-.2z"/></defs><clipPath id="AO"><use xlink:href="#AN"/></clipPath><g clip-path="url(#AO)" class="b"><path d="M192.1 74.4h0c-.1-.1-.3-.1-.4-.1.3.5 1 .7 1.4 1 .6.3 1.3.7 1.8 1.1.4.4 1 .8 1.2 1.3.1.2.1.5.2.7.1.4.4.6.7.7.6.2 1.2-.1 1.3-.7.1-.5-.1-1.3-.5-1.8-.4-.7-1.1-1.2-1.9-1.6l-2.3-1.1c-.6-.2-1.5-.6-2-.1-.2.1-.1.4.2.5h.1c0 .2.1.2.2.1h0z"/></g><g class="c"><path d="M200.4 67.8c-.5.4-.7.8-1.1 1.2-.3.5-.8 1.1-1.1 1.6-.3.3-.4.6-.8.9-.1.1-.3.2-.4.3s-.1.1 0 0c-.1.1-.3.2-.4.3-.5.6-.3 1.5.2 2 .6.5 1.4.3 2-.2l1.3-1.9c.3-.5.7-1.2.8-1.8.2-.6.5-1.5.4-2.2 0-.2-.5-.4-.9-.2h0zm-3.5 2c.1.5-.7.4-1 .3-.5 0-.9-.5-1.1-.9-.7-1-.6-2.2.6-2.8.9-.4 1.9-.3 2.7-.2.9.1 1.8.4 2.4.9.3.4 1.1.1 1.2-.4.2-2-2.3-2.3-3.9-2.2s-3.2.7-4.1 2c-1 1.4-.3 3.6 1.2 4.4.6.3 1.3.4 1.9.2.7-.3.7-.9.4-1.3-.2-.3-.4-.2-.3 0h0z"/><path d="M198.7 66.1c.2 1.1.7 2 .8 3.1.1 1 1.7 1.1 1.8 0 0-1.4-.5-2.8-1.6-3.7-.7-.7-1.7.3-1.4 1.1.2.7.7 1.1 1.1 1.7.2.4.2.8.4 1.2.1-.4.1-.8.2-1.3h0c-.5.4-.5 1.1 0 1.4h0c.4.4.9.3 1.3-.1.4-.6.2-1.2-.1-1.7-.3-.7-1-1.2-1.2-1.9l-1.4 1.1c.7.6 1 1.4 1 2.3.6-.2 1.2-.3 1.8-.4-.4-1.1-1.2-2.4-2.2-3-.3-.2-.6 0-.5.2h0z"/><path d="M205 71.9c.7-1.4-.3-2.9-1-4-.5-.7-1-1.2-1.7-1.7s-1.6-1-2.5-.9c-.4 0-.7.4-.7.7 0 .5.3.8.6.9s.8.3 1.2.5c.4.3.9.5 1.2.8 1.2 1 2.3 2.1 2.6 3.7-.1.1.2.2.3 0h0z"/><path d="M203.8 68.7c-.3-.8-1.1-1.1-1.9-1.3-.4-.1-.9 0-1.3.2-.5.4-.5.7-.7 1.2-.1.5.5.8.9.5.3-.1.7-.4 1-.5.4 0 1 .1 1.4.2.4.3.7.1.6-.3h0z"/><path d="M200.6 69.9c.3-.2.6-.6.9-.8.4-.2.8-.2 1.3-.2.9-.1.7-1.5-.1-1.3-.6.1-1.2.2-1.6.7-.4.4-.5 1-.8 1.4-.1.1.1.3.3.2h0z"/><path d="M195.2 66.5c1-.2 1.9-.1 2.8.4.4.3.9.5 1.2.8s.6.7 1 .9.8-.1.9-.5c.3-1.3-1.5-2.1-2.6-2.4a3.73 3.73 0 0 0-3.5.6c-.1-.1 0 .2.2.2h0z"/><path d="M199.2 70.7c.7-.4 1.3-1.2 1.4-2 .2-.9-.1-2.3-1.2-2.5-.3-.1-.7.2-.8.5s.1.6.2.9.2.6.2.9c.1.6.1 1.3-.2 1.9 0 .1.2.3.4.3h0z"/></g><path d="M197.7 68.4c.2 0 .3 0 .5-.1 0-.1-.1-.2-.1-.3v.1c0-.1-.1-.1-.2-.1-.1.2-.2.3-.2.4.1.2.2.3.4.2.1 0 .3-.2.3-.3s-.1-.2-.2-.2-.3.1-.4.1c-.1.1-.1.2-.1.2h0zm4.1 1.7c0 .1-.1.1-.1.1a.22.22 0 0 0 .3.3c.1 0 .1-.1.1-.2-.1-.1-.1-.2-.3-.2 0 0-.1 0-.2.1v.2c0 .2.3.3.4.1v-.1c0-.1 0 0 0 .1 0 0-.1 0-.1.1h0-.1c0-.1-.1-.1-.1-.2h.4v-.2c-.2-.2-.3-.2-.3-.1h0z" class="e"/><g class="f"><path d="M197.6 70.6l-2 2.3c-.1.1 0 .2.1.1.8-.6 1.3-1.6 1.9-2.4.2 0 .1-.1 0 0h0zm.3.3c-.5.9-1.2 1.5-1.7 2.4-.1.1.1.2.1.1.6-.8 1.3-1.5 1.6-2.5.2 0 .1-.1 0 0h0zm1.6 1.2c-.6 1.2-1.5 2.3-1.7 3.6 0 .1.1.2.2.1l1.5-3.7c.1-.1 0 0 0 0h0zm-.5 0c-.6 1-1.2 1.9-1.5 3.1 0 .1.1.2.2.1l1.5-3.1c0-.1-.1-.1-.2-.1h0z"/><path d="M197.9 70.6c.5-.6 1-1.4.9-2.2 0-.1-.1-.1-.1 0-.1.3-.1.6-.2.9-.1.5-.3.9-.6 1.3-.2 0 0 .1 0 0h0zm1.2-2.1c0 1-.5 1.8-1.1 2.5-.1.1 0 .2.1.1.7-.8 1.1-1.6 1-2.6.1-.1 0-.1 0 0h0z"/><path d="M194.6 68.8c-.2-.5.2-1 .3-1.4.3-.4.7-.6 1.2-.6.5-.1 1 0 1.5.1.3.1.5.2.7.5s0 .6 0 .8c0 .1.1.3.2.2.5-.6.7-1.1.1-1.6-.6-.6-1.6-.7-2.4-.6-.7.1-1.3.3-1.6 1-.3.5-.6 1.3-.2 1.8.1 0 .2-.1.2-.2h0zm7.8 4.2c1.5-.2 1.8-1.8 1.7-3-.1-.7-.7-1.3-1.4-1.5-.7-.1-1.3.4-1.3 1.1 0 .2.2.4.4.2.4-.3.4-.9 1-.6.5.2.7.8.7 1.3.2 1.1 0 2.2-1.1 2.5h0zm-8.6.6c.6-.4 1-.7 1.4-1.2.1 0 0-.1-.1-.1-.3.5-.8.8-1.3 1.3-.1 0 0 .1 0 0h0z"/></g><path d="M194.5 73.1c.4-.4.7-.8 1-1.2 0 0 0-.1-.1-.1-.3.5-.7.9-.9 1.3-.1 0 0 0 0 0h0zm3.3.3c-.3.6-.7 1.3-.9 1.9 0 0 0 .1.1 0 .4-.5.7-1.1.8-1.9h0zm-2.5-1c-.5.5-.8.9-1.3 1.3v.1c.6-.3 1-.9 1.3-1.4h0z" class="b"/><g class="c"><path d="M196 72.2c-.3.6-1 1.1-1.3 1.8 0 .1 0 .1.1.1.4-.6 1-1.1 1.3-1.8.1-.1 0-.2-.1-.1h0z"/><path d="M196 72.9c-.3.3-.7.6-.8 1.1 0 .1.1.1.1 0 .2-.4.5-.6.7-1.1.1 0 0-.1 0 0h0z"/><path d="M195.9 73.5c-.2.2-.5.5-.5.8 0 0 0 .1.1 0 .2-.3.4-.5.4-.8.1 0 .1-.1 0 0h0zm1.7-.8l.9-1.1c.2-.5.4-1.1.5-1.8.1-1 .2-1.9-.3-2.8-.5-.8-1.4-1.1-2.2-1.3-.9-.2-1.9.1-2.2.9a.22.22 0 0 0 .3.3c1.1-1 3.2-.5 3.7.9.3.8 0 1.8-.1 2.5-.1.4-.2.9-.4 1.3 0 .4-.3.7-.2 1.1-.3 0-.1.1 0 0h0z"/><path d="M198 66.1c.7.5.9 1.4.9 2.2.1.6.3 1.6-.2 2.1l.6.3c.1-1.6.3-3.4-.6-4.8-.2-.4-.8 0-.6.5.8 1.2.6 2.9.5 4.2-.1.3.4.6.6.3.5-.7.4-1.8.3-2.6-.1-.9-.5-2-1.5-2.4-.1-.2-.3 0 0 .2h0z"/><path d="M197.9 66.2s0-.1 0 0h0c.1.1.1.2.2.3l.2.2s0 .1.1.1c0 0 .1.1 0 .1.2-.1.3-.2.5-.4-.1-.2-.3-.3-.4-.3 0 .2-.1.4 0 .6.1 0 .1-.1.2-.1.1-.1.1-.3 0-.4l-.1-.1c-.1-.1-.4-.1-.5.1-.1.1-.1.4.2.5.2.1.3.2.5.1.3 0 .4-.4 0-.5-.2-.1-.3-.2-.5-.2a.76.76 0 0 0-.4-.2c-.3-.1-.1.2 0 .2h0zm6.1 7.1c.8-.5 1.3-1.4 1.1-2.3 0-.1-.2-.2-.3-.1-.2.3-.2.6-.2.9 0 .5-.3.9-.8 1.3 0 .1.1.3.2.2h0z"/><path d="M204.1 73c.5-.9.7-1.6.4-2.6-.2-.8-.5-1.7-1.4-1.9-.8-.2-1.5.1-2 .6-.5.6-1.1 1.2-1.3 2-.1.3.2.5.4.4.8-.6 1.1-1.9 2.3-2.2.8-.2 1.2.5 1.4 1.2.5.8.4 1.6.2 2.5-.3 0-.1.1 0 0h0z"/><path d="M200.1 71.8c.5-.7 1.1-1.3 1.7-1.9.4-.3.9-.5 1.4-.4.4.1.7.3 1.2.5.2.1.4-.2.3-.4-.6-.9-1.8-1-2.7-.5-1 .5-1.3 1.8-1.8 2.6-.2.1-.1.2-.1.1h0z"/><path d="M202.3 69.2c.4.2.8.3 1.3.5s.8.5 1.3.7c.2.1.3-.1.2-.3-.5-.7-1.8-1.1-2.6-1-.2-.1-.2 0-.2.1h0z"/><path d="M200.8 71.8c-1.2 1.2.5 2.3 1.7 2.3.9.1 1.6-.4 2-1.1.6-.9.7-1.7.5-2.7 0-.3-.4-.4-.6 0-.2.5-.1.9-.1 1.5 0 .5-.6 1.3-1.1 1.5-.5.3-1.1.1-1.5 0-.6-.2-1-.7-.6-1.3 0-.2-.2-.3-.3-.2h0z"/></g><use xlink:href="#B" class="d"/><g class="b"><use xlink:href="#C"/><use xlink:href="#D"/></g><defs><path id="AP" d="M143 93.3c.4-.1.8-.3 1.2-.3.7.1 1.8 1.7 2.1 2.3.1.3.6.3.8.3 1.7-.5 3.1-2.1 4.3-3.3.1-.1.3-.3.2-.5 0-.1-.1-.2-.2-.3l-1.8-1.6c-.1-.1-.3-.4-.3-.6 0-.1.1-.2.2-.3.8-.6 1.3-1.6 1.4-2.6s-.2-2-.9-2.8c-.5-.5-1.2-.8-1.8-1.1-1.2-.4-3.2-.1-4.3.3-.6.3-1.2.7-1.8 1.1-2 1.7-3.1 3.5-3.4 6.1-.1.6-.1 1.3.2 1.8.2.4.5.7.9 1l.9.6c.7.3 1.5.1 2.3-.1z"/></defs><clipPath id="AQ"><use xlink:href="#AP"/></clipPath><g clip-path="url(#AQ)" class="b"><use xlink:href="#E"/></g><defs><path id="AR" d="M143 93.3c.4-.1.8-.3 1.2-.3.7.1 1.8 1.7 2.1 2.3.1.3.6.3.8.3 1.7-.5 3.1-2.1 4.3-3.3.1-.1.3-.3.2-.5 0-.1-.1-.2-.2-.3l-1.8-1.6c-.1-.1-.3-.4-.3-.6 0-.1.1-.2.2-.3.8-.6 1.3-1.6 1.4-2.6s-.2-2-.9-2.8c-.5-.5-1.2-.8-1.8-1.1-1.2-.4-3.2-.1-4.3.3-.6.3-1.2.7-1.8 1.1-2 1.7-3.1 3.5-3.4 6.1-.1.6-.1 1.3.2 1.8.2.4.5.7.9 1l.9.6c.7.3 1.5.1 2.3-.1z"/></defs><clipPath id="AS"><use xlink:href="#AR"/></clipPath><g clip-path="url(#AS)" class="b"><use xlink:href="#F"/></g><g class="c"><use xlink:href="#G"/><use xlink:href="#H"/><use xlink:href="#I"/><use xlink:href="#J"/><use xlink:href="#K"/><use xlink:href="#L"/><use xlink:href="#M"/><use xlink:href="#N"/></g><g class="e"><path d="M146.3 86.7c.1 0 .1-.1 0-.2-.1 0-.3-.1-.4-.1s-.3.1-.2.2c0 .1.1.3.3.3.1 0 .2-.1.3-.2 0-.1 0-.2-.1-.2s-.2 0-.2.1h0v-.1c0 .1-.1.2-.1.3 0-.1.2-.1.4-.1h0z"/><use xlink:href="#O"/></g><g class="f"><use xlink:href="#P"/><use xlink:href="#Q"/><use xlink:href="#R"/><use xlink:href="#S"/><use xlink:href="#T"/><use xlink:href="#U"/><use xlink:href="#V"/><use xlink:href="#W"/><path d="M150.7 91.4s.1-.1 0 0l-1.5-1.1-.1.1c.5.4 1 .7 1.6 1h0z"/></g><g class="b"><use xlink:href="#X"/><path d="M146.7 91.7s-.1 0 0 0l1 1.8h.1l-1.1-1.8z"/><use xlink:href="#Y"/></g><g class="c"><use xlink:href="#Z"/><path d="M148.5 90.9s-.1 0 0 0c.2.4.6.6.8 1h.1c-.1-.5-.6-.7-.9-1h0z"/><path d="M148.6 91.5c-.1 0-.1 0 0 0 .2.3.4.5.6.7h.1l-.7-.7z"/><use xlink:href="#a"/><use xlink:href="#b"/><use xlink:href="#c"/><use xlink:href="#d"/><use xlink:href="#e"/><use xlink:href="#f"/><use xlink:href="#g"/><use xlink:href="#h"/></g><use xlink:href="#B" x="151.1" y="-37.5" class="d"/><g class="b"><use xlink:href="#C" x="151.1" y="-37.5"/><use xlink:href="#D" x="151.1" y="-37.5"/></g><defs><path id="AT" d="M294.1 55.8c.4-.1.8-.3 1.2-.3.7.1 1.8 1.7 2.1 2.3.1.3.6.3.8.3 1.7-.5 3.1-2.1 4.3-3.3.1-.1.3-.3.2-.5 0-.1-.1-.2-.2-.3l-1.8-1.6c-.1-.1-.3-.4-.3-.6 0-.1.1-.2.2-.3.8-.6 1.3-1.6 1.4-2.6s-.2-2-.9-2.8c-.5-.5-1.2-.8-1.8-1.1-1.2-.4-3.2-.1-4.3.3-.6.3-1.2.7-1.8 1.1-2 1.7-3.1 3.5-3.4 6.1-.1.6-.1 1.3.2 1.8.2.4.5.7.9 1l.9.6c.7.3 1.5.1 2.3-.1z"/></defs><clipPath id="AU"><use xlink:href="#AT"/></clipPath><g clip-path="url(#AU)" class="b"><path d="M289.7 53.2c-.1-.2-.4-.1-.4.1.1.8.4 1.6.9 2.2.6.8 1.5 1 2.4 1.2.5.1 1.1.1 1.6 0 .3-.1.5-.1.8-.3.1 0 .2-.1.3-.1-.3-.1-.3-.1-.2 0 .4.4.6.8.9 1.3s.5 1.1 1.1 1.4c.5.3 1.1-.1 1.1-.6.1-.6-.4-1.1-.6-1.7-.3-.5-.5-1-.9-1.4-.7-.8-1.4-.9-2.3-.5s-2.1.9-3.1.4c-.8-.4-1.3-1.3-1.6-2h0z"/></g><defs><path id="AV" d="M294.1 55.8c.4-.1.8-.3 1.2-.3.7.1 1.8 1.7 2.1 2.3.1.3.6.3.8.3 1.7-.5 3.1-2.1 4.3-3.3.1-.1.3-.3.2-.5 0-.1-.1-.2-.2-.3l-1.8-1.6c-.1-.1-.3-.4-.3-.6 0-.1.1-.2.2-.3.8-.6 1.3-1.6 1.4-2.6s-.2-2-.9-2.8c-.5-.5-1.2-.8-1.8-1.1-1.2-.4-3.2-.1-4.3.3-.6.3-1.2.7-1.8 1.1-2 1.7-3.1 3.5-3.4 6.1-.1.6-.1 1.3.2 1.8.2.4.5.7.9 1l.9.6c.7.3 1.5.1 2.3-.1z"/></defs><clipPath id="AW"><use xlink:href="#AV"/></clipPath><g clip-path="url(#AW)" class="b"><path d="M303.6 54.5c.1.1.1.1.2 0h.1c.2-.1.2-.4.1-.5-.6-.5-1.4 0-2 .3-.8.4-1.5.8-2.2 1.3-.6.5-1.3 1.1-1.7 1.8-.2.5-.4 1.3-.3 1.8.2.6.8.9 1.4.6.3-.2.5-.4.6-.8.1-.2 0-.5.1-.7.2-.5.6-1.1 1.1-1.4.5-.5 1.1-.9 1.7-1.3.4-.3 1.1-.6 1.3-1.1-.1-.1-.3-.1-.4 0 0-.1 0 0 0 0h0z"/></g><g class="c"><use xlink:href="#G" x="151.1" y="-37.5"/><use xlink:href="#H" x="151.1" y="-37.5"/><use xlink:href="#I" x="151.1" y="-37.5"/><use xlink:href="#J" x="151.1" y="-37.5"/><use xlink:href="#K" x="151.1" y="-37.5"/><use xlink:href="#L" x="151.1" y="-37.5"/><use xlink:href="#M" x="151.1" y="-37.5"/><use xlink:href="#N" x="151.1" y="-37.5"/></g><g class="e"><path d="M297.4 49.2c.1 0 .1-.1 0-.2-.1 0-.3-.1-.4-.1s-.3.1-.2.2c0 .1.1.3.3.3.1 0 .2-.1.3-.2 0-.1 0-.2-.1-.2s-.2 0-.2.1h0V49c0 .1-.1.2-.1.3 0-.1.2-.1.4-.1h0z"/><use xlink:href="#O" x="151.1" y="-37.5"/></g><g class="f"><use xlink:href="#P" x="151.1" y="-37.5"/><use xlink:href="#Q" x="151.1" y="-37.5"/><use xlink:href="#R" x="151.1" y="-37.5"/><use xlink:href="#S" x="151.1" y="-37.5"/><use xlink:href="#T" x="151.1" y="-37.5"/><use xlink:href="#U" x="151.1" y="-37.5"/><use xlink:href="#V" x="151.1" y="-37.5"/><use xlink:href="#W" x="151.1" y="-37.5"/><path d="M301.8 53.9s.1-.1 0 0l-1.5-1.1-.1.1c.5.4 1 .7 1.6 1h0z"/></g><g class="b"><use xlink:href="#X" x="151.1" y="-37.5"/><path d="M297.8 54.2s-.1 0 0 0l1 1.8h.1l-1.1-1.8z"/><use xlink:href="#Y" x="151.1" y="-37.5"/></g><g class="c"><use xlink:href="#Z" x="151.1" y="-37.5"/><path d="M299.6 53.4s-.1 0 0 0c.2.4.6.6.8 1h.1c-.1-.5-.6-.7-.9-1h0z"/><path d="M299.7 54c-.1 0-.1 0 0 0 .2.3.4.5.6.7h.1l-.7-.7z"/><use xlink:href="#a" x="151.1" y="-37.5"/><use xlink:href="#b" x="151.1" y="-37.5"/><use xlink:href="#c" x="151.1" y="-37.5"/><use xlink:href="#d" x="151.1" y="-37.5"/><use xlink:href="#e" x="151.1" y="-37.5"/><use xlink:href="#f" x="151.1" y="-37.5"/><use xlink:href="#g" x="151.1" y="-37.5"/><use xlink:href="#h" x="151.1" y="-37.5"/></g><use xlink:href="#i" class="d"/><g class="b"><use xlink:href="#j"/><use xlink:href="#k"/></g><defs><path id="AX" d="M258 92.5c.3-.1.7-.3 1-.2.6.1 1.5 1.4 1.7 1.9.1.2.5.3.6.2 1.3-.4 2.5-1.7 3.5-2.7.1-.1.2-.2.2-.4 0-.1-.1-.2-.2-.3l-1.5-1.3c-.1-.1-.3-.3-.2-.5 0-.1.1-.2.2-.2.6-.5 1.1-1.3 1.2-2.1s-.2-1.7-.7-2.3c-.4-.4-1-.7-1.5-.9-1-.3-2.6-.1-3.5.3-.5.2-1 .5-1.4.9-1.7 1.4-2.5 2.9-2.8 5-.1.5-.1 1 .2 1.5.2.3.4.6.7.8.2.2.5.4.8.5.5.2 1.1 0 1.7-.2z"/></defs><clipPath id="AY"><use xlink:href="#AX"/></clipPath><g clip-path="url(#AY)" class="b"><use xlink:href="#l"/></g><defs><path id="AZ" d="M258 92.5c.3-.1.7-.3 1-.2.6.1 1.5 1.4 1.7 1.9.1.2.5.3.6.2 1.3-.4 2.5-1.7 3.5-2.7.1-.1.2-.2.2-.4 0-.1-.1-.2-.2-.3l-1.5-1.3c-.1-.1-.3-.3-.2-.5 0-.1.1-.2.2-.2.6-.5 1.1-1.3 1.2-2.1s-.2-1.7-.7-2.3c-.4-.4-1-.7-1.5-.9-1-.3-2.6-.1-3.5.3-.5.2-1 .5-1.4.9-1.7 1.4-2.5 2.9-2.8 5-.1.5-.1 1 .2 1.5.2.3.4.6.7.8.2.2.5.4.8.5.5.2 1.1 0 1.7-.2z"/></defs><clipPath id="Aa"><use xlink:href="#AZ"/></clipPath><g clip-path="url(#Aa)" class="b"><path d="M265.8 91.5c.1.1.1.1.2 0h.1c.2-.1.2-.3.1-.4-.5-.4-1.1 0-1.6.2l-1.8 1c-.5.4-1.1.9-1.3 1.5-.2.4-.4 1-.2 1.5a.88.88 0 0 0 1.2.5c.3-.2.4-.4.5-.6s0-.4.1-.6c.1-.4.5-.9.9-1.2.4-.4.9-.7 1.4-1.1.3-.3.9-.5 1.1-.9-.5 0-.6 0-.7.1h0z"/></g><g class="c"><use xlink:href="#m"/><use xlink:href="#n"/><use xlink:href="#o"/><use xlink:href="#p"/><use xlink:href="#q"/><use xlink:href="#r"/><use xlink:href="#s"/><use xlink:href="#t"/></g><g class="e"><path d="M260.7 87.2c.1 0 .1-.1 0-.2-.1 0-.2-.1-.4-.1-.1 0-.2.1-.2.2s.1.2.2.3c.2 0 .3-.1.4-.2 0-.1 0-.2-.1-.2s-.1 0-.2.1h0V87c0 .1-.1.1-.1.2h.4z"/><use xlink:href="#u"/></g><g class="f"><use xlink:href="#v"/><use xlink:href="#w"/><use xlink:href="#x"/><use xlink:href="#y"/><use xlink:href="#z"/><use xlink:href="#AA"/><use xlink:href="#AB"/><use xlink:href="#AC"/><path d="M264.3 91h0l-1.2-.9-.1.1c.4.3.8.6 1.3.8h0z"/></g><g class="b"><path d="M263.8 90.7h0l-.9-.9s-.1 0-.1.1c.3.2.6.5 1 .8h0zm-2.8.5h0c.2.5.5 1 .8 1.5h.1l-.9-1.5z"/><use xlink:href="#AD"/></g><g class="c"><use xlink:href="#AE"/><path d="M262.5 90.6h0c.2.3.5.5.7.8h.1c-.1-.3-.5-.5-.8-.8h0z"/><path d="M262.6 91.1c-.1 0-.1 0 0 0 .1.2.3.4.5.6h.1l-.6-.6z"/><use xlink:href="#AF"/><use xlink:href="#AG"/><use xlink:href="#AH"/><use xlink:href="#AI"/><use xlink:href="#AJ"/><use xlink:href="#AK"/><use xlink:href="#AL"/><path d="M258.5 90.1c-.1-.1-.2 0-.2.1.3.5.1.9-.4 1.2a1.64 1.64 0 0 1-1.2.2c-.4-.2-.9-.7-1-1.2-.1-.4 0-.8-.3-1.2-.1-.2-.4-.1-.5.1-.1.8.1 1.5.6 2.1.4.5 1 .9 1.7.7 1.1-.1 2.4-1.1 1.3-2h0z"/></g><use xlink:href="#i" x="-128.8" y="-38.3" class="d"/><g class="b"><use xlink:href="#j" x="-128.8" y="-38.3"/><use xlink:href="#k" x="-128.8" y="-38.3"/></g><defs><path id="Ab" d="M129.2 54.2c.3-.1.7-.3 1-.2.6.1 1.5 1.4 1.7 1.9.1.2.5.3.6.2 1.3-.4 2.5-1.7 3.5-2.7.1-.1.2-.2.2-.4 0-.1-.1-.2-.2-.3l-1.5-1.3c-.1-.1-.3-.3-.2-.5 0-.1.1-.2.2-.2.6-.5 1.1-1.3 1.2-2.1s-.2-1.7-.7-2.3c-.4-.4-1-.7-1.5-.9-1-.3-2.6-.1-3.5.3-.5.2-1 .5-1.4.9-1.7 1.4-2.5 2.9-2.8 5-.1.5-.1 1 .2 1.5.2.3.4.6.7.8.2.2.5.4.8.5.5.2 1.1 0 1.7-.2z"/></defs><clipPath id="Ac"><use xlink:href="#Ab"/></clipPath><g clip-path="url(#Ac)" class="b"><path d="M125.7 52.1c-.1-.2-.3-.1-.3.1.1.7.3 1.3.7 1.8.5.6 1.2.9 1.9 1 .4.1.9.1 1.3 0 .2-.1.4-.1.6-.2.1 0 .2-.1.2-.1-.2-.1-.3-.1-.1 0 .3.3.5.7.7 1 .2.4.4.9.9 1.1.4.2.9-.1.9-.5.1-.5-.3-.9-.5-1.3s-.4-.8-.7-1.1c-.6-.6-1.1-.7-1.9-.4-.8.4-1.7.8-2.5.3-.6-.4-1-1.1-1.2-1.7h0z"/></g><defs><path id="Ad" d="M129.2 54.2c.3-.1.7-.3 1-.2.6.1 1.5 1.4 1.7 1.9.1.2.5.3.6.2 1.3-.4 2.5-1.7 3.5-2.7.1-.1.2-.2.2-.4 0-.1-.1-.2-.2-.3l-1.5-1.3c-.1-.1-.3-.3-.2-.5 0-.1.1-.2.2-.2.6-.5 1.1-1.3 1.2-2.1s-.2-1.7-.7-2.3c-.4-.4-1-.7-1.5-.9-1-.3-2.6-.1-3.5.3-.5.2-1 .5-1.4.9-1.7 1.4-2.5 2.9-2.8 5-.1.5-.1 1 .2 1.5.2.3.4.6.7.8.2.2.5.4.8.5.5.2 1.1 0 1.7-.2z"/></defs><clipPath id="Ae"><use xlink:href="#Ad"/></clipPath><g clip-path="url(#Ae)" class="b"><path d="M137 53.2c.1.1.1.1.2 0h.1c.2-.1.2-.3.1-.4-.5-.4-1.1 0-1.6.2l-1.8 1c-.5.4-1.1.9-1.3 1.5-.2.4-.4 1-.2 1.5s.7.7 1.2.5c.3-.2.4-.4.5-.6s0-.4.1-.6c.1-.4.5-.9.9-1.2.4-.4.9-.7 1.4-1.1.3-.3.9-.5 1.1-.9-.5 0-.6 0-.7.1h0z"/></g><g class="c"><use xlink:href="#m" x="-128.8" y="-38.3"/><use xlink:href="#n" x="-128.8" y="-38.3"/><use xlink:href="#o" x="-128.8" y="-38.3"/><use xlink:href="#p" x="-128.8" y="-38.3"/><use xlink:href="#q" x="-128.8" y="-38.3"/><use xlink:href="#r" x="-128.8" y="-38.3"/><use xlink:href="#s" x="-128.8" y="-38.3"/><use xlink:href="#t" x="-128.8" y="-38.3"/></g><g class="e"><path d="M131.9 48.9c.1 0 .1-.1 0-.2-.1 0-.2-.1-.4-.1-.1 0-.2.1-.2.2s.1.2.2.3c.2 0 .3-.1.4-.2 0-.1 0-.2-.1-.2s-.1 0-.2.1h0v-.1c0 .1-.1.1-.1.2h.4z"/><use xlink:href="#u" x="-128.8" y="-38.3"/></g><g class="f"><use xlink:href="#v" x="-128.8" y="-38.3"/><use xlink:href="#w" x="-128.8" y="-38.3"/><use xlink:href="#x" x="-128.8" y="-38.3"/><use xlink:href="#y" x="-128.8" y="-38.3"/><use xlink:href="#z" x="-128.8" y="-38.3"/><use xlink:href="#AA" x="-128.8" y="-38.3"/><use xlink:href="#AB" x="-128.8" y="-38.3"/><use xlink:href="#AC" x="-128.8" y="-38.3"/><path d="M135.5 52.7h0l-1.2-.9-.1.1c.4.3.8.6 1.3.8h0z"/></g><g class="b"><path d="M135 52.4h0l-.9-.9s-.1 0-.1.1c.3.2.6.5 1 .8h0zm-2.8.5h0c.2.5.5 1 .8 1.5h.1l-.9-1.5z"/><use xlink:href="#AD" x="-128.8" y="-38.3"/></g><g class="c"><use xlink:href="#AE" x="-128.8" y="-38.3"/><path d="M133.7 52.3h0c.2.3.5.5.7.8h.1c-.1-.3-.5-.5-.8-.8h0z"/><path d="M133.8 52.8c-.1 0-.1 0 0 0 .1.2.3.4.5.6h.1l-.6-.6z"/><use xlink:href="#AF" x="-128.8" y="-38.3"/><use xlink:href="#AG" x="-128.8" y="-38.3"/><use xlink:href="#AH" x="-128.8" y="-38.3"/><use xlink:href="#AI" x="-128.8" y="-38.3"/><use xlink:href="#AJ" x="-128.8" y="-38.3"/><use xlink:href="#AK" x="-128.8" y="-38.3"/><use xlink:href="#AL" x="-128.8" y="-38.3"/><path d="M129.7 51.8c-.1-.1-.2 0-.2.1.3.5.1.9-.4 1.2-.3.2-.8.3-1.2.2-.4-.2-.9-.7-1-1.2-.1-.4 0-.8-.3-1.2-.1-.2-.4-.1-.5.1-.1.8.1 1.5.6 2.1.4.5 1 .9 1.7.7 1.1-.1 2.4-1.1 1.3-2h0z"/></g><path d="M203.8 43.3c0-.3-.1-.6-.2-.9s-.3-.6-.6-.9c-.4-.3-.9-.5-1.4-.5-2.1-.3-3.8.2-5.6 1.4-.5.3-.9.7-1.2 1.1-.6.8-1.2 2.3-1.2 3.3.1.6.2 1.2.5 1.7.4.7 1.2 1.2 2 1.3s1.7-.1 2.3-.6c.1 0 .2-.1.3-.1.2 0 .3.2.4.3l.9 1.8c0 .1.1.2.2.2.1.1.3 0 .4-.1 1.2-.7 2.7-1.5 3.5-2.7.1-.2.1-.5-.1-.7-.4-.4-1.5-1.6-1.4-2.2.1-.3.3-.6.5-.9.5-.4.8-.9.7-1.5z" class="d"/><path d="M197.4 48.2c-.6.1-.8-.2-.7-.8 0-.3.1-.5.3-.8s.5-.4.6-.7-.1-.5-.3-.6c-.6-.2-1 .4-1.3.8-.2.4-.3 1-.3 1.5.1.4.3.8.6 1 .4.2.9 0 1.2-.3 0 0 0-.1-.1-.1h0zm4.2-3.5c.7-.3.7-1.1.3-1.6-.5-.7-1.5-.8-2.3-.5-.7.3-.2 1.4.5 1.1.3-.1.6-.2.9-.1s.6.5.4.8c-.1.2 0 .4.2.3h0z" class="b"/><defs><path id="Af" d="M203.8 43.3c0-.3-.1-.6-.2-.9s-.3-.6-.6-.9c-.4-.3-.9-.5-1.4-.5-2.1-.3-3.8.2-5.6 1.4-.5.3-.9.7-1.2 1.1-.6.8-1.2 2.3-1.2 3.3.1.6.2 1.2.5 1.7.4.7 1.2 1.2 2 1.3s1.7-.1 2.3-.6c.1 0 .2-.1.3-.1.2 0 .3.2.4.3l.9 1.8c0 .1.1.2.2.2.1.1.3 0 .4-.1 1.2-.7 2.7-1.5 3.5-2.7.1-.2.1-.5-.1-.7-.4-.4-1.5-1.6-1.4-2.2.1-.3.3-.6.5-.9.5-.4.8-.9.7-1.5z"/></defs><clipPath id="Ag"><use xlink:href="#Af"/></clipPath><g clip-path="url(#Ag)" class="b"><path d="M202.1 41c.5.4 1.1 1 1.3 1.6.3.9-.4 1.7-.9 2.3-.5.7-.6 1.2-.1 1.9.2.4.6.7.9 1s.7.8 1.2.9.9-.3.7-.8c-.1-.5-.5-.8-.9-1.1-.3-.3-.6-.6-.8-1 0-.1 0-.1 0 .1 0-.1.1-.1.1-.2.1-.2.3-.4.4-.6.2-.4.3-.8.3-1.2.1-.7 0-1.5-.5-2.1-.4-.5-.9-.9-1.6-1.2-.1.1-.2.3-.1.4h0z"/></g><defs><path id="Ah" d="M203.8 43.3c0-.3-.1-.6-.2-.9s-.3-.6-.6-.9c-.4-.3-.9-.5-1.4-.5-2.1-.3-3.8.2-5.6 1.4-.5.3-.9.7-1.2 1.1-.6.8-1.2 2.3-1.2 3.3.1.6.2 1.2.5 1.7.4.7 1.2 1.2 2 1.3s1.7-.1 2.3-.6c.1 0 .2-.1.3-.1.2 0 .3.2.4.3l.9 1.8c0 .1.1.2.2.2.1.1.3 0 .4-.1 1.2-.7 2.7-1.5 3.5-2.7.1-.2.1-.5-.1-.7-.4-.4-1.5-1.6-1.4-2.2.1-.3.3-.6.5-.9.5-.4.8-.9.7-1.5z"/></defs><clipPath id="Ai"><use xlink:href="#Ah"/></clipPath><g clip-path="url(#Ai)" class="b"><path d="M200.2 52.3c0-.1 0-.1 0 0-.1.1-.1.2-.2.3.4-.1.8-.5 1.1-.8.5-.4.9-.8 1.4-1.1.4-.3.9-.5 1.3-.5.2 0 .4.1.6.1.3 0 .5-.1.7-.3.4-.4.3-.9-.2-1.2-.4-.3-1-.2-1.5-.2-.6.1-1.3.5-1.8.9a6.73 6.73 0 0 0-1.4 1.5c-.3.4-.9.9-.6 1.5.1.2.3.2.4.1l.1-.1c.1-.1.1-.2.1-.2h0z"/></g><g class="c"><path d="M197.7 44c.1.4.4.8.7 1.2l.9 1.4c.2.3.3.5.4.8.1.1.1.3.2.4s.1.1 0 0c.1.1.1.3.2.4.3.6 1 .7 1.5.4.6-.3.7-1 .4-1.5l-1-1.5c-.3-.4-.7-.8-1.1-1.2s-.9-.8-1.5-.9c-.5-.2-.9.1-.7.5h0zm.4 3.3c.4.1.1.6 0 .8-.2.4-.7.5-1 .6-1 .2-1.9-.2-1.9-1.3 0-.7.3-1.5.7-2.1a4.28 4.28 0 0 1 1.4-1.6c.3-.2.4-.8 0-1-1.5-.7-2.4 1.1-2.8 2.3s-.5 2.6.3 3.7 2.6 1.3 3.6.4c.4-.4.7-.9.7-1.5s-.4-.8-.9-.7c-.2.2-.2.4-.1.4h0z"/><path d="M195.8 44.8c.9.1 1.8 0 2.6.3.8.2 1.3-1 .6-1.3-1.1-.5-2.3-.4-3.3.1-.7.4-.3 1.3.4 1.4.6 0 1.1-.2 1.6-.3.4-.1.6.1 1 0-.3-.2-.6-.4-.9-.5h0c.1.5.7.7 1.1.4h0c.4-.2.5-.7.3-1-.3-.5-.9-.5-1.3-.5-.6 0-1.2.5-1.8.4.1.5.2.9.4 1.4.6-.3 1.4-.3 2.1-.1.1-.5.1-1 .2-1.4-1 0-2.1.2-2.9.8-.3 0-.2.3-.1.3h0z"/><path d="M202 41.7c-.8-.9-2.3-.6-3.3-.4-.6.2-1.2.5-1.8.8-.6.4-1.3.9-1.4 1.6-.1.3.1.6.3.7.3.2.7 0 .9-.2s.4-.5.7-.7c.3-.3.6-.5 1-.7 1.1-.7 2.3-1.2 3.6-.9 0 .1.2-.1 0-.2h0z"/><path d="M199.3 41.7c-.7 0-1.2.6-1.5 1.1-.2.2-.3.7-.2 1a1.85 1.85 0 0 0 .7.8c.3.2.7-.1.7-.5 0-.2-.1-.6-.1-.9.1-.3.4-.7.6-1 .2-.2.1-.5-.2-.5h0z"/><path d="M199.2 44.5l-.3-1c-.1-.4.1-.7.2-1 .2-.7-.9-1-1.1-.3-.1.5-.2.9 0 1.4.2.4.5.7.8 1 .3.2.5.1.4-.1h0z"/><path d="M195.1 47.6a3.09 3.09 0 0 1 1.1-2c.3-.3.6-.5.9-.6.3-.2.7-.2 1-.5.2-.3.2-.6-.1-.8-.9-.6-2.1.5-2.6 1.2-.6.8-.9 1.9-.6 2.8 0 0 .2 0 .3-.1h0z"/><path d="M199.4 45.8c-.1-.6-.6-1.3-1.1-1.7-.7-.4-1.8-.7-2.2.2-.1.2-.1.6.2.7.2.1.5.1.7.1s.5.1.7.1c.5.1 1 .3 1.4.7.2.1.3 0 .3-.1h0z"/></g><path d="M197.3 46.2c.1-.1.1-.3.1-.4-.1 0-.2 0-.2.1l.1.1c-.1 0-.1.1-.1.1l.1.1c.1 0 .3-.1.3-.2s-.1-.2-.2-.3-.2 0-.2.1 0 .2.1.4c-.1 0 0 .1 0 0h0zm2.4-2.6s0 .1.1.1c.1.1.3 0 .3-.2 0-.1-.1-.1-.1-.1-.1 0-.2.1-.3.2h0l.1.2c.2.1.3-.2.2-.3h0v.2h-.2c0-.1.1-.2.1-.3h-.2v.2z" class="e"/><g class="f"><path d="M198.9 46.9l1.2 2.2c0 .1.2 0 .1-.1-.3-.8-.8-1.4-1.3-2.1.1-.1 0-.1 0 0h0zm.3-.1c.5.6.8 1.4 1.3 2.1.1.1.2 0 .1-.1-.3-.7-.7-1.5-1.4-2 .1-.1 0-.1 0 0h0zm1.4-.9c.7.8 1.3 1.8 2.2 2.3.1 0 .2-.1.1-.1l-2.3-2.2c0-.1 0 0 0 0h0z"/><path d="M200.5 46.3c.5.7 1.1 1.5 1.9 2 .1.1.2-.1.1-.1l-2-1.9c.1-.1 0 0 0 0h0zm-1.5.4c-.3-.6-.8-1.1-1.4-1.3-.1 0-.1.1-.1.1.2.2.4.3.6.4.4.2.6.5.9.8 0 .1.1.1 0 0h0z"/><path d="M197.7 45.2c.7.3 1.2.9 1.6 1.6 0 .1.1 0 .1-.1-.3-.7-.9-1.3-1.7-1.5 0-.1 0 0 0 0h0zm-1 3.5c-.4 0-.7-.4-1-.7-.3-.4-.2-.7-.1-1.1s.3-.8.5-1.1c.2-.2.4-.3.6-.4.3-.1.4.2.6.3.1.1.2 0 .2-.1-.2-.6-.6-.8-1.2-.6-.7.3-1 1-1.2 1.6-.1.5-.1 1.1.2 1.5s.8.8 1.3.7c.2 0 .1-.1.1-.1h0zm5.5-4.7c.3-1.2-.8-1.9-1.8-2.1-.5-.1-1.3.1-1.5.6-.3.5 0 1.1.5 1.3.2.1.3-.1.3-.2-.2-.4-.6-.6-.2-1 .4-.3.8-.3 1.2-.2.7.2 1.6.7 1.5 1.6h0zm-2.1 6.7c-.1-.5-.3-1-.5-1.4 0-.1-.1 0-.1 0 .2.4.4.9.6 1.4-.1 0 0 0 0 0h0z"/></g><path d="M199.9 50.1l-.6-1.1h-.1c.3.4.5.7.7 1.1h0zm1.3-2.5l1.2 1.2c-.4-.5-.8-.9-1.2-1.2 0-.1 0 0 0 0h0zm-1.6 1.6c.2.5.5.9.6 1.4h.1c-.1-.5-.4-1-.7-1.4h0z" class="b"/><g class="c"><path d="M199.7 48.6c.4.5.5 1.1.9 1.5 0 0 .1 0 .1-.1-.3-.5-.6-1-1-1.4 0-.1-.1-.1 0 0h0zm.5.3c.2.3.3.7.6.9 0 0 .1 0 .1-.1-.3-.2-.4-.6-.7-.8 0-.1 0-.1 0 0h0zm.5.1c.1.2.2.4.4.6h0c-.1-.2-.3-.4-.4-.6 0 0-.1 0 0 0h0zm-.2-1.4c-.2-.3-.3-.7-.6-1-.3-.4-.8-.7-1.2-.9-.7-.4-1.4-.7-2.2-.6-.7.1-1.2.7-1.6 1.3s-.5 1.4.1 2c.1.1.4 0 .3-.2-.4-1.1.5-2.6 1.7-2.5.6 0 1.4.5 1.9.8.3.2.6.4.9.7.2.2.3.4.6.6 0 0 .2-.1.1-.2h0z"/><path d="M195.6 45.4c.6-.3 1.3-.2 1.9-.1.5.1 1.3.3 1.5.8l.4-.4c-1.2-.6-2.4-1.2-3.8-.9-.4.1-.2.6 0 .6 1.3-.3 2.4.4 3.4.9.2.1.6-.1.4-.4-.4-.6-1.2-.8-1.9-1s-1.6-.2-2.2.4c0 0 .1.1.3.1h0z"/><path d="M195.6 45.4s0 .1 0 0h0c.1 0 .2-.1.2-.1.1 0 .1-.1.2-.1h.2c0-.1-.1-.3-.1-.5-.1 0-.3.2-.4.3.2.1.3.1.5.2 0-.1 0-.1-.1-.2 0-.1-.2-.2-.3-.1h-.1c-.1.1-.2.3-.1.5.1 0 .3.1.4 0s.2-.2.2-.4-.2-.4-.4-.2l-.3.3c-.1.1-.2.2-.2.3.1.1.3.2.3 0h0zm7.2-2.5c-.1-.7-.7-1.4-1.5-1.5-.1 0-.2.1-.1.2.2.2.4.3.7.5.4.2.6.5.8.9 0 0 .2 0 .1-.1h0z"/><path d="M202.7 42.7c-.5-.6-1-1-1.8-1.1-.7-.1-1.4-.1-1.8.5-.4.5-.4 1.1-.1 1.7.2.5.6 1.2 1.1 1.6.2.2.4 0 .4-.2-.2-.8-1.2-1.4-1-2.3.1-.7.7-.8 1.3-.8.8 0 1.4.2 2 .7-.2.1-.1 0-.1-.1h0z"/><path d="M200.6 45.4l-1-1.8c-.1-.4-.1-.8.1-1.2.2-.3.5-.5.7-.7.1-.1-.1-.3-.2-.3-.9.2-1.3 1.1-1.2 1.9.1.9.9 1.5 1.5 2.2l.1-.1z"/><path d="M199.3 42.9c.3-.2.5-.6.7-.8.3-.3.6-.4.8-.8.1-.1-.1-.3-.2-.2-.7.2-1.4 1.1-1.6 1.7.1.1.2.2.3.1h0z"/><path d="M200.7 44.9c.6 1.2 1.8.2 2.3-.6.3-.6.1-1.3-.2-1.8-.5-.7-1.1-1-1.9-1.2-.3 0-.4.2-.2.4.3.4.7.3 1.1.6.4.2.8.8.9 1.3.1.4-.2.8-.5 1.1-.4.4-.8.5-1.2.1-.2-.1-.3 0-.3.1h0z"/></g></svg>