<svg xmlns="http://www.w3.org/2000/svg" xmlns:xlink="http://www.w3.org/1999/xlink" viewBox="0 0 389 157" xmlns:v="https://vecta.io/nano"><style><![CDATA[.N{fill:#2d3228}.O{fill:#46463c}.P{fill:#8c8c78}]]></style><path d="M278.4 90.4c-3.2-3.6-3.6-8.3-.4-11.2 3.3-2.9 7.9-1.9 11.1 1.7s3 8.9.4 11.2-7.9 1.8-11.1-1.7z" class="N"/><path d="M289.7 87.4c-.1 1.6-.7 2.9-1.7 3.8-2.2 2-6.9 1.7-9.8-1.6-1.6-1.8-2.5-4.1-2.3-6.1.1-1.5.8-2.8 1.9-3.8 1.4-1.2 3-1.7 4.8-1.4s3.6 1.3 5 2.9c1.5 1.8 2.3 4 2.1 6.2z" class="O"/><g class="P"><ellipse transform="matrix(.5416 -.8406 .8406 .5416 58.4163 272.1313)" cx="278.7" cy="82.5" rx="2.4" ry="1.8"/><ellipse transform="matrix(.996 -.089271 .089271 .996 -6.0586 25.5401)" cx="282.5" cy="80.5" rx="1.2" ry="1"/></g><path d="M89.5 60.7c3.3-3.4 8.1-4.2 11.1-1.2 3.1 3 2.5 7.8-.8 11.2s-8.6 3.7-11.1 1.2c-2.6-2.4-2.5-7.7.8-11.2z" class="N"/><path d="M93.2 71.8c-1.6 0-3-.5-3.9-1.4-2.2-2-2.2-6.7.8-9.9 1.7-1.8 3.9-2.8 5.9-2.8 1.5 0 2.9.6 4 1.6 1.3 1.3 1.9 2.9 1.7 4.7s-1 3.6-2.5 5.2c-1.6 1.6-3.8 2.6-6 2.6z" class="O"/><g class="P"><ellipse transform="matrix(.4777 -.8785 .8785 .4777 -2.3097 117.0692)" cx="97.3" cy="60.5" rx="1.8" ry="2.4"/><ellipse transform="matrix(.9866 -.163 .163 .9866 -9.1108 17.0966)" cx="99.6" cy="64.1" rx="1" ry="1.2"/></g><path d="M147.9 46.1c2.4-2.4 5.8-3 8-.9 2.2 2.2 1.8 5.6-.6 8s-6.2 2.6-8 .9c-1.8-1.8-1.7-5.5.6-8z" class="N"/><use xlink:href="#B" class="O"/><g class="P"><ellipse transform="matrix(.4777 -.8785 .8785 .4777 39.7975 158.8647)" cx="153.5" cy="46" rx="1.3" ry="1.7"/><ellipse transform="matrix(.9866 -.163 .163 .9866 -5.8299 25.9512)" cx="155.2" cy="48.5" rx=".7" ry=".8"/></g><path d="M328.2 65.5c2.4-2.4 5.8-3 8-.9 2.2 2.2 1.8 5.6-.6 8s-6.2 2.6-8 .9c-1.8-1.8-1.7-5.6.6-8z" class="N"/><use xlink:href="#B" x="180.3" y="19.4" class="O"/><g class="P"><ellipse transform="matrix(.4777 -.8785 .8785 .4777 116.9576 327.3163)" cx="333.8" cy="65.3" rx="1.3" ry="1.7"/><ellipse transform="matrix(.9866 -.163 .163 .9866 -6.5768 55.5749)" cx="335.4" cy="67.9" rx=".7" ry=".8"/></g><path d="M151.4 98.3c-4.5-1.4-7.4-5.3-6.1-9.4 1.3-4.2 5.8-5.7 10.4-4.3 4.5 1.4 7.2 6 6.1 9.4s-5.9 5.7-10.4 4.3z" class="N"/><path d="M159.6 90c.7 1.4.9 2.9.5 4.1-.9 2.8-5 5-9.2 3.7-2.3-.7-4.2-2.2-5.1-4-.7-1.3-.8-2.8-.4-4.3.6-1.7 1.7-3 3.4-3.6s3.7-.7 5.8-.1c2.2.7 4 2.2 5 4.2z" class="O"/><g class="P"><ellipse transform="matrix(.032267 -.9995 .9995 .032267 51.5548 236.0231)" cx="147.7" cy="91.4" rx="2.4" ry="1.8"/><ellipse transform="matrix(.8083 -.5887 .5887 .8083 -22.9419 105.068)" cx="149.9" cy="87.8" rx="1.2" ry="1"/></g><path d="M231.2 44.2c2.4-2.4 5.8-3 8-.9 2.2 2.2 1.8 5.6-.6 8s-6.2 2.6-8 .9c-1.8-1.8-1.8-5.5.6-8z" class="N"/><path d="M233.8 52.1c-1.1 0-2.1-.4-2.8-1-1.5-1.5-1.6-4.8.6-7.1 1.2-1.3 2.8-2 4.2-2 1.1 0 2.1.4 2.8 1.1.9.9 1.3 2.1 1.2 3.4s-.7 2.6-1.8 3.7c-1 1.2-2.6 1.9-4.2 1.9z" class="O"/><g class="P"><ellipse transform="matrix(.4777 -.8785 .8785 .4777 84.9778 231)" cx="236.8" cy="44" rx="1.3" ry="1.7"/><ellipse transform="matrix(.9866 -.163 .163 .9866 -4.4142 39.488)" cx="238.4" cy="46.6" rx=".7" ry=".8"/></g><defs ><path id="B" d="M150.6 54c-1.1 0-2.1-.4-2.8-1-1.5-1.5-1.6-4.8.6-7.1 1.2-1.3 2.8-2 4.2-2 1.1 0 2.1.4 2.8 1.1.9.9 1.3 2.1 1.2 3.4s-.7 2.6-1.8 3.7c-1.1 1.2-2.6 1.9-4.2 1.9z"/></defs></svg>