<?xml version="1.0" encoding="utf-8"?>
<!-- Generator: Adobe Illustrator 21.0.0, SVG Export Plug-In . SVG Version: 6.00 Build 0)  -->
<svg version="1.1" xmlns="http://www.w3.org/2000/svg" xmlns:xlink="http://www.w3.org/1999/xlink" x="0px" y="0px"
	 viewBox="0 0 389 157" style="enable-background:new 0 0 389 157;" xml:space="preserve">
<style type="text/css">
	.st0{display:none;}
	.st1{display:inline;}
	.st2{fill:#732A13;}
	.st3{fill:#6C151C;}
	.st4{fill:#F6C073;}
	.st5{fill:#F1A12E;}
	.st6{opacity:0.3;fill:#FBE0BA;enable-background:new    ;}
	.st7{fill:#6F4026;}
	.st8{fill:#F6C278;}
	.st9{fill:#AB1717;}
	.st10{fill:#2D3228;}
	.st11{fill:#46463C;}
	.st12{fill:#8C8C78;}
</style>
<g id="Слой_1" class="st0">
	<g id="Layer_1" class="st1">
		<g>
			
				<ellipse transform="matrix(0.9998 -1.910948e-02 1.910948e-02 0.9998 -1.7337 3.9668)" class="st2" cx="206.7" cy="92.7" rx="175.1" ry="48.7"/>
			
				<ellipse transform="matrix(0.9998 -1.911576e-02 1.911576e-02 0.9998 -1.5262 3.9298)" class="st3" cx="204.8" cy="81.8" rx="161" ry="44.8"/>
			
				<ellipse transform="matrix(0.9998 -1.911913e-02 1.911913e-02 0.9998 -1.4442 3.9373)" class="st4" cx="205.2" cy="77.5" rx="158.3" ry="44.6"/>
			
				<ellipse transform="matrix(0.9998 -1.910377e-02 1.910377e-02 0.9998 -1.317 3.9311)" class="st5" cx="205.1" cy="70.9" rx="145.6" ry="32.3"/>
			
				<ellipse transform="matrix(0.9998 -1.911114e-02 1.911114e-02 0.9998 -1.3424 3.9328)" class="st5" cx="205.1" cy="72.2" rx="139.4" ry="30.9"/>
			<path class="st6" d="M204.5,41.3c-77,1.5-139.1,16.5-138.8,33.6s63,29.7,140,28.3c77-1.5,139.1-16.5,138.8-33.6
				S281.5,39.9,204.5,41.3z M76.5,69.9c-0.4-0.2-0.5-0.7-0.3-1.1c3.1-9.1,15.8-8,22.9-11.7c0.3-0.2,0.6-0.2,0.8-0.1
				c15-5,30.2-7.7,46.5-8.8c9-0.6,18.1-0.6,27.1-0.7c5.3-0.1,12.1-0.5,16.1,3.6c0.6,0.6-0.1,1.5-0.7,1.7c-8,3.7-17.1,2.5-25.7,3.3
				c-11,1-22.1,2.7-32.9,4.8c-10.9,2.1-22.2,3.3-33,6.1C90.6,68.8,83.3,72.4,76.5,69.9z M180.5,95.3c-6.8,1.8-14,1.7-21,1.7
				c-9.1,0-18.1-0.1-27.2,0c-5.6,0-12.9,0-17.3-4.1c-4.6-4.3-9.2-3.7-15-3.6c-4.6,0-17.9,0.3-17.1-7.4c0.6-5.4,10.5-7.5,14.4-8.5
				c8.1-2.1,16.5-3.3,24.8-4c3.8-0.3,7.4-0.5,11.1-1.1c0.1-0.1,0.3-0.2,0.4-0.2c12.3-2.4,24.7-4,37.2-4.6c8.1-0.4,22-1.8,22.4,9.6
				C193.7,82.5,190.7,92.5,180.5,95.3z M213.5,49.7c7-6.9,18.9-4.7,27.8-6c0.5-0.1,0.7,0.1,0.8,0.4c6,0,12.1,0.7,18.1,1.3
				c6.4,0.6,16.7,0.8,21.1,6.5c0.4,0.6,0.1,1.6-0.7,1.7c-12.9,3.4-25.5-0.7-38.5,0c-8.7,0.5-20.9,2.9-28.6-2.4
				C213,50.8,213,50.1,213.5,49.7z M261.1,84.1c-1.6,4.3-7.6,5.8-11.6,6.6c-7.1,1.4-14.7,2.8-21.8,3.4c-7,0.6-12.6-1.2-15.8-7.8
				c-1.4-3-6.8-16-3.7-20.4c0.1-0.1,0.2-0.3,0.3-0.4c0.4-0.4,0.9-0.7,1.6-0.9c2-0.8,4.1-0.6,6.5,0.2c5.2,1.6,10.6,2.4,15.9,3.9
				c7,1.9,14.2,4.3,20.9,7.3C256.2,77.1,262.7,79.8,261.1,84.1z M300.7,71.4c-4.1,5.6-14.6,4.6-20.5,4.1
				c-11.3-0.9-22.3-2.5-33.2-5.8c-3.7-1.1-18.2-3.5-18.9-8.4c-0.3-2.3,2.3-3.5,5.3-4.1c9.4-3.8,19.3,0,28.9,0.7
				c5.4,0.4,10.9,1.2,16.2,2.1C281.8,60.5,306.3,63.8,300.7,71.4z"/>
			<path class="st7" d="M38.5,90c0,0-6.8,2.4-0.1,15.3s86.2,37.6,160.7,32.7c0,0,51.9,0,52.2-4.1s-19.8-4.3-19.8-4.3
				s-23.5,0.7-33.8,0.8C187.5,130.4,54.8,131.5,38.5,90z"/>
			<path class="st8" d="M55.9,70.2c0,0-3.4-0.2-6.1,6.4c-2.7,6.6,7.9,22.9,55,33.2c47,10.3,115.1,12.6,150.4,6.2s18.1-15.1,0.9-12.8
				c-17.2,2.3-17.2,2.3-17.2,2.3S153,108.1,110,99.9C69.2,92.2,55.1,87.1,55.9,70.2z"/>
		</g>
	</g>
	<g id="Слой_3" class="st1">
		<path class="st9" d="M145.6,45.9c0,0,46.5-2,75.9-1.5c19.1,0.2,41.2-3.1,77.1,5.1c17.5,3.8,28.6,7.5,34.6,10.6
			c3.6,1.9,6,5.6,5.9,9.7c-0.1,6.2-6.3,15.6-56.8,26c-49.7,4.8-55.4,4.6-77.4,3.8c-24.5,0.9-52.2,3.2-76.1-2.4
			c-26.9-5.6-68.6-13.4-56.1-25.5C80.6,64.8,90.8,54.2,145.6,45.9z"/>
	</g>
</g>
<g id="Слой_2">
	<g>
		<path class="st10" d="M278.4,90.4c-3.2-3.6-3.6-8.3-0.4-11.2c3.3-2.9,7.9-1.9,11.1,1.7c3.2,3.6,3,8.9,0.4,11.2
			C286.9,94.4,281.6,93.9,278.4,90.4z"/>
		<path class="st11" d="M289.7,87.4c-0.1,1.6-0.7,2.9-1.7,3.8c-2.2,2-6.9,1.7-9.8-1.6c-1.6-1.8-2.5-4.1-2.3-6.1
			c0.1-1.5,0.8-2.8,1.9-3.8c1.4-1.2,3-1.7,4.8-1.4c1.8,0.3,3.6,1.3,5,2.9C289.1,83,289.9,85.2,289.7,87.4z"/>
		
			<ellipse transform="matrix(0.5416 -0.8406 0.8406 0.5416 58.3902 272.1783)" class="st12" cx="278.8" cy="82.5" rx="2.4" ry="1.8"/>
		
			<ellipse transform="matrix(0.996 -8.927065e-02 8.927065e-02 0.996 -6.0619 25.5428)" class="st12" cx="282.5" cy="80.5" rx="1.2" ry="1"/>
	</g>
	<g>
		<path class="st10" d="M102.2,75.4c3.3-3.4,8.1-4.2,11.1-1.2c3.1,3,2.5,7.8-0.8,11.2c-3.3,3.4-8.6,3.7-11.1,1.2
			C98.8,84.2,98.9,78.9,102.2,75.4z"/>
		<path class="st11" d="M105.9,86.5c-1.6,0-3-0.5-3.9-1.4c-2.2-2-2.2-6.7,0.8-9.9c1.7-1.8,3.9-2.8,5.9-2.8c1.5,0,2.9,0.6,4,1.6
			c1.3,1.3,1.9,2.9,1.7,4.7c-0.2,1.8-1,3.6-2.5,5.2C110.3,85.5,108.1,86.5,105.9,86.5z"/>
		<ellipse transform="matrix(0.4777 -0.8785 0.8785 0.4777 -8.6403 135.9149)" class="st12" cx="110" cy="75.2" rx="1.8" ry="2.4"/>
		<ellipse transform="matrix(0.9866 -0.163 0.163 0.9866 -11.3454 19.354)" class="st12" cx="112.3" cy="78.8" rx="1" ry="1.2"/>
	</g>
	<g>
		<path class="st10" d="M168.6,54.1c2.4-2.4,5.8-3,8-0.9c2.2,2.2,1.8,5.6-0.6,8c-2.4,2.4-6.2,2.6-8,0.9
			C166.2,60.3,166.3,56.6,168.6,54.1z"/>
		<path class="st11" d="M171.3,62c-1.1,0-2.1-0.4-2.8-1c-1.5-1.5-1.6-4.8,0.6-7.1c1.2-1.3,2.8-2,4.2-2c1.1,0,2.1,0.4,2.8,1.1
			c0.9,0.9,1.3,2.1,1.2,3.4c-0.1,1.3-0.7,2.6-1.8,3.7C174.4,61.3,172.9,62,171.3,62z"/>
		
			<ellipse transform="matrix(0.4777 -0.8785 0.8785 0.4777 43.608 181.2395)" class="st12" cx="174.2" cy="53.9" rx="1.3" ry="1.7"/>
		<ellipse transform="matrix(0.9866 -0.163 0.163 0.9866 -6.8595 29.4218)" class="st12" cx="175.9" cy="56.5" rx="0.7" ry="0.8"/>
	</g>
	<g>
		<path class="st10" d="M326.4,59.8c2.4-2.4,5.8-3,8-0.9c2.2,2.2,1.8,5.6-0.6,8c-2.4,2.4-6.2,2.6-8,0.9
			C324,66,324.1,62.2,326.4,59.8z"/>
		<path class="st11" d="M329.1,67.7c-1.1,0-2.1-0.4-2.8-1c-1.5-1.5-1.6-4.8,0.6-7.1c1.2-1.3,2.8-2,4.2-2c1.1,0,2.1,0.4,2.8,1.1
			c0.9,0.9,1.3,2.1,1.2,3.4c-0.1,1.3-0.7,2.6-1.8,3.7C332.2,67,330.7,67.7,329.1,67.7z"/>
		<ellipse transform="matrix(0.4777 -0.8785 0.8785 0.4777 121.024 322.8274)" class="st12" cx="332" cy="59.6" rx="1.3" ry="1.7"/>
		<ellipse transform="matrix(0.9866 -0.163 0.163 0.9866 -5.6759 55.2178)" class="st12" cx="333.6" cy="62.2" rx="0.7" ry="0.8"/>
	</g>
	<g>
		<path class="st10" d="M215.3,91.5c-4.5-1.4-7.4-5.3-6.1-9.4c1.3-4.2,5.8-5.7,10.4-4.3c4.5,1.4,7.2,6,6.1,9.4
			C224.6,90.6,219.8,92.9,215.3,91.5z"/>
		<path class="st11" d="M223.5,83.2c0.7,1.4,0.9,2.9,0.5,4.1c-0.9,2.8-5,5-9.2,3.7c-2.3-0.7-4.2-2.2-5.1-4c-0.7-1.3-0.8-2.8-0.4-4.3
			c0.6-1.7,1.7-3,3.4-3.6s3.7-0.7,5.8-0.1C220.7,79.7,222.5,81.2,223.5,83.2z"/>
		
			<ellipse transform="matrix(3.226731e-02 -0.9995 0.9995 3.226731e-02 120.1835 293.3733)" class="st12" cx="211.6" cy="84.6" rx="2.4" ry="1.8"/>
		<ellipse transform="matrix(0.8083 -0.5887 0.5887 0.8083 -6.6974 141.3804)" class="st12" cx="213.8" cy="81" rx="1.2" ry="1"/>
	</g>
	<g>
		<path class="st10" d="M261.9,54.1c2.4-2.4,5.8-3,8-0.9c2.2,2.2,1.8,5.6-0.6,8s-6.2,2.6-8,0.9C259.5,60.3,259.5,56.6,261.9,54.1z"
			/>
		<path class="st11" d="M264.5,62c-1.1,0-2.1-0.4-2.8-1c-1.5-1.5-1.6-4.8,0.6-7.1c1.2-1.3,2.8-2,4.2-2c1.1,0,2.1,0.4,2.8,1.1
			c0.9,0.9,1.3,2.1,1.2,3.4c-0.1,1.3-0.7,2.6-1.8,3.7C267.7,61.3,266.1,62,264.5,62z"/>
		
			<ellipse transform="matrix(0.4777 -0.8785 0.8785 0.4777 92.2963 263.1357)" class="st12" cx="267.5" cy="53.9" rx="1.3" ry="1.7"/>
		<ellipse transform="matrix(0.9866 -0.163 0.163 0.9866 -5.6127 44.6172)" class="st12" cx="269.1" cy="56.5" rx="0.7" ry="0.8"/>
	</g>
</g>
</svg>
