<?xml version="1.0" encoding="utf-8"?>
<!-- Generator: Adobe Illustrator 21.0.0, SVG Export Plug-In . SVG Version: 6.00 Build 0)  -->
<svg version="1.1" xmlns="http://www.w3.org/2000/svg" xmlns:xlink="http://www.w3.org/1999/xlink" x="0px" y="0px"
	 viewBox="0 0 389 157" style="enable-background:new 0 0 389 157;" xml:space="preserve">
<style type="text/css">
	.st0{display:none;}
	.st1{display:inline;}
	.st2{fill:#732A13;}
	.st3{fill:#6C151C;}
	.st4{fill:#F6C073;}
	.st5{fill:#F1A12E;}
	.st6{opacity:0.3;fill:#FBE0BA;enable-background:new    ;}
	.st7{fill:#6F4026;}
	.st8{fill:#F6C278;}
	.st9{fill:#AB1717;}
	.st10{fill:#F0E4C4;}
	.st11{fill:#E4CD9B;}
	.st12{fill:#FFF4DF;}
</style>
<g id="Слой_1" class="st0">
	<g id="Layer_1" class="st1">
		<g>
			
				<ellipse transform="matrix(0.9998 -1.910948e-02 1.910948e-02 0.9998 -1.7337 3.9668)" class="st2" cx="206.7" cy="92.7" rx="175.1" ry="48.7"/>
			
				<ellipse transform="matrix(0.9998 -1.911576e-02 1.911576e-02 0.9998 -1.5262 3.9298)" class="st3" cx="204.8" cy="81.8" rx="161" ry="44.8"/>
			
				<ellipse transform="matrix(0.9998 -1.911913e-02 1.911913e-02 0.9998 -1.4442 3.9373)" class="st4" cx="205.2" cy="77.5" rx="158.3" ry="44.6"/>
			
				<ellipse transform="matrix(0.9998 -1.910377e-02 1.910377e-02 0.9998 -1.317 3.9311)" class="st5" cx="205.1" cy="70.9" rx="145.6" ry="32.3"/>
			
				<ellipse transform="matrix(0.9998 -1.911114e-02 1.911114e-02 0.9998 -1.3424 3.9328)" class="st5" cx="205.1" cy="72.2" rx="139.4" ry="30.9"/>
			<path class="st6" d="M204.5,41.3c-77,1.5-139.1,16.5-138.8,33.6s63,29.7,140,28.3c77-1.5,139.1-16.5,138.8-33.6
				S281.5,39.9,204.5,41.3z M76.5,69.9c-0.4-0.2-0.5-0.7-0.3-1.1c3.1-9.1,15.8-8,22.9-11.7c0.3-0.2,0.6-0.2,0.8-0.1
				c15-5,30.2-7.7,46.5-8.8c9-0.6,18.1-0.6,27.1-0.7c5.3-0.1,12.1-0.5,16.1,3.6c0.6,0.6-0.1,1.5-0.7,1.7c-8,3.7-17.1,2.5-25.7,3.3
				c-11,1-22.1,2.7-32.9,4.8c-10.9,2.1-22.2,3.3-33,6.1C90.6,68.8,83.3,72.4,76.5,69.9z M180.5,95.3c-6.8,1.8-14,1.7-21,1.7
				c-9.1,0-18.1-0.1-27.2,0c-5.6,0-12.9,0-17.3-4.1c-4.6-4.3-9.2-3.7-15-3.6c-4.6,0-17.9,0.3-17.1-7.4c0.6-5.4,10.5-7.5,14.4-8.5
				c8.1-2.1,16.5-3.3,24.8-4c3.8-0.3,7.4-0.5,11.1-1.1c0.1-0.1,0.3-0.2,0.4-0.2c12.3-2.4,24.7-4,37.2-4.6c8.1-0.4,22-1.8,22.4,9.6
				C193.7,82.5,190.7,92.5,180.5,95.3z M213.5,49.7c7-6.9,18.9-4.7,27.8-6c0.5-0.1,0.7,0.1,0.8,0.4c6,0,12.1,0.7,18.1,1.3
				c6.4,0.6,16.7,0.8,21.1,6.5c0.4,0.6,0.1,1.6-0.7,1.7c-12.9,3.4-25.5-0.7-38.5,0c-8.7,0.5-20.9,2.9-28.6-2.4
				C213,50.8,213,50.1,213.5,49.7z M261.1,84.1c-1.6,4.3-7.6,5.8-11.6,6.6c-7.1,1.4-14.7,2.8-21.8,3.4c-7,0.6-12.6-1.2-15.8-7.8
				c-1.4-3-6.8-16-3.7-20.4c0.1-0.1,0.2-0.3,0.3-0.4c0.4-0.4,0.9-0.7,1.6-0.9c2-0.8,4.1-0.6,6.5,0.2c5.2,1.6,10.6,2.4,15.9,3.9
				c7,1.9,14.2,4.3,20.9,7.3C256.2,77.1,262.7,79.8,261.1,84.1z M300.7,71.4c-4.1,5.6-14.6,4.6-20.5,4.1
				c-11.3-0.9-22.3-2.5-33.2-5.8c-3.7-1.1-18.2-3.5-18.9-8.4c-0.3-2.3,2.3-3.5,5.3-4.1c9.4-3.8,19.3,0,28.9,0.7
				c5.4,0.4,10.9,1.2,16.2,2.1C281.8,60.5,306.3,63.8,300.7,71.4z"/>
			<path class="st7" d="M38.5,90c0,0-6.8,2.4-0.1,15.3s86.2,37.6,160.7,32.7c0,0,51.9,0,52.2-4.1s-19.8-4.3-19.8-4.3
				s-23.5,0.7-33.8,0.8C187.5,130.4,54.8,131.5,38.5,90z"/>
			<path class="st8" d="M55.9,70.2c0,0-3.4-0.2-6.1,6.4c-2.7,6.6,7.9,22.9,55,33.2c47,10.3,115.1,12.6,150.4,6.2s18.1-15.1,0.9-12.8
				c-17.2,2.3-17.2,2.3-17.2,2.3S153,108.1,110,99.9C69.2,92.2,55.1,87.1,55.9,70.2z"/>
		</g>
	</g>
	<g id="Слой_3" class="st1">
		<path class="st9" d="M145.6,45.9c0,0,46.5-2,75.9-1.5c19.1,0.2,41.2-3.1,77.1,5.1c17.5,3.8,28.6,7.5,34.6,10.6
			c3.6,1.9,6,5.6,5.9,9.7c-0.1,6.2-6.3,15.6-56.8,26c-49.7,4.8-55.4,4.6-77.4,3.8c-24.5,0.9-52.2,3.2-76.1-2.4
			c-26.9-5.6-68.6-13.4-56.1-25.5C80.6,64.8,90.8,54.2,145.6,45.9z"/>
	</g>
</g>
<g id="Слой_2">
	<g>
		<path class="st10" d="M101,64.2c0.5-0.3,1.1-1.2,1.5-0.5c0.3,0.5-0.2,1.4,0.2,2c0.2,0.4,0.8,0.6,1.1,0.8c0.8,0.7,1.6,1.7,2,2.7
			c0.7,1.9-0.1,4.9-1.1,6.6c-1.3,2.1-3.3,4.5-5.9,5.1c-1.2,0.3-2.5,0.4-3.7,0.4c-1.1-0.1-2-0.5-3.1-0.3c-0.5,0.1-1.1,0.4-1.5,0.1
			c-0.4-0.2-0.4-0.7-0.6-1c-0.9-1.4-2.5-2.6-2.9-4.3c-0.2-0.9-0.3-2-0.1-3c0.3-1.8,1.4-3.6,2.7-4.9c1-1.1,2.1-1.7,3.3-2.4
			c1-0.6,2.3-1,3.5-1C97.9,64.5,99.5,64.9,101,64.2z"/>
		<path class="st11" d="M90.4,79.8c-0.1-0.4-0.3-0.8-0.5-1.2c-0.3-0.4-0.5-0.9-0.8-1.3c-0.4-1-0.8-2-0.8-3.1
			c-0.1-1.8,0.8-3.6,1.9-4.9c1.2-1.5,2.7-2.5,4.5-3.1c0.9-0.3,1.9-0.5,2.9-0.6c0.8-0.2,1.7-0.2,2.5-0.4c0.5-0.1,1.1-0.3,1.5-0.7
			c0,0,0-0.1-0.1-0.1c-0.4,0.2-0.8,0.2-1.2,0.3c-0.4,0.1-0.9,0.1-1.3,0.2c-0.9,0.1-1.8,0.2-2.7,0.3c-1.9,0.3-3.6,1-5,2.2
			c-1.4,1.1-2.5,2.6-3.1,4.2c-0.7,1.8-0.5,3.6,0.3,5.4c0.2,0.5,0.5,1,0.8,1.5c0.3,0.5,0.7,0.9,0.9,1.4C90.2,80.1,90.4,80,90.4,79.8
			L90.4,79.8z"/>
		<path class="st11" d="M102.2,64C102.2,64,102.2,64,102.2,64C102.2,64,102.2,64,102.2,64C102.2,64,102.1,64,102.2,64
			c-0.1,0.1-0.1,0.2-0.1,0.2s0.1,0.1,0.1,0.1c0.1-0.1,0.1-0.1,0.1-0.1C102.3,64.1,102.3,64,102.2,64L102.2,64L102.2,64
			C102.2,64,102.2,63.9,102.2,64L102.2,64z"/>
		<path class="st11" d="M101.9,64.5c-0.4,0.7,0.1,1.5,0.5,2.1c0.6,0.8,1.2,1.5,1.5,2.4c0.6,1.6,0.5,3.4-0.1,5c-0.6,1.6-1.8,3-3.1,4
			c-1.5,1.2-3.2,1.7-5.1,1.7c-0.9,0-1.8-0.1-2.7-0.1c-0.8,0-1.6,0.1-2.2,0.7c-0.2,0.2,0.1,0.4,0.2,0.3c0.7-0.4,1.5-0.5,2.3-0.5
			c0.9,0,1.9,0.1,2.8,0.1c1.8-0.1,3.5-0.7,4.9-1.8c2.6-1.9,4.3-5.2,3.7-8.5c-0.2-0.9-0.6-1.8-1.2-2.6c-0.5-0.8-1.8-1.7-1.5-2.8
			C102.1,64.5,102,64.4,101.9,64.5L101.9,64.5z"/>
		<path class="st11" d="M101.1,65.2c-0.8,0.3-1.5,0.7-2.2,1.2c-0.7,0.5-1.5,0.9-2.2,1.4c-0.7,0.5-1.4,1-2.1,1.6
			c-0.7,0.5-1.3,1-1.9,1.6c0,0,0,0.1,0,0c0.7-0.5,1.3-1.1,2-1.6c0.7-0.5,1.5-1,2.2-1.4c0.7-0.4,1.4-0.9,2.1-1.3
			S100.6,65.8,101.1,65.2C101.2,65.2,101.2,65.2,101.1,65.2L101.1,65.2z"/>
		<path class="st11" d="M91.9,71.9c-1.1,1.3-1.7,2.7-1.8,4.4c0,0.8,0.1,1.6,0.1,2.4c0,0.4,0.1,0.8,0.1,1.3c0,0.3-0.1,0.9,0.2,1.2
			c0.1,0.1,0.2,0.1,0.2,0c0.2-0.2,0.1-0.7,0.1-1c0-0.4-0.1-0.8-0.1-1.3c-0.1-0.8-0.2-1.5-0.2-2.3C90.5,74.8,90.9,73.3,91.9,71.9
			C92,71.9,92,71.8,91.9,71.9L91.9,71.9z"/>
		<path class="st11" d="M101.3,65.4c-0.3,0.7-0.3,1.4-0.4,2.1c-0.1,0.7-0.2,1.5-0.2,2.2c-0.1,1.3,0,2.5-0.7,3.7
			c-1.3,2.1-3.6,3.5-5.7,4.8c-0.1,0,0,0.2,0.1,0.1c2.3-1,4.5-2.5,5.9-4.6c0.7-1.1,0.8-2.4,0.9-3.6c0-0.8,0.1-1.5,0.1-2.3
			c0.1-0.8,0.3-1.6,0.2-2.4C101.4,65.3,101.3,65.3,101.3,65.4L101.3,65.4z"/>
		<path class="st11" d="M93.5,78.6c-0.1,0-0.1,0.1-0.2,0.1l0,0C93.3,78.7,93.4,78.7,93.5,78.6L93.5,78.6L93.5,78.6z"/>
		<path class="st11" d="M92.2,79.2c-0.3,0.2-0.6,0.4-0.9,0.7c-0.3,0.2-0.6,0.5-0.7,0.8c0,0.1,0.1,0.1,0.1,0.1
			c0.3-0.1,0.5-0.5,0.7-0.7c0.3-0.3,0.6-0.5,0.9-0.7C92.6,79.4,92.4,79.1,92.2,79.2L92.2,79.2z"/>
		<path class="st11" d="M99.6,67.8c-0.2,0.3-0.4,0.7-0.6,1c-0.2,0.3-0.5,0.5-0.6,0.9c0,0.1,0.1,0.1,0.1,0.1c0.2-0.3,0.4-0.6,0.6-0.9
			c0.2-0.3,0.5-0.6,0.7-1C99.9,67.7,99.6,67.6,99.6,67.8L99.6,67.8z"/>
		<path class="st11" d="M96.6,71.7c-0.7,1-1.5,1.9-2.2,2.9c-0.4,0.5-0.7,1-1.1,1.5c-0.3,0.5-0.7,1-1,1.6c0,0.1,0.1,0.2,0.1,0.1
			c0.4-0.5,0.7-1,1-1.5c0.4-0.5,0.7-1,1.1-1.5c0.8-1,1.5-2,2.3-3C96.9,71.7,96.7,71.6,96.6,71.7L96.6,71.7z"/>
		<g>
			<g>
				<path class="st11" d="M91.4,79.5C91.4,79.5,91.4,79.5,91.4,79.5C91.4,79.5,91.4,79.5,91.4,79.5L91.4,79.5z"/>
			</g>
		</g>
		<path class="st12" d="M91.6,78.5c0.1-0.8,0.4-1.6,0.6-2.4c0-0.1-0.1-0.2-0.2-0.1c-0.2,0.3-0.4,0.7-0.5,1.1
			c-0.1,0.4-0.1,0.9-0.1,1.3C91.4,78.6,91.6,78.7,91.6,78.5L91.6,78.5z"/>
		<path class="st12" d="M99.6,66.9c-1.4,1.1-2.7,2.1-4,3.3c-0.6,0.6-1.2,1.2-1.7,1.8c-0.5,0.6-1,1.4-1.3,2.1c0,0.1,0.1,0.2,0.2,0.1
			c0.5-0.7,0.9-1.4,1.4-2.1c0.5-0.7,1.1-1.3,1.7-1.8c1.2-1.2,2.6-2.2,3.8-3.3C99.8,66.9,99.7,66.8,99.6,66.9L99.6,66.9z"/>
		<path class="st12" d="M100.4,67.2c-0.2,0.5-0.4,1-0.5,1.5c-0.2,0.6-0.3,1.2-0.5,1.7c-0.3,0.9-0.9,1.8-1.5,2.6
			c-0.6,0.7-1.3,1.4-1.9,2.1s-1.4,1.3-2,2c-0.1,0.1,0.1,0.1,0.1,0.1c0.8-0.6,1.5-1.3,2.2-2c0.7-0.7,1.4-1.4,2-2.1
			c0.6-0.8,1.1-1.6,1.4-2.5c0.2-0.6,0.4-1.2,0.5-1.7c0.2-0.5,0.3-1.1,0.4-1.7C100.5,67.2,100.4,67.2,100.4,67.2L100.4,67.2z"/>
		<path class="st12" d="M94.4,78.8c1.2-0.4,2.5-0.7,3.7-1.2c1.2-0.5,2.2-1.2,3-2.2c0.9-1.2,1.4-2.9,1.5-4.4c0.1-0.7,0-1.5-0.2-2.2
			c-0.1-0.4-0.2-0.8-0.3-1.2c-0.1-0.4-0.2-0.9-0.4-1.3c0-0.1-0.2-0.1-0.2,0.1c0.1,0.4,0.2,0.7,0.3,1.1c0.1,0.4,0.1,0.8,0.2,1.2
			c0.1,0.7,0.2,1.4,0.1,2.2c-0.1,1.5-0.5,3.1-1.4,4.3C99.4,77.3,96.6,77.9,94.4,78.8C94.3,78.7,94.4,78.8,94.4,78.8L94.4,78.8z"/>
		<path class="st12" d="M98.9,65.6c-0.1,0.1-0.2,0.1-0.3,0.1c0,0,0,0.1,0,0.1C98.8,65.8,98.9,65.7,98.9,65.6
			C99,65.6,99,65.6,98.9,65.6L98.9,65.6z"/>
		<path class="st12" d="M98.1,65.8c-2.6,0.9-4.9,2.4-6.9,4.4c-0.8,0.8-1.5,1.9-1.9,3c-0.2,0.5-0.2,1.1-0.2,1.7
			c0,0.6,0.1,1.3,0.4,1.8c0.1,0.1,0.2,0.1,0.2-0.1c0-0.5-0.2-1.1-0.2-1.7c0-0.5,0-1.1,0.2-1.7c0.3-1.2,1-2.2,1.9-3
			c1.9-1.8,4.1-3.3,6.6-4.2C98.3,66,98.3,65.7,98.1,65.8L98.1,65.8z"/>
	</g>
	<g>
		<path class="st10" d="M300.7,55c0.4,0.1,1.3,0,0.9,0.6c-0.2,0.5-1,0.6-1.3,1.1c-0.2,0.3-0.1,0.7-0.1,1c-0.1,0.8-0.6,1.7-1.1,2.4
			c-1.1,1.3-3.4,2.4-4.9,2.7c-2,0.4-4.3,0.5-5.7-0.5c-0.7-0.5-1.2-1.1-1.7-1.7c-0.4-0.6-0.4-1.3-0.9-1.8c-0.2-0.2-0.7-0.4-0.7-0.8
			c0-0.3,0.3-0.5,0.5-0.9c0.6-1.2,0.8-2.6,1.8-3.7c0.5-0.6,1.3-1.2,2-1.5c1.4-0.7,3-1,4.4-1c1.1,0,2,0.2,2.9,0.5
			c0.8,0.3,1.5,0.7,2,1.3C299.3,53.6,299.7,54.6,300.7,55z"/>
		<path class="st11" d="M286,57.3c0.2-0.3,0.5-0.6,0.6-0.9c0.2-0.4,0.4-0.7,0.6-1.1c0.5-0.7,1.1-1.4,1.8-2c1.2-0.9,2.7-1.4,4.1-1.5
			c1.5-0.1,2.8,0.2,3.8,0.8c0.6,0.3,1.1,0.8,1.5,1.2c0.4,0.4,0.8,0.8,1.2,1.1c0.3,0.2,0.6,0.4,1.1,0.4c0,0,0.1,0,0-0.1
			c-0.2-0.1-0.4-0.3-0.6-0.5c-0.2-0.2-0.4-0.4-0.6-0.6c-0.4-0.4-0.8-0.9-1.2-1.3c-0.9-0.8-2.1-1.4-3.4-1.6c-1.3-0.2-2.7,0-4.1,0.5
			c-1.5,0.5-2.7,1.6-3.6,2.8c-0.3,0.4-0.5,0.8-0.7,1.2c-0.2,0.4-0.4,0.8-0.6,1.2C285.7,57.3,285.9,57.4,286,57.3L286,57.3z"/>
		<path class="st11" d="M301.4,55.6C301.4,55.6,301.3,55.6,301.4,55.6C301.3,55.6,301.4,55.6,301.4,55.6
			C301.3,55.5,301.3,55.5,301.4,55.6c-0.1,0-0.2,0-0.2,0c0,0-0.1,0.1,0,0.1c0.1,0,0.1,0,0.1,0C301.3,55.6,301.4,55.6,301.4,55.6
			L301.4,55.6L301.4,55.6C301.4,55.6,301.4,55.6,301.4,55.6L301.4,55.6z"/>
		<path class="st11" d="M300.9,55.7c-0.7,0.1-1,0.8-1.2,1.3c-0.3,0.7-0.6,1.3-1,2c-0.9,1.1-2.2,2-3.5,2.4c-1.3,0.5-2.7,0.6-3.9,0.3
			c-1.4-0.2-2.4-0.8-3.1-1.8c-0.4-0.5-0.6-1-1-1.5c-0.3-0.4-0.7-0.8-1.3-0.8c-0.2,0-0.3,0.2-0.1,0.3c0.6,0.1,0.9,0.6,1.2,1
			c0.3,0.5,0.6,1.1,1,1.5c0.7,0.9,1.8,1.5,3.1,1.7c2.3,0.4,5.2-0.3,7.2-2.3c0.6-0.6,1-1.2,1.3-1.9C299.9,57.2,300,56.1,300.9,55.7
			C301,55.8,301,55.7,300.9,55.7L300.9,55.7z"/>
		<path class="st11" d="M300.1,55.6c-0.5-0.3-1.1-0.4-1.6-0.6c-0.6-0.2-1.2-0.3-1.8-0.5c-0.6-0.1-1.3-0.2-1.9-0.3
			c-0.6-0.1-1.2-0.2-1.8-0.2c0,0,0,0,0,0c0.6,0.1,1.2,0.2,1.8,0.3c0.6,0.1,1.2,0.3,1.8,0.5c0.6,0.1,1.2,0.3,1.7,0.5
			C298.9,55.4,299.5,55.6,300.1,55.6C300.1,55.7,300.1,55.6,300.1,55.6L300.1,55.6z"/>
		<path class="st11" d="M292,54.1c-1.3,0.1-2.5,0.4-3.7,1.3c-0.5,0.4-1.1,0.8-1.6,1.2c-0.3,0.2-0.5,0.5-0.8,0.7
			c-0.2,0.2-0.7,0.4-0.8,0.7c0,0.1,0,0.1,0.1,0.1c0.3,0,0.5-0.3,0.7-0.4c0.3-0.2,0.6-0.4,0.8-0.7c0.5-0.4,1-0.8,1.5-1.2
			C289.4,54.9,290.6,54.3,292,54.1C292,54.2,292,54.1,292,54.1L292,54.1z"/>
		<path class="st11" d="M300.1,55.8c-0.5,0.2-1.1,0.5-1.6,0.8c-0.5,0.3-1.1,0.6-1.6,1c-0.9,0.6-1.7,1.3-2.8,1.5
			c-2,0.4-3.8-0.1-5.5-0.6c0,0-0.1,0.1-0.1,0.1c1.5,0.7,3.4,1.1,5.4,0.8c1-0.1,1.9-0.7,2.8-1.3c0.5-0.4,1-0.7,1.6-1.1
			C298.9,56.6,299.6,56.3,300.1,55.8C300.1,55.8,300.1,55.7,300.1,55.8L300.1,55.8z"/>
		<path class="st11" d="M288,58.3c0,0-0.1,0-0.2-0.1l0,0C287.9,58.2,287.9,58.3,288,58.3L288,58.3L288,58.3z"/>
		<path class="st11" d="M287.1,57.9c-0.3-0.1-0.5-0.1-0.8-0.1c-0.2,0-0.6-0.1-0.8,0c-0.1,0-0.1,0.1,0,0.1c0.2,0.1,0.5,0,0.7,0
			c0.3,0,0.6,0.1,0.8,0.1C287.1,58.2,287.2,58,287.1,57.9L287.1,57.9z"/>
		<path class="st11" d="M297.8,56.1c-0.3,0.1-0.6,0.2-0.9,0.2c-0.3,0-0.6,0-0.8,0.1c0,0-0.1,0.1,0,0.1c0.3,0,0.6-0.1,0.8-0.1
			c0.3,0,0.6-0.1,0.9-0.1C297.9,56.2,297.9,56,297.8,56.1L297.8,56.1z"/>
		<path class="st11" d="M293.9,56.5c-0.9,0.1-1.9,0.2-2.8,0.3c-0.5,0.1-1,0.1-1.5,0.2c-0.5,0.1-1,0.1-1.5,0.3c-0.1,0-0.1,0.1,0,0.1
			c0.5,0,0.9-0.2,1.4-0.2c0.5-0.1,1-0.1,1.5-0.2c1-0.1,1.9-0.2,2.9-0.3C294,56.7,294,56.5,293.9,56.5L293.9,56.5z"/>
		<g>
			<g>
				<path class="st11" d="M286.6,57.6C286.6,57.6,286.6,57.6,286.6,57.6C286.6,57.6,286.6,57.6,286.6,57.6L286.6,57.6z"/>
			</g>
		</g>
		<path class="st12" d="M287.3,57.2c0.6-0.3,1.2-0.6,1.9-0.9c0.1,0,0.1-0.1,0-0.1c-0.3,0-0.6,0.2-0.9,0.3c-0.4,0.2-0.6,0.4-1,0.6
			C287.2,57.2,287.2,57.3,287.3,57.2L287.3,57.2z"/>
		<path class="st12" d="M298.4,55.7c-1.3-0.2-2.5-0.4-3.8-0.4c-0.6,0-1.3,0-1.9,0c-0.6,0-1.3,0.1-2,0.4c-0.1,0-0.1,0.1,0,0.1
			c0.7-0.1,1.3-0.2,2-0.3s1.3,0,1.9,0c1.3,0.1,2.5,0.3,3.8,0.4C298.4,55.8,298.4,55.7,298.4,55.7L298.4,55.7z"/>
		<path class="st12" d="M298.4,56.2c-0.4,0.1-0.8,0.3-1.2,0.5c-0.5,0.2-0.9,0.4-1.4,0.6c-0.8,0.3-1.6,0.4-2.4,0.5
			c-0.7,0.1-1.4,0-2.2,0c-0.7,0-1.4-0.1-2.2,0c-0.1,0-0.1,0.1,0,0.1c0.7,0.1,1.5,0.1,2.2,0.2c0.7,0,1.5,0.1,2.2,0
			c0.7-0.1,1.5-0.2,2.2-0.5c0.5-0.2,0.9-0.4,1.4-0.6C297.6,56.7,298.1,56.5,298.4,56.2C298.5,56.3,298.5,56.2,298.4,56.2L298.4,56.2
			z"/>
		<path class="st12" d="M288.2,58.9c0.7,0.5,1.4,1,2.2,1.4c0.8,0.4,1.7,0.6,2.7,0.4c1.2-0.1,2.5-0.7,3.6-1.4c0.5-0.3,1-0.7,1.4-1.2
			c0.2-0.2,0.4-0.5,0.7-0.7c0.3-0.3,0.5-0.6,0.8-0.8c0.1-0.1,0-0.1-0.1-0.1c-0.2,0.2-0.4,0.5-0.6,0.7c-0.2,0.2-0.5,0.4-0.7,0.7
			c-0.5,0.4-0.9,0.8-1.4,1.2c-1.1,0.7-2.3,1.3-3.5,1.4C291.2,60.7,289.7,59.6,288.2,58.9C288.2,58.8,288.2,58.8,288.2,58.9
			L288.2,58.9z"/>
		<path class="st12" d="M299,54.7c-0.1,0-0.1,0-0.2-0.1c0,0,0,0,0,0C298.8,54.7,298.9,54.7,299,54.7C299,54.7,299,54.7,299,54.7
			L299,54.7z"/>
		<path class="st12" d="M298.5,54.3c-1.6-0.9-3.5-1.4-5.6-1.5c-0.9,0-1.9,0.1-2.8,0.5c-0.4,0.2-0.8,0.4-1.2,0.7
			c-0.4,0.3-0.9,0.7-1.1,1.1c-0.1,0.1,0,0.1,0.1,0.1c0.4-0.3,0.7-0.6,1.1-0.9s0.8-0.5,1.2-0.7c0.9-0.4,1.9-0.5,2.8-0.5
			c2,0.1,3.8,0.5,5.4,1.4C298.5,54.5,298.6,54.4,298.5,54.3L298.5,54.3z"/>
	</g>
	<g>
		<path class="st10" d="M266,79.9c0.4-0.1,1.1-0.6,1.2,0c0.1,0.5-0.5,1-0.4,1.5c0.1,0.4,0.4,0.6,0.6,0.9c0.4,0.7,0.7,1.7,0.7,2.5
			c0,1.6-1.4,3.5-2.6,4.5c-1.5,1.2-3.6,2.4-5.6,2.2c-0.9-0.1-1.9-0.3-2.8-0.7c-0.8-0.3-1.3-0.9-2.1-1.1c-0.4-0.1-0.9,0-1.1-0.3
			c-0.2-0.3-0.1-0.6-0.2-0.9c-0.3-1.3-1.1-2.6-1-3.9c0.1-0.7,0.3-1.6,0.7-2.2c0.7-1.2,2-2.3,3.3-2.9c1-0.5,1.9-0.7,3.1-0.9
			c0.9-0.1,1.9-0.1,2.7,0.2C263.7,79.3,264.8,80.1,266,79.9z"/>
		<path class="st11" d="M254.2,88.6c0-0.3,0-0.7,0-1c-0.1-0.4-0.2-0.8-0.2-1.2c-0.1-0.8,0-1.7,0.2-2.5c0.4-1.3,1.5-2.4,2.7-3.1
			c1.2-0.8,2.6-1.2,4.1-1.1c0.8,0,1.5,0.2,2.2,0.3c0.6,0.1,1.3,0.3,1.9,0.4c0.4,0.1,0.9,0.1,1.3-0.1c0,0,0-0.1,0-0.1
			c-0.3,0-0.6,0-0.9-0.1c-0.3-0.1-0.7-0.1-1-0.2c-0.7-0.2-1.3-0.4-2-0.5c-1.4-0.2-2.8-0.2-4.2,0.3c-1.3,0.5-2.5,1.3-3.4,2.3
			c-1,1.1-1.3,2.5-1.3,4c0,0.4,0.1,0.9,0.2,1.3c0.1,0.4,0.3,0.9,0.3,1.3C254,88.7,254.1,88.7,254.2,88.6L254.2,88.6z"/>
		<path class="st11" d="M266.9,80C266.9,80,266.9,80.1,266.9,80C266.9,80.1,266.9,80,266.9,80C266.9,80,266.9,80.1,266.9,80
			c-0.1,0.1-0.1,0.1-0.2,0.1c0,0,0,0.1,0.1,0.1s0.1,0,0.1-0.1C266.9,80.1,267,80.1,266.9,80L266.9,80L266.9,80
			C267,80,266.9,80,266.9,80L266.9,80z"/>
		<path class="st11" d="M266.6,80.4c-0.5,0.4-0.3,1.1-0.2,1.7c0.2,0.7,0.5,1.4,0.5,2.1c0,1.4-0.6,2.6-1.4,3.7
			c-0.9,1-2.1,1.7-3.3,2.1c-1.4,0.4-2.8,0.4-4.2-0.1c-0.7-0.2-1.3-0.6-1.9-0.8c-0.6-0.2-1.2-0.3-1.8-0.1c-0.2,0.1-0.1,0.3,0.1,0.3
			c0.6-0.1,1.2,0,1.8,0.3c0.7,0.3,1.3,0.6,2,0.8c1.3,0.4,2.7,0.4,4,0c2.4-0.7,4.5-2.7,4.9-5.3c0.1-0.7,0-1.5-0.1-2.2
			C266.8,82.1,266.1,81.1,266.6,80.4C266.7,80.4,266.6,80.3,266.6,80.4L266.6,80.4z"/>
		<path class="st11" d="M265.8,80.7c-0.6,0-1.3,0.1-1.9,0.3c-0.7,0.2-1.3,0.3-2,0.5c-0.7,0.2-1.3,0.4-1.9,0.6
			c-0.6,0.2-1.2,0.4-1.8,0.7c0,0,0,0,0,0c0.6-0.2,1.2-0.4,1.9-0.6c0.6-0.2,1.3-0.3,2-0.5c0.6-0.1,1.3-0.3,1.9-0.4
			S265.3,81,265.8,80.7C265.9,80.7,265.9,80.7,265.8,80.7L265.8,80.7z"/>
		<path class="st11" d="M257.4,83.1c-1.1,0.6-2,1.5-2.4,2.7c-0.2,0.6-0.4,1.2-0.5,1.8c-0.1,0.3-0.2,0.6-0.3,0.9
			c-0.1,0.3-0.3,0.7-0.2,0.9c0,0.1,0.1,0.1,0.2,0.1c0.2-0.1,0.3-0.5,0.3-0.7c0.1-0.3,0.2-0.6,0.3-0.9c0.1-0.6,0.3-1.2,0.5-1.7
			C255.6,85,256.3,83.9,257.4,83.1C257.5,83.2,257.4,83.1,257.4,83.1L257.4,83.1z"/>
		<path class="st11" d="M265.9,80.8c-0.4,0.4-0.6,0.9-0.9,1.4c-0.3,0.5-0.5,1-0.7,1.6c-0.4,0.9-0.7,1.9-1.5,2.5
			c-1.5,1.2-3.5,1.6-5.4,2c0,0-0.1,0.1,0,0.1c1.9-0.1,3.9-0.7,5.5-1.8c0.8-0.6,1.2-1.5,1.6-2.4c0.2-0.6,0.4-1.1,0.7-1.6
			C265.4,82,265.8,81.5,265.9,80.8C266,80.8,265.9,80.8,265.9,80.8L265.9,80.8z"/>
		<path class="st11" d="M256.7,88.5c-0.1,0-0.1,0-0.2,0l0,0C256.6,88.5,256.6,88.5,256.7,88.5L256.7,88.5L256.7,88.5z"/>
		<path class="st11" d="M255.7,88.6c-0.3,0.1-0.6,0.2-0.8,0.3c-0.2,0.1-0.6,0.2-0.7,0.4c0,0.1,0,0.1,0.1,0.1c0.2,0,0.5-0.2,0.7-0.3
			c0.3-0.1,0.6-0.2,0.9-0.3C255.9,88.8,255.8,88.6,255.7,88.6L255.7,88.6z"/>
		<path class="st11" d="M264,82.1c-0.2,0.2-0.5,0.4-0.7,0.6c-0.2,0.2-0.5,0.3-0.7,0.5c0,0,0,0.1,0.1,0.1c0.2-0.1,0.5-0.3,0.7-0.5
			c0.3-0.2,0.5-0.3,0.8-0.5C264.2,82.2,264.1,82.1,264,82.1L264,82.1z"/>
		<path class="st11" d="M260.8,84.3c-0.8,0.5-1.6,1-2.4,1.5c-0.4,0.3-0.8,0.6-1.2,0.9c-0.4,0.3-0.8,0.6-1.2,0.9c0,0.1,0,0.1,0.1,0.1
			c0.4-0.2,0.7-0.6,1.1-0.8c0.4-0.3,0.8-0.6,1.2-0.8c0.8-0.5,1.6-1.1,2.4-1.6C261,84.4,260.9,84.2,260.8,84.3L260.8,84.3z"/>
		<g>
			<g>
				<path class="st11" d="M255,88.6C255,88.6,255,88.6,255,88.6C255,88.6,255,88.6,255,88.6L255,88.6z"/>
			</g>
		</g>
		<path class="st12" d="M255.4,87.9c0.3-0.6,0.7-1.1,1.1-1.6c0-0.1,0-0.1-0.1-0.1c-0.3,0.2-0.5,0.4-0.6,0.7
			c-0.2,0.3-0.3,0.6-0.5,0.9C255.2,88,255.3,88,255.4,87.9L255.4,87.9z"/>
		<path class="st12" d="M264.3,81.5c-1.3,0.4-2.6,0.9-3.8,1.4c-0.6,0.3-1.2,0.5-1.7,0.9c-0.5,0.3-1.1,0.7-1.5,1.2
			c0,0.1,0,0.1,0.1,0.1c0.5-0.4,1-0.8,1.6-1.1s1.1-0.6,1.7-0.9c1.2-0.5,2.5-0.9,3.7-1.4C264.4,81.6,264.4,81.5,264.3,81.5
			L264.3,81.5z"/>
		<path class="st12" d="M264.7,81.9c-0.3,0.3-0.5,0.6-0.8,1c-0.3,0.4-0.6,0.8-0.9,1.1c-0.5,0.6-1.1,1.1-1.8,1.5
			c-0.6,0.4-1.3,0.7-1.9,1c-0.7,0.3-1.4,0.6-2,1c-0.1,0,0,0.1,0.1,0.1c0.7-0.2,1.4-0.6,2.1-0.9c0.7-0.3,1.4-0.6,2-1
			c0.6-0.4,1.2-0.9,1.7-1.4c0.3-0.4,0.6-0.7,0.9-1.1C264.4,82.8,264.6,82.4,264.7,81.9C264.9,82,264.8,81.9,264.7,81.9L264.7,81.9z"
			/>
		<path class="st12" d="M257.3,88.9c1,0,2,0.2,3,0.1c1-0.1,1.9-0.3,2.7-0.9c1-0.7,1.8-1.7,2.2-2.8c0.2-0.5,0.4-1.1,0.5-1.7
			c0.1-0.3,0.1-0.6,0.1-0.9c0-0.4,0.1-0.7,0.1-1.1c0-0.1-0.1-0.1-0.1,0c0,0.3-0.1,0.6-0.1,0.9s-0.1,0.6-0.2,0.9
			c-0.1,0.6-0.3,1.1-0.5,1.6c-0.4,1.1-1.2,2.1-2.2,2.8C261.3,89.1,259.2,88.8,257.3,88.9C257.3,88.8,257.3,88.9,257.3,88.9
			L257.3,88.9z"/>
		<path class="st12" d="M264.1,80.4c-0.1,0-0.1,0-0.2,0c0,0,0,0,0,0C264,80.5,264.1,80.5,264.1,80.4
			C264.2,80.4,264.2,80.4,264.1,80.4L264.1,80.4z"/>
		<path class="st12" d="M263.5,80.3c-2.1,0-4.2,0.5-6.1,1.4c-0.8,0.4-1.6,1-2.1,1.7c-0.3,0.4-0.4,0.8-0.6,1.2
			c-0.2,0.4-0.3,1-0.2,1.4c0,0.1,0.1,0.1,0.2,0c0.2-0.4,0.2-0.9,0.3-1.3c0.1-0.4,0.3-0.8,0.6-1.2c0.5-0.8,1.3-1.3,2.2-1.7
			c1.8-0.9,3.9-1.3,5.9-1.4C263.6,80.5,263.6,80.3,263.5,80.3L263.5,80.3z"/>
	</g>
	<g>
		<path class="st10" d="M203.7,88.7c0.5,0.3,1.6,0.2,1.3,1c-0.2,0.6-1.2,0.6-1.5,1.3c-0.2,0.4,0,1,0,1.4c0,1.1-0.4,2.3-1,3.2
			c-1.2,1.7-4,2.8-6,2.9c-2.5,0.2-5.6-0.1-7.6-1.8c-0.9-0.8-1.8-1.7-2.5-2.8c-0.6-0.9-0.8-1.9-1.5-2.7c-0.3-0.4-0.9-0.7-1-1.2
			c-0.1-0.4,0.3-0.7,0.5-1.1c0.6-1.5,0.6-3.5,1.7-4.9c0.6-0.7,1.5-1.4,2.3-1.8c1.7-0.8,3.7-0.9,5.5-0.7c1.5,0.2,2.6,0.7,3.9,1.3
			c1.1,0.5,2.1,1.2,2.8,2.2C201.6,86.4,202.3,87.9,203.7,88.7z"/>
		<path class="st11" d="M184.9,89.2c0.3-0.3,0.5-0.7,0.7-1.1c0.2-0.5,0.4-1,0.6-1.4c0.5-0.9,1.2-1.8,2-2.5c1.4-1.1,3.3-1.4,5.1-1.4
			c1.9,0.1,3.6,0.7,5.1,1.8c0.8,0.6,1.5,1.3,2.2,2c0.6,0.6,1.2,1.2,1.8,1.8c0.4,0.4,0.9,0.7,1.4,0.8c0,0,0.1,0,0-0.1
			c-0.3-0.2-0.6-0.5-0.9-0.8c-0.3-0.3-0.6-0.6-0.9-1c-0.6-0.7-1.2-1.4-1.8-2c-1.4-1.3-2.9-2.3-4.7-2.8c-1.7-0.4-3.6-0.5-5.3,0
			c-1.8,0.5-3.2,1.7-4.2,3.4c-0.3,0.5-0.6,1-0.7,1.5c-0.2,0.5-0.3,1.1-0.6,1.6C184.6,89.2,184.7,89.4,184.9,89.2L184.9,89.2z"/>
		<path class="st11" d="M204.6,89.5C204.6,89.5,204.6,89.5,204.6,89.5C204.6,89.5,204.6,89.5,204.6,89.5c0,0-0.1,0-0.1,0
			c-0.1,0-0.1,0-0.2,0c0,0-0.1,0.1,0,0.1c0.1,0,0.1,0,0.2,0C204.6,89.6,204.7,89.6,204.6,89.5L204.6,89.5L204.6,89.5
			C204.7,89.6,204.7,89.5,204.6,89.5L204.6,89.5z"/>
		<path class="st11" d="M204.1,89.6c-0.8,0.1-1.2,1-1.4,1.7c-0.3,0.9-0.5,1.8-1,2.6c-0.9,1.5-2.5,2.4-4.1,2.8
			c-1.6,0.4-3.4,0.3-5-0.2c-1.8-0.6-3.3-1.6-4.4-3.1c-0.5-0.7-1-1.5-1.5-2.3c-0.5-0.6-1.1-1.2-1.9-1.4c-0.2,0-0.3,0.3-0.1,0.4
			c0.8,0.3,1.3,1,1.7,1.6c0.5,0.8,1,1.6,1.6,2.3c1.1,1.4,2.6,2.4,4.3,2.9c3.1,1,6.7,0.5,9-2c0.7-0.7,1.1-1.6,1.4-2.5
			c0.3-0.9,0.3-2.5,1.4-2.8C204.1,89.7,204.1,89.6,204.1,89.6L204.1,89.6z"/>
		<path class="st11" d="M203,89.4c-0.7-0.5-1.4-0.8-2.2-1.1c-0.8-0.3-1.6-0.7-2.4-1c-0.8-0.3-1.7-0.5-2.5-0.8
			c-0.8-0.2-1.6-0.4-2.4-0.6c0,0,0,0,0,0c0.8,0.2,1.7,0.5,2.5,0.7c0.8,0.3,1.6,0.6,2.4,1c0.8,0.3,1.5,0.6,2.3,1
			C201.4,88.9,202.2,89.3,203,89.4C203,89.4,203,89.4,203,89.4L203,89.4z"/>
		<path class="st11" d="M192.2,85.8c-1.6-0.1-3.2,0.2-4.6,1.1c-0.7,0.4-1.2,1-1.8,1.5c-0.3,0.3-0.6,0.6-1,0.8
			c-0.3,0.2-0.8,0.5-0.9,0.8c0,0.1,0,0.2,0.1,0.2c0.3,0.1,0.6-0.3,0.8-0.5c0.3-0.3,0.6-0.5,1-0.8c0.6-0.5,1.1-1,1.8-1.5
			C189,86.4,190.5,85.8,192.2,85.8C192.2,85.9,192.3,85.8,192.2,85.8L192.2,85.8z"/>
		<path class="st11" d="M203,89.6c-0.7,0.2-1.3,0.5-1.9,0.8c-0.7,0.3-1.3,0.7-1.9,1.1c-1.1,0.7-2.1,1.5-3.4,1.6
			c-2.5,0.2-5-0.8-7.2-1.8c-0.1,0-0.1,0.1-0.1,0.1c2.1,1.3,4.7,2.2,7.2,2.1c1.3,0,2.4-0.7,3.4-1.4c0.6-0.4,1.2-0.8,1.9-1.2
			c0.7-0.4,1.4-0.7,2.1-1.2C203.1,89.7,203,89.6,203,89.6L203,89.6z"/>
		<path class="st11" d="M187.6,91c-0.1,0-0.1-0.1-0.2-0.1l0,0C187.5,91,187.6,91,187.6,91L187.6,91L187.6,91z"/>
		<path class="st11" d="M186.4,90.4c-0.4-0.1-0.7-0.2-1.1-0.3c-0.3-0.1-0.8-0.2-1.1-0.1c-0.1,0-0.1,0.1,0,0.2
			c0.3,0.1,0.7,0.1,0.9,0.2c0.4,0.1,0.8,0.2,1.1,0.4C186.5,90.7,186.6,90.5,186.4,90.4L186.4,90.4z"/>
		<path class="st11" d="M200,89.6c-0.4,0.1-0.8,0.1-1.2,0.1c-0.4,0-0.7-0.1-1.1,0c-0.1,0-0.1,0.1,0,0.1c0.3,0,0.7,0,1.1,0
			c0.4,0,0.8,0,1.2,0C200.2,89.8,200.2,89.6,200,89.6L200,89.6z"/>
		<path class="st11" d="M195,89.5c-1.2,0-2.4-0.1-3.6-0.1c-0.6,0-1.3,0-1.9,0c-0.6,0-1.3,0-1.9,0.1c-0.1,0-0.1,0.1,0,0.2
			c0.6,0,1.2-0.1,1.8,0c0.6,0,1.3,0,1.9,0c1.3,0,2.5,0.1,3.8,0.1C195.3,89.8,195.2,89.5,195,89.5L195,89.5z"/>
		<g>
			<g>
				<path class="st11" d="M185.7,89.9C185.7,89.9,185.7,89.9,185.7,89.9C185.7,89.8,185.7,89.9,185.7,89.9L185.7,89.9z"/>
			</g>
		</g>
		<path class="st12" d="M186.6,89.5c0.7-0.4,1.5-0.6,2.3-0.9c0.1,0,0.1-0.2,0-0.2c-0.4,0-0.8,0.1-1.2,0.3c-0.4,0.2-0.8,0.4-1.2,0.7
			C186.4,89.3,186.5,89.5,186.6,89.5L186.6,89.5z"/>
		<path class="st12" d="M200.8,89.2c-1.7-0.5-3.3-1-5.1-1.3c-0.8-0.2-1.7-0.3-2.5-0.3c-0.8-0.1-1.7-0.1-2.5,0.2
			c-0.1,0-0.1,0.2,0,0.2c0.8,0,1.7-0.1,2.5,0s1.7,0.2,2.5,0.3c1.7,0.3,3.3,0.8,5,1.2C200.8,89.4,200.8,89.2,200.8,89.2L200.8,89.2z"
			/>
		<path class="st12" d="M200.9,89.9c-0.5,0.1-1,0.3-1.5,0.4c-0.6,0.2-1.1,0.4-1.7,0.6c-1,0.3-2,0.3-3,0.3c-0.9,0-1.9-0.2-2.8-0.4
			c-0.9-0.2-1.9-0.4-2.8-0.4c-0.1,0-0.1,0.1,0,0.1c0.9,0.3,1.9,0.4,2.9,0.6c1,0.2,1.9,0.3,2.9,0.4c1,0,1.9,0,2.8-0.3
			c0.6-0.2,1.2-0.4,1.7-0.6c0.5-0.2,1.1-0.4,1.6-0.7C201,90,201,89.9,200.9,89.9L200.9,89.9z"/>
		<path class="st12" d="M188.1,91.9c1,0.8,2,1.6,3.1,2.3c1.1,0.7,2.3,1.1,3.5,1.1c1.5,0,3.1-0.5,4.4-1.3c0.6-0.4,1.2-0.9,1.7-1.4
			c0.3-0.3,0.5-0.6,0.8-0.9c0.3-0.4,0.6-0.7,0.8-1.1c0.1-0.1,0-0.2-0.1-0.1c-0.3,0.3-0.5,0.6-0.7,0.9c-0.2,0.3-0.5,0.6-0.8,0.8
			c-0.5,0.5-1.1,1-1.7,1.4c-1.3,0.8-2.8,1.4-4.3,1.4C192.2,95,190.1,93.2,188.1,91.9C188.1,91.8,188,91.9,188.1,91.9L188.1,91.9z"/>
		<path class="st12" d="M201.4,87.8c-0.1,0-0.2-0.1-0.2-0.2c0,0-0.1,0,0,0C201.2,87.8,201.3,87.9,201.4,87.8
			C201.4,87.9,201.4,87.9,201.4,87.8L201.4,87.8z"/>
		<path class="st12" d="M200.8,87.3c-2.3-1.6-4.8-2.6-7.6-3c-1.2-0.2-2.4-0.1-3.5,0.3c-0.5,0.2-1,0.5-1.5,0.8
			c-0.5,0.4-1.1,0.8-1.3,1.4c-0.1,0.1,0.1,0.2,0.2,0.1c0.5-0.3,0.8-0.8,1.3-1.1s0.9-0.6,1.5-0.8c1.1-0.4,2.4-0.4,3.6-0.2
			c2.6,0.4,5.1,1.4,7.3,2.9C200.7,87.6,200.9,87.4,200.8,87.3L200.8,87.3z"/>
	</g>
	<g>
		<path class="st10" d="M173.6,50.8c0.4,0.1,1.1-0.2,1,0.4c0,0.4-0.7,0.7-0.7,1.1c0,0.3,0.2,0.6,0.3,0.9c0.2,0.7,0.2,1.6,0,2.3
			c-0.4,1.3-2,2.6-3.3,3.1c-1.6,0.6-3.6,1-5.2,0.3c-0.8-0.3-1.5-0.8-2.1-1.3c-0.6-0.5-0.9-1.1-1.5-1.4c-0.3-0.2-0.7-0.2-0.9-0.6
			c-0.1-0.3,0.1-0.5,0.1-0.8c0.1-1.1-0.3-2.4,0.2-3.5c0.2-0.6,0.7-1.2,1.1-1.6c0.9-0.8,2.2-1.3,3.4-1.5c1-0.1,1.8-0.1,2.8,0.1
			c0.8,0.1,1.6,0.4,2.2,0.9C171.8,49.7,172.5,50.6,173.6,50.8z"/>
		<path class="st11" d="M161.5,54.8c0.1-0.3,0.2-0.6,0.2-0.8c0-0.3,0.1-0.7,0.1-1c0.2-0.7,0.4-1.4,0.8-2c0.7-1,1.9-1.6,3-1.9
			c1.2-0.3,2.5-0.3,3.7,0.2c0.6,0.2,1.2,0.5,1.8,0.8c0.5,0.3,1,0.6,1.5,0.8c0.3,0.2,0.7,0.3,1.1,0.2c0,0,0,0,0-0.1
			c-0.3-0.1-0.5-0.2-0.7-0.3c-0.3-0.1-0.5-0.3-0.8-0.4c-0.5-0.3-1-0.7-1.6-0.9c-1.1-0.6-2.3-0.9-3.6-0.9c-1.2,0-2.4,0.4-3.4,1
			c-1.1,0.7-1.7,1.8-2,3c-0.1,0.4-0.2,0.7-0.2,1.1s0,0.8-0.1,1.1C161.3,54.9,161.5,55,161.5,54.8L161.5,54.8z"/>
		<path class="st11" d="M174.3,51.2C174.3,51.2,174.3,51.2,174.3,51.2C174.3,51.2,174.4,51.2,174.3,51.2
			C174.3,51.1,174.3,51.2,174.3,51.2c-0.1,0-0.1,0-0.2,0.1c0,0,0,0.1,0,0.1c0,0,0.1,0,0.1,0C174.3,51.2,174.4,51.2,174.3,51.2
			L174.3,51.2L174.3,51.2C174.4,51.2,174.4,51.2,174.3,51.2L174.3,51.2z"/>
		<path class="st11" d="M174,51.3c-0.5,0.2-0.6,0.9-0.6,1.3c0,0.7,0,1.3-0.2,1.9c-0.3,1.1-1.1,2-2.1,2.6c-1,0.6-2.1,0.9-3.3,0.9
			c-1.3,0-2.4-0.4-3.5-1.2c-0.5-0.4-0.9-0.8-1.4-1.2c-0.4-0.3-0.9-0.6-1.5-0.5c-0.1,0-0.2,0.3,0,0.3c0.5,0,1,0.4,1.4,0.7
			c0.5,0.4,1,0.8,1.5,1.2c1,0.7,2.2,1,3.4,1c2.2,0,4.4-1,5.4-3.1c0.3-0.6,0.4-1.2,0.4-1.9C173.7,52.8,173.4,51.9,174,51.3
			C174.1,51.4,174,51.3,174,51.3L174,51.3z"/>
		<path class="st11" d="M173.3,51.4c-0.5-0.2-1.1-0.2-1.6-0.3c-0.6,0-1.2-0.1-1.8-0.1c-0.6,0-1.2,0-1.8,0c-0.6,0-1.1,0-1.7,0.1
			c0,0,0,0,0,0c0.6,0,1.2,0,1.7,0c0.6,0,1.2,0.1,1.8,0.1c0.6,0,1.1,0.1,1.7,0.2S172.7,51.5,173.3,51.4
			C173.3,51.4,173.3,51.4,173.3,51.4L173.3,51.4z"/>
		<path class="st11" d="M165.6,51.2c-1.1,0.2-2,0.7-2.7,1.6c-0.3,0.4-0.6,0.9-0.9,1.3c-0.2,0.2-0.3,0.5-0.5,0.7
			c-0.1,0.2-0.4,0.5-0.4,0.7c0,0,0.1,0.1,0.1,0.1c0.2,0,0.3-0.3,0.5-0.5c0.2-0.2,0.3-0.5,0.5-0.7c0.3-0.4,0.5-0.9,0.8-1.3
			C163.7,52.2,164.5,51.6,165.6,51.2C165.6,51.3,165.6,51.2,165.6,51.2L165.6,51.2z"/>
		<path class="st11" d="M173.3,51.5c-0.4,0.2-0.7,0.6-1.1,0.9c-0.4,0.4-0.7,0.7-1,1.1c-0.6,0.7-1,1.4-1.9,1.7
			c-1.6,0.6-3.4,0.4-5,0.3c0,0-0.1,0.1,0,0.1c1.6,0.4,3.4,0.5,5-0.1c0.8-0.3,1.4-0.9,1.9-1.6c0.3-0.4,0.6-0.8,1-1.2
			C172.6,52.4,173,52.1,173.3,51.5C173.4,51.6,173.3,51.5,173.3,51.5L173.3,51.5z"/>
		<path class="st11" d="M163.7,55.5c-0.1,0-0.1,0-0.2,0l0,0C163.6,55.5,163.6,55.5,163.7,55.5L163.7,55.5L163.7,55.5z"/>
		<path class="st11" d="M162.8,55.3c-0.3,0-0.5,0-0.8,0c-0.2,0-0.5,0-0.7,0.2c0,0,0,0.1,0,0.1c0.2,0,0.4-0.1,0.6-0.1
			c0.3,0,0.5,0,0.8,0C162.9,55.5,162.9,55.3,162.8,55.3L162.8,55.3z"/>
		<path class="st11" d="M171.4,52.1c-0.2,0.1-0.5,0.2-0.7,0.3c-0.2,0.1-0.5,0.1-0.7,0.2c0,0,0,0.1,0,0.1c0.2,0,0.5-0.1,0.7-0.2
			c0.3-0.1,0.5-0.1,0.8-0.2C171.6,52.2,171.5,52.1,171.4,52.1L171.4,52.1z"/>
		<path class="st11" d="M168.1,53c-0.8,0.2-1.6,0.4-2.4,0.6c-0.4,0.1-0.8,0.2-1.2,0.4s-0.8,0.3-1.2,0.5c0,0,0,0.1,0,0.1
			c0.4-0.1,0.8-0.3,1.2-0.4c0.4-0.1,0.8-0.2,1.2-0.4c0.8-0.2,1.6-0.4,2.4-0.7C168.3,53.2,168.3,53,168.1,53L168.1,53z"/>
		<g>
			<g>
				<path class="st11" d="M162.2,55.1C162.2,55.1,162.2,55.1,162.2,55.1C162.2,55.1,162.2,55.1,162.2,55.1L162.2,55.1z"/>
			</g>
		</g>
		<path class="st12" d="M162.7,54.7c0.4-0.4,0.9-0.7,1.3-1c0.1,0,0-0.1-0.1-0.1c-0.3,0.1-0.5,0.2-0.7,0.4
			C163,54.1,162.8,54.3,162.7,54.7C162.6,54.6,162.6,54.7,162.7,54.7L162.7,54.7z"/>
		<path class="st12" d="M171.8,51.7c-1.2,0-2.3,0-3.5,0.2c-0.6,0.1-1.1,0.1-1.7,0.3c-0.5,0.1-1.1,0.3-1.6,0.6c-0.1,0,0,0.1,0.1,0.1
			c0.5-0.2,1.1-0.4,1.6-0.5c0.5-0.1,1.1-0.2,1.7-0.3c1.1-0.1,2.3-0.1,3.4-0.2C171.9,51.8,171.8,51.7,171.8,51.7L171.8,51.7z"/>
		<path class="st12" d="M172,52.2c-0.3,0.2-0.6,0.4-0.9,0.6c-0.3,0.2-0.7,0.5-1,0.7c-0.6,0.4-1.2,0.6-1.9,0.8
			c-0.6,0.2-1.2,0.2-1.9,0.3c-0.6,0.1-1.3,0.1-1.9,0.3c-0.1,0,0,0.1,0,0.1c0.7,0,1.3-0.1,2-0.2c0.7-0.1,1.3-0.2,2-0.3
			c0.6-0.2,1.2-0.4,1.8-0.7c0.3-0.2,0.7-0.5,1-0.7C171.5,52.7,171.8,52.5,172,52.2C172.1,52.2,172.1,52.1,172,52.2L172,52.2z"/>
		<path class="st12" d="M164.1,55.9c0.8,0.3,1.6,0.7,2.5,0.9c0.8,0.2,1.7,0.3,2.5,0c1-0.3,1.9-1,2.6-1.7c0.3-0.4,0.6-0.8,0.8-1.2
			c0.1-0.2,0.2-0.5,0.3-0.7c0.1-0.3,0.3-0.6,0.3-0.9c0-0.1-0.1-0.1-0.1,0c-0.1,0.2-0.2,0.5-0.3,0.7c-0.1,0.2-0.2,0.5-0.4,0.7
			c-0.3,0.4-0.5,0.8-0.8,1.2c-0.6,0.8-1.5,1.4-2.5,1.7C167.4,57.1,165.7,56.4,164.1,55.9C164.1,55.9,164.1,55.9,164.1,55.9
			L164.1,55.9z"/>
		<path class="st12" d="M171.9,50.7c-0.1,0-0.1,0-0.2-0.1c0,0,0,0,0,0C171.8,50.7,171.9,50.8,171.9,50.7
			C171.9,50.8,171.9,50.7,171.9,50.7L171.9,50.7z"/>
		<path class="st12" d="M171.4,50.5c-1.8-0.6-3.6-0.7-5.5-0.5c-0.8,0.1-1.6,0.4-2.2,0.9c-0.3,0.2-0.6,0.5-0.8,0.8
			c-0.2,0.3-0.5,0.7-0.6,1.1c0,0.1,0.1,0.1,0.1,0.1c0.2-0.3,0.4-0.7,0.6-1c0.2-0.3,0.5-0.6,0.8-0.8c0.6-0.5,1.5-0.8,2.3-0.8
			c1.7-0.2,3.6-0.1,5.2,0.4C171.5,50.7,171.5,50.5,171.4,50.5L171.4,50.5z"/>
	</g>
</g>
</svg>
