<svg xmlns="http://www.w3.org/2000/svg" viewBox="0 0 389 157"  xmlns:v="https://vecta.io/nano"><path d="M101 64.2c.5-.3 1.1-1.2 1.5-.5.3.5-.2 1.4.2 2 .2.4.8.6 1.1.8.8.7 1.6 1.7 2 2.7.7 1.9-.1 4.9-1.1 6.6-1.3 2.1-3.3 4.5-5.9 5.1-1.2.3-2.5.4-3.7.4-1.1-.1-2-.5-3.1-.3-.5.1-1.1.4-1.5.1-.4-.2-.4-.7-.6-1-.9-1.4-2.5-2.6-2.9-4.3-.2-.9-.3-2-.1-3 .3-1.8 1.4-3.6 2.7-4.9 1-1.1 2.1-1.7 3.3-2.4 1-.6 2.3-1 3.5-1 1.5 0 3.1.4 4.6-.3z" fill="#f0e4c4"/><g fill="#e4cd9b"><path d="M90.4 79.8c-.1-.4-.3-.8-.5-1.2-.3-.4-.5-.9-.8-1.3-.4-1-.8-2-.8-3.1-.1-1.8.8-3.6 1.9-4.9 1.2-1.5 2.7-2.5 4.5-3.1.9-.3 1.9-.5 2.9-.6.8-.2 1.7-.2 2.5-.4.5-.1 1.1-.3 1.5-.7 0 0 0-.1-.1-.1-.4.2-.8.2-1.2.3s-.9.1-1.3.2l-2.7.3c-1.9.3-3.6 1-5 2.2-1.4 1.1-2.5 2.6-3.1 4.2-.7 1.8-.5 3.6.3 5.4.2.5.5 1 .8 1.5s.7.9.9 1.4c0 .2.2.1.2-.1h0zM102.2 64h0s-.1 0 0 0c-.1.1-.1.2-.1.2l.1.1.1-.1c0-.1 0-.2-.1-.2h0s0-.1 0 0h0z"/><path d="M101.9 64.5c-.4.7.1 1.5.5 2.1.6.8 1.2 1.5 1.5 2.4.6 1.6.5 3.4-.1 5s-1.8 3-3.1 4c-1.5 1.2-3.2 1.7-5.1 1.7-.9 0-1.8-.1-2.7-.1-.8 0-1.6.1-2.2.7-.2.2.1.4.2.3.7-.4 1.5-.5 2.3-.5l2.8.1c1.8-.1 3.5-.7 4.9-1.8 2.6-1.9 4.3-5.2 3.7-8.5a6.82 6.82 0 0 0-1.2-2.6c-.5-.8-1.8-1.7-1.5-2.8.2 0 .1-.1 0 0h0zm-.8.7c-.8.3-1.5.7-2.2 1.2s-1.5.9-2.2 1.4l-2.1 1.6c-.7.5-1.3 1-1.9 1.6 0 0 0 .1 0 0 .7-.5 1.3-1.1 2-1.6s1.5-1 2.2-1.4l2.1-1.3c.7-.4 1.6-.9 2.1-1.5h0z"/><path d="M91.9 71.9c-1.1 1.3-1.7 2.7-1.8 4.4l.1 2.4c0 .4.1.8.1 1.3 0 .3-.1.9.2 1.2.1.1.2.1.2 0 .2-.2.1-.7.1-1 0-.4-.1-.8-.1-1.3l-.2-2.3c0-1.8.4-3.3 1.4-4.7.1 0 .1-.1 0 0h0zm9.4-6.5c-.3.7-.3 1.4-.4 2.1s-.2 1.5-.2 2.2c-.1 1.3 0 2.5-.7 3.7-1.3 2.1-3.6 3.5-5.7 4.8-.1 0 0 .2.1.1 2.3-1 4.5-2.5 5.9-4.6.7-1.1.8-2.4.9-3.6l.1-2.3c.1-.8.3-1.6.2-2.4-.1-.1-.2-.1-.2 0h0z"/><path d="M93.5 78.6c-.1 0-.1.1-.2.1h0s.1 0 .2-.1h0zm-1.3.6c-.3.2-.6.4-.9.7-.3.2-.6.5-.7.8 0 .1.1.1.1.1.3-.1.5-.5.7-.7.3-.3.6-.5.9-.7.3 0 .1-.3-.1-.2h0zm7.4-11.4l-.6 1c-.2.3-.5.5-.6.9 0 .1.1.1.1.1l.6-.9c.2-.3.5-.6.7-1 .1-.2-.2-.3-.2-.1h0zm-3 3.9l-2.2 2.9-1.1 1.5c-.3.5-.7 1-1 1.6 0 .1.1.2.1.1.4-.5.7-1 1-1.5l1.1-1.5 2.3-3c.1-.1-.1-.2-.2-.1h0zm-5.2 7.8h0z"/></g><path d="M91.6 78.5c.1-.8.4-1.6.6-2.4 0-.1-.1-.2-.2-.1-.2.3-.4.7-.5 1.1s-.1.9-.1 1.3c0 .2.2.3.2.1h0zm8-11.6l-4 3.3-1.7 1.8c-.5.6-1 1.4-1.3 2.1 0 .1.1.2.2.1l1.4-2.1c.5-.7 1.1-1.3 1.7-1.8l3.7-3.4c.2 0 .1-.1 0 0h0zm.8.3c-.2.5-.4 1-.5 1.5l-.5 1.7c-.3.9-.9 1.8-1.5 2.6L96 75.1c-.6.7-1.4 1.3-2 2-.1.1.1.1.1.1.8-.6 1.5-1.3 2.2-2l2-2.1c.6-.8 1.1-1.6 1.4-2.5l.5-1.7c.2-.5.3-1.1.4-1.7h-.2zm-6 11.6l3.7-1.2c1.2-.5 2.2-1.2 3-2.2.9-1.2 1.4-2.9 1.5-4.4.1-.7 0-1.5-.2-2.2l-.3-1.2c-.1-.4-.2-.9-.4-1.3 0-.1-.2-.1-.2.1l.3 1.1c.1.4.1.8.2 1.2.1.7.2 1.4.1 2.2-.1 1.5-.5 3.1-1.4 4.3-1.3 2.1-4.1 2.7-6.3 3.6-.1-.1 0 0 0 0h0zm4.5-13.2c-.1.1-.2.1-.3.1v.1c.2 0 .3-.1.3-.2h0zm-.8.2c-2.6.9-4.9 2.4-6.9 4.4-.8.8-1.5 1.9-1.9 3-.2.5-.2 1.1-.2 1.7s.1 1.3.4 1.8c.1.1.2.1.2-.1 0-.5-.2-1.1-.2-1.7 0-.5 0-1.1.2-1.7.3-1.2 1-2.2 1.9-3 1.9-1.8 4.1-3.3 6.6-4.2.1 0 .1-.3-.1-.2h0z" fill="#fff4df"/><path d="M313.5 69.3c.4.1 1.3 0 .9.6-.2.5-1 .6-1.3 1.1-.2.3-.1.7-.1 1-.1.8-.6 1.7-1.1 2.4-1.1 1.3-3.4 2.4-4.9 2.7-2 .4-4.3.5-5.7-.5-.7-.5-1.2-1.1-1.7-1.7-.4-.6-.4-1.3-.9-1.8-.2-.2-.7-.4-.7-.8 0-.3.3-.5.5-.9.6-1.2.8-2.6 1.8-3.7.5-.6 1.3-1.2 2-1.5 1.4-.7 3-1 4.4-1 1.1 0 2 .2 2.9.5.8.3 1.5.7 2 1.3.5.9.9 1.9 1.9 2.3z" fill="#f0e4c4"/><g fill="#e4cd9b"><path d="M298.8 71.6c.2-.3.5-.6.6-.9l.6-1.1c.5-.7 1.1-1.4 1.8-2 1.2-.9 2.7-1.4 4.1-1.5 1.5-.1 2.8.2 3.8.8.6.3 1.1.8 1.5 1.2l1.2 1.1c.3.2.6.4 1.1.4 0 0 .1 0 0-.1-.2-.1-.4-.3-.6-.5l-.6-.6-1.2-1.3a6.73 6.73 0 0 0-3.4-1.6c-1.3-.2-2.7 0-4.1.5-1.5.5-2.7 1.6-3.6 2.8-.3.4-.5.8-.7 1.2l-.6 1.2c-.2.4 0 .5.1.4h0zm15.4-1.7s-.1 0 0 0c-.1 0 0 0 0 0-.1-.1-.1-.1 0 0h-.2s-.1.1 0 .1h.1c0-.1.1-.1.1-.1h0z"/><path d="M313.7 70c-.7.1-1 .8-1.2 1.3-.3.7-.6 1.3-1 2-.9 1.1-2.2 2-3.5 2.4-1.3.5-2.7.6-3.9.3-1.4-.2-2.4-.8-3.1-1.8-.4-.5-.6-1-1-1.5-.3-.4-.7-.8-1.3-.8-.2 0-.3.2-.1.3.6.1.9.6 1.2 1 .3.5.6 1.1 1 1.5.7.9 1.8 1.5 3.1 1.7 2.3.4 5.2-.3 7.2-2.3.6-.6 1-1.2 1.3-1.9s.4-1.8 1.3-2.2c.1.1.1 0 0 0h0zm-.8-.1c-.5-.3-1.1-.4-1.6-.6-.6-.2-1.2-.3-1.8-.5l-1.9-.3c-.6-.1-1.2-.2-1.8-.2h0l1.8.3c.6.1 1.2.3 1.8.5.6.1 1.2.3 1.7.5.6.1 1.2.3 1.8.3 0 .1 0 0 0 0h0z"/><path d="M304.8 68.4c-1.3.1-2.5.4-3.7 1.3l-1.6 1.2c-.3.2-.5.5-.8.7-.2.2-.7.4-.8.7 0 .1 0 .1.1.1.3 0 .5-.3.7-.4.3-.2.6-.4.8-.7l1.5-1.2c1.2-.9 2.4-1.5 3.8-1.7 0 .1 0 0 0 0h0zm8.1 1.7a11.94 11.94 0 0 0-1.6.8c-.5.3-1.1.6-1.6 1-.9.6-1.7 1.3-2.8 1.5-2 .4-3.8-.1-5.5-.6l-.1.1c1.5.7 3.4 1.1 5.4.8 1-.1 1.9-.7 2.8-1.3.5-.4 1-.7 1.6-1.1s1.3-.7 1.8-1.2c0 0 0-.1 0 0h0z"/><path d="M300.8 72.6s-.1 0-.2-.1h0c.1 0 .1.1.2.1h0zm-.9-.4c-.3-.1-.5-.1-.8-.1-.2 0-.6-.1-.8 0-.1 0-.1.1 0 .1.2.1.5 0 .7 0 .3 0 .6.1.9 0 0 .3.1.1 0 0h0zm10.7-1.8c-.3.1-.6.2-.9.2s-.6 0-.8.1c0 0-.1.1 0 .1.3 0 .6-.1.8-.1.3 0 .6-.1.9-.1.1-.1.1-.3 0-.2h0zm-3.9.4l-2.8.3c-.5.1-1 .1-1.5.2s-1 .1-1.5.3c-.1 0-.1.1 0 .1.5 0 .9-.2 1.4-.2.5-.1 1-.1 1.5-.2l2.9-.3c.1 0 .1-.2 0-.2h0zm-7.3 1.1h0z"/></g><g fill="#fff4df"><path d="M300.1 71.5l1.9-.9c.1 0 .1-.1 0-.1-.3 0-.6.2-.9.3-.4.2-.6.4-1 .7-.1 0-.1.1 0 0h0zm11.1-1.5c-1.3-.2-2.5-.4-3.8-.4h-1.9c-.6 0-1.3.1-2 .4-.1 0-.1.1 0 .1l2-.3c.7-.1 1.3 0 1.9 0l3.8.4V70z"/><path d="M311.2 70.5c-.4.1-.8.3-1.2.5l-1.4.6c-.8.3-1.6.4-2.4.5-.7.1-1.4 0-2.2 0-.7 0-1.4-.1-2.2 0-.1 0-.1.1 0 .1.7.1 1.5.1 2.2.2.7 0 1.5.1 2.2 0s1.5-.2 2.2-.5l1.4-.6c.6-.3 1.1-.5 1.4-.8.1.1.1 0 0 0h0zM301 73.2c.7.5 1.4 1 2.2 1.4s1.7.6 2.7.4c1.2-.1 2.5-.7 3.6-1.4.5-.3 1-.7 1.4-1.2.2-.2.4-.5.7-.7.3-.3.5-.6.8-.8.1-.1 0-.1-.1-.1-.2.2-.4.5-.6.7s-.5.4-.7.7l-1.4 1.2c-1.1.7-2.3 1.3-3.5 1.4-2.1.2-3.6-.9-5.1-1.6 0-.1 0-.1 0 0h0zm10.8-4.2c-.1 0-.1 0-.2-.1h0c0 .1.1.1.2.1h0zm-.5-.4c-1.6-.9-3.5-1.4-5.6-1.5-.9 0-1.9.1-2.8.5-.4.2-.8.4-1.2.7s-.9.7-1.1 1.1c-.1.1 0 .1.1.1l1.1-.9c.4-.3.8-.5 1.2-.7.9-.4 1.9-.5 2.8-.5 2 .1 3.8.5 5.4 1.4.1 0 .2-.1.1-.2h0z"/></g><path d="M260.1 63.7c.4-.1 1.1-.6 1.2 0 .1.5-.5 1-.4 1.5.1.4.4.6.6.9.4.7.7 1.7.7 2.5 0 1.6-1.4 3.5-2.6 4.5-1.5 1.2-3.6 2.4-5.6 2.2-.9-.1-1.9-.3-2.8-.7-.8-.3-1.3-.9-2.1-1.1-.4-.1-.9 0-1.1-.3s-.1-.6-.2-.9c-.3-1.3-1.1-2.6-1-3.9.1-.7.3-1.6.7-2.2.7-1.2 2-2.3 3.3-2.9 1-.5 1.9-.7 3.1-.9.9-.1 1.9-.1 2.7.2 1.2.5 2.3 1.3 3.5 1.1z" fill="#f0e4c4"/><g fill="#e4cd9b"><path d="M248.3 72.4v-1c-.1-.4-.2-.8-.2-1.2-.1-.8 0-1.7.2-2.5.4-1.3 1.5-2.4 2.7-3.1a6.52 6.52 0 0 1 4.1-1.1c.8 0 1.5.2 2.2.3l1.9.4c.4.1.9.1 1.3-.1V64c-.3 0-.6 0-.9-.1s-.7-.1-1-.2c-.7-.2-1.3-.4-2-.5-1.4-.2-2.8-.2-4.2.3-1.3.5-2.5 1.3-3.4 2.3-1 1.1-1.3 2.5-1.3 4 0 .4.1.9.2 1.3s.3.9.3 1.3c-.1.1 0 .1.1 0h0zm12.7-8.6s0 .1 0 0c0 .1 0 0 0 0s0 .1 0 0c-.1.1-.1.1-.2.1 0 0 0 .1.1.1s.1 0 .1-.2c0 .1.1.1 0 0h0z"/><path d="M260.7 64.2c-.5.4-.3 1.1-.2 1.7.2.7.5 1.4.5 2.1 0 1.4-.6 2.6-1.4 3.7-.9 1-2.1 1.7-3.3 2.1-1.4.4-2.8.4-4.2-.1-.7-.2-1.3-.6-1.9-.8s-1.2-.3-1.8-.1c-.2.1-.1.3.1.3.6-.1 1.2 0 1.8.3.7.3 1.3.6 2 .8 1.3.4 2.7.4 4 0 2.4-.7 4.5-2.7 4.9-5.3.1-.7 0-1.5-.1-2.2-.2-.8-.9-1.8-.4-2.5.1 0 0-.1 0 0h0zm-.8.3a6.28 6.28 0 0 0-1.9.3l-2 .5-1.9.6-1.8.7 1.9-.6c.6-.2 1.3-.3 2-.5l1.9-.4c.6-.1 1.3-.3 1.8-.6h0z"/><path d="M251.5 66.9c-1.1.6-2 1.5-2.4 2.7-.2.6-.4 1.2-.5 1.8l-.3.9c-.1.3-.3.7-.2.9 0 .1.1.1.2.1.2-.1.3-.5.3-.7l.3-.9c.1-.6.3-1.2.5-1.7.3-1.2 1-2.3 2.1-3.1.1.1 0 0 0 0h0zm8.5-2.3c-.4.4-.6.9-.9 1.4s-.5 1-.7 1.6c-.4.9-.7 1.9-1.5 2.5-1.5 1.2-3.5 1.6-5.4 2 0 0-.1.1 0 .1 1.9-.1 3.9-.7 5.5-1.8.8-.6 1.2-1.5 1.6-2.4.2-.6.4-1.1.7-1.6.2-.6.6-1.1.7-1.8h0z"/><path d="M250.8 72.3h-.2.2zm-1 .1l-.8.3c-.2.1-.6.2-.7.4 0 .1 0 .1.1.1.2 0 .5-.2.7-.3l.9-.3s-.1-.2-.2-.2h0zm8.3-6.5c-.2.2-.5.4-.7.6s-.5.3-.7.5c0 0 0 .1.1.1a3.04 3.04 0 0 0 .7-.5l.8-.5c0-.1-.1-.2-.2-.2h0zm-3.2 2.2l-2.4 1.5-2.4 1.8c0 .1 0 .1.1.1.4-.2.7-.6 1.1-.8.4-.3.8-.6 1.2-.8l2.4-1.6c.2-.1.1-.3 0-.2h0zm-5.8 4.3h0z"/></g><g fill="#fff4df"><path d="M249.5 71.7c.3-.6.7-1.1 1.1-1.6 0-.1 0-.1-.1-.1-.3.2-.5.4-.6.7-.2.3-.3.6-.5.9-.1.2 0 .2.1.1h0zm8.9-6.4c-1.3.4-2.6.9-3.8 1.4-.6.3-1.2.5-1.7.9-.5.3-1.1.7-1.5 1.2 0 .1 0 .1.1.1.5-.4 1-.8 1.6-1.1l1.7-.9 3.7-1.4c0-.1 0-.2-.1-.2h0zm.4.4c-.3.3-.5.6-.8 1l-.9 1.1a6.55 6.55 0 0 1-1.8 1.5c-.6.4-1.3.7-1.9 1-.7.3-1.4.6-2 1-.1 0 0 .1.1.1.7-.2 1.4-.6 2.1-.9s1.4-.6 2-1a11.51 11.51 0 0 0 1.7-1.4l.9-1.1c.3-.4.5-.8.6-1.3.2.1.1 0 0 0h0zm-7.4 7c1 0 2 .2 3 .1s1.9-.3 2.7-.9c1-.7 1.8-1.7 2.2-2.8.2-.5.4-1.1.5-1.7.1-.3.1-.6.1-.9 0-.4.1-.7.1-1.1 0-.1-.1-.1-.1 0 0 .3-.1.6-.1.9s-.1.6-.2.9c-.1.6-.3 1.1-.5 1.6-.4 1.1-1.2 2.1-2.2 2.8-1.5 1.3-3.6 1-5.5 1.1 0-.1 0 0 0 0h0z"/><path d="M258.2 64.2h-.2c.1.1.2.1.2 0h0zm-.6-.1c-2.1 0-4.2.5-6.1 1.4-.8.4-1.6 1-2.1 1.7-.3.4-.4.8-.6 1.2s-.3 1-.2 1.4c0 .1.1.1.2 0 .2-.4.2-.9.3-1.3s.3-.8.6-1.2c.5-.8 1.3-1.3 2.2-1.7 1.8-.9 3.9-1.3 5.9-1.4-.1.1-.1-.1-.2-.1h0z"/></g><path d="M168.7 65.8c.5.3 1.6.2 1.3 1-.2.6-1.2.6-1.5 1.3-.2.4 0 1 0 1.4 0 1.1-.4 2.3-1 3.2-1.2 1.7-4 2.8-6 2.9-2.5.2-5.6-.1-7.6-1.8-.9-.8-1.8-1.7-2.5-2.8-.6-.9-.8-1.9-1.5-2.7-.3-.4-.9-.7-1-1.2-.1-.4.3-.7.5-1.1.6-1.5.6-3.5 1.7-4.9a7.98 7.98 0 0 1 2.3-1.8c1.7-.8 3.7-.9 5.5-.7 1.5.2 2.6.7 3.9 1.3 1.1.5 2.1 1.2 2.8 2.2 1 1.4 1.7 2.9 3.1 3.7z" fill="#f0e4c4"/><g fill="#e4cd9b"><path d="M149.9 66.3c.3-.3.5-.7.7-1.1l.6-1.4a9.58 9.58 0 0 1 2-2.5c1.4-1.1 3.3-1.4 5.1-1.4a9.26 9.26 0 0 1 5.1 1.8c.8.6 1.5 1.3 2.2 2l1.8 1.8c.4.4.9.7 1.4.8 0 0 .1 0 0-.1-.3-.2-.6-.5-.9-.8s-.6-.6-.9-1l-1.8-2c-1.4-1.3-2.9-2.3-4.7-2.8-1.7-.4-3.6-.5-5.3 0-1.8.5-3.2 1.7-4.2 3.4-.3.5-.6 1-.7 1.5-.2.5-.3 1.1-.6 1.6-.1.2 0 .4.2.2h0zm19.7.3h0-.3s-.1.1 0 .1h.2c.1 0 .2 0 .1-.1h0c.1.1.1 0 0 0h0z"/><path d="M169.1 66.7c-.8.1-1.2 1-1.4 1.7-.3.9-.5 1.8-1 2.6-.9 1.5-2.5 2.4-4.1 2.8s-3.4.3-5-.2c-1.8-.6-3.3-1.6-4.4-3.1l-1.5-2.3c-.5-.6-1.1-1.2-1.9-1.4-.2 0-.3.3-.1.4.8.3 1.3 1 1.7 1.6l1.6 2.3c1.1 1.4 2.6 2.4 4.3 2.9 3.1 1 6.7.5 9-2 .7-.7 1.1-1.6 1.4-2.5s.3-2.5 1.4-2.8c0 .1 0 0 0 0h0zm-1.1-.2c-.7-.5-1.4-.8-2.2-1.1l-2.4-1-2.5-.8-2.4-.6 2.5.7 2.4 1c.8.3 1.5.6 2.3 1 .7.3 1.5.7 2.3.8h0z"/><path d="M157.2 62.9c-1.6-.1-3.2.2-4.6 1.1-.7.4-1.2 1-1.8 1.5-.3.3-.6.6-1 .8-.3.2-.8.5-.9.8 0 .1 0 .2.1.2.3.1.6-.3.8-.5.3-.3.6-.5 1-.8l1.8-1.5c1.4-1 2.9-1.6 4.6-1.6 0 .1.1 0 0 0h0zm10.8 3.8c-.7.2-1.3.5-1.9.8-.7.3-1.3.7-1.9 1.1-1.1.7-2.1 1.5-3.4 1.6-2.5.2-5-.8-7.2-1.8-.1 0-.1.1-.1.1 2.1 1.3 4.7 2.2 7.2 2.1 1.3 0 2.4-.7 3.4-1.4L166 68c.7-.4 1.4-.7 2.1-1.2l-.1-.1z"/><path d="M152.6 68.1c-.1 0-.1-.1-.2-.1h0c.1.1.2.1.2.1h0zm-1.2-.6l-1.1-.3c-.3-.1-.8-.2-1.1-.1-.1 0-.1.1 0 .2.3.1.7.1.9.2.4.1.8.2 1.1.4.3-.1.4-.3.2-.4h0zm13.6-.8c-.4.1-.8.1-1.2.1s-.7-.1-1.1 0c-.1 0-.1.1 0 .1h2.3c.2 0 .2-.2 0-.2h0zm-5-.1c-1.2 0-2.4-.1-3.6-.1h-1.9c-.6 0-1.3 0-1.9.1-.1 0-.1.1 0 .2.6 0 1.2-.1 1.8 0h1.9l3.8.1c.2 0 .1-.3-.1-.3h0zm-9.3.4h0c0-.1 0 0 0 0h0z"/></g><path d="M151.6 66.6c.7-.4 1.5-.6 2.3-.9.1 0 .1-.2 0-.2-.4 0-.8.1-1.2.3s-.8.4-1.1.8c-.2-.2-.1 0 0 0h0zm14.2-.3l-5.1-1.3a10.68 10.68 0 0 0-2.5-.3c-.8-.1-1.7-.1-2.5.2-.1 0-.1.2 0 .2.8 0 1.7-.1 2.5 0l2.5.3c1.7.3 3.3.8 5 1.2.1-.1.1-.3.1-.3h0zm.1.7c-.5.1-1 .3-1.5.4l-1.7.6c-1 .3-2 .3-3 .3-.9 0-1.9-.2-2.8-.4s-1.9-.4-2.8-.4c-.1 0-.1.1 0 .1.9.3 1.9.4 2.9.6s1.9.3 2.9.4c1 0 1.9 0 2.8-.3l1.7-.6c.5-.2 1.1-.4 1.5-.7.1.1.1 0 0 0h0zm-12.8 2l3.1 2.3c1.1.7 2.3 1.1 3.5 1.1 1.5 0 3.1-.5 4.4-1.3a11.51 11.51 0 0 0 1.7-1.4c.3-.3.5-.6.8-.9.3-.4.6-.7.8-1.1.1-.1 0-.2-.1-.1-.3.3-.5.6-.7.9s-.5.6-.8.8a11.51 11.51 0 0 1-1.7 1.4c-1.3.8-2.8 1.4-4.3 1.4-2.6 0-4.7-1.8-6.7-3.1 0-.1-.1 0 0 0h0zm13.3-4.1c-.1 0-.2-.1-.2-.2 0 0-.1 0 0 0 0 .2.1.3.2.2 0 .1 0 .1 0 0h0zm-.6-.5c-2.3-1.6-4.8-2.6-7.6-3-1.2-.2-2.4-.1-3.5.3-.5.2-1 .5-1.5.8-.5.4-1.1.8-1.3 1.4-.1.1.1.2.2.1.5-.3.8-.8 1.3-1.1s.9-.6 1.5-.8c1.1-.4 2.4-.4 3.6-.2 2.6.4 5.1 1.4 7.3 2.9-.1-.1.1-.3 0-.4h0z" fill="#fff4df"/><path d="M217.7 47c.4.1 1.1-.2 1 .4 0 .4-.7.7-.7 1.1 0 .3.2.6.3.9.2.7.2 1.6 0 2.3-.4 1.3-2 2.6-3.3 3.1-1.6.6-3.6 1-5.2.3-.8-.3-1.5-.8-2.1-1.3s-.9-1.1-1.5-1.4c-.3-.2-.7-.2-.9-.6-.1-.3.1-.5.1-.8.1-1.1-.3-2.4.2-3.5.2-.6.7-1.2 1.1-1.6.9-.8 2.2-1.3 3.4-1.5 1-.1 1.8-.1 2.8.1.8.1 1.6.4 2.2.9.8.5 1.5 1.4 2.6 1.6z" fill="#f0e4c4"/><g fill="#e4cd9b"><path d="M205.6 51c.1-.3.2-.6.2-.8 0-.3.1-.7.1-1 .2-.7.4-1.4.8-2 .7-1 1.9-1.6 3-1.9 1.2-.3 2.5-.3 3.7.2.6.2 1.2.5 1.8.8.5.3 1 .6 1.5.8a1.39 1.39 0 0 0 1.1.2v-.1c-.3-.1-.5-.2-.7-.3-.3-.1-.5-.3-.8-.4-.5-.3-1-.7-1.6-.9-1.1-.6-2.3-.9-3.6-.9-1.2 0-2.4.4-3.4 1-1.1.7-1.7 1.8-2 3-.1.4-.2.7-.2 1.1s0 .8-.1 1.1c0 .2.2.3.2.1h0zm12.8-3.6h0c0-.1 0 0 0 0-.1 0-.1 0-.2.1v.1h.1c.1-.2.2-.2.1-.2h0z"/><path d="M218.1 47.5c-.5.2-.6.9-.6 1.3 0 .7 0 1.3-.2 1.9-.3 1.1-1.1 2-2.1 2.6s-2.1.9-3.3.9c-1.3 0-2.4-.4-3.5-1.2l-1.4-1.2c-.4-.3-.9-.6-1.5-.5-.1 0-.2.3 0 .3.5 0 1 .4 1.4.7l1.5 1.2c1 .7 2.2 1 3.4 1 2.2 0 4.4-1 5.4-3.1.3-.6.4-1.2.4-1.9.2-.5-.1-1.4.5-2 .1.1 0 0 0 0h0zm-.7.1c-.5-.2-1.1-.2-1.6-.3-.6 0-1.2-.1-1.8-.1h-1.8c-.6 0-1.1 0-1.7.1h1.7c.6 0 1.2.1 1.8.1s1.1.1 1.7.2 1.1.1 1.7 0h0z"/><path d="M209.7 47.4c-1.1.2-2 .7-2.7 1.6l-.9 1.3c-.2.2-.3.5-.5.7-.1.2-.4.5-.4.7l.1.1c.2 0 .3-.3.5-.5s.3-.5.5-.7c.3-.4.5-.9.8-1.3a5.52 5.52 0 0 1 2.6-1.9c0 .1 0 0 0 0h0zm7.7.3c-.4.2-.7.6-1.1.9l-1 1.1c-.6.7-1 1.4-1.9 1.7-1.6.6-3.4.4-5 .3 0 0-.1.1 0 .1 1.6.4 3.4.5 5-.1.8-.3 1.4-.9 1.9-1.6.3-.4.6-.8 1-1.2.4-.3.8-.6 1.1-1.2.1.1 0 0 0 0h0z"/><path d="M207.8 51.7h-.2.2zm-.9-.2h-.8c-.2 0-.5 0-.7.2v.1c.2 0 .4-.1.6-.1h.8c.2 0 .2-.2.1-.2h0zm8.6-3.2c-.2.1-.5.2-.7.3s-.5.1-.7.2v.1c.2 0 .5-.1.7-.2.3-.1.5-.1.8-.2.1-.1 0-.2-.1-.2h0zm-3.3.9l-2.4.6c-.4.1-.8.2-1.2.4s-.8.3-1.2.5v.1c.4-.1.8-.3 1.2-.4s.8-.2 1.2-.4c.8-.2 1.6-.4 2.4-.8.2.2.2 0 0 0h0zm-5.9 2.1h0z"/></g><path d="M206.8 50.9c.4-.4.9-.7 1.3-1 .1 0 0-.1-.1-.1-.3.1-.5.2-.7.4-.2.1-.4.3-.5.7-.1-.1-.1 0 0 0h0zm9.1-3c-1.2 0-2.3 0-3.5.2-.6.1-1.1.1-1.7.3-.5.1-1.1.3-1.6.6-.1 0 0 .1.1.1a9.83 9.83 0 0 1 1.6-.5l1.7-.3 3.4-.2c.1-.1 0-.2 0-.2h0zm.2.5l-.9.6-1 .7c-.6.4-1.2.6-1.9.8-.6.2-1.2.2-1.9.3-.6.1-1.3.1-1.9.3-.1 0 0 .1 0 .1.7 0 1.3-.1 2-.2l2-.3 1.8-.7 1-.7c.3-.4.6-.6.8-.9.1 0 .1-.1 0 0h0zm-7.9 3.7c.8.3 1.6.7 2.5.9.8.2 1.7.3 2.5 0 1-.3 1.9-1 2.6-1.7.3-.4.6-.8.8-1.2.1-.2.2-.5.3-.7.1-.3.3-.6.3-.9 0-.1-.1-.1-.1 0-.1.2-.2.5-.3.7s-.2.5-.4.7c-.3.4-.5.8-.8 1.2-.6.8-1.5 1.4-2.5 1.7-1.6.5-3.3-.2-4.9-.7h0zm7.8-5.2c-.1 0-.1 0-.2-.1h0c.1.1.2.2.2.1 0 .1 0 0 0 0h0zm-.5-.2c-1.8-.6-3.6-.7-5.5-.5-.8.1-1.6.4-2.2.9-.3.2-.6.5-.8.8s-.5.7-.6 1.1c0 .1.1.1.1.1l.6-1c.2-.3.5-.6.8-.8.6-.5 1.5-.8 2.3-.8 1.7-.2 3.6-.1 5.2.4.2 0 .2-.2.1-.2h0z" fill="#fff4df"/></svg>