<svg xmlns="http://www.w3.org/2000/svg" xmlns:xlink="http://www.w3.org/1999/xlink" viewBox="0 0 389 157" xmlns:v="https://vecta.io/nano"><style><![CDATA[.O{opacity:.7}.P{enable-background:new}.Q{fill:#eab071}.R{fill:#af3535}.S{fill:#f93838}.T{fill:#f2bfb1}]]></style><path d="M179.5 93.6c.5 1.8 2.9 2.1 4.7 2.2 9.3.1 18.6.3 27.6-2 1-.3 1.9-.5 2.7-1.1s1.3-1.6 1.2-2.5c0-.1-.2-1.4-.2-1.5-.4-1.3-1.8-.7-3.1-1.1-7-1.8-14.4-.2-21.7.6-2.2.2-10.3-.3-11.6 3-.2.4.1 1.6.4 2.4z" class="Q"/><path d="M179.3 92.2c.5 1.8 2.9 2.1 4.7 2.2 9.3.1 18.6.3 27.6-2 1-.3 1.9-.5 2.7-1.1s1.3-1.6 1.2-2.5c-.2-1.5-1.9-2.2-3.3-2.6-7-1.8-14.4-.2-21.7.6-2.5.1-12.8.2-11.2 5.4z" class="R"/><path d="M212.1 86c-7-1.8-14.4-.2-21.7.6-2.5.3-12.9.3-11.2 5.6.5 1.8 2.9 2.1 4.7 2.2 1.4 0 2.8 0 4.3.1 0-.6.4-1.1.7-1.5 2-2.3 5.1-3.4 8-4.2 3.1-.8 6.3-1.4 9.5-1.8 2.3-.3 4.7-.5 7.1-.4-.5-.3-.9-.5-1.4-.6z" class="S"/><path d="M183.1 91c.2.2.5.1.8.1.5-.1 1-.3 1.4-.5.2-.1.4-.2.4-.3.1-.2.2-.4.1-.5-.1-.2-.4-.2-.5-.2-.4 0-3.4.7-2.2 1.4zm11 2.4c.1.1.3.1.4.1 1 .1 2 .1 2.8-.5.1 0 .1-.1.1-.2.1-.1 0-.3-.2-.3s-.3-.1-.4-.1l-2.2.1c-.2.1-1.2.5-.5.9zm12.4-3.7c.2.2.5.2.8.1.7-.3 1.2-.8 1.7-1.4.7-1-.2-2-1.1-1.2-.5.3-1.7 2.1-1.4 2.5zm-9.7-1.6c.2.1.5.2.7.2.5.1 1.1.1 1.6 0 .4 0 .8-.1 1.1-.4.2-.2.4-.4.3-.6s-.3-.3-.5-.4c-.8-.2-1.9-.4-2.7-.1-.7.3-1.3.9-.5 1.3zm14.1 2.6c-.3-.1-.7 0-1 .3 0 0-.1.1-.1.2s.1.2.2.2c.8.2 1.7 0 2.2-.6-.5-.1-1.1-.1-1.6 0l.3-.1zm-19.8-3.4c-.4 0-.9.1-1.2.3-.1 0-.1.1-.1.1-.1.2.2.3.4.3.7 0 1.4-.1 2-.3.1 0 .3-.1.2-.2 0-.1-.1-.1-.1-.1-.4-.2-.8-.2-1.2-.1h0z" class="O T P"/><use xlink:href="#B" class="Q"/><use xlink:href="#C" class="R"/><use xlink:href="#D" class="S"/><g class="T P"><path d="M201.2 53.5c.2.1.4.1.6 0l1-.3c.1 0 .2-.1.3-.2s.1-.2 0-.4c-.1-.1-.2-.1-.4-.1-.2.1-2.3.5-1.5 1zm7.7 1.7h.3c.7 0 1.4.1 1.9-.3l.1-.1c0-.1 0-.2-.1-.2h-.3c-.5 0-1 0-1.5.1-.2-.1-.9.2-.4.5zm8.6-2.6c.1.2.4.1.5.1.5-.2.9-.6 1.2-1 .5-.7-.1-1.4-.8-.8-.2.2-1.1 1.4-.9 1.7zm-6.7-1.1a.9.9 0 0 0 .5.1h1.1c.3 0 .6-.1.8-.2a.76.76 0 0 0 .2-.4c-.1-.1-.2-.2-.4-.2-.6-.2-1.3-.2-1.9-.1-.5.1-.9.5-.3.8zm9.8 1.9c-.2-.1-.5 0-.7.2v.1c0 .1.1.1.2.1.5.1 1.2 0 1.5-.4-.4-.1-.7-.1-1.1 0h.1z" class="O"/><use xlink:href="#E" class="O"/></g><use xlink:href="#B" x="19.1" y="17.7" class="Q"/><use xlink:href="#C" x="19.1" y="17.7" class="R"/><use xlink:href="#D" x="19.1" y="17.7" class="S"/><g class="T P"><path d="M220.3 71.2c.2.1.4.1.6 0l1-.3c.1 0 .2-.1.3-.2s.1-.2 0-.4c-.1-.1-.2-.1-.4-.1-.2.1-2.3.5-1.5 1zm7.7 1.7h.3c.7 0 1.4.1 1.9-.3l.1-.1c0-.1 0-.2-.1-.2h-.3c-.5 0-1 0-1.5.1-.2-.1-.9.2-.4.5zm8.6-2.6c.1.2.4.1.5.1.5-.2.9-.6 1.2-1 .5-.7-.1-1.4-.8-.8-.3.2-1.1 1.4-.9 1.7zm-6.8-1.1a.9.9 0 0 0 .5.1h1.1c.3 0 .6-.1.8-.2a.76.76 0 0 0 .2-.4c-.1-.1-.2-.2-.4-.2-.6-.2-1.3-.2-1.9-.1-.4.1-.8.5-.3.8zm9.9 1.9c-.2-.1-.5 0-.7.2v.1c0 .1.1.1.2.1.5.1 1.2 0 1.5-.4-.4-.1-.7-.1-1.1 0h.1z" class="O"/><use xlink:href="#E" x="19.1" y="17.7" class="O"/></g><path d="M97.8 75.9c.5 1.6 2.7 1.9 4.4 1.9 8.7.1 17.5.2 25.9-1.8.9-.2 1.8-.5 2.5-1s1.3-1.4 1.1-2.2c0-.1-.1-1.3-.1-1.3-.4-1.1-1.7-.6-2.9-.9-6.6-1.6-13.6-.2-20.3.5-2 .2-9.7-.3-10.8 2.6-.3.5 0 1.6.2 2.2z" class="Q"/><path d="M97.7 74.7c.5 1.6 2.7 1.9 4.4 1.9 8.7.1 17.5.2 25.9-1.8.9-.2 1.8-.5 2.5-1s1.3-1.4 1.1-2.2c-.2-1.3-1.8-2-3.1-2.3-6.6-1.6-13.6-.2-20.3.5-2.3.3-12 .3-10.5 4.9z" class="R"/><path d="M128.4 69.3c-6.6-1.6-13.6-.2-20.3.5-2.4.2-12.1.2-10.5 4.9.5 1.6 2.7 1.9 4.4 1.9 1.3 0 2.7 0 4 .1 0-.5.3-.9.7-1.3 1.9-2 4.8-3 7.5-3.7 2.9-.7 5.9-1.3 8.9-1.6 2.2-.3 4.4-.4 6.6-.3-.4-.3-.8-.4-1.3-.5z" class="S"/><path d="M101.2 73.6c.2.1.5.1.8.1.5-.1.9-.2 1.3-.4.1-.1.3-.1.4-.3.1-.1.1-.3.1-.4-.1-.1-.3-.2-.5-.2-.4 0-3.2.6-2.1 1.2zm10.3 2.1c.1.1.2.1.4.1.9.1 1.9.1 2.6-.4.1 0 .1-.1.1-.1.1-.1 0-.2-.1-.3s-.2-.1-.4-.1l-2 .1c-.3 0-1.2.4-.6.7zm11.7-3.2c.1.2.5.2.7.1.6-.3 1.2-.7 1.6-1.2.7-.8-.1-1.7-1-1.1-.5.3-1.6 1.8-1.3 2.2zm-9.2-1.4c.2.1.4.1.7.2.5.1 1 .1 1.5 0a1.69 1.69 0 0 0 1-.3c.2-.1.3-.4.2-.6a.55.55 0 0 0-.5-.3c-.8-.2-1.8-.3-2.5-.1-.5.2-1.1.7-.4 1.1zm13.3 2.3a.96.96 0 0 0-.9.2l-.1.1c0 .1.1.1.2.1.7.2 1.6 0 2.1-.6-.5-.1-1-.1-1.5 0l.2.2zm-18.5-3c-.4 0-.8.1-1.2.3-.1 0-.1.1-.1.1-.1.1.2.3.4.2.7 0 1.3-.1 1.9-.3.1 0 .2-.1.2-.2s-.1-.1-.1-.1c-.5-.1-.8-.1-1.1 0h0z" class="O T P"/><path d="M288.3 67.5c.5 1.8 2.9 2.1 4.7 2.2 9.3.1 18.6.3 27.6-2 1-.3 1.9-.5 2.7-1.1s1.3-1.6 1.2-2.5c0-.1-.2-1.4-.2-1.5-.4-1.3-1.8-.7-3.1-1.1-7-1.8-14.4-.2-21.7.6-2.2.2-10.3-.3-11.6 3-.1.4.2 1.6.4 2.4z" class="Q"/><path d="M288.2 66.1c.5 1.8 2.9 2.1 4.7 2.2 9.3.1 18.6.3 27.6-2 1-.3 1.9-.5 2.7-1.1s1.3-1.6 1.2-2.5c-.2-1.5-1.9-2.2-3.3-2.6-7-1.8-14.4-.2-21.7.6-2.5.1-12.8.1-11.2 5.4z" class="R"/><path d="M321 59.9c-7-1.8-14.4-.2-21.7.6-2.5.3-12.9.3-11.2 5.6.5 1.8 2.9 2.1 4.7 2.2 1.4 0 2.8 0 4.3.1 0-.6.4-1.1.7-1.5 2-2.3 5.1-3.4 8-4.2 3.1-.8 6.3-1.4 9.5-1.8 2.3-.3 4.7-.5 7.1-.4-.5-.4-1-.5-1.4-.6z" class="S"/><path d="M291.9 64.9c.2.2.5.1.8.1.5-.1 1-.3 1.4-.5.2-.1.4-.2.4-.3.1-.2.2-.4.1-.5-.1-.2-.4-.2-.5-.2-.3 0-3.3.6-2.2 1.4zm11.1 2.3c.1.1.3.1.4.1 1 .1 2 .1 2.8-.5.1 0 .1-.1.1-.2.1-.1 0-.3-.2-.3s-.3-.1-.4-.1l-2.2.1c-.3.2-1.2.6-.5.9zm12.3-3.6c.2.2.5.2.8.1.7-.3 1.2-.8 1.7-1.4.7-1-.2-2-1.1-1.2-.4.3-1.6 2-1.4 2.5zm-9.7-1.6c.2.1.5.2.7.2.5.1 1.1.1 1.6 0 .4 0 .8-.1 1.1-.4.2-.2.4-.4.3-.6s-.3-.3-.5-.4c-.8-.2-1.9-.4-2.7-.1-.7.2-1.3.9-.5 1.3zm14.2 2.6c-.3-.1-.7 0-1 .3 0 0-.1.1-.1.2s.1.2.2.2c.8.2 1.7 0 2.2-.6-.5-.1-1.1-.1-1.6 0l.3-.1zM300 61.1c-.4 0-.9.1-1.2.3-.1 0-.1.1-.1.1-.1.2.2.3.4.3.7 0 1.4-.1 2-.3.1 0 .3-.1.2-.2 0-.1-.1-.1-.1-.1-.5-.1-.9-.1-1.2-.1h0z" class="O T P"/><defs ><path id="B" d="M198.7 55.4c.4 1.2 2 1.5 3.3 1.5 6.4.1 13 .2 19.2-1.4.7-.2 1.4-.4 1.9-.8a1.84 1.84 0 0 0 .8-1.8c0-.1-.1-1-.1-1.1-.3-.9-1.2-.5-2.2-.7-4.9-1.2-10.1-.1-15.1.4-1.5.2-7.2-.2-8 2.1-.2.4 0 1.2.2 1.8z"/><path id="C" d="M198.6 54.4c.4 1.2 2 1.5 3.3 1.5 6.4.1 13 .2 19.2-1.4.7-.2 1.4-.4 1.9-.8a1.84 1.84 0 0 0 .8-1.8c-.2-1-1.3-1.6-2.3-1.8-4.9-1.2-10.1-.1-15.1.4-1.7.2-8.9.2-7.8 3.9z"/><path id="D" d="M221.4 50.1c-4.9-1.2-10.1-.1-15.1.4-1.8.2-9 .2-7.8 3.9.4 1.2 2 1.5 3.3 1.5h3c0-.4.2-.8.5-1.1 1.4-1.6 3.5-2.3 5.6-2.9 2.2-.6 4.4-1 6.6-1.3 1.6-.2 3.3-.3 4.9-.2a1.69 1.69 0 0 0-1-.3z"/><path id="E" d="M206.8 50.9c-.3 0-.6.1-.9.2 0 0-.1 0-.1.1s.1.2.3.2c.5 0 1-.1 1.4-.2.1 0 .2-.1.1-.2 0 0-.1 0-.1-.1h-.7z"/></defs></svg>