<svg xmlns="http://www.w3.org/2000/svg" viewBox="0 0 389 157"  xmlns:v="https://vecta.io/nano"><path d="M139.5 76.1c-1.5-.2-3-.5-4.4-.9-1-.3-2.1-.7-2.7-1.6-.4-.7-.4-1.5.1-2.2-.9 0-1.6-.2-2.2-.5-1-.7-1.1-1.6-1.1-2.4 0-1 .2-2.1.4-3.1.2-.8.5-1.7 1.5-2.2.9-.4 2.2-.5 3.4 0-.1-.8 0-1.5.5-2 .9-.9 2.6-1.3 5.1-1.1l5 .8c1.3.3 2.9.7 3.7 1.8a2.57 2.57 0 0 1 .3 2.4c.4 0 .9 0 1.4.1 1.3.4 2.3 1.3 2.7 2.7.4 1.2.5 2.5.3 3.7-.1.6-.3 1.4-.9 2.1-.7.8-1.8 1.2-2.9 1.2-.8 0-1.7-.3-2.4-.7-.1.4-.3.7-.6 1-.7.8-2 1.2-3.9 1.2-1 0-2.2-.1-3.3-.3zm-4.2-6.4c.4 0 .7.2.8.5.2.3.1.6-.2.8-.5.3-1.1.7-1.4 1.1s-.4.8-.2 1.1.7.6 1.5.8c2.2.7 4.5 1 6.8 1 1.3 0 2.1-.2 2.4-.6.5-.5.5-1.4.2-2.3-.1-.3.1-.7.6-.8s1 .1 1.2.4c.4.5.7 1 1.2 1.3.4.3.9.5 1.3.5.5 0 1-.2 1.3-.6s.5-.9.6-1.6c.2-1.1.1-2.2-.3-3.2-.3-.9-.8-1.5-1.3-1.6-.6-.2-1.4 0-2.4.6-.4.2-.9.2-1.3-.1-.4-.2-.5-.6-.2-.9.4-.5.9-1 1.1-1.5s.2-1-.1-1.4c-.4-.6-1.5-.8-2.4-1.1-1.5-.3-3.1-.6-4.7-.7-1.7-.2-2.8 0-3.3.5-.3.3-.4.9-.2 1.5s.7 1.2 1.2 1.8c.3.3.2.7-.3.9a1.23 1.23 0 0 1-1.3-.2c-.5-.5-1.5-1.1-2.2-1.5-.5-.2-1.1-.3-1.5-.1-.5.2-.7.8-.8 1.4-.2 1-.3 2-.4 2.9 0 .2 0 1 .4 1.3.3.2.9.1 1.1.1s.4-.1.6-.1c.5-.1 1-.2 1.7-.2h.5z" fill="#dd4764"/><path d="M140 61.4c.3 0 .5.1.8.1-.5-.1-1.1-.1-1.6-.2-1.7-.2-2.8 0-3.3.5-.3.3-.4.9-.2 1.5s.7 1.2 1.2 1.8c.3.3.2.7-.3.9-.1 0-.1.1-.2.1.3.2.8.2 1.1 0 .4-.2.5-.6.3-.9-.5-.6-1-1.2-1.2-1.8s-.2-1.1.2-1.5c.5-.5 1.6-.7 3.2-.5zm-8.5 2.8c-.5.2-.7.8-.8 1.4-.2 1-.3 2-.4 2.9 0 .2 0 1 .4 1.3.2.1.6.1.9.1h0c-.4-.3-.4-1-.4-1.3 0-1 .2-2 .4-2.9.1-.6.3-1.2.8-1.4.1-.1.3-.1.4-.1-.4-.1-.9-.2-1.3 0zm16.8 8.8c-.5-.4-.9-.8-1.2-1.3-.2-.3-.8-.5-1.2-.4.1.1.3.2.4.3.4.5.7 1 1.2 1.3.4.3.9.5 1.3.5h.3c-.3-.1-.6-.2-.8-.4zm-4-12.3c1.3.3 2.9.7 3.7 1.8a2.57 2.57 0 0 1 .3 2.4h.9c.3-.8.2-1.7-.3-2.3-.8-1.1-2.4-1.5-3.7-1.8l-4.2-.7 3.3.6zm-12.5 10.6h-.3.3zm21.5-3.4c-.4-1.4-1.4-2.4-2.7-2.7-.4-.1-.7-.1-1-.1h.2c1.3.4 2.3 1.3 2.7 2.7.4 1.2.5 2.5.3 3.7-.1.6-.3 1.4-.9 2.1-.7.8-1.8 1.2-2.9 1.2h0c.3.1.6.1.9.1 1.2 0 2.2-.4 2.9-1.2.6-.7.8-1.5.9-2.1.1-1.2-.1-2.5-.4-3.7zM133.6 63h0c-.2-.2-.4-.2-.6-.2.3 0 .4.1.6.2zm12.8 11.1c-.1.4-.3.7-.6 1-.7.8-2 1.2-3.9 1.2-1 0-1.9-.1-2.9-.2a.9.9 0 0 1 .5.1l3.3.2c2 0 3.2-.4 3.9-1.2.2-.2.3-.5.5-.7-.3-.2-.6-.3-.8-.4zm.4-7.1c-.1.1-.2.1-.3.1.4.2.8.2 1.2 0 .7-.4 1.2-.6 1.7-.6-.1 0-.1-.1-.2-.1-.7-.2-1.4 0-2.4.6zm-10.9 7c-.9-.3-1.3-.5-1.5-.8s-.1-.7.2-1.1.9-.8 1.4-1.1c.3-.2.4-.5.2-.8-.1-.2-.5-.4-.8-.5h-.5c.2.1.4.2.4.4.2.3.1.6-.2.8-.5.3-1.1.7-1.4 1.1s-.4.8-.2 1.1.7.6 1.5.8a32.9 32.9 0 0 0 4.3.9c-1.2-.2-2.4-.5-3.4-.8z" fill="#af2e47"/><path d="M297.4 76c-1.4-.2-2.8-.5-4.2-.9-.9-.3-2-.7-2.6-1.5-.4-.6-.4-1.4.1-2.1a4.65 4.65 0 0 1-2.1-.5c-1-.6-1.1-1.5-1-2.3 0-1 .2-2 .4-2.9.2-.8.5-1.6 1.4-2.1.9-.4 2.1-.4 3.2 0-.1-.7 0-1.4.5-1.9.8-.9 2.5-1.2 4.8-1l4.7.7c1.2.3 2.8.7 3.5 1.7.5.7.6 1.5.3 2.3.4 0 .9 0 1.3.1 1.3.3 2.1 1.2 2.6 2.6.4 1.2.5 2.3.3 3.5-.1.5-.3 1.3-.8 2-.7.7-1.7 1.2-2.8 1.1-.8 0-1.6-.3-2.3-.7-.1.4-.3.7-.5 1-.7.7-1.9 1.1-3.8 1.1-.9 0-2 0-3-.2zm-4.1-6.1c.3 0 .6.2.8.4.2.3.1.5-.2.7-.5.3-1 .6-1.3 1s-.3.8-.2 1.1c.2.3.6.5 1.5.8 2.1.6 4.3 1 6.5 1 1.2 0 2-.2 2.3-.6.4-.5.5-1.3.2-2.2-.1-.3.1-.6.5-.7s.9.1 1.2.4c.4.4.7.9 1.2 1.2.4.3.9.5 1.2.5.5 0 1-.2 1.3-.6s.5-.8.6-1.5c.2-1 .1-2.1-.2-3.1-.3-.8-.7-1.4-1.2-1.5-.6-.1-1.3 0-2.3.6-.3.2-.9.2-1.2-.1-.4-.2-.4-.6-.2-.9.4-.5.9-.9 1.1-1.4s.2-1-.1-1.3c-.4-.5-1.4-.8-2.3-1l-4.4-.7c-1.6-.2-2.7 0-3.1.5-.3.3-.4.9-.2 1.4.2.6.7 1.1 1.1 1.7.3.3.1.7-.3.9a1.23 1.23 0 0 1-1.3-.2c-.5-.4-1.4-1.1-2.1-1.4-.4-.2-1.1-.3-1.5-.1-.5.2-.6.8-.7 1.3a13.33 13.33 0 0 0-.3 2.8c0 .2 0 1 .4 1.2.3.2.8.1 1.1.1.2 0 .4-.1.6-.1.5-.1 1-.2 1.6-.2h-.1z" fill="#dd4764"/><path d="M297.9 62c.2 0 .5 0 .7.1-.5-.1-1-.1-1.5-.2-1.6-.2-2.7 0-3.1.5-.3.3-.4.9-.2 1.4.2.6.7 1.1 1.1 1.7.3.3.1.7-.3.9-.1 0-.1 0-.2.1a.91.91 0 0 0 1 0c.4-.2.5-.5.3-.9-.4-.5-.9-1.1-1.1-1.7s-.2-1.1.2-1.4c.4-.5 1.5-.7 3.1-.5zm-8.1 2.6c-.5.2-.6.8-.7 1.3a13.33 13.33 0 0 0-.3 2.8c0 .2 0 1 .4 1.2.2.1.6.1.8.1h0c-.4-.2-.4-1-.4-1.2a13.33 13.33 0 0 1 .3-2.8c.1-.5.3-1.1.7-1.3.1-.1.2-.1.4-.1-.4-.1-.8-.1-1.2 0zm15.9 8.4c-.4-.3-.8-.8-1.2-1.2-.2-.3-.7-.4-1.2-.4.1.1.3.2.3.3.4.4.7.9 1.2 1.2.4.3.9.5 1.2.5h.2c-.1-.1-.3-.2-.5-.4zm-3.8-11.7c1.2.3 2.8.7 3.5 1.7.5.7.6 1.5.3 2.3h.8c.3-.8.2-1.6-.3-2.2-.8-1-2.3-1.5-3.5-1.7a26.29 26.29 0 0 0-3.9-.6c1 .1 2.1.3 3.1.5zM290 71.4h-.3.3c-.1 0 0 0 0 0zm20.4-3.2c-.4-1.4-1.3-2.3-2.6-2.6-.3-.1-.7-.1-1-.1h.2c1.3.3 2.1 1.2 2.6 2.6.4 1.2.5 2.3.3 3.5-.1.5-.3 1.3-.8 2-.7.7-1.7 1.2-2.8 1.1h0c.3.1.6.1.9.1 1.1 0 2.1-.4 2.8-1.1.6-.7.8-1.5.8-2 .1-1.2 0-2.3-.4-3.5zm-18.6-4.7h0c-.2-.1-.4-.2-.6-.2.2.1.4.1.6.2zM304 74.1c-.1.4-.3.7-.5 1-.7.7-1.9 1.1-3.8 1.1-.9 0-1.8-.1-2.8-.2a.9.9 0 0 1 .5.1l3.1.2c1.9 0 3.1-.4 3.8-1.1.2-.2.3-.4.4-.7-.3-.2-.5-.3-.7-.4zm.2-6.8c-.1 0-.2.1-.3.1.4.2.8.2 1.1 0 .6-.4 1.2-.6 1.6-.6-.1 0-.1-.1-.2-.1-.4-.1-1.2 0-2.2.6zm-10.3 6.6c-.8-.3-1.3-.5-1.5-.8s-.1-.7.2-1.1.8-.7 1.3-1c.3-.2.4-.5.2-.7-.1-.2-.4-.4-.8-.4h-.4a1.38 1.38 0 0 1 .4.3c.2.3.1.5-.2.7-.5.3-1 .6-1.3 1s-.3.8-.2 1.1c.2.3.6.5 1.5.8 1.3.4 2.7.7 4.1.8-1.2-.1-2.3-.3-3.3-.7z" fill="#af2e47"/><path d="M245.9 94.1c-1.5-.2-3-.5-4.4-.9-1-.3-2.1-.7-2.7-1.6-.4-.7-.4-1.5.1-2.2-.9 0-1.6-.2-2.2-.5-1-.7-1.1-1.6-1.1-2.4 0-1 .2-2.1.4-3.1.2-.8.5-1.7 1.5-2.2.9-.4 2.2-.5 3.4 0-.1-.8 0-1.5.5-2 .9-.9 2.6-1.3 5.1-1.1l5 .8c1.3.3 2.9.7 3.7 1.8a2.57 2.57 0 0 1 .3 2.4c.4 0 .9 0 1.4.1 1.3.4 2.2 1.3 2.7 2.7.4 1.2.5 2.5.3 3.7-.1.6-.3 1.4-.9 2.1-.7.8-1.8 1.2-2.9 1.2-.8 0-1.7-.3-2.4-.7-.1.4-.3.7-.6 1-.7.8-2 1.2-3.9 1.2-1.2 0-2.3-.1-3.3-.3zm-4.4-6.4c.4 0 .7.2.8.5.2.3.1.6-.2.8-.5.3-1.1.7-1.4 1.1s-.4.8-.2 1.1.7.6 1.5.8c2.2.7 4.5 1 6.8 1 1.3 0 2.1-.2 2.4-.6.5-.5.5-1.4.2-2.3-.1-.3.1-.7.6-.8s1 .1 1.2.4c.4.5.7.9 1.2 1.3.4.3.9.5 1.3.5.5 0 1-.2 1.3-.6s.5-.9.6-1.6c.2-1.1.1-2.2-.3-3.2-.3-.9-.8-1.5-1.3-1.6-.6-.2-1.4 0-2.4.6-.4.2-.9.2-1.3-.1-.4-.2-.5-.6-.2-.9.4-.5.9-1 1.1-1.5s.2-1-.1-1.4c-.4-.6-1.5-.8-2.4-1.1l-4.6-.7c-1.7-.2-2.8 0-3.3.5-.3.3-.4.9-.2 1.5s.7 1.2 1.2 1.7c.3.3.1.7-.3.9a1.23 1.23 0 0 1-1.3-.2c-.5-.5-1.5-1.1-2.2-1.5-.5-.2-1.1-.3-1.5-.1-.5.2-.7.8-.8 1.4-.2 1-.3 1.9-.4 2.9 0 .2 0 1 .4 1.3.3.2.9.1 1.1.1s.4-.1.6-.1c.5-.1 1-.2 1.7-.2l.4.1z" fill="#dd4764"/><path d="M246.4 79.4c.2 0 .5.1.8.1-.5-.1-1.1-.1-1.6-.2-1.7-.2-2.8 0-3.3.5-.3.3-.4.9-.2 1.5s.7 1.2 1.2 1.7c.3.3.1.7-.3.9-.1 0-.1.1-.2.1.3.2.8.2 1.1 0 .4-.2.5-.6.3-.9-.5-.6-.9-1.2-1.2-1.7-.2-.6-.2-1.1.2-1.5.4-.5 1.5-.6 3.2-.5zm-8.5 2.8c-.5.2-.7.8-.8 1.4-.2 1-.3 1.9-.4 2.9 0 .2 0 1 .4 1.3.2.1.6.1.9.1h0c-.4-.3-.4-1-.4-1.3 0-1 .2-2 .4-2.9.1-.6.3-1.2.8-1.4.1-.1.3-.1.4-.1-.5-.1-1-.2-1.3 0zm16.7 8.8c-.5-.4-.9-.8-1.2-1.3-.2-.3-.8-.5-1.2-.4.1.1.3.2.4.3.4.5.7.9 1.2 1.3.4.3.9.5 1.3.5h.3c-.4-.1-.6-.2-.8-.4zm-4-12.3c1.3.3 2.9.7 3.7 1.8a2.57 2.57 0 0 1 .3 2.4h.9c.3-.8.2-1.7-.3-2.3-.8-1.1-2.4-1.5-3.7-1.8l-4.1-.7 3.2.6zM238 89.3h-.3.3zm21.5-3.4c-.4-1.4-1.4-2.4-2.7-2.7-.4-.1-.7-.1-1-.1h.2c1.3.4 2.2 1.3 2.7 2.7.4 1.2.5 2.5.3 3.7-.1.6-.3 1.4-.9 2.1-.7.8-1.8 1.2-2.9 1.2h0c.3.1.6.1.9.1 1.1 0 2.2-.4 2.9-1.2.6-.7.8-1.5.9-2.1.1-1.2 0-2.5-.4-3.7zM240 81h0c-.2-.1-.4-.2-.7-.2.3.1.5.1.7.2zm12.7 11.1c-.1.4-.3.7-.6 1-.7.8-2 1.2-3.9 1.2-1 0-1.9-.1-2.9-.2.2 0 .3 0 .5.1l3.2.2c2 0 3.2-.4 3.9-1.2.2-.2.3-.5.5-.7-.2-.2-.4-.3-.7-.4zm.3-7.1c-.1.1-.2.1-.3.1.4.2.8.2 1.2 0 .7-.4 1.2-.6 1.7-.6-.1 0-.1-.1-.2-.1-.6-.2-1.3 0-2.4.6zm-10.9 7c-.9-.3-1.3-.5-1.5-.8s-.1-.7.2-1.1.9-.8 1.4-1.1c.3-.2.4-.5.2-.8-.1-.2-.5-.4-.8-.5h-.5c.2.1.4.2.4.4.2.3.1.6-.2.8-.5.3-1.1.7-1.4 1.1s-.4.8-.2 1.1.7.6 1.5.8c1.4.4 2.8.7 4.3.9-1.1-.2-2.2-.5-3.4-.8z" fill="#af2e47"/><path d="M200.2 58.5a19.53 19.53 0 0 1-3.4.3c-.8 0-1.7 0-2.3-.6-.5-.4-.6-1-.4-1.6a3.34 3.34 0 0 1-1.7.1c-.9-.2-1.2-.9-1.3-1.5-.2-.8-.4-1.5-.4-2.3-.1-.6 0-1.4.6-2 .5-.5 1.5-.8 2.4-.8-.3-.5-.3-1.1-.1-1.6.4-.9 1.6-1.5 3.4-1.9 1.3-.3 2.5-.5 3.8-.6 1-.1 2.3-.1 3.1.5.5.4.8 1 .8 1.7.3-.1.7-.2 1-.2 1 0 1.9.4 2.6 1.4.6.8.9 1.7 1.1 2.6.1.4.1 1.1-.2 1.7-.3.7-1 1.3-1.9 1.6-.6.2-1.3.2-1.9 0 0 .3-.1.6-.2.9-.3.7-1.2 1.3-2.6 1.8l-2.4.5zm-4.6-3.7c.3 0 .5 0 .7.1.2.2.2.4 0 .6-.3.4-.6.7-.8 1.1-.1.3-.1.7.1.9s.6.2 1.3.2c1.7 0 3.5-.3 5.2-.8.9-.3 1.5-.6 1.6-1 .2-.5.1-1.2-.4-1.7-.2-.2-.1-.5.2-.7a.91.91 0 0 1 1 0c.4.3.8.5 1.2.7.4.1.8.2 1.1.1s.7-.4.8-.8c.2-.3.2-.8.1-1.3a5.05 5.05 0 0 0-.9-2.3c-.4-.6-.9-.9-1.3-.9-.5 0-1 .3-1.6 1-.2.2-.6.3-1 .3-.3-.1-.5-.3-.4-.6.2-.5.4-.9.5-1.4 0-.4-.1-.8-.4-1-.4-.3-1.3-.3-2-.2-1.2.1-2.4.3-3.5.5-1.3.3-2 .6-2.3 1.1-.2.3-.1.7.2 1.1s.8.7 1.3 1c.3.2.3.5 0 .7s-.7.3-1 .2c-.5-.2-1.3-.5-1.9-.6-.4 0-.9 0-1.1.3-.3.3-.3.8-.2 1.2l.4 2.2c.1.2.2.7.6.8.2.1.7-.1.8-.2s.3-.1.4-.2c.3-.2.7-.4 1.2-.5 0 .1 0 .1.1.1z" fill="#dd4764"/><g fill="#af2e47"><path d="M197.2 47.7c.2 0 .4-.1.6-.1-.4.1-.8.1-1.2.2-1.3.3-2 .6-2.3 1.1-.2.3-.1.7.2 1.1s.8.7 1.3 1c.3.2.3.5 0 .7l-.1.1c.3 0 .6 0 .8-.2.3-.2.3-.5 0-.7-.5-.3-1-.6-1.3-1s-.4-.8-.2-1.1c.1-.5.9-.8 2.2-1.1zm-5.6 4c-.3.3-.3.8-.2 1.2l.4 2.2c.1.2.2.7.6.8.2.1.5 0 .7-.1h0c-.4-.1-.5-.7-.6-.8-.2-.7-.3-1.5-.4-2.2 0-.4 0-.9.2-1.2.1-.1.2-.1.3-.2a1.69 1.69 0 0 0-1 .3zm14.2 2.5c-.4-.2-.8-.4-1.2-.7-.2-.2-.7-.2-1 0 .1 0 .2.1.3.1.4.3.8.5 1.2.7.4.1.8.2 1.1.1.1 0 .1 0 .2-.1-.2 0-.4 0-.6-.1zm-5.7-8c1-.1 2.3-.1 3.1.5.5.4.8 1 .8 1.7.2-.1.4-.1.7-.2 0-.7-.2-1.3-.8-1.6-.8-.6-2.1-.6-3.1-.5-1.1.1-2.1.3-3.2.5.8-.2 1.6-.3 2.5-.4z"/><path d="M193.4 56.8c-.1 0-.1 0-.2.1 0-.1.1-.1.2-.1h0zm14.8-7.4c-.7-.9-1.6-1.4-2.6-1.4-.3 0-.5.1-.8.1h.1c1 0 1.9.4 2.6 1.4.6.8.9 1.7 1.1 2.6.1.4.1 1.1-.2 1.7-.3.7-1 1.3-1.9 1.6h0c.2 0 .5-.1.7-.1.8-.2 1.5-.8 1.9-1.6.3-.7.2-1.3.2-1.7-.1-.9-.5-1.8-1.1-2.6zm-15.3.9s0-.1 0 0c-.2-.1-.4 0-.5 0h.5zm11.8 5.1c0 .3-.1.6-.2.9-.3.7-1.2 1.3-2.6 1.8l-2.1.5c.1 0 .3 0 .4-.1l2.4-.6c1.4-.5 2.3-1 2.6-1.8.1-.2.1-.4.2-.6-.2 0-.5 0-.7-.1zm-1.4-5.2l-.2.2c.3 0 .7-.1.9-.3.4-.4.8-.7 1.1-.9h-.2c-.5 0-1 .3-1.6 1zm-6.3 7.6c-.7 0-1.1-.1-1.3-.2-.2-.2-.3-.5-.1-.9.1-.4.5-.8.8-1.1.2-.2.2-.4 0-.6-.2-.1-.4-.2-.7-.1h-.1c-.1 0-.2.1-.3.1.2 0 .3.1.4.2.2.2.2.4 0 .6-.3.4-.6.7-.8 1.1-.1.3-.1.7.1.9s.6.2 1.3.2c1.1 0 2.2-.1 3.3-.4l-2.6.2z"/></g></svg>