<?xml version="1.0" encoding="utf-8"?>
<!-- Generator: Adobe Illustrator 21.0.0, SVG Export Plug-In . SVG Version: 6.00 Build 0)  -->
<svg version="1.1" xmlns="http://www.w3.org/2000/svg" xmlns:xlink="http://www.w3.org/1999/xlink" x="0px" y="0px"
	 viewBox="0 0 389 157" style="enable-background:new 0 0 389 157;" xml:space="preserve">
<style type="text/css">
	.st0{display:none;}
	.st1{display:inline;}
	.st2{fill:#732A13;}
	.st3{fill:#6C151C;}
	.st4{fill:#F6C073;}
	.st5{fill:#F1A12E;}
	.st6{opacity:0.3;fill:#FBE0BA;enable-background:new    ;}
	.st7{fill:#6F4026;}
	.st8{fill:#F6C278;}
	.st9{fill:#AB1717;}
	.st10{fill:#DD4764;}
	.st11{fill:#AF2E47;}
</style>
<g id="Слой_1" class="st0">
	<g id="Layer_1" class="st1">
		<g>
			
				<ellipse transform="matrix(0.9998 -1.910948e-02 1.910948e-02 0.9998 -1.7337 3.9668)" class="st2" cx="206.7" cy="92.7" rx="175.1" ry="48.7"/>
			
				<ellipse transform="matrix(0.9998 -1.911576e-02 1.911576e-02 0.9998 -1.5262 3.9298)" class="st3" cx="204.8" cy="81.8" rx="161" ry="44.8"/>
			
				<ellipse transform="matrix(0.9998 -1.911913e-02 1.911913e-02 0.9998 -1.4442 3.9373)" class="st4" cx="205.2" cy="77.5" rx="158.3" ry="44.6"/>
			
				<ellipse transform="matrix(0.9998 -1.910377e-02 1.910377e-02 0.9998 -1.317 3.9311)" class="st5" cx="205.1" cy="70.9" rx="145.6" ry="32.3"/>
			
				<ellipse transform="matrix(0.9998 -1.911114e-02 1.911114e-02 0.9998 -1.3424 3.9328)" class="st5" cx="205.1" cy="72.2" rx="139.4" ry="30.9"/>
			<path class="st6" d="M204.5,41.3c-77,1.5-139.1,16.5-138.8,33.6s63,29.7,140,28.3c77-1.5,139.1-16.5,138.8-33.6
				S281.5,39.9,204.5,41.3z M76.5,69.9c-0.4-0.2-0.5-0.7-0.3-1.1c3.1-9.1,15.8-8,22.9-11.7c0.3-0.2,0.6-0.2,0.8-0.1
				c15-5,30.2-7.7,46.5-8.8c9-0.6,18.1-0.6,27.1-0.7c5.3-0.1,12.1-0.5,16.1,3.6c0.6,0.6-0.1,1.5-0.7,1.7c-8,3.7-17.1,2.5-25.7,3.3
				c-11,1-22.1,2.7-32.9,4.8c-10.9,2.1-22.2,3.3-33,6.1C90.6,68.8,83.3,72.4,76.5,69.9z M180.5,95.3c-6.8,1.8-14,1.7-21,1.7
				c-9.1,0-18.1-0.1-27.2,0c-5.6,0-12.9,0-17.3-4.1c-4.6-4.3-9.2-3.7-15-3.6c-4.6,0-17.9,0.3-17.1-7.4c0.6-5.4,10.5-7.5,14.4-8.5
				c8.1-2.1,16.5-3.3,24.8-4c3.8-0.3,7.4-0.5,11.1-1.1c0.1-0.1,0.3-0.2,0.4-0.2c12.3-2.4,24.7-4,37.2-4.6c8.1-0.4,22-1.8,22.4,9.6
				C193.7,82.5,190.7,92.5,180.5,95.3z M213.5,49.7c7-6.9,18.9-4.7,27.8-6c0.5-0.1,0.7,0.1,0.8,0.4c6,0,12.1,0.7,18.1,1.3
				c6.4,0.6,16.7,0.8,21.1,6.5c0.4,0.6,0.1,1.6-0.7,1.7c-12.9,3.4-25.5-0.7-38.5,0c-8.7,0.5-20.9,2.9-28.6-2.4
				C213,50.8,213,50.1,213.5,49.7z M261.1,84.1c-1.6,4.3-7.6,5.8-11.6,6.6c-7.1,1.4-14.7,2.8-21.8,3.4c-7,0.6-12.6-1.2-15.8-7.8
				c-1.4-3-6.8-16-3.7-20.4c0.1-0.1,0.2-0.3,0.3-0.4c0.4-0.4,0.9-0.7,1.6-0.9c2-0.8,4.1-0.6,6.5,0.2c5.2,1.6,10.6,2.4,15.9,3.9
				c7,1.9,14.2,4.3,20.9,7.3C256.2,77.1,262.7,79.8,261.1,84.1z M300.7,71.4c-4.1,5.6-14.6,4.6-20.5,4.1
				c-11.3-0.9-22.3-2.5-33.2-5.8c-3.7-1.1-18.2-3.5-18.9-8.4c-0.3-2.3,2.3-3.5,5.3-4.1c9.4-3.8,19.3,0,28.9,0.7
				c5.4,0.4,10.9,1.2,16.2,2.1C281.8,60.5,306.3,63.8,300.7,71.4z"/>
			<path class="st7" d="M38.5,90c0,0-6.8,2.4-0.1,15.3s86.2,37.6,160.7,32.7c0,0,51.9,0,52.2-4.1s-19.8-4.3-19.8-4.3
				s-23.5,0.7-33.8,0.8C187.5,130.4,54.8,131.5,38.5,90z"/>
			<path class="st8" d="M55.9,70.2c0,0-3.4-0.2-6.1,6.4c-2.7,6.6,7.9,22.9,55,33.2c47,10.3,115.1,12.6,150.4,6.2s18.1-15.1,0.9-12.8
				c-17.2,2.3-17.2,2.3-17.2,2.3S153,108.1,110,99.9C69.2,92.2,55.1,87.1,55.9,70.2z"/>
		</g>
	</g>
	<g id="Слой_3" class="st1">
		<path class="st9" d="M145.6,45.9c0,0,46.5-2,75.9-1.5c19.1,0.2,41.2-3.1,77.1,5.1c17.5,3.8,28.6,7.5,34.6,10.6
			c3.6,1.9,6,5.6,5.9,9.7c-0.1,6.2-6.3,15.6-56.8,26c-49.7,4.8-55.4,4.6-77.4,3.8c-24.5,0.9-52.2,3.2-76.1-2.4
			c-26.9-5.6-68.6-13.4-56.1-25.5C80.6,64.8,90.8,54.2,145.6,45.9z"/>
	</g>
</g>
<g id="Слой_2">
	<g>
		<g>
			<path class="st10" d="M103.1,81.3c-1.5-0.2-3-0.5-4.4-0.9c-1-0.3-2.1-0.7-2.7-1.6c-0.4-0.7-0.4-1.5,0.1-2.2
				c-0.9,0-1.6-0.2-2.2-0.5c-1-0.7-1.1-1.6-1.1-2.4c0-1,0.2-2.1,0.4-3.1c0.2-0.8,0.5-1.7,1.5-2.2c0.9-0.4,2.2-0.5,3.4,0
				c-0.1-0.8,0-1.5,0.5-2c0.9-0.9,2.6-1.3,5.1-1.1c1.7,0.2,3.3,0.4,5,0.8c1.3,0.3,2.9,0.7,3.7,1.8c0.5,0.7,0.6,1.6,0.3,2.4
				c0.4,0,0.9,0,1.4,0.1c1.3,0.4,2.3,1.3,2.7,2.7c0.4,1.2,0.5,2.5,0.3,3.7c-0.1,0.6-0.3,1.4-0.9,2.1c-0.7,0.8-1.8,1.2-2.9,1.2
				c-0.8,0-1.7-0.3-2.4-0.7c-0.1,0.4-0.3,0.7-0.6,1c-0.7,0.8-2,1.2-3.9,1.2C105.3,81.6,104.2,81.5,103.1,81.3z M98.8,74.9
				c0.4,0,0.7,0.2,0.8,0.5c0.2,0.3,0.1,0.6-0.2,0.8c-0.5,0.3-1.1,0.7-1.4,1.1c-0.3,0.4-0.4,0.8-0.2,1.1c0.2,0.3,0.7,0.6,1.5,0.8
				c2.2,0.7,4.5,1,6.8,1c1.3,0,2.1-0.2,2.4-0.6c0.5-0.5,0.5-1.4,0.2-2.3c-0.1-0.3,0.1-0.7,0.6-0.8c0.5-0.1,1,0.1,1.2,0.4
				c0.4,0.5,0.7,1,1.2,1.3c0.4,0.3,0.9,0.5,1.3,0.5c0.5,0,1-0.2,1.3-0.6c0.3-0.4,0.5-0.9,0.6-1.6c0.2-1.1,0.1-2.2-0.3-3.2
				c-0.3-0.9-0.8-1.5-1.3-1.6c-0.6-0.2-1.4,0-2.4,0.6c-0.4,0.2-0.9,0.2-1.3-0.1c-0.4-0.2-0.5-0.6-0.2-0.9c0.4-0.5,0.9-1,1.1-1.5
				c0.2-0.5,0.2-1-0.1-1.4c-0.4-0.6-1.5-0.8-2.4-1.1c-1.5-0.3-3.1-0.6-4.7-0.7c-1.7-0.2-2.8,0-3.3,0.5c-0.3,0.3-0.4,0.9-0.2,1.5
				c0.2,0.6,0.7,1.2,1.2,1.8c0.3,0.3,0.2,0.7-0.3,0.9c-0.4,0.2-1,0.1-1.3-0.2c-0.5-0.5-1.5-1.1-2.2-1.5c-0.5-0.2-1.1-0.3-1.5-0.1
				c-0.5,0.2-0.7,0.8-0.8,1.4c-0.2,1-0.3,2-0.4,2.9c0,0.2,0,1,0.4,1.3c0.3,0.2,0.9,0.1,1.1,0.1c0.2,0,0.4-0.1,0.6-0.1
				c0.5-0.1,1-0.2,1.7-0.2C98.7,74.9,98.7,74.9,98.8,74.9z"/>
		</g>
		<g>
			<path class="st11" d="M103.6,66.6c0.3,0,0.5,0.1,0.8,0.1c-0.5-0.1-1.1-0.1-1.6-0.2c-1.7-0.2-2.8,0-3.3,0.5
				c-0.3,0.3-0.4,0.9-0.2,1.5c0.2,0.6,0.7,1.2,1.2,1.8c0.3,0.3,0.2,0.7-0.3,0.9c-0.1,0-0.1,0.1-0.2,0.1c0.3,0.2,0.8,0.2,1.1,0
				c0.4-0.2,0.5-0.6,0.3-0.9c-0.5-0.6-1-1.2-1.2-1.8c-0.2-0.6-0.2-1.1,0.2-1.5C100.8,66.6,101.9,66.4,103.6,66.6z"/>
			<path class="st11" d="M95.1,69.4c-0.5,0.2-0.7,0.8-0.8,1.4c-0.2,1-0.3,2-0.4,2.9c0,0.2,0,1,0.4,1.3c0.2,0.1,0.6,0.1,0.9,0.1
				c0,0,0,0,0,0c-0.4-0.3-0.4-1-0.4-1.3c0-1,0.2-2,0.4-2.9c0.1-0.6,0.3-1.2,0.8-1.4c0.1-0.1,0.3-0.1,0.4-0.1
				C96,69.3,95.5,69.2,95.1,69.4z"/>
			<path class="st11" d="M111.8,78.2c-0.5-0.4-0.9-0.8-1.2-1.3c-0.2-0.3-0.8-0.5-1.2-0.4c0.1,0.1,0.3,0.2,0.4,0.3
				c0.4,0.5,0.7,1,1.2,1.3c0.4,0.3,0.9,0.5,1.3,0.5c0.1,0,0.2,0,0.3,0C112.3,78.5,112.1,78.4,111.8,78.2z"/>
			<path class="st11" d="M107.8,65.9c1.3,0.3,2.9,0.7,3.7,1.8c0.5,0.7,0.6,1.6,0.3,2.4c0.3,0,0.6,0,0.9,0c0.3-0.8,0.2-1.7-0.3-2.3
				c-0.8-1.1-2.4-1.5-3.7-1.8c-1.4-0.3-2.8-0.5-4.2-0.7C105.7,65.5,106.8,65.7,107.8,65.9z"/>
			<path class="st11" d="M95.3,76.5c-0.1,0-0.2,0-0.3,0C95.1,76.5,95.2,76.5,95.3,76.5C95.3,76.5,95.3,76.5,95.3,76.5z"/>
			<path class="st11" d="M116.8,73.1c-0.4-1.4-1.4-2.4-2.7-2.7c-0.4-0.1-0.7-0.1-1-0.1c0.1,0,0.1,0,0.2,0c1.3,0.4,2.3,1.3,2.7,2.7
				c0.4,1.2,0.5,2.5,0.3,3.7c-0.1,0.6-0.3,1.4-0.9,2.1c-0.7,0.8-1.8,1.2-2.9,1.2c0,0,0,0,0,0c0.3,0.1,0.6,0.1,0.9,0.1
				c1.2,0,2.2-0.4,2.9-1.2c0.6-0.7,0.8-1.5,0.9-2.1C117.3,75.6,117.2,74.3,116.8,73.1z"/>
			<path class="st11" d="M97.2,68.2c0,0,0-0.1,0-0.1C97,68,96.8,68,96.6,68C96.8,68,97,68.1,97.2,68.2z"/>
			<path class="st11" d="M110,79.3c-0.1,0.4-0.3,0.7-0.6,1c-0.7,0.8-2,1.2-3.9,1.2c-1,0-1.9-0.1-2.9-0.2c0.2,0,0.3,0,0.5,0.1
				c1.1,0.1,2.2,0.2,3.3,0.2c2,0,3.2-0.4,3.9-1.2c0.2-0.2,0.3-0.5,0.5-0.7C110.5,79.5,110.2,79.4,110,79.3z"/>
			<path class="st11" d="M110.3,72.2c-0.1,0.1-0.2,0.1-0.3,0.1c0.4,0.2,0.8,0.2,1.2,0c0.7-0.4,1.2-0.6,1.7-0.6
				c-0.1,0-0.1-0.1-0.2-0.1C112.1,71.4,111.3,71.6,110.3,72.2z"/>
			<path class="st11" d="M99.4,79.2c-0.9-0.3-1.3-0.5-1.5-0.8c-0.2-0.3-0.1-0.7,0.2-1.1c0.3-0.4,0.9-0.8,1.4-1.1
				c0.3-0.2,0.4-0.5,0.2-0.8c-0.1-0.2-0.5-0.4-0.8-0.5c0,0-0.1,0-0.1,0c-0.1,0-0.2,0-0.4,0c0.2,0.1,0.4,0.2,0.4,0.4
				c0.2,0.3,0.1,0.6-0.2,0.8c-0.5,0.3-1.1,0.7-1.4,1.1c-0.3,0.4-0.4,0.8-0.2,1.1c0.2,0.3,0.7,0.6,1.5,0.8c1.4,0.4,2.9,0.7,4.3,0.9
				C101.7,79.8,100.5,79.5,99.4,79.2z"/>
		</g>
	</g>
	<g>
		<g>
			<path class="st10" d="M281.7,65.3c-1.4-0.2-2.8-0.5-4.2-0.9c-0.9-0.3-2-0.7-2.6-1.5c-0.4-0.6-0.4-1.4,0.1-2.1
				c-0.8,0-1.5-0.2-2.1-0.5c-1-0.6-1.1-1.5-1-2.3c0-1,0.2-2,0.4-2.9c0.2-0.8,0.5-1.6,1.4-2.1c0.9-0.4,2.1-0.4,3.2,0
				c-0.1-0.7,0-1.4,0.5-1.9c0.8-0.9,2.5-1.2,4.8-1c1.6,0.2,3.2,0.4,4.7,0.7c1.2,0.3,2.8,0.7,3.5,1.7c0.5,0.7,0.6,1.5,0.3,2.3
				c0.4,0,0.9,0,1.3,0.1c1.3,0.3,2.1,1.2,2.6,2.6c0.4,1.2,0.5,2.3,0.3,3.5c-0.1,0.5-0.3,1.3-0.8,2c-0.7,0.7-1.7,1.2-2.8,1.1
				c-0.8,0-1.6-0.3-2.3-0.7c-0.1,0.4-0.3,0.7-0.5,1c-0.7,0.7-1.9,1.1-3.8,1.1C283.8,65.5,282.7,65.5,281.7,65.3z M277.6,59.2
				c0.3,0,0.6,0.2,0.8,0.4c0.2,0.3,0.1,0.5-0.2,0.7c-0.5,0.3-1,0.6-1.3,1c-0.3,0.4-0.3,0.8-0.2,1.1c0.2,0.3,0.6,0.5,1.5,0.8
				c2.1,0.6,4.3,1,6.5,1c1.2,0,2-0.2,2.3-0.6c0.4-0.5,0.5-1.3,0.2-2.2c-0.1-0.3,0.1-0.6,0.5-0.7c0.4-0.1,0.9,0.1,1.2,0.4
				c0.4,0.4,0.7,0.9,1.2,1.2c0.4,0.3,0.9,0.5,1.2,0.5c0.5,0,1-0.2,1.3-0.6c0.3-0.4,0.5-0.8,0.6-1.5c0.2-1,0.1-2.1-0.2-3.1
				c-0.3-0.8-0.7-1.4-1.2-1.5c-0.6-0.1-1.3,0-2.3,0.6c-0.3,0.2-0.9,0.2-1.2-0.1c-0.4-0.2-0.4-0.6-0.2-0.9c0.4-0.5,0.9-0.9,1.1-1.4
				c0.2-0.5,0.2-1-0.1-1.3c-0.4-0.5-1.4-0.8-2.3-1c-1.5-0.3-2.9-0.5-4.4-0.7c-1.6-0.2-2.7,0-3.1,0.5c-0.3,0.3-0.4,0.9-0.2,1.4
				c0.2,0.6,0.7,1.1,1.1,1.7c0.3,0.3,0.1,0.7-0.3,0.9c-0.4,0.2-1,0.1-1.3-0.2c-0.5-0.4-1.4-1.1-2.1-1.4c-0.4-0.2-1.1-0.3-1.5-0.1
				c-0.5,0.2-0.6,0.8-0.7,1.3c-0.2,0.9-0.3,1.9-0.3,2.8c0,0.2,0,1,0.4,1.2c0.3,0.2,0.8,0.1,1.1,0.1c0.2,0,0.4-0.1,0.6-0.1
				c0.5-0.1,1-0.2,1.6-0.2C277.5,59.2,277.6,59.2,277.6,59.2z"/>
		</g>
		<g>
			<path class="st11" d="M282.2,51.3c0.2,0,0.5,0,0.7,0.1c-0.5-0.1-1-0.1-1.5-0.2c-1.6-0.2-2.7,0-3.1,0.5c-0.3,0.3-0.4,0.9-0.2,1.4
				c0.2,0.6,0.7,1.1,1.1,1.7c0.3,0.3,0.1,0.7-0.3,0.9c-0.1,0-0.1,0-0.2,0.1c0.3,0.2,0.7,0.2,1,0c0.4-0.2,0.5-0.5,0.3-0.9
				c-0.4-0.5-0.9-1.1-1.1-1.7c-0.2-0.6-0.2-1.1,0.2-1.4C279.5,51.3,280.6,51.1,282.2,51.3z"/>
			<path class="st11" d="M274.1,53.9c-0.5,0.2-0.6,0.8-0.7,1.3c-0.2,0.9-0.3,1.9-0.3,2.8c0,0.2,0,1,0.4,1.2c0.2,0.1,0.6,0.1,0.8,0.1
				c0,0,0,0,0,0c-0.4-0.2-0.4-1-0.4-1.2c0-0.9,0.1-1.9,0.3-2.8c0.1-0.5,0.3-1.1,0.7-1.3c0.1-0.1,0.2-0.1,0.4-0.1
				C274.9,53.8,274.5,53.8,274.1,53.9z"/>
			<path class="st11" d="M290,62.3c-0.4-0.3-0.8-0.8-1.2-1.2c-0.2-0.3-0.7-0.4-1.2-0.4c0.1,0.1,0.3,0.2,0.3,0.3
				c0.4,0.4,0.7,0.9,1.2,1.2c0.4,0.3,0.9,0.5,1.2,0.5c0.1,0,0.2,0,0.2,0C290.4,62.6,290.2,62.5,290,62.3z"/>
			<path class="st11" d="M286.2,50.6c1.2,0.3,2.8,0.7,3.5,1.7c0.5,0.7,0.6,1.5,0.3,2.3c0.3,0,0.6,0,0.8,0c0.3-0.8,0.2-1.6-0.3-2.2
				c-0.8-1-2.3-1.5-3.5-1.7c-1.3-0.3-2.6-0.5-3.9-0.6C284.1,50.2,285.2,50.4,286.2,50.6z"/>
			<path class="st11" d="M274.3,60.7c-0.1,0-0.2,0-0.3,0C274.1,60.7,274.2,60.7,274.3,60.7C274.2,60.7,274.3,60.7,274.3,60.7z"/>
			<path class="st11" d="M294.7,57.5c-0.4-1.4-1.3-2.3-2.6-2.6c-0.3-0.1-0.7-0.1-1-0.1c0.1,0,0.1,0,0.2,0c1.3,0.3,2.1,1.2,2.6,2.6
				c0.4,1.2,0.5,2.3,0.3,3.5c-0.1,0.5-0.3,1.3-0.8,2c-0.7,0.7-1.7,1.2-2.8,1.1c0,0,0,0,0,0c0.3,0.1,0.6,0.1,0.9,0.1
				c1.1,0,2.1-0.4,2.8-1.1c0.6-0.7,0.8-1.5,0.8-2C295.2,59.8,295.1,58.7,294.7,57.5z"/>
			<path class="st11" d="M276.1,52.8c0,0,0-0.1,0-0.1c-0.2,0-0.4-0.1-0.6-0.1C275.7,52.7,275.9,52.7,276.1,52.8z"/>
			<path class="st11" d="M288.3,63.4c-0.1,0.4-0.3,0.7-0.5,1c-0.7,0.7-1.9,1.1-3.8,1.1c-0.9,0-1.8-0.1-2.8-0.2c0.2,0,0.3,0,0.5,0.1
				c1,0.1,2.1,0.2,3.1,0.2c1.9,0,3.1-0.4,3.8-1.1c0.2-0.2,0.3-0.4,0.4-0.7C288.7,63.6,288.5,63.5,288.3,63.4z"/>
			<path class="st11" d="M288.5,56.6c-0.1,0-0.2,0.1-0.3,0.1c0.4,0.2,0.8,0.2,1.1,0c0.6-0.4,1.2-0.6,1.6-0.6c-0.1,0-0.1-0.1-0.2-0.1
				C290.3,55.9,289.5,56,288.5,56.6z"/>
			<path class="st11" d="M278.2,63.2c-0.8-0.3-1.3-0.5-1.5-0.8c-0.2-0.3-0.1-0.7,0.2-1.1c0.3-0.4,0.8-0.7,1.3-1
				c0.3-0.2,0.4-0.5,0.2-0.7c-0.1-0.2-0.4-0.4-0.8-0.4c0,0-0.1,0-0.1,0c-0.1,0-0.2,0-0.3,0c0.2,0.1,0.3,0.2,0.4,0.3
				c0.2,0.3,0.1,0.5-0.2,0.7c-0.5,0.3-1,0.6-1.3,1c-0.3,0.4-0.3,0.8-0.2,1.1c0.2,0.3,0.6,0.5,1.5,0.8c1.3,0.4,2.7,0.7,4.1,0.8
				C280.3,63.8,279.2,63.6,278.2,63.2z"/>
		</g>
	</g>
	<g>
		<g>
			<path class="st10" d="M174.5,93.2c-1.5-0.2-3-0.5-4.4-0.9c-1-0.3-2.1-0.7-2.7-1.6c-0.4-0.7-0.4-1.5,0.1-2.2
				c-0.9,0-1.6-0.2-2.2-0.5c-1-0.7-1.1-1.6-1.1-2.4c0-1,0.2-2.1,0.4-3.1c0.2-0.8,0.5-1.7,1.5-2.2c0.9-0.4,2.2-0.5,3.4,0
				c-0.1-0.8,0-1.5,0.5-2c0.9-0.9,2.6-1.3,5.1-1.1c1.7,0.2,3.3,0.4,5,0.8c1.3,0.3,2.9,0.7,3.7,1.8c0.5,0.7,0.6,1.6,0.3,2.4
				c0.4,0,0.9,0,1.4,0.1c1.3,0.4,2.3,1.3,2.7,2.7c0.4,1.2,0.5,2.5,0.3,3.7c-0.1,0.6-0.3,1.4-0.9,2.1c-0.7,0.8-1.8,1.2-2.9,1.2
				c-0.8,0-1.7-0.3-2.4-0.7c-0.1,0.4-0.3,0.7-0.6,1c-0.7,0.8-2,1.2-3.9,1.2C176.7,93.4,175.6,93.3,174.5,93.2z M170.2,86.8
				c0.4,0,0.7,0.2,0.8,0.5c0.2,0.3,0.1,0.6-0.2,0.8c-0.5,0.3-1.1,0.7-1.4,1.1c-0.3,0.4-0.4,0.8-0.2,1.1c0.2,0.3,0.7,0.6,1.5,0.8
				c2.2,0.7,4.5,1,6.8,1c1.3,0,2.1-0.2,2.4-0.6c0.5-0.5,0.5-1.4,0.2-2.3c-0.1-0.3,0.1-0.7,0.6-0.8c0.5-0.1,1,0.1,1.2,0.4
				c0.4,0.5,0.7,1,1.2,1.3c0.4,0.3,0.9,0.5,1.3,0.5c0.5,0,1-0.2,1.3-0.6c0.3-0.4,0.5-0.9,0.6-1.6c0.2-1.1,0.1-2.2-0.3-3.2
				c-0.3-0.9-0.8-1.5-1.3-1.6c-0.6-0.2-1.4,0-2.4,0.6c-0.4,0.2-0.9,0.2-1.3-0.1c-0.4-0.2-0.5-0.6-0.2-0.9c0.4-0.5,0.9-1,1.1-1.5
				c0.2-0.5,0.2-1-0.1-1.4c-0.4-0.6-1.5-0.8-2.4-1.1c-1.5-0.3-3.1-0.6-4.7-0.7c-1.7-0.2-2.8,0-3.3,0.5c-0.3,0.3-0.4,0.9-0.2,1.5
				c0.2,0.6,0.7,1.2,1.2,1.8c0.3,0.3,0.2,0.7-0.3,0.9c-0.4,0.2-1,0.1-1.3-0.2c-0.5-0.5-1.5-1.1-2.2-1.5c-0.5-0.2-1.1-0.3-1.5-0.1
				c-0.5,0.2-0.7,0.8-0.8,1.4c-0.2,1-0.3,2-0.4,2.9c0,0.2,0,1,0.4,1.3c0.3,0.2,0.9,0.1,1.1,0.1c0.2,0,0.4-0.1,0.6-0.1
				c0.5-0.1,1-0.2,1.7-0.2C170.1,86.8,170.1,86.8,170.2,86.8z"/>
		</g>
		<g>
			<path class="st11" d="M175,78.5c0.3,0,0.5,0.1,0.8,0.1c-0.5-0.1-1.1-0.1-1.6-0.2c-1.7-0.2-2.8,0-3.3,0.5
				c-0.3,0.3-0.4,0.9-0.2,1.5c0.2,0.6,0.7,1.2,1.2,1.8c0.3,0.3,0.2,0.7-0.3,0.9c-0.1,0-0.1,0.1-0.2,0.1c0.3,0.2,0.8,0.2,1.1,0
				c0.4-0.2,0.5-0.6,0.3-0.9c-0.5-0.6-1-1.2-1.2-1.8c-0.2-0.6-0.2-1.1,0.2-1.5C172.2,78.5,173.3,78.3,175,78.5z"/>
			<path class="st11" d="M166.5,81.2c-0.5,0.2-0.7,0.8-0.8,1.4c-0.2,1-0.3,2-0.4,2.9c0,0.2,0,1,0.4,1.3c0.2,0.1,0.6,0.1,0.9,0.1
				c0,0,0,0,0,0c-0.4-0.3-0.4-1-0.4-1.3c0-1,0.2-2,0.4-2.9c0.1-0.6,0.3-1.2,0.8-1.4c0.1-0.1,0.3-0.1,0.4-0.1
				C167.4,81.1,166.9,81.1,166.5,81.2z"/>
			<path class="st11" d="M183.2,90.1c-0.5-0.4-0.9-0.8-1.2-1.3c-0.2-0.3-0.8-0.5-1.2-0.4c0.1,0.1,0.3,0.2,0.4,0.3
				c0.4,0.5,0.7,1,1.2,1.3c0.4,0.3,0.9,0.5,1.3,0.5c0.1,0,0.2,0,0.3,0C183.7,90.4,183.4,90.2,183.2,90.1z"/>
			<path class="st11" d="M179.2,77.8c1.3,0.3,2.9,0.7,3.7,1.8c0.5,0.7,0.6,1.6,0.3,2.4c0.3,0,0.6,0,0.9,0c0.3-0.8,0.2-1.7-0.3-2.3
				c-0.8-1.1-2.4-1.5-3.7-1.8c-1.4-0.3-2.8-0.5-4.2-0.7C177.1,77.3,178.2,77.5,179.2,77.8z"/>
			<path class="st11" d="M166.7,88.4c-0.1,0-0.2,0-0.3,0C166.5,88.4,166.6,88.4,166.7,88.4C166.6,88.4,166.7,88.4,166.7,88.4z"/>
			<path class="st11" d="M188.2,85c-0.4-1.4-1.4-2.4-2.7-2.7c-0.4-0.1-0.7-0.1-1-0.1c0.1,0,0.1,0,0.2,0c1.3,0.4,2.3,1.3,2.7,2.7
				c0.4,1.2,0.5,2.5,0.3,3.7c-0.1,0.6-0.3,1.4-0.9,2.1c-0.7,0.8-1.8,1.2-2.9,1.2c0,0,0,0,0,0c0.3,0.1,0.6,0.1,0.9,0.1
				c1.2,0,2.2-0.4,2.9-1.2c0.6-0.7,0.8-1.5,0.9-2.1C188.7,87.4,188.6,86.2,188.2,85z"/>
			<path class="st11" d="M168.6,80c0,0,0-0.1,0-0.1c-0.2,0-0.4-0.1-0.7-0.1C168.2,79.9,168.4,80,168.6,80z"/>
			<path class="st11" d="M181.4,91.1c-0.1,0.4-0.3,0.7-0.6,1c-0.7,0.8-2,1.2-3.9,1.2c-1,0-1.9-0.1-2.9-0.2c0.2,0,0.3,0,0.5,0.1
				c1.1,0.1,2.2,0.2,3.3,0.2c2,0,3.2-0.4,3.9-1.2c0.2-0.2,0.3-0.5,0.5-0.7C181.9,91.4,181.6,91.3,181.4,91.1z"/>
			<path class="st11" d="M181.7,84c-0.1,0.1-0.2,0.1-0.3,0.1c0.4,0.2,0.8,0.2,1.2,0c0.7-0.4,1.2-0.6,1.7-0.6c-0.1,0-0.1-0.1-0.2-0.1
				C183.5,83.3,182.7,83.5,181.7,84z"/>
			<path class="st11" d="M170.8,91c-0.9-0.3-1.3-0.5-1.5-0.8c-0.2-0.3-0.1-0.7,0.2-1.1c0.3-0.4,0.9-0.8,1.4-1.1
				c0.3-0.2,0.4-0.5,0.2-0.8c-0.1-0.2-0.5-0.4-0.8-0.5c0,0-0.1,0-0.1,0c-0.1,0-0.2,0-0.4,0c0.2,0.1,0.4,0.2,0.4,0.4
				c0.2,0.3,0.1,0.6-0.2,0.8c-0.5,0.3-1.1,0.7-1.4,1.1c-0.3,0.4-0.4,0.8-0.2,1.1c0.2,0.3,0.7,0.6,1.5,0.8c1.4,0.4,2.9,0.7,4.3,0.9
				C173,91.6,171.9,91.4,170.8,91z"/>
		</g>
	</g>
	<g>
		<g>
			<path class="st10" d="M245.9,94.1c-1.5-0.2-3-0.5-4.4-0.9c-1-0.3-2.1-0.7-2.7-1.6c-0.4-0.7-0.4-1.5,0.1-2.2
				c-0.9,0-1.6-0.2-2.2-0.5c-1-0.7-1.1-1.6-1.1-2.4c0-1,0.2-2.1,0.4-3.1c0.2-0.8,0.5-1.7,1.5-2.2c0.9-0.4,2.2-0.5,3.4,0
				c-0.1-0.8,0-1.5,0.5-2c0.9-0.9,2.6-1.3,5.1-1.1c1.7,0.2,3.3,0.4,5,0.8c1.3,0.3,2.9,0.7,3.7,1.8c0.5,0.7,0.6,1.6,0.3,2.4
				c0.4,0,0.9,0,1.4,0.1c1.3,0.4,2.2,1.3,2.7,2.7c0.4,1.2,0.5,2.5,0.3,3.7c-0.1,0.6-0.3,1.4-0.9,2.1c-0.7,0.8-1.8,1.2-2.9,1.2
				c-0.8,0-1.7-0.3-2.4-0.7c-0.1,0.4-0.3,0.7-0.6,1c-0.7,0.8-2,1.2-3.9,1.2C248,94.4,246.9,94.3,245.9,94.1z M241.5,87.7
				c0.4,0,0.7,0.2,0.8,0.5c0.2,0.3,0.1,0.6-0.2,0.8c-0.5,0.3-1.1,0.7-1.4,1.1c-0.3,0.4-0.4,0.8-0.2,1.1c0.2,0.3,0.7,0.6,1.5,0.8
				c2.2,0.7,4.5,1,6.8,1c1.3,0,2.1-0.2,2.4-0.6c0.5-0.5,0.5-1.4,0.2-2.3c-0.1-0.3,0.1-0.7,0.6-0.8c0.5-0.1,1,0.1,1.2,0.4
				c0.4,0.5,0.7,0.9,1.2,1.3c0.4,0.3,0.9,0.5,1.3,0.5c0.5,0,1-0.2,1.3-0.6c0.3-0.4,0.5-0.9,0.6-1.6c0.2-1.1,0.1-2.2-0.3-3.2
				c-0.3-0.9-0.8-1.5-1.3-1.6c-0.6-0.2-1.4,0-2.4,0.6c-0.4,0.2-0.9,0.2-1.3-0.1c-0.4-0.2-0.5-0.6-0.2-0.9c0.4-0.5,0.9-1,1.1-1.5
				c0.2-0.5,0.2-1-0.1-1.4c-0.4-0.6-1.5-0.8-2.4-1.1c-1.5-0.3-3.1-0.6-4.6-0.7c-1.7-0.2-2.8,0-3.3,0.5c-0.3,0.3-0.4,0.9-0.2,1.5
				c0.2,0.6,0.7,1.2,1.2,1.7c0.3,0.3,0.1,0.7-0.3,0.9c-0.4,0.2-1,0.1-1.3-0.2c-0.5-0.5-1.5-1.1-2.2-1.5c-0.5-0.2-1.1-0.3-1.5-0.1
				c-0.5,0.2-0.7,0.8-0.8,1.4c-0.2,1-0.3,1.9-0.4,2.9c0,0.2,0,1,0.4,1.3c0.3,0.2,0.9,0.1,1.1,0.1c0.2,0,0.4-0.1,0.6-0.1
				c0.5-0.1,1-0.2,1.7-0.2C241.5,87.7,241.5,87.7,241.5,87.7z"/>
		</g>
		<g>
			<path class="st11" d="M246.4,79.4c0.2,0,0.5,0.1,0.8,0.1c-0.5-0.1-1.1-0.1-1.6-0.2c-1.7-0.2-2.8,0-3.3,0.5
				c-0.3,0.3-0.4,0.9-0.2,1.5c0.2,0.6,0.7,1.2,1.2,1.7c0.3,0.3,0.1,0.7-0.3,0.9c-0.1,0-0.1,0.1-0.2,0.1c0.3,0.2,0.8,0.2,1.1,0
				c0.4-0.2,0.5-0.6,0.3-0.9c-0.5-0.6-0.9-1.2-1.2-1.7c-0.2-0.6-0.2-1.1,0.2-1.5C243.6,79.4,244.7,79.3,246.4,79.4z"/>
			<path class="st11" d="M237.9,82.2c-0.5,0.2-0.7,0.8-0.8,1.4c-0.2,1-0.3,1.9-0.4,2.9c0,0.2,0,1,0.4,1.3c0.2,0.1,0.6,0.1,0.9,0.1
				c0,0,0,0,0,0c-0.4-0.3-0.4-1-0.4-1.3c0-1,0.2-2,0.4-2.9c0.1-0.6,0.3-1.2,0.8-1.4c0.1-0.1,0.3-0.1,0.4-0.1
				C238.7,82.1,238.2,82,237.9,82.2z"/>
			<path class="st11" d="M254.6,91c-0.5-0.4-0.9-0.8-1.2-1.3c-0.2-0.3-0.8-0.5-1.2-0.4c0.1,0.1,0.3,0.2,0.4,0.3
				c0.4,0.5,0.7,0.9,1.2,1.3c0.4,0.3,0.9,0.5,1.3,0.5c0.1,0,0.2,0,0.3,0C255,91.3,254.8,91.2,254.6,91z"/>
			<path class="st11" d="M250.6,78.7c1.3,0.3,2.9,0.7,3.7,1.8c0.5,0.7,0.6,1.6,0.3,2.4c0.3,0,0.6,0,0.9,0c0.3-0.8,0.2-1.7-0.3-2.3
				c-0.8-1.1-2.4-1.5-3.7-1.8c-1.4-0.3-2.8-0.5-4.1-0.7C248.4,78.3,249.5,78.5,250.6,78.7z"/>
			<path class="st11" d="M238,89.3c-0.1,0-0.2,0-0.3,0C237.9,89.3,237.9,89.3,238,89.3C238,89.3,238,89.3,238,89.3z"/>
			<path class="st11" d="M259.5,85.9c-0.4-1.4-1.4-2.4-2.7-2.7c-0.4-0.1-0.7-0.1-1-0.1c0.1,0,0.1,0,0.2,0c1.3,0.4,2.2,1.3,2.7,2.7
				c0.4,1.2,0.5,2.5,0.3,3.7c-0.1,0.6-0.3,1.4-0.9,2.1c-0.7,0.8-1.8,1.2-2.9,1.2c0,0,0,0,0,0c0.3,0.1,0.6,0.1,0.9,0.1
				c1.1,0,2.2-0.4,2.9-1.2c0.6-0.7,0.8-1.5,0.9-2.1C260,88.4,259.9,87.1,259.5,85.9z"/>
			<path class="st11" d="M240,81c0,0,0-0.1,0-0.1c-0.2,0-0.4-0.1-0.7-0.1C239.6,80.9,239.8,80.9,240,81z"/>
			<path class="st11" d="M252.7,92.1c-0.1,0.4-0.3,0.7-0.6,1c-0.7,0.8-2,1.2-3.9,1.2c-1,0-1.9-0.1-2.9-0.2c0.2,0,0.3,0,0.5,0.1
				c1.1,0.1,2.2,0.2,3.2,0.2c2,0,3.2-0.4,3.9-1.2c0.2-0.2,0.3-0.5,0.5-0.7C253.2,92.3,253,92.2,252.7,92.1z"/>
			<path class="st11" d="M253,85c-0.1,0.1-0.2,0.1-0.3,0.1c0.4,0.2,0.8,0.2,1.2,0c0.7-0.4,1.2-0.6,1.7-0.6c-0.1,0-0.1-0.1-0.2-0.1
				C254.8,84.2,254.1,84.4,253,85z"/>
			<path class="st11" d="M242.1,92c-0.9-0.3-1.3-0.5-1.5-0.8c-0.2-0.3-0.1-0.7,0.2-1.1c0.3-0.4,0.9-0.8,1.4-1.1
				c0.3-0.2,0.4-0.5,0.2-0.8c-0.1-0.2-0.5-0.4-0.8-0.5c0,0-0.1,0-0.1,0c-0.1,0-0.2,0-0.4,0c0.2,0.1,0.4,0.2,0.4,0.4
				c0.2,0.3,0.1,0.6-0.2,0.8c-0.5,0.3-1.1,0.7-1.4,1.1c-0.3,0.4-0.4,0.8-0.2,1.1c0.2,0.3,0.7,0.6,1.5,0.8c1.4,0.4,2.8,0.7,4.3,0.9
				C244.4,92.6,243.3,92.3,242.1,92z"/>
		</g>
	</g>
	<g>
		<g>
			<path class="st10" d="M153.7,62.8c-1.1,0.2-2.3,0.3-3.4,0.3c-0.8,0-1.7,0-2.3-0.6c-0.5-0.4-0.6-1-0.4-1.6
				c-0.6,0.2-1.2,0.2-1.7,0.1c-0.9-0.2-1.2-0.9-1.3-1.5c-0.2-0.8-0.4-1.5-0.4-2.3c-0.1-0.6,0-1.4,0.6-2c0.5-0.5,1.5-0.8,2.4-0.8
				c-0.3-0.5-0.3-1.1-0.1-1.6c0.4-0.9,1.6-1.5,3.4-1.9c1.3-0.3,2.5-0.5,3.8-0.6c1-0.1,2.3-0.1,3.1,0.5c0.5,0.4,0.8,1,0.8,1.7
				c0.3-0.1,0.7-0.2,1-0.2c1,0,1.9,0.4,2.6,1.4c0.6,0.8,0.9,1.7,1.1,2.6c0.1,0.4,0.1,1.1-0.2,1.7c-0.3,0.7-1,1.3-1.9,1.6
				c-0.6,0.2-1.3,0.2-1.9,0c0,0.3-0.1,0.6-0.2,0.9c-0.3,0.7-1.2,1.3-2.6,1.8C155.3,62.5,154.5,62.7,153.7,62.8z M149.1,59.1
				c0.3,0,0.5,0,0.7,0.1c0.2,0.2,0.2,0.4,0,0.6c-0.3,0.4-0.6,0.7-0.8,1.1c-0.1,0.3-0.1,0.7,0.1,0.9c0.2,0.2,0.6,0.2,1.3,0.2
				c1.7,0,3.5-0.3,5.2-0.8c0.9-0.3,1.5-0.6,1.6-1c0.2-0.5,0.1-1.2-0.4-1.7c-0.2-0.2-0.1-0.5,0.2-0.7c0.3-0.2,0.7-0.2,1,0
				c0.4,0.3,0.8,0.5,1.2,0.7c0.4,0.1,0.8,0.2,1.1,0.1c0.3-0.1,0.7-0.4,0.8-0.8c0.2-0.3,0.2-0.8,0.1-1.3c-0.1-0.8-0.4-1.6-0.9-2.3
				c-0.4-0.6-0.9-0.9-1.3-0.9c-0.5,0-1,0.3-1.6,1c-0.2,0.2-0.6,0.3-1,0.3c-0.3-0.1-0.5-0.3-0.4-0.6c0.2-0.5,0.4-0.9,0.5-1.4
				c0-0.4-0.1-0.8-0.4-1c-0.4-0.3-1.3-0.3-2-0.2c-1.2,0.1-2.4,0.3-3.5,0.5c-1.3,0.3-2,0.6-2.3,1.1c-0.2,0.3-0.1,0.7,0.2,1.1
				c0.3,0.4,0.8,0.7,1.3,1c0.3,0.2,0.3,0.5,0,0.7c-0.3,0.2-0.7,0.3-1,0.2c-0.5-0.2-1.3-0.5-1.9-0.6c-0.4,0-0.9,0-1.1,0.3
				c-0.3,0.3-0.3,0.8-0.2,1.2c0.1,0.7,0.2,1.5,0.4,2.2c0.1,0.2,0.2,0.7,0.6,0.8c0.2,0.1,0.7-0.1,0.8-0.2c0.1-0.1,0.3-0.1,0.4-0.2
				c0.3-0.2,0.7-0.4,1.2-0.5C149,59.1,149,59.1,149.1,59.1z"/>
		</g>
		<g>
			<path class="st11" d="M150.7,52c0.2,0,0.4-0.1,0.6-0.1c-0.4,0.1-0.8,0.1-1.2,0.2c-1.3,0.3-2,0.6-2.3,1.1
				c-0.2,0.3-0.1,0.7,0.2,1.1c0.3,0.4,0.8,0.7,1.3,1c0.3,0.2,0.3,0.5,0,0.7c0,0-0.1,0.1-0.1,0.1c0.3,0,0.6,0,0.8-0.2
				c0.3-0.2,0.3-0.5,0-0.7c-0.5-0.3-1-0.6-1.3-1c-0.3-0.4-0.4-0.8-0.2-1.1C148.6,52.6,149.4,52.3,150.7,52z"/>
			<path class="st11" d="M145.1,56c-0.3,0.3-0.3,0.8-0.2,1.2c0.1,0.7,0.2,1.5,0.4,2.2c0.1,0.2,0.2,0.7,0.6,0.8
				c0.2,0.1,0.5,0,0.7-0.1c0,0,0,0,0,0c-0.4-0.1-0.5-0.7-0.6-0.8c-0.2-0.7-0.3-1.5-0.4-2.2c0-0.4,0-0.9,0.2-1.2
				c0.1-0.1,0.2-0.1,0.3-0.2C145.7,55.7,145.4,55.8,145.1,56z"/>
			<path class="st11" d="M159.3,58.5c-0.4-0.2-0.8-0.4-1.2-0.7c-0.2-0.2-0.7-0.2-1,0c0.1,0,0.2,0.1,0.3,0.1c0.4,0.3,0.8,0.5,1.2,0.7
				c0.4,0.1,0.8,0.2,1.1,0.1c0.1,0,0.1,0,0.2-0.1C159.7,58.6,159.5,58.6,159.3,58.5z"/>
			<path class="st11" d="M153.6,50.5c1-0.1,2.3-0.1,3.1,0.5c0.5,0.4,0.8,1,0.8,1.7c0.2-0.1,0.4-0.1,0.7-0.2c0-0.7-0.2-1.3-0.8-1.6
				c-0.8-0.6-2.1-0.6-3.1-0.5c-1.1,0.1-2.1,0.3-3.2,0.5C151.9,50.7,152.7,50.6,153.6,50.5z"/>
			<path class="st11" d="M146.9,61.1c-0.1,0-0.1,0-0.2,0.1C146.7,61.1,146.8,61.1,146.9,61.1C146.9,61.1,146.9,61.1,146.9,61.1z"/>
			<path class="st11" d="M161.7,53.7c-0.7-0.9-1.6-1.4-2.6-1.4c-0.3,0-0.5,0.1-0.8,0.1c0,0,0.1,0,0.1,0c1,0,1.9,0.4,2.6,1.4
				c0.6,0.8,0.9,1.7,1.1,2.6c0.1,0.4,0.1,1.1-0.2,1.7c-0.3,0.7-1,1.3-1.9,1.6c0,0,0,0,0,0c0.2,0,0.5-0.1,0.7-0.1
				c0.8-0.2,1.5-0.8,1.9-1.6c0.3-0.7,0.2-1.3,0.2-1.7C162.7,55.4,162.3,54.5,161.7,53.7z"/>
			<path class="st11" d="M146.4,54.6C146.4,54.6,146.4,54.5,146.4,54.6c-0.2-0.1-0.4,0-0.5,0C146,54.6,146.2,54.6,146.4,54.6z"/>
			<path class="st11" d="M158.2,59.7c0,0.3-0.1,0.6-0.2,0.9c-0.3,0.7-1.2,1.3-2.6,1.8c-0.7,0.2-1.4,0.4-2.1,0.5c0.1,0,0.3,0,0.4-0.1
				c0.8-0.2,1.6-0.4,2.4-0.6c1.4-0.5,2.3-1,2.6-1.8c0.1-0.2,0.1-0.4,0.2-0.6C158.7,59.8,158.4,59.8,158.2,59.7z"/>
			<path class="st11" d="M156.8,54.5c-0.1,0.1-0.1,0.1-0.2,0.2c0.3,0,0.7-0.1,0.9-0.3c0.4-0.4,0.8-0.7,1.1-0.9c-0.1,0-0.1,0-0.2,0
				C157.9,53.5,157.4,53.8,156.8,54.5z"/>
			<path class="st11" d="M150.5,62.1c-0.7,0-1.1-0.1-1.3-0.2c-0.2-0.2-0.3-0.5-0.1-0.9c0.1-0.4,0.5-0.8,0.8-1.1
				c0.2-0.2,0.2-0.4,0-0.6c-0.2-0.1-0.4-0.2-0.7-0.1c0,0-0.1,0-0.1,0c-0.1,0-0.2,0.1-0.3,0.1c0.2,0,0.3,0.1,0.4,0.2
				c0.2,0.2,0.2,0.4,0,0.6c-0.3,0.4-0.6,0.7-0.8,1.1c-0.1,0.3-0.1,0.7,0.1,0.9c0.2,0.2,0.6,0.2,1.3,0.2c1.1,0,2.2-0.1,3.3-0.4
				C152.3,62,151.4,62.1,150.5,62.1z"/>
		</g>
	</g>
</g>
</svg>
