<?xml version="1.0" encoding="utf-8"?>
<!-- Generator: Adobe Illustrator 21.0.0, SVG Export Plug-In . SVG Version: 6.00 Build 0)  -->
<svg version="1.1" xmlns="http://www.w3.org/2000/svg" xmlns:xlink="http://www.w3.org/1999/xlink" x="0px" y="0px"
	 viewBox="0 0 389 157" style="enable-background:new 0 0 389 157;" xml:space="preserve">
<style type="text/css">
	.st0{display:none;}
	.st1{display:inline;}
	.st2{fill:#732A13;}
	.st3{fill:#6C151C;}
	.st4{fill:#F6C073;}
	.st5{fill:#F1A12E;}
	.st6{opacity:0.3;fill:#FBE0BA;enable-background:new    ;}
	.st7{fill:#6F4026;}
	.st8{fill:#F6C278;}
	.st9{fill:#AB1717;}
	.st10{fill:#F7DB87;}
</style>
<g id="Слой_1" class="st0">
	<g id="Layer_1" class="st1">
		<g>
			
				<ellipse transform="matrix(0.9998 -1.910948e-02 1.910948e-02 0.9998 -1.7337 3.9668)" class="st2" cx="206.7" cy="92.7" rx="175.1" ry="48.7"/>
			
				<ellipse transform="matrix(0.9998 -1.911576e-02 1.911576e-02 0.9998 -1.5262 3.9298)" class="st3" cx="204.8" cy="81.8" rx="161" ry="44.8"/>
			
				<ellipse transform="matrix(0.9998 -1.911913e-02 1.911913e-02 0.9998 -1.4442 3.9373)" class="st4" cx="205.2" cy="77.5" rx="158.3" ry="44.6"/>
			
				<ellipse transform="matrix(0.9998 -1.910377e-02 1.910377e-02 0.9998 -1.317 3.9311)" class="st5" cx="205.1" cy="70.9" rx="145.6" ry="32.3"/>
			
				<ellipse transform="matrix(0.9998 -1.911114e-02 1.911114e-02 0.9998 -1.3424 3.9328)" class="st5" cx="205.1" cy="72.2" rx="139.4" ry="30.9"/>
			<path class="st6" d="M204.5,41.3c-77,1.5-139.1,16.5-138.8,33.6s63,29.7,140,28.3c77-1.5,139.1-16.5,138.8-33.6
				S281.5,39.9,204.5,41.3z M76.5,69.9c-0.4-0.2-0.5-0.7-0.3-1.1c3.1-9.1,15.8-8,22.9-11.7c0.3-0.2,0.6-0.2,0.8-0.1
				c15-5,30.2-7.7,46.5-8.8c9-0.6,18.1-0.6,27.1-0.7c5.3-0.1,12.1-0.5,16.1,3.6c0.6,0.6-0.1,1.5-0.7,1.7c-8,3.7-17.1,2.5-25.7,3.3
				c-11,1-22.1,2.7-32.9,4.8c-10.9,2.1-22.2,3.3-33,6.1C90.6,68.8,83.3,72.4,76.5,69.9z M180.5,95.3c-6.8,1.8-14,1.7-21,1.7
				c-9.1,0-18.1-0.1-27.2,0c-5.6,0-12.9,0-17.3-4.1c-4.6-4.3-9.2-3.7-15-3.6c-4.6,0-17.9,0.3-17.1-7.4c0.6-5.4,10.5-7.5,14.4-8.5
				c8.1-2.1,16.5-3.3,24.8-4c3.8-0.3,7.4-0.5,11.1-1.1c0.1-0.1,0.3-0.2,0.4-0.2c12.3-2.4,24.7-4,37.2-4.6c8.1-0.4,22-1.8,22.4,9.6
				C193.7,82.5,190.7,92.5,180.5,95.3z M213.5,49.7c7-6.9,18.9-4.7,27.8-6c0.5-0.1,0.7,0.1,0.8,0.4c6,0,12.1,0.7,18.1,1.3
				c6.4,0.6,16.7,0.8,21.1,6.5c0.4,0.6,0.1,1.6-0.7,1.7c-12.9,3.4-25.5-0.7-38.5,0c-8.7,0.5-20.9,2.9-28.6-2.4
				C213,50.8,213,50.1,213.5,49.7z M261.1,84.1c-1.6,4.3-7.6,5.8-11.6,6.6c-7.1,1.4-14.7,2.8-21.8,3.4c-7,0.6-12.6-1.2-15.8-7.8
				c-1.4-3-6.8-16-3.7-20.4c0.1-0.1,0.2-0.3,0.3-0.4c0.4-0.4,0.9-0.7,1.6-0.9c2-0.8,4.1-0.6,6.5,0.2c5.2,1.6,10.6,2.4,15.9,3.9
				c7,1.9,14.2,4.3,20.9,7.3C256.2,77.1,262.7,79.8,261.1,84.1z M300.7,71.4c-4.1,5.6-14.6,4.6-20.5,4.1
				c-11.3-0.9-22.3-2.5-33.2-5.8c-3.7-1.1-18.2-3.5-18.9-8.4c-0.3-2.3,2.3-3.5,5.3-4.1c9.4-3.8,19.3,0,28.9,0.7
				c5.4,0.4,10.9,1.2,16.2,2.1C281.8,60.5,306.3,63.8,300.7,71.4z"/>
			<path class="st7" d="M38.5,90c0,0-6.8,2.4-0.1,15.3s86.2,37.6,160.7,32.7c0,0,51.9,0,52.2-4.1s-19.8-4.3-19.8-4.3
				s-23.5,0.7-33.8,0.8C187.5,130.4,54.8,131.5,38.5,90z"/>
			<path class="st8" d="M55.9,70.2c0,0-3.4-0.2-6.1,6.4c-2.7,6.6,7.9,22.9,55,33.2c47,10.3,115.1,12.6,150.4,6.2s18.1-15.1,0.9-12.8
				c-17.2,2.3-17.2,2.3-17.2,2.3S153,108.1,110,99.9C69.2,92.2,55.1,87.1,55.9,70.2z"/>
		</g>
	</g>
	<g id="Слой_3" class="st1">
		<path class="st9" d="M145.6,45.9c0,0,46.5-2,75.9-1.5c19.1,0.2,41.2-3.1,77.1,5.1c17.5,3.8,28.6,7.5,34.6,10.6
			c3.6,1.9,6,5.6,5.9,9.7c-0.1,6.2-6.3,15.6-56.8,26c-49.7,4.8-55.4,4.6-77.4,3.8c-24.5,0.9-52.2,3.2-76.1-2.4
			c-26.9-5.6-68.6-13.4-56.1-25.5C80.6,64.8,90.8,54.2,145.6,45.9z"/>
	</g>
</g>
<g id="Слой_2">
	<g>
		<polygon class="st10" points="150,90.9 151,91.9 163.8,82.3 162.7,80.9 		"/>
		<polygon class="st10" points="156.9,92 157.9,92.9 170.7,83.3 169.6,81.9 		"/>
		<polygon class="st10" points="150,86.5 151,87.4 163.8,77.8 162.7,76.4 		"/>
		<polygon class="st10" points="167.7,93.3 168.6,94.3 181.5,84.6 180.3,83.3 		"/>
		<polygon class="st10" points="182.5,92 183.5,92.9 196.3,83.3 195.2,81.9 		"/>
		<polygon class="st10" points="184.5,90.9 185.5,91.9 198.3,82.3 197.1,80.9 		"/>
		<polygon class="st10" points="184.5,79.2 185.5,80.2 198.3,70.5 197.1,69.2 		"/>
		<polygon class="st10" points="180.4,87.8 181.4,88.8 194.2,79.1 193.1,77.8 		"/>
		<polygon class="st10" points="172.8,95.7 173.8,96.7 186.6,87 185.5,85.7 		"/>
		<polygon class="st10" points="172.1,84.7 173.1,85.7 185.9,76 184.8,74.7 		"/>
		<polygon class="st10" points="163.8,83.1 164.8,84.1 177.7,74.5 176.5,73.1 		"/>
		<polygon class="st10" points="155.9,81 156.9,81.9 169.8,72.3 168.6,70.9 		"/>
		<polygon class="st10" points="169.8,74.7 170.8,75.7 183.6,66 182.5,64.7 		"/>
		<polygon class="st10" points="159,72.1 160,73.1 172.8,63.5 171.6,62.1 		"/>
		<polygon class="st10" points="172.8,72.1 171.8,73.1 159,63.5 160.1,62.1 		"/>
		<polygon class="st10" points="183.6,72.1 182.6,73.1 169.8,63.5 170.9,62.1 		"/>
		<polygon class="st10" points="172.1,81 171.1,81.9 158.3,72.3 159.4,70.9 		"/>
		<polygon class="st10" points="170.6,88.7 169.6,89.7 156.8,80 158,78.7 		"/>
		<polygon class="st10" points="186.6,86.5 185.6,87.4 172.8,77.8 173.9,76.4 		"/>
		<polygon class="st10" points="180.9,92 179.9,92.9 167,83.3 168.2,81.9 		"/>
		<polygon class="st10" points="169.8,92 168.8,92.9 155.9,83.3 157.1,81.9 		"/>
		<polygon class="st10" points="174,93.3 173,94.3 160.1,84.6 161.3,83.3 		"/>
		<polygon class="st10" points="193.5,82.3 192.6,83.3 179.7,73.6 180.9,72.3 		"/>
		<polygon class="st10" points="198.3,76.8 197.3,77.8 184.5,68.1 185.6,66.8 		"/>
		<polygon class="st10" points="175.6,79.2 176.6,80.2 189.4,70.5 188.3,69.2 		"/>
		<polygon class="st10" points="174,76.8 174.9,77.8 187.8,68.1 186.6,66.8 		"/>
	</g>
	<g>
		<polygon class="st10" points="114.3,88.8 115.3,89.8 128.1,80.1 127,78.8 		"/>
		<polygon class="st10" points="121.2,89.8 122.2,90.8 135,81.1 133.9,79.8 		"/>
		<polygon class="st10" points="114.3,84.3 115.3,85.3 128.1,75.6 127,74.3 		"/>
		<polygon class="st10" points="132,91.2 132.9,92.1 145.8,82.5 144.6,81.1 		"/>
		<polygon class="st10" points="146.8,89.8 147.8,90.8 160.6,81.1 159.5,79.8 		"/>
		<polygon class="st10" points="148.8,88.8 149.8,89.8 162.6,80.1 161.4,78.8 		"/>
		<polygon class="st10" points="148.8,77.1 149.8,78 162.6,68.4 161.4,67 		"/>
		<polygon class="st10" points="144.7,85.7 145.7,86.6 158.5,77 157.4,75.6 		"/>
		<polygon class="st10" points="137.1,93.6 138.1,94.5 150.9,84.9 149.8,83.5 		"/>
		<polygon class="st10" points="136.4,82.6 137.4,83.5 150.2,73.9 149.1,72.5 		"/>
		<polygon class="st10" points="128.1,81 129.1,82 142,72.3 140.8,71 		"/>
		<polygon class="st10" points="120.2,78.8 121.2,79.8 134.1,70.1 132.9,68.8 		"/>
		<polygon class="st10" points="134.1,72.6 135.1,73.6 147.9,63.9 146.8,62.6 		"/>
		<polygon class="st10" points="123.3,70 124.3,71 137.1,61.3 135.9,60 		"/>
		<polygon class="st10" points="137.1,70 136.1,71 123.3,61.3 124.4,60 		"/>
		<polygon class="st10" points="147.9,70 146.9,71 134.1,61.3 135.2,60 		"/>
		<polygon class="st10" points="136.4,78.8 135.4,79.8 122.6,70.1 123.7,68.8 		"/>
		<polygon class="st10" points="134.9,86.6 133.9,87.5 121.1,77.9 122.3,76.5 		"/>
		<polygon class="st10" points="150.9,84.3 149.9,85.3 137.1,75.6 138.2,74.3 		"/>
		<polygon class="st10" points="145.2,89.8 144.2,90.8 131.3,81.1 132.5,79.8 		"/>
		<polygon class="st10" points="134.1,89.8 133.1,90.8 120.2,81.1 121.4,79.8 		"/>
		<polygon class="st10" points="138.3,91.2 137.3,92.1 124.4,82.5 125.6,81.1 		"/>
		<polygon class="st10" points="157.8,80.2 156.9,81.1 144,71.5 145.2,70.1 		"/>
		<polygon class="st10" points="162.6,74.7 161.6,75.6 148.8,66 149.9,64.6 		"/>
		<polygon class="st10" points="139.9,77.1 140.9,78 153.7,68.4 152.6,67 		"/>
		<polygon class="st10" points="138.3,74.7 139.2,75.6 152.1,66 150.9,64.6 		"/>
	</g>
	<g>
		<polygon class="st10" points="159.3,74.3 160.3,75.3 173.2,65.7 172,64.3 		"/>
		<polygon class="st10" points="166.3,75.4 167.3,76.3 180.1,66.7 178.9,65.3 		"/>
		<polygon class="st10" points="159.3,69.9 160.3,70.8 173.2,61.2 172,59.8 		"/>
		<polygon class="st10" points="177,76.7 178,77.7 190.8,68 189.7,66.7 		"/>
		<polygon class="st10" points="191.8,75.4 192.8,76.3 205.7,66.7 204.5,65.3 		"/>
		<polygon class="st10" points="193.8,74.3 194.8,75.3 207.6,65.7 206.5,64.3 		"/>
		<polygon class="st10" points="193.8,62.6 194.8,63.6 207.6,53.9 206.5,52.6 		"/>
		<polygon class="st10" points="189.7,71.2 190.7,72.2 203.6,62.5 202.4,61.2 		"/>
		<polygon class="st10" points="182.1,79.1 183.1,80.1 196,70.4 194.8,69.1 		"/>
		<polygon class="st10" points="181.5,68.1 182.4,69.1 195.3,59.4 194.1,58.1 		"/>
		<polygon class="st10" points="173.2,66.5 174.2,67.5 187,57.9 185.9,56.5 		"/>
		<polygon class="st10" points="165.3,64.4 166.3,65.3 179.1,55.7 178,54.3 		"/>
		<polygon class="st10" points="179.1,58.1 180.1,59.1 193,49.4 191.8,48.1 		"/>
		<polygon class="st10" points="168.3,55.5 169.3,56.5 182.1,46.9 181,45.5 		"/>
		<polygon class="st10" points="182.1,55.5 181.2,56.5 168.3,46.9 169.5,45.5 		"/>
		<polygon class="st10" points="193,55.5 192,56.5 179.1,46.9 180.3,45.5 		"/>
		<polygon class="st10" points="181.5,64.4 180.5,65.3 167.6,55.7 168.8,54.3 		"/>
		<polygon class="st10" points="180,72.1 179,73.1 166.2,63.4 167.3,62.1 		"/>
		<polygon class="st10" points="196,69.9 195,70.8 182.1,61.2 183.3,59.8 		"/>
		<polygon class="st10" points="190.2,75.4 189.2,76.3 176.4,66.7 177.5,65.3 		"/>
		<polygon class="st10" points="179.1,75.4 178.1,76.3 165.3,66.7 166.4,65.3 		"/>
		<polygon class="st10" points="183.3,76.7 182.3,77.7 169.5,68 170.6,66.7 		"/>
		<polygon class="st10" points="202.9,65.7 201.9,66.7 189.1,57 190.2,55.7 		"/>
		<polygon class="st10" points="207.6,60.2 206.7,61.2 193.8,51.5 195,50.2 		"/>
		<polygon class="st10" points="184.9,62.6 185.9,63.6 198.8,53.9 197.6,52.6 		"/>
		<polygon class="st10" points="183.3,60.2 184.3,61.2 197.1,51.5 196,50.2 		"/>
	</g>
	<g>
		<polygon class="st10" points="197.1,71.5 198.1,72.5 210.9,62.8 209.7,61.5 		"/>
		<polygon class="st10" points="204,72.5 205,73.5 217.8,63.9 216.7,62.5 		"/>
		<polygon class="st10" points="197.1,67 198.1,68 210.9,58.4 209.7,57 		"/>
		<polygon class="st10" points="214.7,73.9 215.7,74.9 228.5,65.2 227.4,63.9 		"/>
		<polygon class="st10" points="229.5,72.5 230.5,73.5 243.4,63.9 242.2,62.5 		"/>
		<polygon class="st10" points="231.5,71.5 232.5,72.5 245.4,62.8 244.2,61.5 		"/>
		<polygon class="st10" points="231.5,59.8 232.5,60.8 245.4,51.1 244.2,49.8 		"/>
		<polygon class="st10" points="227.4,68.4 228.4,69.4 241.3,59.7 240.1,58.4 		"/>
		<polygon class="st10" points="219.9,76.3 220.9,77.3 233.7,67.6 232.5,66.3 		"/>
		<polygon class="st10" points="219.2,65.3 220.2,66.3 233,56.6 231.8,55.3 		"/>
		<polygon class="st10" points="210.9,63.7 211.9,64.7 224.7,55.1 223.6,53.7 		"/>
		<polygon class="st10" points="203,61.5 204,62.5 216.8,52.9 215.7,51.5 		"/>
		<polygon class="st10" points="216.8,55.3 217.8,56.3 230.7,46.6 229.5,45.3 		"/>
		<polygon class="st10" points="206,52.7 207,53.7 219.9,44.1 218.7,42.7 		"/>
		<polygon class="st10" points="219.9,52.7 218.9,53.7 206,44.1 207.2,42.7 		"/>
		<polygon class="st10" points="230.7,52.7 229.7,53.7 216.8,44.1 218,42.7 		"/>
		<polygon class="st10" points="219.2,61.5 218.2,62.5 205.3,52.9 206.5,51.5 		"/>
		<polygon class="st10" points="217.7,69.3 216.7,70.3 203.9,60.6 205,59.3 		"/>
		<polygon class="st10" points="233.7,67 232.7,68 219.9,58.4 221,57 		"/>
		<polygon class="st10" points="227.9,72.5 226.9,73.5 214.1,63.9 215.2,62.5 		"/>
		<polygon class="st10" points="216.8,72.5 215.8,73.5 203,63.9 204.2,62.5 		"/>
		<polygon class="st10" points="221,73.9 220,74.9 207.2,65.2 208.3,63.9 		"/>
		<polygon class="st10" points="240.6,62.9 239.6,63.9 226.8,54.2 227.9,52.9 		"/>
		<polygon class="st10" points="245.4,57.4 244.4,58.4 231.5,48.7 232.7,47.4 		"/>
		<polygon class="st10" points="222.6,59.8 223.6,60.8 236.5,51.1 235.3,49.8 		"/>
		<polygon class="st10" points="221,57.4 222,58.4 234.8,48.7 233.7,47.4 		"/>
	</g>
	<g>
		<polygon class="st10" points="268.6,83.9 269.6,84.9 282.4,75.2 281.3,73.9 		"/>
		<polygon class="st10" points="275.5,85 276.5,85.9 289.4,76.3 288.2,74.9 		"/>
		<polygon class="st10" points="268.6,79.5 269.6,80.4 282.4,70.8 281.3,69.4 		"/>
		<polygon class="st10" points="286.3,86.3 287.3,87.3 300.1,77.6 298.9,76.3 		"/>
		<polygon class="st10" points="301.1,85 302.1,85.9 314.9,76.3 313.8,74.9 		"/>
		<polygon class="st10" points="303.1,83.9 304.1,84.9 316.9,75.2 315.7,73.9 		"/>
		<polygon class="st10" points="303.1,72.2 304.1,73.2 316.9,63.5 315.7,62.2 		"/>
		<polygon class="st10" points="299,80.8 300,81.8 312.8,72.1 311.7,70.8 		"/>
		<polygon class="st10" points="291.4,88.7 292.4,89.7 305.2,80 304.1,78.7 		"/>
		<polygon class="st10" points="290.7,77.7 291.7,78.7 304.5,69 303.4,67.7 		"/>
		<polygon class="st10" points="282.4,76.1 283.4,77.1 296.3,67.5 295.1,66.1 		"/>
		<polygon class="st10" points="274.5,74 275.5,74.9 288.4,65.3 287.2,63.9 		"/>
		<polygon class="st10" points="288.4,67.7 289.4,68.7 302.2,59 301.1,57.7 		"/>
		<polygon class="st10" points="277.6,65.1 278.6,66.1 291.4,56.5 290.2,55.1 		"/>
		<polygon class="st10" points="291.4,65.1 290.4,66.1 277.6,56.5 278.7,55.1 		"/>
		<polygon class="st10" points="302.2,65.1 301.2,66.1 288.4,56.5 289.5,55.1 		"/>
		<polygon class="st10" points="290.7,74 289.7,74.9 276.9,65.3 278,63.9 		"/>
		<polygon class="st10" points="289.2,81.7 288.2,82.7 275.4,73 276.6,71.7 		"/>
		<polygon class="st10" points="305.2,79.5 304.2,80.4 291.4,70.8 292.6,69.4 		"/>
		<polygon class="st10" points="299.5,85 298.5,85.9 285.6,76.3 286.8,74.9 		"/>
		<polygon class="st10" points="288.4,85 287.4,85.9 274.5,76.3 275.7,74.9 		"/>
		<polygon class="st10" points="292.6,86.3 291.6,87.3 278.7,77.6 279.9,76.3 		"/>
		<polygon class="st10" points="312.1,75.3 311.2,76.3 298.3,66.6 299.5,65.3 		"/>
		<polygon class="st10" points="316.9,69.8 315.9,70.8 303.1,61.1 304.2,59.8 		"/>
		<polygon class="st10" points="294.2,72.2 295.2,73.2 308,63.5 306.9,62.2 		"/>
		<polygon class="st10" points="292.6,69.8 293.5,70.8 306.4,61.1 305.2,59.8 		"/>
	</g>
	<g>
		<polygon class="st10" points="240.6,74.5 241.6,75.5 254.4,65.8 253.3,64.5 		"/>
		<polygon class="st10" points="247.5,75.5 248.5,76.5 261.4,66.8 260.2,65.5 		"/>
		<polygon class="st10" points="240.6,70 241.6,71 254.4,61.3 253.3,60 		"/>
		<polygon class="st10" points="258.3,76.9 259.3,77.8 272.1,68.2 270.9,66.8 		"/>
		<polygon class="st10" points="273.1,75.5 274.1,76.5 286.9,66.8 285.8,65.5 		"/>
		<polygon class="st10" points="275.1,74.5 276.1,75.5 288.9,65.8 287.8,64.5 		"/>
		<polygon class="st10" points="275.1,62.8 276.1,63.7 288.9,54.1 287.8,52.7 		"/>
		<polygon class="st10" points="271,71.4 272,72.3 284.8,62.7 283.7,61.3 		"/>
		<polygon class="st10" points="263.4,79.3 264.4,80.2 277.2,70.6 276.1,69.2 		"/>
		<polygon class="st10" points="262.7,68.3 263.7,69.2 276.5,59.6 275.4,58.2 		"/>
		<polygon class="st10" points="254.4,66.7 255.4,67.7 268.3,58 267.1,56.7 		"/>
		<polygon class="st10" points="246.6,64.5 247.5,65.5 260.4,55.8 259.2,54.5 		"/>
		<polygon class="st10" points="260.4,58.3 261.4,59.2 274.2,49.6 273.1,48.2 		"/>
		<polygon class="st10" points="249.6,55.7 250.6,56.7 263.4,47 262.3,45.7 		"/>
		<polygon class="st10" points="263.4,55.7 262.4,56.7 249.6,47 250.7,45.7 		"/>
		<polygon class="st10" points="274.2,55.7 273.2,56.7 260.4,47 261.5,45.7 		"/>
		<polygon class="st10" points="262.7,64.5 261.7,65.5 248.9,55.8 250,54.5 		"/>
		<polygon class="st10" points="261.2,72.3 260.3,73.2 247.4,63.6 248.6,62.2 		"/>
		<polygon class="st10" points="277.2,70 276.2,71 263.4,61.3 264.6,60 		"/>
		<polygon class="st10" points="271.5,75.5 270.5,76.5 257.6,66.8 258.8,65.5 		"/>
		<polygon class="st10" points="260.4,75.5 259.4,76.5 246.6,66.8 247.7,65.5 		"/>
		<polygon class="st10" points="264.6,76.9 263.6,77.8 250.7,68.2 251.9,66.8 		"/>
		<polygon class="st10" points="284.2,65.9 283.2,66.8 270.3,57.2 271.5,55.8 		"/>
		<polygon class="st10" points="288.9,60.4 287.9,61.3 275.1,51.7 276.2,50.3 		"/>
		<polygon class="st10" points="266.2,62.8 267.2,63.7 280,54.1 278.9,52.7 		"/>
		<polygon class="st10" points="264.6,60.4 265.6,61.3 278.4,51.7 277.2,50.3 		"/>
	</g>
	<g>
		<polygon class="st10" points="223.4,89 224.4,90 237.2,80.4 236.1,79 		"/>
		<polygon class="st10" points="230.3,90.1 231.3,91 244.1,81.4 243,80 		"/>
		<polygon class="st10" points="223.4,84.6 224.4,85.5 237.2,75.9 236.1,74.5 		"/>
		<polygon class="st10" points="241,91.4 242,92.4 254.9,82.7 253.7,81.4 		"/>
		<polygon class="st10" points="255.9,90.1 256.9,91 269.7,81.4 268.5,80 		"/>
		<polygon class="st10" points="257.8,89 258.8,90 271.7,80.4 270.5,79 		"/>
		<polygon class="st10" points="257.8,77.3 258.8,78.3 271.7,68.6 270.5,67.3 		"/>
		<polygon class="st10" points="253.8,85.9 254.7,86.9 267.6,77.2 266.4,75.9 		"/>
		<polygon class="st10" points="246.2,93.8 247.2,94.8 260,85.1 258.9,83.8 		"/>
		<polygon class="st10" points="245.5,82.8 246.5,83.8 259.3,74.1 258.2,72.8 		"/>
		<polygon class="st10" points="237.2,81.3 238.2,82.2 251,72.6 249.9,71.2 		"/>
		<polygon class="st10" points="229.3,79.1 230.3,80 243.1,70.4 242,69 		"/>
		<polygon class="st10" points="243.1,72.8 244.1,73.8 257,64.2 255.8,62.8 		"/>
		<polygon class="st10" points="232.3,70.3 233.3,71.2 246.2,61.6 245,60.2 		"/>
		<polygon class="st10" points="246.2,70.3 245.2,71.2 232.3,61.6 233.5,60.2 		"/>
		<polygon class="st10" points="257,70.3 256,71.2 243.1,61.6 244.3,60.2 		"/>
		<polygon class="st10" points="245.5,79.1 244.5,80 231.6,70.4 232.8,69 		"/>
		<polygon class="st10" points="244,86.8 243,87.8 230.2,78.1 231.3,76.8 		"/>
		<polygon class="st10" points="260,84.6 259,85.5 246.2,75.9 247.3,74.5 		"/>
		<polygon class="st10" points="254.2,90.1 253.2,91 240.4,81.4 241.6,80 		"/>
		<polygon class="st10" points="243.1,90.1 242.2,91 229.3,81.4 230.5,80 		"/>
		<polygon class="st10" points="247.3,91.4 246.3,92.4 233.5,82.7 234.6,81.4 		"/>
		<polygon class="st10" points="266.9,80.4 265.9,81.4 253.1,71.7 254.2,70.4 		"/>
		<polygon class="st10" points="271.7,74.9 270.7,75.9 257.8,66.2 259,64.9 		"/>
		<polygon class="st10" points="248.9,77.3 249.9,78.3 262.8,68.6 261.6,67.3 		"/>
		<polygon class="st10" points="247.3,74.9 248.3,75.9 261.2,66.2 260,64.9 		"/>
	</g>
	<g>
		<polygon class="st10" points="191.4,96.6 192.4,97.5 205.3,87.9 204.1,86.5 		"/>
		<polygon class="st10" points="198.4,97.6 199.4,98.5 212.2,88.9 211,87.5 		"/>
		<polygon class="st10" points="191.4,92.1 192.4,93 205.3,83.4 204.1,82 		"/>
		<polygon class="st10" points="209.1,98.9 210.1,99.9 222.9,90.2 221.8,88.9 		"/>
		<polygon class="st10" points="223.9,97.6 224.9,98.5 237.8,88.9 236.6,87.5 		"/>
		<polygon class="st10" points="225.9,96.6 226.9,97.5 239.8,87.9 238.6,86.5 		"/>
		<polygon class="st10" points="225.9,84.8 226.9,85.8 239.8,76.2 238.6,74.8 		"/>
		<polygon class="st10" points="221.8,93.4 222.8,94.4 235.7,84.7 234.5,83.4 		"/>
		<polygon class="st10" points="214.2,101.3 215.2,102.3 228.1,92.7 226.9,91.3 		"/>
		<polygon class="st10" points="213.6,90.3 214.6,91.3 227.4,81.7 226.2,80.3 		"/>
		<polygon class="st10" points="205.3,88.8 206.3,89.7 219.1,80.1 218,78.7 		"/>
		<polygon class="st10" points="197.4,86.6 198.4,87.5 211.2,77.9 210.1,76.5 		"/>
		<polygon class="st10" points="211.2,80.3 212.2,81.3 225.1,71.7 223.9,70.3 		"/>
		<polygon class="st10" points="200.4,77.8 201.4,78.7 214.2,69.1 213.1,67.7 		"/>
		<polygon class="st10" points="214.2,77.8 213.3,78.7 200.4,69.1 201.6,67.7 		"/>
		<polygon class="st10" points="225.1,77.8 224.1,78.7 211.2,69.1 212.4,67.7 		"/>
		<polygon class="st10" points="213.6,86.6 212.6,87.5 199.7,77.9 200.9,76.5 		"/>
		<polygon class="st10" points="212.1,94.3 211.1,95.3 198.3,85.7 199.4,84.3 		"/>
		<polygon class="st10" points="228.1,92.1 227.1,93 214.2,83.4 215.4,82 		"/>
		<polygon class="st10" points="222.3,97.6 221.3,98.5 208.5,88.9 209.6,87.5 		"/>
		<polygon class="st10" points="211.2,97.6 210.2,98.5 197.4,88.9 198.5,87.5 		"/>
		<polygon class="st10" points="215.4,98.9 214.4,99.9 201.6,90.2 202.7,88.9 		"/>
		<polygon class="st10" points="235,87.9 234,88.9 221.2,79.2 222.3,77.9 		"/>
		<polygon class="st10" points="239.8,82.4 238.8,83.4 225.9,73.7 227.1,72.4 		"/>
		<polygon class="st10" points="217,84.8 218,85.8 230.9,76.2 229.7,74.8 		"/>
		<polygon class="st10" points="215.4,82.4 216.4,83.4 229.2,73.7 228.1,72.4 		"/>
	</g>
	<g>
		<polygon class="st10" points="90.1,83.1 91.1,84.1 104,74.5 102.8,73.1 		"/>
		<polygon class="st10" points="97.1,84.2 98.1,85.1 110.9,75.5 109.7,74.1 		"/>
		<polygon class="st10" points="90.1,78.7 91.1,79.6 104,70 102.8,68.6 		"/>
		<polygon class="st10" points="107.8,85.5 108.8,86.5 121.6,76.8 120.5,75.5 		"/>
		<polygon class="st10" points="122.6,84.2 123.6,85.1 136.5,75.5 135.3,74.1 		"/>
		<polygon class="st10" points="124.6,83.1 125.6,84.1 138.4,74.5 137.3,73.1 		"/>
		<polygon class="st10" points="124.6,71.4 125.6,72.4 138.4,62.7 137.3,61.4 		"/>
		<polygon class="st10" points="120.5,80 121.5,81 134.4,71.3 133.2,70 		"/>
		<polygon class="st10" points="112.9,87.9 113.9,88.9 126.8,79.2 125.6,77.9 		"/>
		<polygon class="st10" points="112.3,76.9 113.2,77.9 126.1,68.2 124.9,66.9 		"/>
		<polygon class="st10" points="104,75.4 105,76.3 117.8,66.7 116.7,65.3 		"/>
		<polygon class="st10" points="96.1,73.2 97.1,74.1 109.9,64.5 108.8,63.1 		"/>
		<polygon class="st10" points="109.9,66.9 110.9,67.9 123.8,58.3 122.6,56.9 		"/>
		<polygon class="st10" points="99.1,64.4 100.1,65.3 112.9,55.7 111.8,54.3 		"/>
		<polygon class="st10" points="112.9,64.4 112,65.3 99.1,55.7 100.3,54.3 		"/>
		<polygon class="st10" points="123.8,64.4 122.8,65.3 109.9,55.7 111.1,54.3 		"/>
		<polygon class="st10" points="112.3,73.2 111.3,74.1 98.4,64.5 99.6,63.1 		"/>
		<polygon class="st10" points="110.8,80.9 109.8,81.9 97,72.2 98.1,70.9 		"/>
		<polygon class="st10" points="126.8,78.7 125.8,79.6 112.9,70 114.1,68.6 		"/>
		<polygon class="st10" points="121,84.2 120,85.1 107.2,75.5 108.3,74.1 		"/>
		<polygon class="st10" points="109.9,84.2 108.9,85.1 96.1,75.5 97.2,74.1 		"/>
		<polygon class="st10" points="114.1,85.5 113.1,86.5 100.3,76.8 101.4,75.5 		"/>
		<polygon class="st10" points="133.7,74.5 132.7,75.5 119.9,65.8 121,64.5 		"/>
		<polygon class="st10" points="138.4,69 137.5,70 124.6,60.3 125.8,59 		"/>
		<polygon class="st10" points="115.7,71.4 116.7,72.4 129.6,62.7 128.4,61.4 		"/>
		<polygon class="st10" points="114.1,69 115.1,70 127.9,60.3 126.8,59 		"/>
	</g>
	<g>
		<polygon class="st10" points="119.2,77 120.2,78 133.1,68.3 131.9,67 		"/>
		<polygon class="st10" points="126.1,78 127.1,79 140,69.3 138.8,68 		"/>
		<polygon class="st10" points="119.2,72.5 120.2,73.5 133.1,63.8 131.9,62.5 		"/>
		<polygon class="st10" points="136.9,79.4 137.9,80.3 150.7,70.7 149.6,69.3 		"/>
		<polygon class="st10" points="151.7,78 152.7,79 165.5,69.3 164.4,68 		"/>
		<polygon class="st10" points="153.7,77 154.7,78 167.5,68.3 166.4,67 		"/>
		<polygon class="st10" points="153.7,65.3 154.7,66.2 167.5,56.6 166.4,55.2 		"/>
		<polygon class="st10" points="149.6,73.9 150.6,74.8 163.4,65.2 162.3,63.8 		"/>
		<polygon class="st10" points="142,81.8 143,82.7 155.9,73.1 154.7,71.7 		"/>
		<polygon class="st10" points="141.3,70.8 142.3,71.7 155.2,62.1 154,60.7 		"/>
		<polygon class="st10" points="133.1,69.2 134.1,70.2 146.9,60.5 145.7,59.2 		"/>
		<polygon class="st10" points="125.2,67 126.2,68 139,58.3 137.8,57 		"/>
		<polygon class="st10" points="139,60.8 140,61.7 152.8,52.1 151.7,50.7 		"/>
		<polygon class="st10" points="128.2,58.2 129.2,59.2 142,49.5 140.9,48.2 		"/>
		<polygon class="st10" points="142,58.2 141,59.2 128.2,49.5 129.3,48.2 		"/>
		<polygon class="st10" points="152.8,58.2 151.8,59.2 139,49.5 140.2,48.2 		"/>
		<polygon class="st10" points="141.3,67 140.3,68 127.5,58.3 128.6,57 		"/>
		<polygon class="st10" points="139.9,74.8 138.9,75.7 126,66.1 127.2,64.7 		"/>
		<polygon class="st10" points="155.9,72.5 154.9,73.5 142,63.8 143.2,62.5 		"/>
		<polygon class="st10" points="150.1,78 149.1,79 136.3,69.3 137.4,68 		"/>
		<polygon class="st10" points="139,78 138,79 125.2,69.3 126.3,68 		"/>
		<polygon class="st10" points="143.2,79.4 142.2,80.3 129.3,70.7 130.5,69.3 		"/>
		<polygon class="st10" points="162.8,68.4 161.8,69.3 148.9,59.7 150.1,58.3 		"/>
		<polygon class="st10" points="167.5,62.9 166.5,63.8 153.7,54.2 154.8,52.8 		"/>
		<polygon class="st10" points="144.8,65.3 145.8,66.2 158.6,56.6 157.5,55.2 		"/>
		<polygon class="st10" points="143.2,62.9 144.2,63.8 157,54.2 155.9,52.8 		"/>
	</g>
</g>
</svg>
