<svg xmlns="http://www.w3.org/2000/svg" viewBox="0 0 389 157"  xmlns:v="https://vecta.io/nano"><style><![CDATA[.T{fill:#f9ad80}.U{fill:#a79185}.V{fill:#877f7a}.W{fill:#5c5b5a}.X{fill:#e46025}.Y{fill:#f47f31}.Z{fill:#f6954d}.a{fill:#e88c56}]]></style><path d="M118.9 89.1c.1-.1.2-.2.4-.3l-.1-.1v.1c-.2.1-.2.2-.3.3zm-1.3.7h0l-1.7.5c-.1 0-.2.1-.3.1l-2 .2-1.9 1c1.4.1 2.8.2 4-.2.7-.2 1.3-.7 1.9-1.1.5-.3.8-.7 1.2-1.1-.3.3-.7.5-1 .6h-.2z" class="U"/><path d="M113.1 90.6h0-.6-1.5c-.8 0-1.5 0-2.3-.1 0 0-.1 0-.1.1-.3 0-.5 0-.8-.1 0 0 .1 0 .1-.1h-.2c-.9-.1-1.7-.3-2.6-.5h-.2l-.3.3c-.2.2-.5.3-.7.5h0l1.2.3 5.6.7c.4-.2.7-.2 1-.2l1.9-1c-.2 0-.4.1-.5.1z" class="V"/><path d="M98.6 84.9c.5 1.6 1.2 2.9 2.4 4 .8.8 1.9 1.2 3 1.6h0c.2-.1.5-.2.7-.5l.3-.3c-.1 0-.1-.1-.2-.1h0-.1c-.6-.2-1.2-.6-1.7-1h0c-.1-.1-.3-.2-.4-.3h0l-.6-.6c-.1-.1-.3-.3-.4-.5h0l-.4-.4c-.2-.2-.3-.4-.4-.6-.2-.3-.3-.5-.4-.8s-.3-.5-.4-.8c-.1-.2-.1-.4-.2-.6-.1-.4-.2-.9-.2-1.4v-1.9c-.2-.1-.4-.2-.6-.4-.8 1.4-.8 3.2-.4 4.6z" class="W"/><path d="M109.4 84.7c.1.1.3.1.5.2.2.2.5.4.7.6l.6.6c.2.3.5.5.9.7.1.1.2.1.3.2.3.1.6.3 1 .4h.1c.1 0 .2.1.3.1h0c.3.1.6.1.9.2h.5c.5 0 .9.1 1.4.1h.1c.2 0 .5.1.7.1h1c.1-.1.2-.1.2-.2-.3-.1-.5-.1-.8-.2-1.1-.8-3-.9-8.1-3.2l-.3.2c0 0 0 .1 0 .2z" class="X"/><g class="Y"><path d="M106.8 85.7c0-.1.1-.2 0-.2v-.1c-.1 0-.2.1-.2.1-.1.1-.1.2-.1.3.1.2.3 0 .3-.1zm2.1 1.1c.3.1.5-.3.6-.6s.1-.5 0-.7c0 .1 0 .1-.1.2h-.1c-.1-.1-.1-.3-.2-.2-.2 0-.3.1-.4.3s-.2.4-.1.7c0 .1.1.3.3.3zm0-.8c0-.1.1-.1 0 0l.2-.1c.2.1 0 .4 0 .5-.1.1-.2 0-.2 0V86zm1.5.3c-.2.3-.3.6-.5.9-.3.5-.8.9-1.3 1.3s-1.1.7-1.7.8c-.4.1-.7.1-1 .3-.2.1-.4.1-.7.2.8.3 1.7.4 2.6.5h.2c.5-.2 1-.4 1.4-.7.6-.4 1.2-.8 1.7-1.3.4-.4.8-.9 1-1.4.1.1.2.1.3.2-.3.5-.6 1-1 1.4-.6.6-1.2 1.1-1.9 1.5-.3.2-.5.3-.8.4.8.1 1.5.1 2.3.1h.1l.1-.1c.8-.8 1.5-1.7 2-2.6.1-.1.1-.2.2-.4h-.1c-.3-.1-.6-.2-1-.4-.1-.1-.2-.1-.3-.2-.4-.2-.7-.4-.9-.7l-.3-.3c-.2.2-.3.3-.4.5z"/><path d="M104.5 83.6c-.4.6-.8 1.4-1 2.1-.3.9-.5 1.9-.4 2.9.5.4 1.1.7 1.7 1h.1s0-.1.1-.1c1.3-.4 2.5-.6 3.7-1.3.6-.4 1-.8 1.3-1.4.1-.2.3-.5.4-.7l.3-.6-.1-.1c-.2-.2-.4-.4-.7-.6-.2-.1-.3-.2-.5-.2-.4.7-1.8.2-1.6-.8l-1.9-.6c-.5.9-1.1 1.8-1.1 2.9s.3 2.5 1.5 2.8v.1c-.3-.1-.6-.1-.8-.2-.2-.2-.4-.3-.5-.5-.3-.6-.3-1.1-.3-1.7a6.28 6.28 0 0 1 .3-1.9c.2-.5.5-1 .7-1.5-.2-.1-.4-.1-.6-.2-.3.2-.5.4-.6.6zm4.1 1.8c.2-.1.5-.3.7-.2.1 0 .1.1.1.2.8.5 0 2.2-.8 1.7-.4-.4-.5-1.3 0-1.7zm-2.6-.7c.3-.3.8-.8 1.2-.6h0c1 .3.8 1.7.5 2.4-.2.4-.5.7-1 .8-.4 0-.8 0-1.1-.4-.5-.7 0-1.7.4-2.2z"/><path d="M106.8 87.1c.3-.2.5-.5.7-.8.2-.5.3-1.4-.2-1.9-.4-.1-.8.3-1 .6-.3.4-.7 1.1-.4 1.6.1.3.6.6.9.5zm-.3-1.7c.1-.2.4-.3.6-.3 0 0 .1 0 .1.1v.1c.1.2 0 .5-.2.6-.1.1-.5.2-.6 0-.2-.1-.1-.3.1-.5zm-3.1-1.6l-.9 1.6c-.3.6-.5 1.2-.5 1.9v.3l.6.6v-.6c.1-.8.3-1.5.5-2.2a22.56 22.56 0 0 1 1.1-2.2c.1-.2.3-.3.4-.4-.1 0-.3-.1-.4-.1-.3.4-.6.7-.8 1.1z"/><path d="M99.6 82.5c0 .1 0 .1 0 0V82l.3-.3c.1-.2.4-.3.5-.5h-.2c-.1 0-.2-.1-.4-.1-.1 0-.2 0-.2-.1v1.7c0 .5 0 1 .2 1.4.1.2.1.4.2.6.1.3.2.5.4.8.1.3.3.5.4.8.1.2.3.4.4.6.1.1.2.3.4.4h0c.1-.6.3-1.2.5-1.7l.9-1.8.9-1.1c-.3-.1-.6-.2-.9-.4a3.04 3.04 0 0 1-.5.7c-.8 1-1.2 2.2-1.3 3.4v.4c-.2-.2-.3-.4-.4-.6.2-1.2.5-2.3 1.2-3.2.2-.3.4-.5.6-.8-.3-.1-.6-.2-.9-.4l-.3.6c-.6.9-1 1.9-1.1 2.9-.1-.3-.3-.5-.4-.8.2-.8.5-1.6 1-2.2.2-.3.3-.5.4-.7l-.6-.3-.3.3c-.3.3-.6.6-.8.9zm18.3 5.4h-.7c-.2 0-.4-.1-.7-.1h-.1c-.5-.1-.9-.1-1.4-.1h-.5c-.3 0-.6-.1-.9-.2 0 .1-.1.2-.2.3-.5 1-1.1 2-1.9 2.8h.9c.7-.6 1.4-1.2 1.8-2 .2-.3.3-.6.3-.9h.4l-.3.9c-.4.8-1 1.4-1.7 2h.4c.7 0 1.4-.1 2-.2 0-.1 0-.1.1-.2.4-.8.7-1.6.9-2.4h.1c-.1.9-.3 1.7-.7 2.5.6-.1 1.1-.3 1.6-.5h.1c.3-.6.4-1.2.5-1.9h0c.1.6 0 1.2-.1 1.8.4-.2.8-.4 1-.6h0c.1-.1.1-.2.2-.3v-.1c.3-.6-.3-.7-1.1-.8h0z"/></g><g class="Z"><path d="M113.1 90.6h0c.7-.6 1.3-1.2 1.7-2 .1-.3.3-.6.3-.9h-.4l-.3.9c-.4.9-1.1 1.5-1.8 2h.5zm-1.9-.3h0c.1.1.2.1.4.1h0c.8-.8 1.4-1.7 1.9-2.8 0-.1.1-.2.2-.3h0c-.1 0-.2-.1-.3-.1h0c-.1.1-.1.2-.2.4-.5 1.1-1.2 2-2 2.7zm.2-1.9c.4-.4.8-.9 1-1.4-.1-.1-.2-.1-.3-.2-.3.5-.6 1-1 1.4-.5.5-1.1 1-1.7 1.3-.4.3-.9.5-1.4.7 0 0-.1 0-.1.1.3 0 .5 0 .8.1 0 0 .1 0 .1-.1.3-.1.6-.3.8-.4a11.92 11.92 0 0 0 1.8-1.5zm-7.1-5.1c-.5.6-.8 1.4-1.1 2.2-.3.7-.5 1.4-.5 2.2v.6c.1.1.3.2.4.3h0c0-1 .1-2 .4-2.9.3-.7.6-1.5 1-2.1.1-.2.3-.4.5-.6-.1 0-.2-.1-.3-.1-.2.1-.3.3-.4.4z"/><path d="M103 83.8c-.4.6-.7 1.2-.9 1.8-.2.5-.4 1.1-.5 1.7h0c.1.2.3.3.4.5h0v-.3c.1-.6.3-1.3.5-1.9.2-.5.5-1.1.9-1.6l.9-1.1c-.1 0-.2-.1-.3-.1a2.41 2.41 0 0 0-1 1zm-1-.9c-.7.9-1.1 2.1-1.2 3.2.1.2.3.4.4.6v-.4c.1-1.2.6-2.4 1.3-3.4.2-.2.3-.4.5-.7-.1 0-.3-.1-.4-.1-.2.3-.4.6-.6.8zm-2.1 1.7c.1.3.2.5.4.8.1-1.1.5-2.1 1.1-2.9l.3-.6c-.2-.1-.3-.1-.5-.2-.1.2-.2.5-.4.7-.4.6-.7 1.4-.9 2.2zm-.1-2.9l-.3.3v.6a2.36 2.36 0 0 1 .8-.9l.3-.3c-.1-.1-.2-.1-.3-.2h0l-.5.5zm5.1 3c-.2.6-.3 1.2-.3 1.9 0 .6 0 1.1.3 1.7.1.2.3.4.5.5.3.2.6.2.8.2.1 0 .1-.1 0-.1-1.2-.3-1.5-1.7-1.5-2.8 0-1 .7-2 1.1-2.9-.1 0-.2-.1-.3-.1-.1.6-.4 1.1-.6 1.6zm.3 5.1c.2 0 .4-.1.7-.2.4-.1.7-.1 1-.3.6-.2 1.2-.5 1.7-.8s.9-.7 1.3-1.3c.2-.3.4-.6.5-.9l.3-.6s0-.1-.1-.2h0l-.3.6c-.1.2-.3.4-.4.7-.3.6-.8 1-1.3 1.4-1.1.7-2.4.9-3.7 1.3l-.1.1c.1 0 .1.1.2.1h0c.1 0 .1.1.2.1h0z"/><path d="M106.7 87.3c.5 0 .8-.4 1-.8.4-.7.6-2.2-.5-2.4h0c-.4-.1-1 .3-1.2.6-.5.5-.9 1.5-.4 2.2.3.4.7.4 1.1.4zm-.5-2.3c.2-.3.6-.7 1-.6.6.4.4 1.3.2 1.9-.1.3-.4.6-.7.8-.2.2-.8-.2-.9-.4-.3-.5.1-1.3.4-1.7zm.7.9c.1-.1.3-.5.2-.6v-.1s0-.1-.1-.1c-.2 0-.5.1-.6.3-.1.1-.2.4-.1.5.2.3.5.1.6 0zm-.3-.4c.1-.1.1-.1.2-.1v.3c0 .1-.3.2-.3.1s.1-.2.1-.3zm2.8-.1c0-.1-.1-.1-.1-.2-.2-.1-.5 0-.7.2-.5.4-.4 1.3 0 1.6.8.6 1.6-1.2.8-1.6zm-.7.3c.1-.1.2-.3.4-.3.1 0 .2.1.2.2h.1c0-.1.1-.1.1-.2.1.2.1.5 0 .7s-.3.6-.6.6c-.2-.1-.3-.3-.3-.4-.1-.1 0-.4.1-.6z"/><path d="M109.2 86.4c.1-.1.2-.4 0-.5h-.1c-.1 0-.1 0-.1.1v.4c0 .1.1.1.2 0zm7.4 1.4h0l-1 2.4c0 .1 0 .1-.1.2.1 0 .2 0 .3-.1.5-.8.7-1.6.8-2.5zm1.4.1h-.2l-.3 1.9c.1 0 .1 0 .2-.1.2-.6.3-1.2.3-1.8z"/></g><path d="M109.4 84.7c0-.1.1-.1.1-.2l.1-.1c-.1 0-.2-.1-.4-.1-.2.2-.5.3-.8 0-.1-.1-.1-.1-.1-.2-.2 0-.3-.1-.5-.1-.2.8 1.2 1.3 1.6.7z" class="T"/><path d="M108.3 84.2c.3.4.7.3.8 0l-.9-.3c.1.2.1.3.1.3z" class="a"/><path d="M99.5 80.9c0 .1.1.1.2.1s.2.1.4.1h.2c-.3-.2-.6-.3-.8-.5v.3z" class="T"/><path d="M122.3 74c-.1-.1-.3-.1-.4-.2l.1-.1.3.3zm1.4.2h0c.6 0 1.2-.1 1.8-.2.1 0 .2 0 .3-.1.7-.1 1.3-.3 2-.5l2.1.3c-1.2.6-2.6 1.1-3.9 1.2-.8 0-1.5-.2-2.2-.4-.6-.1-1-.4-1.5-.6.3.2.8.2 1.2.2.1.1.2.1.2.1z" class="U"/><path d="M128.2 73.3c.1 0 .1.1 0 0 .2-.1.4-.1.5-.2h0c.1 0 .1-.1.2-.1l.6-.3c.2-.1.3-.1.5-.2h.1l2.1-.9h.1c.2-.1.5-.2.7-.3h-.1s.1 0 .1-.1c.8-.4 1.5-.8 2.2-1.4h.1l.1-.1c.1 0 .3.1.4.1.3.1.6.2.8.2h0c-.3.2-.7.5-1.1.7l-4.9 2.6c-.2.2-.5.3-.7.4l-2.1-.3c.2 0 .3 0 .4-.1z" class="V"/><path d="M139.8 62.9c.1 1.7-.1 3.1-.9 4.6-.5 1-1.3 1.8-2.3 2.5h0c-.3 0-.5-.1-.8-.2-.1 0-.3-.1-.4-.1h0l.2-.2c.5-.4.9-1 1.3-1.5h0c.1-.2.2-.3.3-.5h0c.1-.2.3-.5.4-.8h0c.1-.2.2-.4.2-.6h0c.1-.2.1-.4.2-.5.1-.3.1-.5.2-.7.1-.3.1-.6.1-.9s.1-.6.1-.9v-.6c0-.5-.2-.9-.3-1.4-.1-.2-.1-.4-.2-.6 0-.1-.1-.2-.1-.4-.1-.2-.2-.4-.3-.7 0-.1 0-.1-.1-.2.2-.2.3-.4.4-.5 1.2 1.1 1.9 2.8 2 4.2z" class="W"/><path d="M129.6 66.5c-.1.1-.2.2-.3.4-.2.2-.3.5-.4.8v.1c0 .1-.1.2-.1.2h0c-.1.1-.1.3-.2.4-.1.3-.3.6-.6.9l-.2.2c-.2.3-.5.5-.8.7 0 0-.1 0-.1.1h0c-.1.1-.2.1-.3.2h0l-.8.5c-.1.1-.2.1-.3.2h-.1l-1.3.6h-.1l-.6.3c-.1.1-.3.1-.5.2 0 0-.1 0-.1.1h-.1c-.1 0-.1 0-.2.1-.1 0-.2 0-.3-.1.2-.2.4-.3.7-.4.7-1.2 2.4-1.9 6.4-5.8h.1c.2.2.2.3.2.3z" class="X"/><g class="Y"><path d="M132.4 66.6c-.1 0-.1-.1-.1-.2v-.1c.1 0 .2 0 .3.1.1 0 .2.1.2.2-.1.1-.4 0-.4 0zm-1.4 1.3c0-.2-.2-.4-.4-.6-.1-.1-.3-.2-.5-.1-.1 0-.1.2-.1.3h0c-.1 0-.1-.1-.1-.2 0 .2 0 .5.2.7.1.2.5.5.8.3.1 0 .1-.3.1-.4zm-.4.1c0 .1-.1.2-.2.1s-.4-.3-.2-.5h.1s.1-.1.2 0 .1.2.1.4zm-1.4.4c.2.2.5.5.8.7.5.4 1 .6 1.6.7.6.2 1.3.2 1.9.2.4 0 .7-.1 1.1-.1.2 0 .5 0 .7-.1-.7.6-1.4 1-2.2 1.4 0 0-.1 0-.1.1-.5 0-1.1-.1-1.6-.2a8.3 8.3 0 0 1-2.1-.6c-.5-.3-1-.6-1.4-1l-.2.2c.4.4.9.7 1.5 1 .7.3 1.5.6 2.3.7.3.1.6.1.9.1l-2.1.9h-.1c-.1 0-.1 0-.2-.1-1-.5-2-1.1-2.8-1.8l-.3-.3s.1 0 .1-.1c.3-.2.5-.4.8-.7l.2-.2c.3-.3.5-.6.6-.9.1-.1.1-.3.2-.4.1.3.3.4.4.5z"/><path d="M133.1 63.4c-.1.1-.3.2-.5.4l1.2 1.2c.4.5.7 1.1.9 1.6.2.6.4 1.1.3 1.7 0 .3-.1.5-.3.7-.2.3-.5.4-.7.5 0 0-.1 0-.1-.1 1-.7.8-2.1.4-3.1s-1.3-1.6-2.1-2.3l-1.6 1.2c.5.8-.6 1.8-1.2 1.3-.1.1-.2.2-.3.4-.2.2-.3.5-.4.8v.1c.2.1.3.3.5.4s.4.3.6.5c.5.4 1.1.7 1.7.8 1.3.3 2.5 0 3.9-.1 0 0 .1 0 .1.1h0c.5-.4.9-1 1.3-1.5-.3-.9-.8-1.8-1.4-2.6-.5-.6-1.1-1.2-1.7-1.6-.1-.2-.3-.3-.6-.4zm-1.9 5.1c-.5.8-1.9-.6-1.3-1.3 0-.1 0-.1.1-.2.2-.2.5-.1.7-.1.5.3.8 1.1.5 1.6zm2.8-1.2c-.1.5-.5.6-.9.7-.5.1-.9 0-1.2-.4-.6-.5-1.3-1.8-.4-2.4h0c.3-.3 1 0 1.4.1.5.4 1.3 1.2 1.1 2z"/><path d="M133.6 67.1c.2-.6-.5-1.1-.9-1.4-.3-.2-.8-.4-1.2-.2-.4.6.1 1.4.5 1.8.2.2.6.5.9.5.3.1.7-.4.7-.7zm-.7-.4c0 .3-.4.2-.6.2-.2-.1-.4-.3-.4-.5h0v-.1c.2-.1.5-.1.6 0 .3 0 .5.2.4.4zm2.1-3.1l1.4 1.2c.4.5.9 1 1.1 1.6 0 .1.1.2.1.3-.1.2-.2.5-.4.8h0c-.1-.2-.1-.3-.2-.5-.3-.7-.8-1.3-1.3-1.9s-1.2-1.2-1.8-1.6c-.2-.1-.3-.2-.5-.3l.3-.3c.5.3.9.4 1.3.7z"/><path d="M138 61l.1.1c-.1-.2-.1-.4-.2-.6-.1-.1-.3-.1-.4-.2-.2-.1-.5-.2-.6-.3.1 0 .1-.1.2-.1.1-.1.2-.2.3-.2s.1-.1.2-.2c.1.2.2.4.3.7 0 .1.1.2.1.4.1.2.1.4.2.6.2.4.3.9.3 1.4v.6c0 .3 0 .6-.1.9 0 .3-.1.6-.1.9s-.1.5-.2.7-.1.3-.2.5h0c-.3-.5-.7-1-1-1.4-.5-.5-1-.9-1.5-1.3-.4-.3-.8-.5-1.3-.7.3-.2.5-.4.8-.7.2.2.4.3.7.5 1.1.6 1.9 1.6 2.4 2.7 0 .1.1.3.1.4.1-.3.1-.5.2-.7-.6-1-1.3-2-2.3-2.6-.3-.2-.6-.3-.8-.5.2-.2.5-.4.7-.6.1.2.3.3.5.5a6.11 6.11 0 0 1 2.1 2.4c0-.3.1-.6.1-.9-.5-.7-1-1.3-1.7-1.8-.3-.2-.4-.4-.6-.6l.5-.5a.76.76 0 0 0 .4.2c.2.1.5.2.8.4zm-15.2 11.5h0c.3-.2.5-.3.6-.3l.6-.3h.1l1.3-.6h.1c.1 0 .2-.1.3-.2.3-.1.5-.3.8-.5l.3.3c.8.8 1.7 1.4 2.8 1.9l-.6.3c-.1 0-.1.1-.2.1h0c-.9-.3-1.7-.6-2.4-1.3-.2-.2-.4-.5-.6-.7-.1.1-.2.1-.3.2.2.3.4.5.7.8.7.6 1.4 1 2.2 1.3-.1.1-.3.1-.4.1-.6.2-1.3.4-2 .5-.1 0-.1-.1-.1-.1-.6-.6-1.2-1.2-1.7-1.9h-.1c.4.8.9 1.5 1.6 2.1-.6.1-1.1.1-1.7.1h-.1c-.6-.6-.9-1.2-1.2-1.8 0 .1-.1.1 0 0 .1.7.4 1.2.7 1.7-.4 0-.8-.1-1.2-.2h0c-.1-.1-.2-.1-.3-.2l-.1-.1c-.5-.4 0-.8.6-1.1.1 0 .2 0 .3-.1 0 .1 0 0 0 0z"/></g><g class="Z"><path d="M128.3 73.4s0-.1 0 0c-.8-.3-1.6-.7-2.3-1.3-.3-.2-.5-.5-.7-.8.1 0 .2-.1.3-.2.2.3.4.5.6.7.7.7 1.6 1 2.4 1.3h0c0 .1-.2.2-.3.3zm1.6-.9s.1.1.2.1h0c-.2.1-.3.1-.5.2h0a12.59 12.59 0 0 1-2.8-1.9l-.3-.3c.1-.1.2-.1.3-.2h0l.3.3c.9.7 1.8 1.3 2.8 1.8zm-.8-1.7l-1.5-1 .2-.2c.4.4.9.7 1.4 1a8.3 8.3 0 0 0 2.1.6c.5.1 1 .2 1.6.2h.1c-.2.1-.5.2-.7.3h-.1c-.3 0-.6-.1-.9-.1-.7-.3-1.5-.5-2.2-.8zm4.8-7.3c.7.4 1.3 1 1.8 1.6s1 1.2 1.3 1.9c.1.2.1.3.2.5h0c-.1.2-.2.3-.3.5h0c-.3-.9-.8-1.8-1.4-2.6-.5-.6-1.1-1.2-1.7-1.6-.2-.1-.5-.2-.7-.3.1-.1.2-.1.3-.2.2 0 .4.1.5.2zm1.4-.1c.5.4 1.1.8 1.5 1.3.4.4.7.9 1 1.4h0c-.1.2-.2.4-.2.6h0c0-.1-.1-.2-.1-.3-.3-.6-.7-1.1-1.1-1.6-.4-.4-.9-.8-1.4-1.2-.4-.3-.8-.5-1.2-.7.1-.1.2-.2.3-.2.4.2.8.4 1.2.7zm.6-1.1c1 .6 1.7 1.6 2.3 2.6 0 .3-.1.5-.2.7-.1-.1-.1-.3-.1-.4-.6-1.1-1.4-2.1-2.4-2.7a3.04 3.04 0 0 1-.7-.5l.3-.3c.3.3.5.4.8.6zm2.6.8c0 .3 0 .6-.1.9-.5-1-1.2-1.7-2.1-2.4-.2-.2-.4-.3-.5-.5.1-.1.3-.2.4-.4.2.2.3.4.6.6.6.5 1.2 1.1 1.7 1.8zm-1-2.8c.1.1.3.1.4.2.1.2.1.4.2.6l-.1-.1c-.3-.2-.7-.3-1-.5a.76.76 0 0 1-.4-.2c.1-.1.2-.2.2-.3h0c.2.2.5.2.7.3z"/><path d="M133.9 65c.4.5.7 1.1.9 1.6.2.6.4 1.1.3 1.7 0 .3-.1.5-.3.7-.2.3-.5.4-.7.5 0 0-.1 0-.1-.1 1-.7.8-2.1.4-3.1s-1.3-1.6-2.1-2.3c.1-.1.2-.1.3-.2.5.4.9.8 1.3 1.2zm1.4 4.8c-.2 0-.5 0-.7.1-.4 0-.7.1-1.1.1-.7.1-1.3 0-1.9-.2-.6-.1-1.1-.4-1.6-.7-.3-.2-.5-.4-.8-.7-.2-.1-.3-.3-.5-.4h0c0-.1.1-.2.1-.2h0c.2.1.3.3.5.4s.4.3.6.5c.5.4 1.1.7 1.7.8 1.3.3 2.5 0 3.9-.1 0 0 .1 0 .1.1h0l-.2.2c0 .1 0 .1-.1.1h0zm-1.3-2.5c.2-.8-.6-1.6-1.2-1.9-.3-.2-1-.4-1.4-.1h0c-.9.6-.2 1.9.4 2.4.4.3.7.5 1.2.4.5-.2.8-.4 1-.8zm-.4-.2c-.1.3-.4.8-.7.7s-.7-.3-.9-.5c-.4-.4-.8-1.2-.5-1.8.3-.2.9 0 1.2.2.5.3 1.1.9.9 1.4zm-.7-.4a.55.55 0 0 0-.3-.5c-.2-.1-.4-.1-.6 0v.1c0 .2.2.5.4.5.1.1.5.1.5-.1zm-.2-.1c0 .1-.3.1-.3 0-.1 0-.1-.1-.1-.2v-.1c.1 0 .2 0 .3.1 0 0 .1.1.1.2zm-1.5 1.9c.3-.5 0-1.3-.5-1.5-.2-.1-.5-.1-.7.1 0 .1-.1.1-.1.2-.6.6.8 2 1.3 1.2zm-.2-.6c0 .1 0 .4-.1.5-.3.2-.6-.1-.8-.3s-.3-.5-.2-.7c0 .1.1.1.1.2h0c0-.1 0-.3.1-.3.1-.1.3 0 .5.1.2 0 .4.2.4.5z"/><path d="M130.5 68.1c-.1-.1-.4-.3-.2-.5h.1s.1-.1.2 0 .1.3.1.4-.2.1-.2.1zM124 72s0-.1 0 0c.5.7 1.1 1.3 1.8 1.9.1 0 .1.1.1.1-.1 0-.2 0-.3.1-.7-.6-1.2-1.3-1.6-2.1zm-1.3.6h0c.4.5.7 1 1 1.6h-.2c-.3-.5-.6-1-.8-1.6z"/></g><path d="M129.6 66.5l-.1-.1h-.1c.1-.1.2-.2.3-.2.2.2.6.1.8-.3v-.2c.1-.1.3-.2.4-.3.5.6-.6 1.6-1.3 1.1z" class="T"/><path d="M130.5 65.8c-.1.5-.5.5-.8.3.3-.2.5-.4.8-.6v.3z" class="a"/><path d="M137.5 59.5c0 .1-.1.2-.2.2-.1.1-.2.2-.3.2-.1.1-.1.1-.2.1h0c.2-.2.4-.5.6-.7.1.1.1.1.1.2z" class="T"/><path d="M275.7 93c0-.1-.2-.2-.3-.4h.1v.1c.1 0 .2.2.2.3zm1.2.9h0c.5.3 1.1.5 1.7.7.1 0 .2.1.3.1.7.3 1.3.4 2 .5.6.4 1.1.9 1.7 1.3-1.3-.1-2.8-.3-4-.9-.7-.4-1.2-.9-1.7-1.4-.5-.4-.7-.8-1-1.3.2.3.6.6.9.8-.1.1 0 .2.1.2z" class="U"/><path d="M281.3 95.3h0c.2 0 .4.1.5.1h.9c.2 0 .3.1.5.1h.1l2.3.2h.1c.2 0 .5.1.8.1h-.1.1l2.6-.1h.2c.1 0 .2.2.3.3.2.2.4.5.6.6h0c-.4 0-.9.1-1.3.1-1.9 0-3.7-.1-5.5-.1-.3.1-.6 0-.8 0-.6-.4-1.1-.9-1.7-1.3h.4z" class="V"/><path d="M296.5 91.9c-.7 1.5-1.6 2.7-3 3.6-.9.6-2 .9-3.2 1.1h0c-.3-.1-.4-.3-.6-.6-.1 0-.2-.2-.3-.3h0c.1 0 .1 0 .3-.1h0c.6-.1 1.3-.4 1.9-.7h0c.2-.1.3-.2.5-.3h0a3.04 3.04 0 0 0 .7-.5h0c.2-.1.4-.3.5-.4h0c.2-.1.3-.3.4-.3.2-.2.3-.4.5-.5a3.04 3.04 0 0 0 .5-.7c.1-.3.4-.5.5-.7s.2-.3.3-.5c.2-.4.3-.9.4-1.4 0-.2.1-.4.1-.6 0-.1 0-.2.1-.4 0-.2 0-.4.1-.8v-.2c.3-.1.5-.2.6-.2.4 1.4.3 3.3-.3 4.5z" class="W"/><path d="M285.8 90.1c-.1 0-.3.1-.5.2-.3.1-.5.3-.7.5v.1c0 .1-.2.1-.2.1h0c-.1 0-.2.2-.4.3-.2.2-.6.4-1 .5-.1 0-.3.1-.3.1-.3.2-.7.2-1 .2h-1.9c-.4 0-.9 0-1.4-.1h-.8c-.1 0-.3-.1-.5-.1h-.4c-.1 0-.2-.1-.2-.2a1.1 1.1 0 0 1 .8 0c1.2-.7 3-.5 8.4-1.9h.1c0 .1-.1.2 0 .3z" class="X"/><g class="Y"><path d="M288.1 91.5c-.1 0 0-.1 0-.2v-.1c.1 0 .2.1.2.2.1 0 .1.2.1.3 0 0-.2-.2-.3-.2zm-1.8.4c.1-.2 0-.4-.1-.7 0-.1-.2-.3-.4-.3-.1 0-.2.1-.2.2h0c-.1 0 0-.1 0-.2-.1.2-.2.4-.2.7 0 .2.2.7.6.7.1-.1.2-.3.3-.4zm-.3-.1c0 .1-.2.1-.2 0s-.2-.5.1-.5h.1s.1 0 .2.1c-.2.2-.1.3-.2.4zm-1.4-.3c.1.3.2.7.4 1 .2.6.6 1 1.1 1.4.4.5 1 .8 1.6 1.1.3.2.7.3 1 .5.2.1.4.2.7.3-.9.2-1.7.2-2.6.1h-.1c-.4-.2-.9-.6-1.3-1-.6-.4-1.1-.9-1.5-1.5-.3-.5-.6-1-.7-1.6-.1 0-.3.1-.3.1.2.5.4 1.1.8 1.6.5.6 1 1.3 1.7 1.7a3.04 3.04 0 0 0 .7.5l-2.3-.2h-.1c-.1 0-.1 0-.1-.2-.6-.9-1.2-1.9-1.6-2.9 0-.1-.1-.3-.1-.4h.1c.4 0 .6-.1 1-.2.1 0 .3-.1.3-.1.4-.1.7-.3 1-.5.1 0 .2-.2.4-.3-.4.3-.3.5-.1.6z"/><path d="M290.4 89.1c-.1 0-.4 0-.6.1.2.5.3 1.1.5 1.6.1.6.1 1.3 0 1.8-.1.6-.2 1.2-.6 1.6-.1.3-.3.4-.6.5-.3.2-.6.1-.9.1 0 0-.1 0 0-.1 1.2-.1 1.7-1.4 1.9-2.5s-.4-2-.7-3l-2 .3c0 .9-1.4 1.3-1.7.5-.1 0-.3.1-.5.2-.3.1-.5.3-.7.5v.1c.1.2.1.4.2.6s.2.5.3.7c.2.6.6 1.1 1.1 1.5 1 .9 2.2 1.2 3.5 1.8 0 0 .1 0 0 .1h0c.6-.1 1.3-.4 1.9-.7.2-.9.2-2 0-3-.1-.8-.4-1.6-.7-2.2-.1-.1-.3-.3-.4-.5zm-4.2 3.5c-.8.5-1.4-1.5-.5-1.8 0-.1 0-.1.2-.1.3-.1.5.2.7.3.2.3.1 1.2-.4 1.6zm3 .3c-.3.4-.7.3-1.1.2-.5-.2-.8-.4-.9-.9-.3-.7-.3-2.2.8-2.3h0c.4-.1.9.5 1.2.8.3.5.6 1.6 0 2.2z"/><path d="M289 92.6c.5-.4.1-1.2-.1-1.7-.2-.3-.5-.7-.9-.8-.6.3-.6 1.3-.4 1.8.1.3.3.7.5.9.1.2.7 0 .9-.2zm-.3-.8c-.1.3-.4 0-.6-.1-.1-.2-.2-.5-.1-.6h0V91c.2 0 .5.2.5.3.1.1.3.3.2.5zm3.2-1.7c.2.6.5 1.2.6 1.7.1.6.3 1.3.2 1.9 0 .1 0 .2-.1.3-.2.1-.4.3-.7.5h0c0-.2.1-.3.1-.5.1-.8-.1-1.5-.2-2.3s-.5-1.6-.8-2.3c-.1-.2-.2-.3-.3-.5.1 0 .3-.1.4-.1l.8 1.3zm3.9-.8v.1c0-.2.1-.4.1-.6 0-.1-.2-.2-.3-.4s-.3-.4-.4-.6h.2c.1 0 .3-.1.4 0 .1 0 .1 0 .3-.1 0 .2 0 .4-.1.8 0 .1 0 .2-.1.4 0 .2-.1.4-.1.6 0 .4-.2.9-.4 1.4-.1.2-.2.3-.3.5-.1.3-.3.5-.5.7-.1.3-.4.5-.5.7-.1.3-.3.4-.5.5s-.2.2-.4.3h0c0-.6-.1-1.2-.2-1.7-.2-.7-.4-1.3-.7-1.9-.2-.5-.5-.8-.8-1.2.4 0 .6-.1 1-.2.1.3.2.5.4.8.7 1.1.9 2.3.8 3.5 0 .1-.1.3-.1.4.2-.2.3-.4.5-.5 0-1.2-.2-2.4-.7-3.4l-.5-.8c.3-.1.6-.1.9-.2 0 .2.1.4.2.7.5 1 .7 2 .7 3.1.1-.3.4-.5.5-.7-.1-.9-.2-1.6-.6-2.4-.2-.3-.2-.5-.2-.8l.7-.2c0 .1.2.3.3.4 0 .2.2.5.4.8zm-18.9 2.6h.1c.2 0 .4 0 .5.1h.8c.4 0 .9 0 1.4.1h.5c.3.1.6 0 .9 0 0 .1.1.3.1.4a8.47 8.47 0 0 0 1.5 3h-.9c-.6-.7-1.2-1.4-1.5-2.3-.1-.3-.1-.6-.2-.9h-.4c0 .4.1.6.2 1 .3.9.7 1.6 1.3 2.2-.1 0-.3-.1-.4-.1-.6-.1-1.3-.3-2-.5-.1 0 0-.1 0-.1-.2-.8-.5-1.6-.6-2.5h-.1c0 .9.1 1.7.4 2.6-.6-.2-1-.5-1.5-.7h-.1c.1-1-.1-1.6 0-2.3 0 .1-.1 0-.1 0-.1.6-.1 1.2-.1 1.8-.3-.2-.6-.5-.9-.8h0c0-.1-.1-.2-.2-.3v-.1c-.2-.6.4-.7 1.1-.7 0 .2 0 .2.2.1h0z"/></g><g class="Z"><path d="M281.3 95.3h0c-.6-.7-1.1-1.4-1.4-2.3-.2-.3-.2-.7-.2-1h.4c0 .4.1.6.2.9.3 1 .9 1.7 1.5 2.3h0c-.2.2-.3.2-.5.1zm1.8.1s0 .1.1.2h0c-.2 0-.3-.1-.5-.1h0a14.02 14.02 0 0 1-1.5-3c0-.1-.1-.3-.1-.4h.4c0 .1.1.3.1.4.4 1 .9 2 1.5 2.9zm.2-1.9c-.3-.5-.6-1-.8-1.6.1 0 .3-.1.3-.1.2.5.4 1.1.7 1.6.5.6 1 1.1 1.5 1.5.4.3.8.7 1.3 1h.1c-.2 0-.5-.1-.8-.1h-.1c-.3-.1-.5-.4-.7-.5l-1.5-1.8zm7.7-3.9c.4.7.6 1.5.8 2.3.1.8.3 1.5.2 2.3 0 .2-.1.3-.1.5h0c-.2.1-.3.2-.5.3h0c.2-.9.2-2 0-3-.1-.8-.4-1.6-.7-2.2-.1-.2-.3-.4-.5-.6h.4c.2 0 .3.2.4.4zm1.2.5c.2.6.6 1.2.7 1.9.2.5.2 1.1.2 1.7h0c-.2.1-.4.3-.5.4h0c0-.1 0-.2.1-.3 0-.7-.1-1.3-.2-1.9l-.6-1.7c-.2-.5-.5-.8-.7-1.2.1 0 .3-.1.4 0 .2.3.4.7.6 1.1zm1.1-.6c.6 1 .7 2.2.7 3.4-.1.3-.3.4-.5.5 0-.1.1-.3.1-.4 0-1.3-.2-2.5-.8-3.5-.1-.2-.3-.5-.4-.8.1 0 .3-.1.4-.1.3.3.4.6.5.9zm1.9 1.9c-.1.3-.3.5-.5.7.1-1.1-.2-2.1-.7-3.1-.1-.3-.2-.5-.2-.7.1 0 .4 0 .5-.2.1.3.1.5.2.8.3.8.6 1.7.7 2.5zm.5-2.9c0 .1.2.2.3.4 0 .2-.1.4-.1.6v-.1c-.2-.3-.5-.6-.6-.9-.1 0-.2-.2-.3-.4.1 0 .3-.1.3-.2h0c.1.2.3.5.4.6zm-5.5 2.3c.1.6.1 1.3 0 1.8-.1.6-.2 1.2-.6 1.6-.1.3-.3.4-.6.5-.3.2-.6.1-.9.1 0 0-.1 0 0-.1 1.2-.1 1.7-1.4 1.9-2.5s-.4-2-.7-3h.4a9.83 9.83 0 0 1 .5 1.6zm-1 5c-.2-.1-.4-.2-.7-.3-.3-.2-.7-.3-1-.5-.7-.3-1.1-.6-1.6-1.1-.5-.4-.8-.9-1.1-1.4-.2-.3-.2-.6-.4-1-.1-.2-.1-.4-.2-.6h0c0-.1.2-.1.2-.1h0c.1.2.1.4.2.6s.2.5.3.7c.2.6.6 1.1 1.1 1.5 1 .9 2.2 1.2 3.5 1.8 0 0 .1 0 0 .1h0c-.1 0-.1 0-.3.1h0c.1.1 0 .2 0 .2h0zm0-2.9c.6-.6.3-1.7-.1-2.2-.2-.3-.7-.8-1.2-.8h0c-1.1.1-1.1 1.6-.8 2.3.2.5.4.8.9.9s.9.1 1.2-.2zm-.2-.3c-.2.2-.7.5-1 .3-.2-.2-.5-.6-.5-.9-.2-.5-.1-1.4.4-1.8.4 0 .8.4.9.8.3.4.6 1.1.2 1.6z"/><path d="M288.7 91.8c.1-.2.1-.4 0-.6a.55.55 0 0 0-.5-.3v.1c-.1.2-.1.5.1.6-.1.3.1.4.4.2zm-.2-.1c0 .1-.3-.1-.3-.1-.1 0 0-.1 0-.2v-.1c.1 0 .2.1.2.2 0-.1 0 .1.1.2zm-2.3.9c.5-.3.6-1.1.3-1.6-.1-.2-.4-.3-.7-.3 0 .1-.1 0-.2.1-.8.3-.2 2.1.6 1.8zm.1-.7c0 .1-.2.3-.3.4-.4 0-.5-.4-.6-.7s0-.6.2-.7v.2c0-.1.1-.3.2-.2.1 0 .3.1.4.3.2.3.2.5.1.7z"/><path d="M285.7 91.9c0-.1-.2-.5.1-.5h.1s.1 0 .2.1-.1.3-.1.4h-.3zm-7.5.2h0c.1.9.3 1.7.6 2.5.1 0 0 .1 0 .1-.1 0-.2-.1-.3-.1-.3-.8-.3-1.7-.3-2.5zm-1.5-.1h.1v1.9c-.1 0-.1 0-.2-.1 0-.6.1-1.1.1-1.8z"/></g><path d="M285.8 90.1V90h-.1c.1 0 .3-.1.4 0 .1.3.5.4.8.1 0-.1.1-.2.1-.2.1 0 .4 0 .5-.1.1.7-1.4 1-1.7.3z" class="T"/><path d="M286.9 89.8a.43.43 0 0 1-.8-.1c.4 0 .6-.1 1-.1l-.2.2z" class="a"/><path d="M296.1 87.8c0 .1-.2.1-.3.1s-.3.1-.4 0h-.2l.9-.3c.1 0 .1.2 0 .2z" class="T"/><path d="M195.8 46.8c0 .1-.1.2-.2.3h.1V47c.1 0 .1-.1.1-.2zm.7-.9h0l1.1-.9c.1-.1.1-.1.2-.1.4-.3.9-.5 1.4-.8l1-1.3c-1 .3-2 .7-2.8 1.4-.4.4-.7.9-1 1.4-.3.4-.4.8-.5 1.1.1-.3.3-.5.5-.8 0 .1 0 0 .1 0z" class="U"/><path d="M199.4 44h0c.1-.1.3-.1.4-.2h0c.1 0 .1 0 .2-.1.2-.1.3-.1.5-.2h0c.1-.1.2-.1.4-.1h.1l1.7-.6.1-.1c.2-.1.4-.1.6-.2 0 0 0 .1-.1.1h.1c.6-.2 1.3-.3 2-.4h.1c0-.1.1-.2.1-.3.1-.2.2-.4.4-.5h0c-.3.1-.6.1-.9.2l-4.1 1.2c-.2 0-.4.1-.6.2a6.42 6.42 0 0 0-1 1.3c-.2-.2-.1-.3 0-.3z" class="V"/><path d="M211.4 43.6c-.8-1-1.7-1.7-2.9-2.1-.8-.3-1.7-.3-2.6-.2h0c-.1.2-.3.3-.4.5 0 .1-.1.2-.1.3h.2c.5 0 1 .1 1.5.2h0c.1 0 .3.1.4.1h0c.2.1.4.1.6.2h0c.1.1.3.1.4.2h0c.1.1.3.1.4.2.2.1.3.2.5.3s.4.3.6.4.3.3.5.5l.3.3.6 1c.1.1.1.3.2.4 0 .1.1.2.1.3.1.2.1.3.2.5l.1.1c.2 0 .4.1.5.1.1-1.2-.4-2.5-1.1-3.3z" class="W"/><path d="M203.9 47h-.4c-.2 0-.5-.1-.7-.2h-.1c-.1 0-.1-.1-.2-.1h0c-.1 0-.2-.1-.3-.1-.3-.1-.5-.2-.8-.2H200c-.2 0-.5.1-.7.2-.1 0-.2 0-.3.1h-.1l-1 .3h-.1c-.2.1-.4.1-.5.1s-.2.1-.4.1h-.3c0 .1-.1.1-.1.2.2 0 .4-.1.6-.1 1 .3 2.4-.2 6.7-.2l.1-.1c0 .1 0 .1 0 0z" class="X"/><g class="Y"><path d="M205.3 45.5v.3c.1 0 .1-.1.1-.2v-.3l-.1.2zm-1.8-.2c-.2 0-.3.4-.3.6a.55.55 0 0 0 .3.5v-.2c.1.1.1.2.2.1.1 0 .2-.2.2-.3 0-.2 0-.4-.1-.5 0 0-.1-.2-.3-.2zm.3.7c0 .1-.1.1 0 0-.1.1-.1.1-.2.1-.2 0-.1-.3-.1-.4s.1-.1.2 0c0 .1 0 .2.1.3zm-1.2.2c0-.3 0-.5.1-.8.1-.5.3-.9.5-1.3.3-.4.6-.8 1-1.1.2-.2.4-.3.7-.5.1-.1.3-.2.4-.3-.7 0-1.3.2-2 .4h-.1c-.3.3-.5.6-.8.9-.3.5-.6 1-.8 1.5a3.08 3.08 0 0 0-.3 1.3h-.3a3.08 3.08 0 0 1 .3-1.3c.2-.6.5-1.1.9-1.6.1-.2.3-.4.4-.6l-1.7.6h-.1v.1c-.3.8-.5 1.6-.6 2.5v.3h1.2c.3 0 .6.1.8.2.1 0 .2.1.3.1.1-.1.1-.2.1-.4z"/><path d="M207.6 46.3c.1-.6.1-1.2.1-1.8-.1-.8-.3-1.5-.6-2.2-.5-.1-1-.2-1.5-.2h0v.1c-.8.7-1.6 1.2-2.2 2-.3.4-.5.9-.5 1.4 0 .2 0 .4-.1.6 0 .2 0 .3-.1.5h.1c.2.1.4.2.7.2h.4c.1-.6 1.2-.7 1.3.1.5-.1 1-.1 1.5-.2 0-.8.2-1.6-.1-2.4s-.9-1.7-1.9-1.5c0 0-.1-.1 0-.1.2-.1.4-.1.7-.1.2.1.3.1.5.2.4.3.6.7.7 1.1.2.5.3.9.4 1.4v1.3h.5c0 0 .1-.2.1-.4zm-3.4 0c-.1.2-.2.4-.4.3-.1 0-.1 0-.2-.1-.7-.1-.6-1.6 0-1.4.5.2.8.8.6 1.2zm2-.3c-.1.3-.4.8-.7.8h0c-.8.1-1.1-1-1.1-1.6 0-.4.2-.7.5-.8s.6-.3.9-.1c.6.3.6 1.2.4 1.7z"/><path d="M205 44.5c-.1.2-.2.5-.2.8 0 .5.2 1.1.7 1.2.3 0 .5-.5.5-.7.1-.4.2-1-.2-1.3-.2 0-.7-.1-.8 0zm.7 1.1c0 .2-.2.3-.3.4h-.1c-.1-.1-.1-.4-.1-.5.1-.1.3-.3.4-.2.1 0 .1.2.1.3zm2.7.2c.1-.5.1-.9.1-1.4s-.1-1-.2-1.5c-.1-.1-.1-.2-.1-.3-.2-.1-.4-.2-.6-.2h0c.1.1.1.3.2.4.2.6.3 1.1.3 1.7s0 1.3-.1 1.9a.76.76 0 0 1-.2.4h.3c0-.3.2-.6.3-1z"/><path d="M211.4 45.6h0c.1 0 .1.2.2.3 0 .1-.1.2-.1.3s-.2.3-.2.5h.7c-.1-.2-.1-.3-.2-.5 0-.1-.1-.2-.1-.3-.1-.1-.1-.3-.3-.3 0-.4-.2-.8-.5-1.1l-.8-.8c-.2-.1-.4-.3-.6-.4s-.3-.2-.5-.3c-.1-.1-.3-.1-.4-.2h0c.1.5.2.9.2 1.3 0 .5 0 1-.1 1.5l-.3 1.1h.8c0-.2.1-.4.1-.6.2-.9.2-1.9-.1-2.8 0-.1-.1-.2-.1-.3.2.1.3.2.5.3.2.9.3 1.8.1 2.7-.1.2-.1.5-.2.7h.7v-.6c.1-.8.1-1.6-.1-2.4.2.1.3.3.5.5.1.6.1 1.3 0 1.9 0 .2-.1.4 0 .6h.5c0-.1.1-.2.1-.3.1-.2.2-.5.2-.8zm-14.5 1.7h.1c.2-.1.3-.1.4-.1.2 0 .3-.1.5-.1h.1l1-.3h.1c.1 0 .2-.1.3-.1.2-.1.5-.1.7-.2v-.3c0-.9.2-1.7.5-2.5-.2.1-.3.1-.5.2-.1 0-.1 0-.2.1h0c-.3.6-.6 1.3-.7 2v.7c-.1 0-.2 0-.3.1 0-.3-.1-.5 0-.8.1-.7.3-1.3.6-1.9-.1 0-.2.1-.3.1-.5.2-.9.5-1.4.8v.1c0 .7 0 1.3.1 2h-.1c-.2-.7-.3-1.3-.3-2-.4.2-.7.5-1 .8h0c.1.5.2.9.4 1.4h-.1c-.2-.4-.3-.9-.4-1.3-.2.2-.4.5-.5.8h0v.4c-.1.5.4.4.9.3-.1-.1 0-.1.1-.2-.1.1-.1.1 0 0z"/></g><g class="Z"><path d="M199.4 44h0c-.3.6-.5 1.2-.6 1.9v.8c.1 0 .2-.1.3-.1 0-.2-.1-.5 0-.7 0-.7.3-1.4.7-2h0c-.1 0-.2 0-.4.1zm1.4-.4h0-.4c-.3.8-.5 1.6-.5 2.5v.3h.2v-.3c.2-.9.4-1.7.7-2.5zm.5 1.4a3.08 3.08 0 0 0-.3 1.3h.3a3.08 3.08 0 0 1 .3-1.3c.2-.5.5-1 .8-1.5.2-.3.5-.7.8-.9 0 0 0-.1.1-.1-.2.1-.4.1-.6.2l-.1.1c-.2.2-.3.4-.4.6-.4.5-.7 1-.9 1.6zm6.5 1.4c.1-.6.2-1.3.1-1.9 0-.6-.1-1.2-.3-1.7 0-.2-.1-.3-.2-.4h0c-.1 0-.3-.1-.4-.1h0c.3.7.5 1.4.6 2.2 0 .6 0 1.2-.1 1.8 0 .2-.1.4-.2.6h.3c.2-.2.2-.3.2-.5zm.8-.7c.1-.5.1-1 .1-1.5 0-.4 0-.9-.2-1.3h0c-.2-.1-.3-.1-.4-.2h0c0 .1 0 .2.1.3.2.5.2 1 .2 1.5s-.1.9-.1 1.4l-.3 1h.3c.1-.4.3-.8.3-1.2zm1 .3c.2-.9.1-1.8-.1-2.7-.2-.1-.3-.2-.5-.3 0 .1.1.2.1.3.3.9.4 1.9.1 2.8-.1.2-.1.4-.1.6h.3c0-.2.1-.4.2-.7zm1-1.8l-.5-.5c.2.8.2 1.6.1 2.4v.6h.4v-.6c.1-.6.1-1.2 0-1.9z"/><path d="M211.5 46.3c0-.1.1-.2.1-.3-.1-.1-.1-.3-.2-.4v.1l-.3.8c0 .1-.1.2-.1.3h.3c0-.2.1-.4.2-.5zm-4.5-.7c0-.5-.2-1-.4-1.4s-.3-.8-.7-1.1c-.2-.1-.3-.2-.5-.2-.2-.1-.4 0-.7.1v.1c1-.1 1.6.8 1.9 1.5s.1 1.6.1 2.4h.3v-1.4z"/><path d="M205.2 42.2c-.1.1-.3.2-.4.3-.2.2-.4.3-.7.5-.4.3-.7.7-1 1.1s-.4.8-.5 1.3c0 .2-.1.5-.1.8 0 .2 0 .3-.1.5h0c.1 0 .1.1.2.1h0c0-.2 0-.3.1-.5 0-.2.1-.4.1-.6.1-.5.2-.9.5-1.4.6-.9 1.4-1.3 2.2-2v-.1h-.2c0-.1 0-.1-.1 0h0zm-.2 2.2c-.3.2-.5.5-.5.8-.1.6.3 1.7 1.1 1.6h0c.3 0 .6-.5.7-.8.2-.5.2-1.4-.4-1.7-.4-.2-.7-.1-.9.1zm1 1.4c-.1.3-.2.7-.5.7-.5-.1-.7-.8-.7-1.2 0-.3.1-.6.2-.8s.6-.1.8 0c.3.3.3.9.2 1.3z"/><path d="M205.2 45.4c0 .1 0 .4.1.5h.1c.2 0 .3-.2.3-.4 0-.1 0-.3-.1-.4-.2 0-.3.2-.4.3zm.3.2c0 .1-.1.1-.1.2v-.1s-.1-.1 0-.2c0-.1.1-.3.2-.2 0 .1 0 .2-.1.3zm-1.9.9s.1.1.2.1c.2 0 .3-.2.4-.3.2-.4-.1-1-.5-1.1-.7-.2-.8 1.2-.1 1.3zm.4-.4c0 .1-.1.3-.2.3-.1.1-.2 0-.2-.1h0v.2c-.2-.1-.2-.3-.3-.5 0-.2 0-.5.3-.6.1 0 .3.1.3.2.1.1.1.3.1.5z"/><path d="M203.5 45.7c0 .1 0 .3.1.4h.1s.1 0 .1-.1-.1-.2-.1-.3c-.1-.1-.2 0-.2 0zm-5.7 1.3h0c-.1-.7-.1-1.3 0-2v-.1c-.1 0-.1.1-.2.1-.1.7 0 1.4.2 2zm-1.1.4h.1c-.2-.5-.3-.9-.4-1.4l-.1.1c.1.4.3.8.4 1.3z"/></g><path d="M203.9 47v.2l-.1.1h.3c0-.2.3-.4.6-.2.1 0 .1.1.1.1h.4c-.1-.8-1.3-.8-1.3-.2z" class="T"/><path d="M204.7 47c-.3-.2-.5 0-.6.2.2 0 .5-.1.7-.1 0 0 0 0-.1-.1z" class="a"/><path d="M212 46.7h-.7.7c0 .1 0 .1 0 0z" class="T"/><path d="M278.4 46.3c-.1.1-.2.1-.3.1l.1.1c.1 0 .1-.1.2-.2zm1-.4h0c.5-.1.9-.1 1.4-.1h.3c.5 0 1 0 1.5.1a13.14 13.14 0 0 1 1.5-.5c-1-.2-2.1-.5-3.1-.3-.6.1-1.1.4-1.6.7-.4.2-.7.4-1 .7.3-.4.6-.6 1-.6-.1 0 0 0 0 0z" class="U"/><path d="M283 45.8h0c.1 0 .3.1.4 0h0c.1 0 .1 0 .2.1a.9.9 0 0 0 .5.1h0c.1 0 .2.1.4 0h.1l1.8.3h.1c.2.1.4.1.6.1h-.1.1c.6.2 1.3.4 1.8.7h0s.1 0 .1.1c.1 0 .2-.1.3-.1l.6-.3c-.3-.2-.5-.2-.9-.4l-4.1-1.3c-.2-.1-.4-.1-.6-.2a13.14 13.14 0 0 1-1.5.5c0 .5.1.5.2.4z" class="V"/><path d="M293.3 51.9c-.2-1.3-.6-2.3-1.3-3.3-.5-.6-1.3-1.2-2.1-1.5h0c-.2 0-.4.2-.6.3-.1 0-.2.1-.3.1h0c.1 0 .1.1.1.1h0c.4.2.8.6 1.2.9h0c.1.1.2.2.2.3h0c.1.2.3.4.4.5h0c.1.1.1.3.3.4h0c0 .1.1.3.3.4l.3.6c.1.2.2.4.2.7 0 .2.2.5.2.7s0 .3.1.5c.1.4 0 .7 0 1.1 0 .1-.1.3 0 .4 0 .1-.1.2-.1.3-.1.2-.1.3-.1.5v.1c.1.1.2.3.4.3.7-.9 1-2.3.8-3.4z" class="W"/><path d="M285 50.8l-.3-.3c-.1-.2-.4-.3-.5-.5v-.1c0-.1 0-.1-.1-.2h0c-.1-.1-.1-.2-.2-.3-.1-.3-.4-.4-.6-.6l-.2-.2c-.2-.2-.4-.2-.7-.4 0 0-.1 0-.1-.1h0c-.1 0-.1-.1-.2-.1h0c-.2-.1-.4-.1-.6-.2-.1 0-.2-.1-.3-.1h-.1c-.3-.1-.7-.2-1-.2h-.1c-.2-.1-.3-.2-.5-.1-.1 0-.2-.1-.4-.1h-.2s-.1 0-.1-.1c-.1 0-.1 0-.2.1.2.1.4.1.5.2.7.8 2.1 1.1 5.7 3.4h.1c.2 0 .2 0 .1-.1z" class="X"/><g class="Y"><path d="M287.1 50.4s-.1.1-.1.2v.1h.2c.1 0 .2-.1.2-.2 0-.4-.2-.3-.3-.1zm-1.4-1.1c-.2-.1-.5.2-.5.4-.1.2-.1.4 0 .5 0 0 0-.1.1-.1h0c0 .1 0 .2.1.2s.2 0 .3-.1.3-.3.2-.5c-.1-.3-.1-.5-.2-.4zm-.2.6c0 .1-.1 0 0 0h-.2c-.1-.1.1-.3 0-.4.1 0 .2 0 .1.1.2.1.2.2.1.3zm-1.1-.4c.2-.2.3-.5.5-.6.3-.4.7-.6 1.1-.8.5-.2 1-.3 1.5-.4h.8c.2 0 .4-.1.5-.1-.6-.3-1.2-.5-1.8-.7h-.1c-.4.1-.8.2-1.2.4-.5.2-1 .5-1.5.8a4.74 4.74 0 0 0-1 1l-.2-.2c.3-.3.6-.7 1-1 .4-.4 1-.7 1.6-.9.2-.1.5-.2.7-.2l-1.8-.3h-.1s-.1 0-.1.1c-.6.5-1.3 1.1-1.8 1.8l-.2.2s.1 0 .1.1c.2.1.4.2.7.4l.2.2c.2.2.5.3.6.6.1.1.1.2.2.3.2-.5.2-.6.3-.7z"/><path d="M288.6 52.3c.4-.5.8-.9 1.1-1.5.4-.7.6-1.4.7-2.1-.4-.3-.7-.7-1.2-.9h0s-.1 0-.1.1c-1 .2-2 .1-2.9.6-.5.2-.8.5-1.2.9-.2.1-.3.3-.4.5a1.38 1.38 0 0 0-.3.4v.1c.1.2.3.4.5.5l.3.3c.3-.5 1.3.1 1.1.7l1.3.7c.5-.7 1.1-1.3 1.2-2 .2-.8.1-1.9-.8-2.3v-.1c.2.1.4.1.7.3.1.2.2.3.3.5.2.5.1.9 0 1.3-.1.5-.2.9-.5 1.4-.3.3-.5.7-.7 1.1a.76.76 0 0 0 .4.2c.2-.5.4-.6.5-.7zm-2.8-1.9c-.2.1-.4.2-.5.1 0 0-.1-.1-.1-.2-.5-.4.3-1.7.8-1.1.2.2.1.9-.2 1.2zm1.8.8c-.3.2-.7.5-1 .3h0c-.8-.3-.4-1.5-.1-1.9.3-.2.5-.5.8-.4s.6.1.8.4c.4.5 0 1.2-.5 1.6z"/><path d="M287.3 49.3c-.3.1-.5.3-.6.5-.3.3-.4 1.1-.1 1.4.3.2.7-.1.9-.3.3-.2.7-.8.4-1.2 0-.2-.4-.5-.6-.4zm0 1.3c-.1.1-.3.1-.5.1v-.1c0-.2.1-.4.2-.4s.4-.2.4 0c.2.2.1.3-.1.4zm2.2 1.6c.3-.4.6-.7.8-1.1s.5-.9.6-1.3c0-.1.1-.2.1-.3-.1-.2-.3-.4-.4-.5h0c0 .1-.1.3 0 .4-.1.6-.3 1.1-.7 1.6-.3.6-.7 1-1.1 1.5-.1.1-.3.2-.4.3.1.1.2.1.3.2.3-.4.5-.5.8-.8z"/><path d="M292.3 53.7c0-.1 0-.1 0 0v.4c-.1.1-.2.1-.3.2s-.3.2-.4.4c.1 0 .1.1.2.1.1.1.2.1.2.2.1 0 .1.1.1.1.1-.2.1-.3.1-.5 0-.1.1-.2.1-.3v-.6c.1-.4.2-.8.1-1.1 0-.2 0-.3-.1-.5 0-.2-.1-.5-.2-.7 0-.2-.2-.4-.2-.7 0-.2-.2-.4-.3-.6 0-.1-.1-.3-.3-.4h0c-.1.4-.4.9-.6 1.2-.2.4-.6.8-.9 1.3-.3.2-.5.5-.9.7.2.2.4.2.7.4.2-.1.3-.3.4-.5.7-.6 1.2-1.5 1.4-2.4 0-.1.1-.2.1-.3l.3.6c-.3.9-.7 1.6-1.4 2.3-.2.1-.3.4-.5.5.2.2.4.2.6.4.1-.1.2-.3.3-.5.5-.6 1-1.3 1.2-2.1 0 .2.2.5.2.7-.2.5-.6 1.1-1.1 1.6-.2.2-.3.3-.3.6.1.1.3.2.5.3.1-.1.2-.1.3-.2.2-.2.4-.4.7-.6zM279 47.3h0c.3.1.4 0 .5.1s.3.2.5.1h.1c.3.2.7.2 1 .2h.1c.1 0 .2.1.3.1.2.1.4.1.6.2l.2-.2c.5-.7 1.1-1.4 1.7-1.9-.2-.1-.3-.1-.5-.1-.1 0-.1 0-.2-.1h0c-.6.4-1.2.7-1.6 1.4-.2.2-.2.4-.4.7-.1 0-.2-.1-.3-.1.1-.2.2-.4.4-.7.4-.6 1-1 1.5-1.2-.1 0-.2-.1-.3-.1-.5 0-1-.1-1.5-.1l-.1.1c-.4.6-.7 1.1-1 1.7h-.1c.2-.6.4-1.3.8-1.8-.4.1-.9 0-1.3.1h-.1c0 .7-.1 1.1-.3 1.6-.1 0-.1 0 0 0 0-.5.2-.9.3-1.4-.3 0-.6.2-.9.3h0c-.1 0-.2.1-.2.2h0c-.2.5.3.7.8.9-.2 0-.1 0 0 0-.1 0-.1 0 0 0z"/></g><g class="Z"><path d="M283 45.8h0c-.5.4-1.1.8-1.5 1.3-.2.2-.2.4-.4.7.1 0 .2.1.3.1.1-.2.2-.4.4-.7.4-.6 1.1-1 1.6-1.4h0c-.1.1-.2.1-.4 0zm1.3.4s.1 0 .1-.1h0c-.1 0-.2-.1-.4 0h0c-.7.5-1.2 1.1-1.7 1.9l-.2.2c.1 0 .1.1.2.1h0c.1-.1.1-.2.2-.2.6-.8 1.2-1.4 1.8-1.9zm-.3 1.5a4.74 4.74 0 0 0-1 1l.2.2c.3-.3.6-.7 1-1 .4-.4 1-.6 1.5-.8.4-.2.8-.3 1.2-.4h.1c-.2-.1-.4-.1-.6-.1h-.1c-.2 0-.5.2-.7.2-.5.2-1.1.5-1.6.9zm4.7 4.7c.4-.5.8-.9 1.1-1.5.3-.5.6-1 .7-1.6.1-.1.1-.3 0-.4h0c-.1-.1-.2-.2-.2-.3h0c-.1.7-.3 1.5-.7 2.1-.3.6-.7 1-1.1 1.5a.78.78 0 0 0-.4.4l.2.2c.3-.1.3-.3.4-.4z"/><path d="M289.8 52.3c.3-.4.7-.8.9-1.3.3-.3.4-.8.6-1.2h0c-.1-.2-.1-.3-.3-.4h0c0 .1-.1.1-.1.3-.1.5-.4 1-.6 1.3-.3.3-.6.8-.8 1.1-.3.2-.5.5-.8.7l.2.2c.4-.2.7-.5.9-.7zm.6.7c.6-.6 1.1-1.5 1.4-2.3 0-.2-.2-.4-.3-.6 0 .1-.1.2-.1.3-.3 1-.7 1.8-1.4 2.4-.2.1-.3.2-.4.5.1.1.2.1.2.2.3-.2.5-.3.6-.5zm1.8-1c0-.2-.1-.5-.2-.7-.3.9-.7 1.5-1.2 2.1-.1.1-.3.3-.3.5l.3.3c.1-.2.3-.3.3-.6.6-.4.9-1 1.1-1.6z"/><path d="M291.9 54.3c.1-.1.2-.1.3-.2 0-.1.1-.3 0-.4 0 0 0 .1-.1.1-.2.2-.4.4-.6.5-.1 0-.2.1-.3.2l.2.2c.2-.3.4-.3.5-.4zm-3.4-3c.2-.4.4-.9.5-1.4.1-.4.2-.8 0-1.3 0-.2-.1-.3-.3-.5-.1-.2-.4-.2-.7-.3 0 0-.1 0 0 .1.9.4.9 1.5.8 2.3s-.7 1.4-1.2 2l.2.2c.2-.4.4-.7.7-1.1z"/><path d="M288.9 47.5c-.2 0-.4.1-.5.1h-.8c-.5.1-1 .3-1.5.4-.4.2-.8.4-1.1.8-.2.2-.3.5-.5.6a1.38 1.38 0 0 0-.3.4h0c0 .1 0 .1.1.2h0a1.38 1.38 0 0 0 .3-.4c.2-.1.3-.3.4-.5a2.73 2.73 0 0 1 1.2-.9c.9-.4 2-.4 2.9-.6 0 0 .1 0 .1-.1h0c-.1 0-.1-.1-.1-.1h0c-.1 0-.2.1-.2.1h0zm-1.5 1.7c-.4 0-.7.2-.8.4-.3.5-.7 1.6.1 1.9h0c.3.2.8-.1 1-.3.4-.4.9-1 .6-1.6-.3-.4-.6-.4-.9-.4zm.1 1.7c-.2.2-.5.5-.9.3-.4-.3-.2-1.1.1-1.4.2-.2.3-.5.6-.5.2-.1.5.2.7.4.2.4-.2 1-.5 1.2zm-.4-.7c-.1.1-.3.3-.2.4h0v.1c.2.1.4 0 .5-.1s.2-.2.1-.4-.3-.2-.4 0zm.1.3c-.1 0-.1.1-.2 0v-.1c0-.1 0-.1.1-.2 0 0 .3-.1.3 0s-.1.2-.2.3zm-2-.2c0 .1 0 .1.1.2s.4 0 .5-.1c.4-.3.5-.9.2-1.2-.6-.6-1.4.6-.8 1.1zm.5-.2c-.1.1-.2.1-.3.1s-.1-.1-.1-.2h0l-.1.1c0-.2-.1-.4 0-.5s.3-.5.5-.4c.1.1.1.3.2.4 0 .1-.1.3-.2.5z"/><path d="M285.4 49.5c-.1.1-.3.2 0 .4h.2c0-.1.1-.2.1-.3-.2-.1-.2-.1-.3-.1zm-5.4-2s0 .1 0 0c.3-.6.6-1.2 1.1-1.7l.1-.1h-.3c-.5.5-.7 1.2-.9 1.8zm-1.1-.2h0l.5-1.4h-.2l-.3 1.4z"/></g><path d="M285 50.8l-.1.1h-.1c.1.1.2.1.3.2.2-.1.5-.2.6.1v.2c.1.1.2.1.3.2.5-.7-.5-1.3-1-.8z" class="T"/><path d="M285.8 51.3c-.1-.3-.5-.3-.6-.1.2.1.4.2.7.3-.1-.1-.1-.2-.1-.2z" class="a"/><path d="M292.1 55c0-.1-.1-.1-.1-.1-.1 0-.1-.1-.2-.2 0 0-.1-.1-.2-.1h0c.1.2.3.4.5.4z" class="T"/></svg>