<?xml version="1.0" encoding="utf-8"?>
<!-- Generator: Adobe Illustrator 21.0.0, SVG Export Plug-In . SVG Version: 6.00 Build 0)  -->
<svg version="1.1" id="Слой_1" xmlns="http://www.w3.org/2000/svg" xmlns:xlink="http://www.w3.org/1999/xlink" x="0px" y="0px"
	 viewBox="0 0 389 157" style="enable-background:new 0 0 389 157;" xml:space="preserve">
<style type="text/css">
	.st0{display:none;}
	.st1{display:inline;}
	.st2{fill:#732A13;}
	.st3{fill:#6C151C;}
	.st4{fill:#F6C073;}
	.st5{fill:#F1A12E;}
	.st6{opacity:0.3;fill:#FBE0BA;enable-background:new    ;}
	.st7{fill:#6F4026;}
	.st8{fill:#F6C278;}
	.st9{display:inline;fill:#AB1717;}
	.st10{fill:none;}
	.st11{fill:#A79185;}
	.st12{fill:#877F7A;}
	.st13{fill:#5C5B5A;}
	.st14{fill:#E46025;}
	.st15{fill:#F47F31;}
	.st16{fill:#F6954D;}
	.st17{fill:#F9AD80;}
	.st18{fill:#E88C56;}
</style>
<g id="Layer_1" class="st0">
	<g class="st1">
		
			<ellipse transform="matrix(0.9998 -1.910948e-02 1.910948e-02 0.9998 -1.7337 3.9668)" class="st2" cx="206.7" cy="92.7" rx="175.1" ry="48.7"/>
		
			<ellipse transform="matrix(0.9998 -1.911576e-02 1.911576e-02 0.9998 -1.5262 3.9298)" class="st3" cx="204.8" cy="81.8" rx="161" ry="44.8"/>
		
			<ellipse transform="matrix(0.9998 -1.911913e-02 1.911913e-02 0.9998 -1.4442 3.9373)" class="st4" cx="205.2" cy="77.5" rx="158.3" ry="44.6"/>
		
			<ellipse transform="matrix(0.9998 -1.910377e-02 1.910377e-02 0.9998 -1.317 3.9311)" class="st5" cx="205.1" cy="70.9" rx="145.6" ry="32.3"/>
		
			<ellipse transform="matrix(0.9998 -1.911114e-02 1.911114e-02 0.9998 -1.3424 3.9328)" class="st5" cx="205.1" cy="72.2" rx="139.4" ry="30.9"/>
		<path class="st6" d="M204.5,41.3c-77,1.5-139.1,16.5-138.8,33.6s63,29.7,140,28.3c77-1.5,139.1-16.5,138.8-33.6
			S281.5,39.9,204.5,41.3z M76.5,69.9c-0.4-0.2-0.5-0.7-0.3-1.1c3.1-9.1,15.8-8,22.9-11.7c0.3-0.2,0.6-0.2,0.8-0.1
			c15-5,30.2-7.7,46.5-8.8c9-0.6,18.1-0.6,27.1-0.7c5.3-0.1,12.1-0.5,16.1,3.6c0.6,0.6-0.1,1.5-0.7,1.7c-8,3.7-17.1,2.5-25.7,3.3
			c-11,1-22.1,2.7-32.9,4.8c-10.9,2.1-22.2,3.3-33,6.1C90.6,68.8,83.3,72.4,76.5,69.9z M180.5,95.3c-6.8,1.8-14,1.7-21,1.7
			c-9.1,0-18.1-0.1-27.2,0c-5.6,0-12.9,0-17.3-4.1c-4.6-4.3-9.2-3.7-15-3.6c-4.6,0-17.9,0.3-17.1-7.4c0.6-5.4,10.5-7.5,14.4-8.5
			c8.1-2.1,16.5-3.3,24.8-4c3.8-0.3,7.4-0.5,11.1-1.1c0.1-0.1,0.3-0.2,0.4-0.2c12.3-2.4,24.7-4,37.2-4.6c8.1-0.4,22-1.8,22.4,9.6
			C193.7,82.5,190.7,92.5,180.5,95.3z M213.5,49.7c7-6.9,18.9-4.7,27.8-6c0.5-0.1,0.7,0.1,0.8,0.4c6,0,12.1,0.7,18.1,1.3
			c6.4,0.6,16.7,0.8,21.1,6.5c0.4,0.6,0.1,1.6-0.7,1.7c-12.9,3.4-25.5-0.7-38.5,0c-8.7,0.5-20.9,2.9-28.6-2.4
			C213,50.8,213,50.1,213.5,49.7z M261.1,84.1c-1.6,4.3-7.6,5.8-11.6,6.6c-7.1,1.4-14.7,2.8-21.8,3.4c-7,0.6-12.6-1.2-15.8-7.8
			c-1.4-3-6.8-16-3.7-20.4c0.1-0.1,0.2-0.3,0.3-0.4c0.4-0.4,0.9-0.7,1.6-0.9c2-0.8,4.1-0.6,6.5,0.2c5.2,1.6,10.6,2.4,15.9,3.9
			c7,1.9,14.2,4.3,20.9,7.3C256.2,77.1,262.7,79.8,261.1,84.1z M300.7,71.4c-4.1,5.6-14.6,4.6-20.5,4.1c-11.3-0.9-22.3-2.5-33.2-5.8
			c-3.7-1.1-18.2-3.5-18.9-8.4c-0.3-2.3,2.3-3.5,5.3-4.1c9.4-3.8,19.3,0,28.9,0.7c5.4,0.4,10.9,1.2,16.2,2.1
			C281.8,60.5,306.3,63.8,300.7,71.4z"/>
		<path class="st7" d="M38.5,90c0,0-6.8,2.4-0.1,15.3s86.2,37.6,160.7,32.7c0,0,51.9,0,52.2-4.1s-19.8-4.3-19.8-4.3
			s-23.5,0.7-33.8,0.8C187.5,130.4,54.8,131.5,38.5,90z"/>
		<path class="st8" d="M55.9,70.2c0,0-3.4-0.2-6.1,6.4c-2.7,6.6,7.9,22.9,55,33.2c47,10.3,115.1,12.6,150.4,6.2s18.1-15.1,0.9-12.8
			c-17.2,2.3-17.2,2.3-17.2,2.3S153,108.1,110,99.9C69.2,92.2,55.1,87.1,55.9,70.2z"/>
	</g>
</g>
<g id="Слой_3" class="st0">
	<path class="st9" d="M142.3,45.8c0,0,46.5-2,75.9-1.5c19.1,0.2,41.2-3.1,77.1,5.1c17.5,3.8,28.6,7.5,34.6,10.6
		c3.6,1.9,6,5.6,5.9,9.7c-0.1,6.2-6.3,15.6-56.8,26c-49.7,4.8-55.4,4.6-77.4,3.8c-24.5,0.9-52.2,3.2-76.1-2.4
		c-26.9-5.6-68.6-13.4-56.1-25.5C77.3,64.7,87.5,54.1,142.3,45.8z"/>
</g>
<g id="Слой_4">
	<g>
		<path class="st10" d="M99.7,80.2c-0.1,0.1-0.2,0.1-0.2,0.2c0.7,0.1,1.3,0.2,1,0.8l0.1,0.1c-0.1,0.1-0.2,0.2-0.4,0.3l0,0
			c-0.4,0.4-0.7,0.8-1.2,1.1c-0.6,0.4-1.2,0.9-1.9,1.1c-1.2,0.4-2.7,0.4-4,0.2c-0.3,0-0.6-0.1-0.8-0.1c-1.9-0.3-3.7-0.5-5.6-0.7
			c-0.4,0-0.8-0.1-1.2-0.3l0,0l0,0c-1.1-0.3-2.2-0.8-3-1.6c-1.3-1.1-2-2.4-2.4-4c-0.4-1.3-0.3-3.2,0.4-4.6c-1.8-1.3-1.5-2.2-0.8-2.8
			c-30,15.9,16.9,15.5,20.9,13.8C103.9,82.2,101.6,80.7,99.7,80.2z"/>
		<path class="st10" d="M79.4,70c0.5-0.3,1-0.5,1.5-0.8C81,69.2,80.1,69.5,79.4,70z"/>
		<path class="st11" d="M100.2,81.6c0.1-0.1,0.2-0.2,0.4-0.3l-0.1-0.1c0,0,0,0,0,0.1C100.3,81.4,100.3,81.5,100.2,81.6z"/>
		<path class="st11" d="M98.9,82.3L98.9,82.3c-0.6,0.2-1.2,0.4-1.7,0.5c-0.1,0-0.2,0.1-0.3,0.1c-0.7,0.1-1.4,0.2-2,0.2
			c-0.6,0.3-1.2,0.7-1.9,1c1.4,0.1,2.8,0.2,4-0.2c0.7-0.2,1.3-0.7,1.9-1.1c0.5-0.3,0.8-0.7,1.2-1.1c-0.3,0.3-0.7,0.5-1,0.6
			C99.1,82.3,99,82.3,98.9,82.3z"/>
		<path class="st12" d="M94.4,83.1L94.4,83.1c-0.2,0-0.4,0-0.6,0l0,0l0,0c-0.1,0-0.2,0-0.2,0c-0.2,0-0.4,0-0.7,0l0,0
			c-0.2,0-0.3,0-0.5,0l0,0c0,0,0,0-0.1,0c-0.8,0-1.5,0-2.3-0.1c0,0-0.1,0-0.1,0.1c-0.3,0-0.5,0-0.8-0.1c0,0,0.1,0,0.1-0.1
			c-0.1,0-0.1,0-0.2,0c-0.9-0.1-1.7-0.3-2.6-0.5c0,0,0,0-0.1,0h-0.1c-0.1,0.1-0.2,0.2-0.3,0.3c-0.2,0.2-0.5,0.3-0.7,0.5l0,0
			c0.4,0.1,0.8,0.2,1.2,0.3c1.9,0.2,3.7,0.5,5.6,0.7c0.4-0.2,0.7-0.2,1-0.2c0.6-0.3,1.2-0.6,1.9-1C94.7,83,94.5,83.1,94.4,83.1z"/>
		<path class="st13" d="M79.9,77.4c0.5,1.6,1.2,2.9,2.4,4c0.8,0.8,1.9,1.2,3,1.6l0,0c0.2-0.1,0.5-0.2,0.7-0.5
			c0.1-0.1,0.2-0.2,0.3-0.3l0,0c-0.1,0-0.1-0.1-0.2-0.1l0,0c0,0,0,0-0.1,0c-0.6-0.2-1.2-0.6-1.7-1l0,0c-0.1-0.1-0.3-0.2-0.4-0.3l0,0
			l0,0c-0.2-0.2-0.4-0.4-0.6-0.6l0,0c-0.1-0.1-0.3-0.3-0.4-0.5l0,0l0,0c-0.1-0.1-0.3-0.3-0.4-0.4c-0.2-0.2-0.3-0.4-0.4-0.6
			c-0.2-0.3-0.3-0.5-0.4-0.8s-0.3-0.5-0.4-0.8c-0.1-0.2-0.1-0.4-0.2-0.6c-0.1-0.4-0.2-0.9-0.2-1.4c0-0.2,0-0.4,0-0.6
			c0-0.1,0-0.3,0-0.4c0-0.2,0-0.5,0-0.7c0,0,0-0.1,0-0.2c-0.2-0.1-0.4-0.2-0.6-0.4C79.5,74.2,79.5,76,79.9,77.4z"/>
		<path class="st14" d="M90.7,77.2c0.1,0.1,0.3,0.1,0.5,0.2c0.2,0.2,0.5,0.4,0.7,0.6l0.1,0.1l0,0c0.1,0.1,0.1,0.1,0.2,0.2l0,0
			c0.1,0.1,0.2,0.2,0.3,0.3c0.2,0.3,0.5,0.5,0.9,0.7c0.1,0.1,0.2,0.1,0.3,0.2c0.3,0.1,0.6,0.3,1,0.4h0.1l0,0c0.1,0,0.2,0.1,0.3,0.1
			l0,0c0.3,0.1,0.6,0.1,0.9,0.2c0.1,0,0.2,0,0.4,0h0.1c0.5,0,0.9,0.1,1.4,0.1H98c0.2,0,0.5,0.1,0.7,0.1c0.1,0,0.3,0,0.5,0
			c0.1,0,0.1,0,0.2,0h0.1c0.1,0,0.1,0,0.2,0c0.1-0.1,0.2-0.1,0.2-0.2c-0.3-0.1-0.5-0.1-0.8-0.2c-1.1-0.8-3-0.9-8.1-3.2L90.7,77
			C90.7,77,90.7,77.1,90.7,77.2z"/>
		<path class="st15" d="M88.1,78.2c0-0.1,0.1-0.2,0-0.2v-0.1c-0.1,0-0.2,0.1-0.2,0.1c-0.1,0.1-0.1,0.2-0.1,0.3
			C87.9,78.5,88.1,78.3,88.1,78.2z"/>
		<path class="st15" d="M90.2,79.3c0.3,0.1,0.5-0.3,0.6-0.6c0.1-0.3,0.1-0.5,0-0.7c0,0.1,0,0.1-0.1,0.2c0,0,0,0-0.1,0
			c-0.1-0.1-0.1-0.3-0.2-0.2c-0.2,0-0.3,0.1-0.4,0.3c-0.1,0.2-0.2,0.4-0.1,0.7C89.9,79.1,90,79.3,90.2,79.3z M90.2,78.5
			C90.2,78.4,90.3,78.4,90.2,78.5l0.2-0.1c0.2,0.1,0,0.4,0,0.5c-0.1,0.1-0.2,0-0.2,0C90.2,78.7,90.2,78.6,90.2,78.5z"/>
		<path class="st15" d="M91.7,78.8c-0.2,0.3-0.3,0.6-0.5,0.9c-0.3,0.5-0.8,0.9-1.3,1.3s-1.1,0.7-1.7,0.8c-0.4,0.1-0.7,0.1-1,0.3
			c-0.2,0.1-0.4,0.1-0.7,0.2c0.8,0.3,1.7,0.4,2.6,0.5c0.1,0,0.1,0,0.2,0c0.5-0.2,1-0.4,1.4-0.7c0.6-0.4,1.2-0.8,1.7-1.3
			c0.4-0.4,0.8-0.9,1-1.4c0.1,0.1,0.2,0.1,0.3,0.2c-0.3,0.5-0.6,1-1,1.4c-0.6,0.6-1.2,1.1-1.9,1.5c-0.3,0.2-0.5,0.3-0.8,0.4
			c0.8,0.1,1.5,0.1,2.3,0.1c0,0,0,0,0.1,0l0.1-0.1c0.8-0.8,1.5-1.7,2-2.6c0.1-0.1,0.1-0.2,0.2-0.4h-0.1c-0.3-0.1-0.6-0.2-1-0.4
			c-0.1-0.1-0.2-0.1-0.3-0.2c-0.4-0.2-0.7-0.4-0.9-0.7c-0.1-0.1-0.2-0.2-0.3-0.3C91.9,78.5,91.8,78.6,91.7,78.8z"/>
		<path class="st15" d="M85.8,76.1c-0.4,0.6-0.8,1.4-1,2.1c-0.3,0.9-0.5,1.9-0.4,2.9c0.5,0.4,1.1,0.7,1.7,1c0,0,0,0,0.1,0
			c0,0,0-0.1,0.1-0.1c1.3-0.4,2.5-0.6,3.7-1.3c0.6-0.4,1-0.8,1.3-1.4c0.1-0.2,0.3-0.5,0.4-0.7s0.2-0.4,0.3-0.6l-0.1-0.1
			c-0.2-0.2-0.4-0.4-0.7-0.6c-0.2-0.1-0.3-0.2-0.5-0.2c-0.4,0.7-1.8,0.2-1.6-0.8c-0.7-0.2-1.3-0.4-1.9-0.6c-0.5,0.9-1.1,1.8-1.1,2.9
			s0.3,2.5,1.5,2.8v0.1c-0.3-0.1-0.6-0.1-0.8-0.2c-0.2-0.2-0.4-0.3-0.5-0.5C86,80.2,86,79.7,86,79.1s0.1-1.3,0.3-1.9
			c0.2-0.5,0.5-1,0.7-1.5c-0.2-0.1-0.4-0.1-0.6-0.2C86.1,75.7,85.9,75.9,85.8,76.1z M89.9,77.9c0.2-0.1,0.5-0.3,0.7-0.2
			c0.1,0,0.1,0.1,0.1,0.2c0.8,0.5,0,2.2-0.8,1.7C89.5,79.2,89.4,78.3,89.9,77.9z M87.3,77.2c0.3-0.3,0.8-0.8,1.2-0.6l0,0
			c1,0.3,0.8,1.7,0.5,2.4c-0.2,0.4-0.5,0.7-1,0.8c-0.4,0-0.8,0-1.1-0.4C86.4,78.7,86.9,77.7,87.3,77.2z"/>
		<path class="st15" d="M88.1,79.6c0.3-0.2,0.5-0.5,0.7-0.8c0.2-0.5,0.3-1.4-0.2-1.9c-0.4-0.1-0.8,0.3-1,0.6
			c-0.3,0.4-0.7,1.1-0.4,1.6C87.3,79.4,87.8,79.7,88.1,79.6z M87.8,77.9c0.1-0.2,0.4-0.3,0.6-0.3c0,0,0.1,0,0.1,0.1c0,0,0,0,0,0.1
			c0.1,0.2,0,0.5-0.2,0.6c-0.1,0.1-0.5,0.2-0.6,0C87.5,78.3,87.6,78.1,87.8,77.9z"/>
		<path class="st15" d="M84.7,76.3c-0.3,0.5-0.6,1-0.9,1.6s-0.5,1.2-0.5,1.9c0,0.1,0,0.3,0,0.3c0.2,0.2,0.4,0.4,0.6,0.6l0,0
			c0-0.2,0-0.4,0-0.6c0.1-0.8,0.3-1.5,0.5-2.2c0.3-0.7,0.7-1.5,1.1-2.2c0.1-0.2,0.3-0.3,0.4-0.4c-0.1,0-0.3-0.1-0.4-0.1
			C85.2,75.6,84.9,75.9,84.7,76.3z"/>
		<path class="st15" d="M80.9,75C80.9,75.1,80.9,75.1,80.9,75s0-0.3,0-0.5c0.1-0.1,0.2-0.2,0.3-0.3c0.1-0.2,0.4-0.3,0.5-0.5
			c-0.1,0-0.2,0-0.2,0c-0.1,0-0.2-0.1-0.4-0.1c-0.1,0-0.2,0-0.2-0.1c0,0.2,0,0.5,0,0.7c0,0.1,0,0.3,0,0.4c0,0.2,0,0.4,0,0.6
			c0,0.5,0,1,0.2,1.4c0.1,0.2,0.1,0.4,0.2,0.6c0.1,0.3,0.2,0.5,0.4,0.8c0.1,0.3,0.3,0.5,0.4,0.8c0.1,0.2,0.3,0.4,0.4,0.6
			c0.1,0.1,0.2,0.3,0.4,0.4l0,0c0.1-0.6,0.3-1.2,0.5-1.7c0.3-0.6,0.6-1.2,0.9-1.8c0.3-0.4,0.6-0.7,0.9-1.1c-0.3-0.1-0.6-0.2-0.9-0.4
			c-0.1,0.2-0.3,0.5-0.5,0.7c-0.8,1-1.2,2.2-1.3,3.4c0,0.1,0,0.3,0,0.4c-0.2-0.2-0.3-0.4-0.4-0.6c0.2-1.2,0.5-2.3,1.2-3.2
			c0.2-0.3,0.4-0.5,0.6-0.8c-0.3-0.1-0.6-0.2-0.9-0.4c-0.1,0.2-0.2,0.4-0.3,0.6c-0.6,0.9-1,1.9-1.1,2.9c-0.1-0.3-0.3-0.5-0.4-0.8
			c0.2-0.8,0.5-1.6,1-2.2c0.2-0.3,0.3-0.5,0.4-0.7c-0.2-0.1-0.4-0.2-0.6-0.3c-0.1,0.1-0.2,0.2-0.3,0.3C81.4,74.4,81.1,74.7,80.9,75z
			"/>
		<path class="st15" d="M99.2,80.4c-0.1,0-0.1,0-0.2,0c-0.2,0-0.4,0-0.5,0c-0.2,0-0.4-0.1-0.7-0.1h-0.1c-0.5-0.1-0.9-0.1-1.4-0.1
			h-0.1c-0.1,0-0.2,0-0.4,0c-0.3,0-0.6-0.1-0.9-0.2c0,0.1-0.1,0.2-0.2,0.3c-0.5,1-1.1,2-1.9,2.8c0.2,0,0.4,0,0.7,0
			c0.1,0,0.2,0,0.2,0l0,0c0.7-0.6,1.4-1.2,1.8-2c0.2-0.3,0.3-0.6,0.3-0.9c0.1,0,0.2,0,0.4,0c-0.1,0.3-0.2,0.6-0.3,0.9
			c-0.4,0.8-1,1.4-1.7,2c0.1,0,0.3,0,0.4,0c0.7,0,1.4-0.1,2-0.2c0-0.1,0-0.1,0.1-0.2c0.4-0.8,0.7-1.6,0.9-2.4h0.1
			c-0.1,0.9-0.3,1.7-0.7,2.5c0.6-0.1,1.1-0.3,1.6-0.5c0,0,0,0,0.1,0C99,81.7,99.1,81.1,99.2,80.4L99.2,80.4c0.1,0.6,0,1.2-0.1,1.8
			c0.4-0.2,0.8-0.4,1-0.6l0,0c0.1-0.1,0.1-0.2,0.2-0.3v-0.1C100.6,80.6,100,80.5,99.2,80.4C99.4,80.4,99.3,80.4,99.2,80.4L99.2,80.4
			z"/>
		<path class="st16" d="M94.4,83.1L94.4,83.1c0.7-0.6,1.3-1.2,1.7-2c0.1-0.3,0.3-0.6,0.3-0.9c-0.1,0-0.2,0-0.4,0
			c-0.1,0.3-0.2,0.6-0.3,0.9c-0.4,0.9-1.1,1.5-1.8,2l0,0C94,83.1,94.2,83.1,94.4,83.1z"/>
		<path class="st16" d="M92.5,82.8L92.5,82.8L92.5,82.8c0.1,0.1,0.2,0.1,0.4,0.1l0,0c0.8-0.8,1.4-1.7,1.9-2.8c0-0.1,0.1-0.2,0.2-0.3
			l0,0c-0.1,0-0.2-0.1-0.3-0.1l0,0c-0.1,0.1-0.1,0.2-0.2,0.4C94,81.2,93.3,82.1,92.5,82.8z"/>
		<path class="st16" d="M92.7,80.9c0.4-0.4,0.8-0.9,1-1.4c-0.1-0.1-0.2-0.1-0.3-0.2c-0.3,0.5-0.6,1-1,1.4c-0.5,0.5-1.1,1-1.7,1.3
			c-0.4,0.3-0.9,0.5-1.4,0.7c0,0-0.1,0-0.1,0.1c0.3,0,0.5,0,0.8,0.1c0,0,0.1,0,0.1-0.1c0.3-0.1,0.6-0.3,0.8-0.4
			C91.5,82,92.1,81.5,92.7,80.9z"/>
		<path class="st16" d="M85.6,75.8c-0.5,0.6-0.8,1.4-1.1,2.2c-0.3,0.7-0.5,1.4-0.5,2.2c0,0.2,0,0.4,0,0.6l0,0
			c0.1,0.1,0.3,0.2,0.4,0.3l0,0c0-1,0.1-2,0.4-2.9c0.3-0.7,0.6-1.5,1-2.1c0.1-0.2,0.3-0.4,0.5-0.6c-0.1,0-0.2-0.1-0.3-0.1
			C85.8,75.5,85.7,75.7,85.6,75.8z"/>
		<path class="st16" d="M84.3,76.3c-0.4,0.6-0.7,1.2-0.9,1.8c-0.2,0.5-0.4,1.1-0.5,1.7l0,0c0.1,0.2,0.3,0.3,0.4,0.5l0,0
			c0-0.1,0-0.2,0-0.3c0.1-0.6,0.3-1.3,0.5-1.9c0.2-0.5,0.5-1.1,0.9-1.6c0.3-0.4,0.6-0.7,0.9-1.1c-0.1,0-0.2-0.1-0.3-0.1
			C84.9,75.5,84.5,75.9,84.3,76.3z"/>
		<path class="st16" d="M83.3,75.4c-0.7,0.9-1.1,2.1-1.2,3.2c0.1,0.2,0.3,0.4,0.4,0.6c0-0.1,0-0.3,0-0.4c0.1-1.2,0.6-2.4,1.3-3.4
			c0.2-0.2,0.3-0.4,0.5-0.7c-0.1,0-0.3-0.1-0.4-0.1C83.7,74.9,83.5,75.2,83.3,75.4z"/>
		<path class="st16" d="M81.2,77.1c0.1,0.3,0.2,0.5,0.4,0.8c0.1-1.1,0.5-2.1,1.1-2.9c0.1-0.2,0.2-0.4,0.3-0.6
			c-0.2-0.1-0.3-0.1-0.5-0.2c-0.1,0.2-0.2,0.5-0.4,0.7C81.7,75.5,81.4,76.3,81.2,77.1z"/>
		<path class="st16" d="M81.1,74.2c-0.1,0.1-0.2,0.2-0.3,0.3c0,0.2,0,0.4,0,0.6c0-0.1,0-0.1,0-0.1c0.2-0.3,0.5-0.6,0.8-0.8
			c0.1-0.1,0.2-0.2,0.3-0.3c-0.1-0.1-0.2-0.1-0.3-0.2l0,0C81.5,73.8,81.3,74,81.1,74.2z"/>
		<path class="st16" d="M86.2,77.2c-0.2,0.6-0.3,1.2-0.3,1.9c0,0.6,0,1.1,0.3,1.7c0.1,0.2,0.3,0.4,0.5,0.5c0.3,0.2,0.6,0.2,0.8,0.2
			c0.1,0,0.1-0.1,0-0.1c-1.2-0.3-1.5-1.7-1.5-2.8c0-1,0.7-2,1.1-2.9c-0.1,0-0.2-0.1-0.3-0.1C86.7,76.2,86.4,76.7,86.2,77.2z"/>
		<path class="st16" d="M86.5,82.3c0.2,0,0.4-0.1,0.7-0.2c0.4-0.1,0.7-0.1,1-0.3c0.6-0.2,1.2-0.5,1.7-0.8s0.9-0.7,1.3-1.3
			c0.2-0.3,0.4-0.6,0.5-0.9c0.1-0.2,0.2-0.4,0.3-0.6l0,0c0,0,0-0.1-0.1-0.2l0,0c-0.1,0.2-0.2,0.4-0.3,0.6c-0.1,0.2-0.3,0.4-0.4,0.7
			c-0.3,0.6-0.8,1-1.3,1.4c-1.1,0.7-2.4,0.9-3.7,1.3l-0.1,0.1l0,0c0.1,0,0.1,0.1,0.2,0.1l0,0C86.4,82.2,86.4,82.3,86.5,82.3
			L86.5,82.3z"/>
		<path class="st16" d="M88,79.8c0.5,0,0.8-0.4,1-0.8c0.4-0.7,0.6-2.2-0.5-2.4l0,0c-0.4-0.1-1,0.3-1.2,0.6c-0.5,0.5-0.9,1.5-0.4,2.2
			C87.2,79.8,87.6,79.8,88,79.8z M87.5,77.5c0.2-0.3,0.6-0.7,1-0.6c0.6,0.4,0.4,1.3,0.2,1.9c-0.1,0.3-0.4,0.6-0.7,0.8
			c-0.2,0.2-0.8-0.2-0.9-0.4C86.8,78.7,87.2,77.9,87.5,77.5z"/>
		<path class="st16" d="M88.2,78.4c0.1-0.1,0.3-0.5,0.2-0.6c0,0,0,0,0-0.1c0,0,0-0.1-0.1-0.1c-0.2,0-0.5,0.1-0.6,0.3
			c-0.1,0.1-0.2,0.4-0.1,0.5C87.8,78.7,88.1,78.5,88.2,78.4z M87.9,78c0.1-0.1,0.1-0.1,0.2-0.1V78c0,0.1,0,0.2,0,0.2
			c0,0.1-0.3,0.2-0.3,0.1C87.8,78.2,87.9,78.1,87.9,78z"/>
		<path class="st16" d="M90.7,77.9c0-0.1-0.1-0.1-0.1-0.2c-0.2-0.1-0.5,0-0.7,0.2c-0.5,0.4-0.4,1.3,0,1.6
			C90.7,80.1,91.5,78.3,90.7,77.9z M90,78.2c0.1-0.1,0.2-0.3,0.4-0.3c0.1,0,0.2,0.1,0.2,0.2h0.1c0-0.1,0.1-0.1,0.1-0.2
			c0.1,0.2,0.1,0.5,0,0.7s-0.3,0.6-0.6,0.6c-0.2-0.1-0.3-0.3-0.3-0.4C89.8,78.7,89.9,78.4,90,78.2z"/>
		<path class="st16" d="M90.5,78.9c0.1-0.1,0.2-0.4,0-0.5h-0.1c-0.1,0-0.1,0-0.1,0.1s0,0.3,0,0.4S90.4,79,90.5,78.9z"/>
		<path class="st16" d="M97.9,80.3L97.9,80.3c-0.3,0.8-0.6,1.6-1,2.4c0,0.1,0,0.1-0.1,0.2c0.1,0,0.2,0,0.3-0.1
			C97.6,82,97.8,81.2,97.9,80.3z"/>
		<path class="st16" d="M99.3,80.4c-0.1,0-0.1,0-0.2,0c-0.1,0.6-0.2,1.3-0.3,1.9c0.1,0,0.1,0,0.2-0.1C99.2,81.6,99.3,81,99.3,80.4z"
			/>
		<path class="st17" d="M90.7,77.2c0-0.1,0.1-0.1,0.1-0.2l0.1-0.1c-0.1,0-0.2-0.1-0.4-0.1c-0.2,0.2-0.5,0.3-0.8,0
			c-0.1-0.1-0.1-0.1-0.1-0.2c-0.2,0-0.3-0.1-0.5-0.1C88.9,77.3,90.3,77.8,90.7,77.2z"/>
		<path class="st18" d="M89.6,76.7c0.3,0.4,0.7,0.3,0.8,0c-0.3-0.1-0.6-0.2-0.9-0.3C89.6,76.6,89.6,76.7,89.6,76.7z"/>
		<path class="st17" d="M80.8,73.4c0,0.1,0.1,0.1,0.2,0.1s0.2,0.1,0.4,0.1c0.1,0,0.2,0,0.2,0l0,0c-0.3-0.2-0.6-0.3-0.8-0.5
			C80.8,73.2,80.8,73.3,80.8,73.4z"/>
	</g>
	<g>
		<path class="st10" d="M122.3,72.6c0.1,0,0.2,0,0.3,0.1c-0.6,0.3-1.1,0.7-0.6,1.1l-0.1,0.1c0.1,0,0.3,0.1,0.4,0.2l0,0
			c0.5,0.2,0.9,0.5,1.5,0.6c0.7,0.1,1.5,0.4,2.2,0.4c1.3-0.1,2.7-0.6,3.9-1.2c0.3-0.1,0.5-0.3,0.7-0.4c1.7-0.9,3.3-1.8,4.9-2.6
			c0.4-0.2,0.7-0.4,1.1-0.7l0,0l0,0c0.9-0.7,1.7-1.5,2.3-2.5c0.8-1.5,1-2.9,0.9-4.6c-0.1-1.4-0.8-3.1-2-4.1c1.3-1.8,0.6-2.6-0.3-2.9
			c33.6,4.3-10.4,20.5-14.7,20.2C119.1,75.9,120.7,73.7,122.3,72.6z"/>
		<path class="st10" d="M137.6,55.8c-0.5-0.1-1.1-0.1-1.7-0.2C135.9,55.6,136.9,55.6,137.6,55.8z"/>
		<path class="st11" d="M122.3,74c-0.1-0.1-0.3-0.1-0.4-0.2l0.1-0.1c0,0,0,0,0.1,0.1C122.1,73.8,122.2,73.9,122.3,74z"/>
		<path class="st11" d="M123.7,74.2C123.8,74.2,123.8,74.2,123.7,74.2c0.6,0,1.2-0.1,1.8-0.2c0.1,0,0.2,0,0.3-0.1
			c0.7-0.1,1.3-0.3,2-0.5c0.7,0.1,1.4,0.2,2.1,0.3c-1.2,0.6-2.6,1.1-3.9,1.2c-0.8,0-1.5-0.2-2.2-0.4c-0.6-0.1-1-0.4-1.5-0.6
			c0.3,0.2,0.8,0.2,1.2,0.2C123.6,74.2,123.7,74.2,123.7,74.2z"/>
		<path class="st12" d="M128.2,73.3C128.3,73.3,128.3,73.4,128.2,73.3c0.2-0.1,0.4-0.1,0.5-0.2l0,0l0,0c0.1,0,0.1-0.1,0.2-0.1
			c0.2-0.1,0.4-0.2,0.6-0.3l0,0c0.2-0.1,0.3-0.1,0.5-0.2l0,0c0,0,0,0,0.1,0c0.7-0.3,1.4-0.6,2.1-0.9h0.1c0.2-0.1,0.5-0.2,0.7-0.3
			h-0.1c0,0,0.1,0,0.1-0.1c0.8-0.4,1.5-0.8,2.2-1.4c0,0,0,0,0.1,0l0.1-0.1c0.1,0,0.3,0.1,0.4,0.1c0.3,0.1,0.6,0.2,0.8,0.2l0,0
			c-0.3,0.2-0.7,0.5-1.1,0.7c-1.7,0.9-3.3,1.7-4.9,2.6c-0.2,0.2-0.5,0.3-0.7,0.4c-0.7-0.1-1.4-0.2-2.1-0.3
			C128,73.4,128.1,73.4,128.2,73.3z"/>
		<path class="st13" d="M139.8,62.9c0.1,1.7-0.1,3.1-0.9,4.6c-0.5,1-1.3,1.8-2.3,2.5l0,0c-0.3,0-0.5-0.1-0.8-0.2
			c-0.1,0-0.3-0.1-0.4-0.1l0,0c0.1-0.1,0.1-0.1,0.2-0.2l0,0l0,0c0.5-0.4,0.9-1,1.3-1.5l0,0c0.1-0.2,0.2-0.3,0.3-0.5l0,0l0,0
			c0.1-0.2,0.3-0.5,0.4-0.8l0,0c0.1-0.2,0.2-0.4,0.2-0.6l0,0l0,0c0.1-0.2,0.1-0.4,0.2-0.5c0.1-0.3,0.1-0.5,0.2-0.7
			c0.1-0.3,0.1-0.6,0.1-0.9c0-0.3,0.1-0.6,0.1-0.9c0-0.2,0-0.4,0-0.6c0-0.5-0.2-0.9-0.3-1.4c-0.1-0.2-0.1-0.4-0.2-0.6
			c0-0.1-0.1-0.2-0.1-0.4c-0.1-0.2-0.2-0.4-0.3-0.7c0-0.1,0-0.1-0.1-0.2c0.2-0.2,0.3-0.4,0.4-0.5C139,59.8,139.7,61.5,139.8,62.9z"
			/>
		<path class="st14" d="M129.6,66.5c-0.1,0.1-0.2,0.2-0.3,0.4c-0.2,0.2-0.3,0.5-0.4,0.8v0.1l0,0c0,0.1-0.1,0.2-0.1,0.2l0,0
			c-0.1,0.1-0.1,0.3-0.2,0.4c-0.1,0.3-0.3,0.6-0.6,0.9c-0.1,0.1-0.2,0.2-0.2,0.2c-0.2,0.3-0.5,0.5-0.8,0.7c0,0-0.1,0-0.1,0.1l0,0
			c-0.1,0.1-0.2,0.1-0.3,0.2l0,0c-0.3,0.2-0.5,0.3-0.8,0.5c-0.1,0.1-0.2,0.1-0.3,0.2c0,0,0,0-0.1,0c-0.4,0.2-0.8,0.4-1.3,0.6H124
			c-0.2,0.1-0.4,0.2-0.6,0.3c-0.1,0.1-0.3,0.1-0.5,0.2c0,0-0.1,0-0.1,0.1c0,0,0,0-0.1,0s-0.1,0-0.2,0.1c-0.1,0-0.2,0-0.3-0.1
			c0.2-0.2,0.4-0.3,0.7-0.4c0.7-1.2,2.4-1.9,6.4-5.8h0.1C129.6,66.4,129.6,66.5,129.6,66.5z"/>
		<path class="st15" d="M132.4,66.6c-0.1,0-0.1-0.1-0.1-0.2v-0.1c0.1,0,0.2,0,0.3,0.1c0.1,0,0.2,0.1,0.2,0.2
			C132.7,66.7,132.4,66.6,132.4,66.6z"/>
		<path class="st15" d="M131,67.9c0-0.2-0.2-0.4-0.4-0.6c-0.1-0.1-0.3-0.2-0.5-0.1c-0.1,0-0.1,0.2-0.1,0.3l0,0
			c-0.1,0-0.1-0.1-0.1-0.2c0,0.2,0,0.5,0.2,0.7c0.1,0.2,0.5,0.5,0.8,0.3C131,68.3,131,68,131,67.9z M130.6,68c0,0.1-0.1,0.2-0.2,0.1
			c-0.1-0.1-0.4-0.3-0.2-0.5h0.1c0,0,0.1-0.1,0.2,0S130.6,67.8,130.6,68z"/>
		<path class="st15" d="M129.2,68.4c0.2,0.2,0.5,0.5,0.8,0.7c0.5,0.4,1,0.6,1.6,0.7c0.6,0.2,1.3,0.2,1.9,0.2c0.4,0,0.7-0.1,1.1-0.1
			c0.2,0,0.5,0,0.7-0.1c-0.7,0.6-1.4,1-2.2,1.4c0,0-0.1,0-0.1,0.1c-0.5,0-1.1-0.1-1.6-0.2c-0.7-0.1-1.4-0.3-2.1-0.6
			c-0.5-0.3-1-0.6-1.4-1c-0.1,0.1-0.2,0.2-0.2,0.2c0.4,0.4,0.9,0.7,1.5,1c0.7,0.3,1.5,0.6,2.3,0.7c0.3,0.1,0.6,0.1,0.9,0.1
			c-0.7,0.3-1.4,0.6-2.1,0.9c0,0,0,0-0.1,0s-0.1,0-0.2-0.1c-1-0.5-2-1.1-2.8-1.8c-0.1-0.1-0.2-0.2-0.3-0.3c0,0,0.1,0,0.1-0.1
			c0.3-0.2,0.5-0.4,0.8-0.7c0.1-0.1,0.2-0.2,0.2-0.2c0.3-0.3,0.5-0.6,0.6-0.9c0.1-0.1,0.1-0.3,0.2-0.4
			C128.9,68.2,129.1,68.3,129.2,68.4z"/>
		<path class="st15" d="M133.1,63.4c-0.1,0.1-0.3,0.2-0.5,0.4c0.4,0.4,0.8,0.8,1.2,1.2c0.4,0.5,0.7,1.1,0.9,1.6
			c0.2,0.6,0.4,1.1,0.3,1.7c0,0.3-0.1,0.5-0.3,0.7c-0.2,0.3-0.5,0.4-0.7,0.5c0,0-0.1,0-0.1-0.1c1-0.7,0.8-2.1,0.4-3.1
			c-0.4-1-1.3-1.6-2.1-2.3c-0.5,0.4-1,0.8-1.6,1.2c0.5,0.8-0.6,1.8-1.2,1.3c-0.1,0.1-0.2,0.2-0.3,0.4c-0.2,0.2-0.3,0.5-0.4,0.8v0.1
			c0.2,0.1,0.3,0.3,0.5,0.4s0.4,0.3,0.6,0.5c0.5,0.4,1.1,0.7,1.7,0.8c1.3,0.3,2.5,0,3.9-0.1c0,0,0.1,0,0.1,0.1l0,0
			c0.5-0.4,0.9-1,1.3-1.5c-0.3-0.9-0.8-1.8-1.4-2.6c-0.5-0.6-1.1-1.2-1.7-1.6C133.6,63.6,133.4,63.5,133.1,63.4z M131.2,68.5
			c-0.5,0.8-1.9-0.6-1.3-1.3c0-0.1,0-0.1,0.1-0.2c0.2-0.2,0.5-0.1,0.7-0.1C131.2,67.2,131.5,68,131.2,68.5z M134,67.3
			c-0.1,0.5-0.5,0.6-0.9,0.7c-0.5,0.1-0.9,0-1.2-0.4c-0.6-0.5-1.3-1.8-0.4-2.4l0,0c0.3-0.3,1,0,1.4,0.1
			C133.4,65.7,134.2,66.5,134,67.3z"/>
		<path class="st15" d="M133.6,67.1c0.2-0.6-0.5-1.1-0.9-1.4c-0.3-0.2-0.8-0.4-1.2-0.2c-0.4,0.6,0.1,1.4,0.5,1.8
			c0.2,0.2,0.6,0.5,0.9,0.5C133.2,67.9,133.6,67.4,133.6,67.1z M132.9,66.7c0,0.3-0.4,0.2-0.6,0.2c-0.2-0.1-0.4-0.3-0.4-0.5l0,0
			v-0.1c0.2-0.1,0.5-0.1,0.6,0C132.8,66.3,133,66.5,132.9,66.7z"/>
		<path class="st15" d="M135,63.6c0.5,0.4,1,0.8,1.4,1.2c0.4,0.5,0.9,1,1.1,1.6c0,0.1,0.1,0.2,0.1,0.3c-0.1,0.2-0.2,0.5-0.4,0.8l0,0
			c-0.1-0.2-0.1-0.3-0.2-0.5c-0.3-0.7-0.8-1.3-1.3-1.9s-1.2-1.2-1.8-1.6c-0.2-0.1-0.3-0.2-0.5-0.3c0.1-0.1,0.2-0.2,0.3-0.3
			C134.2,63.2,134.6,63.3,135,63.6z"/>
		<path class="st15" d="M138,61l0.1,0.1c-0.1-0.2-0.1-0.4-0.2-0.6c-0.1-0.1-0.3-0.1-0.4-0.2c-0.2-0.1-0.5-0.2-0.6-0.3
			c0.1,0,0.1-0.1,0.2-0.1c0.1-0.1,0.2-0.2,0.3-0.2s0.1-0.1,0.2-0.2c0.1,0.2,0.2,0.4,0.3,0.7c0,0.1,0.1,0.2,0.1,0.4
			c0.1,0.2,0.1,0.4,0.2,0.6c0.2,0.4,0.3,0.9,0.3,1.4c0,0.2,0,0.4,0,0.6c0,0.3,0,0.6-0.1,0.9c0,0.3-0.1,0.6-0.1,0.9s-0.1,0.5-0.2,0.7
			c-0.1,0.2-0.1,0.3-0.2,0.5l0,0c-0.3-0.5-0.7-1-1-1.4c-0.5-0.5-1-0.9-1.5-1.3c-0.4-0.3-0.8-0.5-1.3-0.7c0.3-0.2,0.5-0.4,0.8-0.7
			c0.2,0.2,0.4,0.3,0.7,0.5c1.1,0.6,1.9,1.6,2.4,2.7c0,0.1,0.1,0.3,0.1,0.4c0.1-0.3,0.1-0.5,0.2-0.7c-0.6-1-1.3-2-2.3-2.6
			c-0.3-0.2-0.6-0.3-0.8-0.5c0.2-0.2,0.5-0.4,0.7-0.6c0.1,0.2,0.3,0.3,0.5,0.5c0.9,0.6,1.6,1.4,2.1,2.4c0-0.3,0.1-0.6,0.1-0.9
			c-0.5-0.7-1-1.3-1.7-1.8c-0.3-0.2-0.4-0.4-0.6-0.6c0.2-0.2,0.3-0.3,0.5-0.5c0.1,0.1,0.3,0.2,0.4,0.2C137.4,60.7,137.7,60.8,138,61
			z"/>
		<path class="st15" d="M122.8,72.5C122.8,72.5,122.9,72.5,122.8,72.5c0.3-0.2,0.5-0.3,0.6-0.3c0.2-0.1,0.4-0.2,0.6-0.3h0.1
			c0.4-0.2,0.8-0.4,1.3-0.6c0,0,0,0,0.1,0s0.2-0.1,0.3-0.2c0.3-0.1,0.5-0.3,0.8-0.5c0.1,0.1,0.2,0.2,0.3,0.3
			c0.8,0.8,1.7,1.4,2.8,1.9c-0.2,0.1-0.4,0.2-0.6,0.3c-0.1,0-0.1,0.1-0.2,0.1l0,0c-0.9-0.3-1.7-0.6-2.4-1.3
			c-0.2-0.2-0.4-0.5-0.6-0.7c-0.1,0.1-0.2,0.1-0.3,0.2c0.2,0.3,0.4,0.5,0.7,0.8c0.7,0.6,1.4,1,2.2,1.3c-0.1,0.1-0.3,0.1-0.4,0.1
			c-0.6,0.2-1.3,0.4-2,0.5c-0.1,0-0.1-0.1-0.1-0.1c-0.6-0.6-1.2-1.2-1.7-1.9h-0.1c0.4,0.8,0.9,1.5,1.6,2.1c-0.6,0.1-1.1,0.1-1.7,0.1
			c0,0,0,0-0.1,0C123.4,73.7,123.1,73.1,122.8,72.5C122.8,72.6,122.7,72.6,122.8,72.5c0.1,0.7,0.4,1.2,0.7,1.7
			c-0.4,0-0.8-0.1-1.2-0.2l0,0c-0.1-0.1-0.2-0.1-0.3-0.2c0,0,0,0-0.1-0.1c-0.5-0.4,0-0.8,0.6-1.1C122.6,72.6,122.7,72.6,122.8,72.5
			C122.8,72.6,122.8,72.5,122.8,72.5z"/>
		<path class="st16" d="M128.3,73.4C128.3,73.4,128.3,73.3,128.3,73.4c-0.8-0.3-1.6-0.7-2.3-1.3c-0.3-0.2-0.5-0.5-0.7-0.8
			c0.1,0,0.2-0.1,0.3-0.2c0.2,0.3,0.4,0.5,0.6,0.7c0.7,0.7,1.6,1,2.4,1.3l0,0C128.6,73.2,128.4,73.3,128.3,73.4z"/>
		<path class="st16" d="M129.9,72.5c0,0,0.1,0.1,0.2,0.1l0,0c-0.2,0.1-0.3,0.1-0.5,0.2l0,0c-1-0.5-1.9-1.1-2.8-1.9
			c-0.1-0.1-0.2-0.2-0.3-0.3l0,0c0.1-0.1,0.2-0.1,0.3-0.2l0,0c0.1,0.1,0.2,0.2,0.3,0.3C128,71.4,128.9,72,129.9,72.5z"/>
		<path class="st16" d="M129.1,70.8c-0.5-0.3-1-0.6-1.5-1c0.1-0.1,0.2-0.2,0.2-0.2c0.4,0.4,0.9,0.7,1.4,1c0.7,0.3,1.4,0.5,2.1,0.6
			c0.5,0.1,1,0.2,1.6,0.2h0.1c-0.2,0.1-0.5,0.2-0.7,0.3h-0.1c-0.3,0-0.6-0.1-0.9-0.1C130.6,71.3,129.8,71.1,129.1,70.8z"/>
		<path class="st16" d="M133.9,63.5c0.7,0.4,1.3,1,1.8,1.6s1,1.2,1.3,1.9c0.1,0.2,0.1,0.3,0.2,0.5l0,0c-0.1,0.2-0.2,0.3-0.3,0.5l0,0
			c-0.3-0.9-0.8-1.8-1.4-2.6c-0.5-0.6-1.1-1.2-1.7-1.6c-0.2-0.1-0.5-0.2-0.7-0.3c0.1-0.1,0.2-0.1,0.3-0.2
			C133.6,63.3,133.8,63.4,133.9,63.5z"/>
		<path class="st16" d="M135.3,63.4c0.5,0.4,1.1,0.8,1.5,1.3c0.4,0.4,0.7,0.9,1,1.4l0,0c-0.1,0.2-0.2,0.4-0.2,0.6l0,0
			c0-0.1-0.1-0.2-0.1-0.3c-0.3-0.6-0.7-1.1-1.1-1.6c-0.4-0.4-0.9-0.8-1.4-1.2c-0.4-0.3-0.8-0.5-1.2-0.7c0.1-0.1,0.2-0.2,0.3-0.2
			C134.5,62.9,134.9,63.1,135.3,63.4z"/>
		<path class="st16" d="M135.9,62.3c1,0.6,1.7,1.6,2.3,2.6c0,0.3-0.1,0.5-0.2,0.7c-0.1-0.1-0.1-0.3-0.1-0.4
			c-0.6-1.1-1.4-2.1-2.4-2.7c-0.2-0.1-0.5-0.3-0.7-0.5c0.1-0.1,0.2-0.2,0.3-0.3C135.4,62,135.6,62.1,135.9,62.3z"/>
		<path class="st16" d="M138.5,63.1c0,0.3,0,0.6-0.1,0.9c-0.5-1-1.2-1.7-2.1-2.4c-0.2-0.2-0.4-0.3-0.5-0.5c0.1-0.1,0.3-0.2,0.4-0.4
			c0.2,0.2,0.3,0.4,0.6,0.6C137.4,61.8,138,62.4,138.5,63.1z"/>
		<path class="st16" d="M137.5,60.3c0.1,0.1,0.3,0.1,0.4,0.2c0.1,0.2,0.1,0.4,0.2,0.6L138,61c-0.3-0.2-0.7-0.3-1-0.5
			c-0.1,0-0.3-0.1-0.4-0.2c0.1-0.1,0.2-0.2,0.2-0.3l0,0C137,60.2,137.3,60.2,137.5,60.3z"/>
		<path class="st16" d="M133.9,65c0.4,0.5,0.7,1.1,0.9,1.6c0.2,0.6,0.4,1.1,0.3,1.7c0,0.3-0.1,0.5-0.3,0.7c-0.2,0.3-0.5,0.4-0.7,0.5
			c0,0-0.1,0-0.1-0.1c1-0.7,0.8-2.1,0.4-3.1c-0.4-1-1.3-1.6-2.1-2.3c0.1-0.1,0.2-0.1,0.3-0.2C133.1,64.2,133.5,64.6,133.9,65z"/>
		<path class="st16" d="M135.3,69.8c-0.2,0-0.5,0-0.7,0.1c-0.4,0-0.7,0.1-1.1,0.1c-0.7,0.1-1.3,0-1.9-0.2c-0.6-0.1-1.1-0.4-1.6-0.7
			c-0.3-0.2-0.5-0.4-0.8-0.7c-0.2-0.1-0.3-0.3-0.5-0.4l0,0c0-0.1,0.1-0.2,0.1-0.2l0,0c0.2,0.1,0.3,0.3,0.5,0.4s0.4,0.3,0.6,0.5
			c0.5,0.4,1.1,0.7,1.7,0.8c1.3,0.3,2.5,0,3.9-0.1c0,0,0.1,0,0.1,0.1l0,0c-0.1,0.1-0.1,0.1-0.2,0.2l0,0
			C135.4,69.8,135.4,69.8,135.3,69.8C135.4,69.8,135.3,69.8,135.3,69.8z"/>
		<path class="st16" d="M134,67.3c0.2-0.8-0.6-1.6-1.2-1.9c-0.3-0.2-1-0.4-1.4-0.1l0,0c-0.9,0.6-0.2,1.9,0.4,2.4
			c0.4,0.3,0.7,0.5,1.2,0.4C133.5,67.9,133.8,67.7,134,67.3z M133.6,67.1c-0.1,0.3-0.4,0.8-0.7,0.7c-0.3-0.1-0.7-0.3-0.9-0.5
			c-0.4-0.4-0.8-1.2-0.5-1.8c0.3-0.2,0.9,0,1.2,0.2C133.2,66,133.8,66.6,133.6,67.1z"/>
		<path class="st16" d="M132.9,66.7c0-0.2-0.1-0.4-0.3-0.5s-0.4-0.1-0.6,0v0.1l0,0c0,0.2,0.2,0.5,0.4,0.5
			C132.5,66.9,132.9,66.9,132.9,66.7z M132.7,66.6c0,0.1-0.3,0.1-0.3,0c-0.1,0-0.1-0.1-0.1-0.2v-0.1c0.1,0,0.2,0,0.3,0.1
			C132.6,66.4,132.7,66.5,132.7,66.6z"/>
		<path class="st16" d="M131.2,68.5c0.3-0.5,0-1.3-0.5-1.5c-0.2-0.1-0.5-0.1-0.7,0.1c0,0.1-0.1,0.1-0.1,0.2
			C129.3,67.9,130.7,69.3,131.2,68.5z M131,67.9c0,0.1,0,0.4-0.1,0.5c-0.3,0.2-0.6-0.1-0.8-0.3c-0.2-0.2-0.3-0.5-0.2-0.7
			c0,0.1,0.1,0.1,0.1,0.2l0,0c0-0.1,0-0.3,0.1-0.3c0.1-0.1,0.3,0,0.5,0.1C130.8,67.4,131,67.6,131,67.9z"/>
		<path class="st16" d="M130.5,68.1c-0.1-0.1-0.4-0.3-0.2-0.5h0.1c0,0,0.1-0.1,0.2,0c0.1,0.1,0.1,0.3,0.1,0.4
			C130.7,68.1,130.5,68.1,130.5,68.1z"/>
		<path class="st16" d="M124,72C124,72,124,71.9,124,72c0.5,0.7,1.1,1.3,1.8,1.9c0.1,0,0.1,0.1,0.1,0.1c-0.1,0-0.2,0-0.3,0.1
			C124.9,73.5,124.4,72.8,124,72z"/>
		<path class="st16" d="M122.7,72.6C122.7,72.6,122.8,72.6,122.7,72.6c0.4,0.5,0.7,1,1,1.6c-0.1,0-0.1,0-0.2,0
			C123.2,73.7,122.9,73.2,122.7,72.6z"/>
		<path class="st17" d="M129.6,66.5l-0.1-0.1h-0.1c0.1-0.1,0.2-0.2,0.3-0.2c0.2,0.2,0.6,0.1,0.8-0.3c0-0.1,0-0.2,0-0.2
			c0.1-0.1,0.3-0.2,0.4-0.3C131.4,66,130.3,67,129.6,66.5z"/>
		<path class="st18" d="M130.5,65.8c-0.1,0.5-0.5,0.5-0.8,0.3c0.3-0.2,0.5-0.4,0.8-0.6C130.5,65.6,130.5,65.7,130.5,65.8z"/>
		<path class="st17" d="M137.5,59.5c0,0.1-0.1,0.2-0.2,0.2c-0.1,0.1-0.2,0.2-0.3,0.2c-0.1,0.1-0.1,0.1-0.2,0.1l0,0
			c0.2-0.2,0.4-0.5,0.6-0.7C137.5,59.4,137.5,59.4,137.5,59.5z"/>
	</g>
	<g>
		<path class="st10" d="M307.9,78.4c0.1,0,0.2,0,0.3,0.1c-0.6,0.3-1.1,0.7-0.6,1.1l-0.1,0.1c0.1,0,0.3,0.1,0.4,0.2l0,0
			c0.5,0.2,0.9,0.5,1.5,0.6c0.7,0.1,1.5,0.4,2.2,0.4c1.3-0.1,2.7-0.6,3.9-1.2c0.3-0.1,0.5-0.3,0.7-0.4c1.7-0.9,3.3-1.8,4.9-2.6
			c0.4-0.2,0.7-0.4,1.1-0.7l0,0l0,0c0.9-0.7,1.7-1.5,2.3-2.5c0.8-1.5,1-2.9,0.9-4.6c-0.1-1.4-0.8-3.1-2-4.1c1.3-1.8,0.6-2.6-0.3-2.9
			c33.6,4.3-10.4,20.5-14.7,20.2C304.7,81.8,306.3,79.6,307.9,78.4z"/>
		<path class="st10" d="M323.2,61.7c-0.5-0.1-1.1-0.1-1.7-0.2C321.5,61.5,322.5,61.5,323.2,61.7z"/>
		<path class="st11" d="M307.9,79.9c-0.1-0.1-0.3-0.1-0.4-0.2l0.1-0.1c0,0,0,0,0.1,0.1C307.7,79.7,307.8,79.8,307.9,79.9z"/>
		<path class="st11" d="M309.4,80.1L309.4,80.1c0.6,0,1.2-0.1,1.8-0.2c0.1,0,0.2,0,0.3-0.1c0.7-0.1,1.3-0.3,2-0.5
			c0.7,0.1,1.4,0.2,2.1,0.3c-1.2,0.6-2.6,1.1-3.9,1.2c-0.8,0-1.5-0.2-2.2-0.4c-0.6-0.1-1-0.4-1.5-0.6c0.3,0.2,0.8,0.2,1.2,0.2
			C309.2,80.1,309.3,80.1,309.4,80.1z"/>
		<path class="st12" d="M313.9,79.2L313.9,79.2c0.2-0.1,0.4-0.1,0.5-0.2l0,0l0,0c0.1,0,0.1-0.1,0.2-0.1c0.2-0.1,0.4-0.2,0.6-0.3l0,0
			c0.2-0.1,0.3-0.1,0.5-0.2l0,0c0,0,0,0,0.1,0c0.7-0.3,1.4-0.6,2.1-0.9h0.1c0.2-0.1,0.5-0.2,0.7-0.3h-0.1c0,0,0.1,0,0.1-0.1
			c0.8-0.4,1.5-0.8,2.2-1.4c0,0,0,0,0.1,0l0.1-0.1c0.1,0,0.3,0.1,0.4,0.1c0.3,0.1,0.6,0.2,0.8,0.2l0,0c-0.3,0.2-0.7,0.5-1.1,0.7
			c-1.7,0.9-3.3,1.7-4.9,2.6c-0.2,0.2-0.5,0.3-0.7,0.4c-0.7-0.1-1.4-0.2-2.1-0.3C313.6,79.3,313.7,79.3,313.9,79.2z"/>
		<path class="st13" d="M325.5,68.8c0.1,1.7-0.1,3.1-0.9,4.6c-0.5,1-1.3,1.8-2.3,2.5l0,0c-0.3,0-0.5-0.1-0.8-0.2
			c-0.1,0-0.3-0.1-0.4-0.1l0,0c0.1-0.1,0.1-0.1,0.2-0.2l0,0l0,0c0.5-0.4,0.9-1,1.3-1.5l0,0c0.1-0.2,0.2-0.3,0.3-0.5l0,0l0,0
			c0.1-0.2,0.3-0.5,0.4-0.8l0,0c0.1-0.2,0.2-0.4,0.2-0.6l0,0l0,0c0.1-0.2,0.1-0.4,0.2-0.5c0.1-0.3,0.1-0.5,0.2-0.7
			c0.1-0.3,0.1-0.6,0.1-0.9s0.1-0.6,0.1-0.9c0-0.2,0-0.4,0-0.6c0-0.5-0.2-0.9-0.3-1.4c-0.1-0.2-0.1-0.4-0.2-0.6
			c0-0.1-0.1-0.2-0.1-0.4c-0.1-0.2-0.2-0.4-0.3-0.7c0-0.1,0-0.1-0.1-0.2c0.2-0.2,0.3-0.4,0.4-0.5C324.6,65.7,325.4,67.4,325.5,68.8z
			"/>
		<path class="st14" d="M315.3,72.4c-0.1,0.1-0.2,0.2-0.3,0.4c-0.2,0.2-0.3,0.5-0.4,0.8v0.1l0,0c0,0.1-0.1,0.2-0.1,0.2l0,0
			c-0.1,0.1-0.1,0.3-0.2,0.4c-0.1,0.3-0.3,0.6-0.6,0.9c-0.1,0.1-0.2,0.2-0.2,0.2c-0.2,0.3-0.5,0.5-0.8,0.7c0,0-0.1,0-0.1,0.1l0,0
			c-0.1,0.1-0.2,0.1-0.3,0.2l0,0c-0.3,0.2-0.5,0.3-0.8,0.5c-0.1,0.1-0.2,0.1-0.3,0.2c0,0,0,0-0.1,0c-0.4,0.2-0.8,0.4-1.3,0.6h-0.1
			c-0.2,0.1-0.4,0.2-0.6,0.3c-0.1,0.1-0.3,0.1-0.5,0.2c0,0-0.1,0-0.1,0.1c0,0,0,0-0.1,0s-0.1,0-0.2,0.1c-0.1,0-0.2,0-0.3-0.1
			c0.2-0.2,0.4-0.3,0.7-0.4c0.7-1.2,2.4-1.9,6.4-5.8h0.1C315.2,72.3,315.2,72.4,315.3,72.4z"/>
		<path class="st15" d="M318,72.5c-0.1,0-0.1-0.1-0.1-0.2v-0.1c0.1,0,0.2,0,0.3,0.1c0.1,0,0.2,0.1,0.2,0.2
			C318.3,72.6,318.1,72.5,318,72.5z"/>
		<path class="st15" d="M316.6,73.7c0-0.2-0.2-0.4-0.4-0.6c-0.1-0.1-0.3-0.2-0.5-0.1c-0.1,0-0.1,0.2-0.1,0.3l0,0
			c-0.1,0-0.1-0.1-0.1-0.2c0,0.2,0,0.5,0.2,0.7c0.1,0.2,0.5,0.5,0.8,0.3C316.6,74.1,316.6,73.9,316.6,73.7z M316.3,73.8
			c0,0.1-0.1,0.2-0.2,0.1s-0.4-0.3-0.2-0.5h0.1c0,0,0.1-0.1,0.2,0C316.2,73.6,316.3,73.7,316.3,73.8z"/>
		<path class="st15" d="M314.9,74.3c0.2,0.2,0.5,0.5,0.8,0.7c0.5,0.4,1,0.6,1.6,0.7c0.6,0.2,1.3,0.2,1.9,0.2c0.4,0,0.7-0.1,1.1-0.1
			c0.2,0,0.5,0,0.7-0.1c-0.7,0.6-1.4,1-2.2,1.4c0,0-0.1,0-0.1,0.1c-0.5,0-1.1-0.1-1.6-0.2c-0.7-0.1-1.4-0.3-2.1-0.6
			c-0.5-0.3-1-0.6-1.4-1c-0.1,0.1-0.2,0.2-0.2,0.2c0.4,0.4,0.9,0.7,1.5,1c0.7,0.3,1.5,0.6,2.3,0.7c0.3,0.1,0.6,0.1,0.9,0.1
			c-0.7,0.3-1.4,0.6-2.1,0.9c0,0,0,0-0.1,0s-0.1,0-0.2-0.1c-1-0.5-2-1.1-2.8-1.8c-0.1-0.1-0.2-0.2-0.3-0.3c0,0,0.1,0,0.1-0.1
			c0.3-0.2,0.5-0.4,0.8-0.7c0.1-0.1,0.2-0.2,0.2-0.2c0.3-0.3,0.5-0.6,0.6-0.9c0.1-0.1,0.1-0.3,0.2-0.4
			C314.5,74.1,314.7,74.2,314.9,74.3z"/>
		<path class="st15" d="M318.8,69.3c-0.1,0.1-0.3,0.2-0.5,0.4c0.4,0.4,0.8,0.8,1.2,1.2c0.4,0.5,0.7,1.1,0.9,1.6
			c0.2,0.6,0.4,1.1,0.3,1.7c0,0.3-0.1,0.5-0.3,0.7c-0.2,0.3-0.5,0.4-0.7,0.5c0,0-0.1,0-0.1-0.1c1-0.7,0.8-2.1,0.4-3.1
			s-1.3-1.6-2.1-2.3c-0.5,0.4-1,0.8-1.6,1.2c0.5,0.8-0.6,1.8-1.2,1.3c-0.1,0.1-0.2,0.2-0.3,0.4c-0.2,0.2-0.3,0.5-0.4,0.8v0.1
			c0.2,0.1,0.3,0.3,0.5,0.4s0.4,0.3,0.6,0.5c0.5,0.4,1.1,0.7,1.7,0.8c1.3,0.3,2.5,0,3.9-0.1c0,0,0.1,0,0.1,0.1l0,0
			c0.5-0.4,0.9-1,1.3-1.5c-0.3-0.9-0.8-1.8-1.4-2.6c-0.5-0.6-1.1-1.2-1.7-1.6C319.3,69.5,319,69.4,318.8,69.3z M316.8,74.4
			c-0.5,0.8-1.9-0.6-1.3-1.3c0-0.1,0-0.1,0.1-0.2c0.2-0.2,0.5-0.1,0.7-0.1C316.8,73,317.1,73.8,316.8,74.4z M319.6,73.2
			c-0.1,0.5-0.5,0.6-0.9,0.7c-0.5,0.1-0.9,0-1.2-0.4c-0.6-0.5-1.3-1.8-0.4-2.4l0,0c0.3-0.3,1,0,1.4,0.1
			C319,71.6,319.8,72.4,319.6,73.2z"/>
		<path class="st15" d="M319.3,73c0.2-0.6-0.5-1.1-0.9-1.4c-0.3-0.2-0.8-0.4-1.2-0.2c-0.4,0.6,0.1,1.4,0.5,1.8
			c0.2,0.2,0.6,0.5,0.9,0.5C318.8,73.8,319.2,73.3,319.3,73z M318.6,72.5c0,0.3-0.4,0.2-0.6,0.2c-0.2-0.1-0.4-0.3-0.4-0.5l0,0v-0.1
			c0.2-0.1,0.5-0.1,0.6,0C318.4,72.2,318.6,72.3,318.6,72.5z"/>
		<path class="st15" d="M320.6,69.5c0.5,0.4,1,0.8,1.4,1.2c0.4,0.5,0.9,1,1.1,1.6c0,0.1,0.1,0.2,0.1,0.3c-0.1,0.2-0.2,0.5-0.4,0.8
			l0,0c-0.1-0.2-0.1-0.3-0.2-0.5c-0.3-0.7-0.8-1.3-1.3-1.9s-1.2-1.2-1.8-1.6c-0.2-0.1-0.3-0.2-0.5-0.3c0.1-0.1,0.2-0.2,0.3-0.3
			C319.8,69,320.2,69.2,320.6,69.5z"/>
		<path class="st15" d="M323.6,66.9l0.1,0.1c-0.1-0.2-0.1-0.4-0.2-0.6c-0.1-0.1-0.3-0.1-0.4-0.2c-0.2-0.1-0.5-0.2-0.6-0.3
			c0.1,0,0.1-0.1,0.2-0.1c0.1-0.1,0.2-0.2,0.3-0.2c0.1,0,0.1-0.1,0.2-0.2c0.1,0.2,0.2,0.4,0.3,0.7c0,0.1,0.1,0.2,0.1,0.4
			c0.1,0.2,0.1,0.4,0.2,0.6c0.2,0.4,0.3,0.9,0.3,1.4c0,0.2,0,0.4,0,0.6c0,0.3,0,0.6-0.1,0.9c0,0.3-0.1,0.6-0.1,0.9s-0.1,0.5-0.2,0.7
			s-0.1,0.3-0.2,0.5l0,0c-0.3-0.5-0.7-1-1-1.4c-0.5-0.5-1-0.9-1.5-1.3c-0.4-0.3-0.8-0.5-1.3-0.7c0.3-0.2,0.5-0.4,0.8-0.7
			c0.2,0.2,0.4,0.3,0.7,0.5c1.1,0.6,1.9,1.6,2.4,2.7c0,0.1,0.1,0.3,0.1,0.4c0.1-0.3,0.1-0.5,0.2-0.7c-0.6-1-1.3-2-2.3-2.6
			c-0.3-0.2-0.6-0.3-0.8-0.5c0.2-0.2,0.5-0.4,0.7-0.6c0.1,0.2,0.3,0.3,0.5,0.5c0.9,0.6,1.6,1.4,2.1,2.4c0-0.3,0.1-0.6,0.1-0.9
			c-0.5-0.7-1-1.3-1.7-1.8c-0.3-0.2-0.4-0.4-0.6-0.6c0.2-0.2,0.3-0.3,0.5-0.5c0.1,0.1,0.3,0.2,0.4,0.2
			C323,66.5,323.3,66.7,323.6,66.9z"/>
		<path class="st15" d="M308.4,78.4c0,0,0.1,0,0.1-0.1c0.2-0.1,0.4-0.2,0.5-0.2c0.2-0.1,0.4-0.2,0.6-0.3h0.1
			c0.4-0.2,0.8-0.4,1.3-0.6c0,0,0,0,0.1,0s0.2-0.1,0.3-0.2c0.3-0.1,0.5-0.3,0.8-0.5c0.1,0.1,0.2,0.2,0.3,0.3
			c0.8,0.8,1.7,1.4,2.8,1.9c-0.2,0.1-0.4,0.2-0.6,0.3c-0.1,0-0.1,0.1-0.2,0.1l0,0c-0.9-0.3-1.7-0.6-2.4-1.3
			c-0.2-0.2-0.4-0.5-0.6-0.7c-0.1,0.1-0.2,0.1-0.3,0.2c0.2,0.3,0.4,0.5,0.7,0.8c0.7,0.6,1.4,1,2.2,1.3c-0.1,0.1-0.3,0.1-0.4,0.1
			c-0.6,0.2-1.3,0.4-2,0.5c-0.1,0-0.1-0.1-0.1-0.1c-0.6-0.6-1.2-1.2-1.7-1.9h-0.1c0.4,0.8,0.9,1.5,1.6,2.1c-0.6,0.1-1.1,0.1-1.7,0.1
			c0,0,0,0-0.1,0C309.1,79.5,308.7,79,308.4,78.4c0,0.1-0.1,0.1-0.1,0.1c0.2,0.6,0.5,1.1,0.8,1.6c-0.4,0-0.8-0.1-1.2-0.2l0,0
			c-0.1-0.1-0.2-0.1-0.3-0.2c0,0,0,0-0.1-0.1c-0.5-0.4,0-0.8,0.6-1.1C308.3,78.5,308.3,78.5,308.4,78.4L308.4,78.4z"/>
		<path class="st16" d="M313.9,79.2L313.9,79.2c-0.8-0.3-1.6-0.7-2.3-1.3c-0.3-0.2-0.5-0.5-0.7-0.8c0.1,0,0.2-0.1,0.3-0.2
			c0.2,0.3,0.4,0.5,0.6,0.7c0.7,0.7,1.6,1,2.4,1.3l0,0C314.2,79.1,314.1,79.2,313.9,79.2z"/>
		<path class="st16" d="M315.5,78.4c0,0,0.1,0.1,0.2,0.1l0,0c-0.2,0.1-0.3,0.1-0.5,0.2l0,0c-1-0.5-1.9-1.1-2.8-1.9
			c-0.1-0.1-0.2-0.2-0.3-0.3l0,0c0.1-0.1,0.2-0.1,0.3-0.2l0,0c0.1,0.1,0.2,0.2,0.3,0.3C313.6,77.3,314.6,77.9,315.5,78.4z"/>
		<path class="st16" d="M314.7,76.6c-0.5-0.3-1-0.6-1.5-1c0.1-0.1,0.2-0.2,0.2-0.2c0.4,0.4,0.9,0.7,1.4,1c0.7,0.3,1.4,0.5,2.1,0.6
			c0.5,0.1,1,0.2,1.6,0.2h0.1c-0.2,0.1-0.5,0.2-0.7,0.3h-0.1c-0.3,0-0.6-0.1-0.9-0.1C316.2,77.2,315.4,77,314.7,76.6z"/>
		<path class="st16" d="M319.6,69.4c0.7,0.4,1.3,1,1.8,1.6s1,1.2,1.3,1.9c0.1,0.2,0.1,0.3,0.2,0.5l0,0c-0.1,0.2-0.2,0.3-0.3,0.5l0,0
			c-0.3-0.9-0.8-1.8-1.4-2.6c-0.5-0.6-1.1-1.2-1.7-1.6c-0.2-0.1-0.5-0.2-0.7-0.3c0.1-0.1,0.2-0.1,0.3-0.2
			C319.2,69.2,319.4,69.3,319.6,69.4z"/>
		<path class="st16" d="M320.9,69.3c0.5,0.4,1.1,0.8,1.5,1.3c0.4,0.4,0.7,0.9,1,1.4l0,0c-0.1,0.2-0.2,0.4-0.2,0.6l0,0
			c0-0.1-0.1-0.2-0.1-0.3c-0.3-0.6-0.7-1.1-1.1-1.6c-0.4-0.4-0.9-0.8-1.4-1.2c-0.4-0.3-0.8-0.5-1.2-0.7c0.1-0.1,0.2-0.2,0.3-0.2
			C320.1,68.8,320.5,69,320.9,69.3z"/>
		<path class="st16" d="M321.5,68.2c1,0.6,1.7,1.6,2.3,2.6c0,0.3-0.1,0.5-0.2,0.7c-0.1-0.1-0.1-0.3-0.1-0.4
			c-0.6-1.1-1.4-2.1-2.4-2.7c-0.2-0.1-0.5-0.3-0.7-0.5c0.1-0.1,0.2-0.2,0.3-0.3C321,67.8,321.3,68,321.5,68.2z"/>
		<path class="st16" d="M324.1,69c0,0.3,0,0.6-0.1,0.9c-0.5-1-1.2-1.7-2.1-2.4c-0.2-0.2-0.4-0.3-0.5-0.5c0.1-0.1,0.3-0.2,0.4-0.4
			c0.2,0.2,0.3,0.4,0.6,0.6C323,67.7,323.6,68.3,324.1,69z"/>
		<path class="st16" d="M323.1,66.2c0.1,0.1,0.3,0.1,0.4,0.2c0.1,0.2,0.1,0.4,0.2,0.6l-0.1-0.1c-0.3-0.2-0.7-0.3-1-0.5
			c-0.1,0-0.3-0.1-0.4-0.2c0.1-0.1,0.2-0.2,0.2-0.3l0,0C322.7,66,323,66.1,323.1,66.2z"/>
		<path class="st16" d="M319.5,70.9c0.4,0.5,0.7,1.1,0.9,1.6c0.2,0.6,0.4,1.1,0.3,1.7c0,0.3-0.1,0.5-0.3,0.7
			c-0.2,0.3-0.5,0.4-0.7,0.5c0,0-0.1,0-0.1-0.1c1-0.7,0.8-2.1,0.4-3.1s-1.3-1.6-2.1-2.3c0.1-0.1,0.2-0.1,0.3-0.2
			C318.7,70.1,319.1,70.5,319.5,70.9z"/>
		<path class="st16" d="M321,75.7c-0.2,0-0.5,0-0.7,0.1c-0.4,0-0.7,0.1-1.1,0.1c-0.7,0.1-1.3,0-1.9-0.2c-0.6-0.1-1.1-0.4-1.6-0.7
			c-0.3-0.2-0.5-0.4-0.8-0.7c-0.2-0.1-0.3-0.3-0.5-0.4l0,0c0-0.1,0.1-0.2,0.1-0.2l0,0c0.2,0.1,0.3,0.3,0.5,0.4s0.4,0.3,0.6,0.5
			c0.5,0.4,1.1,0.7,1.7,0.8c1.3,0.3,2.5,0,3.9-0.1c0,0,0.1,0,0.1,0.1l0,0c-0.1,0.1-0.1,0.1-0.2,0.2l0,0
			C321.1,75.6,321,75.7,321,75.7L321,75.7z"/>
		<path class="st16" d="M319.6,73.2c0.2-0.8-0.6-1.6-1.2-1.9c-0.3-0.2-1-0.4-1.4-0.1l0,0c-0.9,0.6-0.2,1.9,0.4,2.4
			c0.4,0.3,0.7,0.5,1.2,0.4C319.1,73.8,319.5,73.6,319.6,73.2z M319.3,73c-0.1,0.3-0.4,0.8-0.7,0.7c-0.3-0.1-0.7-0.3-0.9-0.5
			c-0.4-0.4-0.8-1.2-0.5-1.8c0.3-0.2,0.9,0,1.2,0.2C318.8,71.9,319.4,72.4,319.3,73z"/>
		<path class="st16" d="M318.6,72.5c0-0.2-0.1-0.4-0.3-0.5c-0.2-0.1-0.4-0.1-0.6,0v0.1l0,0c0,0.2,0.2,0.5,0.4,0.5
			C318.2,72.8,318.5,72.8,318.6,72.5z M318.4,72.5c0,0.1-0.3,0.1-0.3,0c-0.1,0-0.1-0.1-0.1-0.2v-0.1c0.1,0,0.2,0,0.3,0.1
			C318.2,72.3,318.3,72.4,318.4,72.5z"/>
		<path class="st16" d="M316.8,74.4c0.3-0.5,0-1.3-0.5-1.5c-0.2-0.1-0.5-0.1-0.7,0.1c0,0.1-0.1,0.1-0.1,0.2
			C314.9,73.8,316.3,75.1,316.8,74.4z M316.6,73.7c0,0.1,0,0.4-0.1,0.5c-0.3,0.2-0.6-0.1-0.8-0.3c-0.2-0.2-0.3-0.5-0.2-0.7
			c0,0.1,0.1,0.1,0.1,0.2l0,0c0-0.1,0-0.3,0.1-0.3c0.1-0.1,0.3,0,0.5,0.1C316.5,73.3,316.6,73.5,316.6,73.7z"/>
		<path class="st16" d="M316.1,74c-0.1-0.1-0.4-0.3-0.2-0.5h0.1c0,0,0.1-0.1,0.2,0s0.1,0.3,0.1,0.4C316.3,73.9,316.2,74,316.1,74z"
			/>
		<path class="st16" d="M309.6,77.9C309.6,77.9,309.7,77.8,309.6,77.9c0.5,0.7,1.1,1.3,1.8,1.9c0.1,0,0.1,0.1,0.1,0.1
			c-0.1,0-0.2,0-0.3,0.1C310.5,79.4,310,78.6,309.6,77.9z"/>
		<path class="st16" d="M308.3,78.5c0,0,0.1,0,0.1-0.1c0.3,0.6,0.6,1.1,0.9,1.7c-0.1,0-0.1,0-0.2,0
			C308.8,79.6,308.6,79.1,308.3,78.5z"/>
		<path class="st17" d="M315.3,72.4l-0.1-0.1h-0.1c0.1-0.1,0.2-0.2,0.3-0.2c0.2,0.2,0.6,0.1,0.8-0.3c0-0.1,0-0.2,0-0.2
			c0.1-0.1,0.3-0.2,0.4-0.3C317,71.9,315.9,72.9,315.3,72.4z"/>
		<path class="st18" d="M316.1,71.6c-0.1,0.5-0.5,0.5-0.8,0.3c0.3-0.2,0.5-0.4,0.8-0.6C316.1,71.5,316.1,71.6,316.1,71.6z"/>
		<path class="st17" d="M323.1,65.4c0,0.1-0.1,0.2-0.2,0.2c-0.1,0.1-0.2,0.2-0.3,0.2c-0.1,0.1-0.1,0.1-0.2,0.1l0,0
			c0.2-0.2,0.4-0.5,0.6-0.7C323.1,65.2,323.2,65.3,323.1,65.4z"/>
	</g>
	<g>
		<path class="st10" d="M194.7,87.6c0.1,0.1,0.2,0.1,0.2,0.2c-0.7,0-1.3,0.1-1,0.7l-0.1,0.1c0.1,0.1,0.2,0.2,0.3,0.3l0,0
			c0.3,0.4,0.7,0.8,1.1,1.2c0.6,0.4,1.2,1,1.9,1.2c1.2,0.4,2.7,0.5,4,0.4c0.3,0,0.6,0,0.8-0.1c1.9-0.2,3.7-0.3,5.6-0.4
			c0.4,0,0.8-0.1,1.2-0.2l0,0l0,0c1.1-0.2,2.2-0.7,3.1-1.4c1.4-1,2.1-2.3,2.7-3.9c0.5-1.3,0.5-3.1-0.1-4.6c1.9-1.2,1.6-2.1,0.9-2.8
			c29,17.6-17.8,14.5-21.6,12.6C190.4,89.3,192.7,88,194.7,87.6z"/>
		<path class="st10" d="M215.4,78.5c-0.5-0.3-1-0.6-1.5-0.9C214,77.6,214.9,77.9,215.4,78.5z"/>
		<path class="st11" d="M194.1,88.9c-0.1-0.1-0.2-0.2-0.3-0.3l0.1-0.1v0.1C194,88.7,194,88.8,194.1,88.9z"/>
		<path class="st11" d="M195.3,89.7C195.4,89.7,195.4,89.7,195.3,89.7c0.6,0.2,1.1,0.4,1.7,0.6c0.1,0,0.2,0.1,0.3,0.1
			c0.7,0.2,1.3,0.3,2,0.3c0.6,0.4,1.2,0.8,1.8,1.1c-1.4,0.1-2.8,0-4-0.4c-0.7-0.3-1.3-0.8-1.9-1.2c-0.5-0.3-0.8-0.8-1.1-1.2
			c0.2,0.3,0.6,0.5,1,0.7C195.2,89.7,195.3,89.7,195.3,89.7z"/>
		<path class="st12" d="M199.8,90.7L199.8,90.7c0.2,0,0.4,0,0.6,0l0,0l0,0c0.1,0,0.2,0,0.2,0c0.2,0,0.4,0,0.7,0l0,0
			c0.2,0,0.3,0,0.5,0l0,0c0,0,0,0,0.1,0c0.8,0,1.5,0.1,2.3,0c0,0,0.1,0,0.1,0.1c0.3,0,0.5,0,0.8,0c0,0-0.1,0-0.1-0.1
			c0.1,0,0.1,0,0.2,0c0.9-0.1,1.7-0.2,2.6-0.4c0,0,0,0,0.1,0h0.1c0.1,0.1,0.2,0.2,0.3,0.3c0.2,0.2,0.4,0.4,0.7,0.5l0,0
			c-0.4,0.1-0.8,0.2-1.2,0.2c-1.9,0.1-3.7,0.3-5.6,0.4c-0.3,0-0.6,0.1-0.8,0.1c-0.6-0.3-1.2-0.7-1.8-1.1
			C199.5,90.7,199.7,90.7,199.8,90.7z"/>
		<path class="st13" d="M214.6,85.9c-0.6,1.6-1.3,2.8-2.7,3.9c-0.9,0.7-2,1.1-3.1,1.4l0,0c-0.2-0.1-0.5-0.3-0.7-0.5
			c-0.1-0.1-0.2-0.2-0.3-0.3c0,0,0,0,0.1,0s0.1-0.1,0.2-0.1l0,0c0,0,0,0,0.1,0c0.6-0.2,1.2-0.5,1.8-0.9l0,0c0.1-0.1,0.3-0.2,0.4-0.3
			l0,0l0,0c0.2-0.2,0.5-0.4,0.7-0.6l0,0c0.1-0.1,0.3-0.3,0.4-0.4l0,0l0,0c0.1-0.1,0.3-0.3,0.4-0.4c0.2-0.2,0.3-0.4,0.5-0.6
			c0.2-0.3,0.3-0.5,0.5-0.7c0.2-0.3,0.3-0.5,0.4-0.8c0.1-0.2,0.2-0.4,0.2-0.5c0.2-0.4,0.2-0.9,0.3-1.4c0-0.2,0-0.4,0-0.6
			c0-0.1,0-0.3,0-0.4c0-0.2,0-0.5,0-0.7c0,0,0-0.1,0-0.2c0.2-0.1,0.4-0.2,0.6-0.3C215.1,82.7,215.1,84.5,214.6,85.9z"/>
		<path class="st14" d="M203.8,85c-0.1,0.1-0.3,0.1-0.5,0.2c-0.3,0.2-0.5,0.4-0.7,0.6l-0.1,0.1l0,0c-0.1,0.1-0.1,0.1-0.2,0.2l0,0
			c-0.1,0.1-0.2,0.2-0.3,0.3c-0.3,0.3-0.6,0.4-0.9,0.6c-0.1,0-0.2,0.1-0.3,0.1c-0.3,0.1-0.6,0.2-1,0.3h-0.1l0,0
			c-0.1,0-0.2,0-0.3,0.1l0,0c-0.3,0.1-0.6,0.1-0.9,0.1c-0.1,0-0.2,0-0.4,0H198c-0.5,0-0.9,0-1.4,0.1h-0.1c-0.2,0-0.5,0-0.7,0
			c-0.1,0-0.3,0-0.5,0c-0.1,0-0.1,0-0.2,0H195c-0.1,0-0.1,0-0.2,0c-0.1-0.1-0.2-0.1-0.2-0.2c0.3-0.1,0.5-0.1,0.8-0.1
			c1.1-0.8,3-0.8,8.2-2.7l0.1,0.1C203.8,84.9,203.8,85,203.8,85z"/>
		<path class="st15" d="M206.3,86.2c0-0.1-0.1-0.2,0-0.2v-0.1c0.1,0,0.2,0.1,0.2,0.2c0.1,0.1,0.1,0.2,0.1,0.3
			C206.6,86.5,206.3,86.3,206.3,86.2z"/>
		<path class="st15" d="M204.6,86.8c0.1-0.2,0-0.5-0.1-0.7c-0.1-0.1-0.2-0.3-0.4-0.3c-0.1,0-0.2,0.1-0.3,0.2h-0.1
			c0-0.1-0.1-0.1-0.1-0.2c-0.1,0.2-0.2,0.4-0.1,0.7c0.1,0.2,0.3,0.7,0.6,0.6C204.4,87.2,204.5,87,204.6,86.8z M204.2,86.8
			c0,0.1-0.2,0.1-0.2,0s-0.2-0.4,0-0.5h0.1c0.1,0,0.1,0,0.1,0.1C204.2,86.5,204.2,86.7,204.2,86.8z"/>
		<path class="st15" d="M202.7,86.6c0.1,0.3,0.3,0.6,0.5,0.9c0.3,0.5,0.7,1,1.2,1.3c0.5,0.4,1.1,0.7,1.7,0.9c0.3,0.1,0.7,0.2,1,0.3
			c0.2,0.1,0.4,0.2,0.6,0.2c-0.9,0.2-1.7,0.4-2.6,0.4c-0.1,0-0.1,0-0.2,0c-0.5-0.2-0.9-0.5-1.4-0.8c-0.6-0.4-1.2-0.9-1.7-1.4
			c-0.4-0.5-0.7-0.9-0.9-1.5c-0.1,0-0.2,0.1-0.3,0.1c0.2,0.5,0.5,1,0.9,1.5c0.5,0.6,1.1,1.1,1.8,1.6c0.2,0.2,0.5,0.3,0.8,0.5
			c-0.8,0-1.5,0-2.3,0c0,0,0,0-0.1,0l-0.1-0.1c-0.7-0.8-1.4-1.8-1.8-2.8c-0.1-0.1-0.1-0.2-0.2-0.4h0.1c0.3-0.1,0.6-0.2,1-0.3
			c0.1,0,0.2-0.1,0.3-0.1c0.4-0.2,0.7-0.4,0.9-0.6c0.1-0.1,0.2-0.2,0.3-0.3C202.5,86.3,202.6,86.4,202.7,86.6z"/>
		<path class="st15" d="M208.3,83.7c-0.2,0-0.4,0.1-0.6,0.2c0.2,0.5,0.4,1,0.6,1.6c0.2,0.6,0.2,1.2,0.2,1.9c0,0.6-0.1,1.1-0.4,1.7
			c-0.1,0.2-0.3,0.4-0.5,0.5c-0.3,0.2-0.6,0.2-0.9,0.2c-0.1,0-0.1-0.1,0-0.1c1.2-0.3,1.6-1.6,1.6-2.7c0.1-1-0.6-2-1-2.9
			c-0.6,0.2-1.2,0.3-1.9,0.5c0.2,0.9-1.3,1.4-1.6,0.7c-0.1,0.1-0.3,0.1-0.5,0.2c-0.3,0.2-0.5,0.4-0.7,0.6l-0.1,0.1
			c0.1,0.2,0.2,0.4,0.3,0.6s0.2,0.5,0.4,0.7c0.3,0.6,0.7,1,1.3,1.4c1.1,0.8,2.3,1,3.6,1.5l0.1,0.1c0,0,0,0,0.1,0
			c0.6-0.2,1.2-0.5,1.8-0.9c0.1-1,0-2-0.3-2.9c-0.2-0.7-0.5-1.5-0.9-2.2C208.7,84,208.5,83.8,208.3,83.7z M204.4,87.5
			c-0.8,0.5-1.5-1.3-0.7-1.7c0-0.1,0.1-0.1,0.1-0.2c0.2-0.1,0.5,0.1,0.6,0.2C205,86.3,204.9,87.1,204.4,87.5z M207.5,87.5
			c-0.3,0.4-0.7,0.3-1.1,0.3c-0.5-0.1-0.8-0.4-1-0.8c-0.3-0.7-0.5-2.2,0.6-2.4l0,0c0.4-0.1,1,0.4,1.2,0.7
			C207.6,85.8,208,86.9,207.5,87.5z"/>
		<path class="st15" d="M207.2,87.2c0.4-0.5,0-1.2-0.3-1.6c-0.2-0.3-0.6-0.7-1-0.7c-0.6,0.4-0.5,1.3-0.3,1.8
			c0.1,0.3,0.3,0.6,0.6,0.8C206.5,87.8,207.1,87.4,207.2,87.2z M206.8,86.5c-0.1,0.2-0.5,0.1-0.6-0.1c-0.1-0.1-0.2-0.5-0.1-0.7
			c0,0,0,0,0-0.1c0,0,0-0.1,0.1-0.1c0.2,0,0.5,0.1,0.6,0.3C206.8,86.1,206.9,86.3,206.8,86.5z"/>
		<path class="st15" d="M209.9,84.6c0.3,0.5,0.6,1.1,0.8,1.6c0.2,0.6,0.4,1.3,0.4,1.9c0,0.1,0,0.3,0,0.3c-0.2,0.2-0.4,0.4-0.7,0.6
			l0,0c0-0.2,0-0.4,0-0.6c0-0.8-0.2-1.5-0.4-2.2c-0.3-0.7-0.6-1.5-1-2.2c-0.1-0.2-0.2-0.3-0.4-0.4c0.1,0,0.3-0.1,0.4-0.1
			C209.3,83.8,209.7,84.1,209.9,84.6z"/>
		<path class="st15" d="M213.7,83.4C213.7,83.5,213.7,83.5,213.7,83.4s0-0.3,0-0.5c-0.1-0.1-0.2-0.2-0.3-0.3
			c-0.1-0.2-0.3-0.3-0.4-0.5c0.1,0,0.2,0,0.2,0c0.1,0,0.2-0.1,0.4-0.1c0.1,0,0.2,0,0.2-0.1c0,0.2,0,0.5,0,0.7c0,0.1,0,0.3,0,0.4
			c0,0.2,0,0.4,0,0.6c0,0.5-0.1,1-0.3,1.4c-0.1,0.2-0.2,0.4-0.2,0.5c-0.1,0.3-0.3,0.5-0.4,0.8c-0.2,0.3-0.3,0.5-0.5,0.7
			c-0.1,0.2-0.3,0.4-0.5,0.6c-0.1,0.1-0.3,0.3-0.4,0.4l0,0c-0.1-0.6-0.2-1.2-0.4-1.7c-0.2-0.6-0.5-1.2-0.8-1.8
			c-0.2-0.4-0.6-0.8-0.9-1.2c0.3-0.1,0.7-0.2,1-0.3c0.1,0.2,0.3,0.5,0.4,0.7c0.7,1,1.1,2.2,1.1,3.5c0,0.1,0,0.3,0,0.4
			c0.2-0.2,0.3-0.4,0.5-0.6c-0.1-1.2-0.4-2.3-1.1-3.3c-0.2-0.3-0.4-0.5-0.5-0.8c0.3-0.1,0.6-0.2,0.9-0.3c0.1,0.2,0.2,0.4,0.3,0.7
			c0.5,0.9,0.9,1.9,1,3c0.2-0.3,0.3-0.5,0.4-0.8c-0.2-0.8-0.4-1.6-0.9-2.3c-0.2-0.3-0.3-0.5-0.3-0.8c0.2-0.1,0.4-0.2,0.6-0.2
			c0.1,0.1,0.2,0.3,0.3,0.3C213.3,82.8,213.5,83.1,213.7,83.4z"/>
		<path class="st15" d="M195.2,87.8c0.1,0,0.1,0,0.2,0c0.2,0,0.4,0,0.5,0c0.2,0,0.4,0,0.7,0h0.1c0.5,0,0.9,0,1.4-0.1h0.1
			c0.1,0,0.2,0,0.4,0c0.3,0,0.6-0.1,0.9-0.1c0,0.1,0.1,0.2,0.1,0.3c0.4,1.1,1,2,1.7,2.9c-0.2,0-0.4,0-0.7,0c-0.1,0-0.2,0-0.2,0l0,0
			c-0.7-0.6-1.3-1.3-1.7-2.1c-0.1-0.3-0.2-0.6-0.3-0.9c-0.1,0-0.2,0-0.4,0c0.1,0.3,0.2,0.6,0.3,1c0.4,0.8,0.9,1.5,1.5,2.1
			c-0.1,0-0.3,0-0.4,0c-0.7-0.1-1.4-0.2-2-0.3c0-0.1,0-0.1-0.1-0.2c-0.4-0.8-0.6-1.6-0.7-2.4h-0.1c0.1,0.9,0.2,1.7,0.6,2.5
			c-0.5-0.1-1.1-0.3-1.6-0.5c0,0,0,0-0.1,0C195.3,89.1,195.2,88.5,195.2,87.8h-0.1c0,0.6,0,1.2,0.1,1.8c-0.4-0.2-0.7-0.4-1-0.7l0,0
			c-0.1-0.1-0.1-0.2-0.2-0.3v-0.1c-0.3-0.6,0.3-0.7,1-0.7C195,87.8,195,87.8,195.2,87.8C195.1,87.8,195.1,87.8,195.2,87.8z"/>
		<path class="st16" d="M199.8,90.7L199.8,90.7c-0.6-0.6-1.2-1.3-1.6-2.1c-0.1-0.3-0.2-0.6-0.3-1c0.1,0,0.2,0,0.4,0
			c0.1,0.3,0.1,0.6,0.3,0.9c0.4,0.9,1,1.5,1.7,2.1l0,0C200.2,90.8,200,90.8,199.8,90.7z"/>
		<path class="st16" d="M201.7,90.6l0.1,0.1l0,0c-0.2,0-0.3,0-0.5,0l0,0c-0.7-0.8-1.3-1.8-1.7-2.9c0-0.1-0.1-0.2-0.1-0.3l0,0
			c0.1,0,0.2,0,0.3-0.1l0,0c0.1,0.1,0.1,0.3,0.2,0.4C200.3,88.8,201,89.8,201.7,90.6z"/>
		<path class="st16" d="M201.6,88.7c-0.4-0.5-0.7-1-0.9-1.5c0.1,0,0.2-0.1,0.3-0.1c0.2,0.5,0.6,1,0.9,1.5c0.5,0.6,1.1,1,1.7,1.4
			c0.4,0.3,0.9,0.6,1.4,0.8c0,0,0.1,0,0.1,0.1c-0.3,0-0.5,0-0.8,0c0,0-0.1,0-0.1-0.1c-0.3-0.2-0.5-0.3-0.8-0.5
			C202.8,89.8,202.1,89.3,201.6,88.7z"/>
		<path class="st16" d="M209,84c0.4,0.7,0.8,1.5,1,2.2s0.4,1.5,0.4,2.2c0,0.2,0,0.4,0,0.6l0,0c-0.1,0.1-0.3,0.2-0.4,0.3l0,0
			c0.1-1,0-2-0.3-2.9c-0.2-0.7-0.5-1.5-0.9-2.2c-0.1-0.2-0.3-0.4-0.5-0.6c0.1,0,0.2-0.1,0.3-0.1C208.7,83.7,208.9,83.8,209,84z"/>
		<path class="st16" d="M210.3,84.5c0.3,0.6,0.6,1.2,0.8,1.8c0.2,0.5,0.3,1.1,0.4,1.7l0,0c-0.2,0.2-0.3,0.3-0.4,0.4l0,0
			c0-0.1,0-0.2,0-0.3c0-0.7-0.2-1.3-0.4-1.9s-0.5-1.1-0.8-1.6c-0.2-0.4-0.6-0.8-0.8-1.1c0.1,0,0.2-0.1,0.3-0.1
			C209.7,83.7,210,84.1,210.3,84.5z"/>
		<path class="st16" d="M211.3,83.7c0.7,1,1,2.1,1.1,3.3c-0.1,0.2-0.3,0.4-0.5,0.6c0-0.1,0-0.3,0-0.4c-0.1-1.3-0.4-2.5-1.1-3.5
			c-0.2-0.2-0.3-0.4-0.4-0.7c0.1,0,0.3-0.1,0.4-0.1C210.9,83.2,211.1,83.5,211.3,83.7z"/>
		<path class="st16" d="M213.3,85.5c-0.1,0.3-0.3,0.5-0.4,0.8c-0.1-1.1-0.4-2.1-1-3c-0.1-0.2-0.2-0.4-0.3-0.7
			c0.2-0.1,0.3-0.1,0.5-0.2c0.1,0.3,0.2,0.5,0.3,0.8C212.9,83.9,213.1,84.7,213.3,85.5z"/>
		<path class="st16" d="M213.5,82.6c0.1,0.1,0.2,0.2,0.3,0.3c0,0.2,0,0.4,0,0.6c0-0.1,0-0.1,0-0.1c-0.2-0.3-0.5-0.6-0.7-0.9
			c-0.1-0.1-0.2-0.2-0.3-0.3c0.1,0,0.2-0.1,0.3-0.1l0,0C213.2,82.2,213.4,82.4,213.5,82.6z"/>
		<path class="st16" d="M208.3,85.4c0.2,0.6,0.2,1.2,0.2,1.9c0,0.6-0.1,1.1-0.4,1.7c-0.1,0.2-0.3,0.4-0.5,0.5
			c-0.3,0.2-0.6,0.2-0.9,0.2c-0.1,0-0.1-0.1,0-0.1c1.2-0.3,1.6-1.6,1.6-2.7c0.1-1-0.6-2-1-2.9c0.1,0,0.2-0.1,0.3-0.1
			C207.9,84.3,208.1,84.8,208.3,85.4z"/>
		<path class="st16" d="M207.7,90.4c-0.2-0.1-0.4-0.2-0.6-0.2c-0.3-0.1-0.7-0.2-1-0.3c-0.6-0.2-1.2-0.5-1.7-0.9s-0.9-0.8-1.2-1.3
			c-0.2-0.3-0.3-0.6-0.5-0.9c-0.1-0.2-0.2-0.4-0.3-0.6l0,0c0.1-0.1,0.1-0.1,0.2-0.2l0,0c0.1,0.2,0.2,0.4,0.3,0.6s0.2,0.5,0.4,0.7
			c0.3,0.6,0.7,1,1.3,1.4c1.1,0.8,2.3,1,3.6,1.5l0.1,0.1l0,0c-0.1,0-0.1,0.1-0.2,0.1c0,0,0,0-0.1,0
			C207.8,90.4,207.8,90.4,207.7,90.4L207.7,90.4z"/>
		<path class="st16" d="M207.5,87.5c0.5-0.6,0.1-1.7-0.3-2.2c-0.2-0.3-0.8-0.8-1.2-0.7l0,0c-1,0.2-0.9,1.7-0.6,2.4
			c0.2,0.4,0.5,0.7,1,0.8C206.8,87.8,207.2,87.9,207.5,87.5z M207.2,87.2c-0.2,0.2-0.7,0.5-0.9,0.4c-0.3-0.2-0.5-0.5-0.6-0.8
			c-0.2-0.6-0.3-1.4,0.3-1.8c0.4-0.1,0.8,0.4,1,0.7C207.3,86,207.6,86.8,207.2,87.2z"/>
		<path class="st16" d="M206.8,86.5c0.1-0.2,0-0.4-0.1-0.5c-0.1-0.2-0.3-0.3-0.6-0.3c0,0-0.1,0-0.1,0.1c0,0,0,0,0,0.1
			c-0.1,0.2,0,0.5,0.1,0.7C206.3,86.6,206.7,86.7,206.8,86.5z M206.6,86.4c-0.1,0.1-0.3-0.1-0.3-0.1c0-0.1-0.1-0.2,0-0.2V86
			c0.1,0,0.2,0.1,0.2,0.2C206.6,86.1,206.7,86.3,206.6,86.4z"/>
		<path class="st16" d="M204.4,87.5c0.5-0.4,0.6-1.2,0.1-1.6c-0.2-0.2-0.4-0.3-0.6-0.2c-0.1,0-0.1,0.1-0.1,0.2
			C203,86.2,203.7,88,204.4,87.5z M204.6,86.8c-0.1,0.1-0.2,0.4-0.3,0.4c-0.3,0.1-0.5-0.4-0.6-0.6c-0.1-0.3-0.1-0.5,0.1-0.7
			c0,0.1,0,0.1,0.1,0.2c0,0,0,0,0.1,0c0.1-0.1,0.1-0.3,0.3-0.2c0.2,0,0.3,0.1,0.4,0.3C204.6,86.4,204.7,86.6,204.6,86.8z"/>
		<path class="st16" d="M203.9,86.8c0-0.1-0.2-0.4,0-0.5h0.1c0.1,0,0.1,0,0.1,0.1s0,0.3,0,0.4S204,86.9,203.9,86.8z"/>
		<path class="st16" d="M196.4,87.7h0.1c0.1,0.8,0.4,1.7,0.7,2.4c0,0.1,0,0.1,0.1,0.2c-0.1,0-0.2,0-0.3-0.1
			C196.7,89.5,196.5,88.6,196.4,87.7z"/>
		<path class="st16" d="M195,87.8c0.1,0,0.1,0,0.2,0c0,0.7,0.1,1.3,0.2,1.9c-0.1,0-0.1,0-0.2-0.1C195,89,195,88.4,195,87.8z"/>
		<path class="st17" d="M203.8,85c0-0.1-0.1-0.1-0.1-0.2l-0.1-0.1c0.1,0,0.3-0.1,0.4-0.1c0.2,0.2,0.5,0.4,0.8,0
			c0.1-0.1,0.1-0.1,0.1-0.2c0.2,0,0.3-0.1,0.5-0.1C205.6,85.3,204.2,85.7,203.8,85z"/>
		<path class="st18" d="M204.9,84.7c-0.3,0.4-0.7,0.2-0.8,0c0.3-0.1,0.6-0.1,0.9-0.2C205,84.5,204.9,84.6,204.9,84.7z"/>
		<path class="st17" d="M213.9,81.8c0,0.1-0.1,0.1-0.2,0.1c-0.1,0-0.2,0.1-0.4,0.1c-0.1,0-0.2,0-0.2,0l0,0c0.3-0.1,0.6-0.3,0.8-0.4
			C213.9,81.7,213.9,81.7,213.9,81.8z"/>
	</g>
	<g>
		<path class="st10" d="M186.8,57.2c0-0.1,0.1-0.1,0.1-0.2c-0.5,0.2-1,0.2-0.9-0.3h-0.1c0.1-0.1,0.1-0.2,0.2-0.3l0,0
			c0.1-0.4,0.3-0.8,0.5-1.1c0.3-0.5,0.6-1,1-1.4c0.7-0.6,1.8-1.1,2.8-1.4c0.2-0.1,0.4-0.1,0.6-0.2c1.4-0.4,2.8-0.8,4.1-1.2
			c0.3-0.1,0.6-0.1,0.9-0.2l0,0l0,0c0.9-0.1,1.8-0.1,2.6,0.2c1.3,0.4,2.1,1.1,2.9,2.1c0.7,0.8,1.2,2.1,1.1,3.3
			c1.7,0.4,1.7,1.1,1.4,1.8c16.3-20.3-16.7-5.8-18.9-3.4C183.2,57.1,185.2,57.4,186.8,57.2z"/>
		<path class="st10" d="M204.2,58.3c-0.3,0.3-0.5,0.7-0.8,1C203.3,59.3,203.9,58.9,204.2,58.3z"/>
		<path class="st11" d="M186,56.4c0,0.1-0.1,0.2-0.2,0.3h0.1c0,0,0,0,0-0.1C186,56.6,186,56.5,186,56.4z"/>
		<path class="st11" d="M186.7,55.5L186.7,55.5c0.4-0.3,0.7-0.6,1.1-0.9c0.1-0.1,0.1-0.1,0.2-0.1c0.4-0.3,0.9-0.5,1.4-0.8
			c0.3-0.4,0.7-0.9,1-1.3c-1,0.3-2,0.7-2.8,1.4c-0.4,0.4-0.7,0.9-1,1.4c-0.3,0.4-0.4,0.8-0.5,1.1c0.1-0.3,0.3-0.5,0.5-0.8
			C186.6,55.6,186.6,55.5,186.7,55.5z"/>
		<path class="st12" d="M189.6,53.6L189.6,53.6c0.1-0.1,0.3-0.1,0.4-0.2l0,0l0,0c0.1,0,0.1,0,0.2-0.1c0.2-0.1,0.3-0.1,0.5-0.2l0,0
			c0.1-0.1,0.2-0.1,0.4-0.1l0,0c0,0,0,0,0.1,0c0.5-0.2,1.1-0.4,1.7-0.6c0,0,0,0,0.1-0.1c0.2-0.1,0.4-0.1,0.6-0.2c0,0,0,0.1-0.1,0.1
			h0.1c0.6-0.2,1.3-0.3,2-0.4l0,0h0.1c0-0.1,0.1-0.2,0.1-0.3c0.1-0.2,0.2-0.4,0.4-0.5l0,0c-0.3,0.1-0.6,0.1-0.9,0.2
			c-1.4,0.4-2.7,0.8-4.1,1.2c-0.2,0-0.4,0.1-0.6,0.2c-0.4,0.4-0.7,0.8-1,1.3C189.4,53.7,189.5,53.6,189.6,53.6z"/>
		<path class="st13" d="M201.6,53.2c-0.8-1-1.7-1.7-2.9-2.1c-0.8-0.3-1.7-0.3-2.6-0.2l0,0c-0.1,0.2-0.3,0.3-0.4,0.5
			c0,0.1-0.1,0.2-0.1,0.3l0,0c0.1,0,0.1,0,0.2,0l0,0l0,0c0.5,0,1,0.1,1.5,0.2l0,0c0.1,0,0.3,0.1,0.4,0.1l0,0l0,0
			c0.2,0.1,0.4,0.1,0.6,0.2l0,0c0.1,0.1,0.3,0.1,0.4,0.2l0,0l0,0c0.1,0.1,0.3,0.1,0.4,0.2c0.2,0.1,0.3,0.2,0.5,0.3s0.4,0.3,0.6,0.4
			c0.2,0.1,0.3,0.3,0.5,0.5c0.1,0.1,0.2,0.2,0.3,0.3c0.2,0.3,0.4,0.6,0.6,1c0.1,0.1,0.1,0.3,0.2,0.4c0,0.1,0.1,0.2,0.1,0.3
			c0.1,0.2,0.1,0.3,0.2,0.5l0.1,0.1c0.2,0,0.4,0.1,0.5,0.1C202.8,55.3,202.3,54,201.6,53.2z"/>
		<path class="st14" d="M194.1,56.6c-0.1,0-0.3,0-0.4,0c-0.2,0-0.5-0.1-0.7-0.2h-0.1l0,0c-0.1,0-0.1-0.1-0.2-0.1l0,0
			c-0.1,0-0.2-0.1-0.3-0.1c-0.3-0.1-0.5-0.2-0.8-0.2c-0.1,0-0.2,0-0.3,0c-0.3,0-0.5,0-0.8,0h-0.1l0,0c-0.1,0-0.2,0-0.2,0l0,0
			c-0.2,0-0.5,0.1-0.7,0.2c-0.1,0-0.2,0-0.3,0.1c0,0,0,0-0.1,0c-0.3,0.1-0.7,0.2-1,0.3H188c-0.2,0.1-0.4,0.1-0.5,0.1
			s-0.2,0.1-0.4,0.1H187c0,0,0,0-0.1,0h-0.1c0,0.1-0.1,0.1-0.1,0.2c0.2,0,0.4-0.1,0.6-0.1c1,0.3,2.4-0.2,6.7-0.2L194.1,56.6
			C194.1,56.7,194.1,56.7,194.1,56.6z"/>
		<path class="st15" d="M195.5,55.1c0,0.1,0,0.1,0,0.2c0,0,0,0,0,0.1c0.1,0,0.1-0.1,0.1-0.2c0-0.1,0-0.2,0-0.3
			C195.6,54.9,195.5,55.1,195.5,55.1z"/>
		<path class="st15" d="M193.7,54.9c-0.2,0-0.3,0.4-0.3,0.6c0,0.2,0.1,0.4,0.3,0.5c0,0,0-0.1,0-0.2l0,0c0.1,0.1,0.1,0.2,0.2,0.1
			c0.1,0,0.2-0.2,0.2-0.3c0-0.2,0-0.4-0.1-0.5C194,55.1,193.9,54.9,193.7,54.9z M194,55.6C194,55.7,193.9,55.7,194,55.6
			c-0.1,0.1-0.1,0.1-0.2,0.1c-0.2,0-0.1-0.3-0.1-0.4c0-0.1,0.1-0.1,0.2,0C193.9,55.4,193.9,55.5,194,55.6z"/>
		<path class="st15" d="M192.8,55.8c0-0.3,0-0.5,0.1-0.8c0.1-0.5,0.3-0.9,0.5-1.3c0.3-0.4,0.6-0.8,1-1.1c0.2-0.2,0.4-0.3,0.7-0.5
			c0.1-0.1,0.3-0.2,0.4-0.3c-0.7,0-1.3,0.2-2,0.4h-0.1c-0.3,0.3-0.5,0.6-0.8,0.9c-0.3,0.5-0.6,1-0.8,1.5c-0.2,0.4-0.3,0.9-0.3,1.3
			c-0.1,0-0.2,0-0.3,0c0-0.4,0.1-0.9,0.3-1.3c0.2-0.6,0.5-1.1,0.9-1.6c0.1-0.2,0.3-0.4,0.4-0.6c-0.6,0.2-1.1,0.4-1.7,0.6
			c0,0,0,0-0.1,0v0.1c-0.3,0.8-0.5,1.6-0.6,2.5c0,0.1,0,0.2,0,0.3h0.1c0.3,0,0.5,0,0.8,0c0.1,0,0.2,0,0.3,0c0.3,0,0.6,0.1,0.8,0.2
			c0.1,0,0.2,0.1,0.3,0.1C192.8,56.1,192.8,56,192.8,55.8z"/>
		<path class="st15" d="M197.8,55.9c0.1-0.6,0.1-1.2,0.1-1.8c-0.1-0.8-0.3-1.5-0.6-2.2c-0.5-0.1-1-0.2-1.5-0.2l0,0v0.1
			c-0.8,0.7-1.6,1.2-2.2,2c-0.3,0.4-0.5,0.9-0.5,1.4c0,0.2,0,0.4-0.1,0.6c0,0.2,0,0.3-0.1,0.5h0.1c0.2,0.1,0.4,0.2,0.7,0.2
			c0.1,0,0.3,0,0.4,0c0.1-0.6,1.2-0.7,1.3,0.1c0.5-0.1,1-0.1,1.5-0.2c0-0.8,0.2-1.6-0.1-2.4c-0.3-0.8-0.9-1.7-1.9-1.5
			c0,0-0.1-0.1,0-0.1c0.2-0.1,0.4-0.1,0.7-0.1c0.2,0.1,0.3,0.1,0.5,0.2c0.4,0.3,0.6,0.7,0.7,1.1c0.2,0.5,0.3,0.9,0.4,1.4
			c0,0.4,0,0.9,0,1.3c0.1,0,0.3,0,0.5,0C197.7,56.3,197.8,56.1,197.8,55.9z M194.4,55.9c-0.1,0.2-0.2,0.4-0.4,0.3
			c-0.1,0-0.1,0-0.2-0.1c-0.7-0.1-0.6-1.6,0-1.4C194.3,54.9,194.6,55.5,194.4,55.9z M196.4,55.6c-0.1,0.3-0.4,0.8-0.7,0.8l0,0
			c-0.8,0.1-1.1-1-1.1-1.6c0-0.4,0.2-0.7,0.5-0.8s0.6-0.3,0.9-0.1C196.6,54.2,196.6,55.1,196.4,55.6z"/>
		<path class="st15" d="M195.2,54.1c-0.1,0.2-0.2,0.5-0.2,0.8c0,0.5,0.2,1.1,0.7,1.2c0.3,0,0.5-0.5,0.5-0.7c0.1-0.4,0.2-1-0.2-1.3
			C195.8,54.1,195.3,54,195.2,54.1z M195.9,55.2c0,0.2-0.2,0.3-0.3,0.4h-0.1l0,0c-0.1-0.1-0.1-0.4-0.1-0.5c0.1-0.1,0.3-0.3,0.4-0.2
			C195.9,54.9,195.9,55.1,195.9,55.2z"/>
		<path class="st15" d="M198.6,55.4c0.1-0.5,0.1-0.9,0.1-1.4s-0.1-1-0.2-1.5c-0.1-0.1-0.1-0.2-0.1-0.3c-0.2-0.1-0.4-0.2-0.6-0.2l0,0
			c0.1,0.1,0.1,0.3,0.2,0.4c0.2,0.6,0.3,1.1,0.3,1.7c0,0.6,0,1.3-0.1,1.9c0,0.1-0.1,0.3-0.2,0.4c0.1,0,0.2,0,0.3,0
			C198.3,56.1,198.5,55.8,198.6,55.4z"/>
		<path class="st15" d="M201.6,55.2L201.6,55.2c0.1,0,0.1,0.2,0.2,0.3c0,0.1-0.1,0.2-0.1,0.3s-0.2,0.3-0.2,0.5c0.1,0,0.1,0,0.2,0
			c0.1,0,0.2,0,0.3,0s0.1,0,0.2,0c-0.1-0.2-0.1-0.3-0.2-0.5c0-0.1-0.1-0.2-0.1-0.3C201.8,55.4,201.8,55.2,201.6,55.2
			c0-0.4-0.2-0.8-0.5-1.1c-0.1-0.1-0.2-0.2-0.3-0.3c-0.2-0.2-0.3-0.3-0.5-0.5c-0.2-0.1-0.4-0.3-0.6-0.4c-0.2-0.1-0.3-0.2-0.5-0.3
			c-0.1-0.1-0.3-0.1-0.4-0.2l0,0c0.1,0.5,0.2,0.9,0.2,1.3c0,0.5,0,1-0.1,1.5c-0.1,0.4-0.2,0.7-0.3,1.1c0.3,0,0.5,0,0.8,0
			c0-0.2,0.1-0.4,0.1-0.6c0.2-0.9,0.2-1.9-0.1-2.8c0-0.1-0.1-0.2-0.1-0.3c0.2,0.1,0.3,0.2,0.5,0.3c0.2,0.9,0.3,1.8,0.1,2.7
			c-0.1,0.2-0.1,0.5-0.2,0.7c0.2,0,0.5,0,0.7,0c0-0.2,0-0.4,0-0.6c0.1-0.8,0.1-1.6-0.1-2.4c0.2,0.1,0.3,0.3,0.5,0.5
			c0.1,0.6,0.1,1.3,0,1.9c0,0.2-0.1,0.4,0,0.6c0.2,0,0.4,0,0.5,0c0-0.1,0.1-0.2,0.1-0.3C201.5,55.8,201.6,55.5,201.6,55.2z"/>
		<path class="st15" d="M187.1,56.9h0.1c0.2-0.1,0.3-0.1,0.4-0.1c0.2,0,0.3-0.1,0.5-0.1h0.1c0.4-0.1,0.7-0.2,1-0.3c0,0,0,0,0.1,0
			s0.2-0.1,0.3-0.1c0.2-0.1,0.5-0.1,0.7-0.2c0-0.1,0-0.2,0-0.3c0-0.9,0.2-1.7,0.5-2.5c-0.2,0.1-0.3,0.1-0.5,0.2
			c-0.1,0-0.1,0-0.2,0.1l0,0c-0.3,0.6-0.6,1.3-0.7,2c0,0.3,0,0.5,0,0.7c-0.1,0-0.2,0-0.3,0.1c0-0.3-0.1-0.5,0-0.8
			c0.1-0.7,0.3-1.3,0.6-1.9c-0.1,0-0.2,0.1-0.3,0.1c-0.5,0.2-0.9,0.5-1.4,0.8c0,0.1,0,0.1,0,0.1c0,0.7,0,1.3,0.1,2H188
			c-0.2-0.7-0.3-1.3-0.3-2c-0.4,0.2-0.7,0.5-1,0.8l0,0C186.8,56,186.9,56.4,187.1,56.9H187c-0.2-0.4-0.3-0.9-0.4-1.3
			c-0.2,0.2-0.4,0.5-0.5,0.8l0,0c0,0.1,0,0.2,0,0.3c0,0,0,0,0,0.1c-0.1,0.5,0.4,0.4,0.9,0.3C186.9,57,187,57,187.1,56.9
			C187,57,187,57,187.1,56.9z"/>
		<path class="st16" d="M189.6,53.6L189.6,53.6c-0.3,0.6-0.5,1.2-0.6,1.9c0,0.3,0,0.5,0,0.8c0.1,0,0.2-0.1,0.3-0.1
			c0-0.2-0.1-0.5,0-0.7c0-0.7,0.3-1.4,0.7-2l0,0C189.9,53.5,189.8,53.5,189.6,53.6z"/>
		<path class="st16" d="M191,53.2L191,53.2L191,53.2c-0.1,0-0.2,0-0.4,0l0,0c-0.3,0.8-0.5,1.6-0.5,2.5c0,0.1,0,0.2,0,0.3l0,0
			c0.1,0,0.2,0,0.2,0l0,0c0-0.1,0-0.2,0-0.3C190.5,54.8,190.7,54,191,53.2z"/>
		<path class="st16" d="M191.5,54.6c-0.2,0.4-0.3,0.9-0.3,1.3c0.1,0,0.2,0,0.3,0c0-0.4,0.1-0.9,0.3-1.3c0.2-0.5,0.5-1,0.8-1.5
			c0.2-0.3,0.5-0.7,0.8-0.9c0,0,0-0.1,0.1-0.1c-0.2,0.1-0.4,0.1-0.6,0.2c0,0,0,0-0.1,0.1c-0.2,0.2-0.3,0.4-0.4,0.6
			C192,53.5,191.7,54,191.5,54.6z"/>
		<path class="st16" d="M198,56c0.1-0.6,0.2-1.3,0.1-1.9c0-0.6-0.1-1.2-0.3-1.7c0-0.2-0.1-0.3-0.2-0.4l0,0c-0.1,0-0.3-0.1-0.4-0.1
			l0,0c0.3,0.7,0.5,1.4,0.6,2.2c0,0.6,0,1.2-0.1,1.8c0,0.2-0.1,0.4-0.2,0.6c0.1,0,0.2,0,0.3,0C198,56.3,198,56.2,198,56z"/>
		<path class="st16" d="M198.8,55.3c0.1-0.5,0.1-1,0.1-1.5c0-0.4,0-0.9-0.2-1.3l0,0c-0.2-0.1-0.3-0.1-0.4-0.2l0,0
			c0,0.1,0,0.2,0.1,0.3c0.2,0.5,0.2,1,0.2,1.5s-0.1,0.9-0.1,1.4c-0.1,0.4-0.2,0.7-0.3,1c0.1,0,0.2,0,0.3,0
			C198.6,56.1,198.8,55.7,198.8,55.3z"/>
		<path class="st16" d="M199.8,55.6c0.2-0.9,0.1-1.8-0.1-2.7c-0.2-0.1-0.3-0.2-0.5-0.3c0,0.1,0.1,0.2,0.1,0.3
			c0.3,0.9,0.4,1.9,0.1,2.8c-0.1,0.2-0.1,0.4-0.1,0.6c0.1,0,0.2,0,0.3,0C199.6,56.1,199.7,55.9,199.8,55.6z"/>
		<path class="st16" d="M200.8,53.8c-0.2-0.2-0.3-0.3-0.5-0.5c0.2,0.8,0.2,1.6,0.1,2.4c0,0.2,0,0.4,0,0.6c0.1,0,0.3,0,0.4,0
			c0-0.2,0-0.4,0-0.6C200.9,55.1,200.9,54.5,200.8,53.8z"/>
		<path class="st16" d="M201.7,55.9c0-0.1,0.1-0.2,0.1-0.3c-0.1-0.1-0.1-0.3-0.2-0.4v0.1c-0.1,0.3-0.2,0.5-0.3,0.8
			c0,0.1-0.1,0.2-0.1,0.3c0.1,0,0.2,0,0.3,0l0,0C201.5,56.2,201.6,56,201.7,55.9z"/>
		<path class="st16" d="M197.2,55.2c0-0.5-0.2-1-0.4-1.4s-0.3-0.8-0.7-1.1c-0.2-0.1-0.3-0.2-0.5-0.2c-0.2-0.1-0.4,0-0.7,0.1v0.1
			c1-0.1,1.6,0.8,1.9,1.5c0.3,0.7,0.1,1.6,0.1,2.4c0.1,0,0.2,0,0.3,0C197.2,56.1,197.2,55.6,197.2,55.2z"/>
		<path class="st16" d="M195.4,51.8c-0.1,0.1-0.3,0.2-0.4,0.3c-0.2,0.2-0.4,0.3-0.7,0.5c-0.4,0.3-0.7,0.7-1,1.1
			c-0.3,0.4-0.4,0.8-0.5,1.3c0,0.2-0.1,0.5-0.1,0.8c0,0.2,0,0.3-0.1,0.5l0,0c0.1,0,0.1,0.1,0.2,0.1l0,0c0-0.2,0-0.3,0.1-0.5
			c0-0.2,0.1-0.4,0.1-0.6c0.1-0.5,0.2-0.9,0.5-1.4c0.6-0.9,1.4-1.3,2.2-2v-0.1l0,0c-0.1,0-0.1,0-0.2,0l0,0
			C195.5,51.7,195.5,51.7,195.4,51.8C195.5,51.8,195.5,51.8,195.4,51.8z"/>
		<path class="st16" d="M195.2,54c-0.3,0.2-0.5,0.5-0.5,0.8c-0.1,0.6,0.3,1.7,1.1,1.6l0,0c0.3,0,0.6-0.5,0.7-0.8
			c0.2-0.5,0.2-1.4-0.4-1.7C195.7,53.7,195.4,53.8,195.2,54z M196.2,55.4c-0.1,0.3-0.2,0.7-0.5,0.7c-0.5-0.1-0.7-0.8-0.7-1.2
			c0-0.3,0.1-0.6,0.2-0.8c0.1-0.2,0.6-0.1,0.8,0C196.3,54.4,196.3,55,196.2,55.4z"/>
		<path class="st16" d="M195.4,55c0,0.1,0,0.4,0.1,0.5l0,0c0,0,0,0,0.1,0c0.2,0,0.3-0.2,0.3-0.4c0-0.1,0-0.3-0.1-0.4
			C195.6,54.7,195.5,54.9,195.4,55z M195.7,55.2c0,0.1-0.1,0.1-0.1,0.2v-0.1c0,0-0.1-0.1,0-0.2c0-0.1,0.1-0.3,0.2-0.2
			C195.8,55,195.8,55.1,195.7,55.2z"/>
		<path class="st16" d="M193.8,56.1c0,0,0.1,0.1,0.2,0.1c0.2,0,0.3-0.2,0.4-0.3c0.2-0.4-0.1-1-0.5-1.1
			C193.2,54.6,193.1,56,193.8,56.1z M194.2,55.7c0,0.1-0.1,0.3-0.2,0.3c-0.1,0.1-0.2,0-0.2-0.1l0,0c0,0.1,0,0.1,0,0.2
			c-0.2-0.1-0.2-0.3-0.3-0.5c0-0.2,0-0.5,0.3-0.6c0.1,0,0.3,0.1,0.3,0.2C194.2,55.3,194.2,55.5,194.2,55.7z"/>
		<path class="st16" d="M193.7,55.3c0,0.1,0,0.3,0.1,0.4h0.1c0,0,0.1,0,0.1-0.1s-0.1-0.2-0.1-0.3C193.8,55.2,193.7,55.3,193.7,55.3z
			"/>
		<path class="st16" d="M188,56.6L188,56.6c-0.1-0.7-0.1-1.3,0-2c0-0.1,0-0.1,0-0.1c-0.1,0-0.1,0.1-0.2,0.1
			C187.7,55.3,187.8,56,188,56.6z"/>
		<path class="st16" d="M186.9,57h0.1c-0.2-0.5-0.3-0.9-0.4-1.4l-0.1,0.1C186.6,56.1,186.8,56.5,186.9,57z"/>
		<path class="st17" d="M194.1,56.6c0,0,0,0.1,0,0.2l-0.1,0.1c0.1,0,0.2,0,0.3,0c0-0.2,0.3-0.4,0.6-0.2c0.1,0,0.1,0.1,0.1,0.1
			c0.1,0,0.3,0,0.4,0C195.3,56,194.1,56,194.1,56.6z"/>
		<path class="st18" d="M194.9,56.6c-0.3-0.2-0.5,0-0.6,0.2c0.2,0,0.5-0.1,0.7-0.1C195,56.7,195,56.7,194.9,56.6z"/>
		<path class="st17" d="M202.2,56.3c-0.1,0-0.1,0-0.2,0c-0.1,0-0.2,0-0.3,0s-0.1,0-0.2,0l0,0C201.8,56.3,202,56.3,202.2,56.3
			C202.2,56.4,202.2,56.4,202.2,56.3z"/>
	</g>
	<g>
		<path class="st10" d="M253.6,62c0.1,0,0.1,0,0.2-0.1c-0.5-0.2-0.9-0.5-0.5-0.8l-0.1-0.1c0.1,0,0.2-0.1,0.3-0.1l0,0
			c0.4-0.2,0.7-0.4,1.1-0.5c0.6-0.1,1.1-0.4,1.7-0.4c1,0,2.1,0.4,3,0.8c0.2,0.1,0.4,0.2,0.6,0.3c1.3,0.6,2.6,1.3,3.9,1.9
			c0.3,0.1,0.6,0.3,0.8,0.5l0,0l0,0c0.7,0.5,1.4,1.1,1.8,1.8c0.7,1.1,0.9,2.2,0.8,3.5c0,1.1-0.5,2.4-1.4,3.3c1,1.4,0.6,2-0.1,2.3
			c25.7-4.5-8.7-15.3-12-15C251,59.6,252.3,61.2,253.6,62z"/>
		<path class="st10" d="M265.9,74.3c-0.4,0.1-0.8,0.1-1.3,0.2C264.6,74.5,265.4,74.6,265.9,74.3z"/>
		<path class="st11" d="M253.5,61c-0.1,0.1-0.2,0.1-0.3,0.1l0.1,0.1l0,0C253.4,61.1,253.4,61,253.5,61z"/>
		<path class="st11" d="M254.6,60.7C254.6,60.7,254.7,60.7,254.6,60.7c0.5,0,0.9,0,1.4,0.1c0.1,0,0.2,0,0.3,0c0.5,0.1,1,0.2,1.5,0.3
			c0.5-0.1,1.1-0.2,1.6-0.3c-1-0.4-2-0.8-3-0.8c-0.6,0-1.1,0.2-1.7,0.4c-0.4,0.1-0.8,0.3-1.1,0.5c0.2-0.1,0.6-0.2,0.9-0.2
			C254.5,60.7,254.6,60.7,254.6,60.7z"/>
		<path class="st12" d="M258.1,61.2L258.1,61.2c0.1,0,0.3,0.1,0.4,0.1l0,0l0,0c0.1,0,0.1,0,0.2,0.1c0.2,0.1,0.3,0.1,0.5,0.2l0,0
			c0.1,0,0.2,0.1,0.4,0.1l0,0c0,0,0,0,0.1,0c0.6,0.2,1.1,0.4,1.7,0.6h0.1c0.2,0.1,0.4,0.2,0.6,0.2H262h0.1c0.6,0.3,1.2,0.6,1.7,1
			l0,0c0,0,0.1,0,0.1,0.1c0.1,0,0.2-0.1,0.3-0.1c0.2-0.1,0.4-0.1,0.6-0.2l0,0c-0.3-0.2-0.5-0.3-0.8-0.5c-1.3-0.6-2.6-1.2-3.9-1.9
			c-0.2-0.1-0.4-0.2-0.6-0.3c-0.5,0.1-1.1,0.2-1.6,0.3C257.9,61.2,258,61.2,258.1,61.2z"/>
		<path class="st13" d="M267.4,68.8c0-1.3-0.2-2.4-0.8-3.5c-0.4-0.7-1.1-1.4-1.8-1.8l0,0c-0.2,0-0.4,0.1-0.6,0.2
			c-0.1,0-0.2,0.1-0.3,0.1l0,0c0.1,0,0.1,0.1,0.1,0.1l0,0l0,0c0.4,0.3,0.7,0.7,1,1.1l0,0c0.1,0.1,0.2,0.2,0.2,0.3l0,0l0,0
			c0.1,0.2,0.2,0.4,0.3,0.6l0,0c0.1,0.1,0.1,0.3,0.2,0.4l0,0l0,0c0,0.1,0.1,0.3,0.2,0.4c0.1,0.2,0.1,0.4,0.2,0.6s0.1,0.4,0.1,0.7
			c0,0.2,0.1,0.5,0.1,0.7s0,0.3,0,0.5c0,0.4-0.1,0.7-0.2,1.1c0,0.1-0.1,0.3-0.1,0.4s-0.1,0.2-0.1,0.3c-0.1,0.2-0.1,0.3-0.2,0.5v0.1
			c0.1,0.1,0.2,0.3,0.3,0.4C266.9,71.2,267.4,69.9,267.4,68.8z"/>
		<path class="st14" d="M259.4,66.4c-0.1-0.1-0.2-0.2-0.3-0.3c-0.1-0.2-0.3-0.4-0.4-0.6v-0.1l0,0c0-0.1,0-0.1-0.1-0.2l0,0
			c-0.1-0.1-0.1-0.2-0.2-0.3c-0.1-0.3-0.3-0.5-0.5-0.7c-0.1-0.1-0.1-0.1-0.2-0.2c-0.2-0.2-0.4-0.3-0.6-0.5c0,0-0.1,0-0.1-0.1l0,0
			c-0.1,0-0.1-0.1-0.2-0.1l0,0c-0.2-0.1-0.4-0.2-0.6-0.3c-0.1,0-0.2-0.1-0.3-0.1c0,0,0,0-0.1,0c-0.3-0.1-0.7-0.3-1-0.4h-0.1
			c-0.2-0.1-0.3-0.2-0.5-0.2c-0.1,0-0.2-0.1-0.4-0.2h-0.1c0,0,0,0-0.1,0c0,0-0.1,0-0.1-0.1c-0.1,0-0.1,0-0.2,0.1
			c0.2,0.1,0.4,0.2,0.5,0.3c0.6,0.9,1.9,1.4,5.1,4.2h0.1C259.4,66.5,259.4,66.5,259.4,66.4z"/>
		<path class="st15" d="M261.5,66.3c0,0-0.1,0.1-0.1,0.2v0.1c0.1,0,0.1,0,0.2,0s0.2-0.1,0.2-0.2C261.8,66.1,261.6,66.2,261.5,66.3z"
			/>
		<path class="st15" d="M260.3,65c-0.2-0.1-0.5,0.1-0.6,0.3c-0.1,0.2-0.2,0.4-0.1,0.5c0,0,0-0.1,0.1-0.1l0,0c0,0.1,0,0.2,0.1,0.2
			s0.2,0,0.3-0.1c0.1-0.1,0.3-0.3,0.3-0.5C260.4,65.2,260.4,65,260.3,65z M260,65.6c0,0.1-0.1,0-0.1,0s0,0-0.1,0
			c-0.1-0.1,0.1-0.3,0.1-0.4c0.1,0,0.2,0,0.1,0.1C260.1,65.4,260.1,65.5,260,65.6z"/>
		<path class="st15" d="M259,65c0.2-0.2,0.4-0.4,0.6-0.5c0.4-0.3,0.8-0.5,1.2-0.6c0.5-0.1,1-0.2,1.5-0.2c0.3,0,0.5,0.1,0.8,0.1
			c0.2,0,0.4,0,0.5,0c-0.5-0.4-1.1-0.7-1.7-1h-0.1c-0.4,0-0.8,0.1-1.2,0.2c-0.5,0.1-1.1,0.3-1.6,0.6c-0.4,0.2-0.8,0.5-1.1,0.8
			c-0.1-0.1-0.1-0.1-0.2-0.2c0.3-0.3,0.7-0.6,1.1-0.8c0.5-0.3,1.1-0.5,1.7-0.6c0.2-0.1,0.5-0.1,0.7-0.1c-0.6-0.2-1.1-0.4-1.7-0.6
			c0,0,0,0-0.1,0c0,0-0.1,0-0.1,0.1c-0.7,0.4-1.5,0.9-2.1,1.5c-0.1,0.1-0.1,0.1-0.2,0.2c0,0,0.1,0,0.1,0.1c0.2,0.1,0.4,0.3,0.6,0.5
			c0.1,0.1,0.1,0.1,0.2,0.2c0.2,0.2,0.4,0.4,0.5,0.7c0.1,0.1,0.1,0.2,0.2,0.3C258.8,65.2,258.9,65.1,259,65z"/>
		<path class="st15" d="M262.7,68.4c0.5-0.4,0.9-0.8,1.3-1.3c0.5-0.6,0.8-1.3,1-2c-0.3-0.4-0.6-0.8-1-1.1l0,0c0,0-0.1,0-0.1,0.1
			c-1,0-2-0.2-3,0.1c-0.5,0.1-0.9,0.4-1.3,0.7c-0.2,0.1-0.3,0.3-0.5,0.4c-0.1,0.1-0.2,0.2-0.4,0.3v0.1c0.1,0.2,0.2,0.4,0.4,0.6
			c0.1,0.1,0.2,0.2,0.3,0.3c0.4-0.4,1.3,0.3,1,0.9c0.4,0.3,0.9,0.6,1.2,0.9c0.6-0.6,1.3-1.1,1.5-1.8c0.3-0.8,0.4-1.9-0.4-2.4v-0.1
			c0.2,0.1,0.4,0.2,0.6,0.4c0.1,0.2,0.2,0.3,0.2,0.5c0.1,0.5,0,0.9-0.2,1.3c-0.2,0.5-0.3,0.9-0.7,1.3c-0.3,0.3-0.6,0.6-0.9,1
			c0.1,0.1,0.3,0.2,0.4,0.3C262.4,68.6,262.6,68.5,262.7,68.4z M260.2,66.1c-0.2,0.1-0.4,0.1-0.5,0c0,0-0.1-0.1-0.1-0.2
			c-0.4-0.5,0.6-1.6,1-1C260.8,65.2,260.6,65.9,260.2,66.1z M261.9,67.2c-0.3,0.2-0.8,0.4-1,0.2l0,0c-0.7-0.4-0.2-1.5,0.2-1.9
			c0.3-0.2,0.6-0.4,0.9-0.3s0.6,0.2,0.7,0.5C262.9,66.3,262.4,66.9,261.9,67.2z"/>
		<path class="st15" d="M261.9,65.3c-0.3,0.1-0.5,0.2-0.7,0.4c-0.3,0.3-0.6,1-0.3,1.4c0.3,0.2,0.7,0,0.9-0.2
			c0.3-0.2,0.8-0.7,0.6-1.1C262.4,65.6,262.1,65.2,261.9,65.3z M261.7,66.6c-0.1,0.1-0.3,0.1-0.5,0c0,0,0,0,0-0.1l0,0
			c0-0.2,0.2-0.4,0.3-0.4c0.1,0,0.4-0.1,0.4,0.1C262,66.4,261.9,66.5,261.7,66.6z"/>
		<path class="st15" d="M263.6,68.5c0.4-0.3,0.7-0.6,1-1s0.6-0.8,0.8-1.2c0-0.1,0.1-0.2,0.1-0.3c-0.1-0.2-0.2-0.4-0.3-0.6l0,0
			c0,0.1-0.1,0.3-0.1,0.4c-0.2,0.6-0.5,1-0.9,1.5s-0.8,0.9-1.3,1.3c-0.1,0.1-0.3,0.2-0.4,0.2c0.1,0.1,0.2,0.1,0.3,0.2
			C263,68.8,263.3,68.7,263.6,68.5z"/>
		<path class="st15" d="M266.1,70.4C266.1,70.3,266.1,70.3,266.1,70.4s0,0.2-0.1,0.4c-0.1,0.1-0.2,0.1-0.3,0.2
			c-0.1,0.1-0.3,0.2-0.5,0.3c0.1,0,0.1,0.1,0.2,0.1c0.1,0.1,0.2,0.1,0.2,0.2c0.1,0,0.1,0.1,0.1,0.1c0.1-0.2,0.1-0.3,0.2-0.5
			c0-0.1,0.1-0.2,0.1-0.3C266.1,70.6,266.1,70.5,266.1,70.4c0.2-0.4,0.3-0.8,0.3-1.1c0-0.2,0-0.3,0-0.5s0-0.5-0.1-0.7
			c0-0.2-0.1-0.4-0.1-0.7c0-0.2-0.1-0.4-0.2-0.6c0-0.1-0.1-0.3-0.2-0.4l0,0c-0.2,0.4-0.5,0.8-0.8,1.1c-0.3,0.4-0.7,0.7-1.1,1.1
			c-0.3,0.2-0.6,0.4-1,0.6c0.2,0.2,0.4,0.3,0.6,0.5c0.2-0.1,0.3-0.3,0.5-0.4c0.8-0.5,1.4-1.3,1.8-2.2c0-0.1,0.1-0.2,0.1-0.3
			c0.1,0.2,0.1,0.4,0.2,0.6c-0.4,0.8-0.9,1.5-1.7,2.1c-0.2,0.1-0.4,0.3-0.6,0.4c0.2,0.2,0.4,0.3,0.5,0.5c0.1-0.1,0.2-0.3,0.4-0.4
			c0.6-0.5,1.2-1.1,1.5-1.9c0,0.2,0.1,0.5,0.1,0.7c-0.3,0.5-0.8,1-1.3,1.4c-0.2,0.2-0.3,0.3-0.4,0.5c0.1,0.1,0.3,0.2,0.4,0.4
			c0.1-0.1,0.2-0.1,0.3-0.2C265.6,70.7,265.8,70.5,266.1,70.4z"/>
		<path class="st15" d="M254,62.1h0.1c0.2,0.1,0.3,0.1,0.4,0.2c0.1,0.1,0.3,0.2,0.5,0.2h0.1c0.3,0.2,0.7,0.3,1,0.4c0,0,0,0,0.1,0
			s0.2,0.1,0.3,0.1c0.2,0.1,0.4,0.2,0.6,0.3c0.1-0.1,0.1-0.1,0.2-0.2c0.6-0.6,1.3-1.2,2-1.6c-0.2-0.1-0.3-0.1-0.5-0.2
			c-0.1,0-0.1,0-0.2-0.1l0,0c-0.7,0.3-1.3,0.5-1.8,1.1c-0.2,0.2-0.3,0.4-0.5,0.6c-0.1,0-0.2-0.1-0.3-0.1c0.1-0.2,0.3-0.4,0.5-0.6
			c0.5-0.5,1.1-0.8,1.7-1c-0.1,0-0.2-0.1-0.3-0.1c-0.5-0.1-1-0.3-1.5-0.3l-0.1,0.1c-0.5,0.5-0.9,1-1.2,1.5H255
			c0.3-0.6,0.6-1.2,1.1-1.7c-0.4,0-0.9-0.1-1.3-0.1c0,0,0,0-0.1,0C254.4,61.2,254.2,61.6,254,62.1C253.9,62,253.9,62,254,62.1
			c0.1-0.5,0.3-0.9,0.5-1.3c-0.3,0-0.6,0.1-0.9,0.2l0,0c-0.1,0-0.2,0.1-0.2,0.2l0,0C253,61.5,253.5,61.8,254,62.1
			C253.8,62,253.9,62,254,62.1C253.9,62,253.9,62,254,62.1z"/>
		<path class="st16" d="M258.1,61.2L258.1,61.2c-0.6,0.3-1.2,0.6-1.7,1.1c-0.2,0.2-0.3,0.4-0.5,0.6c0.1,0,0.2,0.1,0.3,0.1
			c0.1-0.2,0.3-0.4,0.5-0.6c0.5-0.5,1.2-0.8,1.8-1.1l0,0C258.4,61.3,258.3,61.3,258.1,61.2z"/>
		<path class="st16" d="M259.4,61.8c0,0,0.1,0,0.1-0.1l0,0c-0.1,0-0.2-0.1-0.4-0.1l0,0c-0.8,0.4-1.4,0.9-2,1.6
			c-0.1,0.1-0.1,0.1-0.2,0.2l0,0c0.1,0,0.1,0.1,0.2,0.1l0,0c0.1-0.1,0.1-0.2,0.2-0.2C258,62.7,258.7,62.2,259.4,61.8z"/>
		<path class="st16" d="M258.8,63.2c-0.4,0.2-0.8,0.5-1.1,0.8c0.1,0.1,0.1,0.1,0.2,0.2c0.3-0.3,0.7-0.6,1.1-0.8
			c0.5-0.3,1.1-0.4,1.6-0.6c0.4-0.1,0.8-0.2,1.2-0.2h0.1c-0.2-0.1-0.4-0.2-0.6-0.2h-0.1c-0.2,0-0.5,0.1-0.7,0.1
			C260,62.7,259.4,62.9,258.8,63.2z"/>
		<path class="st16" d="M262.8,68.6c0.5-0.4,0.9-0.8,1.3-1.3c0.4-0.4,0.7-0.9,0.9-1.5c0.1-0.1,0.1-0.3,0.1-0.4l0,0
			c-0.1-0.1-0.2-0.2-0.2-0.3l0,0c-0.2,0.7-0.5,1.4-1,2c-0.4,0.5-0.8,0.9-1.3,1.3c-0.2,0.1-0.3,0.2-0.5,0.3c0.1,0.1,0.1,0.1,0.2,0.2
			C262.6,68.8,262.7,68.7,262.8,68.6z"/>
		<path class="st16" d="M263.9,68.6c0.4-0.3,0.8-0.7,1.1-1.1c0.3-0.3,0.5-0.7,0.8-1.1l0,0c-0.1-0.2-0.1-0.3-0.2-0.4l0,0
			c0,0.1-0.1,0.1-0.1,0.3c-0.2,0.5-0.5,0.9-0.8,1.2c-0.3,0.3-0.7,0.7-1,1c-0.3,0.2-0.6,0.4-0.9,0.6c0.1,0.1,0.1,0.1,0.2,0.2
			C263.3,69,263.6,68.8,263.9,68.6z"/>
		<path class="st16" d="M264.4,69.4c0.7-0.5,1.3-1.3,1.7-2.1c0-0.2-0.1-0.4-0.2-0.6c0,0.1-0.1,0.2-0.1,0.3c-0.4,0.9-1,1.7-1.8,2.2
			c-0.2,0.1-0.3,0.2-0.5,0.4c0.1,0.1,0.2,0.1,0.2,0.2C264,69.7,264.2,69.6,264.4,69.4z"/>
		<path class="st16" d="M266.3,68.7c0-0.2,0-0.5-0.1-0.7c-0.4,0.8-0.9,1.4-1.5,1.9c-0.1,0.1-0.3,0.3-0.4,0.4
			c0.1,0.1,0.2,0.2,0.3,0.3c0.1-0.2,0.3-0.3,0.4-0.5C265.6,69.8,266,69.3,266.3,68.7z"/>
		<path class="st16" d="M265.7,70.9c0.1-0.1,0.2-0.1,0.3-0.2c0-0.1,0.1-0.3,0.1-0.4c0,0,0,0.1-0.1,0.1c-0.2,0.2-0.5,0.3-0.7,0.4
			c-0.1,0-0.2,0.1-0.3,0.2c0.1,0.1,0.1,0.1,0.2,0.2l0,0C265.3,71,265.5,71,265.7,70.9z"/>
		<path class="st16" d="M262.7,67.4c0.3-0.4,0.5-0.8,0.7-1.3c0.2-0.4,0.3-0.8,0.2-1.3c0-0.2-0.1-0.3-0.2-0.5s-0.4-0.3-0.6-0.4
			c0,0-0.1,0,0,0.1c0.8,0.5,0.7,1.6,0.4,2.4c-0.2,0.8-0.9,1.3-1.5,1.8c0.1,0.1,0.1,0.1,0.2,0.2C262.1,68.1,262.4,67.8,262.7,67.4z"
			/>
		<path class="st16" d="M263.7,63.7c-0.2,0-0.4,0-0.5,0c-0.3,0-0.5-0.1-0.8-0.1c-0.5,0-1,0.1-1.5,0.2c-0.4,0.1-0.9,0.3-1.2,0.6
			c-0.2,0.2-0.4,0.4-0.6,0.5c-0.1,0.1-0.2,0.2-0.4,0.3l0,0c0,0.1,0,0.1,0.1,0.2l0,0c0.1-0.1,0.2-0.2,0.4-0.3
			c0.2-0.1,0.3-0.3,0.5-0.4c0.4-0.3,0.8-0.6,1.3-0.7c1-0.3,2-0.1,3-0.1c0,0,0.1,0,0.1-0.1l0,0c-0.1,0-0.1-0.1-0.1-0.1l0,0
			C263.8,63.7,263.7,63.7,263.7,63.7L263.7,63.7z"/>
		<path class="st16" d="M262,65.2c-0.4-0.1-0.7,0.1-0.9,0.3c-0.4,0.4-0.9,1.5-0.2,1.9l0,0c0.3,0.2,0.8,0,1-0.2
			c0.5-0.3,1-0.9,0.8-1.5C262.6,65.3,262.3,65.2,262,65.2z M261.8,66.9c-0.2,0.2-0.6,0.4-0.9,0.2c-0.3-0.4,0-1.1,0.3-1.4
			c0.2-0.2,0.4-0.4,0.7-0.4c0.2-0.1,0.5,0.3,0.6,0.5C262.6,66.2,262.1,66.7,261.8,66.9z"/>
		<path class="st16" d="M261.5,66.1c-0.1,0.1-0.3,0.3-0.3,0.4l0,0v0.1c0.2,0.1,0.4,0.1,0.5,0s0.2-0.2,0.2-0.4
			C261.9,66,261.6,66,261.5,66.1z M261.6,66.5c-0.1,0-0.1,0.1-0.2,0v-0.1c0-0.1,0-0.1,0.1-0.2c0,0,0.3-0.1,0.3,0
			S261.7,66.4,261.6,66.5z"/>
		<path class="st16" d="M259.6,65.9c0,0.1,0,0.1,0.1,0.2s0.4,0.1,0.5,0c0.4-0.2,0.6-0.8,0.4-1.2C260.1,64.3,259.1,65.4,259.6,65.9z
			 M260.2,65.8c-0.1,0.1-0.2,0.1-0.3,0.1c-0.1,0-0.1-0.1-0.1-0.2l0,0l-0.1,0.1c0-0.2,0-0.4,0.1-0.5s0.4-0.4,0.6-0.3
			c0.1,0.1,0.1,0.3,0.1,0.4C260.4,65.5,260.3,65.7,260.2,65.8z"/>
		<path class="st16" d="M260,65.2c-0.1,0.1-0.3,0.2-0.1,0.4c0,0,0,0,0.1,0h0.1c0-0.1,0.1-0.2,0.1-0.3
			C260.1,65.2,260.1,65.2,260,65.2z"/>
		<path class="st16" d="M254.9,62.4C254.9,62.4,254.9,62.5,254.9,62.4c0.4-0.5,0.8-1.1,1.3-1.5l0.1-0.1c-0.1,0-0.2,0-0.3,0
			C255.5,61.2,255.2,61.8,254.9,62.4z"/>
		<path class="st16" d="M253.9,62h0.1c0.2-0.5,0.4-0.9,0.6-1.3c-0.1,0-0.1,0-0.2,0C254.2,61.1,254,61.5,253.9,62z"/>
		<path class="st17" d="M259.4,66.4l-0.1,0.1h-0.1c0.1,0.1,0.2,0.1,0.3,0.2c0.2-0.1,0.5-0.1,0.6,0.2c0,0.1,0,0.1,0,0.2
			c0.1,0.1,0.2,0.1,0.3,0.2C260.8,66.7,259.9,66,259.4,66.4z"/>
		<path class="st18" d="M260.1,67c-0.1-0.3-0.4-0.4-0.6-0.2c0.2,0.1,0.4,0.3,0.6,0.4C260.1,67.1,260.1,67,260.1,67z"/>
		<path class="st17" d="M265.7,71.6c0-0.1-0.1-0.1-0.1-0.1c-0.1,0-0.1-0.1-0.2-0.2c0,0-0.1-0.1-0.2-0.1l0,0c0.2,0.2,0.3,0.4,0.5,0.5
			C265.7,71.6,265.7,71.6,265.7,71.6z"/>
	</g>
</g>
</svg>
