<?xml version="1.0" encoding="utf-8"?>
<!-- Generator: Adobe Illustrator 21.0.0, SVG Export Plug-In . SVG Version: 6.00 Build 0)  -->
<svg version="1.1" xmlns="http://www.w3.org/2000/svg" xmlns:xlink="http://www.w3.org/1999/xlink" x="0px" y="0px"
	 viewBox="0 0 389 157" style="enable-background:new 0 0 389 157;" xml:space="preserve">
<style type="text/css">
	.st0{display:none;}
	.st1{display:inline;}
	.st2{fill:#732A13;}
	.st3{fill:#6C151C;}
	.st4{fill:#F6C073;}
	.st5{fill:#F1A12E;}
	.st6{opacity:0.3;fill:#FBE0BA;}
	.st7{fill:#6F4026;}
	.st8{fill:#F6C278;}
	.st9{display:inline;fill:#AB1717;}
	.st10{fill:#8F282D;}
	.st11{fill:#BC343B;}
	.st12{fill:#FFFFFF;}
</style>
<g id="Layer_1" class="st0">
	<g class="st1">
		
			<ellipse transform="matrix(0.9998 -1.910915e-02 1.910915e-02 0.9998 -1.7332 3.9663)" class="st2" cx="206.7" cy="92.7" rx="175.1" ry="48.7"/>
		
			<ellipse transform="matrix(0.9998 -1.911543e-02 1.911543e-02 0.9998 -1.5265 3.9296)" class="st3" cx="204.8" cy="81.8" rx="161" ry="44.8"/>
		
			<ellipse transform="matrix(0.9998 -1.911880e-02 1.911880e-02 0.9998 -1.4451 3.938)" class="st4" cx="205.2" cy="77.5" rx="158.3" ry="44.6"/>
		
			<ellipse transform="matrix(0.9998 -1.910344e-02 1.910344e-02 0.9998 -1.3162 3.9312)" class="st5" cx="205.1" cy="70.9" rx="145.6" ry="32.3"/>
		
			<ellipse transform="matrix(0.9998 -1.911081e-02 1.911081e-02 0.9998 -1.3431 3.9335)" class="st5" cx="205.1" cy="72.2" rx="139.4" ry="30.9"/>
		<path class="st6" d="M204.5,41.3c-77,1.5-139.1,16.5-138.8,33.6c0.3,17.1,63,29.7,140,28.3c77-1.5,139.1-16.5,138.8-33.6
			C344.2,52.5,281.5,39.9,204.5,41.3z M76.5,69.9c-0.4-0.2-0.5-0.7-0.3-1.1c3.1-9.1,15.8-8,22.9-11.7c0.3-0.2,0.6-0.2,0.8-0.1
			c15-5,30.2-7.7,46.5-8.8c9-0.6,18.1-0.6,27.1-0.7c5.3-0.1,12.1-0.5,16.1,3.6c0.6,0.6-0.1,1.5-0.7,1.7c-8,3.7-17.1,2.5-25.7,3.3
			c-11,1-22.1,2.7-32.9,4.8c-10.9,2.1-22.2,3.3-33,6.1C90.6,68.8,83.3,72.4,76.5,69.9z M180.5,95.3c-6.8,1.8-14,1.7-21,1.7
			c-9.1,0-18.1-0.1-27.2,0c-5.6,0-12.9,0-17.3-4.1c-4.6-4.3-9.2-3.7-15-3.6c-4.6,0-17.9,0.3-17.1-7.4c0.6-5.4,10.5-7.5,14.4-8.5
			c8.1-2.1,16.5-3.3,24.8-4c3.8-0.3,7.4-0.5,11.1-1.1c0.1-0.1,0.3-0.2,0.4-0.2c12.3-2.4,24.7-4,37.2-4.6c8.1-0.4,22-1.8,22.4,9.6
			C193.7,82.5,190.7,92.5,180.5,95.3z M213.5,49.7c7-6.9,18.9-4.7,27.8-6c0.5-0.1,0.7,0.1,0.8,0.4c6,0,12.1,0.7,18.1,1.3
			c6.4,0.6,16.7,0.8,21.1,6.5c0.4,0.6,0.1,1.6-0.7,1.7c-12.9,3.4-25.5-0.7-38.5,0c-8.7,0.5-20.9,2.9-28.6-2.4
			C213,50.8,213,50.1,213.5,49.7z M261.1,84.1c-1.6,4.3-7.6,5.8-11.6,6.6c-7.1,1.4-14.7,2.8-21.8,3.4c-7,0.6-12.6-1.2-15.8-7.8
			c-1.4-3-6.8-16-3.7-20.4c0.1-0.1,0.2-0.3,0.3-0.4c0.4-0.4,0.9-0.7,1.6-0.9c2-0.8,4.1-0.6,6.5,0.2c5.2,1.6,10.6,2.4,15.9,3.9
			c7,1.9,14.2,4.3,20.9,7.3C256.2,77.1,262.7,79.8,261.1,84.1z M300.7,71.4c-4.1,5.6-14.6,4.6-20.5,4.1c-11.3-0.9-22.3-2.5-33.2-5.8
			c-3.7-1.1-18.2-3.5-18.9-8.4c-0.3-2.3,2.3-3.5,5.3-4.1c9.4-3.8,19.3,0,28.9,0.7c5.4,0.4,10.9,1.2,16.2,2.1
			C281.8,60.5,306.3,63.8,300.7,71.4z"/>
		<path class="st7" d="M38.5,90c0,0-6.8,2.4-0.1,15.3c6.7,12.9,86.2,37.6,160.7,32.7c0,0,51.9,0,52.2-4.1c0.3-4.1-19.8-4.3-19.8-4.3
			s-23.5,0.7-33.8,0.8C187.5,130.4,54.8,131.5,38.5,90z"/>
		<path class="st8" d="M55.9,70.2c0,0-3.4-0.2-6.1,6.4c-2.7,6.6,7.9,22.9,55,33.2c47,10.3,115.1,12.6,150.4,6.2
			c35.3-6.4,18.1-15.1,0.9-12.8c-17.2,2.3-17.2,2.3-17.2,2.3S153,108.1,110,99.9C69.2,92.2,55.1,87.1,55.9,70.2z"/>
	</g>
</g>
<g id="Слой_3" class="st0">
	<path class="st9" d="M142.3,45.8c0,0,46.5-2,75.9-1.5c19.1,0.2,41.2-3.1,77.1,5.1c17.5,3.8,28.6,7.5,34.6,10.6
		c3.6,1.9,6,5.6,5.9,9.7c-0.1,6.2-6.3,15.6-56.8,26c-49.7,4.8-55.4,4.6-77.4,3.8c-24.5,0.9-52.2,3.2-76.1-2.4
		c-26.9-5.6-68.6-13.4-56.1-25.5C77.3,64.7,87.5,54.1,142.3,45.8z"/>
</g>
<g id="Слой_4">
	<g>
		<rect x="99.3" y="76.5" class="st10" width="24" height="2.2"/>
		<path class="st10" d="M123.3,78.5C123.3,78.6,123.3,78.6,123.3,78.5c0,0.1,0,0.1,0,0.1c-0.3,1.4-5.5,2.6-12,2.6
			c-1.9,0-3.7-0.1-5.3-0.3c-2.4-0.3-4.4-0.7-5.5-1.3c-0.4-0.2-0.8-0.4-0.9-0.6c-0.1-0.1-0.2-0.2-0.2-0.4c0,0,0-0.1,0-0.1
			c0-0.1,0-0.2,0.1-0.3c0.1-0.2,0.3-0.5,0.6-0.7c0.4-0.3,1-0.7,1.6-1c0.1-0.1,0.2-0.1,0.3-0.1c0.1-0.1,0.2-0.1,0.4-0.2
			c0.2-0.1,0.5-0.2,0.8-0.3c0,0,0.1,0,0.1,0c0.3-0.1,0.6-0.2,0.9-0.3c0.6-0.2,1.3-0.3,1.9-0.5c1.6-0.3,3.4-0.5,5.2-0.5
			c2,0,3.9,0.2,5.5,0.6c0.5,0.1,1,0.2,1.5,0.4c1,0.3,1.9,0.6,2.7,1c0.1,0,0.1,0.1,0.2,0.1c0.2,0.1,0.3,0.2,0.4,0.2c0,0,0,0,0,0
			c0.4,0.2,0.7,0.5,1,0.7C123,77.8,123.2,78.2,123.3,78.5C123.3,78.5,123.3,78.5,123.3,78.5z"/>
		<g>
			<ellipse class="st11" cx="111.3" cy="76.6" rx="12" ry="2.7"/>
			<ellipse class="st12" cx="104.8" cy="77.6" rx="2.5" ry="0.6"/>
			<path class="st12" d="M114.6,75.2c0.8,0,0,0.2,0,0.4s-0.7,0.4-1.5,0.4c-0.8,0-1.5-0.2-1.5-0.4S113.7,75.2,114.6,75.2z"/>
			<ellipse class="st12" cx="107.4" cy="75.5" rx="2.3" ry="0.5"/>
			<ellipse class="st12" cx="111.5" cy="77.2" rx="1.6" ry="0.4"/>
			<ellipse class="st12" cx="115" cy="78.4" rx="1.4" ry="0.3"/>
		</g>
	</g>
	<g>
		<rect x="148.4" y="73.6" class="st10" width="18.8" height="1.7"/>
		<path class="st10" d="M167.1,75.3C167.1,75.3,167.1,75.3,167.1,75.3c0,0.1,0,0.1,0,0.1c-0.2,1.1-4.3,2-9.4,2
			c-1.5,0-2.9-0.1-4.2-0.2c-1.9-0.2-3.4-0.6-4.3-1c-0.3-0.2-0.6-0.3-0.7-0.5c-0.1-0.1-0.1-0.2-0.2-0.3c0,0,0-0.1,0-0.1
			c0-0.1,0-0.2,0.1-0.3c0.1-0.2,0.2-0.4,0.5-0.6c0.3-0.3,0.7-0.5,1.3-0.8c0.1,0,0.2-0.1,0.2-0.1c0.1,0,0.2-0.1,0.3-0.1
			c0.2-0.1,0.4-0.2,0.6-0.2c0,0,0.1,0,0.1,0c0.2-0.1,0.5-0.2,0.7-0.2c0.5-0.1,1-0.3,1.5-0.4c1.2-0.3,2.6-0.4,4.1-0.4
			c1.6,0,3,0.2,4.3,0.5c0.4,0.1,0.8,0.2,1.1,0.3c0.8,0.2,1.5,0.5,2.1,0.8c0,0,0.1,0,0.1,0.1c0.1,0.1,0.2,0.1,0.3,0.2c0,0,0,0,0,0
			c0.3,0.2,0.6,0.4,0.8,0.5C166.9,74.7,167.1,75,167.1,75.3C167.1,75.2,167.1,75.2,167.1,75.3z"/>
		<g>
			<ellipse class="st11" cx="157.7" cy="73.7" rx="9.4" ry="2.1"/>
			<ellipse class="st12" cx="152.6" cy="74.6" rx="2" ry="0.5"/>
			<path class="st12" d="M160.3,72.7c0.7,0,0,0.1,0,0.3c0,0.2-0.5,0.3-1.2,0.3c-0.7,0-1.2-0.1-1.2-0.3
				C157.9,72.8,159.6,72.7,160.3,72.7z"/>
			<ellipse class="st12" cx="154.7" cy="72.9" rx="1.8" ry="0.4"/>
			<ellipse class="st12" cx="157.9" cy="74.2" rx="1.2" ry="0.3"/>
			<ellipse class="st12" cx="160.7" cy="75.1" rx="1.1" ry="0.3"/>
		</g>
	</g>
	<g>
		<rect x="217.6" y="71.6" class="st10" width="18.8" height="1.7"/>
		<path class="st10" d="M236.4,73.2C236.4,73.3,236.4,73.3,236.4,73.2c0,0.1,0,0.1,0,0.1c-0.2,1.1-4.3,2-9.4,2
			c-1.5,0-2.9-0.1-4.2-0.2c-1.9-0.2-3.4-0.6-4.3-1c-0.3-0.2-0.6-0.3-0.7-0.5c-0.1-0.1-0.1-0.2-0.2-0.3c0,0,0-0.1,0-0.1
			c0-0.1,0-0.2,0.1-0.3c0.1-0.2,0.2-0.4,0.5-0.6c0.3-0.3,0.7-0.5,1.3-0.8c0.1,0,0.2-0.1,0.2-0.1c0.1,0,0.2-0.1,0.3-0.1
			c0.2-0.1,0.4-0.2,0.6-0.2c0,0,0.1,0,0.1,0c0.2-0.1,0.5-0.2,0.7-0.2c0.5-0.1,1-0.3,1.5-0.4c1.2-0.3,2.6-0.4,4.1-0.4
			c1.6,0,3,0.2,4.3,0.5c0.4,0.1,0.8,0.2,1.1,0.3c0.8,0.2,1.5,0.5,2.1,0.8c0,0,0.1,0,0.1,0.1c0.1,0.1,0.2,0.1,0.3,0.2c0,0,0,0,0,0
			c0.3,0.2,0.6,0.4,0.8,0.5C236.2,72.7,236.4,72.9,236.4,73.2C236.4,73.2,236.4,73.2,236.4,73.2z"/>
		<g>
			<ellipse class="st11" cx="227" cy="71.7" rx="9.4" ry="2.1"/>
			<ellipse class="st12" cx="221.9" cy="72.5" rx="2" ry="0.5"/>
			<path class="st12" d="M229.6,70.6c0.7,0,0,0.1,0,0.3s-0.5,0.3-1.2,0.3c-0.7,0-1.2-0.1-1.2-0.3S228.9,70.6,229.6,70.6z"/>
			<ellipse class="st12" cx="224" cy="70.9" rx="1.8" ry="0.4"/>
			<ellipse class="st12" cx="227.2" cy="72.2" rx="1.2" ry="0.3"/>
			<ellipse class="st12" cx="229.9" cy="73.1" rx="1.1" ry="0.3"/>
		</g>
	</g>
	<g>
		<rect x="116" y="54.1" class="st10" width="18.8" height="1.7"/>
		<path class="st10" d="M134.8,55.8C134.8,55.8,134.8,55.8,134.8,55.8c0,0.1,0,0.1,0,0.1c-0.2,1.1-4.3,2-9.4,2
			c-1.5,0-2.9-0.1-4.2-0.2c-1.9-0.2-3.4-0.6-4.3-1c-0.3-0.2-0.6-0.3-0.7-0.5c-0.1-0.1-0.1-0.2-0.2-0.3c0,0,0-0.1,0-0.1
			c0-0.1,0-0.2,0.1-0.3c0.1-0.2,0.2-0.4,0.5-0.6c0.3-0.3,0.7-0.5,1.3-0.8c0.1,0,0.2-0.1,0.2-0.1c0.1,0,0.2-0.1,0.3-0.1
			c0.2-0.1,0.4-0.2,0.6-0.2c0,0,0.1,0,0.1,0c0.2-0.1,0.5-0.2,0.7-0.2c0.5-0.1,1-0.3,1.5-0.4c1.2-0.3,2.6-0.4,4.1-0.4
			c1.6,0,3,0.2,4.3,0.5c0.4,0.1,0.8,0.2,1.1,0.3c0.8,0.2,1.5,0.5,2.1,0.8c0,0,0.1,0,0.1,0.1c0.1,0.1,0.2,0.1,0.3,0.2c0,0,0,0,0,0
			c0.3,0.2,0.6,0.4,0.8,0.5C134.6,55.2,134.8,55.5,134.8,55.8C134.8,55.7,134.8,55.7,134.8,55.8z"/>
		<g>
			<ellipse class="st11" cx="125.4" cy="54.2" rx="9.4" ry="2.1"/>
			<ellipse class="st12" cx="120.3" cy="55.1" rx="2" ry="0.5"/>
			<path class="st12" d="M128,53.2c0.7,0,0,0.1,0,0.3s-0.5,0.3-1.2,0.3c-0.7,0-1.2-0.1-1.2-0.3S127.3,53.2,128,53.2z"/>
			<ellipse class="st12" cx="122.4" cy="53.4" rx="1.8" ry="0.4"/>
			<ellipse class="st12" cx="125.6" cy="54.7" rx="1.2" ry="0.3"/>
			<ellipse class="st12" cx="128.3" cy="55.6" rx="1.1" ry="0.3"/>
		</g>
	</g>
	<g>
		<rect x="250.1" y="89.2" class="st10" width="18.8" height="1.7"/>
		<path class="st10" d="M268.9,90.8C268.9,90.8,268.9,90.8,268.9,90.8c0,0.1,0,0.1,0,0.1c-0.2,1.1-4.3,2-9.4,2
			c-1.5,0-2.9-0.1-4.2-0.2c-1.9-0.2-3.4-0.6-4.3-1c-0.3-0.2-0.6-0.3-0.7-0.5c-0.1-0.1-0.1-0.2-0.2-0.3c0,0,0-0.1,0-0.1
			c0-0.1,0-0.2,0.1-0.3c0.1-0.2,0.2-0.4,0.5-0.6c0.3-0.3,0.7-0.5,1.3-0.8c0.1,0,0.2-0.1,0.2-0.1c0.1,0,0.2-0.1,0.3-0.1
			c0.2-0.1,0.4-0.2,0.6-0.2c0,0,0.1,0,0.1,0c0.2-0.1,0.5-0.2,0.7-0.2c0.5-0.1,1-0.3,1.5-0.4c1.2-0.3,2.6-0.4,4.1-0.4
			c1.6,0,3,0.2,4.3,0.5c0.4,0.1,0.8,0.2,1.1,0.3c0.8,0.2,1.5,0.5,2.1,0.8c0,0,0.1,0,0.1,0.1c0.1,0.1,0.2,0.1,0.3,0.2c0,0,0,0,0,0
			c0.3,0.2,0.6,0.4,0.8,0.5C268.7,90.2,268.8,90.5,268.9,90.8C268.9,90.8,268.9,90.8,268.9,90.8z"/>
		<g>
			<ellipse class="st11" cx="259.5" cy="89.2" rx="9.4" ry="2.1"/>
			<ellipse class="st12" cx="254.4" cy="90.1" rx="2" ry="0.5"/>
			<path class="st12" d="M262,88.2c0.7,0,0,0.1,0,0.3s-0.5,0.3-1.2,0.3c-0.7,0-1.2-0.1-1.2-0.3S261.4,88.2,262,88.2z"/>
			<ellipse class="st12" cx="256.5" cy="88.4" rx="1.8" ry="0.4"/>
			<ellipse class="st12" cx="259.6" cy="89.8" rx="1.2" ry="0.3"/>
			<ellipse class="st12" cx="262.4" cy="90.7" rx="1.1" ry="0.3"/>
		</g>
	</g>
	<g>
		<rect x="259.5" y="49.9" class="st10" width="18.8" height="1.7"/>
		<path class="st10" d="M278.3,51.5C278.3,51.5,278.3,51.6,278.3,51.5c0,0.1,0,0.1,0,0.1c-0.2,1.1-4.3,2-9.4,2
			c-1.5,0-2.9-0.1-4.2-0.2c-1.9-0.2-3.4-0.6-4.3-1c-0.3-0.2-0.6-0.3-0.7-0.5c-0.1-0.1-0.1-0.2-0.2-0.3c0,0,0-0.1,0-0.1
			c0-0.1,0-0.2,0.1-0.3c0.1-0.2,0.2-0.4,0.5-0.6c0.3-0.3,0.7-0.5,1.3-0.8c0.1,0,0.2-0.1,0.2-0.1c0.1,0,0.2-0.1,0.3-0.1
			c0.2-0.1,0.4-0.2,0.6-0.2c0,0,0.1,0,0.1,0c0.2-0.1,0.5-0.2,0.7-0.2c0.5-0.1,1-0.3,1.5-0.4c1.2-0.3,2.6-0.4,4.1-0.4
			c1.6,0,3,0.2,4.3,0.5c0.4,0.1,0.8,0.2,1.1,0.3c0.8,0.2,1.5,0.5,2.1,0.8c0,0,0.1,0,0.1,0.1c0.1,0.1,0.2,0.1,0.3,0.2c0,0,0,0,0,0
			c0.3,0.2,0.6,0.4,0.8,0.5C278,51,278.2,51.2,278.3,51.5C278.3,51.5,278.3,51.5,278.3,51.5z"/>
		<g>
			<ellipse class="st11" cx="268.9" cy="50" rx="9.4" ry="2.1"/>
			<ellipse class="st12" cx="263.8" cy="50.8" rx="2" ry="0.5"/>
			<path class="st12" d="M271.4,48.9c0.7,0,0,0.1,0,0.3s-0.5,0.3-1.2,0.3c-0.7,0-1.2-0.1-1.2-0.3S270.8,48.9,271.4,48.9z"/>
			<ellipse class="st12" cx="265.9" cy="49.2" rx="1.8" ry="0.4"/>
			<ellipse class="st12" cx="269" cy="50.5" rx="1.2" ry="0.3"/>
			<ellipse class="st12" cx="271.8" cy="51.4" rx="1.1" ry="0.3"/>
		</g>
	</g>
	<g>
		<rect x="297.8" y="67.1" class="st10" width="18.8" height="1.7"/>
		<path class="st10" d="M316.6,68.7C316.6,68.8,316.6,68.8,316.6,68.7c0,0.1,0,0.1,0,0.1c-0.2,1.1-4.3,2-9.4,2
			c-1.5,0-2.9-0.1-4.2-0.2c-1.9-0.2-3.4-0.6-4.3-1c-0.3-0.2-0.6-0.3-0.7-0.5c-0.1-0.1-0.1-0.2-0.2-0.3c0,0,0-0.1,0-0.1
			c0-0.1,0-0.2,0.1-0.3c0.1-0.2,0.2-0.4,0.5-0.6c0.3-0.3,0.7-0.5,1.3-0.8c0.1,0,0.2-0.1,0.2-0.1c0.1,0,0.2-0.1,0.3-0.1
			c0.2-0.1,0.4-0.2,0.6-0.2c0,0,0.1,0,0.1,0c0.2-0.1,0.5-0.2,0.7-0.2c0.5-0.1,1-0.3,1.5-0.4c1.2-0.3,2.6-0.4,4.1-0.4
			c1.6,0,3,0.2,4.3,0.5c0.4,0.1,0.8,0.2,1.1,0.3c0.8,0.2,1.5,0.5,2.1,0.8c0,0,0.1,0,0.1,0.1c0.1,0.1,0.2,0.1,0.3,0.2c0,0,0,0,0,0
			c0.3,0.2,0.6,0.4,0.8,0.5C316.4,68.2,316.5,68.4,316.6,68.7C316.6,68.7,316.6,68.7,316.6,68.7z"/>
		<g>
			<ellipse class="st11" cx="307.2" cy="67.2" rx="9.4" ry="2.1"/>
			<ellipse class="st12" cx="302.1" cy="68" rx="2" ry="0.5"/>
			<path class="st12" d="M309.7,66.1c0.7,0,0,0.1,0,0.3s-0.5,0.3-1.2,0.3c-0.7,0-1.2-0.1-1.2-0.3S309.1,66.1,309.7,66.1z"/>
			<ellipse class="st12" cx="304.2" cy="66.4" rx="1.8" ry="0.4"/>
			<ellipse class="st12" cx="307.3" cy="67.7" rx="1.2" ry="0.3"/>
			<ellipse class="st12" cx="310.1" cy="68.6" rx="1.1" ry="0.3"/>
		</g>
	</g>
	<g>
		<rect x="173.5" y="91.8" class="st10" width="18.8" height="1.7"/>
		<path class="st10" d="M192.2,93.5C192.2,93.5,192.2,93.5,192.2,93.5c0,0.1,0,0.1,0,0.1c-0.2,1.1-4.3,2-9.4,2
			c-1.5,0-2.9-0.1-4.2-0.2c-1.9-0.2-3.4-0.6-4.3-1c-0.3-0.2-0.6-0.3-0.7-0.5c-0.1-0.1-0.1-0.2-0.2-0.3c0,0,0-0.1,0-0.1
			c0-0.1,0-0.2,0.1-0.3c0.1-0.2,0.2-0.4,0.5-0.6c0.3-0.3,0.7-0.5,1.3-0.8c0.1,0,0.2-0.1,0.2-0.1c0.1,0,0.2-0.1,0.3-0.1
			c0.2-0.1,0.4-0.2,0.6-0.2c0,0,0.1,0,0.1,0c0.2-0.1,0.5-0.2,0.7-0.2c0.5-0.1,1-0.3,1.5-0.4c1.2-0.3,2.6-0.4,4.1-0.4
			c1.6,0,3,0.2,4.3,0.5c0.4,0.1,0.8,0.2,1.1,0.3c0.8,0.2,1.5,0.5,2.1,0.8c0,0,0.1,0,0.1,0.1c0.1,0.1,0.2,0.1,0.3,0.2c0,0,0,0,0,0
			c0.3,0.2,0.6,0.4,0.8,0.5C192,92.9,192.2,93.2,192.2,93.5C192.2,93.4,192.2,93.4,192.2,93.5z"/>
		<g>
			<ellipse class="st11" cx="182.9" cy="91.9" rx="9.4" ry="2.1"/>
			<ellipse class="st12" cx="177.7" cy="92.8" rx="2" ry="0.5"/>
			<path class="st12" d="M185.4,90.9c0.7,0,0,0.1,0,0.3s-0.5,0.3-1.2,0.3c-0.7,0-1.2-0.1-1.2-0.3S184.8,90.9,185.4,90.9z"/>
			<ellipse class="st12" cx="179.8" cy="91.1" rx="1.8" ry="0.4"/>
			<ellipse class="st12" cx="183" cy="92.4" rx="1.2" ry="0.3"/>
			<ellipse class="st12" cx="185.8" cy="93.3" rx="1.1" ry="0.3"/>
		</g>
	</g>
	<g>
		<rect x="173.5" y="55.5" class="st10" width="18.8" height="1.7"/>
		<path class="st10" d="M192.2,57.1C192.2,57.1,192.2,57.1,192.2,57.1c0,0.1,0,0.1,0,0.1c-0.2,1.1-4.3,2-9.4,2
			c-1.5,0-2.9-0.1-4.2-0.2c-1.9-0.2-3.4-0.6-4.3-1c-0.3-0.2-0.6-0.3-0.7-0.5c-0.1-0.1-0.1-0.2-0.2-0.3c0,0,0-0.1,0-0.1
			c0-0.1,0-0.2,0.1-0.3c0.1-0.2,0.2-0.4,0.5-0.6c0.3-0.3,0.7-0.5,1.3-0.8c0.1,0,0.2-0.1,0.2-0.1c0.1,0,0.2-0.1,0.3-0.1
			c0.2-0.1,0.4-0.2,0.6-0.2c0,0,0.1,0,0.1,0c0.2-0.1,0.5-0.2,0.7-0.2c0.5-0.1,1-0.3,1.5-0.4c1.2-0.3,2.6-0.4,4.1-0.4
			c1.6,0,3,0.2,4.3,0.5c0.4,0.1,0.8,0.2,1.1,0.3c0.8,0.2,1.5,0.5,2.1,0.8c0,0,0.1,0,0.1,0.1c0.1,0.1,0.2,0.1,0.3,0.2c0,0,0,0,0,0
			c0.3,0.2,0.6,0.4,0.8,0.5C192,56.5,192.2,56.8,192.2,57.1C192.2,57.1,192.2,57.1,192.2,57.1z"/>
		<g>
			<ellipse class="st11" cx="182.8" cy="55.5" rx="9.4" ry="2.1"/>
			<ellipse class="st12" cx="177.7" cy="56.4" rx="2" ry="0.5"/>
			<path class="st12" d="M185.4,54.5c0.7,0,0,0.1,0,0.3s-0.5,0.3-1.2,0.3c-0.7,0-1.2-0.1-1.2-0.3S184.7,54.5,185.4,54.5z"/>
			<ellipse class="st12" cx="179.8" cy="54.7" rx="1.8" ry="0.4"/>
			<ellipse class="st12" cx="183" cy="56.1" rx="1.2" ry="0.3"/>
			<ellipse class="st12" cx="185.8" cy="56.9" rx="1.1" ry="0.3"/>
		</g>
	</g>
</g>
</svg>
