<svg xmlns="http://www.w3.org/2000/svg" xmlns:xlink="http://www.w3.org/1999/xlink" viewBox="0 0 389 157" xmlns:v="https://vecta.io/nano"><style><![CDATA[.O{fill:#8f282d}.P{fill:#bc343b}.Q{fill:#fff}]]></style><g class="O"><path d="M69.4 83.3h24v2.2h-24z"/><path d="M93.4 85.3c0 .1 0 .1 0 0 0 .1 0 .1 0 0-.3 1.5-5.5 2.7-12 2.7-1.9 0-3.7-.1-5.3-.3-2.4-.3-4.4-.7-5.5-1.3-.4-.2-.8-.4-.9-.6-.1-.1-.2-.2-.2-.4v-.1c0-.1 0-.2.1-.3.1-.2.3-.5.6-.7.4-.3 1-.7 1.6-1 .1-.1.2-.1.3-.1.1-.1.2-.1.4-.2s.5-.2.8-.3h.1l.9-.3c.6-.2 1.3-.3 1.9-.5a28.67 28.67 0 0 1 5.2-.5c2 0 3.9.2 5.5.6.5.1 1 .2 1.5.4 1 .3 1.9.6 2.7 1 .1 0 .1.1.2.1.2.1.3.2.4.2h0c.4.2.7.5 1 .7.4.2.6.6.7.9h0z"/></g><ellipse cx="81.4" cy="83.4" rx="12" ry="2.7" class="P"/><g class="Q"><ellipse cx="74.9" cy="84.4" rx="2.5" ry=".6"/><path d="M84.7 82c.8 0 0 .2 0 .4s-.7.4-1.5.4-1.5-.2-1.5-.4 2.1-.4 3-.4z"/><ellipse cx="77.5" cy="82.3" rx="2.3" ry=".5"/><ellipse cx="81.6" cy="84" rx="1.6" ry=".4"/><ellipse cx="85.1" cy="85.2" rx="1.4" ry=".3"/></g><g class="O"><path d="M134 96.3h18.8V98H134z"/><path d="M152.7 98h0c0 .1 0 .1 0 0-.2 1.2-4.3 2.1-9.4 2.1-1.5 0-2.9-.1-4.2-.2-1.9-.2-3.4-.6-4.3-1-.3-.2-.6-.3-.7-.5-.1-.1-.1-.2-.2-.3V98c0-.1 0-.2.1-.3.1-.2.2-.4.5-.6.3-.3.7-.5 1.3-.8.1 0 .2-.1.2-.1.1 0 .2-.1.3-.1.2-.1.4-.2.6-.2h.1c.2-.1.5-.2.7-.2.5-.1 1-.3 1.5-.4 1.2-.3 2.6-.4 4.1-.4 1.6 0 3 .2 4.3.5l1.1.3c.8.2 1.5.5 2.1.8 0 0 .1 0 .1.1.1.1.2.1.3.2h0l.8.5c.5.1.7.4.7.7 0-.1 0-.1 0 0z"/></g><ellipse cx="143.3" cy="96.4" rx="9.4" ry="2.1" class="P"/><g class="Q"><ellipse cx="138.2" cy="97.3" rx="2" ry=".5"/><use xlink:href="#B"/><ellipse cx="140.3" cy="95.6" rx="1.8" ry=".4"/><ellipse cx="143.5" cy="96.9" rx="1.2" ry=".3"/><ellipse cx="146.3" cy="97.8" rx="1.1" ry=".3"/></g><g class="O"><path d="M227.6 64.6h18.8v1.7h-18.8z"/><path d="M246.4 66.2c0 .1 0 .1 0 0 0 .1 0 .1 0 0-.2 1.2-4.3 2.1-9.4 2.1-1.5 0-2.9-.1-4.2-.2-1.9-.2-3.4-.6-4.3-1-.3-.2-.6-.3-.7-.5-.1-.1-.1-.2-.2-.3v-.1c0-.1 0-.2.1-.3.1-.2.2-.4.5-.6.3-.3.7-.5 1.3-.8.1 0 .2-.1.2-.1.1 0 .2-.1.3-.1.2-.1.4-.2.6-.2h.1c.2-.1.5-.2.7-.2.5-.1 1-.3 1.5-.4 1.2-.3 2.6-.4 4.1-.4 1.6 0 3 .2 4.3.5l1.1.3c.8.2 1.5.5 2.1.8 0 0 .1 0 .1.1.1.1.2.1.3.2h0l.8.5c.5.2.7.4.7.7h0z"/></g><ellipse cx="237" cy="64.7" rx="9.4" ry="2.1" class="P"/><g class="Q"><ellipse cx="231.9" cy="65.5" rx="2" ry=".5"/><use xlink:href="#B" x="93.7" y="-31.8"/><ellipse cx="234" cy="63.9" rx="1.8" ry=".4"/><ellipse cx="237.2" cy="65.2" rx="1.2" ry=".3"/><ellipse cx="239.9" cy="66.1" rx="1.1" ry=".3"/></g><g class="O"><path d="M151.3 43h18.8v1.7h-18.8z"/><use xlink:href="#C"/></g><ellipse cx="160.7" cy="43.1" rx="9.4" ry="2.1" class="P"/><g class="Q"><ellipse cx="155.6" cy="44" rx="2" ry=".5"/><use xlink:href="#B" x="17.4" y="-53.3"/><ellipse cx="157.7" cy="42.3" rx="1.8" ry=".4"/><ellipse cx="160.9" cy="43.6" rx="1.2" ry=".3"/><ellipse cx="163.6" cy="44.5" rx="1.1" ry=".3"/></g><g class="O"><path d="M281 90.1h18.8v1.7H281z"/><path d="M299.8 91.7h0c0 .1 0 .1 0 0-.2 1.2-4.3 2.1-9.4 2.1-1.5 0-2.9-.1-4.2-.2-1.9-.2-3.4-.6-4.3-1-.3-.2-.6-.3-.7-.5-.1-.1-.1-.2-.2-.3v-.1c0-.1 0-.2.1-.3.1-.2.2-.4.5-.6.3-.3.7-.5 1.3-.8.1 0 .2-.1.2-.1.1 0 .2-.1.3-.1.2-.1.4-.2.6-.2h.1c.2-.1.5-.2.7-.2.5-.1 1-.3 1.5-.4 1.2-.3 2.6-.4 4.1-.4 1.6 0 3 .2 4.3.5l1.1.3c.8.2 1.5.5 2.1.8 0 0 .1 0 .1.1.1.1.2.1.3.2h0l.8.5c.5.1.6.4.7.7h0z"/></g><ellipse cx="290.4" cy="90.1" rx="9.4" ry="2.1" class="P"/><g class="Q"><ellipse cx="285.3" cy="91" rx="2" ry=".5"/><use xlink:href="#D"/><ellipse cx="287.4" cy="89.3" rx="1.8" ry=".4"/><ellipse cx="290.5" cy="90.7" rx="1.2" ry=".3"/><ellipse cx="293.3" cy="91.6" rx="1.1" ry=".3"/></g><g class="O"><path d="M236.6 40.7h18.8v1.7h-18.8z"/><path d="M255.4 42.3s0 .1 0 0c0 .1 0 .1 0 0-.2 1.2-4.3 2.1-9.4 2.1-1.5 0-2.9-.1-4.2-.2-1.9-.2-3.4-.6-4.3-1-.3-.2-.6-.3-.7-.5-.1-.1-.1-.2-.2-.3v-.1c0-.1 0-.2.1-.3.1-.2.2-.4.5-.6.3-.3.7-.5 1.3-.8.1 0 .2-.1.2-.1.1 0 .2-.1.3-.1.2-.1.4-.2.6-.2h.1c.2-.1.5-.2.7-.2.5-.1 1-.3 1.5-.4 1.2-.3 2.6-.4 4.1-.4 1.6 0 3 .2 4.3.5l1.1.3c.8.2 1.5.5 2.1.8 0 0 .1 0 .1.1.1.1.2.1.3.2h0l.8.5c.4.2.6.4.7.7h0z"/></g><ellipse cx="246" cy="40.8" rx="9.4" ry="2.1" class="P"/><g class="Q"><ellipse cx="240.9" cy="41.6" rx="2" ry=".5"/><use xlink:href="#D" x="-44.4" y="-49.4"/><ellipse cx="243" cy="40" rx="1.8" ry=".4"/><ellipse cx="246.1" cy="41.3" rx="1.2" ry=".3"/><ellipse cx="248.9" cy="42.2" rx="1.1" ry=".3"/></g><g class="O"><path d="M322.8 67.1h18.8v1.7h-18.8z"/><path d="M341.6 68.7c0 .1 0 .1 0 0 0 .1 0 .1 0 0-.2 1.2-4.3 2.1-9.4 2.1-1.5 0-2.9-.1-4.2-.2-1.9-.2-3.4-.6-4.3-1-.3-.2-.6-.3-.7-.5-.1-.1-.1-.2-.2-.3v-.1c0-.1 0-.2.1-.3.1-.2.2-.4.5-.6.3-.3.7-.5 1.3-.8.1 0 .2-.1.2-.1.1 0 .2-.1.3-.1.2-.1.4-.2.6-.2h.1c.2-.1.5-.2.7-.2.5-.1 1-.3 1.5-.4 1.2-.3 2.6-.4 4.1-.4 1.6 0 3 .2 4.3.5l1.1.3c.8.2 1.5.5 2.1.8 0 0 .1 0 .1.1.1.1.2.1.3.2h0l.8.5c.5.2.6.4.7.7h0z"/></g><ellipse cx="332.2" cy="67.2" rx="9.4" ry="2.1" class="P"/><g class="Q"><ellipse cx="327.1" cy="68" rx="2" ry=".5"/><use xlink:href="#D" x="41.8" y="-23"/><ellipse cx="329.2" cy="66.4" rx="1.8" ry=".4"/><ellipse cx="332.3" cy="67.7" rx="1.2" ry=".3"/><ellipse cx="335.1" cy="68.6" rx="1.1" ry=".3"/></g><g class="O"><path d="M217.9 97.6h18.8v1.7h-18.8z"/><use xlink:href="#C" x="66.5" y="54.6"/></g><ellipse cx="227.3" cy="97.7" rx="9.4" ry="2.1" class="P"/><g class="Q"><ellipse cx="222.1" cy="98.6" rx="2" ry=".5"/><use xlink:href="#D" x="-63.1" y="7.6"/><ellipse cx="224.2" cy="96.9" rx="1.8" ry=".4"/><ellipse cx="227.4" cy="98.2" rx="1.2" ry=".3"/><ellipse cx="230.2" cy="99.1" rx="1.1" ry=".3"/></g><g class="O"><path d="M166.3 64.3h18.8V66h-18.8z"/><path d="M185 65.9h0v.1c-.2 1.1-4.3 2-9.4 2-1.5 0-2.9-.1-4.2-.2-1.9-.2-3.4-.6-4.3-1-.3-.2-.6-.3-.7-.5-.1-.1-.1-.2-.2-.3v-.1c0-.1 0-.2.1-.3.1-.2.2-.4.5-.6.3-.3.7-.5 1.3-.8.1 0 .2-.1.2-.1.1 0 .2-.1.3-.1.2-.1.4-.2.6-.2h.1c.2-.1.5-.2.7-.2.5-.1 1-.3 1.5-.4 1.2-.3 2.6-.4 4.1-.4 1.6 0 3 .2 4.3.5l1.1.3c.8.2 1.5.5 2.1.8 0 0 .1 0 .1.1.1.1.2.1.3.2h0l.8.5c.5.1.7.4.7.7h0z"/></g><ellipse cx="175.6" cy="64.3" rx="9.4" ry="2.1" class="P"/><g class="Q"><ellipse cx="170.5" cy="65.2" rx="2" ry=".5"/><use xlink:href="#B" x="32.3" y="-32.1"/><ellipse cx="172.6" cy="63.5" rx="1.8" ry=".4"/><ellipse cx="175.8" cy="64.9" rx="1.2" ry=".3"/><ellipse cx="178.6" cy="65.7" rx="1.1" ry=".3"/></g><defs ><path id="B" d="M145.9 95.4c.7 0 0 .1 0 .3s-.5.3-1.2.3-1.2-.1-1.2-.3 1.7-.3 2.4-.3z"/><path id="C" d="M170.1 44.7h0c0 .1 0 .1 0 0-.2 1.2-4.3 2.1-9.4 2.1-1.5 0-2.9-.1-4.2-.2-1.9-.2-3.4-.6-4.3-1-.3-.2-.6-.3-.7-.5-.1-.1-.1-.2-.2-.3v-.1c0-.1 0-.2.1-.3.1-.2.2-.4.5-.6.3-.3.7-.5 1.3-.8.1 0 .2-.1.2-.1.1 0 .2-.1.3-.1.2-.1.4-.2.6-.2h.1c.2-.1.5-.2.7-.2.5-.1 1-.3 1.5-.4 1.2-.3 2.6-.4 4.1-.4 1.6 0 3 .2 4.3.5l1.1.3c.8.2 1.5.5 2.1.8 0 0 .1 0 .1.1.1.1.2.1.3.2h0l.8.5c.5.1.7.4.7.7 0-.1 0-.1 0 0z"/><path id="D" d="M292.9 89.1c.7 0 0 .1 0 .3s-.5.3-1.2.3-1.2-.1-1.2-.3 1.8-.3 2.4-.3z"/></defs></svg>