<svg xmlns="http://www.w3.org/2000/svg" xmlns:xlink="http://www.w3.org/1999/xlink" viewBox="0 0 389 157" xmlns:v="https://vecta.io/nano"><style><![CDATA[.T{fill:#e2786d}.U{fill:#d15e52}.V{fill:#ef8675}.W{opacity:.28}.X{enable-background:new}.Y{fill:#c43922}.Z{fill:#f75237}.a{fill:#c6584f}.b{fill:#f4987f}.c{fill:#f4aa67}]]></style><use xlink:href="#B" class="Y"/><use xlink:href="#C" class="T"/><use xlink:href="#D" class="Z"/><use xlink:href="#E" class="U"/><use xlink:href="#F" class="a"/><use xlink:href="#G" class="U"/><use xlink:href="#H" class="V"/><g class="T"><use xlink:href="#I"/><use xlink:href="#J"/></g><use xlink:href="#K" class="V"/><use xlink:href="#L" class="b"/><g class="c"><path d="M157.1 83.6c.1-.2.3-.4.6-.5 0 .2-.1.4-.1.6v.1c-.2.3-.6.1-.5-.2zm-.8-.3c0-.1 0-.2.1-.3s.1-.1.2-.1c.2-.1.4-.1.6-.1-.1.1-.1.3-.2.4 0 .1-.1.1-.1.2-.2.2-.5.2-.6-.1zm-.6-.9c0-.1 0-.2.1-.3 0 0 .1 0 .1-.1.3-.1.6 0 .9.1-.1.1-.3.2-.4.3-.1 0-.1.1-.2.1-.2.3-.5.3-.5-.1zm.3-.7c-.1 0-.2-.1-.2-.2-.1-.1-.1-.2-.1-.3V81c0-.1.1-.1.2-.1s.2 0 .3.1.9.3.7.6c-.1.1-.3.1-.3.1-.3 0-.5.1-.6 0z"/><use xlink:href="#M"/><path d="M156.4 79.7c-.1-.1-.2-.3-.1-.5.1-.1.2-.1.3-.1s.2.1.3.2.2.2.2.4c.3.4-.5.1-.7 0zm.6-1v-.2c.1 0 .1-.1.2-.1h.1l.1.1c.1.1.4.4.2.5s-.6-.1-.6-.3z"/><path d="M157.7 78.3h0c0-.2.1-.2.2-.3.1 0 .2 0 .2.1.1.1.1.1.1.2.1.1.1.5-.1.4-.2 0-.4-.2-.4-.4zm.9.1c-.1-.1-.1-.2-.1-.3v-.2c.1-.1.2-.1.3-.1h.1v.4c-.1.2-.2.3-.3.2zm-.7 5.5c-.1-.1 0-.2 0-.3.1-.1.1-.2.2-.3.1.1.1.2.2.3 0 .1.1.1 0 .2 0 .2-.3.2-.4.1z"/><path d="M158.8 84c-.1 0-.2 0-.2-.1v-.3s0-.1.1-.1h.1c.1.1.2.1.2.2l.1.1s0 .1-.1.1c-.1.1-.2.1-.2.1h0zm6.8-.2c-.1-.2-.3-.4-.5-.5 0 .2 0 .4.1.6v.1c0 .2.5.1.4-.2zm.8-.3v-.3c0-.1-.1-.1-.2-.1-.2-.1-.4-.1-.6-.2.1.1.1.3.2.4 0 .1.1.1.1.2.1.2.4.3.5 0zm.6-.9c0-.1 0-.2-.1-.3 0 0-.1 0-.1-.1-.3-.1-.6-.1-.9 0 .1.1.3.2.4.4.1.1.1.1.2.1.3.2.5.2.5-.1zm-.2-.7c.1 0 .2-.1.3-.2s.1-.2.1-.3v-.2c0-.1-.1-.1-.2-.1h-.3c-.2.1-.9.3-.7.5.1.1.2.1.3.1.2.2.4.2.5.2zm-.4-1.1h.5c.2 0 .3-.2.3-.3s-.1-.2-.2-.3h-.2c-.2.1-.5.3-.7.4-.4.2.2.2.3.2zm0-1c.1-.1.2-.3.1-.5-.1-.1-.2-.1-.3-.1s-.2.1-.3.2-.2.2-.2.3c-.3.5.6.3.7.1zm-.4-.9c.1-.1 0-.2 0-.2-.1 0-.1-.1-.2-.1h-.1l-.1.1c-.1.1-.4.4-.2.5.2 0 .5-.2.6-.3zm-.7-.5h0c0-.2-.1-.3-.2-.3s-.2 0-.2.1l-.2.2c-.1.1-.2.5.1.4.3 0 .4-.2.5-.4zm-.9 0c.1-.1.1-.2.1-.3v-.2c0-.1-.2-.1-.3-.1h-.1v.4c.1.2.2.4.3.2zm.3 5.6c.1-.1 0-.2 0-.3-.1-.1-.1-.2-.2-.3-.1.1-.1.2-.2.3 0 .1-.1.1 0 .2 0 .2.4.2.4.1z"/><path d="M163.9 84c.1 0 .2 0 .2-.1v-.4h-.1c-.1.1-.2.1-.2.2l-.1.1s0 .1.1.1c0 .1 0 .1.1.1h0z"/></g><g fill="#fff" class="X"><path d="M154.8 81.9c.2.4.1.9.2 1.4a1.98 1.98 0 0 0 1.1 1.1c.5.2 1 .3 1.6.4.1 0 .3.1.3.3 0 .1 0 .1-.1.1-.3.3-.8.2-1.2 0A6.57 6.57 0 0 1 155 84c-.4-.4-.8-.8-.8-1.3 0-.3.2-1.6.6-.8z" class="W"/><use xlink:href="#N" class="W"/><use xlink:href="#O" class="W"/></g><use xlink:href="#B" x="33.3" y="-27.2" class="Y"/><use xlink:href="#C" x="33.3" y="-27.2" class="T"/><use xlink:href="#D" x="33.3" y="-27.2" class="Z"/><use xlink:href="#E" x="33.3" y="-27.2" class="U"/><use xlink:href="#F" x="33.3" y="-27.2" class="a"/><use xlink:href="#G" x="33.3" y="-27.2" class="U"/><use xlink:href="#H" x="33.3" y="-27.2" class="V"/><g class="T"><use xlink:href="#I" x="33.3" y="-27.2"/><use xlink:href="#J" x="33.3" y="-27.2"/></g><use xlink:href="#K" x="33.3" y="-27.2" class="V"/><use xlink:href="#L" x="33.3" y="-27.2" class="b"/><g class="c"><path d="M190.4 56.4c.1-.2.3-.4.6-.5 0 .2-.1.4-.1.6v.1c-.2.3-.6.1-.5-.2zm-.8-.3c0-.1 0-.2.1-.3s.1-.1.2-.1c.2-.1.4-.1.6-.1-.1.1-.1.3-.2.4 0 .1-.1.1-.1.2-.2.2-.5.2-.6-.1zm-.6-.9c0-.1 0-.2.1-.3 0 0 .1 0 .1-.1.3-.1.6 0 .9.1-.1.1-.3.2-.4.3-.1 0-.1.1-.2.1-.2.3-.5.3-.5-.1zm.3-.7c-.1 0-.2-.1-.2-.2-.1-.1-.1-.2-.1-.3v-.2c0-.1.1-.1.2-.1s.2 0 .3.1.9.3.7.6c-.1.1-.3.1-.3.1-.3 0-.5.1-.6 0z"/><use xlink:href="#M" x="33.3" y="-27.2"/><path d="M189.7 52.5c-.1-.1-.2-.3-.1-.5.1-.1.2-.1.3-.1s.2.1.3.2.2.2.2.4c.3.4-.5.1-.7 0zm.6-1v-.2c.1 0 .1-.1.2-.1h.1l.1.1c.1.1.4.4.2.5s-.6-.1-.6-.3z"/><path d="M191 51.1h0c0-.2.1-.2.2-.3.1 0 .2 0 .2.1.1.1.1.1.1.2.1.1.1.5-.1.4-.2 0-.4-.2-.4-.4zm.9.1c-.1-.1-.1-.2-.1-.3v-.2c.1-.1.2-.1.3-.1h.1v.4c-.1.2-.2.3-.3.2zm-.7 5.5c-.1-.1 0-.2 0-.3.1-.1.1-.2.2-.3.1.1.1.2.2.3 0 .1.1.1 0 .2 0 .2-.3.2-.4.1z"/><path d="M192.1 56.8c-.1 0-.2 0-.2-.1v-.3s0-.1.1-.1h.1c.1.1.2.1.2.2l.1.1s0 .1-.1.1c-.1.1-.2.1-.2.1h0zm6.8-.2c-.1-.2-.3-.4-.5-.5 0 .2 0 .4.1.6v.1c0 .2.5.1.4-.2zm.8-.3V56c0-.1-.1-.1-.2-.1-.2-.1-.4-.1-.6-.2.1.1.1.3.2.4 0 .1.1.1.1.2.1.2.4.3.5 0zm.6-.9c0-.1 0-.2-.1-.3 0 0-.1 0-.1-.1-.3-.1-.6-.1-.9 0 .1.1.3.2.4.4.1.1.1.1.2.1.3.2.5.2.5-.1zm-.2-.7c.1 0 .2-.1.3-.2s.1-.2.1-.3V54c0-.1-.1-.1-.2-.1h-.3c-.2.1-.9.3-.7.5.1.1.2.1.3.1.2.2.4.2.5.2zm-.4-1.1h.5c.2 0 .3-.2.3-.3s-.1-.2-.2-.3h-.2c-.2.1-.5.3-.7.4-.4.2.2.2.3.2zm0-1c.1-.1.2-.3.1-.5-.1-.1-.2-.1-.3-.1s-.2.1-.3.2-.2.2-.2.3c-.3.5.6.3.7.1zm-.4-.9c.1-.1 0-.2 0-.2-.1 0-.1-.1-.2-.1h-.1l-.1.1c-.1.1-.4.4-.2.5.2 0 .5-.2.6-.3zm-.7-.5h0c0-.2-.1-.3-.2-.3s-.2 0-.2.1l-.2.2c-.1.1-.2.5.1.4.3 0 .4-.2.5-.4zm-.9 0c.1-.1.1-.2.1-.3v-.2c0-.1-.2-.1-.3-.1h-.1v.4c.1.2.2.4.3.2zm.3 5.6c.1-.1 0-.2 0-.3-.1-.1-.1-.2-.2-.3-.1.1-.1.2-.2.3 0 .1-.1.1 0 .2 0 .2.4.2.4.1z"/><path d="M197.2 56.8c.1 0 .2 0 .2-.1v-.4h-.1c-.1.1-.2.1-.2.2l-.1.1s0 .1.1.1c0 .1 0 .1.1.1h0z"/></g><g fill="#fff" class="X"><path d="M188.1 54.7c.2.4.1.9.2 1.4a1.98 1.98 0 0 0 1.1 1.1c.5.2 1 .3 1.6.4.1 0 .3.1.3.3 0 .1 0 .1-.1.1-.3.3-.8.2-1.2 0a6.57 6.57 0 0 1-1.7-1.2c-.4-.4-.8-.8-.8-1.3 0-.3.2-1.6.6-.8z" class="W"/><use xlink:href="#N" x="33.3" y="-27.2" class="W"/><use xlink:href="#O" x="33.3" y="-27.2" class="W"/></g><path d="M126.6 71.6c-.7-1.5-2.4-1.8-4-2.3-1.7-.5-3.5-.3-5 .6-.5.3-1.1.7-1.7.8-.6-.1-1.2-.5-1.7-.8-1.5-.9-3.4-1.1-5-.6s-3.4.9-4 2.4c-.7 1.6-.3 4.3.2 6 .2.8.5 1.6.9 2.3.9 1.4 2.4 2.3 4 2.7 3.6 1.1 9.3.8 11.2 0 1.5-.6 3.1-1.3 4-2.7.5-.7.7-1.5.9-2.3.5-1.7 1-4.4.2-6.1z" class="Y"/><path d="M126.4 70.9c-.7-1.5-2.1-2.7-3.7-3.2-1.7-.5-3.5-.3-5 .6-.5.3-1.1.7-1.7.8-.6-.1-1.2-.5-1.7-.8-1.5-.9-3.4-1.1-5-.6s-3.1 1.6-3.7 3.2c-.7 1.6-.5 3.5-.1 5.2.2.8.5 1.6.9 2.3.9 1.4 2.4 2.3 4 2.7 3.6 1.1 9.3.8 11.2 0 1.5-.6 3.1-1.3 4-2.7.5-.7.7-1.5.9-2.3.4-1.7.6-3.6-.1-5.2z" class="T"/><path d="M126.4 70.9c-.7-1.5-2.1-2.7-3.7-3.2-1.7-.5-3.5-.3-5 .6-.5.3-1.1.7-1.7.8-.6-.1-1.2-.5-1.7-.8-1.5-.9-3.4-1.1-5-.6s-3.1 1.6-3.7 3.2c-.7 1.6-.5 3.5-.1 5.2.2.8.5 1.6.9 2.3.9 1.4 2.4 2.3 4 2.7 3.6 1.1 9.3.8 11.2 0 1.5-.6 3.1-1.3 4-2.7.5-.7.7-1.5.9-2.3.4-1.7.6-3.6-.1-5.2zm-.3 5.1c-.2.8-.5 1.5-.9 2.2-.9 1.3-2.4 2-3.9 2.6-1.9.8-7.4 1-10.8 0-1.5-.5-3-1.3-3.9-2.6-.4-.7-.7-1.4-.9-2.2-.4-1.6-.6-3.4.1-4.9s2.1-2.5 3.6-3c1.6-.5 3.4-.2 4.9.6.5.3 1 .7 1.6.7.6-.1 1.1-.4 1.6-.7 1.5-.8 3.3-1 4.9-.6s3 1.5 3.6 3c.7 1.5.6 3.2.1 4.9z" class="Z"/><path d="M114.3 72.4c0-.8-.1-1.7-.8-2.1-.6-.4-1.4-.4-2.1-.4a6.28 6.28 0 0 0-1.9.3c-.6.2-1.2.6-1.5 1.1-.2.4-.3.8-.4 1.2-.2.9-.3 1.8 0 2.7.1.4.3.7.5 1.1.5.9 1 1.8 1.9 2.3.8.5 1.8.5 2.7.7.3.1.7.2 1 .1s.5-.3.6-.5.1-.5.1-.8c0-.8-.2-1.6-.1-2.4.1-.5-.1-.9-.1-1.4 0-.7 0-1.3.1-1.9z" class="U"/><path d="M108.8 76.7c-.2-.3-.4-.7-.5-1.1-.3-.9-.1-1.8 0-2.7.1-.4.2-.8.4-1.2.3-.5.9-.9 1.5-1.1a6.28 6.28 0 0 1 1.9-.3c.5 0 1 0 1.4.1 0 0-.1 0-.1-.1-.6-.4-1.4-.4-2.1-.4a6.28 6.28 0 0 0-1.9.3c-.6.2-1.2.6-1.5 1.1-.2.4-.3.8-.4 1.2-.2.9-.3 1.8 0 2.7.1.4.3.7.5 1.1.5.9 1 1.8 1.9 2.3l.6.3c-.7-.6-1.2-1.4-1.7-2.2z" class="a"/><path d="M118.1 72.3c0-.8.2-1.6.9-2.1.6-.4 1.4-.3 2.1-.2.6.1 1.3.2 1.9.4s1.1.6 1.4 1.2c.2.4.2.8.3 1.2.1.9.2 1.8-.1 2.7-.1.4-.3.7-.6 1-.5.8-1.1 1.7-2 2.2-.8.4-1.8.4-2.8.6-.3.1-.7.1-1 0s-.4-.3-.5-.6c-.1-.2-.1-.5-.1-.8 0-.8.3-1.6.2-2.4 0-.5.1-.9.2-1.4s.1-1.2.1-1.8z" class="U"/><path d="M113.3 68.3l.3.3c.4.4.1 1.2.5 1.6.1.1.3.2.4.3.2.2.4.5.4.8v.9c0 1.4.5 2.9.2 4.3-.1.3-.2.6-.2 1 0 .1 0 .2.1.2.1.1.2.1.3.1.1.1.2.2.2.4v.9c0 .2-.1.4 0 .6 0 .2.2.4.4.4s.5-.1.6-.3c.4-.6 0-1.4.1-2.2 0-1.1.9-2.1.8-3.2-.1-.8-.6-1.5-.4-2.2 0-.2.1-.4.2-.6s.1-.5.1-.7c.2-1.2.8-2.2 1.7-3 .1-.1.3-.2.4-.3-1.2.2-2.2 1-3.4.9-.6 0-1.1-.2-1.7-.4-.3-.1-.6-.2-.9-.2s-.4.1-.1.4z" class="V"/><path d="M113.7 70.7c0 .2-.2.5-.5.5-.3.1-.6-.1-.8-.1-.6-.1-1.1.3-1.6.7-.1.1-.3.2-.3.4-.2.3 0 .7 0 1.1 0 .5-.2.9-.2 1.4-.1.7.2 1.4.5 2.1.1.2.3.5.5.6.4.3.9.4 1.3.8.2.1.3.3.4.5.1.1.4.3.6.2.1 0 .2-.1.3-.1.2 0 .4.3.3.4s-.2.2-.2.4.3.2.4.1a1.1 1.1 0 0 0 .6-1c.1-.4 0-.8-.1-1.2l-.3-2c-.1-.9 0-1.7 0-2.6s-.2-1.8-.7-2.5c0-.1-.5-.6-.6-.3 0 .1.5.3.4.6zm5.5.4c.2-.1.4-.2.7-.3s.5 0 .8.1c.2.1.4.1.5.3s.1.4.1.7c.1.3.3.5.4.7.3.5.2 1.2 0 1.7-.2.6-.4 1.1-.5 1.7-.1.5 0 1.1-.2 1.6s-.7.9-1.2 1.1c-.2.1-.3.2-.5.2a.76.76 0 0 1-.4-.2c-.2-.1-.5-.2-.7-.2h-.3c-.1 0-.2.2-.1.3.2.1.3.1.4.3.1.1.2.3.1.5s-.5.2-.7 0c-.5-.4-.5-1.2-.4-1.9.2-1.4.6-2.8.6-4.3 0-.5 0-1.1.1-1.6s.3-.9.5-1.4c.1-.2.2-.5.5-.6.4 0 .2.3 0 .5-.5.5-.4 1.1.3.8z" class="T"/><path d="M114.5 70.1c.1.3.2.6.2.9s-.2.6-.5.7c-.2.1-.5.1-.8.2s-.5.4-.3.6c.2.3.7.2.8.5a.76.76 0 0 1-.2.4c-.2.2-.5.4-.7.6s-.3.6-.1.8.5.3.7.2c.3 0 .5-.1.8-.1h.1v.1c-.1.4-.3.7-.4 1.1 0 .2 0 .5.2.5h.1c.1 0 .2.2.2.3s-.1.2-.2.4c-.2.4.2 1 .6 1.1h.4c.2 0 .5.2.7.2.1 0 .1-.1.2-.1.2-.1.4.2.5.4s.1.5.2.6c0 0 .1.1.1 0 .1 0 .1-.1.1-.2.1-.3.1-.7 0-1s-.2-.5-.2-.8a.78.78 0 0 1 .1-.8c.2-.3.6-.4.9-.2.2.1.4.4.6.4.3.1.6-.3.6-.7-.1-.3-.4-.6-.7-.8-.1-.1-.2-.1-.3-.2-.2-.3 0-.7.3-.8.2-.1.5-.1.6-.2.2-.2.1-.5-.1-.7s-.5-.2-.8-.2-.5-.1-.8-.2c-.2-.2-.3-.5-.2-.8s.4-.5.7-.5.6.2.9.2c.1 0 .2 0 .3-.1s0-.2-.1-.3c-.2-.3-.6-.3-1-.3-.3 0-.8-.1-.8-.4 0-.2 0-.4.1-.6 0-.2 0-.5-.2-.5s-.3.1-.4.3-.1.3-.2.4-.3.1-.5.1a3.21 3.21 0 0 0-1.7.2c.1 0 .2 0 .2-.1v-.6z" class="V"/><path d="M115 69.5c.1.4.1.7.2 1.1.1.3.2.5.3.7.4 1.1 0 2.3.2 3.4 0 .2.2.4.3.3.3-.6 0-1.4.1-2.1.1-.3.2-.6.2-.9.1-.9-.5-1.9-.1-2.7.3-.7 1.2-.9 1.6-1.6-.9.2-1.9.3-2.9.3-.4 0-.9-.2-.6.3.4.4.6.7.7 1.2z" class="b"/><g class="c"><path d="M110 70.7c.2.3.5.5.8.7 0-.3-.1-.5-.2-.8 0 0 0-.1-.1-.1-.1-.5-.7-.3-.5.2zm-1.2.4c0 .1 0 .3.1.4s.2.1.3.2c.3.1.6.2.9.2l-.3-.6c0-.1-.1-.2-.2-.3-.2-.2-.7-.3-.8.1zm-.9 1.3c0 .1 0 .3.2.4.1 0 .1.1.2.1.4.1.8.1 1.2-.1-.2-.2-.4-.3-.6-.5-.1-.1-.2-.1-.3-.2-.3-.2-.6-.2-.7.3zm.4 1a.76.76 0 0 0-.4.2c-.1.1-.1.3-.1.4s0 .2.1.3.2.1.2.1c.1 0 .3 0 .4-.1.2-.1 1.2-.5 1-.8-.1-.1-.4-.1-.5-.1-.1.1-.4 0-.7 0zm.8 1.6c-.2 0-.5 0-.7.1s-.4.3-.3.5c0 .2.2.3.3.4.1 0 .1.1.2.1s.1 0 .2-.1l1-.7c.3-.4-.6-.3-.7-.3zm-.1 1.4c-.2.2-.2.5-.1.7.1.1.3.2.5.1.2 0 .3-.1.4-.3s.2-.3.3-.5c.4-.6-.9-.2-1.1 0zm.8 1.4c-.1.1 0 .3.1.4s.2.1.3.1h.1s.1 0 .1-.1c.1-.1.5-.6.3-.8-.3-.2-.8.2-.9.4zm1 .6v.2c0 .1.1.2.2.2s.2 0 .3-.1.2-.2.2-.3c.1-.2.2-.7-.2-.6-.2.1-.4.4-.5.6zm1.3-.1c-.1.1-.1.3-.2.4v.3c.1.1.2.1.4.1h.1V79c0-.2 0-.4-.1-.5.1-.2 0-.4-.2-.2zm-.9-8.1c-.1.1 0 .3.1.4s.2.3.3.4c.1-.1.2-.3.2-.5 0-.1.1-.2.1-.3-.2-.1-.6-.1-.7 0zm1.3 0c-.1 0-.3 0-.3.2-.1.1 0 .3 0 .4s0 .1.1.1h.1l.3-.3s.1-.1.1-.2 0-.1-.1-.2h-.2zm9.8.3c-.1.3-.5.5-.8.7 0-.3.1-.5.1-.8v-.1c.2-.4.9-.3.7.2zm1.2.4c0 .1 0 .3-.1.4s-.2.1-.3.2c-.3.1-.6.2-.8.2.1-.2.2-.4.2-.6 0-.1.1-.2.1-.3.3-.2.8-.3.9.1zm.9 1.2c0 .1 0 .3-.1.4-.1 0-.1.1-.2.1-.4.1-.8.1-1.2 0 .2-.2.4-.3.6-.5.1-.1.2-.2.3-.2.3-.2.6-.2.6.2zm-.3 1.1a.76.76 0 0 1 .4.2c.1.1.1.3.1.4v.3l-.2.2c-.1 0-.3 0-.4-.1-.2-.1-1.3-.4-1.1-.8.1-.1.4-.1.5-.1.2-.1.5-.1.7-.1zm-.6 1.5h.7c.2.1.4.3.4.5s-.1.3-.3.4c-.1 0-.1.1-.2.1s-.1 0-.2-.1l-1-.6c-.5-.2.5-.3.6-.3z"/><path d="M123.6 76.2c.2.2.3.5.1.7-.1.1-.3.2-.5.2s-.3-.1-.4-.3c-.1-.1-.2-.3-.3-.5-.4-.7.9-.3 1.1-.1zm-.7 1.4c.1.1.1.3 0 .4s-.2.1-.3.1h-.1s-.1 0-.1-.1c-.1-.1-.6-.6-.3-.8.2-.1.7.2.8.4zm-1 .6c0 .1.1.1.1.2s-.1.2-.2.2-.2 0-.3-.1-.2-.2-.2-.3c-.1-.2-.3-.7.2-.6 0 .2.3.4.4.6zm-1.3 0c.1.1.1.3.2.4v.3c-.1.1-.2.1-.4.1h-.1v-.1c-.1-.2 0-.4 0-.5 0-.2.1-.4.3-.2zm.5-8.1c.1.1 0 .3 0 .4a.76.76 0 0 0-.2.4c-.1-.1-.2-.3-.3-.4 0-.1-.1-.2-.1-.3 0-.2.5-.2.6-.1zm-1.3 0c.1-.1.3 0 .3.1.1.1.1.2 0 .4 0 .1 0 .1-.1.1h-.1l-.3-.3s-.1-.1-.1-.2 0-.1.1-.2c.1.1.2.1.2.1h0z"/></g><path d="M106.6 73.3c.3-.6.1-1.3.3-2s.9-1.3 1.7-1.5c.7-.3 1.5-.4 2.3-.6.2-.1.5-.2.4-.4 0-.1-.1-.1-.1-.2-.5-.4-1.2-.3-1.8 0-.9.4-1.7 1-2.4 1.7-.5.5-1.2 1.1-1.2 1.9-.1.3.3 2.1.8 1.1zm-.6 1.6a3.08 3.08 0 0 0 .3 1.3c.1.2.2.5.3.7s.2.4.4.4.3-.1.4-.3v-.5c-.1-.4-.3-.8-.3-1.2v-.5c-.2-.7-1.1-.6-1.1.1zm18.2 3.7c.7-.8 1.3-1.8 1.4-2.8 0-.1 0-.2-.1-.2-.1-.1-.2 0-.3.1-.3.3-.3.8-.5 1.1-.1.3-.3.6-.5.9-.2.2-.4.6-.6.8-.1.1-.4.1-.5.3-.2.6 1-.1 1.1-.2z" class="W X" fill="#fff"/><path d="M282.3 71c-1.1-.6-2.3 0-3.5.5s-2.2 1.5-2.7 2.7c-.2.4-.3.9-.6 1.2-.4.2-.9.3-1.4.3-1.3.2-2.5.9-3.3 2s-1.6 2.1-1.3 3.4 1.8 2.7 2.9 3.5c.5.4 1.1.8 1.7.9 1.2.4 2.5.2 3.7-.2 2.7-1.1 6-3.9 6.7-5.3.6-1.1 1.2-2.3 1.1-3.5-.1-.6-.3-1.2-.5-1.8-.5-1.2-1.6-3.1-2.8-3.7z" class="Y"/><path d="M281.9 70.7c-1.1-.6-2.5-.6-3.7-.2-1.2.5-2.2 1.5-2.7 2.7-.2.4-.3.9-.6 1.2-.4.2-.9.3-1.4.3-1.3.2-2.5.9-3.3 2s-1.1 2.4-.8 3.7 1.3 2.4 2.4 3.2c.5.4 1.1.8 1.7.9 1.2.4 2.5.2 3.7-.2 2.7-1.1 6-3.9 6.7-5.3.6-1.1 1.2-2.3 1.1-3.5-.1-.6-.3-1.2-.5-1.8-.7-1.2-1.5-2.4-2.6-3z" class="T"/><path d="M281.8 70.7c-1.1-.6-2.5-.6-3.7-.2-1.2.5-2.2 1.5-2.7 2.7-.2.4-.3.9-.6 1.2-.4.2-.9.3-1.4.3-1.3.2-2.5.9-3.3 2s-1.1 2.4-.8 3.7 1.3 2.4 2.4 3.2c.5.4 1.1.8 1.7.9 1.2.4 2.5.2 3.7-.2 2.7-1.1 6-3.9 6.7-5.3.6-1.1 1.2-2.3 1.1-3.5-.1-.6-.3-1.2-.5-1.8-.6-1.2-1.4-2.4-2.6-3zm2.3 3.1c.2.5.5 1.1.5 1.8.1 1.2-.5 2.3-1.1 3.4-.8 1.4-4 4.1-6.5 5.1-1.1.5-2.4.7-3.5.3-.6-.2-1.1-.5-1.6-.9-1-.8-1.9-1.8-2.2-3s0-2.5.8-3.5c.8-1.1 1.9-1.8 3.2-2 .5-.1.9-.1 1.3-.3.3-.3.5-.8.6-1.2.5-1.1 1.4-2.1 2.7-2.6 1.1-.5 2.5-.5 3.6.1.9.5 1.6 1.7 2.2 2.8z" class="Z"/><path d="M275.3 77.3c-.4-.5-.8-.9-1.4-.9-.5 0-1 .4-1.4.8-.4.3-.8.7-1 1.1s-.5.9-.4 1.4l.3.8c.3.6.7 1.2 1.2 1.6.2.2.5.3.8.4.7.3 1.4.6 2.2.5.7-.1 1.3-.5 2-.8.2-.1.5-.2.6-.5.1-.2.2-.4.1-.6s-.2-.4-.3-.5c-.4-.5-.9-.8-1.2-1.4-.2-.3-.5-.5-.8-.8s-.5-.8-.7-1.1z" class="U"/><path d="M274 82.4c-.3-.2-.5-.2-.8-.4-.5-.4-.9-1-1.2-1.6-.2-.3-.3-.5-.3-.8-.1-.5.1-1 .4-1.4.2-.4.6-.8 1-1.1.3-.2.5-.5.9-.6h-.1c-.5 0-1 .4-1.4.8-.4.3-.8.7-1 1.1s-.5.9-.4 1.4l.3.8c.3.6.7 1.2 1.2 1.6.2.2.5.3.8.4.7.3 1.4.6 2.2.5.2 0 .3-.1.5-.2-.7.1-1.4-.2-2.1-.5z" class="a"/><path d="M277.5 75.4c-.4-.5-.6-1.1-.5-1.7.2-.5.7-.8 1.1-1.1.5-.2.8-.5 1.3-.6.5-.2 1-.2 1.4.1.3.2.5.4.8.6.5.5 1 1 1.1 1.7.1.3.2.6.2.8.1.8.2 1.5-.2 2.3-.3.6-.9 1.1-1.4 1.7-.2.2-.4.4-.6.5s-.4 0-.6-.1-.3-.2-.4-.5c-.4-.5-.6-1.1-1-1.5-.2-.3-.4-.6-.5-.9-.1-.5-.4-.9-.7-1.3z" class="U"/><path d="M272.7 75.3h.4c.5.1.6.7 1.1.8h.4c.2 0 .5.2.6.3s.3.4.5.5c.7.8 1.7 1.4 2.1 2.4.2.2.2.5.4.7 0 .1.1.1.2.1s.2-.1.2-.1a1.44 1.44 0 0 0 .3.2c.2.2.3.4.5.5.1.2.2.2.3.4.2.1.3.2.4.1.2-.1.2-.3.2-.5-.1-.5-.7-.9-1-1.4-.5-.7-.5-1.7-1.1-2.3-.4-.5-1.1-.6-1.3-1.1-.1-.2-.1-.3-.2-.5s-.2-.3-.2-.5c-.5-.8-.5-1.8-.4-2.6 0-.2.1-.2.1-.4-.6.7-.9 1.6-1.6 2.1-.4.3-.8.4-1.2.5-.2.1-.5.2-.6.2-.4.4-.3.6-.1.6z" class="V"/><path d="M274.1 76.5c.1.2.1.4 0 .5-.2.2-.4.2-.5.3-.4.2-.5.7-.6 1.1 0 .2-.1.2 0 .4s.3.5.5.6c.2.3.3.6.5.9.3.5.8.8 1.3 1 .2.1.4.2.6.2.4 0 .8-.2 1.1-.2.2 0 .3.1.5.1s.3 0 .5-.2c.1-.1.1-.2.2-.2.2-.1.4 0 .4.2v.3c.1.1.3 0 .3-.2.2-.3.1-.6-.1-.8s-.4-.5-.6-.7a5.73 5.73 0 0 1-1.1-1.1c-.5-.5-.8-1.1-1.2-1.5-.5-.5-.9-1-1.6-1.2-.1 0-.6-.1-.5.1-.2.2.3.2.3.4zm3.6-2.3c.1-.2.2-.4.2-.5.2-.2.3-.2.5-.3s.3-.1.5-.1c.2.1.2.2.4.3.2.2.4.2.6.2a1.59 1.59 0 0 1 .8 1c.1.4.2.8.5 1.2.2.4.5.7.6 1.1.1.5-.1.8-.2 1.3-.1.2-.1.3-.2.4s-.2.1-.3.1c-.2 0-.4.1-.5.2s-.2.1-.2.2 0 .2.1.2c.2 0 .2-.1.4-.1s.2.1.3.2c0 .2-.2.4-.5.3-.5 0-.8-.5-1.1-.9-.5-.9-1-2-1.6-2.8-.2-.3-.5-.6-.7-1-.2-.3-.3-.7-.4-1.1-.1-.2-.1-.5 0-.6.2-.2.2.2.2.3-.1.5.3.9.6.4z" class="T"/><path d="M274.3 75.8c.2.1.4.2.5.5.2.2.2.5.1.7s-.3.3-.4.5-.1.5.1.5c.2.1.5-.2.7-.1.1.1.1.2.1.3 0 .2-.2.5-.2.7s.1.5.3.5c.2.1.4-.1.5-.2.2-.2.2-.3.5-.5h.1s.1 0 .1.1c.2.2.2.6.3.8s.2.3.4.2l.1-.1c.1-.1.2 0 .2.2s.1.2.1.3c.1.4.5.5.8.3l.2-.2c.2-.1.4-.1.5-.2 0-.1.1-.2.1-.2.1-.2.3-.1.5 0s.3.2.5.2h.1c.1-.1 0-.2 0-.2-.2-.2-.3-.5-.5-.6-.2-.2-.4-.2-.5-.3-.2-.2-.3-.3-.3-.5 0-.3.2-.5.5-.6.2 0 .4.1.5-.1.2-.2.2-.5 0-.7s-.5-.2-.8-.2h-.3c-.2-.1-.3-.5-.2-.7s.2-.2.2-.4-.2-.4-.4-.4-.4.2-.5.2c-.2.1-.4.2-.5.2-.2 0-.5-.2-.5-.4-.1-.2 0-.5.2-.6.2-.2.4-.2.6-.3.1-.1.2-.2.1-.2 0-.1-.1-.2-.2-.2-.2-.1-.5.2-.7.3s-.5.3-.7.2-.2-.2-.2-.4c-.1-.2-.2-.2-.4-.2-.1.1-.1.2-.1.3s.1.2 0 .4c0 .2-.2.2-.3.3-.4.2-.8.5-.9.9.1 0 .1-.1.1-.2l-.4.1z" class="V"/><path d="M274.3 75.1c.2.2.4.4.7.5.2.1.4.2.5.3.8.5 1.1 1.4 1.7 1.9.1.1.3.2.4.1-.2-.5-.7-.8-.9-1.3-.1-.2-.2-.5-.3-.6-.4-.6-1.2-.9-1.4-1.6-.2-.5.3-1.1.2-1.7-.5.6-1 1.1-1.6 1.5-.2.2-.6.3-.2.5l.9.4z" class="b"/><g class="c"><path d="M271.9 78.2c.2.2.5.1.8 0-.2-.2-.3-.3-.5-.4l-.1-.1c-.2-.1-.5.4-.2.5zm-.5.9l.2.2h.2c.2-.1.5-.2.6-.3-.2-.1-.3-.2-.4-.2s-.2-.1-.2-.1c-.2-.2-.6.1-.4.4zm.1 1.1c.1.1.2.2.3.2s.1 0 .2-.1c.3-.2.5-.4.7-.6h-.8c-.4.1-.7.3-.4.5zm.7.5c-.1.1-.1.2-.1.3s.1.2.2.3.1.2.2.2h.2l.2-.2c.1-.2.5-.9.2-1-.2 0-.3.1-.4.2-.2 0-.4 0-.5.2z"/><path d="M273.4 81.3a.78.78 0 0 0-.4.4c-.1.2-.1.4.1.5.1.1.2.1.4.1.1 0 .2 0 .2-.1 0 0 .1-.1.1-.2.1-.3.2-.5.2-.8 0-.4-.6 0-.6.1zm.6.8a.55.55 0 0 0 .3.5c.2 0 .2-.1.3-.2s.1-.2.2-.4c0-.2 0-.3-.1-.5-.2-.4-.7.4-.7.6zm1.1.5c0 .1.1.2.2.2s.2 0 .2-.1c0 0 .1 0 .1-.1v-.1c0-.2 0-.6-.2-.6-.2.1-.3.5-.3.7zm.9-.1c0 .1 0 .1.1.2s.2.1.2 0l.2-.2v-.3c-.1-.2-.2-.5-.4-.3-.1.2-.1.5-.1.6z"/><path d="M276.7 81.8c0 .1.1.2.1.3s.1.2.2.2.2 0 .3-.1l.1-.1V82c-.1-.2-.2-.2-.3-.3-.1 0-.4-.1-.4.1zm-4.3-4.4c0 .1.2.2.2.2l.4.2c0-.2-.1-.2-.1-.4 0-.1-.1-.2-.1-.2-.2-.1-.4 0-.4.2z"/><path d="M273.2 76.8c-.1 0-.2.2-.1.2 0 .1.1.2.2.2l.1.1.1-.1c0-.1.1-.2.1-.3v-.2c0-.1-.1-.1-.2-.1-.2.1-.2.2-.2.2h0zm6-4.4c.1.2 0 .5-.2.8-.2-.2-.2-.4-.3-.5v-.1c-.1-.4.3-.6.5-.2zm.9-.4l.2.2c0 .1 0 .2-.1.2-.1.2-.2.4-.4.5-.1-.2-.1-.3-.2-.5 0-.1-.1-.2-.1-.2.1-.1.3-.4.6-.2zm1.1.3c.1.1.2.2.1.3 0 .1-.1.1-.1.2-.2.2-.5.5-.8.5 0-.2.1-.4.1-.6 0-.1 0-.2.1-.2.2-.3.4-.4.6-.2zm.3.8c.1-.1.2-.1.3-.1s.2.1.3.2.1.2.1.2c0 .1 0 .2-.1.2-.1.1-.2.2-.3.2-.2.1-1 .3-1 0 0-.2.2-.2.2-.3.2-.1.4-.3.5-.4zm.4 1.2c.2-.2.2-.2.5-.3.2-.1.4 0 .5.2.1.1.1.2 0 .4 0 .1-.1.1-.1.2-.1 0-.1 0-.2.1-.3.1-.6.1-.9.1-.5-.1.1-.6.2-.7zm.7.9c.2 0 .4.2.4.4s-.1.2-.2.3c-.2.1-.2.1-.4.1s-.3-.1-.5-.2c-.4-.3.5-.7.7-.6zm.2 1.1c.1 0 .2.2.2.2s-.1.2-.2.2l-.1.1h-.1c-.2 0-.6-.1-.5-.3s.7-.2.7-.2z"/><path d="M282.6 77.2c.1 0 .1.1.2.1.1.1.1.2 0 .2-.1.1-.2.1-.2.1-.1 0-.2 0-.2-.1-.2-.1-.5-.3-.2-.5 0 0 .3.1.4.2zm-.8.6c.1 0 .2.1.3.2l.2.2c0 .1-.1.2-.2.2l-.1.1h-.1c-.2-.1-.2-.2-.2-.3-.1-.3-.1-.5.1-.4zm-3.5-5.1c.1 0 .2.2.2.2 0 .2.1.2.1.4l-.4-.2c-.1 0-.2-.1-.2-.2-.1 0 .1-.2.3-.2zm-.8.6c.1-.1.2-.1.2-.1l.2.2s.1.1 0 .1h-.4c-.1 0-.1 0-.2-.1.1 0 .1 0 .2-.1-.1.1 0 .1 0 0h0z"/></g><path d="M271 81.4c-.1-.5-.5-.8-.8-1.4-.2-.5 0-1.2.3-1.7s.8-.9 1.1-1.4c.1-.2.2-.3.1-.5-.1-.1-.1-.1-.2-.1-.5-.1-.9.4-1.1.8-.4.7-.5 1.4-.6 2.2-.1.5-.2 1.2.2 1.8.2.3 1.2 1.2 1 .3zm.5 1.3c.2.3.5.5.8.6.2.1.4.2.5.3.2.1.3.2.5.1.1-.1.2-.2.1-.4s-.2-.2-.2-.3c-.2-.2-.5-.3-.8-.5-.1-.1-.2-.2-.2-.3-.6-.4-1 .1-.7.5zm12.6-6.4c.1-.8 0-1.7-.5-2.4 0-.1-.1-.1-.2-.1s-.2.1-.2.2c-.1.3.2.6.2.9.1.2.1.5.1.8 0 .2.1.5 0 .8 0 .2-.2.3-.2.4.5.5.8-.5.8-.6z" class="W X" fill="#fff"/><path d="M228.1 80.9c-.4-1.3-1.7-1.8-3-2.3-1.3-.6-2.9-.6-4.2-.1-.5.2-.9.4-1.5.4-.5-.1-.9-.5-1.3-.8-1.1-.9-2.6-1.3-4.1-1.1-1.4.2-2.9.3-3.6 1.5-.8 1.2-.7 3.5-.5 4.9.1.7.2 1.4.5 2 .6 1.2 1.7 2.1 3 2.7 2.8 1.3 7.5 1.7 9.2 1.3 1.3-.3 2.7-.7 3.6-1.8.5-.5.8-1.2 1-1.8.6-1.3 1.3-3.5.9-4.9z" class="Y"/><path d="M228 80.2c-.4-1.3-1.4-2.5-2.7-3-1.3-.6-2.9-.6-4.2-.1-.5.2-.9.4-1.5.4-.5-.1-.9-.5-1.3-.8-1.1-.9-2.6-1.3-4.1-1.1-1.4.2-2.7 1-3.4 2.2-.8 1.2-.9 2.8-.7 4.3.1.7.2 1.4.5 2 .6 1.2 1.7 2.1 3 2.7 2.8 1.3 7.5 1.7 9.2 1.3 1.3-.3 2.7-.7 3.6-1.8.5-.5.8-1.2 1-1.8.6-1.4 1-2.9.6-4.3z" class="T"/><path d="M228 80.2c-.4-1.3-1.4-2.5-2.7-3-1.3-.6-2.9-.6-4.2-.1-.5.2-.9.4-1.5.4-.5-.1-.9-.5-1.3-.8-1.1-.9-2.6-1.3-4.1-1.1-1.4.2-2.7 1-3.4 2.2-.8 1.2-.9 2.8-.7 4.3.1.7.2 1.4.5 2 .6 1.2 1.7 2.1 3 2.7 2.8 1.3 7.5 1.7 9.2 1.3 1.3-.3 2.7-.7 3.6-1.8.5-.5.8-1.2 1-1.8.6-1.4 1-2.9.6-4.3zm-.8 4.1c-.3.6-.6 1.2-1 1.7-.9 1-2.2 1.4-3.5 1.7-1.6.4-6.2 0-8.9-1.2-1.2-.5-2.3-1.4-2.9-2.6-.3-.6-.4-1.3-.5-1.9-.2-1.4-.1-2.8.6-4 .7-1.1 2-1.9 3.3-2 1.4-.2 2.8.2 3.9 1 .4.3.8.7 1.2.8.5 0 1-.2 1.4-.4 1.3-.5 2.8-.5 4.1.1 1.2.5 2.3 1.6 2.6 2.9.5 1.2.2 2.7-.3 3.9z" class="Z"/><path d="M217.9 80.1c.1-.6.1-1.4-.4-1.8-.4-.4-1.1-.5-1.7-.5-.5 0-1.1-.1-1.6 0s-1 .3-1.3.7c-.2.3-.3.6-.4.9-.2.7-.4 1.5-.3 2.2l.3.9c.3.8.6 1.6 1.3 2.1.6.5 1.4.6 2.2.9.3.1.5.2.8.2.2 0 .4-.2.5-.4s.2-.4.2-.6c.1-.7 0-1.3.2-2 .1-.4.1-.8.1-1.2-.2-.4 0-.9.1-1.4z" class="U"/><path d="M212.9 82.9l-.3-.9c-.1-.7.1-1.5.3-2.2.1-.3.2-.7.4-.9.3-.4.8-.6 1.3-.7s1.1-.1 1.6 0c.4 0 .8.1 1.2.2l-.1-.1c-.4-.4-1.1-.5-1.7-.5-.5 0-1.1-.1-1.6 0s-1 .3-1.3.7c-.2.3-.3.6-.4.9-.2.7-.4 1.5-.3 2.2l.3.9c.3.8.6 1.6 1.3 2.1.1.1.3.2.5.3-.6-.5-.9-1.3-1.2-2z" class="a"/><path d="M221 80.4c.1-.6.4-1.3 1-1.6.5-.2 1.2-.1 1.8.1.5.1 1 .3 1.5.6s.9.7 1 1.1c.1.3.1.7.1 1 0 .7-.1 1.5-.4 2.2-.2.3-.4.5-.6.8-.5.6-1.1 1.3-1.9 1.6-.7.2-1.6.1-2.3.2-.3 0-.6 0-.8-.1s-.3-.3-.4-.5v-.6c.1-.7.4-1.3.5-1.9 0-.4.2-.8.3-1.1l.2-1.8z" class="U"/><path d="M217.5 76.6c.1.1.2.2.2.3.3.4 0 1 .2 1.4l.3.3c.2.2.2.5.2.7 0 .3-.1.5-.1.8-.2 1.2.1 2.4-.3 3.5l-.3.8v.2c.1.1.2.1.3.1.1.1.1.2.1.3 0 .3-.1.5-.1.8 0 .2-.1.3-.1.5s.1.3.3.4.4-.1.5-.2c.4-.5.2-1.2.3-1.8.2-.9.9-1.6 1-2.5 0-.6-.3-1.3-.1-1.9.1-.2.2-.3.2-.5.1-.2.1-.4.2-.6.3-.9.9-1.7 1.7-2.3.1-.1.3-.1.4-.2-1 0-1.9.5-2.9.4-.5-.1-.9-.3-1.3-.5-.2-.1-.5-.3-.7-.3-.1-.1-.1 0 0 .3z" class="V"/><path d="M217.6 78.6c0 .2-.2.4-.4.4s-.4-.1-.7-.2c-.5-.1-.9.1-1.4.4l-.3.3c-.2.2-.1.6-.1.9 0 .4-.3.7-.4 1.1-.1.6 0 1.2.2 1.7l.3.6c.3.3.7.4 1 .8.1.1.2.3.3.4s.3.3.4.2c.1 0 .2-.1.3 0 .2 0 .3.3.2.4s-.2.1-.2.3.2.2.4.2c.3-.1.5-.4.6-.7s.1-.6.1-1v-1.7l.3-2.1c.1-.7 0-1.5-.2-2.1 0-.1-.4-.6-.4-.3-.2-.1.1.2 0 .4zm4.5 1c.2 0 .4-.1.6-.2.2 0 .4.1.6.1a1.38 1.38 0 0 1 .4.3c.1.2 0 .4 0 .6s.2.4.2.7c.2.5 0 1-.2 1.4s-.5.8-.6 1.3c-.1.4-.1.9-.4 1.3s-.7.6-1.1.8c-.1.1-.3.1-.4.1s-.2-.1-.3-.2l-.6-.3h-.3c-.1 0-.2.1-.1.2s.2.1.3.3c.1.1.1.3 0 .4-.1.2-.4.1-.6-.1-.4-.4-.3-1-.1-1.6.3-1.1.8-2.2 1-3.4.1-.4.1-.9.3-1.3.1-.4.3-.7.6-1.1.1-.2.3-.4.5-.4.3 0 .1.3 0 .4-.5.3-.4.8.2.7z" class="T"/><path d="M218.3 78.2c.1.2.1.5.1.7-.1.2-.2.5-.5.6-.2.1-.4 0-.7.1-.2 0-.4.3-.3.5s.5.2.6.5c0 .1-.1.2-.2.3-.2.1-.4.2-.6.4s-.3.4-.2.7c.1.2.4.3.6.3s.5-.1.7 0h.1v.1c-.1.3-.3.6-.5.9-.1.2-.1.4.1.4h.1c.1 0 .1.2.1.3s-.1.2-.2.3c-.2.3 0 .8.4.9.1 0 .2 0 .3.1.2.1.4.3.6.2.1 0 .1-.1.2-.1.2 0 .3.2.3.4s0 .4.1.5l.1.1c.1 0 .1-.1.1-.1.1-.3.1-.6.1-.9 0-.2-.1-.4-.1-.6s0-.5.1-.6c.2-.2.6-.3.8-.1.2.1.3.3.5.4.3.1.6-.2.6-.5s-.2-.5-.5-.7c-.1-.1-.2-.1-.2-.2-.2-.2.1-.6.4-.6.2 0 .4 0 .5-.1.2-.1.1-.4 0-.6-.2-.2-.4-.2-.6-.3s-.4-.1-.6-.3-.2-.5-.1-.7.4-.4.6-.3c.2 0 .4.2.7.2.1 0 .2 0 .2-.1.1-.1 0-.2 0-.3-.1-.2-.5-.3-.8-.3s-.6-.2-.6-.5c0-.2.1-.3.1-.5.1-.2 0-.4-.1-.4s-.2.1-.3.2-.1.2-.2.3-.3 0-.4 0c-.5-.1-1-.2-1.4 0 .1 0 .2 0 .2-.1l-.2-.5z" class="V"/><path d="M218.8 77.7c0 .3 0 .6.1.9 0 .2.1.4.2.6.2.9-.3 1.9-.2 2.8 0 .2.1.4.2.3.3-.5.1-1.1.3-1.7.1-.2.2-.4.3-.7.2-.7-.2-1.6.2-2.3.3-.5 1.1-.6 1.5-1.1-.8.1-1.6 0-2.4-.1-.3-.1-.7-.3-.5.2.1.5.3.8.3 1.1z" class="b"/><g class="c"><path d="M214.6 78.1c.1.3.4.5.6.6v-.8c-.2-.2-.7-.1-.6.2zm-1 .3v.3l.2.2c.2.1.4.2.7.2 0-.2-.1-.3-.1-.5 0-.1-.1-.2-.1-.2-.2-.2-.6-.3-.7 0zm-.9.9c0 .1 0 .2.1.3 0 0 .1.1.2.1.3.1.7.1 1 .1-.1-.2-.3-.3-.4-.5l-.2-.2c-.4-.1-.6-.1-.7.2zm.2.9c-.1 0-.2.1-.3.2s-.1.2-.1.3v.2c0 .1.1.1.2.1h.4c.2 0 1.1-.3.9-.6-.1-.1-.3-.1-.4-.2-.3.1-.5 0-.7 0zm.4 1.4c-.2 0-.4-.1-.6 0s-.3.2-.3.4c0 .1.1.3.2.3s.1.1.2.1h.2c.3-.1.6-.3.9-.4.3-.3-.5-.4-.6-.4zm-.2 1.1c-.2.1-.2.4-.1.5s.2.2.4.2.3-.1.4-.2a1.38 1.38 0 0 0 .3-.4c.3-.4-.8-.2-1-.1zm.5 1.2c-.1.1-.1.2 0 .3s.1.1.2.1h.1s.1 0 .1-.1c.1-.1.5-.5.3-.6-.2 0-.6.2-.7.3zm.7.6s-.1.1-.1.2.1.2.2.2h.3l.2-.2c.1-.2.3-.6-.1-.5-.1 0-.4.2-.5.3zm1.2.1c-.1.1-.1.2-.2.3v.2c0 .1.2.1.3.1h.1v-.1c.1-.1.1-.3 0-.4 0 0-.1-.2-.2-.1zm.1-6.7c-.1.1 0 .2 0 .3.1.1.1.3.2.4.1-.1.2-.2.2-.3s.1-.2.1-.2c0-.2-.4-.3-.5-.2z"/><path d="M216.6 78c-.1-.1-.2 0-.3.1s-.1.2-.1.3v.1h.1c.1-.1.2-.1.3-.2l.1-.1c0-.1 0-.1-.1-.1.2-.1.1-.1 0-.1h0zm8 1.4c-.2.3-.5.4-.7.5 0-.2.1-.4.2-.7 0 0 0-.1.1-.1.1-.2.7 0 .4.3zm1 .5c0 .1 0 .2-.1.3s-.2.1-.2.1c-.2.1-.5.1-.7.1.1-.1.2-.3.3-.4 0-.1.1-.2.2-.2 0-.3.5-.3.5.1zm.6 1.1c0 .1-.1.2-.2.3h-.2c-.3 0-.7 0-1-.2.2-.1.4-.2.5-.4.1-.1.2-.1.2-.1.5 0 .7 0 .7.4zm-.4.8c.1 0 .2.1.3.2s.1.2.1.4c0 .1 0 .2-.1.2-.1.1-.1.1-.2.1s-.2 0-.3-.1c-.2-.1-1-.5-.8-.8.1-.1.3-.1.4-.1.2.1.5.1.6.1zm-.7 1.2c.2 0 .4 0 .5.1s.3.3.2.5c0 .1-.2.2-.3.3h-.2c-.1 0-.1 0-.1-.1-.3-.2-.5-.4-.7-.6-.2-.3.5-.2.6-.2zm0 1.2c.1.2.2.4 0 .6-.1.1-.3.1-.4.1s-.2-.1-.3-.3a.76.76 0 0 1-.2-.4c-.3-.6.7-.2.9 0zm-.8 1.1c0 .1 0 .2-.1.3-.1 0-.2.1-.2.1h-.1l-.1-.1c-.1-.1-.4-.6-.2-.7.3-.1.7.3.7.4z"/><path d="M223.4 85.7v.2c0 .1-.1.2-.2.2s-.2 0-.3-.1-.1-.2-.1-.3c-.1-.2-.1-.6.2-.5.2.1.4.3.4.5zm-1.1-.2c.1.1.1.2.1.4v.2c-.1.1-.2.1-.3.1h-.1v-.1c0-.2 0-.3.1-.4 0-.2.2-.3.2-.2zm1.4-6.5c.1.1 0 .2-.1.3l-.3.3c-.1-.1-.1-.3-.2-.4 0-.1-.1-.2 0-.3.2-.1.5-.1.6.1z"/><path d="M222.7 78.8c.1 0 .2.1.2.2v.3s0 .1-.1.1h-.1c-.1-.1-.2-.2-.2-.3l-.1-.1c0-.1 0-.1.1-.1.1-.1.1-.1.2-.1h0z"/></g><path d="M211.5 79.9c.3-.5.3-1.1.5-1.6.3-.6.9-.9 1.5-1.1.6-.1 1.3-.1 1.9-.2.2 0 .4-.1.4-.3 0-.1 0-.1-.1-.2-.3-.4-1-.4-1.5-.2-.8.2-1.5.7-2.2 1.1-.5.4-1.1.8-1.2 1.5.1.3.1 1.8.7 1zm-.7 1.3c-.1.4 0 .7.1 1.1.1.2.1.4.2.6 0 .2.1.3.3.4.1 0 .3-.1.3-.2.1-.1 0-.3 0-.4 0-.3-.1-.7-.1-1v-.4c0-.7-.7-.7-.8-.1zm14.5 5.1c.7-.5 1.3-1.3 1.5-2.2v-.2c-.1-.1-.2 0-.3 0-.3.2-.4.6-.5.9s-.3.5-.6.7l-.6.6c-.1.1-.3.1-.4.2-.2.5.8.1.9 0z" class="W X" fill="#fff"/><defs ><path id="B" d="M168.6 83c-.5 1.1-1.6 1.2-2.8 1.6-1.1.3-2.4.2-3.5-.4-.4-.2-.7-.5-1.1-.5s-.8.3-1.1.5c-1 .6-2.3.7-3.5.4-1.1-.3-2.3-.6-2.8-1.6-.5-1.1-.2-2.9.1-4.1.1-.6.3-1.1.6-1.6.6-1 1.7-1.5 2.7-1.9 2.5-.8 6.4-.6 7.7 0 1.1.4 2.1.9 2.7 1.9.3.5.5 1 .6 1.6.6 1 .8 2.9.4 4.1z"/><path id="C" d="M168.4 83.5a4.06 4.06 0 0 1-2.6 2.2c-1.1.3-2.4.2-3.5-.4-.4-.2-.7-.5-1.1-.5s-.8.3-1.1.5c-1 .6-2.3.7-3.5.4a4.06 4.06 0 0 1-2.6-2.2c-.5-1.1-.4-2.4-.1-3.6.1-.6.3-1.1.6-1.6.6-1 1.7-1.5 2.7-1.9 2.5-.8 6.4-.6 7.7 0 1.1.4 2.1.9 2.7 1.9.3.5.5 1 .6 1.6.6 1.2.7 2.5.2 3.6z"/><path id="D" d="M168.4 79.9c-.1-.6-.3-1.1-.6-1.6-.6-1-1.7-1.4-2.7-1.9-1.3-.6-5.2-.8-7.7 0-1.1.3-2.1.9-2.7 1.9-.3.5-.5 1-.6 1.6-.3 1.2-.4 2.5.1 3.6a4.06 4.06 0 0 0 2.6 2.2c1.1.3 2.4.2 3.5-.4.4-.2.7-.5 1.1-.5s.8.3 1.1.5c1 .6 2.3.7 3.5.4a4.06 4.06 0 0 0 2.6-2.2c.3-1.1.1-2.4-.2-3.6zm-.3 3.5c-.5 1-1.4 1.7-2.5 2.1-1.1.3-2.3.2-3.3-.4-.3-.2-.7-.4-1.1-.5-.4 0-.8.3-1.1.5-1 .6-2.2.7-3.3.4s-2-1.1-2.5-2.1-.4-2.3-.1-3.4c.1-.5.3-1 .6-1.5.6-.9 1.6-1.5 2.7-1.8 2.4-.7 6.1-.5 7.4 0 1 .4 2.1.9 2.7 1.8.3.5.5 1 .6 1.5.3 1.1.4 2.3-.1 3.4z"/><path id="E" d="M160 82.4c0 .5-.1 1.1-.5 1.5-.4.3-.9.3-1.4.2-.4 0-.9-.1-1.3-.2a1.59 1.59 0 0 1-1-.8c-.1-.2-.2-.5-.2-.8-.1-.6-.2-1.3 0-1.8.1-.3.2-.5.3-.7.3-.6.7-1.2 1.3-1.6.6-.3 1.2-.4 1.9-.5.2-.1.5-.1.7-.1a.78.78 0 0 1 .4.4c.1.2.1.4.1.5 0 .6-.1 1.1-.1 1.7 0 .3 0 .6-.1 1s-.1.8-.1 1.2z"/><path id="F" d="M156.3 79.5c-.1.2-.3.5-.3.7-.2.6-.1 1.2 0 1.8 0 .3.1.6.2.8.2.4.6.6 1 .8.4.1.9.2 1.3.2h1c-.5.3-1 .3-1.5.2-.4 0-.9-.1-1.3-.2a1.59 1.59 0 0 1-1-.8c-.1-.2-.2-.5-.2-.8-.1-.6-.2-1.3 0-1.8.1-.3.2-.5.3-.7.3-.6.7-1.2 1.3-1.6.1-.1.3-.1.4-.2-.5.5-.9 1.1-1.2 1.6z"/><path id="G" d="M162.7 82.5c0 .5.2 1.1.6 1.4s1 .2 1.5.2c.4-.1.9-.1 1.3-.3s.8-.4 1-.8c.1-.3.2-.5.2-.8.1-.6.1-1.3-.1-1.8-.1-.2-.2-.5-.4-.7-.4-.6-.8-1.2-1.4-1.5s-1.3-.3-1.9-.4c-.2 0-.5-.1-.7 0a.78.78 0 0 0-.4.4c-.1.2-.1.4-.1.5 0 .6.2 1.1.2 1.6 0 .3.1.6.1 1 .1.3.1.8.1 1.2z"/><path id="H" d="M159.4 85.3c.1-.1.2-.1.2-.2.3-.3.1-.8.4-1.1.1-.1.2-.1.3-.2.2-.1.2-.4.3-.6v-.7c0-1 .3-2 .2-2.9 0-.2-.1-.4-.1-.7v-.2c.1-.1.2 0 .2-.1.1 0 .1-.2.1-.3v-1c0-.1.1-.3.3-.3s.3.1.4.2c.2.4 0 1 0 1.5 0 .8.6 1.4.5 2.2 0 .5-.4 1-.3 1.5 0 .1.1.3.1.4 0 .2.1.3.1.5.1.8.6 1.5 1.2 2.1.1.1.2.2.3.2-.8-.1-1.5-.7-2.3-.6-.4 0-.8.1-1.2.3-.2.1-.4.2-.6.2-.3.1-.3-.1-.1-.2z"/><path id="I" d="M159.7 83.6c0-.2-.2-.3-.3-.4-.2 0-.4.1-.6.1-.4.1-.8-.2-1.1-.5-.1-.1-.2-.2-.2-.3-.1-.2 0-.5 0-.7 0-.3-.1-.6-.2-1-.1-.5.1-1 .4-1.4a1.38 1.38 0 0 1 .3-.4c.3-.2.6-.3.9-.5l.3-.3c.1-.1.2-.2.4-.1.1 0 .1.1.2.1s.3-.2.2-.3c0-.1-.2-.1-.2-.2s.2-.1.3-.1c.2.1.4.4.4.7s0 .5-.1.8c-.1.5-.2.9-.2 1.4v1.8c0 .6-.1 1.2-.5 1.7 0 .1-.4.4-.4.2.1-.2.4-.4.4-.6z"/><path id="J" d="M163.5 83.3c.2.1.3.2.5.2h.5c.1 0 .3-.1.3-.2.1-.1.1-.3.1-.5s.2-.3.3-.5c.2-.4.1-.8 0-1.2s-.3-.7-.4-1.1 0-.8-.2-1.1c-.2-.4-.5-.6-.8-.8-.1-.1-.2-.1-.4-.1-.1 0-.2.1-.3.1-.2.1-.3.1-.5.2h-.2c-.1 0-.1-.1-.1-.2.1 0 .2-.1.3-.2s.1-.2.1-.3c-.1-.2-.4-.1-.5 0-.3.3-.3.8-.3 1.3.1 1 .4 1.9.4 2.9 0 .4 0 .7.1 1.1l.3 1c.1.1.2.4.3.4.3 0 .1-.2 0-.3-.1-.4 0-.9.5-.7z"/><path id="K" d="M160.2 84c.1-.2.1-.4.1-.6a.55.55 0 0 0-.3-.5c-.2-.1-.4-.1-.5-.1s-.3-.3-.2-.4c.1-.2.5-.1.5-.3 0-.1 0-.2-.1-.3-.2-.1-.3-.2-.5-.4-.1-.2-.2-.4-.1-.6s.3-.2.5-.2.4.1.6.1h.1v-.1c0-.3-.2-.5-.3-.8 0-.1 0-.3.1-.4h.1c.1 0 .1-.1.1-.2s-.1-.2-.1-.2c-.1-.3.1-.7.4-.7h.3c.2 0 .3-.2.5-.1.1 0 .1.1.1.1.1 0 .3-.1.3-.3a.76.76 0 0 1 .2-.4h.1c.1 0 .1.1.1.1.1.2 0 .5 0 .7s-.1.3-.2.5 0 .4 0 .5c.1.2.4.3.6.2.1-.1.3-.2.4-.3.2 0 .4.2.4.5 0 .2-.3.4-.5.5-.1 0-.1.1-.2.1-.2.2 0 .5.2.6.1 0 .3 0 .4.2.1.1.1.4-.1.5-.1.1-.3.1-.5.2-.2 0-.4 0-.5.2-.2.1-.2.3-.2.5a.55.55 0 0 0 .5.3c.2 0 .4-.1.6-.1.1 0 .2 0 .2.1v.2c-.1.2-.4.2-.7.2-.2 0-.5.1-.6.3 0 .1 0 .3.1.4 0 .1 0 .3-.2.3-.1 0-.2-.1-.2-.2s-.1-.2-.2-.3-.2-.1-.4 0c-.4 0-.8 0-1.2-.1.1 0 .1 0 .1.1l.2.2z"/><path id="L" d="M160.6 84.5c.1-.2.1-.5.2-.8.1-.2.2-.3.2-.5.3-.7 0-1.6.1-2.3 0-.1.1-.3.2-.2.2.4 0 .9.1 1.4 0 .2.1.4.2.6.1.6-.3 1.3-.1 1.9.2.5.8.6 1.1 1.1-.6-.2-1.3-.2-2-.2-.3 0-.6.1-.4-.2s.3-.5.4-.8z"/><path id="M" d="M156.5 80.7c-.2 0-.3 0-.5-.1-.1-.1-.3-.2-.2-.4 0-.1.1-.2.2-.3h.2s.1 0 .1.1c.2.1.4.3.7.5.2.2-.5.2-.5.2z"/><path id="N" d="M154.3 80.7c0-.3.1-.6.2-.9.1-.2.1-.3.2-.5.1-.1.1-.3.3-.3.1 0 .2.1.2.2v.3c-.1.3-.2.5-.2.8v.4c0 .6-.6.5-.7 0z"/><path id="O" d="M166.9 78.2c.5.5.9 1.2 1 1.9v.2c-.1.1-.2 0-.2 0-.2-.2-.2-.5-.3-.8-.1-.2-.2-.4-.4-.6-.1-.2-.2-.4-.4-.5-.1-.1-.3-.1-.3-.2-.3-.6.5-.1.6 0z"/></defs></svg>