<?xml version="1.0" encoding="utf-8"?>
<!-- Generator: Adobe Illustrator 21.0.0, SVG Export Plug-In . SVG Version: 6.00 Build 0)  -->
<svg version="1.1" xmlns="http://www.w3.org/2000/svg" xmlns:xlink="http://www.w3.org/1999/xlink" x="0px" y="0px"
	 viewBox="0 0 389 157" style="enable-background:new 0 0 389 157;" xml:space="preserve">
<style type="text/css">
	.st0{display:none;}
	.st1{display:inline;}
	.st2{fill:#732A13;}
	.st3{fill:#6C151C;}
	.st4{fill:#F6C073;}
	.st5{fill:#F1A12E;}
	.st6{opacity:0.3;fill:#FBE0BA;}
	.st7{fill:#6F4026;}
	.st8{fill:#F6C278;}
	.st9{display:none;fill:#AB1717;}
	.st10{fill:#C02217;}
	.st11{fill:#D73B24;}
	.st12{fill:#C3301C;}
	.st13{fill:#EC7533;}
</style>
<g id="Layer_1" class="st0">
	<g class="st1">
		
			<ellipse transform="matrix(0.9998 -1.910915e-02 1.910915e-02 0.9998 -1.7332 3.9663)" class="st2" cx="206.7" cy="92.7" rx="175.1" ry="48.7"/>
		
			<ellipse transform="matrix(0.9998 -1.911543e-02 1.911543e-02 0.9998 -1.5265 3.9296)" class="st3" cx="204.8" cy="81.8" rx="161" ry="44.8"/>
		
			<ellipse transform="matrix(0.9998 -1.911880e-02 1.911880e-02 0.9998 -1.4451 3.938)" class="st4" cx="205.2" cy="77.5" rx="158.3" ry="44.6"/>
		
			<ellipse transform="matrix(0.9998 -1.910344e-02 1.910344e-02 0.9998 -1.3162 3.9312)" class="st5" cx="205.1" cy="70.9" rx="145.6" ry="32.3"/>
		
			<ellipse transform="matrix(0.9998 -1.911081e-02 1.911081e-02 0.9998 -1.3431 3.9335)" class="st5" cx="205.1" cy="72.2" rx="139.4" ry="30.9"/>
		<path class="st6" d="M204.5,41.3c-77,1.5-139.1,16.5-138.8,33.6c0.3,17.1,63,29.7,140,28.3c77-1.5,139.1-16.5,138.8-33.6
			C344.2,52.5,281.5,39.9,204.5,41.3z M76.5,69.9c-0.4-0.2-0.5-0.7-0.3-1.1c3.1-9.1,15.8-8,22.9-11.7c0.3-0.2,0.6-0.2,0.8-0.1
			c15-5,30.2-7.7,46.5-8.8c9-0.6,18.1-0.6,27.1-0.7c5.3-0.1,12.1-0.5,16.1,3.6c0.6,0.6-0.1,1.5-0.7,1.7c-8,3.7-17.1,2.5-25.7,3.3
			c-11,1-22.1,2.7-32.9,4.8c-10.9,2.1-22.2,3.3-33,6.1C90.6,68.8,83.3,72.4,76.5,69.9z M180.5,95.3c-6.8,1.8-14,1.7-21,1.7
			c-9.1,0-18.1-0.1-27.2,0c-5.6,0-12.9,0-17.3-4.1c-4.6-4.3-9.2-3.7-15-3.6c-4.6,0-17.9,0.3-17.1-7.4c0.6-5.4,10.5-7.5,14.4-8.5
			c8.1-2.1,16.5-3.3,24.8-4c3.8-0.3,7.4-0.5,11.1-1.1c0.1-0.1,0.3-0.2,0.4-0.2c12.3-2.4,24.7-4,37.2-4.6c8.1-0.4,22-1.8,22.4,9.6
			C193.7,82.5,190.7,92.5,180.5,95.3z M213.5,49.7c7-6.9,18.9-4.7,27.8-6c0.5-0.1,0.7,0.1,0.8,0.4c6,0,12.1,0.7,18.1,1.3
			c6.4,0.6,16.7,0.8,21.1,6.5c0.4,0.6,0.1,1.6-0.7,1.7c-12.9,3.4-25.5-0.7-38.5,0c-8.7,0.5-20.9,2.9-28.6-2.4
			C213,50.8,213,50.1,213.5,49.7z M261.1,84.1c-1.6,4.3-7.6,5.8-11.6,6.6c-7.1,1.4-14.7,2.8-21.8,3.4c-7,0.6-12.6-1.2-15.8-7.8
			c-1.4-3-6.8-16-3.7-20.4c0.1-0.1,0.2-0.3,0.3-0.4c0.4-0.4,0.9-0.7,1.6-0.9c2-0.8,4.1-0.6,6.5,0.2c5.2,1.6,10.6,2.4,15.9,3.9
			c7,1.9,14.2,4.3,20.9,7.3C256.2,77.1,262.7,79.8,261.1,84.1z M300.7,71.4c-4.1,5.6-14.6,4.6-20.5,4.1c-11.3-0.9-22.3-2.5-33.2-5.8
			c-3.7-1.1-18.2-3.5-18.9-8.4c-0.3-2.3,2.3-3.5,5.3-4.1c9.4-3.8,19.3,0,28.9,0.7c5.4,0.4,10.9,1.2,16.2,2.1
			C281.8,60.5,306.3,63.8,300.7,71.4z"/>
		<path class="st7" d="M38.5,90c0,0-6.8,2.4-0.1,15.3c6.7,12.9,86.2,37.6,160.7,32.7c0,0,51.9,0,52.2-4.1c0.3-4.1-19.8-4.3-19.8-4.3
			s-23.5,0.7-33.8,0.8C187.5,130.4,54.8,131.5,38.5,90z"/>
		<path class="st8" d="M55.9,70.2c0,0-3.4-0.2-6.1,6.4c-2.7,6.6,7.9,22.9,55,33.2c47,10.3,115.1,12.6,150.4,6.2
			c35.3-6.4,18.1-15.1,0.9-12.8c-17.2,2.3-17.2,2.3-17.2,2.3S153,108.1,110,99.9C69.2,92.2,55.1,87.1,55.9,70.2z"/>
	</g>
</g>
<g id="Слой_3">
	<path class="st9" d="M142.3,45.8c0,0,46.5-2,75.9-1.5c19.1,0.2,41.2-3.1,77.1,5.1c17.5,3.8,28.6,7.5,34.6,10.6
		c3.6,1.9,6,5.6,5.9,9.7c-0.1,6.2-6.3,15.6-56.8,26c-49.7,4.8-55.4,4.6-77.4,3.8c-24.5,0.9-52.2,3.2-76.1-2.4
		c-26.9-5.6-68.6-13.4-56.1-25.5C77.3,64.7,87.5,54.1,142.3,45.8z"/>
	<g>
		<path class="st10" d="M111.6,68.1c-0.1,0-0.1,0-0.2,0c-0.4,0-0.5-0.2-0.4-0.5c0.3-0.7,0.2-1.4-0.3-2c-0.2-0.2-0.4-0.4-0.6-0.6
			c-0.5-0.5-0.9-1.1-1-1.9c0-0.1,0-0.2-0.1-0.3c-0.2-0.7-0.5-1.3-1.3-1.6c-0.5-0.2-0.9-0.5-1.2-0.9c-0.1-0.1-0.2-0.3-0.3-0.4
			c-0.4-0.5-0.9-0.7-1.6-0.6c-0.3,0.1-0.7,0-1-0.1c-0.3-0.2-0.6-0.3-0.8-0.5c-0.4-0.4-0.8-0.4-1.2-0.2c-0.7,0.2-1.4,0.5-2.1,0.8
			c-0.4,0.1-0.7,0.2-1.1,0.2c-0.6-0.1-1.1,0-1.6,0.4c-0.4,0.4-0.9,0.8-1.4,1.1c-0.3,0.2-0.6,0.3-0.9,0.4c-0.4,0.1-0.7,0.1-1.1,0.2
			c-1.3,0.2-2.3,0.9-2.8,2.2c-0.4,1-1,1.7-1.9,2.2c-0.1,0.1-0.2,0.1-0.3,0.2c-0.4,0.3-0.8,0.6-1.1,1C86.6,68,86.5,69,86.7,70
			c0.1,0.4,0.1,0.8-0.2,1.3c-0.1,0.2-0.2,0.4-0.2,0.6c0,0.4,0.1,0.9,0.3,1.3c0.1,0.4,0.2,0.6,0,0.9c-0.1,0.1-0.1,0.2-0.1,0.3
			c-0.2,0.4-0.2,0.8,0,1.2c0.2,0.4,0.4,0.9,0.7,1.3c1.1,1.4,2.3,2.6,4.1,3.3c0.5,0.2,0.9,0.4,1.3,0.8c0,0,1.4,0.8,4.9-0.2
			c4-1,3.4,0.1,5-1.4c2-2.2,2.3-3.1,4.1-3.1c1.9-1.1,1.8-2,2.4-3.5c0.6-1.4,2.6-1.9,2.8-2.5S112.3,68.7,111.6,68.1z"/>
		<g>
			
				<ellipse transform="matrix(0.7978 -0.6029 0.6029 0.7978 -22.4109 73.4142)" class="st11" cx="98.3" cy="70.1" rx="11.1" ry="7.9"/>
			<g>
				<path class="st12" d="M103.2,64.9c0,0,3.5-2-1.2-2.5c-0.8-0.1-11.5-1-12.5,11.5c0.5,0.6,0.2,1.2,1.7,0c1.5-1.1,2.5-1.6,3.1-3
					c0.4-1.3,1.8-4.7,5.6-4.2C100.6,66.8,101.3,66.3,103.2,64.9z"/>
				
					<ellipse transform="matrix(0.5406 -0.8413 0.8413 0.5406 -7.5053 114.2103)" class="st13" cx="100.8" cy="64" rx="0.8" ry="0.5"/>
				
					<ellipse transform="matrix(0.9996 -2.917706e-02 2.917706e-02 0.9996 -1.8455 2.8522)" class="st13" cx="96.8" cy="64.7" rx="0.7" ry="0.8"/>
				
					<ellipse transform="matrix(0.9996 -2.917706e-02 2.917706e-02 0.9996 -1.9161 2.7488)" class="st13" cx="93.2" cy="67" rx="0.8" ry="0.7"/>
				
					<ellipse transform="matrix(0.9924 -0.1232 0.1232 0.9924 -8.0403 11.8317)" class="st13" cx="91.6" cy="70.9" rx="0.8" ry="0.5"/>
			</g>
			<g>
				<path class="st12" d="M104.7,66.9c0,0,2.9-2.8,2,1.8c-0.1,0.8-2.2,11.4-14.4,8.9c-0.5-0.6-1.1-0.5,0.4-1.7
					c1.5-1.1,2.2-2,3.7-2.2c1.3,0,5-0.4,5.6-4.2C102.1,68.8,102.8,68.3,104.7,66.9z"/>
				
					<ellipse transform="matrix(0.9569 -0.2904 0.2904 0.9569 -15.6327 33.46)" class="st13" cx="104.9" cy="69.4" rx="0.8" ry="0.5"/>
				
					<ellipse transform="matrix(0.301 -0.9536 0.9536 0.301 2.4314 149.4489)" class="st13" cx="103.2" cy="73.1" rx="0.7" ry="0.8"/>
				<ellipse transform="matrix(0.301 -0.9536 0.9536 0.301 -2.5135 148.298)" class="st13" cx="99.9" cy="75.9" rx="0.8" ry="0.7"/>
				
					<ellipse transform="matrix(0.3895 -0.921 0.921 0.3895 -11.8627 134.7666)" class="st13" cx="95.7" cy="76.3" rx="0.8" ry="0.5"/>
			</g>
		</g>
	</g>
	<g>
		<path class="st10" d="M205.6,89.9c0,0-0.1,0-0.2-0.1c-0.3-0.2-0.3-0.4,0-0.5c0.5-0.4,0.8-0.8,0.8-1.5c0-0.2-0.1-0.5-0.1-0.7
			c-0.1-0.6-0.1-1.2,0.3-1.8c0-0.1,0.1-0.2,0.1-0.2c0.3-0.6,0.3-1.2-0.1-1.7c-0.3-0.4-0.4-0.8-0.3-1.2c0-0.1,0-0.3,0-0.4
			c0-0.5-0.3-1-0.8-1.2c-0.3-0.1-0.5-0.3-0.6-0.6s-0.3-0.5-0.3-0.8c-0.1-0.4-0.4-0.7-0.7-0.8c-0.6-0.2-1.2-0.4-1.9-0.5
			c-0.3-0.1-0.6-0.2-0.8-0.4c-0.3-0.4-0.8-0.6-1.3-0.5c-0.5,0.1-1,0.1-1.5,0c-0.3,0-0.6-0.1-0.8-0.2c-0.3-0.1-0.6-0.3-0.8-0.4
			c-1-0.5-2-0.5-3,0.1c-0.7,0.5-1.5,0.7-2.4,0.6c-0.1,0-0.2,0-0.3,0c-0.4,0-0.9,0-1.3,0.1c-0.9,0.2-1.5,0.8-1.8,1.6
			c-0.2,0.3-0.4,0.6-0.7,0.8c-0.2,0.1-0.4,0.2-0.4,0.3c-0.2,0.3-0.4,0.7-0.5,1c-0.1,0.3-0.2,0.5-0.5,0.6c-0.1,0-0.2,0.1-0.2,0.1
			c-0.3,0.2-0.5,0.4-0.6,0.8c-0.1,0.4-0.2,0.8-0.2,1.2c0,1.5,0.3,3,1.2,4.2c0.2,0.4,0.4,0.7,0.5,1.1c0,0,0.5,1.2,3.5,2.3
			c3.2,1.3,2.3,1.8,4.1,1.5c2.5-0.5,3.1-1,4.3-0.1c1.8,0.2,2.2-0.5,3.4-1.2c1.1-0.7,2.7,0,3.2-0.3C205,91.2,205.8,90.6,205.6,89.9z"
			/>
		<g>
			
				<ellipse transform="matrix(0.9998 -1.804415e-02 1.804415e-02 0.9998 -1.4955 3.5424)" class="st11" cx="195.6" cy="84.6" rx="9.4" ry="6.7"/>
			<g>
				<path class="st12" d="M201.5,83.5c0,0,3.4,0.4,0.4-2.3c-0.5-0.4-7.3-6.4-14.2,1.6c0,0.7-0.4,0.9,1.1,0.9s2.5,0.2,3.6-0.5
					c0.9-0.7,3.6-2.3,5.9-0.1C198.8,83.6,199.5,83.6,201.5,83.5z"/>
				
					<ellipse transform="matrix(0.9321 -0.3621 0.3621 0.9321 -16.0013 78.092)" class="st13" cx="200.4" cy="81.7" rx="0.7" ry="0.5"/>
				
					<ellipse transform="matrix(0.5646 -0.8254 0.8254 0.5646 19.6926 197.7587)" class="st13" cx="197.3" cy="80.2" rx="0.7" ry="0.6"/>
				
					<ellipse transform="matrix(0.5646 -0.8254 0.8254 0.5646 18.2511 194.7057)" class="st13" cx="193.7" cy="80.1" rx="0.6" ry="0.7"/>
				
					<ellipse transform="matrix(0.4843 -0.8749 0.8749 0.4843 26.6518 209.0429)" class="st13" cx="190.7" cy="81.9" rx="0.5" ry="0.7"/>
			</g>
			<g>
				<path class="st12" d="M201.6,85.6c0,0,3.4-0.5,0.5,2.2c-0.4,0.5-7.1,6.7-14.2-1.1c0-0.7-0.5-0.9,1.1-0.9s2.5-0.3,3.6,0.4
					c0.9,0.7,3.7,2.2,5.9-0.1C198.8,85.7,199.5,85.7,201.6,85.6z"/>
				
					<ellipse transform="matrix(0.3282 -0.9446 0.9446 0.3282 52.0487 248.0926)" class="st13" cx="200.4" cy="87.5" rx="0.5" ry="0.7"/>
				
					<ellipse transform="matrix(0.8045 -0.594 0.594 0.8045 -14.3119 134.691)" class="st13" cx="197.4" cy="89.1" rx="0.6" ry="0.7"/>
				
					<ellipse transform="matrix(0.8045 -0.594 0.594 0.8045 -15.1898 132.6058)" class="st13" cx="193.8" cy="89.4" rx="0.7" ry="0.6"/>
				
					<ellipse transform="matrix(0.8569 -0.5156 0.5156 0.8569 -17.87 110.8851)" class="st13" cx="190.7" cy="87.6" rx="0.7" ry="0.5"/>
			</g>
		</g>
	</g>
	<g>
		<path class="st10" d="M308.8,74.8c0,0-0.1-0.1-0.1-0.1c-0.2-0.2-0.1-0.5,0.2-0.5c0.6-0.2,1.1-0.5,1.3-1.1c0.1-0.2,0.1-0.5,0.2-0.7
			c0.2-0.6,0.4-1.2,0.9-1.6c0.1,0,0.1-0.1,0.2-0.2c0.4-0.5,0.7-1,0.5-1.6c-0.1-0.4-0.1-0.9,0.1-1.3c0-0.1,0.1-0.3,0.1-0.4
			c0.2-0.5,0.1-1-0.3-1.4c-0.2-0.2-0.3-0.5-0.4-0.7c0-0.3-0.1-0.6,0-0.8c0.1-0.4-0.1-0.8-0.4-1c-0.5-0.4-1-0.8-1.6-1.1
			c-0.3-0.2-0.5-0.4-0.6-0.7c-0.2-0.5-0.5-0.8-1.1-0.9c-0.5-0.1-1-0.3-1.4-0.5c-0.2-0.1-0.5-0.3-0.7-0.5c-0.2-0.2-0.4-0.5-0.6-0.7
			c-0.8-0.8-1.7-1.2-2.8-0.9c-0.9,0.2-1.7,0.1-2.4-0.3c-0.1-0.1-0.2-0.1-0.3-0.1c-0.4-0.1-0.8-0.3-1.2-0.3c-0.9-0.1-1.6,0.3-2.3,0.9
			c-0.3,0.3-0.6,0.4-1,0.5c-0.2,0-0.4,0.1-0.5,0.2c-0.3,0.2-0.6,0.5-0.8,0.8c-0.2,0.3-0.4,0.4-0.7,0.4c-0.1,0-0.2,0-0.3,0
			c-0.4,0.1-0.7,0.2-0.9,0.5c-0.2,0.3-0.4,0.7-0.6,1.1c-0.5,1.4-0.8,2.9-0.4,4.4c0.1,0.4,0.2,0.8,0.1,1.2c0,0,0.1,1.3,2.5,3.4
			c2.5,2.3,1.5,2.4,3.3,2.8c2.5,0.4,3.3,0.2,4,1.4c1.6,0.8,2.3,0.3,3.6,0c1.3-0.3,2.6,0.9,3.1,0.8C307.8,75.8,308.7,75.6,308.8,74.8
			z"/>
		<g>
			
				<ellipse transform="matrix(0.3291 -0.9443 0.9443 0.3291 139.2958 328.9581)" class="st11" cx="301.2" cy="66.4" rx="6.7" ry="9.4"/>
			<g>
				<path class="st12" d="M307.1,67.5c0,0,3,1.5,1.2-2c-0.3-0.6-4.7-8.6-13.9-3.4c-0.2,0.6-0.7,0.7,0.8,1.2c1.5,0.5,2.3,1,3.6,0.8
					c1.1-0.3,4.2-0.9,5.5,1.9C304.6,66.6,305.2,66.8,307.1,67.5z"/>
				
					<ellipse transform="matrix(0.9999 -1.708332e-02 1.708332e-02 0.9999 -1.0721 5.2485)" class="st13" cx="306.7" cy="65.4" rx="0.7" ry="0.5"/>
				
					<ellipse transform="matrix(0.8154 -0.579 0.579 0.8154 19.7819 187.7983)" class="st13" cx="304.3" cy="62.9" rx="0.7" ry="0.6"/>
				<ellipse transform="matrix(0.8154 -0.579 0.579 0.8154 19.9774 185.6084)" class="st13" cx="301" cy="61.5" rx="0.6" ry="0.7"/>
				
					<ellipse transform="matrix(0.7572 -0.6532 0.6532 0.7572 31.6201 209.4317)" class="st13" cx="297.5" cy="62.2" rx="0.5" ry="0.7"/>
			</g>
			<g>
				<path class="st12" d="M306.5,69.4c0,0,3.3,0.7-0.3,2.3c-0.6,0.3-9,3.8-13-6c0.2-0.6-0.1-1,1.4-0.5c1.5,0.5,2.4,0.6,3.3,1.6
					c0.6,0.9,2.7,3.3,5.5,1.9C303.9,68.5,304.5,68.8,306.5,69.4z"/>
				
					<ellipse transform="matrix(0.6349 -0.7726 0.7726 0.6349 56.6038 261.3208)" class="st13" cx="304.8" cy="70.8" rx="0.5" ry="0.7"/>
				
					<ellipse transform="matrix(0.9603 -0.2788 0.2788 0.9603 -7.9166 86.8641)" class="st13" cx="301.4" cy="71.3" rx="0.6" ry="0.7"/>
				
					<ellipse transform="matrix(0.9603 -0.2788 0.2788 0.9603 -7.7829 85.8539)" class="st13" cx="297.9" cy="70.3" rx="0.7" ry="0.6"/>
				
					<ellipse transform="matrix(0.9823 -0.1871 0.1871 0.9823 -7.4234 56.5119)" class="st13" cx="295.6" cy="67.6" rx="0.7" ry="0.5"/>
			</g>
		</g>
	</g>
	<g>
		<path class="st10" d="M237.7,62.8c0,0-0.1,0-0.1-0.1c-0.2-0.1-0.2-0.3,0-0.4c0.4-0.3,0.7-0.6,0.7-1.1c0-0.2,0-0.4,0-0.5
			c0-0.5,0-0.9,0.3-1.3c0,0,0.1-0.1,0.1-0.2c0.2-0.4,0.3-0.9,0-1.3c-0.2-0.3-0.2-0.6-0.2-0.9c0-0.1,0-0.2,0-0.3
			c0-0.4-0.1-0.8-0.5-0.9c-0.2-0.1-0.3-0.3-0.4-0.5c-0.1-0.2-0.2-0.4-0.2-0.6c0-0.3-0.2-0.5-0.5-0.6c-0.5-0.2-0.9-0.3-1.4-0.5
			c-0.2-0.1-0.5-0.2-0.6-0.4c-0.2-0.3-0.6-0.5-1-0.5c-0.4,0-0.8,0-1.2-0.1c-0.2,0-0.4-0.1-0.6-0.2c-0.2-0.1-0.4-0.2-0.6-0.4
			c-0.7-0.4-1.5-0.5-2.3-0.1c-0.6,0.3-1.2,0.4-1.9,0.3c-0.1,0-0.2,0-0.2,0c-0.3,0-0.7,0-1,0c-0.7,0.1-1.2,0.5-1.5,1.1
			c-0.1,0.3-0.3,0.4-0.6,0.6c-0.1,0.1-0.3,0.1-0.4,0.2c-0.2,0.2-0.3,0.5-0.4,0.8c-0.1,0.2-0.2,0.4-0.4,0.4c-0.1,0-0.1,0.1-0.2,0.1
			c-0.2,0.1-0.4,0.3-0.5,0.6c-0.1,0.3-0.2,0.6-0.2,0.9c-0.1,1.2,0,2.3,0.6,3.3c0.2,0.3,0.3,0.6,0.3,0.9c0,0,0.3,1,2.5,1.9
			c2.4,1.2,1.6,1.5,3,1.4c1.9-0.2,2.5-0.5,3.3,0.2c1.4,0.3,1.7-0.2,2.6-0.7c0.9-0.5,2.1,0.1,2.4,0S237.8,63.4,237.7,62.8z"/>
		<g>
			
				<ellipse transform="matrix(5.857228e-02 -0.9983 0.9983 5.857228e-02 158.7117 284.7516)" class="st11" cx="230.3" cy="58.2" rx="5.1" ry="7.2"/>
			<g>
				<path class="st12" d="M234.9,57.7c0,0,2.6,0.5,0.4-1.7c-0.3-0.4-5.2-5.3-10.9,0.4c0,0.5-0.4,0.7,0.8,0.7
					c1.2,0.1,1.9,0.3,2.8-0.2c0.7-0.5,2.9-1.6,4.5,0.3C232.9,57.6,233.4,57.6,234.9,57.7z"/>
				
					<ellipse transform="matrix(0.9571 -0.2896 0.2896 0.9571 -6.267 70.2364)" class="st13" cx="234.2" cy="56.3" rx="0.5" ry="0.3"/>
				
					<ellipse transform="matrix(0.6261 -0.7797 0.7797 0.6261 43.8594 201.3678)" class="st13" cx="231.9" cy="54.9" rx="0.5" ry="0.4"/>
				
					<ellipse transform="matrix(0.6261 -0.7797 0.7797 0.6261 43.093 199.1016)" class="st13" cx="229.2" cy="54.6" rx="0.4" ry="0.5"/>
				
					<ellipse transform="matrix(0.5499 -0.8352 0.8352 0.5499 55.4126 214.5362)" class="st13" cx="226.8" cy="55.9" rx="0.3" ry="0.5"/>
			</g>
			<g>
				<path class="st12" d="M234.8,59.3c0,0,2.6-0.2,0.2,1.7c-0.4,0.3-5.8,4.7-10.8-1.7c0-0.5-0.3-0.7,0.9-0.6
					c1.2,0.1,1.9-0.1,2.7,0.5c0.7,0.6,2.7,1.9,4.5,0.3C232.8,59.2,233.3,59.2,234.8,59.3z"/>
				
					<ellipse transform="matrix(0.3996 -0.9167 0.9167 0.3996 84.834 250.8298)" class="st13" cx="233.9" cy="60.7" rx="0.3" ry="0.5"/>
				
					<ellipse transform="matrix(0.8476 -0.5306 0.5306 0.8476 2.5301 132.2513)" class="st13" cx="231.5" cy="61.7" rx="0.4" ry="0.5"/>
				
					<ellipse transform="matrix(0.8476 -0.5306 0.5306 0.8476 2.1028 130.7849)" class="st13" cx="228.7" cy="61.7" rx="0.5" ry="0.4"/>
				
					<ellipse transform="matrix(0.8938 -0.4484 0.4484 0.8938 -2.953 107.9599)" class="st13" cx="226.5" cy="60.2" rx="0.5" ry="0.3"/>
			</g>
		</g>
	</g>
	<g>
		<path class="st10" d="M166.7,60.3c0,0-0.1,0-0.1-0.1c-0.2-0.1-0.2-0.3,0-0.4c0.4-0.3,0.7-0.6,0.7-1.1c0-0.2,0-0.4,0-0.5
			c0-0.5,0-0.9,0.3-1.3c0,0,0.1-0.1,0.1-0.2c0.2-0.4,0.3-0.9,0-1.3c-0.2-0.3-0.2-0.6-0.2-0.9c0-0.1,0-0.2,0-0.3
			c0-0.4-0.1-0.8-0.5-0.9c-0.2-0.1-0.3-0.3-0.4-0.5c-0.1-0.2-0.2-0.4-0.2-0.6c0-0.3-0.2-0.5-0.5-0.6c-0.5-0.2-0.9-0.3-1.4-0.5
			c-0.2-0.1-0.5-0.2-0.6-0.4c-0.2-0.3-0.6-0.5-1-0.5c-0.4,0-0.8,0-1.2-0.1c-0.2,0-0.4-0.1-0.6-0.2c-0.2-0.1-0.4-0.2-0.6-0.4
			c-0.7-0.4-1.5-0.5-2.3-0.1c-0.6,0.3-1.2,0.4-1.9,0.3c-0.1,0-0.2,0-0.2,0c-0.3,0-0.7,0-1,0c-0.7,0.1-1.2,0.5-1.5,1.1
			c-0.1,0.3-0.3,0.4-0.6,0.6c-0.1,0.1-0.3,0.1-0.4,0.2c-0.2,0.2-0.3,0.5-0.4,0.8c-0.1,0.2-0.2,0.4-0.4,0.4c-0.1,0-0.1,0.1-0.2,0.1
			c-0.2,0.1-0.4,0.3-0.5,0.6c-0.1,0.3-0.2,0.6-0.2,0.9c-0.1,1.2,0,2.3,0.6,3.3c0.2,0.3,0.3,0.6,0.3,0.9c0,0,0.3,1,2.5,1.9
			c2.4,1.2,1.6,1.5,3,1.4c1.9-0.2,2.5-0.5,3.3,0.2c1.4,0.3,1.7-0.2,2.6-0.7c0.9-0.5,2.1,0.1,2.4,0C166.2,61.3,166.8,61,166.7,60.3z"
			/>
		<g>
			
				<ellipse transform="matrix(5.857228e-02 -0.9983 0.9983 5.857228e-02 94.3547 211.6125)" class="st11" cx="159.4" cy="55.8" rx="5.1" ry="7.2"/>
			<g>
				<path class="st12" d="M164,55.3c0,0,2.6,0.5,0.4-1.7c-0.3-0.4-5.2-5.3-10.9,0.4c0,0.5-0.4,0.7,0.8,0.7c1.2,0.1,1.9,0.3,2.8-0.2
					c0.7-0.5,2.9-1.6,4.5,0.3C161.9,55.2,162.4,55.2,164,55.3z"/>
				
					<ellipse transform="matrix(0.9571 -0.2896 0.2896 0.9571 -8.5996 49.5792)" class="st13" cx="163.2" cy="53.8" rx="0.5" ry="0.3"/>
				
					<ellipse transform="matrix(0.6261 -0.7797 0.7797 0.6261 19.2386 145.1258)" class="st13" cx="160.9" cy="52.5" rx="0.5" ry="0.4"/>
				
					<ellipse transform="matrix(0.6261 -0.7797 0.7797 0.6261 18.4722 142.8596)" class="st13" cx="158.2" cy="52.2" rx="0.4" ry="0.5"/>
				
					<ellipse transform="matrix(0.5499 -0.8352 0.8352 0.5499 25.5179 154.1683)" class="st13" cx="155.8" cy="53.4" rx="0.3" ry="0.5"/>
			</g>
			<g>
				<path class="st12" d="M163.9,56.9c0,0,2.6-0.2,0.2,1.7c-0.4,0.3-5.8,4.7-10.8-1.7c0-0.5-0.3-0.7,0.9-0.6
					c1.2,0.1,1.9-0.1,2.7,0.5c0.7,0.6,2.7,1.9,4.5,0.3C161.8,56.8,162.3,56.8,163.9,56.9z"/>
				
					<ellipse transform="matrix(0.3996 -0.9167 0.9167 0.3996 44.4746 184.3147)" class="st13" cx="162.9" cy="58.2" rx="0.3" ry="0.5"/>
				
					<ellipse transform="matrix(0.8476 -0.5306 0.5306 0.8476 -6.985 94.226)" class="st13" cx="160.5" cy="59.3" rx="0.4" ry="0.5"/>
				
					<ellipse transform="matrix(0.8476 -0.5306 0.5306 0.8476 -7.4123 92.7596)" class="st13" cx="157.8" cy="59.3" rx="0.5" ry="0.4"/>
				
					<ellipse transform="matrix(0.8938 -0.4484 0.4484 0.8938 -9.3896 75.8811)" class="st13" cx="155.5" cy="57.8" rx="0.5" ry="0.3"/>
			</g>
		</g>
	</g>
	<g>
		<path class="st10" d="M267,89.3c0,0-0.1,0-0.1-0.1c-0.2-0.1-0.2-0.3,0-0.4c0.4-0.3,0.7-0.6,0.7-1.1c0-0.2,0-0.4,0-0.5
			c0-0.5,0-0.9,0.3-1.3c0,0,0.1-0.1,0.1-0.2c0.2-0.4,0.3-0.9,0-1.3c-0.2-0.3-0.2-0.6-0.2-0.9c0-0.1,0-0.2,0-0.3
			c0-0.4-0.1-0.8-0.5-0.9c-0.2-0.1-0.3-0.3-0.4-0.5s-0.2-0.4-0.2-0.6c0-0.3-0.2-0.5-0.5-0.6c-0.5-0.2-0.9-0.3-1.4-0.5
			c-0.2-0.1-0.5-0.2-0.6-0.4c-0.2-0.3-0.6-0.5-1-0.5c-0.4,0-0.8,0-1.2-0.1c-0.2,0-0.4-0.1-0.6-0.2c-0.2-0.1-0.4-0.2-0.6-0.4
			c-0.7-0.4-1.5-0.5-2.3-0.1c-0.6,0.3-1.2,0.4-1.9,0.3c-0.1,0-0.2,0-0.2,0c-0.3,0-0.7,0-1,0c-0.7,0.1-1.2,0.5-1.5,1.1
			c-0.1,0.3-0.3,0.4-0.6,0.6c-0.1,0.1-0.3,0.1-0.4,0.2c-0.2,0.2-0.3,0.5-0.4,0.8c-0.1,0.2-0.2,0.4-0.4,0.4c-0.1,0-0.1,0.1-0.2,0.1
			c-0.2,0.1-0.4,0.3-0.5,0.6c-0.1,0.3-0.2,0.6-0.2,0.9c-0.1,1.2,0,2.3,0.6,3.3c0.2,0.3,0.3,0.6,0.3,0.9c0,0,0.3,1,2.5,1.9
			c2.4,1.2,1.6,1.5,3,1.4c1.9-0.2,2.5-0.5,3.3,0.2c1.4,0.3,1.7-0.2,2.6-0.7s2.1,0.1,2.4,0S267.1,89.9,267,89.3z"/>
		<g>
			
				<ellipse transform="matrix(5.857228e-02 -0.9983 0.9983 5.857228e-02 159.8914 338.955)" class="st11" cx="259.7" cy="84.7" rx="5.1" ry="7.2"/>
			<g>
				<path class="st12" d="M264.3,84.2c0,0,2.6,0.5,0.4-1.7c-0.3-0.4-5.2-5.3-10.9,0.4c0,0.5-0.4,0.7,0.8,0.7
					c1.2,0.1,1.9,0.3,2.8-0.2c0.7-0.5,2.9-1.6,4.5,0.3C262.2,84.1,262.7,84.1,264.3,84.2z"/>
				
					<ellipse transform="matrix(0.9571 -0.2896 0.2896 0.9571 -12.6785 79.8661)" class="st13" cx="263.5" cy="82.8" rx="0.5" ry="0.3"/>
				
					<ellipse transform="matrix(0.6261 -0.7797 0.7797 0.6261 34.1805 234.1349)" class="st13" cx="261.2" cy="81.4" rx="0.5" ry="0.4"/>
				
					<ellipse transform="matrix(0.6261 -0.7797 0.7797 0.6261 33.414 231.8687)" class="st13" cx="258.5" cy="81.1" rx="0.4" ry="0.5"/>
				
					<ellipse transform="matrix(0.5499 -0.8352 0.8352 0.5499 46.4998 250.9501)" class="st13" cx="256.1" cy="82.3" rx="0.3" ry="0.5"/>
			</g>
			<g>
				<path class="st12" d="M264.2,85.8c0,0,2.6-0.2,0.2,1.7c-0.4,0.3-5.8,4.7-10.8-1.7c0-0.5-0.3-0.7,0.9-0.6
					c1.2,0.1,1.9-0.1,2.7,0.5c0.7,0.6,2.7,1.9,4.5,0.3C262.1,85.7,262.6,85.7,264.2,85.8z"/>
				
					<ellipse transform="matrix(0.3996 -0.9167 0.9167 0.3996 78.1724 293.6116)" class="st13" cx="263.2" cy="87.1" rx="0.3" ry="0.5"/>
				
					<ellipse transform="matrix(0.8476 -0.5306 0.5306 0.8476 -7.0496 151.8491)" class="st13" cx="260.8" cy="88.2" rx="0.4" ry="0.5"/>
				
					<ellipse transform="matrix(0.8476 -0.5306 0.5306 0.8476 -7.4768 150.3827)" class="st13" cx="258.1" cy="88.2" rx="0.5" ry="0.4"/>
				
					<ellipse transform="matrix(0.8938 -0.4484 0.4484 0.8938 -11.7116 123.9228)" class="st13" cx="255.8" cy="86.7" rx="0.5" ry="0.3"/>
			</g>
		</g>
	</g>
	<g>
		<path class="st10" d="M160.7,82.2c0,0-0.1,0-0.1-0.1c-0.2-0.1-0.2-0.3,0-0.4c0.4-0.3,0.7-0.6,0.7-1.1c0-0.2,0-0.4,0-0.5
			c0-0.5,0-0.9,0.3-1.3c0,0,0.1-0.1,0.1-0.2c0.2-0.4,0.3-0.9,0-1.3c-0.2-0.3-0.2-0.6-0.2-0.9c0-0.1,0-0.2,0-0.3
			c0-0.4-0.1-0.8-0.5-0.9c-0.2-0.1-0.3-0.3-0.4-0.5c-0.1-0.2-0.2-0.4-0.2-0.6c0-0.3-0.2-0.5-0.5-0.6c-0.5-0.2-0.9-0.3-1.4-0.5
			c-0.2-0.1-0.5-0.2-0.6-0.4c-0.2-0.3-0.6-0.5-1-0.5c-0.4,0-0.8,0-1.2-0.1c-0.2,0-0.4-0.1-0.6-0.2c-0.2-0.1-0.4-0.2-0.6-0.4
			c-0.7-0.4-1.5-0.5-2.3-0.1c-0.6,0.3-1.2,0.4-1.9,0.3c-0.1,0-0.2,0-0.2,0c-0.3,0-0.7,0-1,0c-0.7,0.1-1.2,0.5-1.5,1.1
			c-0.1,0.3-0.3,0.4-0.6,0.6c-0.1,0.1-0.3,0.1-0.4,0.2c-0.2,0.2-0.3,0.5-0.4,0.8c-0.1,0.2-0.2,0.4-0.4,0.4c-0.1,0-0.1,0.1-0.2,0.1
			c-0.2,0.1-0.4,0.3-0.5,0.6c-0.1,0.3-0.2,0.6-0.2,0.9c-0.1,1.2,0,2.3,0.6,3.3c0.2,0.3,0.3,0.6,0.3,0.9c0,0,0.3,1,2.5,1.9
			c2.4,1.2,1.6,1.5,3,1.4c1.9-0.2,2.5-0.5,3.3,0.2c1.4,0.3,1.7-0.2,2.6-0.7c0.9-0.5,2.1,0.1,2.4,0C160.2,83.1,160.8,82.8,160.7,82.2
			z"/>
		<g>
			
				<ellipse transform="matrix(5.857228e-02 -0.9983 0.9983 5.857228e-02 66.9083 226.165)" class="st11" cx="153.4" cy="77.6" rx="5.1" ry="7.2"/>
			<g>
				<path class="st12" d="M158,77.1c0,0,2.6,0.5,0.4-1.7c-0.3-0.4-5.2-5.3-10.9,0.4c0,0.5-0.4,0.7,0.8,0.7c1.2,0.1,1.9,0.3,2.8-0.2
					c0.7-0.5,2.9-1.6,4.5,0.3C155.9,77,156.4,77,158,77.1z"/>
				
					<ellipse transform="matrix(0.9571 -0.2896 0.2896 0.9571 -15.1796 48.7749)" class="st13" cx="157.2" cy="75.7" rx="0.5" ry="0.3"/>
				
					<ellipse transform="matrix(0.6261 -0.7797 0.7797 0.6261 -2.753649e-02 148.6027)" class="st13" cx="154.9" cy="74.3" rx="0.5" ry="0.4"/>
				
					<ellipse transform="matrix(0.6261 -0.7797 0.7797 0.6261 -0.794 146.3365)" class="st13" cx="152.2" cy="74" rx="0.4" ry="0.5"/>
				
					<ellipse transform="matrix(0.5499 -0.8352 0.8352 0.5499 4.5818 158.9759)" class="st13" cx="149.8" cy="75.2" rx="0.3" ry="0.5"/>
			</g>
			<g>
				<path class="st12" d="M157.9,78.7c0,0,2.6-0.2,0.2,1.7c-0.4,0.3-5.8,4.7-10.8-1.7c0-0.5-0.3-0.7,0.9-0.6
					c1.2,0.1,1.9-0.1,2.7,0.5c0.7,0.6,2.7,1.9,4.5,0.3C155.8,78.6,156.3,78.6,157.9,78.7z"/>
				
					<ellipse transform="matrix(0.3996 -0.9167 0.9167 0.3996 20.8578 191.9135)" class="st13" cx="156.9" cy="80" rx="0.3" ry="0.5"/>
				
					<ellipse transform="matrix(0.8476 -0.5306 0.5306 0.8476 -19.4834 94.3649)" class="st13" cx="154.5" cy="81.1" rx="0.4" ry="0.5"/>
				
					<ellipse transform="matrix(0.8476 -0.5306 0.5306 0.8476 -19.9107 92.8984)" class="st13" cx="151.8" cy="81.1" rx="0.5" ry="0.4"/>
				
					<ellipse transform="matrix(0.8938 -0.4484 0.4484 0.8938 -19.8159 75.5049)" class="st13" cx="149.5" cy="79.6" rx="0.5" ry="0.3"/>
			</g>
		</g>
	</g>
</g>
</svg>
