<?xml version="1.0" encoding="utf-8"?>
<!-- Generator: Adobe Illustrator 21.0.0, SVG Export Plug-In . SVG Version: 6.00 Build 0)  -->
<svg version="1.1" id="Слой_1" xmlns="http://www.w3.org/2000/svg" xmlns:xlink="http://www.w3.org/1999/xlink" x="0px" y="0px"
	 viewBox="0 0 389 157" style="enable-background:new 0 0 389 157;" xml:space="preserve">
<style type="text/css">
	.st0{display:none;}
	.st1{display:inline;}
	.st2{fill:#732A13;}
	.st3{fill:#6C151C;}
	.st4{fill:#F6C073;}
	.st5{fill:#F1A12E;}
	.st6{opacity:0.3;fill:#FBE0BA;enable-background:new    ;}
	.st7{fill:#6F4026;}
	.st8{fill:#F6C278;}
	.st9{display:inline;fill:#AB1717;}
	.st10{fill:#D44645;}
	.st11{fill:#F64851;}
	.st12{fill:#F6E1E0;}
	.st13{fill:#C04041;}
</style>
<g id="Layer_1" class="st0">
	<g class="st1">
		
			<ellipse transform="matrix(0.9998 -1.910948e-02 1.910948e-02 0.9998 -1.7337 3.9668)" class="st2" cx="206.7" cy="92.7" rx="175.1" ry="48.7"/>
		
			<ellipse transform="matrix(0.9998 -1.911576e-02 1.911576e-02 0.9998 -1.5262 3.9298)" class="st3" cx="204.8" cy="81.8" rx="161" ry="44.8"/>
		
			<ellipse transform="matrix(0.9998 -1.911913e-02 1.911913e-02 0.9998 -1.4442 3.9373)" class="st4" cx="205.2" cy="77.5" rx="158.3" ry="44.6"/>
		
			<ellipse transform="matrix(0.9998 -1.910377e-02 1.910377e-02 0.9998 -1.317 3.9311)" class="st5" cx="205.1" cy="70.9" rx="145.6" ry="32.3"/>
		
			<ellipse transform="matrix(0.9998 -1.911114e-02 1.911114e-02 0.9998 -1.3424 3.9328)" class="st5" cx="205.1" cy="72.2" rx="139.4" ry="30.9"/>
		<path class="st6" d="M204.5,41.3c-77,1.5-139.1,16.5-138.8,33.6s63,29.7,140,28.3c77-1.5,139.1-16.5,138.8-33.6
			S281.5,39.9,204.5,41.3z M76.5,69.9c-0.4-0.2-0.5-0.7-0.3-1.1c3.1-9.1,15.8-8,22.9-11.7c0.3-0.2,0.6-0.2,0.8-0.1
			c15-5,30.2-7.7,46.5-8.8c9-0.6,18.1-0.6,27.1-0.7c5.3-0.1,12.1-0.5,16.1,3.6c0.6,0.6-0.1,1.5-0.7,1.7c-8,3.7-17.1,2.5-25.7,3.3
			c-11,1-22.1,2.7-32.9,4.8c-10.9,2.1-22.2,3.3-33,6.1C90.6,68.8,83.3,72.4,76.5,69.9z M180.5,95.3c-6.8,1.8-14,1.7-21,1.7
			c-9.1,0-18.1-0.1-27.2,0c-5.6,0-12.9,0-17.3-4.1c-4.6-4.3-9.2-3.7-15-3.6c-4.6,0-17.9,0.3-17.1-7.4c0.6-5.4,10.5-7.5,14.4-8.5
			c8.1-2.1,16.5-3.3,24.8-4c3.8-0.3,7.4-0.5,11.1-1.1c0.1-0.1,0.3-0.2,0.4-0.2c12.3-2.4,24.7-4,37.2-4.6c8.1-0.4,22-1.8,22.4,9.6
			C193.7,82.5,190.7,92.5,180.5,95.3z M213.5,49.7c7-6.9,18.9-4.7,27.8-6c0.5-0.1,0.7,0.1,0.8,0.4c6,0,12.1,0.7,18.1,1.3
			c6.4,0.6,16.7,0.8,21.1,6.5c0.4,0.6,0.1,1.6-0.7,1.7c-12.9,3.4-25.5-0.7-38.5,0c-8.7,0.5-20.9,2.9-28.6-2.4
			C213,50.8,213,50.1,213.5,49.7z M261.1,84.1c-1.6,4.3-7.6,5.8-11.6,6.6c-7.1,1.4-14.7,2.8-21.8,3.4c-7,0.6-12.6-1.2-15.8-7.8
			c-1.4-3-6.8-16-3.7-20.4c0.1-0.1,0.2-0.3,0.3-0.4c0.4-0.4,0.9-0.7,1.6-0.9c2-0.8,4.1-0.6,6.5,0.2c5.2,1.6,10.6,2.4,15.9,3.9
			c7,1.9,14.2,4.3,20.9,7.3C256.2,77.1,262.7,79.8,261.1,84.1z M300.7,71.4c-4.1,5.6-14.6,4.6-20.5,4.1c-11.3-0.9-22.3-2.5-33.2-5.8
			c-3.7-1.1-18.2-3.5-18.9-8.4c-0.3-2.3,2.3-3.5,5.3-4.1c9.4-3.8,19.3,0,28.9,0.7c5.4,0.4,10.9,1.2,16.2,2.1
			C281.8,60.5,306.3,63.8,300.7,71.4z"/>
		<path class="st7" d="M38.5,90c0,0-6.8,2.4-0.1,15.3s86.2,37.6,160.7,32.7c0,0,51.9,0,52.2-4.1s-19.8-4.3-19.8-4.3
			s-23.5,0.7-33.8,0.8C187.5,130.4,54.8,131.5,38.5,90z"/>
		<path class="st8" d="M55.9,70.2c0,0-3.4-0.2-6.1,6.4c-2.7,6.6,7.9,22.9,55,33.2c47,10.3,115.1,12.6,150.4,6.2s18.1-15.1,0.9-12.8
			c-17.2,2.3-17.2,2.3-17.2,2.3S153,108.1,110,99.9C69.2,92.2,55.1,87.1,55.9,70.2z"/>
	</g>
</g>
<g id="Слой_3" class="st0">
	<path class="st9" d="M142.3,45.8c0,0,46.5-2,75.9-1.5c19.1,0.2,41.2-3.1,77.1,5.1c17.5,3.8,28.6,7.5,34.6,10.6
		c3.6,1.9,6,5.6,5.9,9.7c-0.1,6.2-6.3,15.6-56.8,26c-49.7,4.8-55.4,4.6-77.4,3.8c-24.5,0.9-52.2,3.2-76.1-2.4
		c-26.9-5.6-68.6-13.4-56.1-25.5C77.3,64.7,87.5,54.1,142.3,45.8z"/>
</g>
<g id="Слой_4">
	<g>
		<path class="st10" d="M130.3,86.6c1.7,2.7,4.4,5.7,6,5c2.4-1,8.1-0.9,10.6-3c2.9-2.4,1.1-2.7,0.7-4.5c-1.3-3.4-4.6-7.1-5.4-7.3
			c-7,1.2-9.2,3.1-11.6,4.5c-0.5,0.2-1.8,0.8-1.9,1.8C128.6,83.9,129.4,85.1,130.3,86.6z"/>
		<path class="st11" d="M142.3,88.4c-6,2-5.6,0.4-6.7-0.4"/>
		<path class="st12" d="M132.9,80.8c0.3-0.3,0.7-0.5,1.1-0.6c1.7-0.1,1.2-0.3,2.1-0.8c2.2-0.6,2.5,0,3.5-0.6
			c1.3-1.3,1.7-1.3,2.7-0.9c0.5,0.2,1,0.6,1.2,1c0.7,1.3,2,3.3,3.3,4.8c1.5,2.6-1.9,2.4-3.1,2.4c-2.2,1.9-3.4,1.9-4.7,1.9
			c-2.2,0.6-2.8-0.5-3.4-1.5c-0.1-1.3-2.1-3.7-2.1-3.7C132,82.2,132.3,81.6,132.9,80.8z"/>
		<path class="st13" d="M128.9,82.8c1.1-1.5,1.6-1.6,2.7-2.1c-1,0.5,0.7,2.4,0.7,2.4s1.3,1.1,3.2,4.6c0.7,1,1.1,2.7-0.1,3.5
			C133.6,92.2,128.4,83.4,128.9,82.8z"/>
	</g>
	<g>
		<path class="st10" d="M215.3,84.9c1.3,2.1,3.4,4.5,4.7,3.9c1.9-0.8,6.3-0.7,8.3-2.4c2.3-1.9,0.8-2.1,0.5-3.5
			c-1-2.7-3.6-5.5-4.2-5.7c-5.5,0.9-7.2,2.4-9.1,3.5c-0.4,0.1-1.4,0.6-1.5,1.4C214,82.8,214.6,83.8,215.3,84.9z"/>
		<path class="st11" d="M224.7,86.3c-4.7,1.5-4.4,0.3-5.2-0.3"/>
		<path class="st12" d="M217.4,80.4c0.2-0.2,0.5-0.4,0.9-0.4c1.3,0,0.9-0.2,1.6-0.6c1.8-0.4,2,0,2.8-0.5c1-1,1.4-1,2.1-0.7
			c0.4,0.2,0.8,0.4,1,0.8c0.6,1,1.5,2.6,2.6,3.7c1.1,2.1-1.5,1.9-2.4,1.9c-1.7,1.5-2.7,1.5-3.7,1.5c-1.8,0.4-2.2-0.4-2.7-1.2
			c-0.1-1-1.6-2.9-1.6-2.9C216.7,81.4,216.9,81,217.4,80.4z"/>
		<path class="st13" d="M214.2,81.9c0.9-1.2,1.3-1.2,2.1-1.7c-0.8,0.4,0.5,1.9,0.5,1.9s1,0.9,2.5,3.6c0.6,0.8,0.8,2.1-0.1,2.7
			C217.9,89.3,213.9,82.4,214.2,81.9z"/>
	</g>
	<g>
		<path class="st10" d="M238.3,56.4c0.1,1.7,0.7,3.6,1.6,3.7c1.3,0.1,3.9,1.5,5.5,1.1c1.9-0.4,1.1-1,1.4-1.9
			c0.2-1.9-0.4-4.3-0.7-4.6c-3.5-1.1-4.9-0.8-6.4-0.7c-0.3,0-1-0.1-1.3,0.4C238.2,54.8,238.2,55.5,238.3,56.4z"/>
		<path class="st11" d="M243.4,60c-3.2-0.5-2.6-1.1-2.9-1.7"/>
		<path class="st12" d="M240.8,54.4c0.2-0.1,0.4-0.1,0.6,0c0.8,0.4,0.6,0.1,1.1,0.1c1.2,0.3,1.2,0.6,1.7,0.6
			c0.9-0.3,1.1-0.2,1.4,0.2c0.2,0.2,0.3,0.5,0.3,0.8c0,0.8,0.1,2,0.4,2.9c0.1,1.5-1.4,0.7-2,0.4c-1.4,0.4-2,0.1-2.6-0.2
			c-1.2-0.3-1.2-0.9-1.2-1.5c0.3-0.6-0.1-2.2-0.1-2.2C240.1,54.8,240.4,54.6,240.8,54.4z"/>
		<path class="st13" d="M238.6,54.3c0.9-0.4,1.1-0.3,1.7-0.4c-0.6,0-0.2,1.2-0.2,1.2s0.3,0.8,0.4,2.9c0.1,0.6-0.1,1.5-0.9,1.5
			C238.5,59.7,238.2,54.5,238.6,54.3z"/>
	</g>
	<g>
		<path class="st10" d="M286.4,60.8c1,1.5,2.5,3.2,3.4,2.8c1.3-0.5,4.6-0.5,6-1.7c1.6-1.4,0.6-1.5,0.4-2.5c-0.7-1.9-2.6-4-3-4.1
			c-4,0.7-5.2,1.7-6.6,2.5c-0.3,0.1-1,0.5-1.1,1C285.4,59.3,285.9,60,286.4,60.8z"/>
		<path class="st11" d="M293.1,61.8c-3.4,1.1-3.1,0.2-3.7-0.2"/>
		<path class="st12" d="M287.8,57.6c0.2-0.2,0.4-0.3,0.6-0.3c1,0,0.7-0.2,1.2-0.5c1.3-0.3,1.4,0,2-0.3c0.7-0.7,1-0.7,1.5-0.5
			c0.3,0.1,0.5,0.3,0.7,0.6c0.4,0.7,1.1,1.9,1.9,2.7c0.8,1.5-1,1.4-1.8,1.4c-1.2,1.1-1.9,1.1-2.6,1.1c-1.3,0.3-1.6-0.3-1.9-0.9
			c-0.1-0.7-1.2-2.1-1.2-2.1C287.3,58.3,287.5,58,287.8,57.6z"/>
		<path class="st13" d="M285.6,58.7c0.6-0.8,0.9-0.9,1.5-1.2c-0.6,0.3,0.4,1.3,0.4,1.3s0.7,0.6,1.8,2.6c0.4,0.5,0.6,1.5-0.1,1.9
			C288.2,64,285.3,59,285.6,58.7z"/>
	</g>
	<g>
		<path class="st10" d="M184.2,66.6c1,1.5,2.5,3.2,3.4,2.8c1.3-0.5,4.6-0.5,6-1.7c1.6-1.4,0.6-1.5,0.4-2.5c-0.7-1.9-2.6-4-3-4.1
			c-4,0.7-5.2,1.7-6.6,2.5c-0.3,0.1-1,0.5-1.1,1C183.3,65.1,183.7,65.8,184.2,66.6z"/>
		<path class="st11" d="M191,67.6c-3.4,1.1-3.1,0.2-3.7-0.2"/>
		<path class="st12" d="M185.7,63.4c0.2-0.2,0.4-0.3,0.6-0.3c1,0,0.7-0.2,1.2-0.5c1.3-0.3,1.4,0,2-0.3c0.7-0.7,1-0.7,1.5-0.5
			c0.3,0.1,0.5,0.3,0.7,0.6c0.4,0.7,1.1,1.9,1.9,2.7c0.8,1.5-1,1.4-1.8,1.4c-1.2,1.1-1.9,1.1-2.6,1.1c-1.3,0.3-1.6-0.3-1.9-0.9
			c-0.1-0.7-1.2-2.1-1.2-2.1C185.2,64.1,185.4,63.8,185.7,63.4z"/>
		<path class="st13" d="M183.4,64.5c0.6-0.8,0.9-0.9,1.5-1.2c-0.6,0.3,0.4,1.3,0.4,1.3s0.7,0.6,1.8,2.6c0.4,0.5,0.6,1.5-0.1,1.9
			C186.1,69.8,183.2,64.8,183.4,64.5z"/>
	</g>
	<g>
		<path class="st10" d="M272.5,87.6c1,1.5,2.5,3.2,3.4,2.8c1.3-0.5,4.6-0.5,6-1.7c1.6-1.4,0.6-1.5,0.4-2.5c-0.7-1.9-2.6-4-3-4.1
			c-4,0.7-5.2,1.7-6.6,2.5c-0.3,0.1-1,0.5-1.1,1C271.5,86.1,272,86.8,272.5,87.6z"/>
		<path class="st11" d="M279.2,88.6c-3.4,1.1-3.1,0.2-3.7-0.2"/>
		<path class="st12" d="M273.9,84.4c0.2-0.2,0.4-0.3,0.6-0.3c1,0,0.7-0.2,1.2-0.5c1.3-0.3,1.4,0,2-0.3c0.7-0.7,1-0.7,1.5-0.5
			c0.3,0.1,0.5,0.3,0.7,0.6c0.4,0.7,1.1,1.9,1.9,2.7c0.8,1.5-1,1.4-1.8,1.4c-1.2,1.1-1.9,1.1-2.6,1.1c-1.3,0.3-1.6-0.3-1.9-0.9
			c-0.1-0.7-1.2-2.1-1.2-2.1C273.4,85.1,273.6,84.8,273.9,84.4z"/>
		<path class="st13" d="M271.7,85.5c0.6-0.8,0.9-0.9,1.5-1.2c-0.6,0.3,0.4,1.3,0.4,1.3s0.7,0.6,1.8,2.6c0.4,0.5,0.6,1.5-0.1,1.9
			C274.3,90.8,271.4,85.8,271.7,85.5z"/>
	</g>
	<g>
		<path class="st10" d="M114.7,64.5c1,1.6,2.6,3.4,3.6,3c1.4-0.6,4.8-0.6,6.2-1.8c1.7-1.4,0.6-1.6,0.4-2.7c-0.8-2-2.7-4.2-3.2-4.3
			c-4.2,0.7-5.4,1.8-6.9,2.6c-0.3,0.1-1.1,0.5-1.1,1.1C113.7,62.9,114.2,63.6,114.7,64.5z"/>
		<path class="st11" d="M121.8,65.5c-3.5,1.2-3.3,0.2-3.9-0.2"/>
		<path class="st12" d="M116.2,61.1c0.2-0.2,0.4-0.3,0.7-0.3c1,0,0.7-0.2,1.2-0.5c1.3-0.3,1.5,0,2.1-0.4c0.8-0.8,1-0.7,1.6-0.5
			c0.3,0.1,0.6,0.3,0.7,0.6c0.4,0.8,1.2,1.9,2,2.8c0.9,1.5-1.1,1.4-1.8,1.4c-1.3,1.1-2,1.1-2.8,1.1c-1.3,0.3-1.7-0.3-2-0.9
			c-0.1-0.8-1.2-2.2-1.2-2.2C115.7,61.8,115.9,61.5,116.2,61.1z"/>
		<path class="st13" d="M113.9,62.2c0.7-0.9,1-0.9,1.6-1.3c-0.6,0.3,0.4,1.4,0.4,1.4s0.7,0.6,1.9,2.7c0.4,0.6,0.6,1.6-0.1,2
			C116.6,67.8,113.6,62.6,113.9,62.2z"/>
	</g>
</g>
</svg>
