<?xml version="1.0" encoding="utf-8"?>
<!-- Generator: Adobe Illustrator 21.0.0, SVG Export Plug-In . SVG Version: 6.00 Build 0)  -->
<svg version="1.1" xmlns="http://www.w3.org/2000/svg" xmlns:xlink="http://www.w3.org/1999/xlink" x="0px" y="0px"
	 viewBox="0 0 389 157" style="enable-background:new 0 0 389 157;" xml:space="preserve">
<style type="text/css">
	.st0{display:none;}
	.st1{display:inline;}
	.st2{fill:#732A13;}
	.st3{fill:#6C151C;}
	.st4{fill:#F6C073;}
	.st5{fill:#F1A12E;}
	.st6{opacity:0.3;fill:#FBE0BA;}
	.st7{fill:#6F4026;}
	.st8{fill:#F6C278;}
	.st9{display:inline;fill:#AB1717;}
	.st10{fill:#FDDB22;}
</style>
<g id="Layer_1" class="st0">
	<g class="st1">
		
			<ellipse transform="matrix(0.9998 -1.910915e-02 1.910915e-02 0.9998 -1.7332 3.9663)" class="st2" cx="206.7" cy="92.7" rx="175.1" ry="48.7"/>
		
			<ellipse transform="matrix(0.9998 -1.911543e-02 1.911543e-02 0.9998 -1.5265 3.9296)" class="st3" cx="204.8" cy="81.8" rx="161" ry="44.8"/>
		
			<ellipse transform="matrix(0.9998 -1.911880e-02 1.911880e-02 0.9998 -1.4451 3.938)" class="st4" cx="205.2" cy="77.5" rx="158.3" ry="44.6"/>
		
			<ellipse transform="matrix(0.9998 -1.910344e-02 1.910344e-02 0.9998 -1.3162 3.9312)" class="st5" cx="205.1" cy="70.9" rx="145.6" ry="32.3"/>
		
			<ellipse transform="matrix(0.9998 -1.911081e-02 1.911081e-02 0.9998 -1.3431 3.9335)" class="st5" cx="205.1" cy="72.2" rx="139.4" ry="30.9"/>
		<path class="st6" d="M204.5,41.3c-77,1.5-139.1,16.5-138.8,33.6c0.3,17.1,63,29.7,140,28.3c77-1.5,139.1-16.5,138.8-33.6
			C344.2,52.5,281.5,39.9,204.5,41.3z M76.5,69.9c-0.4-0.2-0.5-0.7-0.3-1.1c3.1-9.1,15.8-8,22.9-11.7c0.3-0.2,0.6-0.2,0.8-0.1
			c15-5,30.2-7.7,46.5-8.8c9-0.6,18.1-0.6,27.1-0.7c5.3-0.1,12.1-0.5,16.1,3.6c0.6,0.6-0.1,1.5-0.7,1.7c-8,3.7-17.1,2.5-25.7,3.3
			c-11,1-22.1,2.7-32.9,4.8c-10.9,2.1-22.2,3.3-33,6.1C90.6,68.8,83.3,72.4,76.5,69.9z M180.5,95.3c-6.8,1.8-14,1.7-21,1.7
			c-9.1,0-18.1-0.1-27.2,0c-5.6,0-12.9,0-17.3-4.1c-4.6-4.3-9.2-3.7-15-3.6c-4.6,0-17.9,0.3-17.1-7.4c0.6-5.4,10.5-7.5,14.4-8.5
			c8.1-2.1,16.5-3.3,24.8-4c3.8-0.3,7.4-0.5,11.1-1.1c0.1-0.1,0.3-0.2,0.4-0.2c12.3-2.4,24.7-4,37.2-4.6c8.1-0.4,22-1.8,22.4,9.6
			C193.7,82.5,190.7,92.5,180.5,95.3z M213.5,49.7c7-6.9,18.9-4.7,27.8-6c0.5-0.1,0.7,0.1,0.8,0.4c6,0,12.1,0.7,18.1,1.3
			c6.4,0.6,16.7,0.8,21.1,6.5c0.4,0.6,0.1,1.6-0.7,1.7c-12.9,3.4-25.5-0.7-38.5,0c-8.7,0.5-20.9,2.9-28.6-2.4
			C213,50.8,213,50.1,213.5,49.7z M261.1,84.1c-1.6,4.3-7.6,5.8-11.6,6.6c-7.1,1.4-14.7,2.8-21.8,3.4c-7,0.6-12.6-1.2-15.8-7.8
			c-1.4-3-6.8-16-3.7-20.4c0.1-0.1,0.2-0.3,0.3-0.4c0.4-0.4,0.9-0.7,1.6-0.9c2-0.8,4.1-0.6,6.5,0.2c5.2,1.6,10.6,2.4,15.9,3.9
			c7,1.9,14.2,4.3,20.9,7.3C256.2,77.1,262.7,79.8,261.1,84.1z M300.7,71.4c-4.1,5.6-14.6,4.6-20.5,4.1c-11.3-0.9-22.3-2.5-33.2-5.8
			c-3.7-1.1-18.2-3.5-18.9-8.4c-0.3-2.3,2.3-3.5,5.3-4.1c9.4-3.8,19.3,0,28.9,0.7c5.4,0.4,10.9,1.2,16.2,2.1
			C281.8,60.5,306.3,63.8,300.7,71.4z"/>
		<path class="st7" d="M38.5,90c0,0-6.8,2.4-0.1,15.3c6.7,12.9,86.2,37.6,160.7,32.7c0,0,51.9,0,52.2-4.1c0.3-4.1-19.8-4.3-19.8-4.3
			s-23.5,0.7-33.8,0.8C187.5,130.4,54.8,131.5,38.5,90z"/>
		<path class="st8" d="M55.9,70.2c0,0-3.4-0.2-6.1,6.4c-2.7,6.6,7.9,22.9,55,33.2c47,10.3,115.1,12.6,150.4,6.2
			c35.3-6.4,18.1-15.1,0.9-12.8c-17.2,2.3-17.2,2.3-17.2,2.3S153,108.1,110,99.9C69.2,92.2,55.1,87.1,55.9,70.2z"/>
	</g>
</g>
<g id="Слой_3" class="st0">
	<path class="st9" d="M142.3,45.8c0,0,46.5-2,75.9-1.5c19.1,0.2,41.2-3.1,77.1,5.1c17.5,3.8,28.6,7.5,34.6,10.6
		c3.6,1.9,6,5.6,5.9,9.7c-0.1,6.2-6.3,15.6-56.8,26c-49.7,4.8-55.4,4.6-77.4,3.8c-24.5,0.9-52.2,3.2-76.1-2.4
		c-26.9-5.6-68.6-13.4-56.1-25.5C77.3,64.7,87.5,54.1,142.3,45.8z"/>
</g>
<g id="Слой_4">
	<g>
		<path class="st10" d="M196.1,80.8l-3.3-1.3c-0.7-0.3-1-1-0.8-1.7l0.2-0.6c0.3-0.7,1-1,1.7-0.8l3.3,1.3c0.7,0.3,1,1,0.8,1.7
			l-0.2,0.6C197.6,80.7,196.8,81,196.1,80.8z"/>
	</g>
	<g>
		<path class="st10" d="M179.6,92.2l-3.3-1.3c-0.7-0.3-1-1-0.8-1.7l0.2-0.6c0.3-0.7,1-1,1.7-0.8l3.3,1.3c0.7,0.3,1,1,0.8,1.7
			l-0.2,0.6C181.1,92.1,180.3,92.4,179.6,92.2z"/>
	</g>
	<g>
		<path class="st10" d="M230,74.8l-3.5-0.1c-0.8,0-1.3-0.6-1.3-1.3l0-0.6c0-0.8,0.6-1.3,1.3-1.3l3.5,0.1c0.8,0,1.3,0.6,1.3,1.3
			l0,0.6C231.4,74.2,230.8,74.7,230,74.8z"/>
	</g>
	<g>
		<path class="st10" d="M129.1,86.3l-3.3-1.3c-0.7-0.3-1-1-0.8-1.7l0.2-0.6c0.3-0.7,1-1,1.7-0.8l3.3,1.3c0.7,0.3,1,1,0.8,1.7
			l-0.2,0.6C130.6,86.2,129.8,86.5,129.1,86.3z"/>
	</g>
	<g>
		<path class="st10" d="M148.4,54.9l-3,0.4c-0.6,0.1-1.1-0.3-1.1-0.8l0-0.5c0-0.6,0.5-1,1.1-1.1l3-0.4c0.6-0.1,1.1,0.3,1.1,0.8
			l0,0.5C149.5,54.3,149,54.8,148.4,54.9z"/>
	</g>
	<g>
		<path class="st10" d="M98.2,72.3l-3.5,0.3c-0.8,0-1.3-0.4-1.5-1.2L93,70.9c0-0.8,0.4-1.3,1.2-1.5l3.5-0.3c0.8,0,1.3,0.4,1.5,1.2
			l0.1,0.6C99.4,71.6,98.9,72.2,98.2,72.3z"/>
	</g>
	<g>
		<path class="st10" d="M224.2,57.5l-2.6-0.2c-0.6-0.1-0.9-0.5-0.9-1l0-0.5c0.1-0.6,0.5-0.9,1-0.9l2.6,0.2c0.6,0.1,0.9,0.5,0.9,1
			l0,0.5C225.2,57.1,224.7,57.5,224.2,57.5z"/>
	</g>
	<g>
		<path class="st10" d="M259.3,69.9l-3.5-0.2c-0.8-0.1-1.3-0.6-1.3-1.4l0-0.6c0.1-0.8,0.6-1.3,1.4-1.3l3.5,0.2
			c0.8,0.1,1.3,0.6,1.3,1.4l0,0.6C260.7,69.3,260,69.8,259.3,69.9z"/>
	</g>
	<g>
		<path class="st10" d="M196.8,62.3l-3.3,1.2c-0.7,0.2-1.4-0.1-1.7-0.8l-0.2-0.6c-0.2-0.7,0.1-1.4,0.8-1.7l3.3-1.2
			c0.7-0.2,1.4,0.1,1.7,0.8l0.2,0.6C197.8,61.3,197.4,62,196.8,62.3z"/>
	</g>
	<g>
		<path class="st10" d="M169.1,70.8l-3.5-0.3c-0.8-0.1-1.2-0.7-1.3-1.4l0-0.6c0.1-0.8,0.7-1.2,1.4-1.3l3.5,0.3
			c0.8,0.1,1.2,0.7,1.3,1.4l0,0.6C170.5,70.3,169.9,70.8,169.1,70.8z"/>
	</g>
	<g>
		<path class="st10" d="M145.4,74.3l-3.3,0.8c-0.7,0.1-1.5-0.3-1.9-1.1l-0.3-0.7c-0.3-0.8-0.1-1.5,0.6-1.7l3.3-0.8
			c0.7-0.1,1.5,0.3,1.9,1.1l0.3,0.7C146.4,73.3,146,74,145.4,74.3z"/>
	</g>
	<g>
		<path class="st10" d="M161.8,82.2l-3.3,0.8c-0.7,0.1-1.5-0.3-1.9-1.1l-0.3-0.7c-0.3-0.8-0.1-1.5,0.6-1.7l3.3-0.8
			c0.7-0.1,1.5,0.3,1.9,1.1l0.3,0.7C162.8,81.2,162.4,82,161.8,82.2z"/>
	</g>
	<g>
		<path class="st10" d="M249.1,91.7l-3.5-0.1c-0.8,0-1.3-0.6-1.3-1.3l0-0.6c0-0.8,0.6-1.3,1.3-1.3l3.5,0.1c0.8,0,1.3,0.6,1.3,1.3
			l0,0.6C250.5,91.1,249.8,91.7,249.1,91.7z"/>
	</g>
	<g>
		<path class="st10" d="M278.7,84l-3.3-1.3c-0.7-0.3-1-1-0.8-1.7l0.2-0.6c0.3-0.7,1-1,1.7-0.8l3.3,1.3c0.7,0.3,1,1,0.8,1.7l-0.2,0.6
			C280.2,83.9,279.4,84.2,278.7,84z"/>
	</g>
	<g>
		<path class="st10" d="M293.2,63.6l-3.3-1.3c-0.7-0.3-1-1-0.8-1.7l0.2-0.6c0.3-0.7,1-1,1.7-0.8l3.3,1.3c0.7,0.3,1,1,0.8,1.7
			l-0.2,0.6C294.7,63.5,293.9,63.8,293.2,63.6z"/>
	</g>
	<g>
		<path class="st10" d="M315,74.7l-3.5-0.3c-0.8-0.1-1.2-0.7-1.2-1.4l0-0.6c0.1-0.8,0.7-1.2,1.4-1.2l3.5,0.3
			c0.8,0.1,1.2,0.7,1.2,1.4l0,0.6C316.4,74.2,315.7,74.7,315,74.7z"/>
	</g>
</g>
</svg>
