<?xml version="1.0" encoding="utf-8"?>
<!-- Generator: Adobe Illustrator 21.0.0, SVG Export Plug-In . SVG Version: 6.00 Build 0)  -->
<svg version="1.1" id="Слой_1" xmlns="http://www.w3.org/2000/svg" xmlns:xlink="http://www.w3.org/1999/xlink" x="0px" y="0px"
	 viewBox="0 0 389 157" style="enable-background:new 0 0 389 157;" xml:space="preserve">
<style type="text/css">
	.st0{display:none;}
	.st1{display:inline;}
	.st2{fill:#732A13;}
	.st3{fill:#6C151C;}
	.st4{fill:#F6C073;}
	.st5{fill:#F1A12E;}
	.st6{opacity:0.3;fill:#FBE0BA;enable-background:new    ;}
	.st7{fill:#6F4026;}
	.st8{fill:#F6C278;}
	.st9{fill:#AB1717;}
	.st10{fill:#5D9340;}
	.st11{fill:#9ECD68;}
	.st12{fill:#D0E7C2;}
	.st13{fill:#B6D99B;}
</style>
<g id="Слой_1_1_" class="st0">
	<g id="Layer_1" class="st1">
		<g>
			
				<ellipse transform="matrix(0.9998 -1.910981e-02 1.910981e-02 0.9998 -1.7337 3.9669)" class="st2" cx="206.7" cy="92.7" rx="175.1" ry="48.7"/>
			
				<ellipse transform="matrix(0.9998 -1.911609e-02 1.911609e-02 0.9998 -1.5262 3.9299)" class="st3" cx="204.8" cy="81.8" rx="161" ry="44.8"/>
			
				<ellipse transform="matrix(0.9998 -1.911946e-02 1.911946e-02 0.9998 -1.4442 3.9374)" class="st4" cx="205.2" cy="77.5" rx="158.3" ry="44.6"/>
			
				<ellipse transform="matrix(0.9998 -1.910410e-02 1.910410e-02 0.9998 -1.317 3.9311)" class="st5" cx="205.1" cy="70.9" rx="145.6" ry="32.3"/>
			
				<ellipse transform="matrix(0.9998 -1.911147e-02 1.911147e-02 0.9998 -1.3424 3.9329)" class="st5" cx="205.1" cy="72.2" rx="139.4" ry="30.9"/>
			<path class="st6" d="M204.5,41.3c-77,1.5-139.1,16.5-138.8,33.6s63,29.7,140,28.3c77-1.5,139.1-16.5,138.8-33.6
				S281.5,39.9,204.5,41.3z M76.5,69.9c-0.4-0.2-0.5-0.7-0.3-1.1c3.1-9.1,15.8-8,22.9-11.7c0.3-0.2,0.6-0.2,0.8-0.1
				c15-5,30.2-7.7,46.5-8.8c9-0.6,18.1-0.6,27.1-0.7c5.3-0.1,12.1-0.5,16.1,3.6c0.6,0.6-0.1,1.5-0.7,1.7c-8,3.7-17.1,2.5-25.7,3.3
				c-11,1-22.1,2.7-32.9,4.8c-10.9,2.1-22.2,3.3-33,6.1C90.6,68.8,83.3,72.4,76.5,69.9z M180.5,95.3c-6.8,1.8-14,1.7-21,1.7
				c-9.1,0-18.1-0.1-27.2,0c-5.6,0-12.9,0-17.3-4.1c-4.6-4.3-9.2-3.7-15-3.6c-4.6,0-17.9,0.3-17.1-7.4c0.6-5.4,10.5-7.5,14.4-8.5
				c8.1-2.1,16.5-3.3,24.8-4c3.8-0.3,7.4-0.5,11.1-1.1c0.1-0.1,0.3-0.2,0.4-0.2c12.3-2.4,24.7-4,37.2-4.6c8.1-0.4,22-1.8,22.4,9.6
				C193.7,82.5,190.7,92.5,180.5,95.3z M213.5,49.7c7-6.9,18.9-4.7,27.8-6c0.5-0.1,0.7,0.1,0.8,0.4c6,0,12.1,0.7,18.1,1.3
				c6.4,0.6,16.7,0.8,21.1,6.5c0.4,0.6,0.1,1.6-0.7,1.7c-12.9,3.4-25.5-0.7-38.5,0c-8.7,0.5-20.9,2.9-28.6-2.4
				C213,50.8,213,50.1,213.5,49.7z M261.1,84.1c-1.6,4.3-7.6,5.8-11.6,6.6c-7.1,1.4-14.7,2.8-21.8,3.4c-7,0.6-12.6-1.2-15.8-7.8
				c-1.4-3-6.8-16-3.7-20.4c0.1-0.1,0.2-0.3,0.3-0.4c0.4-0.4,0.9-0.7,1.6-0.9c2-0.8,4.1-0.6,6.5,0.2c5.2,1.6,10.6,2.4,15.9,3.9
				c7,1.9,14.2,4.3,20.9,7.3C256.2,77.1,262.7,79.8,261.1,84.1z M300.7,71.4c-4.1,5.6-14.6,4.6-20.5,4.1
				c-11.3-0.9-22.3-2.5-33.2-5.8c-3.7-1.1-18.2-3.5-18.9-8.4c-0.3-2.3,2.3-3.5,5.3-4.1c9.4-3.8,19.3,0,28.9,0.7
				c5.4,0.4,10.9,1.2,16.2,2.1C281.8,60.5,306.3,63.8,300.7,71.4z"/>
			<path class="st7" d="M38.5,90c0,0-6.8,2.4-0.1,15.3s86.2,37.6,160.7,32.7c0,0,51.9,0,52.2-4.1s-19.8-4.3-19.8-4.3
				s-23.5,0.7-33.8,0.8C187.5,130.4,54.8,131.5,38.5,90z"/>
			<path class="st8" d="M55.9,70.2c0,0-3.4-0.2-6.1,6.4c-2.7,6.6,7.9,22.9,55,33.2c47,10.3,115.1,12.6,150.4,6.2s18.1-15.1,0.9-12.8
				c-17.2,2.3-17.2,2.3-17.2,2.3S153,108.1,110,99.9C69.2,92.2,55.1,87.1,55.9,70.2z"/>
		</g>
	</g>
	<g id="Слой_3" class="st1">
		<path class="st9" d="M142.3,45.8c0,0,46.5-2,75.9-1.5c19.1,0.2,41.2-3.1,77.1,5.1c17.5,3.8,28.6,7.5,34.6,10.6
			c3.6,1.9,6,5.6,5.9,9.7c-0.1,6.2-6.3,15.6-56.8,26c-49.7,4.8-55.4,4.6-77.4,3.8c-24.5,0.9-52.2,3.2-76.1-2.4
			c-26.9-5.6-68.6-13.4-56.1-25.5C77.3,64.7,87.5,54.1,142.3,45.8z"/>
	</g>
</g>
<g id="Слой_2">
	<g>
		<path class="st10" d="M107.9,68.5c1.6,2.4,0.5,5.8-2.3,7.3c-1.3,0.7-2.9,1.2-4.4,1.3c-1.9,0.1-3.7-0.1-5.2-0.9
			c-1.7-0.9-3.2-3.4-2.2-5.3c0.6-1.1,1.7-2.7,3-3.3c2.1-1.1,4.6-1.7,6.8-1.6C105.2,66.1,106.9,67.1,107.9,68.5z"/>
		<path class="st11" d="M108.5,71.1c-0.1,3.8-4,5.6-7.6,5.8c-1.7,0.1-3.6-0.1-4.9-1c-2.2-1.5-3.4-3.9-1.3-6.4c1.7-2,4.8-3.2,7.4-3.4
			C105.3,65.9,108.5,67.9,108.5,71.1z"/>
		<path class="st12" d="M107.9,70c0.1,0.5,0.2,1.3,0,1.9c-0.4,1.4-1.5,2.6-2.8,3.5c-2.2,1.4-6.4,1.6-8.7,0.6
			c-0.8-0.3-1.5-1.1-1.9-1.8c-0.6-1-0.6-2.4-0.2-3.6c0.8-2.2,4.5-3.2,6.6-3.4C103.8,66.8,107.2,67,107.9,70z"/>
		<path class="st13" d="M105.1,69.6c-0.1-0.3-0.3-0.7-0.5-0.9c-0.1-0.2-0.4-0.2-0.6-0.1c-0.3,0.1-0.4,0.4-0.3,0.6
			c0.1,0.4,0.4,0.7,0.7,0.9C104.8,70.4,105.2,70,105.1,69.6L105.1,69.6z"/>
		<path class="st13" d="M104.9,70.8c-0.3,0.2-0.4,0.6-0.5,0.9c-0.1,0.4-0.1,0.8-0.1,1.1c0,0.6,1,0.6,1.2,0.1c0.1-0.3,0.1-0.6,0.1-1
			c0-0.3,0.1-0.6,0-0.9C105.5,70.8,105.2,70.6,104.9,70.8L104.9,70.8z"/>
		<path class="st13" d="M103.6,70.5c0-0.2,0-0.3,0-0.4c0-0.2-0.2-0.4-0.3-0.5c-0.3-0.3-0.7-0.5-1.2-0.4c-0.4,0.1-0.5,0.7-0.1,0.8
			c0.2,0.1,0.4,0.2,0.6,0.3c0.1,0.1,0.2,0.1,0.2,0.2c0.1,0.1,0.2,0.1,0.3,0.2C103.3,70.7,103.6,70.6,103.6,70.5L103.6,70.5z"/>
		<path class="st13" d="M103.2,71.3c-0.5,0.1-0.8,0.6-0.9,1c-0.1,0.3-0.2,0.9,0.2,1.1c0.1,0.1,0.3,0.1,0.4,0
			c0.3-0.2,0.3-0.6,0.4-0.8c0-0.1,0-0.3,0.1-0.4s0.2-0.2,0.2-0.4C103.7,71.4,103.5,71.2,103.2,71.3L103.2,71.3z"/>
		<path class="st13" d="M102.1,70.9c0-0.3-0.4-0.7-0.7-0.9c-0.2-0.2-0.7-0.5-0.9-0.2c-0.5,0.4,0.6,1.4,1,1.5
			C101.8,71.5,102.1,71.2,102.1,70.9L102.1,70.9z"/>
		<path class="st13" d="M101.5,72c-0.3,0-0.8,0.1-0.9,0.3c-0.2,0.3-0.1,0.5,0.3,0.6c0.3,0,0.7-0.2,0.9-0.5
			C101.8,72.2,101.7,72,101.5,72L101.5,72z"/>
		<path class="st13" d="M100.3,71.1c0.1-0.4-0.1-0.7-0.4-1s-0.6-0.6-1.2-0.5c-0.3,0.1-0.4,0.4-0.4,0.6c0,0.4,0.4,0.5,0.7,0.7
			c0.2,0.2,0.5,0.4,0.8,0.4C100,71.4,100.2,71.3,100.3,71.1L100.3,71.1z"/>
		<path class="st13" d="M99.6,72.1C99,71.9,98,72.5,98,73.2c0,0.2,0.3,0.4,0.5,0.4c0.3,0,0.6-0.2,0.7-0.5c0.2-0.2,0.3-0.4,0.4-0.7
			C99.8,72.3,99.7,72.2,99.6,72.1L99.6,72.1z"/>
		<path class="st13" d="M98,71.6c-0.1,0-0.4,0-0.6,0s-0.5,0.1-0.7,0.3c-0.2,0.2-0.1,0.5,0.2,0.6c0.2,0.1,0.5,0,0.6-0.1
			s0.3-0.2,0.5-0.3C98.2,71.9,98.2,71.6,98,71.6L98,71.6z"/>
	</g>
	<g>
		<path class="st10" d="M150.2,81.6c1.8,2.8,0.8,6.5-2,8.1c-1.3,0.7-2.9,1.2-4.4,1.2c-1.9,0.1-3.8-0.3-5.4-1.3c-1.8-1-3.4-3.9-2.5-6
			c0.5-1.2,1.6-3,2.9-3.6c2.1-1.1,4.6-1.7,6.9-1.4C147.4,78.8,149.2,80,150.2,81.6z"/>
		<path class="st11" d="M151,84.6c0.1,4.2-3.8,6-7.5,6.1c-1.7,0-3.6-0.3-5.1-1.3c-2.4-1.8-3.7-4.6-1.7-7.2c1.6-2.2,4.7-3.3,7.4-3.4
			C147.5,78.6,150.9,80.9,151,84.6z"/>
		<path class="st12" d="M150.3,83.2c0.2,0.6,0.3,1.5,0.1,2.1c-0.4,1.5-1.4,2.9-2.6,3.7c-2.2,1.5-6.5,1.5-8.8,0.3
			c-0.9-0.4-1.6-1.3-2-2.1c-0.6-1.2-0.7-2.7-0.4-4c0.7-2.4,4.5-3.3,6.6-3.5C146,79.5,149.4,79.9,150.3,83.2z"/>
		<path class="st13" d="M147.5,82.8c-0.1-0.4-0.3-0.7-0.5-1.1c-0.1-0.2-0.4-0.2-0.6-0.2c-0.3,0.1-0.4,0.4-0.3,0.7
			c0.1,0.4,0.5,0.8,0.8,1C147.2,83.5,147.6,83.1,147.5,82.8L147.5,82.8z"/>
		<path class="st13" d="M147.3,84.1c-0.3,0.3-0.4,0.6-0.5,1s-0.1,0.8-0.1,1.2c0,0.6,1,0.7,1.2,0.2c0.1-0.3,0.1-0.7,0.1-1.1
			c0-0.3,0-0.7,0-1C148,84,147.6,83.8,147.3,84.1L147.3,84.1z"/>
		<path class="st13" d="M146,83.6c0-0.2,0-0.3,0-0.5s-0.2-0.5-0.3-0.6c-0.3-0.4-0.7-0.6-1.2-0.5c-0.4,0.1-0.4,0.7-0.1,0.9
			c0.2,0.1,0.4,0.2,0.6,0.3c0.1,0.1,0.2,0.1,0.3,0.2s0.3,0.1,0.3,0.2C145.7,83.9,146,83.8,146,83.6L146,83.6z"/>
		<path class="st13" d="M145.6,84.5c-0.5,0-0.7,0.6-0.9,1c-0.1,0.4-0.1,1,0.3,1.3c0.1,0.1,0.3,0.1,0.4,0c0.3-0.2,0.3-0.6,0.3-0.9
			c0-0.1,0-0.3,0.1-0.4c0.1-0.2,0.2-0.2,0.2-0.4C146.1,84.7,145.9,84.4,145.6,84.5L145.6,84.5z"/>
		<path class="st13" d="M144.5,84c0-0.4-0.5-0.8-0.7-1s-0.7-0.5-1-0.3c-0.5,0.4,0.6,1.6,1.1,1.8C144.2,84.7,144.5,84.4,144.5,84
			L144.5,84z"/>
		<path class="st13" d="M143.9,85.1c-0.3-0.1-0.8,0-1,0.3s0,0.6,0.3,0.7s0.7-0.2,0.9-0.5C144.3,85.5,144.1,85.2,143.9,85.1
			L143.9,85.1z"/>
		<path class="st13" d="M142.6,84.2c0.1-0.4-0.1-0.8-0.4-1.1c-0.3-0.4-0.7-0.7-1.2-0.6c-0.3,0.1-0.4,0.4-0.4,0.6
			c0,0.4,0.4,0.6,0.7,0.8c0.2,0.2,0.5,0.5,0.8,0.5C142.4,84.4,142.6,84.4,142.6,84.2L142.6,84.2z"/>
		<path class="st13" d="M141.9,85.3c-0.7-0.3-1.6,0.4-1.5,1.1c0,0.3,0.3,0.5,0.6,0.4c0.3,0,0.6-0.2,0.7-0.5c0.2-0.2,0.3-0.4,0.4-0.7
			C142.1,85.4,142,85.3,141.9,85.3L141.9,85.3z"/>
		<path class="st13" d="M140.3,84.5c-0.2-0.1-0.4-0.1-0.6-0.1c-0.2,0-0.5,0.1-0.7,0.3c-0.2,0.2,0,0.5,0.2,0.6s0.5,0,0.6-0.1
			s0.3-0.2,0.5-0.3C140.5,84.9,140.5,84.6,140.3,84.5L140.3,84.5z"/>
	</g>
	<g>
		<path class="st10" d="M187.5,53.4c1.1,1.6,0.5,3.8-1.2,4.8c-0.8,0.4-1.7,0.7-2.6,0.7c-1.1,0-2.2-0.2-3.2-0.7
			c-1.1-0.6-2-2.3-1.5-3.5c0.3-0.7,1-1.7,1.7-2.1c1.2-0.6,2.7-1,4.1-0.8C185.8,51.7,186.9,52.4,187.5,53.4z"/>
		<path class="st11" d="M187.9,55.1c0,2.5-2.2,3.6-4.4,3.6c-1,0-2.2-0.2-3-0.8c-1.4-1.1-2.2-2.7-1-4.2c1-1.3,2.8-2,4.3-2
			C185.9,51.6,187.9,53,187.9,55.1z"/>
		<path class="st12" d="M187.5,54.4c0.1,0.4,0.2,0.9,0.1,1.2c-0.2,0.9-0.8,1.7-1.6,2.2c-1.3,0.9-3.8,0.9-5.2,0.2
			c-0.5-0.3-0.9-0.8-1.2-1.2c-0.4-0.7-0.4-1.6-0.2-2.3c0.4-1.4,2.6-2,3.9-2.1C185,52.1,187,52.4,187.5,54.4z"/>
		<path class="st13" d="M185.9,54.1c-0.1-0.2-0.2-0.4-0.3-0.6c-0.1-0.1-0.2-0.1-0.4-0.1c-0.2,0.1-0.2,0.2-0.2,0.4
			c0.1,0.2,0.3,0.4,0.5,0.6C185.7,54.5,186,54.3,185.9,54.1L185.9,54.1z"/>
		<path class="st13" d="M185.8,54.8c-0.2,0.2-0.2,0.4-0.3,0.6c0,0.2-0.1,0.5,0,0.7c0,0.4,0.6,0.4,0.7,0.1c0.1-0.2,0-0.4,0-0.6
			c0-0.2,0-0.4,0-0.6C186.2,54.8,185.9,54.7,185.8,54.8L185.8,54.8z"/>
		<path class="st13" d="M185,54.6c0-0.1,0-0.2,0-0.3s-0.1-0.3-0.2-0.4c-0.2-0.2-0.4-0.3-0.7-0.3c-0.2,0.1-0.3,0.4-0.1,0.5
			c0.1,0.1,0.2,0.1,0.4,0.2c0.1,0,0.1,0.1,0.2,0.1c0,0.1,0.1,0.1,0.2,0.1C184.8,54.7,185,54.7,185,54.6L185,54.6z"/>
		<path class="st13" d="M184.8,55.1c-0.3,0-0.4,0.4-0.5,0.6c-0.1,0.2-0.1,0.6,0.1,0.8c0.1,0,0.2,0.1,0.2,0c0.1-0.1,0.2-0.4,0.2-0.5
			s0-0.2,0.1-0.3c0-0.1,0.1-0.1,0.1-0.2C185.1,55.2,184.9,55,184.8,55.1L184.8,55.1z"/>
		<path class="st13" d="M184.1,54.8c0-0.2-0.3-0.5-0.4-0.6c-0.1-0.1-0.4-0.3-0.6-0.2c-0.3,0.3,0.4,1,0.6,1
			C183.9,55.2,184.1,55,184.1,54.8L184.1,54.8z"/>
		<path class="st13" d="M183.7,55.5c-0.2,0-0.5,0-0.6,0.2s0,0.4,0.2,0.4s0.4-0.1,0.5-0.3C184,55.7,183.9,55.5,183.7,55.5L183.7,55.5
			z"/>
		<path class="st13" d="M183,54.9c0.1-0.3-0.1-0.5-0.3-0.7s-0.4-0.4-0.7-0.3c-0.2,0-0.2,0.2-0.2,0.4s0.2,0.3,0.4,0.5
			c0.1,0.1,0.3,0.3,0.5,0.3C182.9,55.1,183,55,183,54.9L183,54.9z"/>
		<path class="st13" d="M182.6,55.5c-0.4-0.2-1,0.2-0.9,0.7c0,0.2,0.2,0.3,0.3,0.3c0.2,0,0.3-0.1,0.4-0.3c0.1-0.1,0.2-0.3,0.2-0.4
			C182.7,55.6,182.7,55.6,182.6,55.5L182.6,55.5z"/>
		<path class="st13" d="M181.6,55.1c-0.1,0-0.2,0-0.3,0s-0.3,0.1-0.4,0.2c-0.1,0.1,0,0.3,0.1,0.4c0.1,0.1,0.3,0,0.4,0
			c0.1,0,0.2-0.1,0.3-0.2C181.8,55.3,181.8,55.2,181.6,55.1L181.6,55.1z"/>
	</g>
	<g>
		<path class="st10" d="M226.9,70.8c1.5,2.3,0.7,5.5-1.7,6.8c-1.1,0.6-2.4,1-3.7,1c-1.6,0-3.2-0.2-4.6-1.1c-1.5-0.9-2.9-3.3-2.1-5.1
			c0.4-1,1.4-2.5,2.4-3c1.7-0.9,3.8-1.4,5.8-1.2C224.5,68.5,226,69.5,226.9,70.8z"/>
		<path class="st11" d="M227.5,73.3c0.1,3.5-3.2,5.1-6.3,5.2c-1.5,0-3.1-0.2-4.3-1.1c-2-1.5-3.1-3.8-1.4-6.1c1.4-1.9,4-2.8,6.2-2.9
			C224.6,68.3,227.4,70.3,227.5,73.3z"/>
		<path class="st12" d="M226.9,72.2c0.1,0.5,0.2,1.3,0.1,1.8c-0.3,1.3-1.2,2.4-2.2,3.1c-1.8,1.2-5.5,1.3-7.4,0.2
			c-0.7-0.4-1.3-1.1-1.7-1.8c-0.5-1-0.6-2.3-0.3-3.4c0.6-2.1,3.8-2.8,5.6-2.9C223.3,69.1,226.2,69.4,226.9,72.2z"/>
		<path class="st13" d="M224.6,71.8c-0.1-0.3-0.3-0.6-0.5-0.9c-0.1-0.2-0.3-0.2-0.5-0.1s-0.3,0.3-0.2,0.6c0.1,0.3,0.4,0.6,0.7,0.9
			C224.3,72.5,224.7,72.1,224.6,71.8L224.6,71.8z"/>
		<path class="st13" d="M224.4,72.9c-0.3,0.2-0.3,0.5-0.4,0.8c-0.1,0.3-0.1,0.7,0,1c0,0.5,0.9,0.6,1,0.1c0.1-0.3,0.1-0.6,0.1-0.9
			s0-0.6,0-0.8C225,72.9,224.6,72.7,224.4,72.9L224.4,72.9z"/>
		<path class="st13" d="M223.3,72.5c0-0.1,0-0.2,0-0.4c0-0.2-0.2-0.4-0.3-0.5c-0.2-0.3-0.6-0.5-1-0.4c-0.3,0.1-0.4,0.6-0.1,0.8
			c0.2,0.1,0.4,0.2,0.5,0.3c0.1,0.1,0.2,0.1,0.2,0.2c0.1,0.1,0.2,0.1,0.3,0.2C223.1,72.8,223.3,72.7,223.3,72.5L223.3,72.5z"/>
		<path class="st13" d="M223,73.3c-0.4,0-0.6,0.5-0.7,0.9c-0.1,0.3-0.1,0.9,0.2,1.1c0.1,0.1,0.2,0.1,0.4,0c0.2-0.2,0.2-0.5,0.3-0.8
			c0-0.1,0-0.3,0.1-0.4s0.2-0.2,0.2-0.4C223.4,73.5,223.2,73.2,223,73.3L223,73.3z"/>
		<path class="st13" d="M222,72.9c0-0.3-0.4-0.6-0.6-0.8c-0.2-0.2-0.6-0.5-0.8-0.3c-0.4,0.4,0.5,1.4,0.9,1.5
			C221.8,73.4,222,73.2,222,72.9L222,72.9z"/>
		<path class="st13" d="M221.5,73.8c-0.3-0.1-0.7,0-0.8,0.3c-0.1,0.2,0,0.5,0.2,0.6c0.3,0.1,0.6-0.2,0.8-0.4
			C221.8,74.1,221.7,73.9,221.5,73.8L221.5,73.8z"/>
		<path class="st13" d="M220.4,73c0.1-0.4-0.1-0.7-0.4-0.9c-0.3-0.3-0.6-0.6-1-0.5c-0.2,0.1-0.3,0.3-0.3,0.5c0,0.3,0.3,0.5,0.6,0.7
			c0.2,0.2,0.4,0.4,0.7,0.4C220.2,73.3,220.4,73.2,220.4,73L220.4,73z"/>
		<path class="st13" d="M219.9,73.9c-0.6-0.3-1.4,0.3-1.3,0.9c0,0.2,0.3,0.4,0.5,0.4c0.3,0,0.5-0.2,0.6-0.4c0.2-0.2,0.3-0.4,0.3-0.6
			C220,74.1,220,74,219.9,73.9L219.9,73.9z"/>
		<path class="st13" d="M218.5,73.3c-0.1-0.1-0.3,0-0.5,0s-0.4,0.1-0.6,0.2c-0.2,0.2,0,0.4,0.2,0.5s0.4,0,0.5-0.1s0.3-0.2,0.4-0.2
			C218.7,73.6,218.7,73.4,218.5,73.3L218.5,73.3z"/>
	</g>
	<g>
		<path class="st10" d="M299.1,80.4c1.8,2.8,0.8,6.5-2,8.1c-1.3,0.7-2.9,1.2-4.4,1.2c-1.9,0.1-3.8-0.3-5.4-1.3c-1.8-1-3.4-3.9-2.5-6
			c0.5-1.2,1.6-3,2.9-3.6c2.1-1.1,4.6-1.7,6.9-1.4C296.3,77.5,298,78.8,299.1,80.4z"/>
		<path class="st11" d="M299.8,83.3c0.1,4.2-3.8,6-7.5,6.1c-1.7,0-3.6-0.3-5.1-1.3c-2.4-1.8-3.7-4.6-1.7-7.2
			c1.6-2.2,4.7-3.3,7.4-3.4C296.4,77.4,299.7,79.7,299.8,83.3z"/>
		<path class="st12" d="M299.2,82c0.2,0.6,0.3,1.5,0.1,2.1c-0.4,1.5-1.4,2.9-2.6,3.7c-2.2,1.5-6.5,1.5-8.8,0.3
			c-0.9-0.4-1.6-1.3-2-2.1c-0.6-1.2-0.7-2.7-0.4-4c0.7-2.4,4.5-3.3,6.6-3.5C294.9,78.3,298.3,78.7,299.2,82z"/>
		<path class="st13" d="M296.4,81.5c-0.1-0.4-0.3-0.7-0.5-1.1c-0.1-0.2-0.4-0.2-0.6-0.2c-0.3,0.1-0.4,0.4-0.3,0.7
			c0.1,0.4,0.5,0.8,0.8,1C296.1,82.3,296.5,81.9,296.4,81.5L296.4,81.5z"/>
		<path class="st13" d="M296.2,82.8c-0.3,0.3-0.4,0.6-0.5,1s-0.1,0.8-0.1,1.2c0,0.6,1,0.7,1.2,0.2c0.1-0.3,0.1-0.7,0.1-1.1
			c0-0.3,0-0.7,0-1C296.8,82.8,296.4,82.6,296.2,82.8L296.2,82.8z"/>
		<path class="st13" d="M294.9,82.4c0-0.2,0-0.3,0-0.5s-0.2-0.5-0.3-0.6c-0.3-0.4-0.7-0.6-1.2-0.5c-0.4,0.1-0.4,0.7-0.1,0.9
			c0.2,0.1,0.4,0.2,0.6,0.3c0.1,0.1,0.2,0.1,0.3,0.2c0.1,0.1,0.3,0.1,0.3,0.2C294.6,82.7,294.9,82.5,294.9,82.4L294.9,82.4z"/>
		<path class="st13" d="M294.4,83.2c-0.5,0-0.7,0.6-0.9,1c-0.1,0.4-0.1,1,0.3,1.3c0.1,0.1,0.3,0.1,0.4,0c0.3-0.2,0.3-0.6,0.3-0.9
			c0-0.1,0-0.3,0.1-0.4c0.1-0.2,0.2-0.2,0.2-0.4C295,83.5,294.8,83.2,294.4,83.2L294.4,83.2z"/>
		<path class="st13" d="M293.3,82.8c0-0.4-0.5-0.8-0.7-1s-0.7-0.5-1-0.3c-0.5,0.4,0.6,1.6,1.1,1.8C293.1,83.4,293.4,83.1,293.3,82.8
			L293.3,82.8z"/>
		<path class="st13" d="M292.7,83.9c-0.3-0.1-0.8,0-1,0.3s0,0.6,0.3,0.7s0.7-0.2,0.9-0.5C293.1,84.3,293,84,292.7,83.9L292.7,83.9z"
			/>
		<path class="st13" d="M291.5,82.9c0.1-0.4-0.1-0.8-0.4-1.1c-0.3-0.4-0.7-0.7-1.2-0.6c-0.3,0.1-0.4,0.4-0.4,0.6
			c0,0.4,0.4,0.6,0.7,0.8c0.2,0.2,0.5,0.5,0.8,0.5C291.2,83.2,291.4,83.1,291.5,82.9L291.5,82.9z"/>
		<path class="st13" d="M290.8,84c-0.7-0.3-1.6,0.4-1.5,1.1c0,0.3,0.3,0.5,0.6,0.4c0.3,0,0.6-0.2,0.7-0.5c0.2-0.2,0.3-0.4,0.4-0.7
			C291,84.2,290.9,84.1,290.8,84L290.8,84z"/>
		<path class="st13" d="M289.1,83.3c-0.2-0.1-0.4-0.1-0.6-0.1s-0.5,0.1-0.7,0.3c-0.2,0.2,0,0.5,0.2,0.6s0.5,0,0.6-0.1
			s0.3-0.2,0.5-0.3C289.4,83.7,289.4,83.4,289.1,83.3L289.1,83.3z"/>
	</g>
	<g>
		<path class="st10" d="M271.7,57.4c1.5,2.3,0.7,5.4-1.7,6.8c-1.1,0.6-2.4,1-3.7,1c-1.6,0-3.2-0.2-4.5-1.1c-1.5-0.9-2.9-3.3-2.1-5
			c0.4-1,1.4-2.5,2.4-3c1.7-0.9,3.8-1.4,5.8-1.2C269.3,55,270.8,56,271.7,57.4z"/>
		<path class="st11" d="M272.3,59.9c0.1,3.5-3.2,5.1-6.3,5.2c-1.5,0-3.1-0.2-4.2-1.1c-2-1.5-3.1-3.8-1.4-6.1
			c1.4-1.8,3.9-2.8,6.2-2.9C269.4,54.9,272.2,56.8,272.3,59.9z"/>
		<path class="st12" d="M271.7,58.8c0.1,0.5,0.2,1.2,0.1,1.7c-0.3,1.3-1.2,2.4-2.2,3.1c-1.8,1.2-5.4,1.3-7.4,0.2
			c-0.7-0.4-1.3-1.1-1.7-1.8c-0.5-1-0.6-2.3-0.3-3.3c0.6-2.1,3.7-2.8,5.5-2.9C268.1,55.6,271,56,271.7,58.8z"/>
		<path class="st13" d="M269.4,58.4c-0.1-0.3-0.3-0.6-0.5-0.9c-0.1-0.2-0.3-0.2-0.5-0.1c-0.2,0.1-0.3,0.3-0.2,0.6
			c0.1,0.3,0.4,0.6,0.7,0.9C269.1,59,269.5,58.7,269.4,58.4L269.4,58.4z"/>
		<path class="st13" d="M269.2,59.5c-0.3,0.2-0.3,0.5-0.4,0.8s-0.1,0.7,0,1c0,0.5,0.9,0.6,1,0.1c0.1-0.3,0.1-0.6,0.1-0.9
			c0-0.3,0-0.6,0-0.8C269.7,59.4,269.4,59.3,269.2,59.5L269.2,59.5z"/>
		<path class="st13" d="M268.1,59.1c0-0.1,0-0.2,0-0.4s-0.2-0.4-0.3-0.5c-0.2-0.3-0.6-0.5-1-0.4c-0.3,0.1-0.4,0.6-0.1,0.8
			c0.2,0.1,0.4,0.2,0.5,0.3s0.2,0.1,0.2,0.2c0.1,0.1,0.2,0.1,0.3,0.2C267.9,59.3,268.1,59.2,268.1,59.1L268.1,59.1z"/>
		<path class="st13" d="M267.8,59.8c-0.4,0-0.6,0.5-0.7,0.9c-0.1,0.3-0.1,0.9,0.2,1.1c0.1,0.1,0.2,0.1,0.3,0
			c0.2-0.2,0.2-0.5,0.3-0.8c0-0.1,0-0.3,0.1-0.4c0.1-0.1,0.2-0.2,0.2-0.4C268.2,60,268,59.7,267.8,59.8L267.8,59.8z"/>
		<path class="st13" d="M266.8,59.4c0-0.3-0.4-0.6-0.6-0.8s-0.6-0.5-0.8-0.3c-0.4,0.4,0.5,1.4,0.9,1.5
			C266.6,60,266.8,59.7,266.8,59.4L266.8,59.4z"/>
		<path class="st13" d="M266.3,60.4c-0.3-0.1-0.7,0-0.8,0.3c-0.1,0.2,0,0.5,0.2,0.6s0.6-0.2,0.7-0.4
			C266.6,60.7,266.5,60.4,266.3,60.4L266.3,60.4z"/>
		<path class="st13" d="M265.3,59.6c0.1-0.4-0.1-0.7-0.4-0.9c-0.3-0.3-0.6-0.6-1-0.5c-0.2,0.1-0.3,0.3-0.3,0.5
			c0,0.3,0.3,0.5,0.6,0.7c0.2,0.2,0.4,0.4,0.7,0.4C265,59.8,265.2,59.7,265.3,59.6L265.3,59.6z"/>
		<path class="st13" d="M264.7,60.5c-0.6-0.3-1.4,0.3-1.3,0.9c0,0.2,0.3,0.4,0.5,0.4c0.3,0,0.5-0.2,0.6-0.4c0.2-0.2,0.3-0.4,0.3-0.6
			C264.9,60.6,264.8,60.5,264.7,60.5L264.7,60.5z"/>
		<path class="st13" d="M263.3,59.9c-0.1-0.1-0.3,0-0.5,0s-0.4,0.1-0.6,0.2c-0.2,0.2,0,0.4,0.2,0.5s0.4,0,0.5-0.1s0.3-0.2,0.4-0.2
			C263.5,60.2,263.5,59.9,263.3,59.9L263.3,59.9z"/>
	</g>
</g>
</svg>
