<?xml version="1.0" encoding="utf-8"?>
<!-- Generator: Adobe Illustrator 21.0.0, SVG Export Plug-In . SVG Version: 6.00 Build 0)  -->
<svg version="1.1" xmlns="http://www.w3.org/2000/svg" xmlns:xlink="http://www.w3.org/1999/xlink" x="0px" y="0px"
	 viewBox="0 0 389 157" style="enable-background:new 0 0 389 157;" xml:space="preserve">
<style type="text/css">
	.st0{display:none;}
	.st1{display:inline;}
	.st2{fill:#732A13;}
	.st3{fill:#6C151C;}
	.st4{fill:#F6C073;}
	.st5{fill:#F1A12E;}
	.st6{opacity:0.3;fill:#FBE0BA;enable-background:new    ;}
	.st7{fill:#6F4026;}
	.st8{fill:#F6C278;}
	.st9{fill:#AB1717;}
	.st10{fill:#EAB071;}
	.st11{fill:#AF3535;}
	.st12{fill:#F93838;}
	.st13{opacity:0.7;fill:#F2BFB1;enable-background:new    ;}
</style>
<g id="Слой_1" class="st0">
	<g id="Layer_1" class="st1">
		<g>
			
				<ellipse transform="matrix(0.9998 -1.910948e-02 1.910948e-02 0.9998 -1.7337 3.9668)" class="st2" cx="206.7" cy="92.7" rx="175.1" ry="48.7"/>
			
				<ellipse transform="matrix(0.9998 -1.911576e-02 1.911576e-02 0.9998 -1.5262 3.9298)" class="st3" cx="204.8" cy="81.8" rx="161" ry="44.8"/>
			
				<ellipse transform="matrix(0.9998 -1.911913e-02 1.911913e-02 0.9998 -1.4442 3.9373)" class="st4" cx="205.2" cy="77.5" rx="158.3" ry="44.6"/>
			
				<ellipse transform="matrix(0.9998 -1.910377e-02 1.910377e-02 0.9998 -1.317 3.9311)" class="st5" cx="205.1" cy="70.9" rx="145.6" ry="32.3"/>
			
				<ellipse transform="matrix(0.9998 -1.911114e-02 1.911114e-02 0.9998 -1.3424 3.9328)" class="st5" cx="205.1" cy="72.2" rx="139.4" ry="30.9"/>
			<path class="st6" d="M204.5,41.3c-77,1.5-139.1,16.5-138.8,33.6s63,29.7,140,28.3c77-1.5,139.1-16.5,138.8-33.6
				S281.5,39.9,204.5,41.3z M76.5,69.9c-0.4-0.2-0.5-0.7-0.3-1.1c3.1-9.1,15.8-8,22.9-11.7c0.3-0.2,0.6-0.2,0.8-0.1
				c15-5,30.2-7.7,46.5-8.8c9-0.6,18.1-0.6,27.1-0.7c5.3-0.1,12.1-0.5,16.1,3.6c0.6,0.6-0.1,1.5-0.7,1.7c-8,3.7-17.1,2.5-25.7,3.3
				c-11,1-22.1,2.7-32.9,4.8c-10.9,2.1-22.2,3.3-33,6.1C90.6,68.8,83.3,72.4,76.5,69.9z M180.5,95.3c-6.8,1.8-14,1.7-21,1.7
				c-9.1,0-18.1-0.1-27.2,0c-5.6,0-12.9,0-17.3-4.1c-4.6-4.3-9.2-3.7-15-3.6c-4.6,0-17.9,0.3-17.1-7.4c0.6-5.4,10.5-7.5,14.4-8.5
				c8.1-2.1,16.5-3.3,24.8-4c3.8-0.3,7.4-0.5,11.1-1.1c0.1-0.1,0.3-0.2,0.4-0.2c12.3-2.4,24.7-4,37.2-4.6c8.1-0.4,22-1.8,22.4,9.6
				C193.7,82.5,190.7,92.5,180.5,95.3z M213.5,49.7c7-6.9,18.9-4.7,27.8-6c0.5-0.1,0.7,0.1,0.8,0.4c6,0,12.1,0.7,18.1,1.3
				c6.4,0.6,16.7,0.8,21.1,6.5c0.4,0.6,0.1,1.6-0.7,1.7c-12.9,3.4-25.5-0.7-38.5,0c-8.7,0.5-20.9,2.9-28.6-2.4
				C213,50.8,213,50.1,213.5,49.7z M261.1,84.1c-1.6,4.3-7.6,5.8-11.6,6.6c-7.1,1.4-14.7,2.8-21.8,3.4c-7,0.6-12.6-1.2-15.8-7.8
				c-1.4-3-6.8-16-3.7-20.4c0.1-0.1,0.2-0.3,0.3-0.4c0.4-0.4,0.9-0.7,1.6-0.9c2-0.8,4.1-0.6,6.5,0.2c5.2,1.6,10.6,2.4,15.9,3.9
				c7,1.9,14.2,4.3,20.9,7.3C256.2,77.1,262.7,79.8,261.1,84.1z M300.7,71.4c-4.1,5.6-14.6,4.6-20.5,4.1
				c-11.3-0.9-22.3-2.5-33.2-5.8c-3.7-1.1-18.2-3.5-18.9-8.4c-0.3-2.3,2.3-3.5,5.3-4.1c9.4-3.8,19.3,0,28.9,0.7
				c5.4,0.4,10.9,1.2,16.2,2.1C281.8,60.5,306.3,63.8,300.7,71.4z"/>
			<path class="st7" d="M38.5,90c0,0-6.8,2.4-0.1,15.3s86.2,37.6,160.7,32.7c0,0,51.9,0,52.2-4.1s-19.8-4.3-19.8-4.3
				s-23.5,0.7-33.8,0.8C187.5,130.4,54.8,131.5,38.5,90z"/>
			<path class="st8" d="M55.9,70.2c0,0-3.4-0.2-6.1,6.4c-2.7,6.6,7.9,22.9,55,33.2c47,10.3,115.1,12.6,150.4,6.2s18.1-15.1,0.9-12.8
				c-17.2,2.3-17.2,2.3-17.2,2.3S153,108.1,110,99.9C69.2,92.2,55.1,87.1,55.9,70.2z"/>
		</g>
	</g>
	<g id="Слой_3" class="st1">
		<path class="st9" d="M145.6,45.9c0,0,46.5-2,75.9-1.5c19.1,0.2,41.2-3.1,77.1,5.1c17.5,3.8,28.6,7.5,34.6,10.6
			c3.6,1.9,6,5.6,5.9,9.7c-0.1,6.2-6.3,15.6-56.8,26c-49.7,4.8-55.4,4.6-77.4,3.8c-24.5,0.9-52.2,3.2-76.1-2.4
			c-26.9-5.6-68.6-13.4-56.1-25.5C80.6,64.8,90.8,54.2,145.6,45.9z"/>
	</g>
</g>
<g id="Слой_2">
	<g>
		<path class="st10" d="M179.5,93.6c0.5,1.8,2.9,2.1,4.7,2.2c9.3,0.1,18.6,0.3,27.6-2c1-0.3,1.9-0.5,2.7-1.1
			c0.8-0.6,1.3-1.6,1.2-2.5c0-0.1-0.2-1.4-0.2-1.5c-0.4-1.3-1.8-0.7-3.1-1.1c-7-1.8-14.4-0.2-21.7,0.6c-2.2,0.2-10.3-0.3-11.6,3
			C178.9,91.6,179.2,92.8,179.5,93.6z"/>
		<path class="st11" d="M179.3,92.2c0.5,1.8,2.9,2.1,4.7,2.2c9.3,0.1,18.6,0.3,27.6-2c1-0.3,1.9-0.5,2.7-1.1
			c0.8-0.6,1.3-1.6,1.2-2.5c-0.2-1.5-1.9-2.2-3.3-2.6c-7-1.8-14.4-0.2-21.7,0.6C188,86.9,177.7,87,179.3,92.2z"/>
		<path class="st12" d="M212.1,86c-7-1.8-14.4-0.2-21.7,0.6c-2.5,0.3-12.9,0.3-11.2,5.6c0.5,1.8,2.9,2.1,4.7,2.2
			c1.4,0,2.8,0,4.3,0.1c0-0.6,0.4-1.1,0.7-1.5c2-2.3,5.1-3.4,8-4.2c3.1-0.8,6.3-1.4,9.5-1.8c2.3-0.3,4.7-0.5,7.1-0.4
			C213,86.3,212.6,86.1,212.1,86z"/>
		<path class="st13" d="M183.1,91c0.2,0.2,0.5,0.1,0.8,0.1c0.5-0.1,1-0.3,1.4-0.5c0.2-0.1,0.4-0.2,0.4-0.3c0.1-0.2,0.2-0.4,0.1-0.5
			c-0.1-0.2-0.4-0.2-0.5-0.2C184.9,89.6,181.9,90.3,183.1,91z"/>
		<path class="st13" d="M194.1,93.4c0.1,0.1,0.3,0.1,0.4,0.1c1,0.1,2,0.1,2.8-0.5c0.1,0,0.1-0.1,0.1-0.2c0.1-0.1,0-0.3-0.2-0.3
			s-0.3-0.1-0.4-0.1c-0.7,0-1.5,0-2.2,0.1C194.4,92.6,193.4,93,194.1,93.4z"/>
		<path class="st13" d="M206.5,89.7c0.2,0.2,0.5,0.2,0.8,0.1c0.7-0.3,1.2-0.8,1.7-1.4c0.7-1-0.2-2-1.1-1.2
			C207.4,87.5,206.2,89.3,206.5,89.7z"/>
		<path class="st13" d="M196.8,88.1c0.2,0.1,0.5,0.2,0.7,0.2c0.5,0.1,1.1,0.1,1.6,0c0.4,0,0.8-0.1,1.1-0.4c0.2-0.2,0.4-0.4,0.3-0.6
			c-0.1-0.2-0.3-0.3-0.5-0.4c-0.8-0.2-1.9-0.4-2.7-0.1C196.6,87.1,196,87.7,196.8,88.1z"/>
		<path class="st13" d="M210.9,90.7c-0.3-0.1-0.7,0-1,0.3c0,0-0.1,0.1-0.1,0.2c0,0.1,0.1,0.2,0.2,0.2c0.8,0.2,1.7,0,2.2-0.6
			c-0.5-0.1-1.1-0.1-1.6,0L210.9,90.7z"/>
		<path class="st13" d="M191.1,87.3c-0.4,0-0.9,0.1-1.2,0.3c-0.1,0-0.1,0.1-0.1,0.1c-0.1,0.2,0.2,0.3,0.4,0.3c0.7,0,1.4-0.1,2-0.3
			c0.1,0,0.3-0.1,0.2-0.2c0-0.1-0.1-0.1-0.1-0.1C191.9,87.2,191.5,87.2,191.1,87.3L191.1,87.3z"/>
	</g>
	<g>
		<path class="st10" d="M198.7,55.4c0.4,1.2,2,1.5,3.3,1.5c6.4,0.1,13,0.2,19.2-1.4c0.7-0.2,1.4-0.4,1.9-0.8
			c0.6-0.4,0.9-1.1,0.8-1.8c0-0.1-0.1-1-0.1-1.1c-0.3-0.9-1.2-0.5-2.2-0.7c-4.9-1.2-10.1-0.1-15.1,0.4c-1.5,0.2-7.2-0.2-8,2.1
			C198.3,54,198.5,54.8,198.7,55.4z"/>
		<path class="st11" d="M198.6,54.4c0.4,1.2,2,1.5,3.3,1.5c6.4,0.1,13,0.2,19.2-1.4c0.7-0.2,1.4-0.4,1.9-0.8
			c0.6-0.4,0.9-1.1,0.8-1.8c-0.2-1-1.3-1.6-2.3-1.8c-4.9-1.2-10.1-0.1-15.1,0.4C204.7,50.7,197.5,50.7,198.6,54.4z"/>
		<path class="st12" d="M221.4,50.1c-4.9-1.2-10.1-0.1-15.1,0.4c-1.8,0.2-9,0.2-7.8,3.9c0.4,1.2,2,1.5,3.3,1.5c1,0,2,0,3,0
			c0-0.4,0.2-0.8,0.5-1.1c1.4-1.6,3.5-2.3,5.6-2.9c2.2-0.6,4.4-1,6.6-1.3c1.6-0.2,3.3-0.3,4.9-0.2C222.1,50.2,221.8,50.1,221.4,50.1
			z"/>
		<path class="st13" d="M201.2,53.5c0.2,0.1,0.4,0.1,0.6,0c0.4-0.1,0.7-0.2,1-0.3c0.1,0,0.2-0.1,0.3-0.2c0.1-0.1,0.1-0.2,0-0.4
			c-0.1-0.1-0.2-0.1-0.4-0.1C202.5,52.6,200.4,53,201.2,53.5z"/>
		<path class="st13" d="M208.9,55.2c0.1,0,0.2,0,0.3,0c0.7,0,1.4,0.1,1.9-0.3c0,0,0.1-0.1,0.1-0.1c0-0.1,0-0.2-0.1-0.2
			c-0.1,0-0.2,0-0.3,0c-0.5,0-1,0-1.5,0.1C209.1,54.6,208.4,54.9,208.9,55.2z"/>
		<path class="st13" d="M217.5,52.6c0.1,0.2,0.4,0.1,0.5,0.1c0.5-0.2,0.9-0.6,1.2-1c0.5-0.7-0.1-1.4-0.8-0.8
			C218.2,51.1,217.3,52.3,217.5,52.6z"/>
		<path class="st13" d="M210.8,51.5c0.2,0.1,0.3,0.1,0.5,0.1c0.4,0,0.7,0,1.1,0c0.3,0,0.6-0.1,0.8-0.2c0.1-0.1,0.2-0.3,0.2-0.4
			c-0.1-0.1-0.2-0.2-0.4-0.2c-0.6-0.2-1.3-0.2-1.9-0.1C210.6,50.8,210.2,51.2,210.8,51.5z"/>
		<path class="st13" d="M220.6,53.4c-0.2-0.1-0.5,0-0.7,0.2c0,0,0,0.1,0,0.1c0,0.1,0.1,0.1,0.2,0.1c0.5,0.1,1.2,0,1.5-0.4
			c-0.4-0.1-0.7-0.1-1.1,0L220.6,53.4z"/>
		<path class="st13" d="M206.8,50.9c-0.3,0-0.6,0.1-0.9,0.2c0,0-0.1,0-0.1,0.1c0,0.1,0.1,0.2,0.3,0.2c0.5,0,1-0.1,1.4-0.2
			c0.1,0,0.2-0.1,0.1-0.2c0,0-0.1,0-0.1-0.1C207.3,50.9,207.1,50.9,206.8,50.9L206.8,50.9z"/>
	</g>
	<g>
		<path class="st10" d="M217.8,73.1c0.4,1.2,2,1.5,3.3,1.5c6.4,0.1,13,0.2,19.2-1.4c0.7-0.2,1.4-0.4,1.9-0.8
			c0.6-0.4,0.9-1.1,0.8-1.8c0-0.1-0.1-1-0.1-1.1c-0.3-0.9-1.2-0.5-2.2-0.7c-4.9-1.2-10.1-0.1-15.1,0.4c-1.5,0.2-7.2-0.2-8,2.1
			C217.4,71.7,217.6,72.5,217.8,73.1z"/>
		<path class="st11" d="M217.7,72.1c0.4,1.2,2,1.5,3.3,1.5c6.4,0.1,13,0.2,19.2-1.4c0.7-0.2,1.4-0.4,1.9-0.8
			c0.6-0.4,0.9-1.1,0.8-1.8c-0.2-1-1.3-1.6-2.3-1.8c-4.9-1.2-10.1-0.1-15.1,0.4C223.8,68.4,216.6,68.4,217.7,72.1z"/>
		<path class="st12" d="M240.5,67.8c-4.9-1.2-10.1-0.1-15.1,0.4c-1.8,0.2-9,0.2-7.8,3.9c0.4,1.2,2,1.5,3.3,1.5c1,0,2,0,3,0
			c0-0.4,0.2-0.8,0.5-1.1c1.4-1.6,3.5-2.3,5.6-2.9c2.2-0.6,4.4-1,6.6-1.3c1.6-0.2,3.3-0.3,4.9-0.2C241.2,67.9,240.9,67.8,240.5,67.8
			z"/>
		<path class="st13" d="M220.3,71.2c0.2,0.1,0.4,0.1,0.6,0c0.4-0.1,0.7-0.2,1-0.3c0.1,0,0.2-0.1,0.3-0.2c0.1-0.1,0.1-0.2,0-0.4
			c-0.1-0.1-0.2-0.1-0.4-0.1C221.6,70.3,219.5,70.7,220.3,71.2z"/>
		<path class="st13" d="M228,72.9c0.1,0,0.2,0,0.3,0c0.7,0,1.4,0.1,1.9-0.3c0,0,0.1-0.1,0.1-0.1c0-0.1,0-0.2-0.1-0.2s-0.2,0-0.3,0
			c-0.5,0-1,0-1.5,0.1C228.2,72.3,227.5,72.6,228,72.9z"/>
		<path class="st13" d="M236.6,70.3c0.1,0.2,0.4,0.1,0.5,0.1c0.5-0.2,0.9-0.6,1.2-1c0.5-0.7-0.1-1.4-0.8-0.8
			C237.2,68.8,236.4,70,236.6,70.3z"/>
		<path class="st13" d="M229.8,69.2c0.2,0.1,0.3,0.1,0.5,0.1c0.4,0,0.7,0,1.1,0c0.3,0,0.6-0.1,0.8-0.2c0.1-0.1,0.2-0.3,0.2-0.4
			c-0.1-0.1-0.2-0.2-0.4-0.2c-0.6-0.2-1.3-0.2-1.9-0.1C229.7,68.5,229.3,68.9,229.8,69.2z"/>
		<path class="st13" d="M239.7,71.1c-0.2-0.1-0.5,0-0.7,0.2c0,0,0,0.1,0,0.1c0,0.1,0.1,0.1,0.2,0.1c0.5,0.1,1.2,0,1.5-0.4
			c-0.4-0.1-0.7-0.1-1.1,0L239.7,71.1z"/>
		<path class="st13" d="M225.9,68.6c-0.3,0-0.6,0.1-0.9,0.2c0,0-0.1,0-0.1,0.1c0,0.1,0.1,0.2,0.3,0.2c0.5,0,1-0.1,1.4-0.2
			c0.1,0,0.2-0.1,0.1-0.2c0,0-0.1,0-0.1-0.1C226.4,68.6,226.2,68.6,225.9,68.6L225.9,68.6z"/>
	</g>
	<g>
		<path class="st10" d="M97.8,75.9c0.5,1.6,2.7,1.9,4.4,1.9c8.7,0.1,17.5,0.2,25.9-1.8c0.9-0.2,1.8-0.5,2.5-1
			c0.7-0.5,1.3-1.4,1.1-2.2c0-0.1-0.1-1.3-0.1-1.3c-0.4-1.1-1.7-0.6-2.9-0.9c-6.6-1.6-13.6-0.2-20.3,0.5c-2,0.2-9.7-0.3-10.8,2.6
			C97.3,74.2,97.6,75.3,97.8,75.9z"/>
		<path class="st11" d="M97.7,74.7c0.5,1.6,2.7,1.9,4.4,1.9c8.7,0.1,17.5,0.2,25.9-1.8c0.9-0.2,1.8-0.5,2.5-1
			c0.7-0.5,1.3-1.4,1.1-2.2c-0.2-1.3-1.8-2-3.1-2.3c-6.6-1.6-13.6-0.2-20.3,0.5C105.9,70.1,96.2,70.1,97.7,74.7z"/>
		<path class="st12" d="M128.4,69.3c-6.6-1.6-13.6-0.2-20.3,0.5C105.7,70,96,70,97.6,74.7c0.5,1.6,2.7,1.9,4.4,1.9
			c1.3,0,2.7,0,4,0.1c0-0.5,0.3-0.9,0.7-1.3c1.9-2,4.8-3,7.5-3.7c2.9-0.7,5.9-1.3,8.9-1.6c2.2-0.3,4.4-0.4,6.6-0.3
			C129.3,69.5,128.9,69.4,128.4,69.3z"/>
		<path class="st13" d="M101.2,73.6c0.2,0.1,0.5,0.1,0.8,0.1c0.5-0.1,0.9-0.2,1.3-0.4c0.1-0.1,0.3-0.1,0.4-0.3
			c0.1-0.1,0.1-0.3,0.1-0.4c-0.1-0.1-0.3-0.2-0.5-0.2C102.9,72.4,100.1,73,101.2,73.6z"/>
		<path class="st13" d="M111.5,75.7c0.1,0.1,0.2,0.1,0.4,0.1c0.9,0.1,1.9,0.1,2.6-0.4c0.1,0,0.1-0.1,0.1-0.1c0.1-0.1,0-0.2-0.1-0.3
			c-0.1-0.1-0.2-0.1-0.4-0.1c-0.7,0-1.4,0-2,0.1C111.8,75,110.9,75.4,111.5,75.7z"/>
		<path class="st13" d="M123.2,72.5c0.1,0.2,0.5,0.2,0.7,0.1c0.6-0.3,1.2-0.7,1.6-1.2c0.7-0.8-0.1-1.7-1-1.1
			C124,70.6,122.9,72.1,123.2,72.5z"/>
		<path class="st13" d="M114,71.1c0.2,0.1,0.4,0.1,0.7,0.2c0.5,0.1,1,0.1,1.5,0c0.4,0,0.7-0.1,1-0.3c0.2-0.1,0.3-0.4,0.2-0.6
			c-0.1-0.2-0.3-0.3-0.5-0.3c-0.8-0.2-1.8-0.3-2.5-0.1C113.9,70.2,113.3,70.7,114,71.1z"/>
		<path class="st13" d="M127.3,73.4c-0.3-0.1-0.7,0-0.9,0.2c0,0-0.1,0.1-0.1,0.1c0,0.1,0.1,0.1,0.2,0.1c0.7,0.2,1.6,0,2.1-0.6
			c-0.5-0.1-1-0.1-1.5,0L127.3,73.4z"/>
		<path class="st13" d="M108.8,70.4c-0.4,0-0.8,0.1-1.2,0.3c-0.1,0-0.1,0.1-0.1,0.1c-0.1,0.1,0.2,0.3,0.4,0.2c0.7,0,1.3-0.1,1.9-0.3
			c0.1,0,0.2-0.1,0.2-0.2c0-0.1-0.1-0.1-0.1-0.1C109.4,70.3,109.1,70.3,108.8,70.4L108.8,70.4z"/>
	</g>
	<g>
		<path class="st10" d="M288.3,67.5c0.5,1.8,2.9,2.1,4.7,2.2c9.3,0.1,18.6,0.3,27.6-2c1-0.3,1.9-0.5,2.7-1.1
			c0.8-0.6,1.3-1.6,1.2-2.5c0-0.1-0.2-1.4-0.2-1.5c-0.4-1.3-1.8-0.7-3.1-1.1c-7-1.8-14.4-0.2-21.7,0.6c-2.2,0.2-10.3-0.3-11.6,3
			C287.8,65.5,288.1,66.7,288.3,67.5z"/>
		<path class="st11" d="M288.2,66.1c0.5,1.8,2.9,2.1,4.7,2.2c9.3,0.1,18.6,0.3,27.6-2c1-0.3,1.9-0.5,2.7-1.1
			c0.8-0.6,1.3-1.6,1.2-2.5c-0.2-1.5-1.9-2.2-3.3-2.6c-7-1.8-14.4-0.2-21.7,0.6C296.9,60.8,286.6,60.8,288.2,66.1z"/>
		<path class="st12" d="M321,59.9c-7-1.8-14.4-0.2-21.7,0.6c-2.5,0.3-12.9,0.3-11.2,5.6c0.5,1.8,2.9,2.1,4.7,2.2
			c1.4,0,2.8,0,4.3,0.1c0-0.6,0.4-1.1,0.7-1.5c2-2.3,5.1-3.4,8-4.2c3.1-0.8,6.3-1.4,9.5-1.8c2.3-0.3,4.7-0.5,7.1-0.4
			C321.9,60.1,321.4,60,321,59.9z"/>
		<path class="st13" d="M291.9,64.9c0.2,0.2,0.5,0.1,0.8,0.1c0.5-0.1,1-0.3,1.4-0.5c0.2-0.1,0.4-0.2,0.4-0.3
			c0.1-0.2,0.2-0.4,0.1-0.5c-0.1-0.2-0.4-0.2-0.5-0.2C293.8,63.5,290.8,64.1,291.9,64.9z"/>
		<path class="st13" d="M303,67.2c0.1,0.1,0.3,0.1,0.4,0.1c1,0.1,2,0.1,2.8-0.5c0.1,0,0.1-0.1,0.1-0.2c0.1-0.1,0-0.3-0.2-0.3
			s-0.3-0.1-0.4-0.1c-0.7,0-1.5,0-2.2,0.1C303.2,66.5,302.3,66.9,303,67.2z"/>
		<path class="st13" d="M315.3,63.6c0.2,0.2,0.5,0.2,0.8,0.1c0.7-0.3,1.2-0.8,1.7-1.4c0.7-1-0.2-2-1.1-1.2
			C316.3,61.4,315.1,63.1,315.3,63.6z"/>
		<path class="st13" d="M305.6,62c0.2,0.1,0.5,0.2,0.7,0.2c0.5,0.1,1.1,0.1,1.6,0c0.4,0,0.8-0.1,1.1-0.4c0.2-0.2,0.4-0.4,0.3-0.6
			c-0.1-0.2-0.3-0.3-0.5-0.4c-0.8-0.2-1.9-0.4-2.7-0.1C305.4,60.9,304.8,61.6,305.6,62z"/>
		<path class="st13" d="M319.8,64.6c-0.3-0.1-0.7,0-1,0.3c0,0-0.1,0.1-0.1,0.2c0,0.1,0.1,0.2,0.2,0.2c0.8,0.2,1.7,0,2.2-0.6
			c-0.5-0.1-1.1-0.1-1.6,0L319.8,64.6z"/>
		<path class="st13" d="M300,61.1c-0.4,0-0.9,0.1-1.2,0.3c-0.1,0-0.1,0.1-0.1,0.1c-0.1,0.2,0.2,0.3,0.4,0.3c0.7,0,1.4-0.1,2-0.3
			c0.1,0,0.3-0.1,0.2-0.2c0-0.1-0.1-0.1-0.1-0.1C300.7,61.1,300.3,61.1,300,61.1L300,61.1z"/>
	</g>
</g>
</svg>
