<?xml version="1.0" encoding="utf-8"?>
<!-- Generator: Adobe Illustrator 21.0.0, SVG Export Plug-In . SVG Version: 6.00 Build 0)  -->
<svg version="1.1" xmlns="http://www.w3.org/2000/svg" xmlns:xlink="http://www.w3.org/1999/xlink" x="0px" y="0px"
	 viewBox="0 0 389 157" style="enable-background:new 0 0 389 157;" xml:space="preserve">
<style type="text/css">
	.st0{display:none;}
	.st1{display:inline;}
	.st2{fill:#732A13;}
	.st3{fill:#6C151C;}
	.st4{fill:#F6C073;}
	.st5{fill:#F1A12E;}
	.st6{opacity:0.3;fill:#FBE0BA;enable-background:new    ;}
	.st7{fill:#6F4026;}
	.st8{fill:#F6C278;}
	.st9{fill:#AB1717;}
	.st10{fill:#C43922;}
	.st11{fill:#E2786D;}
	.st12{fill:#F75237;}
	.st13{fill:#D15E52;}
	.st14{fill:#C6584F;}
	.st15{fill:#EF8675;}
	.st16{fill:#F4987F;}
	.st17{fill:#F4AA67;}
	.st18{opacity:0.28;fill:#FFFFFF;}
</style>
<g id="Слой_1" class="st0">
	<g id="Layer_1" class="st1">
		<g>
			
				<ellipse transform="matrix(0.9998 -1.910948e-02 1.910948e-02 0.9998 -1.7337 3.9668)" class="st2" cx="206.7" cy="92.7" rx="175.1" ry="48.7"/>
			
				<ellipse transform="matrix(0.9998 -1.911576e-02 1.911576e-02 0.9998 -1.5262 3.9298)" class="st3" cx="204.8" cy="81.8" rx="161" ry="44.8"/>
			
				<ellipse transform="matrix(0.9998 -1.911913e-02 1.911913e-02 0.9998 -1.4442 3.9373)" class="st4" cx="205.2" cy="77.5" rx="158.3" ry="44.6"/>
			
				<ellipse transform="matrix(0.9998 -1.910377e-02 1.910377e-02 0.9998 -1.317 3.9311)" class="st5" cx="205.1" cy="70.9" rx="145.6" ry="32.3"/>
			
				<ellipse transform="matrix(0.9998 -1.911114e-02 1.911114e-02 0.9998 -1.3424 3.9328)" class="st5" cx="205.1" cy="72.2" rx="139.4" ry="30.9"/>
			<path class="st6" d="M204.5,41.3c-77,1.5-139.1,16.5-138.8,33.6s63,29.7,140,28.3c77-1.5,139.1-16.5,138.8-33.6
				S281.5,39.9,204.5,41.3z M76.5,69.9c-0.4-0.2-0.5-0.7-0.3-1.1c3.1-9.1,15.8-8,22.9-11.7c0.3-0.2,0.6-0.2,0.8-0.1
				c15-5,30.2-7.7,46.5-8.8c9-0.6,18.1-0.6,27.1-0.7c5.3-0.1,12.1-0.5,16.1,3.6c0.6,0.6-0.1,1.5-0.7,1.7c-8,3.7-17.1,2.5-25.7,3.3
				c-11,1-22.1,2.7-32.9,4.8c-10.9,2.1-22.2,3.3-33,6.1C90.6,68.8,83.3,72.4,76.5,69.9z M180.5,95.3c-6.8,1.8-14,1.7-21,1.7
				c-9.1,0-18.1-0.1-27.2,0c-5.6,0-12.9,0-17.3-4.1c-4.6-4.3-9.2-3.7-15-3.6c-4.6,0-17.9,0.3-17.1-7.4c0.6-5.4,10.5-7.5,14.4-8.5
				c8.1-2.1,16.5-3.3,24.8-4c3.8-0.3,7.4-0.5,11.1-1.1c0.1-0.1,0.3-0.2,0.4-0.2c12.3-2.4,24.7-4,37.2-4.6c8.1-0.4,22-1.8,22.4,9.6
				C193.7,82.5,190.7,92.5,180.5,95.3z M213.5,49.7c7-6.9,18.9-4.7,27.8-6c0.5-0.1,0.7,0.1,0.8,0.4c6,0,12.1,0.7,18.1,1.3
				c6.4,0.6,16.7,0.8,21.1,6.5c0.4,0.6,0.1,1.6-0.7,1.7c-12.9,3.4-25.5-0.7-38.5,0c-8.7,0.5-20.9,2.9-28.6-2.4
				C213,50.8,213,50.1,213.5,49.7z M261.1,84.1c-1.6,4.3-7.6,5.8-11.6,6.6c-7.1,1.4-14.7,2.8-21.8,3.4c-7,0.6-12.6-1.2-15.8-7.8
				c-1.4-3-6.8-16-3.7-20.4c0.1-0.1,0.2-0.3,0.3-0.4c0.4-0.4,0.9-0.7,1.6-0.9c2-0.8,4.1-0.6,6.5,0.2c5.2,1.6,10.6,2.4,15.9,3.9
				c7,1.9,14.2,4.3,20.9,7.3C256.2,77.1,262.7,79.8,261.1,84.1z M300.7,71.4c-4.1,5.6-14.6,4.6-20.5,4.1
				c-11.3-0.9-22.3-2.5-33.2-5.8c-3.7-1.1-18.2-3.5-18.9-8.4c-0.3-2.3,2.3-3.5,5.3-4.1c9.4-3.8,19.3,0,28.9,0.7
				c5.4,0.4,10.9,1.2,16.2,2.1C281.8,60.5,306.3,63.8,300.7,71.4z"/>
			<path class="st7" d="M38.5,90c0,0-6.8,2.4-0.1,15.3s86.2,37.6,160.7,32.7c0,0,51.9,0,52.2-4.1s-19.8-4.3-19.8-4.3
				s-23.5,0.7-33.8,0.8C187.5,130.4,54.8,131.5,38.5,90z"/>
			<path class="st8" d="M55.9,70.2c0,0-3.4-0.2-6.1,6.4c-2.7,6.6,7.9,22.9,55,33.2c47,10.3,115.1,12.6,150.4,6.2s18.1-15.1,0.9-12.8
				c-17.2,2.3-17.2,2.3-17.2,2.3S153,108.1,110,99.9C69.2,92.2,55.1,87.1,55.9,70.2z"/>
		</g>
	</g>
	<g id="Слой_3" class="st1">
		<path class="st9" d="M145.6,45.9c0,0,46.5-2,75.9-1.5c19.1,0.2,41.2-3.1,77.1,5.1c17.5,3.8,28.6,7.5,34.6,10.6
			c3.6,1.9,6,5.6,5.9,9.7c-0.1,6.2-6.3,15.6-56.8,26c-49.7,4.8-55.4,4.6-77.4,3.8c-24.5,0.9-52.2,3.2-76.1-2.4
			c-26.9-5.6-68.6-13.4-56.1-25.5C80.6,64.8,90.8,54.2,145.6,45.9z"/>
	</g>
</g>
<g id="Слой_2">
	<g>
		<path class="st10" d="M171.1,57.7c-0.5,1.1-1.6,1.2-2.8,1.6c-1.1,0.3-2.4,0.2-3.5-0.4c-0.4-0.2-0.7-0.5-1.1-0.5
			c-0.4,0-0.8,0.3-1.1,0.5c-1,0.6-2.3,0.7-3.5,0.4c-1.1-0.3-2.3-0.6-2.8-1.6c-0.5-1.1-0.2-2.9,0.1-4.1c0.1-0.6,0.3-1.1,0.6-1.6
			c0.6-1,1.7-1.5,2.7-1.9c2.5-0.8,6.4-0.6,7.7,0c1.1,0.4,2.1,0.9,2.7,1.9c0.3,0.5,0.5,1,0.6,1.6C171.3,54.6,171.5,56.5,171.1,57.7z"
			/>
		<path class="st11" d="M170.9,58.2c-0.5,1.1-1.5,1.9-2.6,2.2c-1.1,0.3-2.4,0.2-3.5-0.4c-0.4-0.2-0.7-0.5-1.1-0.5
			c-0.4,0-0.8,0.3-1.1,0.5c-1,0.6-2.3,0.7-3.5,0.4c-1.1-0.3-2.1-1.1-2.6-2.2c-0.5-1.1-0.4-2.4-0.1-3.6c0.1-0.6,0.3-1.1,0.6-1.6
			c0.6-1,1.7-1.5,2.7-1.9c2.5-0.8,6.4-0.6,7.7,0c1.1,0.4,2.1,0.9,2.7,1.9c0.3,0.5,0.5,1,0.6,1.6C171.3,55.8,171.4,57.1,170.9,58.2z"
			/>
		<path class="st12" d="M170.9,54.6c-0.1-0.6-0.3-1.1-0.6-1.6c-0.6-1-1.7-1.4-2.7-1.9c-1.3-0.6-5.2-0.8-7.7,0
			c-1.1,0.3-2.1,0.9-2.7,1.9c-0.3,0.5-0.5,1-0.6,1.6c-0.3,1.2-0.4,2.5,0.1,3.6c0.5,1.1,1.5,1.9,2.6,2.2c1.1,0.3,2.4,0.2,3.5-0.4
			c0.4-0.2,0.7-0.5,1.1-0.5c0.4,0,0.8,0.3,1.1,0.5c1,0.6,2.3,0.7,3.5,0.4c1.1-0.3,2.1-1.1,2.6-2.2C171.4,57.1,171.2,55.8,170.9,54.6
			z M170.6,58.1c-0.5,1-1.4,1.7-2.5,2.1c-1.1,0.3-2.3,0.2-3.3-0.4c-0.3-0.2-0.7-0.4-1.1-0.5c-0.4,0-0.8,0.3-1.1,0.5
			c-1,0.6-2.2,0.7-3.3,0.4c-1.1-0.3-2-1.1-2.5-2.1c-0.5-1-0.4-2.3-0.1-3.4c0.1-0.5,0.3-1,0.6-1.5c0.6-0.9,1.6-1.5,2.7-1.8
			c2.4-0.7,6.1-0.5,7.4,0c1,0.4,2.1,0.9,2.7,1.8c0.3,0.5,0.5,1,0.6,1.5C171,55.8,171.1,57,170.6,58.1z"/>
		<path class="st13" d="M162.5,57.1c0,0.5-0.1,1.1-0.5,1.5c-0.4,0.3-0.9,0.3-1.4,0.2c-0.4,0-0.9-0.1-1.3-0.2c-0.4-0.1-0.8-0.4-1-0.8
			c-0.1-0.2-0.2-0.5-0.2-0.8c-0.1-0.6-0.2-1.3,0-1.8c0.1-0.3,0.2-0.5,0.3-0.7c0.3-0.6,0.7-1.2,1.3-1.6c0.6-0.3,1.2-0.4,1.9-0.5
			c0.2-0.1,0.5-0.1,0.7-0.1c0.2,0.1,0.3,0.2,0.4,0.4c0.1,0.2,0.1,0.4,0.1,0.5c0,0.6-0.1,1.1-0.1,1.7c0,0.3,0,0.6-0.1,1
			C162.5,56.3,162.5,56.7,162.5,57.1z"/>
		<path class="st14" d="M158.8,54.2c-0.1,0.2-0.3,0.5-0.3,0.7c-0.2,0.6-0.1,1.2,0,1.8c0,0.3,0.1,0.6,0.2,0.8c0.2,0.4,0.6,0.6,1,0.8
			c0.4,0.1,0.9,0.2,1.3,0.2c0.3,0,0.7,0,1,0c0,0,0,0-0.1,0c-0.4,0.3-0.9,0.3-1.4,0.2c-0.4,0-0.9-0.1-1.3-0.2c-0.4-0.1-0.8-0.4-1-0.8
			c-0.1-0.2-0.2-0.5-0.2-0.8c-0.1-0.6-0.2-1.3,0-1.8c0.1-0.3,0.2-0.5,0.3-0.7c0.3-0.6,0.7-1.2,1.3-1.6c0.1-0.1,0.3-0.1,0.4-0.2
			C159.5,53.1,159.1,53.7,158.8,54.2z"/>
		<path class="st13" d="M165.2,57.2c0,0.5,0.2,1.1,0.6,1.4c0.4,0.3,1,0.2,1.5,0.2c0.4-0.1,0.9-0.1,1.3-0.3s0.8-0.4,1-0.8
			c0.1-0.3,0.2-0.5,0.2-0.8c0.1-0.6,0.1-1.3-0.1-1.8c-0.1-0.2-0.2-0.5-0.4-0.7c-0.4-0.6-0.8-1.2-1.4-1.5c-0.6-0.3-1.3-0.3-1.9-0.4
			c-0.2,0-0.5-0.1-0.7,0c-0.2,0.1-0.3,0.2-0.4,0.4c-0.1,0.2-0.1,0.4-0.1,0.5c0,0.6,0.2,1.1,0.2,1.6c0,0.3,0.1,0.6,0.1,1
			C165.2,56.3,165.2,56.8,165.2,57.2z"/>
		<path class="st15" d="M161.9,60c0.1-0.1,0.2-0.1,0.2-0.2c0.3-0.3,0.1-0.8,0.4-1.1c0.1-0.1,0.2-0.1,0.3-0.2
			c0.2-0.1,0.2-0.4,0.3-0.6c0-0.2,0-0.4,0-0.7c0-1,0.3-2,0.2-2.9c0-0.2-0.1-0.4-0.1-0.7c0-0.1,0-0.1,0-0.2c0.1-0.1,0.2,0,0.2-0.1
			c0.1,0,0.1-0.2,0.1-0.3c0-0.2,0-0.4,0-0.6c0-0.1,0-0.3,0-0.4c0-0.1,0.1-0.3,0.3-0.3c0.2,0,0.3,0.1,0.4,0.2c0.2,0.4,0,1,0,1.5
			c0,0.8,0.6,1.4,0.5,2.2c0,0.5-0.4,1-0.3,1.5c0,0.1,0.1,0.3,0.1,0.4c0,0.2,0.1,0.3,0.1,0.5c0.1,0.8,0.6,1.5,1.2,2.1
			c0.1,0.1,0.2,0.2,0.3,0.2c-0.8-0.1-1.5-0.7-2.3-0.6c-0.4,0-0.8,0.1-1.2,0.3c-0.2,0.1-0.4,0.2-0.6,0.2
			C161.7,60.3,161.7,60.1,161.9,60z"/>
		<path class="st11" d="M162.2,58.3c0-0.2-0.2-0.3-0.3-0.4c-0.2,0-0.4,0.1-0.6,0.1c-0.4,0.1-0.8-0.2-1.1-0.5
			c-0.1-0.1-0.2-0.2-0.2-0.3c-0.1-0.2,0-0.5,0-0.7c0-0.3-0.1-0.6-0.2-1c-0.1-0.5,0.1-1,0.4-1.4c0.1-0.2,0.2-0.3,0.3-0.4
			c0.3-0.2,0.6-0.3,0.9-0.5c0.1-0.1,0.2-0.2,0.3-0.3c0.1-0.1,0.2-0.2,0.4-0.1c0.1,0,0.1,0.1,0.2,0.1c0.1,0,0.3-0.2,0.2-0.3
			c0-0.1-0.2-0.1-0.2-0.2c0-0.1,0.2-0.1,0.3-0.1c0.2,0.1,0.4,0.4,0.4,0.7c0,0.3,0,0.5-0.1,0.8c-0.1,0.5-0.2,0.9-0.2,1.4
			c0,0.6,0,1.2,0,1.8c0,0.6-0.1,1.2-0.5,1.7c0,0.1-0.4,0.4-0.4,0.2C161.9,58.7,162.2,58.5,162.2,58.3z"/>
		<path class="st11" d="M166,58c0.2,0.1,0.3,0.2,0.5,0.2c0.2,0,0.4,0,0.5,0c0.1,0,0.3-0.1,0.3-0.2c0.1-0.1,0.1-0.3,0.1-0.5
			c0-0.2,0.2-0.3,0.3-0.5c0.2-0.4,0.1-0.8,0-1.2c-0.1-0.4-0.3-0.7-0.4-1.1c-0.1-0.4,0-0.8-0.2-1.1c-0.2-0.4-0.5-0.6-0.8-0.8
			c-0.1-0.1-0.2-0.1-0.4-0.1c-0.1,0-0.2,0.1-0.3,0.1c-0.2,0.1-0.3,0.1-0.5,0.2c-0.1,0-0.2,0-0.2,0c-0.1,0-0.1-0.1-0.1-0.2
			c0.1,0,0.2-0.1,0.3-0.2c0.1-0.1,0.1-0.2,0.1-0.3c-0.1-0.2-0.4-0.1-0.5,0c-0.3,0.3-0.3,0.8-0.3,1.3c0.1,1,0.4,1.9,0.4,2.9
			c0,0.4,0,0.7,0.1,1.1c0.1,0.3,0.2,0.6,0.3,1c0.1,0.1,0.2,0.4,0.3,0.4c0.3,0,0.1-0.2,0-0.3C165.4,58.3,165.5,57.8,166,58z"/>
		<path class="st15" d="M162.7,58.7c0.1-0.2,0.1-0.4,0.1-0.6c0-0.2-0.1-0.4-0.3-0.5c-0.2-0.1-0.4-0.1-0.5-0.1s-0.3-0.3-0.2-0.4
			c0.1-0.2,0.5-0.1,0.5-0.3c0-0.1,0-0.2-0.1-0.3c-0.2-0.1-0.3-0.2-0.5-0.4c-0.1-0.2-0.2-0.4-0.1-0.6c0.1-0.2,0.3-0.2,0.5-0.2
			s0.4,0.1,0.6,0.1c0,0,0.1,0,0.1,0c0,0,0-0.1,0-0.1c0-0.3-0.2-0.5-0.3-0.8c0-0.1,0-0.3,0.1-0.4c0,0,0.1,0,0.1,0
			c0.1,0,0.1-0.1,0.1-0.2c0-0.1-0.1-0.2-0.1-0.2c-0.1-0.3,0.1-0.7,0.4-0.7c0.1,0,0.2,0,0.3,0c0.2,0,0.3-0.2,0.5-0.1
			c0.1,0,0.1,0.1,0.1,0.1c0.1,0,0.3-0.1,0.3-0.3c0-0.1,0.1-0.3,0.2-0.4c0,0,0,0,0.1,0c0.1,0,0.1,0.1,0.1,0.1c0.1,0.2,0,0.5,0,0.7
			c0,0.2-0.1,0.3-0.2,0.5s0,0.4,0,0.5c0.1,0.2,0.4,0.3,0.6,0.2c0.1-0.1,0.3-0.2,0.4-0.3c0.2,0,0.4,0.2,0.4,0.5
			c0,0.2-0.3,0.4-0.5,0.5c-0.1,0-0.1,0.1-0.2,0.1c-0.2,0.2,0,0.5,0.2,0.6c0.1,0,0.3,0,0.4,0.2c0.1,0.1,0.1,0.4-0.1,0.5
			c-0.1,0.1-0.3,0.1-0.5,0.2c-0.2,0-0.4,0-0.5,0.2c-0.2,0.1-0.2,0.3-0.2,0.5c0.1,0.2,0.3,0.3,0.5,0.3c0.2,0,0.4-0.1,0.6-0.1
			c0.1,0,0.2,0,0.2,0.1c0,0.1,0,0.2,0,0.2c-0.1,0.2-0.4,0.2-0.7,0.2c-0.2,0-0.5,0.1-0.6,0.3c0,0.1,0,0.3,0.1,0.4
			c0,0.1,0,0.3-0.2,0.3c-0.1,0-0.2-0.1-0.2-0.2c0-0.1-0.1-0.2-0.2-0.3c-0.1-0.1-0.2-0.1-0.4,0c-0.4,0-0.8,0-1.2-0.1
			c0.1,0,0.1,0,0.1,0.1L162.7,58.7z"/>
		<path class="st16" d="M163.1,59.2c0.1-0.2,0.1-0.5,0.2-0.8c0.1-0.2,0.2-0.3,0.2-0.5c0.3-0.7,0-1.6,0.1-2.3c0-0.1,0.1-0.3,0.2-0.2
			c0.2,0.4,0,0.9,0.1,1.4c0,0.2,0.1,0.4,0.2,0.6c0.1,0.6-0.3,1.3-0.1,1.9c0.2,0.5,0.8,0.6,1.1,1.1c-0.6-0.2-1.3-0.2-2-0.2
			c-0.3,0-0.6,0.1-0.4-0.2C162.9,59.7,163,59.5,163.1,59.2z"/>
		<path class="st17" d="M159.6,58.3c0.1-0.2,0.3-0.4,0.6-0.5c0,0.2-0.1,0.4-0.1,0.6c0,0,0,0.1,0,0.1
			C159.9,58.8,159.5,58.6,159.6,58.3z"/>
		<path class="st17" d="M158.8,58c0-0.1,0-0.2,0.1-0.3c0.1-0.1,0.1-0.1,0.2-0.1c0.2-0.1,0.4-0.1,0.6-0.1c-0.1,0.1-0.1,0.3-0.2,0.4
			c0,0.1-0.1,0.1-0.1,0.2C159.2,58.3,158.9,58.3,158.8,58z"/>
		<path class="st17" d="M158.2,57.1c0-0.1,0-0.2,0.1-0.3c0,0,0.1,0,0.1-0.1c0.3-0.1,0.6,0,0.9,0.1c-0.1,0.1-0.3,0.2-0.4,0.3
			c-0.1,0-0.1,0.1-0.2,0.1C158.5,57.5,158.2,57.5,158.2,57.1z"/>
		<path class="st17" d="M158.5,56.4c-0.1,0-0.2-0.1-0.2-0.2c-0.1-0.1-0.1-0.2-0.1-0.3c0-0.1,0-0.1,0-0.2c0-0.1,0.1-0.1,0.2-0.1
			c0.1,0,0.2,0,0.3,0.1c0.1,0.1,0.9,0.3,0.7,0.6c-0.1,0.1-0.3,0.1-0.3,0.1C158.8,56.4,158.6,56.5,158.5,56.4z"/>
		<path class="st17" d="M159,55.4c-0.2,0-0.3,0-0.5-0.1c-0.1-0.1-0.3-0.2-0.2-0.4c0-0.1,0.1-0.2,0.2-0.3c0,0,0.1,0,0.2,0
			c0,0,0.1,0,0.1,0.1c0.2,0.1,0.4,0.3,0.7,0.5C159.7,55.4,159,55.4,159,55.4z"/>
		<path class="st17" d="M158.9,54.4c-0.1-0.1-0.2-0.3-0.1-0.5c0.1-0.1,0.2-0.1,0.3-0.1s0.2,0.1,0.3,0.2c0.1,0.1,0.2,0.2,0.2,0.4
			C159.9,54.8,159.1,54.5,158.9,54.4z"/>
		<path class="st17" d="M159.5,53.4c0-0.1,0-0.2,0-0.2c0.1,0,0.1-0.1,0.2-0.1c0,0,0,0,0.1,0c0,0,0,0,0.1,0.1
			c0.1,0.1,0.4,0.4,0.2,0.5C159.9,53.8,159.5,53.6,159.5,53.4z"/>
		<path class="st17" d="M160.2,53c0,0,0-0.1,0-0.1c0-0.1,0.1-0.1,0.2-0.2c0.1,0,0.2,0,0.2,0.1c0.1,0.1,0.1,0.1,0.1,0.2
			c0.1,0.1,0.1,0.5-0.1,0.4C160.4,53.4,160.2,53.2,160.2,53z"/>
		<path class="st17" d="M161.1,53.1c-0.1-0.1-0.1-0.2-0.1-0.3c0-0.1,0-0.1,0-0.2c0.1-0.1,0.2-0.1,0.3-0.1c0,0,0.1,0,0.1,0
			c0,0,0,0,0,0c0,0.1,0,0.3,0,0.4C161.3,53.1,161.2,53.2,161.1,53.1z"/>
		<path class="st17" d="M160.4,58.6c-0.1-0.1,0-0.2,0-0.3c0.1-0.1,0.1-0.2,0.2-0.3c0.1,0.1,0.1,0.2,0.2,0.3c0,0.1,0.1,0.1,0,0.2
			C160.8,58.7,160.5,58.7,160.4,58.6z"/>
		<path class="st17" d="M161.3,58.7c-0.1,0-0.2,0-0.2-0.1c0-0.1,0-0.2,0-0.3c0,0,0-0.1,0.1-0.1c0,0,0.1,0,0.1,0
			c0.1,0.1,0.2,0.1,0.2,0.2c0,0,0.1,0.1,0.1,0.1c0,0,0,0.1-0.1,0.1C161.4,58.7,161.3,58.7,161.3,58.7L161.3,58.7z"/>
		<path class="st17" d="M168.1,58.5c-0.1-0.2-0.3-0.4-0.5-0.5c0,0.2,0,0.4,0.1,0.6c0,0,0,0.1,0,0.1
			C167.7,58.9,168.2,58.8,168.1,58.5z"/>
		<path class="st17" d="M168.9,58.2c0-0.1,0-0.2,0-0.3c0-0.1-0.1-0.1-0.2-0.1c-0.2-0.1-0.4-0.1-0.6-0.2c0.1,0.1,0.1,0.3,0.2,0.4
			c0,0.1,0.1,0.1,0.1,0.2C168.5,58.4,168.8,58.5,168.9,58.2z"/>
		<path class="st17" d="M169.5,57.3c0-0.1,0-0.2-0.1-0.3c0,0-0.1,0-0.1-0.1c-0.3-0.1-0.6-0.1-0.9,0c0.1,0.1,0.3,0.2,0.4,0.4
			c0.1,0.1,0.1,0.1,0.2,0.1C169.3,57.6,169.5,57.6,169.5,57.3z"/>
		<path class="st17" d="M169.3,56.6c0.1,0,0.2-0.1,0.3-0.2c0.1-0.1,0.1-0.2,0.1-0.3c0-0.1,0-0.1,0-0.2c0-0.1-0.1-0.1-0.2-0.1
			c-0.1,0-0.2,0-0.3,0c-0.2,0.1-0.9,0.3-0.7,0.5c0.1,0.1,0.2,0.1,0.3,0.1C169,56.6,169.2,56.6,169.3,56.6z"/>
		<path class="st17" d="M168.9,55.5c0.2,0,0.3,0,0.5,0s0.3-0.2,0.3-0.3c0-0.1-0.1-0.2-0.2-0.3c0,0-0.1,0-0.1,0c0,0-0.1,0-0.1,0
			c-0.2,0.1-0.5,0.3-0.7,0.4C168.2,55.5,168.8,55.5,168.9,55.5z"/>
		<path class="st17" d="M168.9,54.5c0.1-0.1,0.2-0.3,0.1-0.5c-0.1-0.1-0.2-0.1-0.3-0.1c-0.1,0-0.2,0.1-0.3,0.2
			c-0.1,0.1-0.2,0.2-0.2,0.3C167.9,54.9,168.8,54.7,168.9,54.5z"/>
		<path class="st17" d="M168.5,53.6c0.1-0.1,0-0.2,0-0.2c-0.1,0-0.1-0.1-0.2-0.1c0,0,0,0-0.1,0c0,0,0,0-0.1,0.1
			c-0.1,0.1-0.4,0.4-0.2,0.5C168.1,53.9,168.4,53.7,168.5,53.6z"/>
		<path class="st17" d="M167.8,53.1c0,0,0-0.1,0-0.1c0-0.1-0.1-0.2-0.2-0.2c-0.1,0-0.2,0-0.2,0.1c-0.1,0.1-0.1,0.1-0.2,0.2
			c-0.1,0.1-0.2,0.5,0.1,0.4C167.6,53.5,167.7,53.3,167.8,53.1z"/>
		<path class="st17" d="M166.9,53.1c0.1-0.1,0.1-0.2,0.1-0.3c0-0.1,0-0.1,0-0.2c0-0.1-0.2-0.1-0.3-0.1c0,0-0.1,0-0.1,0c0,0,0,0,0,0
			c0,0.1,0,0.3,0,0.4C166.7,53.1,166.8,53.3,166.9,53.1z"/>
		<path class="st17" d="M167.2,58.7c0.1-0.1,0-0.2,0-0.3c-0.1-0.1-0.1-0.2-0.2-0.3c-0.1,0.1-0.1,0.2-0.2,0.3c0,0.1-0.1,0.1,0,0.2
			C166.8,58.8,167.2,58.8,167.2,58.7z"/>
		<path class="st17" d="M166.4,58.7c0.1,0,0.2,0,0.2-0.1c0-0.1,0-0.2,0-0.3c0,0,0-0.1,0-0.1c0,0-0.1,0-0.1,0
			c-0.1,0.1-0.2,0.1-0.2,0.2c0,0-0.1,0.1-0.1,0.1c0,0,0,0.1,0.1,0.1C166.3,58.7,166.3,58.7,166.4,58.7L166.4,58.7z"/>
		<path class="st18" d="M157.3,56.6c0.2,0.4,0.1,0.9,0.2,1.4c0.2,0.5,0.6,0.9,1.1,1.1c0.5,0.2,1,0.3,1.6,0.4c0.1,0,0.3,0.1,0.3,0.3
			c0,0.1,0,0.1-0.1,0.1c-0.3,0.3-0.8,0.2-1.2,0c-0.6-0.3-1.2-0.7-1.7-1.2c-0.4-0.4-0.8-0.8-0.8-1.3
			C156.7,57.1,156.9,55.8,157.3,56.6z"/>
		<path class="st18" d="M156.8,55.4c0-0.3,0.1-0.6,0.2-0.9c0.1-0.2,0.1-0.3,0.2-0.5c0.1-0.1,0.1-0.3,0.3-0.3c0.1,0,0.2,0.1,0.2,0.2
			c0,0.1,0,0.2,0,0.3c-0.1,0.3-0.2,0.5-0.2,0.8c0,0.1,0,0.2,0,0.4C157.5,56,156.9,55.9,156.8,55.4z"/>
		<path class="st18" d="M169.4,52.9c0.5,0.5,0.9,1.2,1,1.9c0,0.1,0,0.1,0,0.2c-0.1,0.1-0.2,0-0.2,0c-0.2-0.2-0.2-0.5-0.3-0.8
			c-0.1-0.2-0.2-0.4-0.4-0.6c-0.1-0.2-0.2-0.4-0.4-0.5c-0.1-0.1-0.3-0.1-0.3-0.2C168.5,52.3,169.3,52.8,169.4,52.9z"/>
	</g>
	<g>
		<path class="st10" d="M126.6,71.6c-0.7-1.5-2.4-1.8-4-2.3c-1.7-0.5-3.5-0.3-5,0.6c-0.5,0.3-1.1,0.7-1.7,0.8
			c-0.6-0.1-1.2-0.5-1.7-0.8c-1.5-0.9-3.4-1.1-5-0.6c-1.6,0.5-3.4,0.9-4,2.4c-0.7,1.6-0.3,4.3,0.2,6c0.2,0.8,0.5,1.6,0.9,2.3
			c0.9,1.4,2.4,2.3,4,2.7c3.6,1.1,9.3,0.8,11.2,0c1.5-0.6,3.1-1.3,4-2.7c0.5-0.7,0.7-1.5,0.9-2.3C126.9,76,127.4,73.3,126.6,71.6z"
			/>
		<path class="st11" d="M126.4,70.9c-0.7-1.5-2.1-2.7-3.7-3.2c-1.7-0.5-3.5-0.3-5,0.6c-0.5,0.3-1.1,0.7-1.7,0.8
			c-0.6-0.1-1.2-0.5-1.7-0.8c-1.5-0.9-3.4-1.1-5-0.6c-1.6,0.5-3.1,1.6-3.7,3.2c-0.7,1.6-0.5,3.5-0.1,5.2c0.2,0.8,0.5,1.6,0.9,2.3
			c0.9,1.4,2.4,2.3,4,2.7c3.6,1.1,9.3,0.8,11.2,0c1.5-0.6,3.1-1.3,4-2.7c0.5-0.7,0.7-1.5,0.9-2.3C126.9,74.4,127.1,72.5,126.4,70.9z
			"/>
		<path class="st12" d="M126.4,70.9c-0.7-1.5-2.1-2.7-3.7-3.2c-1.7-0.5-3.5-0.3-5,0.6c-0.5,0.3-1.1,0.7-1.7,0.8
			c-0.6-0.1-1.2-0.5-1.7-0.8c-1.5-0.9-3.4-1.1-5-0.6c-1.6,0.5-3.1,1.6-3.7,3.2c-0.7,1.6-0.5,3.5-0.1,5.2c0.2,0.8,0.5,1.6,0.9,2.3
			c0.9,1.4,2.4,2.3,4,2.7c3.6,1.1,9.3,0.8,11.2,0c1.5-0.6,3.1-1.3,4-2.7c0.5-0.7,0.7-1.5,0.9-2.3C126.9,74.4,127.1,72.5,126.4,70.9z
			 M126.1,76c-0.2,0.8-0.5,1.5-0.9,2.2c-0.9,1.3-2.4,2-3.9,2.6c-1.9,0.8-7.4,1-10.8,0c-1.5-0.5-3-1.3-3.9-2.6
			c-0.4-0.7-0.7-1.4-0.9-2.2c-0.4-1.6-0.6-3.4,0.1-4.9c0.7-1.5,2.1-2.5,3.6-3c1.6-0.5,3.4-0.2,4.9,0.6c0.5,0.3,1,0.7,1.6,0.7
			c0.6-0.1,1.1-0.4,1.6-0.7c1.5-0.8,3.3-1,4.9-0.6c1.6,0.4,3,1.5,3.6,3C126.7,72.6,126.6,74.3,126.1,76z"/>
		<path class="st13" d="M114.3,72.4c0-0.8-0.1-1.7-0.8-2.1c-0.6-0.4-1.4-0.4-2.1-0.4c-0.6,0-1.3,0.1-1.9,0.3
			c-0.6,0.2-1.2,0.6-1.5,1.1c-0.2,0.4-0.3,0.8-0.4,1.2c-0.2,0.9-0.3,1.8,0,2.7c0.1,0.4,0.3,0.7,0.5,1.1c0.5,0.9,1,1.8,1.9,2.3
			c0.8,0.5,1.8,0.5,2.7,0.7c0.3,0.1,0.7,0.2,1,0.1c0.3-0.1,0.5-0.3,0.6-0.5c0.1-0.2,0.1-0.5,0.1-0.8c0-0.8-0.2-1.6-0.1-2.4
			c0.1-0.5-0.1-0.9-0.1-1.4C114.2,73.6,114.2,73,114.3,72.4z"/>
		<path class="st14" d="M108.8,76.7c-0.2-0.3-0.4-0.7-0.5-1.1c-0.3-0.9-0.1-1.8,0-2.7c0.1-0.4,0.2-0.8,0.4-1.2
			c0.3-0.5,0.9-0.9,1.5-1.1c0.6-0.2,1.3-0.3,1.9-0.3c0.5,0,1,0,1.4,0.1c0,0-0.1,0-0.1-0.1c-0.6-0.4-1.4-0.4-2.1-0.4
			c-0.6,0-1.3,0.1-1.9,0.3c-0.6,0.2-1.2,0.6-1.5,1.1c-0.2,0.4-0.3,0.8-0.4,1.2c-0.2,0.9-0.3,1.8,0,2.7c0.1,0.4,0.3,0.7,0.5,1.1
			c0.5,0.9,1,1.8,1.9,2.3c0.2,0.1,0.4,0.2,0.6,0.3C109.8,78.3,109.3,77.5,108.8,76.7z"/>
		<path class="st13" d="M118.1,72.3c0-0.8,0.2-1.6,0.9-2.1c0.6-0.4,1.4-0.3,2.1-0.2c0.6,0.1,1.3,0.2,1.9,0.4
			c0.6,0.2,1.1,0.6,1.4,1.2c0.2,0.4,0.2,0.8,0.3,1.2c0.1,0.9,0.2,1.8-0.1,2.7c-0.1,0.4-0.3,0.7-0.6,1c-0.5,0.8-1.1,1.7-2,2.2
			c-0.8,0.4-1.8,0.4-2.8,0.6c-0.3,0.1-0.7,0.1-1,0c-0.3-0.1-0.4-0.3-0.5-0.6c-0.1-0.2-0.1-0.5-0.1-0.8c0-0.8,0.3-1.6,0.2-2.4
			c0-0.5,0.1-0.9,0.2-1.4C118.1,73.6,118.1,72.9,118.1,72.3z"/>
		<path class="st15" d="M113.3,68.3c0.1,0.1,0.2,0.2,0.3,0.3c0.4,0.4,0.1,1.2,0.5,1.6c0.1,0.1,0.3,0.2,0.4,0.3
			c0.2,0.2,0.4,0.5,0.4,0.8c0,0.3,0,0.6,0,0.9c0,1.4,0.5,2.9,0.2,4.3c-0.1,0.3-0.2,0.6-0.2,1c0,0.1,0,0.2,0.1,0.2
			c0.1,0.1,0.2,0.1,0.3,0.1c0.1,0.1,0.2,0.2,0.2,0.4c0,0.3,0,0.6,0,0.9c0,0.2-0.1,0.4,0,0.6c0,0.2,0.2,0.4,0.4,0.4
			c0.2,0,0.5-0.1,0.6-0.3c0.4-0.6,0-1.4,0.1-2.2c0-1.1,0.9-2.1,0.8-3.2c-0.1-0.8-0.6-1.5-0.4-2.2c0-0.2,0.1-0.4,0.2-0.6
			c0.1-0.2,0.1-0.5,0.1-0.7c0.2-1.2,0.8-2.2,1.7-3c0.1-0.1,0.3-0.2,0.4-0.3c-1.2,0.2-2.2,1-3.4,0.9c-0.6,0-1.1-0.2-1.7-0.4
			c-0.3-0.1-0.6-0.2-0.9-0.2C113.1,67.9,113,68,113.3,68.3z"/>
		<path class="st11" d="M113.7,70.7c0,0.2-0.2,0.5-0.5,0.5c-0.3,0.1-0.6-0.1-0.8-0.1c-0.6-0.1-1.1,0.3-1.6,0.7
			c-0.1,0.1-0.3,0.2-0.3,0.4c-0.2,0.3,0,0.7,0,1.1c0,0.5-0.2,0.9-0.2,1.4c-0.1,0.7,0.2,1.4,0.5,2.1c0.1,0.2,0.3,0.5,0.5,0.6
			c0.4,0.3,0.9,0.4,1.3,0.8c0.2,0.1,0.3,0.3,0.4,0.5c0.1,0.1,0.4,0.3,0.6,0.2c0.1,0,0.2-0.1,0.3-0.1c0.2,0,0.4,0.3,0.3,0.4
			c-0.1,0.1-0.2,0.2-0.2,0.4c0,0.2,0.3,0.2,0.4,0.1c0.4-0.2,0.6-0.6,0.6-1c0.1-0.4,0-0.8-0.1-1.2c-0.1-0.7-0.2-1.3-0.3-2
			c-0.1-0.9,0-1.7,0-2.6c0-0.9-0.2-1.8-0.7-2.5c0-0.1-0.5-0.6-0.6-0.3C113.3,70.2,113.8,70.4,113.7,70.7z"/>
		<path class="st11" d="M119.2,71.1c0.2-0.1,0.4-0.2,0.7-0.3c0.3-0.1,0.5,0,0.8,0.1c0.2,0.1,0.4,0.1,0.5,0.3
			c0.1,0.2,0.1,0.4,0.1,0.7c0.1,0.3,0.3,0.5,0.4,0.7c0.3,0.5,0.2,1.2,0,1.7c-0.2,0.6-0.4,1.1-0.5,1.7c-0.1,0.5,0,1.1-0.2,1.6
			c-0.2,0.5-0.7,0.9-1.2,1.1c-0.2,0.1-0.3,0.2-0.5,0.2c-0.1,0-0.3-0.1-0.4-0.2c-0.2-0.1-0.5-0.2-0.7-0.2c-0.1,0-0.2,0-0.3,0
			c-0.1,0-0.2,0.2-0.1,0.3c0.2,0.1,0.3,0.1,0.4,0.3c0.1,0.1,0.2,0.3,0.1,0.5c-0.1,0.2-0.5,0.2-0.7,0c-0.5-0.4-0.5-1.2-0.4-1.9
			c0.2-1.4,0.6-2.8,0.6-4.3c0-0.5,0-1.1,0.1-1.6c0.1-0.5,0.3-0.9,0.5-1.4c0.1-0.2,0.2-0.5,0.5-0.6c0.4,0,0.2,0.3,0,0.5
			C118.4,70.8,118.5,71.4,119.2,71.1z"/>
		<path class="st15" d="M114.5,70.1c0.1,0.3,0.2,0.6,0.2,0.9c0,0.3-0.2,0.6-0.5,0.7c-0.2,0.1-0.5,0.1-0.8,0.2
			c-0.3,0.1-0.5,0.4-0.3,0.6c0.2,0.3,0.7,0.2,0.8,0.5c0,0.1-0.1,0.3-0.2,0.4c-0.2,0.2-0.5,0.4-0.7,0.6c-0.2,0.2-0.3,0.6-0.1,0.8
			c0.2,0.2,0.5,0.3,0.7,0.2c0.3,0,0.5-0.1,0.8-0.1c0,0,0.1,0,0.1,0c0,0,0,0.1,0,0.1c-0.1,0.4-0.3,0.7-0.4,1.1c0,0.2,0,0.5,0.2,0.5
			c0,0,0.1,0,0.1,0c0.1,0,0.2,0.2,0.2,0.3c0,0.1-0.1,0.2-0.2,0.4c-0.2,0.4,0.2,1,0.6,1.1c0.1,0,0.3,0,0.4,0c0.2,0,0.5,0.2,0.7,0.2
			c0.1,0,0.1-0.1,0.2-0.1c0.2-0.1,0.4,0.2,0.5,0.4c0.1,0.2,0.1,0.5,0.2,0.6c0,0,0.1,0.1,0.1,0c0.1,0,0.1-0.1,0.1-0.2
			c0.1-0.3,0.1-0.7,0-1c-0.1-0.3-0.2-0.5-0.2-0.8c-0.1-0.3-0.1-0.5,0.1-0.8c0.2-0.3,0.6-0.4,0.9-0.2c0.2,0.1,0.4,0.4,0.6,0.4
			c0.3,0.1,0.6-0.3,0.6-0.7c-0.1-0.3-0.4-0.6-0.7-0.8c-0.1-0.1-0.2-0.1-0.3-0.2c-0.2-0.3,0-0.7,0.3-0.8c0.2-0.1,0.5-0.1,0.6-0.2
			c0.2-0.2,0.1-0.5-0.1-0.7c-0.2-0.2-0.5-0.2-0.8-0.2c-0.3,0-0.5-0.1-0.8-0.2c-0.2-0.2-0.3-0.5-0.2-0.8c0.1-0.3,0.4-0.5,0.7-0.5
			c0.3,0,0.6,0.2,0.9,0.2c0.1,0,0.2,0,0.3-0.1c0.1-0.1,0-0.2-0.1-0.3c-0.2-0.3-0.6-0.3-1-0.3c-0.3,0-0.8-0.1-0.8-0.4
			c0-0.2,0-0.4,0.1-0.6c0-0.2,0-0.5-0.2-0.5c-0.2,0-0.3,0.1-0.4,0.3s-0.1,0.3-0.2,0.4c-0.1,0.1-0.3,0.1-0.5,0.1
			c-0.6-0.1-1.2,0-1.7,0.2c0.1,0,0.2,0,0.2-0.1L114.5,70.1z"/>
		<path class="st16" d="M115,69.5c0.1,0.4,0.1,0.7,0.2,1.1c0.1,0.3,0.2,0.5,0.3,0.7c0.4,1.1,0,2.3,0.2,3.4c0,0.2,0.2,0.4,0.3,0.3
			c0.3-0.6,0-1.4,0.1-2.1c0.1-0.3,0.2-0.6,0.2-0.9c0.1-0.9-0.5-1.9-0.1-2.7c0.3-0.7,1.2-0.9,1.6-1.6c-0.9,0.2-1.9,0.3-2.9,0.3
			c-0.4,0-0.9-0.2-0.6,0.3C114.7,68.7,114.9,69,115,69.5z"/>
		<path class="st17" d="M110,70.7c0.2,0.3,0.5,0.5,0.8,0.7c0-0.3-0.1-0.5-0.2-0.8c0,0,0-0.1-0.1-0.1C110.4,70,109.8,70.2,110,70.7z"
			/>
		<path class="st17" d="M108.8,71.1c0,0.1,0,0.3,0.1,0.4c0.1,0.1,0.2,0.1,0.3,0.2c0.3,0.1,0.6,0.2,0.9,0.2c-0.1-0.2-0.2-0.4-0.3-0.6
			c0-0.1-0.1-0.2-0.2-0.3C109.4,70.8,108.9,70.7,108.8,71.1z"/>
		<path class="st17" d="M107.9,72.4c0,0.1,0,0.3,0.2,0.4c0.1,0,0.1,0.1,0.2,0.1c0.4,0.1,0.8,0.1,1.2-0.1c-0.2-0.2-0.4-0.3-0.6-0.5
			c-0.1-0.1-0.2-0.1-0.3-0.2C108.3,71.9,108,71.9,107.9,72.4z"/>
		<path class="st17" d="M108.3,73.4c-0.1,0-0.3,0.1-0.4,0.2c-0.1,0.1-0.1,0.3-0.1,0.4c0,0.1,0,0.2,0.1,0.3c0.1,0.1,0.2,0.1,0.2,0.1
			c0.1,0,0.3,0,0.4-0.1c0.2-0.1,1.2-0.5,1-0.8c-0.1-0.1-0.4-0.1-0.5-0.1C108.9,73.5,108.6,73.4,108.3,73.4z"/>
		<path class="st17" d="M109.1,75c-0.2,0-0.5,0-0.7,0.1c-0.2,0.1-0.4,0.3-0.3,0.5c0,0.2,0.2,0.3,0.3,0.4c0.1,0,0.1,0.1,0.2,0.1
			c0.1,0,0.1,0,0.2-0.1c0.3-0.2,0.6-0.4,1-0.7C110.1,74.9,109.2,75,109.1,75z"/>
		<path class="st17" d="M109,76.4c-0.2,0.2-0.2,0.5-0.1,0.7c0.1,0.1,0.3,0.2,0.5,0.1c0.2,0,0.3-0.1,0.4-0.3c0.1-0.2,0.2-0.3,0.3-0.5
			C110.5,75.8,109.2,76.2,109,76.4z"/>
		<path class="st17" d="M109.8,77.8c-0.1,0.1,0,0.3,0.1,0.4c0.1,0.1,0.2,0.1,0.3,0.1c0,0,0.1,0,0.1,0c0,0,0.1,0,0.1-0.1
			c0.1-0.1,0.5-0.6,0.3-0.8C110.4,77.2,109.9,77.6,109.8,77.8z"/>
		<path class="st17" d="M110.8,78.4c0,0.1,0,0.1,0,0.2c0,0.1,0.1,0.2,0.2,0.2c0.1,0,0.2,0,0.3-0.1c0.1-0.1,0.2-0.2,0.2-0.3
			c0.1-0.2,0.2-0.7-0.2-0.6C111.1,77.9,110.9,78.2,110.8,78.4z"/>
		<path class="st17" d="M112.1,78.3c-0.1,0.1-0.1,0.3-0.2,0.4c0,0.1,0,0.2,0,0.3c0.1,0.1,0.2,0.1,0.4,0.1c0,0,0.1,0,0.1,0
			c0,0,0,0,0-0.1c0-0.2,0-0.4-0.1-0.5C112.4,78.3,112.3,78.1,112.1,78.3z"/>
		<path class="st17" d="M111.2,70.2c-0.1,0.1,0,0.3,0.1,0.4c0.1,0.1,0.2,0.3,0.3,0.4c0.1-0.1,0.2-0.3,0.2-0.5c0-0.1,0.1-0.2,0.1-0.3
			C111.7,70.1,111.3,70.1,111.2,70.2z"/>
		<path class="st17" d="M112.5,70.2c-0.1,0-0.3,0-0.3,0.2c-0.1,0.1,0,0.3,0,0.4c0,0.1,0,0.1,0.1,0.1c0,0,0.1,0,0.1,0
			c0.1-0.1,0.2-0.2,0.3-0.3c0,0,0.1-0.1,0.1-0.2c0-0.1,0-0.1-0.1-0.2C112.6,70.2,112.5,70.2,112.5,70.2L112.5,70.2z"/>
		<path class="st17" d="M122.3,70.5c-0.1,0.3-0.5,0.5-0.8,0.7c0-0.3,0.1-0.5,0.1-0.8c0,0,0-0.1,0-0.1
			C121.8,69.9,122.5,70,122.3,70.5z"/>
		<path class="st17" d="M123.5,70.9c0,0.1,0,0.3-0.1,0.4c-0.1,0.1-0.2,0.1-0.3,0.2c-0.3,0.1-0.6,0.2-0.8,0.2
			c0.1-0.2,0.2-0.4,0.2-0.6c0-0.1,0.1-0.2,0.1-0.3C122.9,70.6,123.4,70.5,123.5,70.9z"/>
		<path class="st17" d="M124.4,72.1c0,0.1,0,0.3-0.1,0.4c-0.1,0-0.1,0.1-0.2,0.1c-0.4,0.1-0.8,0.1-1.2,0c0.2-0.2,0.4-0.3,0.6-0.5
			c0.1-0.1,0.2-0.2,0.3-0.2C124.1,71.7,124.4,71.7,124.4,72.1z"/>
		<path class="st17" d="M124.1,73.2c0.1,0,0.3,0.1,0.4,0.2c0.1,0.1,0.1,0.3,0.1,0.4c0,0.1,0,0.2,0,0.3c-0.1,0.1-0.1,0.1-0.2,0.2
			c-0.1,0-0.3,0-0.4-0.1c-0.2-0.1-1.3-0.4-1.1-0.8c0.1-0.1,0.4-0.1,0.5-0.1C123.6,73.2,123.9,73.2,124.1,73.2z"/>
		<path class="st17" d="M123.5,74.7c0.2,0,0.5,0,0.7,0c0.2,0.1,0.4,0.3,0.4,0.5c0,0.2-0.1,0.3-0.3,0.4c-0.1,0-0.1,0.1-0.2,0.1
			c-0.1,0-0.1,0-0.2-0.1c-0.3-0.2-0.7-0.4-1-0.6C122.4,74.8,123.4,74.7,123.5,74.7z"/>
		<path class="st17" d="M123.6,76.2c0.2,0.2,0.3,0.5,0.1,0.7c-0.1,0.1-0.3,0.2-0.5,0.2c-0.2,0-0.3-0.1-0.4-0.3
			c-0.1-0.1-0.2-0.3-0.3-0.5C122.1,75.6,123.4,76,123.6,76.2z"/>
		<path class="st17" d="M122.9,77.6c0.1,0.1,0.1,0.3,0,0.4c-0.1,0.1-0.2,0.1-0.3,0.1c0,0-0.1,0-0.1,0c0,0-0.1,0-0.1-0.1
			c-0.1-0.1-0.6-0.6-0.3-0.8C122.3,77.1,122.8,77.4,122.9,77.6z"/>
		<path class="st17" d="M121.9,78.2c0,0.1,0.1,0.1,0.1,0.2c0,0.1-0.1,0.2-0.2,0.2c-0.1,0-0.2,0-0.3-0.1c-0.1-0.1-0.2-0.2-0.2-0.3
			c-0.1-0.2-0.3-0.7,0.2-0.6C121.5,77.8,121.8,78,121.9,78.2z"/>
		<path class="st17" d="M120.6,78.2c0.1,0.1,0.1,0.3,0.2,0.4c0,0.1,0,0.2,0,0.3c-0.1,0.1-0.2,0.1-0.4,0.1c0,0-0.1,0-0.1,0
			c0,0,0,0,0-0.1c-0.1-0.2,0-0.4,0-0.5C120.3,78.2,120.4,78,120.6,78.2z"/>
		<path class="st17" d="M121.1,70.1c0.1,0.1,0,0.3,0,0.4c-0.1,0.1-0.2,0.3-0.2,0.4c-0.1-0.1-0.2-0.3-0.3-0.4c0-0.1-0.1-0.2-0.1-0.3
			C120.5,70,121,70,121.1,70.1z"/>
		<path class="st17" d="M119.8,70.1c0.1-0.1,0.3,0,0.3,0.1c0.1,0.1,0.1,0.2,0,0.4c0,0.1,0,0.1-0.1,0.1c0,0-0.1,0-0.1,0
			c-0.1-0.1-0.2-0.2-0.3-0.3c0,0-0.1-0.1-0.1-0.2c0-0.1,0-0.1,0.1-0.2C119.7,70.1,119.8,70.1,119.8,70.1L119.8,70.1z"/>
		<path class="st18" d="M106.6,73.3c0.3-0.6,0.1-1.3,0.3-2c0.2-0.7,0.9-1.3,1.7-1.5c0.7-0.3,1.5-0.4,2.3-0.6
			c0.2-0.1,0.5-0.2,0.4-0.4c0-0.1-0.1-0.1-0.1-0.2c-0.5-0.4-1.2-0.3-1.8,0c-0.9,0.4-1.7,1-2.4,1.7c-0.5,0.5-1.2,1.1-1.2,1.9
			C105.7,72.5,106.1,74.3,106.6,73.3z"/>
		<path class="st18" d="M106,74.9c0,0.4,0.1,0.9,0.3,1.3c0.1,0.2,0.2,0.5,0.3,0.7c0.1,0.2,0.2,0.4,0.4,0.4c0.2,0,0.3-0.1,0.4-0.3
			c0-0.2,0-0.3,0-0.5c-0.1-0.4-0.3-0.8-0.3-1.2c0-0.2,0-0.4,0-0.5C106.9,74.1,106,74.2,106,74.9z"/>
		<path class="st18" d="M124.2,78.6c0.7-0.8,1.3-1.8,1.4-2.8c0-0.1,0-0.2-0.1-0.2c-0.1-0.1-0.2,0-0.3,0.1c-0.3,0.3-0.3,0.8-0.5,1.1
			c-0.1,0.3-0.3,0.6-0.5,0.9c-0.2,0.2-0.4,0.6-0.6,0.8c-0.1,0.1-0.4,0.1-0.5,0.3C122.9,79.4,124.1,78.7,124.2,78.6z"/>
	</g>
	<g>
		<path class="st10" d="M318.8,61.8c-1.5-0.8-3,0-4.6,0.7c-1.6,0.7-2.9,2-3.6,3.6c-0.2,0.5-0.4,1.2-0.8,1.6
			c-0.5,0.3-1.2,0.4-1.8,0.4c-1.7,0.3-3.3,1.2-4.3,2.6c-1,1.4-2.1,2.7-1.7,4.4c0.4,1.7,2.4,3.5,3.8,4.6c0.7,0.5,1.4,1,2.2,1.2
			c1.6,0.5,3.3,0.3,4.8-0.3c3.5-1.4,7.8-5.1,8.8-6.9c0.8-1.4,1.6-3,1.5-4.6c-0.1-0.8-0.4-1.6-0.7-2.4
			C321.8,65.1,320.4,62.6,318.8,61.8z"/>
		<path class="st11" d="M318.2,61.4c-1.5-0.8-3.3-0.8-4.9-0.2c-1.6,0.7-2.9,2-3.6,3.6c-0.2,0.5-0.4,1.2-0.8,1.6
			c-0.5,0.3-1.2,0.4-1.8,0.4c-1.7,0.3-3.3,1.2-4.3,2.6c-1,1.4-1.4,3.2-1,4.8c0.4,1.7,1.7,3.1,3.1,4.2c0.7,0.5,1.4,1,2.2,1.2
			c1.6,0.5,3.3,0.3,4.8-0.3c3.5-1.4,7.8-5.1,8.8-6.9c0.8-1.4,1.6-3,1.5-4.6c-0.1-0.8-0.4-1.6-0.7-2.4
			C320.7,63.8,319.7,62.2,318.2,61.4z"/>
		<path class="st12" d="M318.1,61.4c-1.5-0.8-3.3-0.8-4.9-0.2c-1.6,0.7-2.9,2-3.6,3.6c-0.2,0.5-0.4,1.2-0.8,1.6
			c-0.5,0.3-1.2,0.4-1.8,0.4c-1.7,0.3-3.3,1.2-4.3,2.6c-1,1.4-1.4,3.2-1,4.8c0.4,1.7,1.7,3.1,3.1,4.2c0.7,0.5,1.4,1,2.2,1.2
			c1.6,0.5,3.3,0.3,4.8-0.3c3.5-1.4,7.8-5.1,8.8-6.9c0.8-1.4,1.6-3,1.5-4.6c-0.1-0.8-0.4-1.6-0.7-2.4
			C320.7,63.8,319.7,62.2,318.1,61.4z M321.1,65.5c0.3,0.7,0.6,1.5,0.6,2.3c0.1,1.6-0.7,3-1.5,4.4c-1,1.8-5.2,5.4-8.5,6.7
			c-1.5,0.6-3.1,0.9-4.6,0.4c-0.8-0.3-1.4-0.7-2.1-1.2c-1.3-1-2.5-2.3-2.9-3.9c-0.4-1.6,0-3.3,1-4.6c1-1.4,2.5-2.3,4.2-2.6
			c0.6-0.1,1.2-0.1,1.7-0.4c0.4-0.4,0.6-1,0.8-1.6c0.6-1.5,1.9-2.8,3.5-3.4c1.5-0.6,3.3-0.6,4.7,0.1C319.5,62.5,320.4,64,321.1,65.5
			z"/>
		<path class="st13" d="M309.6,70.1c-0.5-0.6-1.1-1.2-1.9-1.2c-0.7,0-1.3,0.5-1.9,1c-0.5,0.4-1,0.9-1.3,1.4
			c-0.3,0.5-0.6,1.2-0.5,1.8c0.1,0.4,0.3,0.8,0.4,1.1c0.4,0.8,0.9,1.6,1.6,2.1c0.3,0.2,0.7,0.4,1,0.5c0.9,0.4,1.9,0.8,2.9,0.6
			c0.9-0.1,1.7-0.7,2.6-1.1c0.3-0.1,0.7-0.3,0.8-0.6c0.1-0.2,0.2-0.5,0.1-0.8c-0.1-0.3-0.2-0.5-0.4-0.7c-0.5-0.6-1.2-1.1-1.6-1.8
			c-0.3-0.4-0.6-0.7-1-1.1C310.2,71.1,309.9,70.5,309.6,70.1z"/>
		<path class="st14" d="M307.9,76.7c-0.4-0.2-0.7-0.3-1-0.5c-0.7-0.5-1.2-1.3-1.6-2.1c-0.2-0.4-0.4-0.7-0.4-1.1
			c-0.1-0.6,0.1-1.3,0.5-1.8c0.3-0.5,0.8-1,1.3-1.4c0.4-0.3,0.7-0.6,1.2-0.8c0,0-0.1,0-0.1,0c-0.7,0-1.3,0.5-1.9,1
			c-0.5,0.4-1,0.9-1.3,1.4c-0.3,0.5-0.6,1.2-0.5,1.8c0.1,0.4,0.3,0.8,0.4,1.1c0.4,0.8,0.9,1.6,1.6,2.1c0.3,0.2,0.7,0.4,1,0.5
			c0.9,0.4,1.9,0.8,2.9,0.6c0.2,0,0.4-0.1,0.6-0.2C309.7,77.5,308.8,77.1,307.9,76.7z"/>
		<path class="st13" d="M312.5,67.6c-0.5-0.6-0.8-1.4-0.6-2.2c0.2-0.7,0.9-1.1,1.5-1.5c0.6-0.3,1.1-0.7,1.7-0.8
			c0.6-0.2,1.3-0.2,1.9,0.1c0.4,0.2,0.7,0.5,1,0.8c0.6,0.6,1.3,1.3,1.5,2.2c0.1,0.4,0.2,0.8,0.2,1.1c0.1,1,0.2,2-0.2,3
			c-0.4,0.8-1.2,1.5-1.8,2.2c-0.2,0.3-0.5,0.5-0.8,0.6c-0.3,0.1-0.5,0-0.8-0.1c-0.2-0.1-0.4-0.3-0.5-0.6c-0.5-0.7-0.8-1.4-1.3-2
			c-0.3-0.4-0.5-0.8-0.7-1.2C313.3,68.6,312.9,68.1,312.5,67.6z"/>
		<path class="st15" d="M306.2,67.4c0.2,0,0.3,0,0.5,0c0.6,0.1,0.8,0.9,1.4,1c0.2,0,0.3,0,0.5,0c0.3,0,0.6,0.2,0.8,0.4
			c0.2,0.2,0.4,0.5,0.6,0.7c0.9,1.1,2.2,1.9,2.8,3.2c0.2,0.3,0.3,0.6,0.5,0.9c0,0.1,0.1,0.1,0.2,0.1c0.1,0,0.2-0.1,0.3-0.1
			c0.1,0,0.3,0.1,0.4,0.2c0.2,0.2,0.4,0.5,0.6,0.7c0.1,0.2,0.2,0.3,0.4,0.5c0.2,0.1,0.4,0.2,0.5,0.1c0.2-0.1,0.3-0.4,0.2-0.6
			c-0.1-0.7-0.9-1.2-1.3-1.8c-0.6-0.9-0.6-2.2-1.4-3c-0.5-0.6-1.4-0.8-1.7-1.5c-0.1-0.2-0.1-0.4-0.2-0.6c-0.1-0.2-0.2-0.4-0.3-0.7
			c-0.6-1-0.7-2.3-0.5-3.4c0-0.2,0.1-0.3,0.1-0.5c-0.8,0.9-1.2,2.1-2.1,2.8c-0.5,0.4-1,0.5-1.6,0.7c-0.3,0.1-0.6,0.2-0.8,0.3
			C305.8,67.2,305.9,67.4,306.2,67.4z"/>
		<path class="st11" d="M308.1,69c0.1,0.2,0.1,0.5,0,0.7c-0.2,0.2-0.5,0.3-0.7,0.4c-0.5,0.3-0.7,0.9-0.8,1.5c0,0.2-0.1,0.3,0,0.5
			c0.1,0.3,0.4,0.6,0.6,0.8c0.3,0.4,0.4,0.8,0.7,1.2c0.4,0.6,1,1,1.7,1.3c0.2,0.1,0.5,0.2,0.8,0.2c0.5,0,1-0.3,1.5-0.2
			c0.2,0,0.4,0.1,0.6,0.1c0.2,0,0.4,0,0.6-0.2c0.1-0.1,0.1-0.2,0.2-0.3c0.2-0.1,0.5,0,0.5,0.2c0,0.1,0,0.3,0,0.4
			c0.1,0.1,0.4,0,0.4-0.2c0.2-0.4,0.1-0.8-0.1-1.1c-0.2-0.3-0.5-0.6-0.8-0.9c-0.5-0.4-1-0.9-1.4-1.4c-0.6-0.7-1.1-1.4-1.6-2
			c-0.6-0.7-1.2-1.3-2.1-1.6c-0.1,0-0.8-0.1-0.6,0.1C307.4,68.8,308,68.8,308.1,69z"/>
		<path class="st11" d="M312.7,66c0.1-0.2,0.2-0.5,0.3-0.6c0.2-0.2,0.4-0.3,0.6-0.4c0.2-0.1,0.4-0.1,0.6-0.1
			c0.2,0.1,0.3,0.3,0.5,0.4c0.2,0.2,0.5,0.2,0.8,0.3c0.5,0.2,0.9,0.8,1.1,1.3c0.2,0.5,0.3,1.1,0.6,1.6c0.3,0.5,0.7,0.9,0.8,1.4
			c0.1,0.6-0.1,1.1-0.3,1.7c-0.1,0.2-0.1,0.4-0.3,0.5c-0.1,0.1-0.3,0.1-0.4,0.1c-0.2,0-0.5,0.1-0.7,0.3c-0.1,0.1-0.2,0.1-0.2,0.2
			c0,0.1,0,0.2,0.1,0.3c0.2,0,0.3-0.1,0.5-0.1c0.2,0,0.3,0.1,0.4,0.3c0,0.3-0.3,0.5-0.6,0.4c-0.7,0-1.1-0.6-1.5-1.2
			c-0.7-1.2-1.3-2.6-2.1-3.7c-0.3-0.4-0.7-0.8-0.9-1.3c-0.2-0.4-0.4-0.9-0.5-1.4c-0.1-0.2-0.1-0.6,0-0.8c0.3-0.3,0.3,0.2,0.3,0.4
			C311.8,66.2,312.3,66.6,312.7,66z"/>
		<path class="st15" d="M308.3,68.1c0.3,0.1,0.5,0.3,0.7,0.6c0.2,0.3,0.2,0.6,0.1,0.9c-0.1,0.2-0.4,0.4-0.5,0.6
			c-0.1,0.2-0.1,0.6,0.1,0.7c0.3,0.1,0.6-0.3,0.9-0.1c0.1,0.1,0.1,0.3,0.1,0.4c0,0.3-0.2,0.6-0.2,0.9c0,0.3,0.1,0.7,0.4,0.7
			c0.3,0.1,0.5-0.1,0.7-0.3c0.2-0.2,0.3-0.4,0.6-0.6c0,0,0.1,0,0.1,0c0,0,0.1,0,0.1,0.1c0.2,0.3,0.2,0.8,0.4,1.1
			c0.1,0.2,0.3,0.4,0.5,0.3c0,0,0.1-0.1,0.1-0.1c0.1-0.1,0.3,0,0.3,0.2s0.1,0.2,0.1,0.4c0.1,0.5,0.7,0.7,1.1,0.4
			c0.1-0.1,0.2-0.2,0.3-0.2c0.2-0.1,0.5-0.1,0.6-0.3c0-0.1,0.1-0.2,0.1-0.2c0.1-0.2,0.4-0.1,0.6,0c0.2,0.1,0.4,0.3,0.6,0.3
			c0,0,0.1,0,0.1,0c0.1-0.1,0-0.2,0-0.2c-0.2-0.3-0.4-0.6-0.7-0.8c-0.2-0.2-0.5-0.3-0.7-0.4c-0.2-0.2-0.4-0.4-0.4-0.6
			c0-0.4,0.2-0.7,0.6-0.8c0.2,0,0.5,0.1,0.7-0.1c0.3-0.2,0.3-0.7,0-0.9c-0.3-0.2-0.7-0.2-1-0.2c-0.1,0-0.2,0-0.4,0
			c-0.3-0.1-0.4-0.6-0.3-0.9c0.1-0.2,0.3-0.3,0.3-0.5c0-0.3-0.3-0.5-0.5-0.5c-0.3,0-0.5,0.2-0.7,0.3c-0.2,0.1-0.5,0.3-0.7,0.3
			c-0.3,0-0.6-0.2-0.7-0.5c-0.1-0.3,0-0.6,0.2-0.8c0.2-0.2,0.5-0.2,0.8-0.4c0.1-0.1,0.2-0.2,0.1-0.3c0-0.1-0.1-0.2-0.2-0.2
			c-0.3-0.1-0.6,0.2-0.9,0.4s-0.7,0.4-0.9,0.2c-0.2-0.1-0.2-0.3-0.3-0.5c-0.1-0.2-0.3-0.3-0.5-0.2c-0.1,0.1-0.1,0.3-0.1,0.4
			s0.1,0.3,0,0.5c0,0.2-0.2,0.3-0.4,0.4c-0.5,0.3-1,0.7-1.2,1.2c0.1,0,0.1-0.1,0.1-0.2L308.3,68.1z"/>
		<path class="st16" d="M308.3,67.2c0.3,0.2,0.5,0.5,0.9,0.7c0.2,0.1,0.5,0.2,0.7,0.4c1,0.6,1.4,1.8,2.2,2.5
			c0.1,0.1,0.4,0.2,0.5,0.1c-0.2-0.7-0.9-1.1-1.2-1.7c-0.1-0.3-0.2-0.6-0.4-0.8c-0.5-0.8-1.6-1.2-1.8-2.1c-0.2-0.7,0.4-1.5,0.3-2.2
			c-0.6,0.8-1.3,1.4-2.1,2c-0.3,0.2-0.8,0.4-0.3,0.6C307.6,66.9,308,67,308.3,67.2z"/>
		<path class="st17" d="M305.1,71.3c0.3,0.2,0.7,0.1,1.1,0c-0.2-0.2-0.4-0.4-0.6-0.5c0,0-0.1-0.1-0.1-0.1
			C305.1,70.5,304.7,71.1,305.1,71.3z"/>
		<path class="st17" d="M304.5,72.4c0.1,0.1,0.2,0.2,0.3,0.3c0.1,0,0.2,0,0.3,0c0.3-0.1,0.6-0.2,0.8-0.4c-0.2-0.1-0.4-0.2-0.5-0.3
			c-0.1,0-0.2-0.1-0.3-0.1C304.7,71.7,304.3,72,304.5,72.4z"/>
		<path class="st17" d="M304.6,73.9c0.1,0.1,0.2,0.2,0.4,0.2c0.1,0,0.1,0,0.2-0.1c0.4-0.2,0.7-0.5,0.9-0.8c-0.3,0-0.5,0-0.8,0
			c-0.1,0-0.2,0-0.3,0C304.6,73.3,304.3,73.6,304.6,73.9z"/>
		<path class="st17" d="M305.5,74.5c-0.1,0.1-0.1,0.3-0.1,0.4s0.1,0.3,0.2,0.4c0.1,0.1,0.1,0.2,0.2,0.2c0.1,0,0.2,0,0.3,0
			c0.1-0.1,0.2-0.2,0.3-0.3c0.1-0.2,0.7-1.2,0.3-1.3c-0.2,0-0.4,0.1-0.5,0.2C306,74.2,305.7,74.3,305.5,74.5z"/>
		<path class="st17" d="M307.1,75.3c-0.2,0.1-0.4,0.3-0.5,0.5c-0.1,0.2-0.1,0.5,0.1,0.6c0.1,0.1,0.3,0.1,0.5,0.1
			c0.1,0,0.2,0,0.2-0.1c0,0,0.1-0.1,0.1-0.2c0.1-0.4,0.2-0.7,0.3-1.1C307.9,74.6,307.1,75.2,307.1,75.3z"/>
		<path class="st17" d="M307.9,76.4c0,0.2,0.1,0.5,0.4,0.6c0.2,0,0.3-0.1,0.4-0.2c0.1-0.1,0.1-0.3,0.2-0.5c0-0.2,0-0.4-0.1-0.6
			C308.6,75,307.9,76.1,307.9,76.4z"/>
		<path class="st17" d="M309.3,77c0,0.1,0.1,0.2,0.3,0.2c0.1,0,0.2,0,0.3-0.1c0,0,0.1,0,0.1-0.1c0,0,0-0.1,0-0.1
			c0-0.2,0-0.8-0.3-0.8C309.5,76.2,309.3,76.8,309.3,77z"/>
		<path class="st17" d="M310.5,76.9c0,0.1,0,0.1,0.1,0.2c0.1,0.1,0.2,0.1,0.3,0c0.1-0.1,0.2-0.2,0.2-0.3c0-0.1,0-0.2,0-0.4
			c-0.1-0.2-0.3-0.7-0.5-0.4C310.5,76.3,310.5,76.7,310.5,76.9z"/>
		<path class="st17" d="M311.5,76c0,0.1,0.1,0.3,0.1,0.4c0,0.1,0.1,0.2,0.2,0.2c0.1,0,0.3,0,0.4-0.1c0,0,0.1-0.1,0.1-0.1
			c0,0,0-0.1,0-0.1c-0.1-0.2-0.2-0.3-0.4-0.4C311.8,75.8,311.5,75.7,311.5,76z"/>
		<path class="st17" d="M305.8,70.2c0,0.1,0.2,0.2,0.3,0.2c0.2,0.1,0.3,0.1,0.5,0.2c0-0.2-0.1-0.3-0.1-0.5c0-0.1-0.1-0.2-0.1-0.3
			C306.1,69.8,305.8,70,305.8,70.2z"/>
		<path class="st17" d="M306.8,69.4c-0.1,0-0.2,0.2-0.1,0.3c0,0.1,0.1,0.2,0.2,0.3c0,0,0.1,0.1,0.1,0.1c0,0,0.1-0.1,0.1-0.1
			c0-0.1,0.1-0.3,0.1-0.4c0-0.1,0-0.1,0-0.2c0-0.1-0.1-0.1-0.2-0.1C306.9,69.3,306.8,69.4,306.8,69.4L306.8,69.4z"/>
		<path class="st17" d="M314.7,63.6c0.1,0.3,0,0.7-0.2,1.1c-0.2-0.2-0.3-0.5-0.4-0.7c0,0,0-0.1,0-0.1
			C314,63.4,314.5,63.1,314.7,63.6z"/>
		<path class="st17" d="M315.9,63.1c0.1,0.1,0.2,0.2,0.2,0.3c0,0.1,0,0.2-0.1,0.3c-0.1,0.3-0.3,0.5-0.5,0.7
			c-0.1-0.2-0.1-0.4-0.2-0.6c0-0.1-0.1-0.2-0.1-0.3C315.2,63.3,315.5,62.9,315.9,63.1z"/>
		<path class="st17" d="M317.4,63.5c0.1,0.1,0.2,0.2,0.1,0.4c0,0.1-0.1,0.1-0.1,0.2c-0.3,0.3-0.6,0.6-1,0.7c0-0.3,0.1-0.5,0.1-0.8
			c0-0.1,0-0.2,0.1-0.3C316.8,63.4,317.1,63.2,317.4,63.5z"/>
		<path class="st17" d="M317.8,64.6c0.1-0.1,0.3-0.1,0.4-0.1c0.1,0,0.3,0.1,0.4,0.2c0.1,0.1,0.1,0.2,0.1,0.3c0,0.1,0,0.2-0.1,0.3
			c-0.1,0.1-0.2,0.2-0.4,0.2c-0.2,0.1-1.3,0.4-1.3,0c0-0.2,0.2-0.3,0.3-0.4C317.4,64.9,317.6,64.7,317.8,64.6z"/>
		<path class="st17" d="M318.2,66.2c0.2-0.2,0.3-0.3,0.6-0.4c0.2-0.1,0.5,0,0.6,0.2c0.1,0.1,0.1,0.3,0,0.5c0,0.1-0.1,0.1-0.1,0.2
			c-0.1,0-0.1,0-0.2,0.1c-0.4,0.1-0.8,0.1-1.2,0.1C317.4,66.9,318.1,66.3,318.2,66.2z"/>
		<path class="st17" d="M319.2,67.3c0.2,0,0.5,0.2,0.5,0.5c0,0.2-0.1,0.3-0.3,0.4s-0.3,0.1-0.5,0.1c-0.2,0-0.4-0.1-0.6-0.2
			C317.7,67.7,318.9,67.2,319.2,67.3z"/>
		<path class="st17" d="M319.5,68.8c0.1,0,0.2,0.2,0.2,0.3c0,0.1-0.1,0.2-0.2,0.3c0,0,0,0-0.1,0.1c0,0-0.1,0-0.1,0
			c-0.2,0-0.8-0.1-0.7-0.4C318.7,68.8,319.4,68.7,319.5,68.8z"/>
		<path class="st17" d="M319.2,69.9c0.1,0,0.1,0.1,0.2,0.1c0.1,0.1,0.1,0.2,0,0.3c-0.1,0.1-0.2,0.1-0.3,0.1c-0.1,0-0.2,0-0.3-0.1
			c-0.2-0.1-0.6-0.4-0.3-0.6C318.6,69.7,319,69.8,319.2,69.9z"/>
		<path class="st17" d="M318.1,70.7c0.1,0,0.3,0.1,0.4,0.2c0.1,0.1,0.1,0.1,0.2,0.2c0,0.1-0.1,0.3-0.2,0.3c0,0-0.1,0.1-0.1,0.1
			c0,0,0,0-0.1,0c-0.2-0.1-0.3-0.3-0.3-0.4C317.9,70.9,317.9,70.6,318.1,70.7z"/>
		<path class="st17" d="M313.5,64c0.1,0,0.2,0.2,0.2,0.3c0,0.2,0.1,0.3,0.1,0.5c-0.2-0.1-0.3-0.1-0.5-0.2c-0.1,0-0.2-0.1-0.2-0.2
			C313,64.3,313.3,64,313.5,64z"/>
		<path class="st17" d="M312.5,64.8c0.1-0.1,0.2-0.1,0.3-0.1c0.1,0.1,0.2,0.2,0.3,0.3c0,0,0.1,0.1,0,0.1c0,0-0.1,0-0.1,0
			c-0.1,0-0.3,0-0.4,0c-0.1,0-0.1,0-0.2-0.1c-0.1,0-0.1-0.1,0-0.2C312.4,64.9,312.5,64.9,312.5,64.8L312.5,64.8z"/>
		<path class="st18" d="M304,75.4c-0.1-0.7-0.7-1.1-1-1.8c-0.3-0.7,0-1.6,0.4-2.2c0.4-0.7,1-1.2,1.4-1.9c0.1-0.2,0.2-0.4,0.1-0.6
			c-0.1-0.1-0.1-0.1-0.2-0.1c-0.6-0.1-1.2,0.5-1.5,1.1c-0.5,0.9-0.7,1.9-0.8,2.9c-0.1,0.7-0.2,1.6,0.3,2.3
			C302.9,75.4,304.3,76.6,304,75.4z"/>
		<path class="st18" d="M304.6,77.1c0.2,0.4,0.7,0.6,1,0.8c0.2,0.1,0.5,0.2,0.7,0.4c0.2,0.1,0.4,0.2,0.6,0.1
			c0.1-0.1,0.2-0.3,0.1-0.5c-0.1-0.2-0.2-0.3-0.3-0.4c-0.3-0.2-0.7-0.4-1-0.7c-0.1-0.1-0.2-0.3-0.3-0.4
			C304.8,75.9,304.2,76.6,304.6,77.1z"/>
		<path class="st18" d="M321.2,68.7c0.1-1.1,0-2.2-0.6-3.1c0-0.1-0.1-0.1-0.2-0.1c-0.1,0-0.2,0.1-0.2,0.2c-0.1,0.4,0.2,0.8,0.3,1.2
			c0.1,0.3,0.1,0.7,0.1,1.1c0,0.3,0.1,0.7,0,1c0,0.2-0.2,0.4-0.2,0.5C320.7,70.2,321.2,68.9,321.2,68.7z"/>
	</g>
	<g>
		<path class="st10" d="M239.6,81.5c-0.4-1.3-1.7-1.8-3-2.3c-1.3-0.6-2.9-0.6-4.2-0.1c-0.5,0.2-0.9,0.4-1.5,0.4
			c-0.5-0.1-0.9-0.5-1.3-0.8c-1.1-0.9-2.6-1.3-4.1-1.1c-1.4,0.2-2.9,0.3-3.6,1.5c-0.8,1.2-0.7,3.5-0.5,4.9c0.1,0.7,0.2,1.4,0.5,2
			c0.6,1.2,1.7,2.1,3,2.7c2.8,1.3,7.5,1.7,9.2,1.3c1.3-0.3,2.7-0.7,3.6-1.8c0.5-0.5,0.8-1.2,1-1.8C239.3,85.1,240,82.9,239.6,81.5z"
			/>
		<path class="st11" d="M239.5,80.8c-0.4-1.3-1.4-2.5-2.7-3c-1.3-0.6-2.9-0.6-4.2-0.1c-0.5,0.2-0.9,0.4-1.5,0.4
			c-0.5-0.1-0.9-0.5-1.3-0.8c-1.1-0.9-2.6-1.3-4.1-1.1c-1.4,0.2-2.7,1-3.4,2.2c-0.8,1.2-0.9,2.8-0.7,4.3c0.1,0.7,0.2,1.4,0.5,2
			c0.6,1.2,1.7,2.1,3,2.7c2.8,1.3,7.5,1.7,9.2,1.3c1.3-0.3,2.7-0.7,3.6-1.8c0.5-0.5,0.8-1.2,1-1.8C239.5,83.7,239.9,82.2,239.5,80.8
			z"/>
		<path class="st12" d="M239.5,80.8c-0.4-1.3-1.4-2.5-2.7-3c-1.3-0.6-2.9-0.6-4.2-0.1c-0.5,0.2-0.9,0.4-1.5,0.4
			c-0.5-0.1-0.9-0.5-1.3-0.8c-1.1-0.9-2.6-1.3-4.1-1.1c-1.4,0.2-2.7,1-3.4,2.2c-0.8,1.2-0.9,2.8-0.7,4.3c0.1,0.7,0.2,1.4,0.5,2
			c0.6,1.2,1.7,2.1,3,2.7c2.8,1.3,7.5,1.7,9.2,1.3c1.3-0.3,2.7-0.7,3.6-1.8c0.5-0.5,0.8-1.2,1-1.8C239.5,83.7,239.9,82.2,239.5,80.8
			z M238.7,84.9c-0.3,0.6-0.6,1.2-1,1.7c-0.9,1-2.2,1.4-3.5,1.7c-1.6,0.4-6.2,0-8.9-1.2c-1.2-0.5-2.3-1.4-2.9-2.6
			c-0.3-0.6-0.4-1.3-0.5-1.9c-0.2-1.4-0.1-2.8,0.6-4c0.7-1.1,2-1.9,3.3-2c1.4-0.2,2.8,0.2,3.9,1c0.4,0.3,0.8,0.7,1.2,0.8
			c0.5,0,1-0.2,1.4-0.4c1.3-0.5,2.8-0.5,4.1,0.1c1.2,0.5,2.3,1.6,2.6,2.9C239.5,82.2,239.2,83.7,238.7,84.9z"/>
		<path class="st13" d="M229.4,80.7c0.1-0.6,0.1-1.4-0.4-1.8c-0.4-0.4-1.1-0.5-1.7-0.5c-0.5,0-1.1-0.1-1.6,0c-0.5,0.1-1,0.3-1.3,0.7
			c-0.2,0.3-0.3,0.6-0.4,0.9c-0.2,0.7-0.4,1.5-0.3,2.2c0.1,0.3,0.2,0.6,0.3,0.9c0.3,0.8,0.6,1.6,1.3,2.1c0.6,0.5,1.4,0.6,2.2,0.9
			c0.3,0.1,0.5,0.2,0.8,0.2c0.2,0,0.4-0.2,0.5-0.4c0.1-0.2,0.2-0.4,0.2-0.6c0.1-0.7,0-1.3,0.2-2c0.1-0.4,0.1-0.8,0.1-1.2
			C229.1,81.7,229.3,81.2,229.4,80.7z"/>
		<path class="st14" d="M224.4,83.5c-0.1-0.3-0.2-0.6-0.3-0.9c-0.1-0.7,0.1-1.5,0.3-2.2c0.1-0.3,0.2-0.7,0.4-0.9
			c0.3-0.4,0.8-0.6,1.3-0.7c0.5-0.1,1.1-0.1,1.6,0c0.4,0,0.8,0.1,1.2,0.2c0,0,0,0-0.1-0.1c-0.4-0.4-1.1-0.5-1.7-0.5
			c-0.5,0-1.1-0.1-1.6,0c-0.5,0.1-1,0.3-1.3,0.7c-0.2,0.3-0.3,0.6-0.4,0.9c-0.2,0.7-0.4,1.5-0.3,2.2c0.1,0.3,0.2,0.6,0.3,0.9
			c0.3,0.8,0.6,1.6,1.3,2.1c0.1,0.1,0.3,0.2,0.5,0.3C225,85,224.7,84.2,224.4,83.5z"/>
		<path class="st13" d="M232.5,81c0.1-0.6,0.4-1.3,1-1.6c0.5-0.2,1.2-0.1,1.8,0.1c0.5,0.1,1,0.3,1.5,0.6s0.9,0.7,1,1.1
			c0.1,0.3,0.1,0.7,0.1,1c0,0.7-0.1,1.5-0.4,2.2c-0.2,0.3-0.4,0.5-0.6,0.8c-0.5,0.6-1.1,1.3-1.9,1.6c-0.7,0.2-1.6,0.1-2.3,0.2
			c-0.3,0-0.6,0-0.8-0.1c-0.2-0.1-0.3-0.3-0.4-0.5c0-0.2,0-0.4,0-0.6c0.1-0.7,0.4-1.3,0.5-1.9c0-0.4,0.2-0.8,0.3-1.1
			C232.4,82,232.4,81.5,232.5,81z"/>
		<path class="st15" d="M229,77.2c0.1,0.1,0.2,0.2,0.2,0.3c0.3,0.4,0,1,0.2,1.4c0.1,0.1,0.2,0.2,0.3,0.3c0.2,0.2,0.2,0.5,0.2,0.7
			c0,0.3-0.1,0.5-0.1,0.8c-0.2,1.2,0.1,2.4-0.3,3.5c-0.1,0.3-0.2,0.5-0.3,0.8c0,0.1,0,0.1,0,0.2c0.1,0.1,0.2,0.1,0.3,0.1
			c0.1,0.1,0.1,0.2,0.1,0.3c0,0.3-0.1,0.5-0.1,0.8c0,0.2-0.1,0.3-0.1,0.5c0,0.2,0.1,0.3,0.3,0.4c0.2,0.1,0.4-0.1,0.5-0.2
			c0.4-0.5,0.2-1.2,0.3-1.8c0.2-0.9,0.9-1.6,1-2.5c0-0.6-0.3-1.3-0.1-1.9c0.1-0.2,0.2-0.3,0.2-0.5c0.1-0.2,0.1-0.4,0.2-0.6
			c0.3-0.9,0.9-1.7,1.7-2.3c0.1-0.1,0.3-0.1,0.4-0.2c-1,0-1.9,0.5-2.9,0.4c-0.5-0.1-0.9-0.3-1.3-0.5c-0.2-0.1-0.5-0.3-0.7-0.3
			C228.9,76.8,228.9,76.9,229,77.2z"/>
		<path class="st11" d="M229.1,79.2c0,0.2-0.2,0.4-0.4,0.4c-0.2,0-0.4-0.1-0.7-0.2c-0.5-0.1-0.9,0.1-1.4,0.4
			c-0.1,0.1-0.2,0.2-0.3,0.3c-0.2,0.2-0.1,0.6-0.1,0.9c0,0.4-0.3,0.7-0.4,1.1c-0.1,0.6,0,1.2,0.2,1.7c0.1,0.2,0.2,0.4,0.3,0.6
			c0.3,0.3,0.7,0.4,1,0.8c0.1,0.1,0.2,0.3,0.3,0.4c0.1,0.1,0.3,0.3,0.4,0.2c0.1,0,0.2-0.1,0.3,0c0.2,0,0.3,0.3,0.2,0.4
			c-0.1,0.1-0.2,0.1-0.2,0.3c0,0.2,0.2,0.2,0.4,0.2c0.3-0.1,0.5-0.4,0.6-0.7c0.1-0.3,0.1-0.6,0.1-1c0-0.6,0-1.1,0-1.7
			c0.1-0.7,0.2-1.4,0.3-2.1c0.1-0.7,0-1.5-0.2-2.1c0-0.1-0.4-0.6-0.4-0.3C228.9,78.7,229.2,79,229.1,79.2z"/>
		<path class="st11" d="M233.6,80.2c0.2,0,0.4-0.1,0.6-0.2c0.2,0,0.4,0.1,0.6,0.1c0.2,0.1,0.3,0.2,0.4,0.3c0.1,0.2,0,0.4,0,0.6
			c0,0.2,0.2,0.4,0.2,0.7c0.2,0.5,0,1-0.2,1.4c-0.2,0.4-0.5,0.8-0.6,1.3c-0.1,0.4-0.1,0.9-0.4,1.3c-0.3,0.4-0.7,0.6-1.1,0.8
			c-0.1,0.1-0.3,0.1-0.4,0.1c-0.1,0-0.2-0.1-0.3-0.2c-0.2-0.1-0.4-0.2-0.6-0.3c-0.1,0-0.2,0-0.3,0c-0.1,0-0.2,0.1-0.1,0.2
			c0.1,0.1,0.2,0.1,0.3,0.3c0.1,0.1,0.1,0.3,0,0.4c-0.1,0.2-0.4,0.1-0.6-0.1c-0.4-0.4-0.3-1-0.1-1.6c0.3-1.1,0.8-2.2,1-3.4
			c0.1-0.4,0.1-0.9,0.3-1.3c0.1-0.4,0.3-0.7,0.6-1.1c0.1-0.2,0.3-0.4,0.5-0.4c0.3,0,0.1,0.3,0,0.4C232.9,79.8,233,80.3,233.6,80.2z"
			/>
		<path class="st15" d="M229.8,78.8c0.1,0.2,0.1,0.5,0.1,0.7c-0.1,0.2-0.2,0.5-0.5,0.6c-0.2,0.1-0.4,0-0.7,0.1
			c-0.2,0-0.4,0.3-0.3,0.5c0.1,0.2,0.5,0.2,0.6,0.5c0,0.1-0.1,0.2-0.2,0.3c-0.2,0.1-0.4,0.2-0.6,0.4c-0.2,0.2-0.3,0.4-0.2,0.7
			c0.1,0.2,0.4,0.3,0.6,0.3s0.5-0.1,0.7,0c0,0,0.1,0,0.1,0c0,0,0,0.1,0,0.1c-0.1,0.3-0.3,0.6-0.5,0.9c-0.1,0.2-0.1,0.4,0.1,0.4
			c0,0,0.1,0,0.1,0c0.1,0,0.1,0.2,0.1,0.3s-0.1,0.2-0.2,0.3c-0.2,0.3,0,0.8,0.4,0.9c0.1,0,0.2,0,0.3,0.1c0.2,0.1,0.4,0.3,0.6,0.2
			c0.1,0,0.1-0.1,0.2-0.1c0.2,0,0.3,0.2,0.3,0.4c0,0.2,0,0.4,0.1,0.5c0,0,0.1,0.1,0.1,0.1c0.1,0,0.1-0.1,0.1-0.1
			c0.1-0.3,0.1-0.6,0.1-0.9c0-0.2-0.1-0.4-0.1-0.6c0-0.2,0-0.5,0.1-0.6c0.2-0.2,0.6-0.3,0.8-0.1c0.2,0.1,0.3,0.3,0.5,0.4
			c0.3,0.1,0.6-0.2,0.6-0.5c0-0.3-0.2-0.5-0.5-0.7c-0.1-0.1-0.2-0.1-0.2-0.2c-0.2-0.2,0.1-0.6,0.4-0.6c0.2,0,0.4,0,0.5-0.1
			c0.2-0.1,0.1-0.4,0-0.6c-0.2-0.2-0.4-0.2-0.6-0.3s-0.4-0.1-0.6-0.3c-0.2-0.2-0.2-0.5-0.1-0.7c0.1-0.2,0.4-0.4,0.6-0.3
			c0.2,0,0.4,0.2,0.7,0.2c0.1,0,0.2,0,0.2-0.1c0.1-0.1,0-0.2,0-0.3c-0.1-0.2-0.5-0.3-0.8-0.3c-0.3,0-0.6-0.2-0.6-0.5
			c0-0.2,0.1-0.3,0.1-0.5c0.1-0.2,0-0.4-0.1-0.4c-0.1,0-0.2,0.1-0.3,0.2c-0.1,0.1-0.1,0.2-0.2,0.3c-0.1,0.1-0.3,0-0.4,0
			c-0.5-0.1-1-0.2-1.4,0c0.1,0,0.2,0,0.2-0.1L229.8,78.8z"/>
		<path class="st16" d="M230.3,78.3c0,0.3,0,0.6,0.1,0.9c0,0.2,0.1,0.4,0.2,0.6c0.2,0.9-0.3,1.9-0.2,2.8c0,0.2,0.1,0.4,0.2,0.3
			c0.3-0.5,0.1-1.1,0.3-1.7c0.1-0.2,0.2-0.4,0.3-0.7c0.2-0.7-0.2-1.6,0.2-2.3c0.3-0.5,1.1-0.6,1.5-1.1c-0.8,0.1-1.6,0-2.4-0.1
			c-0.3-0.1-0.7-0.3-0.5,0.2C230.1,77.7,230.3,78,230.3,78.3z"/>
		<path class="st17" d="M226.1,78.7c0.1,0.3,0.4,0.5,0.6,0.6c0-0.2,0-0.5,0-0.7c0,0,0-0.1,0-0.1C226.5,78.3,226,78.4,226.1,78.7z"/>
		<path class="st17" d="M225.1,79c0,0.1,0,0.2,0,0.3c0.1,0.1,0.1,0.1,0.2,0.2c0.2,0.1,0.4,0.2,0.7,0.2c0-0.2-0.1-0.3-0.1-0.5
			c0-0.1-0.1-0.2-0.1-0.2C225.6,78.8,225.2,78.7,225.1,79z"/>
		<path class="st17" d="M224.2,79.9c0,0.1,0,0.2,0.1,0.3c0,0,0.1,0.1,0.2,0.1c0.3,0.1,0.7,0.1,1,0.1c-0.1-0.2-0.3-0.3-0.4-0.5
			c-0.1-0.1-0.1-0.1-0.2-0.2C224.5,79.6,224.3,79.6,224.2,79.9z"/>
		<path class="st17" d="M224.4,80.8c-0.1,0-0.2,0.1-0.3,0.2c-0.1,0.1-0.1,0.2-0.1,0.3c0,0.1,0,0.2,0,0.2c0,0.1,0.1,0.1,0.2,0.1
			c0.1,0,0.2,0,0.4,0c0.2,0,1.1-0.3,0.9-0.6c-0.1-0.1-0.3-0.1-0.4-0.2C224.8,80.9,224.6,80.8,224.4,80.8z"/>
		<path class="st17" d="M224.8,82.2c-0.2,0-0.4-0.1-0.6,0c-0.2,0.1-0.3,0.2-0.3,0.4c0,0.1,0.1,0.3,0.2,0.3c0.1,0,0.1,0.1,0.2,0.1
			c0.1,0,0.1,0,0.2,0c0.3-0.1,0.6-0.3,0.9-0.4C225.7,82.3,224.9,82.2,224.8,82.2z"/>
		<path class="st17" d="M224.6,83.3c-0.2,0.1-0.2,0.4-0.1,0.5c0.1,0.1,0.2,0.2,0.4,0.2s0.3-0.1,0.4-0.2c0.1-0.1,0.2-0.2,0.3-0.4
			C225.9,83,224.8,83.2,224.6,83.3z"/>
		<path class="st17" d="M225.1,84.5c-0.1,0.1-0.1,0.2,0,0.3c0.1,0.1,0.1,0.1,0.2,0.1c0,0,0.1,0,0.1,0c0,0,0.1,0,0.1-0.1
			c0.1-0.1,0.5-0.5,0.3-0.6C225.6,84.2,225.2,84.4,225.1,84.5z"/>
		<path class="st17" d="M225.8,85.1c0,0-0.1,0.1-0.1,0.2c0,0.1,0.1,0.2,0.2,0.2c0.1,0,0.2,0,0.3,0c0.1-0.1,0.1-0.1,0.2-0.2
			c0.1-0.2,0.3-0.6-0.1-0.5C226.2,84.8,225.9,85,225.8,85.1z"/>
		<path class="st17" d="M227,85.2c-0.1,0.1-0.1,0.2-0.2,0.3c0,0.1,0,0.1,0,0.2c0,0.1,0.2,0.1,0.3,0.1c0,0,0.1,0,0.1,0c0,0,0,0,0-0.1
			c0.1-0.1,0.1-0.3,0-0.4C227.2,85.3,227.1,85.1,227,85.2z"/>
		<path class="st17" d="M227.1,78.5c-0.1,0.1,0,0.2,0,0.3c0.1,0.1,0.1,0.3,0.2,0.4c0.1-0.1,0.2-0.2,0.2-0.3c0-0.1,0.1-0.2,0.1-0.2
			C227.6,78.5,227.2,78.4,227.1,78.5z"/>
		<path class="st17" d="M228.1,78.6c-0.1-0.1-0.2,0-0.3,0.1s-0.1,0.2-0.1,0.3c0,0,0,0.1,0,0.1c0,0,0.1,0,0.1,0
			c0.1-0.1,0.2-0.1,0.3-0.2c0,0,0.1-0.1,0.1-0.1c0-0.1,0-0.1-0.1-0.1C228.3,78.6,228.2,78.6,228.1,78.6L228.1,78.6z"/>
		<path class="st17" d="M236.1,80c-0.2,0.3-0.5,0.4-0.7,0.5c0-0.2,0.1-0.4,0.2-0.7c0,0,0-0.1,0.1-0.1
			C235.8,79.5,236.4,79.7,236.1,80z"/>
		<path class="st17" d="M237.1,80.5c0,0.1,0,0.2-0.1,0.3c-0.1,0.1-0.2,0.1-0.2,0.1c-0.2,0.1-0.5,0.1-0.7,0.1
			c0.1-0.1,0.2-0.3,0.3-0.4c0-0.1,0.1-0.2,0.2-0.2C236.6,80.1,237.1,80.1,237.1,80.5z"/>
		<path class="st17" d="M237.7,81.6c0,0.1-0.1,0.2-0.2,0.3c-0.1,0-0.1,0-0.2,0c-0.3,0-0.7,0-1-0.2c0.2-0.1,0.4-0.2,0.5-0.4
			c0.1-0.1,0.2-0.1,0.2-0.1C237.5,81.2,237.7,81.2,237.7,81.6z"/>
		<path class="st17" d="M237.3,82.4c0.1,0,0.2,0.1,0.3,0.2c0.1,0.1,0.1,0.2,0.1,0.4c0,0.1,0,0.2-0.1,0.2c-0.1,0.1-0.1,0.1-0.2,0.1
			c-0.1,0-0.2,0-0.3-0.1c-0.2-0.1-1-0.5-0.8-0.8c0.1-0.1,0.3-0.1,0.4-0.1C236.9,82.4,237.2,82.4,237.3,82.4z"/>
		<path class="st17" d="M236.6,83.6c0.2,0,0.4,0,0.5,0.1s0.3,0.3,0.2,0.5c0,0.1-0.2,0.2-0.3,0.3c-0.1,0-0.1,0-0.2,0
			c-0.1,0-0.1,0-0.1-0.1c-0.3-0.2-0.5-0.4-0.7-0.6C235.8,83.5,236.5,83.6,236.6,83.6z"/>
		<path class="st17" d="M236.6,84.8c0.1,0.2,0.2,0.4,0,0.6c-0.1,0.1-0.3,0.1-0.4,0.1c-0.1,0-0.2-0.1-0.3-0.3
			c-0.1-0.1-0.2-0.3-0.2-0.4C235.4,84.2,236.4,84.6,236.6,84.8z"/>
		<path class="st17" d="M235.8,85.9c0,0.1,0,0.2-0.1,0.3c-0.1,0-0.2,0.1-0.2,0.1c0,0-0.1,0-0.1,0c0,0,0,0-0.1-0.1
			c-0.1-0.1-0.4-0.6-0.2-0.7C235.4,85.4,235.8,85.8,235.8,85.9z"/>
		<path class="st17" d="M234.9,86.3c0,0.1,0,0.1,0,0.2c0,0.1-0.1,0.2-0.2,0.2c-0.1,0-0.2,0-0.3-0.1c-0.1-0.1-0.1-0.2-0.1-0.3
			c-0.1-0.2-0.1-0.6,0.2-0.5C234.7,85.9,234.9,86.1,234.9,86.3z"/>
		<path class="st17" d="M233.8,86.1c0.1,0.1,0.1,0.2,0.1,0.4c0,0.1,0,0.2,0,0.2c-0.1,0.1-0.2,0.1-0.3,0.1c0,0-0.1,0-0.1,0
			c0,0,0,0,0-0.1c0-0.2,0-0.3,0.1-0.4C233.6,86.1,233.8,86,233.8,86.1z"/>
		<path class="st17" d="M235.2,79.6c0.1,0.1,0,0.2-0.1,0.3c-0.1,0.1-0.2,0.2-0.3,0.3c-0.1-0.1-0.1-0.3-0.2-0.4c0-0.1-0.1-0.2,0-0.3
			C234.8,79.4,235.1,79.4,235.2,79.6z"/>
		<path class="st17" d="M234.2,79.4c0.1,0,0.2,0.1,0.2,0.2c0,0.1,0,0.2,0,0.3c0,0,0,0.1-0.1,0.1c0,0-0.1,0-0.1,0
			c-0.1-0.1-0.2-0.2-0.2-0.3c0,0-0.1-0.1-0.1-0.1c0-0.1,0-0.1,0.1-0.1C234.1,79.4,234.1,79.4,234.2,79.4L234.2,79.4z"/>
		<path class="st18" d="M223,80.5c0.3-0.5,0.3-1.1,0.5-1.6c0.3-0.6,0.9-0.9,1.5-1.1c0.6-0.1,1.3-0.1,1.9-0.2c0.2,0,0.4-0.1,0.4-0.3
			c0-0.1,0-0.1-0.1-0.2c-0.3-0.4-1-0.4-1.5-0.2c-0.8,0.2-1.5,0.7-2.2,1.1c-0.5,0.4-1.1,0.8-1.2,1.5C222.4,79.8,222.4,81.3,223,80.5z
			"/>
		<path class="st18" d="M222.3,81.8c-0.1,0.4,0,0.7,0.1,1.1c0.1,0.2,0.1,0.4,0.2,0.6c0,0.2,0.1,0.3,0.3,0.4c0.1,0,0.3-0.1,0.3-0.2
			c0.1-0.1,0-0.3,0-0.4c0-0.3-0.1-0.7-0.1-1c0-0.1,0-0.3,0-0.4C223.1,81.2,222.4,81.2,222.3,81.8z"/>
		<path class="st18" d="M236.8,86.9c0.7-0.5,1.3-1.3,1.5-2.2c0-0.1,0-0.1,0-0.2c-0.1-0.1-0.2,0-0.3,0c-0.3,0.2-0.4,0.6-0.5,0.9
			c-0.1,0.3-0.3,0.5-0.6,0.7c-0.2,0.2-0.4,0.4-0.6,0.6c-0.1,0.1-0.3,0.1-0.4,0.2C235.7,87.4,236.7,87,236.8,86.9z"/>
	</g>
</g>
</svg>
