<?xml version="1.0" encoding="utf-8"?>
<!-- Generator: Adobe Illustrator 21.0.0, SVG Export Plug-In . SVG Version: 6.00 Build 0)  -->
<svg version="1.1" xmlns="http://www.w3.org/2000/svg" xmlns:xlink="http://www.w3.org/1999/xlink" x="0px" y="0px"
	 viewBox="0 0 389 157" style="enable-background:new 0 0 389 157;" xml:space="preserve">
<style type="text/css">
	.st0{display:none;}
	.st1{display:inline;}
	.st2{fill:#732A13;}
	.st3{fill:#6C151C;}
	.st4{fill:#F6C073;}
	.st5{fill:#F1A12E;}
	.st6{opacity:0.3;fill:#FBE0BA;enable-background:new    ;}
	.st7{fill:#6F4026;}
	.st8{fill:#F6C278;}
	.st9{fill:#AB1717;}
	.st10{fill:#F7D5D7;}
	.st11{opacity:0.45;clip-path:url(#SVGID_2_);}
	.st12{fill:#FEF6F6;}
	.st13{opacity:0.22;enable-background:new    ;}
	.st14{clip-path:url(#SVGID_4_);}
	.st15{fill:#D8ACAB;}
	.st16{clip-path:url(#SVGID_6_);}
	.st17{clip-path:url(#SVGID_8_);}
	.st18{opacity:0.18;}
	.st19{fill:#FEFEFE;}
	.st20{opacity:0.45;clip-path:url(#SVGID_10_);}
	.st21{clip-path:url(#SVGID_12_);}
	.st22{clip-path:url(#SVGID_14_);}
	.st23{clip-path:url(#SVGID_16_);}
	.st24{opacity:0.45;clip-path:url(#SVGID_18_);}
	.st25{clip-path:url(#SVGID_20_);}
	.st26{clip-path:url(#SVGID_22_);}
	.st27{clip-path:url(#SVGID_24_);}
	.st28{opacity:0.45;clip-path:url(#SVGID_26_);}
	.st29{clip-path:url(#SVGID_28_);}
	.st30{clip-path:url(#SVGID_30_);}
	.st31{clip-path:url(#SVGID_32_);}
	.st32{opacity:0.45;clip-path:url(#SVGID_34_);}
	.st33{clip-path:url(#SVGID_36_);}
	.st34{clip-path:url(#SVGID_38_);}
	.st35{clip-path:url(#SVGID_40_);}
	.st36{opacity:0.45;clip-path:url(#SVGID_42_);}
	.st37{clip-path:url(#SVGID_44_);}
	.st38{clip-path:url(#SVGID_46_);}
	.st39{clip-path:url(#SVGID_48_);}
</style>
<g id="Слой_1" class="st0">
	<g id="Layer_1" class="st1">
		<g>
			
				<ellipse transform="matrix(0.9998 -1.910948e-02 1.910948e-02 0.9998 -1.7337 3.9668)" class="st2" cx="206.7" cy="92.7" rx="175.1" ry="48.7"/>
			
				<ellipse transform="matrix(0.9998 -1.911576e-02 1.911576e-02 0.9998 -1.5262 3.9298)" class="st3" cx="204.8" cy="81.8" rx="161" ry="44.8"/>
			
				<ellipse transform="matrix(0.9998 -1.911913e-02 1.911913e-02 0.9998 -1.4442 3.9373)" class="st4" cx="205.2" cy="77.5" rx="158.3" ry="44.6"/>
			
				<ellipse transform="matrix(0.9998 -1.910377e-02 1.910377e-02 0.9998 -1.317 3.9311)" class="st5" cx="205.1" cy="70.9" rx="145.6" ry="32.3"/>
			
				<ellipse transform="matrix(0.9998 -1.911114e-02 1.911114e-02 0.9998 -1.3424 3.9328)" class="st5" cx="205.1" cy="72.2" rx="139.4" ry="30.9"/>
			<path class="st6" d="M204.5,41.3c-77,1.5-139.1,16.5-138.8,33.6s63,29.7,140,28.3c77-1.5,139.1-16.5,138.8-33.6
				S281.5,39.9,204.5,41.3z M76.5,69.9c-0.4-0.2-0.5-0.7-0.3-1.1c3.1-9.1,15.8-8,22.9-11.7c0.3-0.2,0.6-0.2,0.8-0.1
				c15-5,30.2-7.7,46.5-8.8c9-0.6,18.1-0.6,27.1-0.7c5.3-0.1,12.1-0.5,16.1,3.6c0.6,0.6-0.1,1.5-0.7,1.7c-8,3.7-17.1,2.5-25.7,3.3
				c-11,1-22.1,2.7-32.9,4.8c-10.9,2.1-22.2,3.3-33,6.1C90.6,68.8,83.3,72.4,76.5,69.9z M180.5,95.3c-6.8,1.8-14,1.7-21,1.7
				c-9.1,0-18.1-0.1-27.2,0c-5.6,0-12.9,0-17.3-4.1c-4.6-4.3-9.2-3.7-15-3.6c-4.6,0-17.9,0.3-17.1-7.4c0.6-5.4,10.5-7.5,14.4-8.5
				c8.1-2.1,16.5-3.3,24.8-4c3.8-0.3,7.4-0.5,11.1-1.1c0.1-0.1,0.3-0.2,0.4-0.2c12.3-2.4,24.7-4,37.2-4.6c8.1-0.4,22-1.8,22.4,9.6
				C193.7,82.5,190.7,92.5,180.5,95.3z M213.5,49.7c7-6.9,18.9-4.7,27.8-6c0.5-0.1,0.7,0.1,0.8,0.4c6,0,12.1,0.7,18.1,1.3
				c6.4,0.6,16.7,0.8,21.1,6.5c0.4,0.6,0.1,1.6-0.7,1.7c-12.9,3.4-25.5-0.7-38.5,0c-8.7,0.5-20.9,2.9-28.6-2.4
				C213,50.8,213,50.1,213.5,49.7z M261.1,84.1c-1.6,4.3-7.6,5.8-11.6,6.6c-7.1,1.4-14.7,2.8-21.8,3.4c-7,0.6-12.6-1.2-15.8-7.8
				c-1.4-3-6.8-16-3.7-20.4c0.1-0.1,0.2-0.3,0.3-0.4c0.4-0.4,0.9-0.7,1.6-0.9c2-0.8,4.1-0.6,6.5,0.2c5.2,1.6,10.6,2.4,15.9,3.9
				c7,1.9,14.2,4.3,20.9,7.3C256.2,77.1,262.7,79.8,261.1,84.1z M300.7,71.4c-4.1,5.6-14.6,4.6-20.5,4.1
				c-11.3-0.9-22.3-2.5-33.2-5.8c-3.7-1.1-18.2-3.5-18.9-8.4c-0.3-2.3,2.3-3.5,5.3-4.1c9.4-3.8,19.3,0,28.9,0.7
				c5.4,0.4,10.9,1.2,16.2,2.1C281.8,60.5,306.3,63.8,300.7,71.4z"/>
			<path class="st7" d="M38.5,90c0,0-6.8,2.4-0.1,15.3s86.2,37.6,160.7,32.7c0,0,51.9,0,52.2-4.1s-19.8-4.3-19.8-4.3
				s-23.5,0.7-33.8,0.8C187.5,130.4,54.8,131.5,38.5,90z"/>
			<path class="st8" d="M55.9,70.2c0,0-3.4-0.2-6.1,6.4c-2.7,6.6,7.9,22.9,55,33.2c47,10.3,115.1,12.6,150.4,6.2s18.1-15.1,0.9-12.8
				c-17.2,2.3-17.2,2.3-17.2,2.3S153,108.1,110,99.9C69.2,92.2,55.1,87.1,55.9,70.2z"/>
		</g>
	</g>
	<g id="Слой_3" class="st1">
		<path class="st9" d="M145.6,45.9c0,0,46.5-2,75.9-1.5c19.1,0.2,41.2-3.1,77.1,5.1c17.5,3.8,28.6,7.5,34.6,10.6
			c3.6,1.9,6,5.6,5.9,9.7c-0.1,6.2-6.3,15.6-56.8,26c-49.7,4.8-55.4,4.6-77.4,3.8c-24.5,0.9-52.2,3.2-76.1-2.4
			c-26.9-5.6-68.6-13.4-56.1-25.5C80.6,64.8,90.8,54.2,145.6,45.9z"/>
	</g>
</g>
<g id="Слой_2">
	<g>
		<path class="st10" d="M196.4,92c-1.1-0.6-1.8-2.2-1.9-3.2c0-0.3,0.2-0.5,0.4-0.6c2-0.6,4-1.4,6-2.2c0.9-0.4,1.7-0.7,2.5-1.1
			c0.2-0.1,0.4-0.2,0.6-0.1c0.2,0.1,0.4,0.3,0.5,0.5c0.8,1.6,0.8,3.7-0.1,5.3c-0.9,1.6-2.8,2.6-4.6,2.5c-1-0.1-1.8-0.1-2.6-0.5
			C196.9,92.3,196.7,92.1,196.4,92z"/>
		<g>
			<g>
				<defs>
					<path id="SVGID_1_" d="M196.4,91.9c-1.1-0.6-1.8-2.2-1.9-3.2c0-0.3,0.2-0.5,0.4-0.6c2-0.6,4-1.4,6-2.2c0.9-0.4,1.7-0.7,2.5-1.1
						c0.2-0.1,0.4-0.2,0.6-0.1c0.2,0.1,0.4,0.3,0.5,0.5c0.8,1.6,0.8,3.7-0.1,5.3c-0.9,1.6-2.8,2.6-4.6,2.5c-1-0.1-1.8-0.1-2.6-0.5
						C196.9,92.3,196.7,92.1,196.4,91.9z"/>
				</defs>
				<clipPath id="SVGID_2_">
					<use xlink:href="#SVGID_1_"  style="overflow:visible;"/>
				</clipPath>
				<g class="st11">
					<path class="st12" d="M194,88.5c0.7,0.4,1.4,0.2,2.1,0.1c1.2-0.2,2.3-0.4,3.4-0.7c2.3-0.6,4.6-1.4,6.4-2.9
						c0.5-0.4,0.5-1.2,0.2-1.7c-0.4-0.7-1.3-0.8-1.9-0.4c-0.7,0.4-1.3,1.1-2.1,1.4c-0.9,0.5-1.8,0.9-2.7,1.2
						c-0.9,0.4-1.9,0.8-2.8,1.2c-0.4,0.2-0.7,0.3-1.1,0.5c-0.3,0.1-0.7,0.4-1.1,0.3C193.8,87.5,193.5,88.2,194,88.5L194,88.5z"/>
				</g>
			</g>
		</g>
		<g class="st13">
			<g>
				<defs>
					<path id="SVGID_3_" d="M196.4,92c-1.1-0.6-1.8-2.2-1.9-3.2c0-0.3,0.2-0.5,0.4-0.6c2-0.6,4-1.4,6-2.2c0.9-0.4,1.7-0.7,2.5-1.1
						c0.2-0.1,0.4-0.2,0.6-0.1c0.2,0.1,0.4,0.3,0.5,0.5c0.8,1.6,0.8,3.7-0.1,5.3c-0.9,1.6-2.8,2.6-4.6,2.5c-1-0.1-1.8-0.1-2.6-0.5
						C196.9,92.3,196.7,92.1,196.4,92z"/>
				</defs>
				<clipPath id="SVGID_4_">
					<use xlink:href="#SVGID_3_"  style="overflow:visible;"/>
				</clipPath>
				<g class="st14">
					<path class="st15" d="M201.1,84.4c-1,0-7.4,2.8-7.8,3.6c-0.7,1.6,1.8,4.4,3.1,5.3c1.2,0.8,5.1,0.1,6.6-0.2
						c0.7-0.1,1.7-1.6,2.4-1.8c0.8-0.3,1.3-1.4,1.8-2.1c0.5-0.7,0.3-1.6-0.6-2c-1.2-0.4-2.5,0.5-3.6,0.9c-0.9,0.3-1.8,0.4-2.7,0.1
						c-0.3-0.1-0.7-0.3-0.9-0.5c0,0-0.2-0.3-0.1-0.2c-0.4-1,1.8-2.5,1.4-2.5L201.1,84.4z"/>
				</g>
			</g>
			<g>
				<defs>
					<path id="SVGID_5_" d="M196.4,92c-1.1-0.6-1.8-2.2-1.9-3.2c0-0.3,0.2-0.5,0.4-0.6c2-0.6,4-1.4,6-2.2c0.9-0.4,1.7-0.7,2.5-1.1
						c0.2-0.1,0.4-0.2,0.6-0.1c0.2,0.1,0.4,0.3,0.5,0.5c0.8,1.6,0.8,3.7-0.1,5.3c-0.9,1.6-2.8,2.6-4.6,2.5c-1-0.1-1.8-0.1-2.6-0.5
						C196.9,92.3,196.7,92.1,196.4,92z"/>
				</defs>
				<clipPath id="SVGID_6_">
					<use xlink:href="#SVGID_5_"  style="overflow:visible;"/>
				</clipPath>
				<g class="st16">
					<path class="st15" d="M199.1,85.9c-1,0-7.4,2.8-7.8,3.6c-0.7,1.6,1.8,4.4,3.1,5.3c1.2,0.8,5.1,0.1,6.6-0.2
						c0.7-0.1,1.7-1.6,2.4-1.8c0.8-0.3,1.3-1.4,1.8-2.1c0.5-0.7,1.8-1.4,0.9-1c-1.1,0.5-3.7,1-4.9,1.1c-3.8,0.5-4.6-1.3-5-2.1
						c-0.4-0.7,1.5-1.6,1.1-1.5L199.1,85.9z"/>
				</g>
			</g>
			<g>
				<defs>
					<path id="SVGID_7_" d="M196.4,92c-1.1-0.6-1.8-2.2-1.9-3.2c0-0.3,0.2-0.5,0.4-0.6c2-0.6,4-1.4,6-2.2c0.9-0.4,1.7-0.7,2.5-1.1
						c0.2-0.1,0.4-0.2,0.6-0.1c0.2,0.1,0.4,0.3,0.5,0.5c0.8,1.6,0.8,3.7-0.1,5.3c-0.9,1.6-2.8,2.6-4.6,2.5c-1-0.1-1.8-0.1-2.6-0.5
						C196.9,92.3,196.7,92.1,196.4,92z"/>
				</defs>
				<clipPath id="SVGID_8_">
					<use xlink:href="#SVGID_7_"  style="overflow:visible;"/>
				</clipPath>
				<g class="st17">
					<path class="st15" d="M197.7,85.9c-1,0-7.4,2.8-7.8,3.6c-0.7,1.6,1.8,4.4,3.1,5.3c1.2,0.8,5.1,0.1,6.6-0.2
						c0.7-0.1,1.7-1.6,2.4-1.8c0.8-0.3,2.5,0.5,3-0.2c0.5-0.7,1.2-1.8,0.3-1.4c-1.1,0.5-3.6,0.7-4.7,0.9c-3.8,0.5-5.3-2.5-5.7-3.4
						c-0.4-0.7,1.8-1.6,1.5-1.6L197.7,85.9z"/>
				</g>
			</g>
		</g>
		<g class="st18">
			<path class="st19" d="M196.8,88.8c1.1,0.4,2.3,0.2,3.4-0.1c0.6-0.2,1.2-0.4,1.8-0.5c0.2,0,0.4-0.1,0.5-0.1c-0.1,0,0,0,0.1,0
				c0.4,0-0.1,0-0.2-0.1c1.2,1.4,3.3-1.2,1.5-2.1c-1.1-0.6-2.2,0-3.2,0.5c-1.2,0.6-2.4,1.3-3.8,1.4
				C196.3,87.7,196.3,88.6,196.8,88.8L196.8,88.8z"/>
		</g>
	</g>
	<g>
		<path class="st10" d="M118.9,62.4c-0.8-0.5-1.4-1.8-1.5-2.5c0-0.2,0.1-0.4,0.3-0.5c1.6-0.5,3.2-1.1,4.7-1.7c0.7-0.3,1.3-0.6,2-0.9
			c0.2-0.1,0.3-0.1,0.5-0.1c0.2,0.1,0.3,0.2,0.4,0.4c0.6,1.3,0.6,2.9-0.1,4.1c-0.7,1.2-2.2,2.1-3.6,1.9c-0.8-0.1-1.4-0.1-2.1-0.4
			C119.3,62.6,119.1,62.5,118.9,62.4z"/>
		<g>
			<g>
				<defs>
					<path id="SVGID_9_" d="M118.9,62.3c-0.8-0.5-1.4-1.8-1.5-2.5c0-0.2,0.1-0.4,0.3-0.5c1.6-0.5,3.2-1.1,4.7-1.7
						c0.7-0.3,1.3-0.6,2-0.9c0.2-0.1,0.3-0.1,0.5-0.1c0.2,0.1,0.3,0.2,0.4,0.4c0.6,1.3,0.6,2.9-0.1,4.1c-0.7,1.2-2.2,2.1-3.6,1.9
						c-0.8-0.1-1.4-0.1-2.1-0.4C119.3,62.6,119.1,62.5,118.9,62.3z"/>
				</defs>
				<clipPath id="SVGID_10_">
					<use xlink:href="#SVGID_9_"  style="overflow:visible;"/>
				</clipPath>
				<g class="st20">
					<path class="st12" d="M117.1,59.7c0.5,0.3,1.1,0.2,1.7,0.1c0.9-0.1,1.8-0.3,2.7-0.5c1.8-0.5,3.6-1.1,5-2.3
						c0.4-0.3,0.4-0.9,0.1-1.3c-0.3-0.5-1-0.6-1.5-0.3c-0.6,0.3-1,0.8-1.7,1.1c-0.7,0.4-1.4,0.7-2.1,1c-0.7,0.3-1.5,0.6-2.2,0.9
						c-0.3,0.1-0.6,0.2-0.9,0.4c-0.2,0.1-0.6,0.3-0.8,0.2C116.9,58.8,116.7,59.4,117.1,59.7L117.1,59.7z"/>
				</g>
			</g>
		</g>
		<g class="st13">
			<g>
				<defs>
					<path id="SVGID_11_" d="M118.9,62.4c-0.8-0.5-1.4-1.8-1.5-2.5c0-0.2,0.1-0.4,0.3-0.5c1.6-0.5,3.2-1.1,4.7-1.7
						c0.7-0.3,1.3-0.6,2-0.9c0.2-0.1,0.3-0.1,0.5-0.1c0.2,0.1,0.3,0.2,0.4,0.4c0.6,1.3,0.6,2.9-0.1,4.1c-0.7,1.2-2.2,2.1-3.6,1.9
						c-0.8-0.1-1.4-0.1-2.1-0.4C119.3,62.6,119.1,62.5,118.9,62.4z"/>
				</defs>
				<clipPath id="SVGID_12_">
					<use xlink:href="#SVGID_11_"  style="overflow:visible;"/>
				</clipPath>
				<g class="st21">
					<path class="st15" d="M122.7,56.4c-0.8,0-5.8,2.2-6.1,2.9c-0.6,1.2,1.4,3.5,2.4,4.1c1,0.6,4,0.1,5.2-0.2
						c0.6-0.1,1.3-1.2,1.9-1.4c0.6-0.2,1-1.1,1.4-1.6c0.4-0.6,0.2-1.3-0.5-1.5c-0.9-0.3-2,0.4-2.8,0.7c-0.7,0.3-1.4,0.3-2.1,0.1
						c-0.2-0.1-0.5-0.3-0.7-0.4c0,0-0.1-0.2-0.1-0.1c-0.3-0.8,1.4-2,1.1-2L122.7,56.4z"/>
				</g>
			</g>
			<g>
				<defs>
					<path id="SVGID_13_" d="M118.9,62.4c-0.8-0.5-1.4-1.8-1.5-2.5c0-0.2,0.1-0.4,0.3-0.5c1.6-0.5,3.2-1.1,4.7-1.7
						c0.7-0.3,1.3-0.6,2-0.9c0.2-0.1,0.3-0.1,0.5-0.1c0.2,0.1,0.3,0.2,0.4,0.4c0.6,1.3,0.6,2.9-0.1,4.1c-0.7,1.2-2.2,2.1-3.6,1.9
						c-0.8-0.1-1.4-0.1-2.1-0.4C119.3,62.6,119.1,62.5,118.9,62.4z"/>
				</defs>
				<clipPath id="SVGID_14_">
					<use xlink:href="#SVGID_13_"  style="overflow:visible;"/>
				</clipPath>
				<g class="st22">
					<path class="st15" d="M121,57.6c-0.8,0-5.8,2.2-6.1,2.9c-0.6,1.2,1.4,3.5,2.4,4.1c1,0.6,4,0.1,5.2-0.2c0.6-0.1,1.3-1.2,1.9-1.4
						c0.6-0.2,1-1.1,1.4-1.6c0.4-0.6,1.4-1.1,0.7-0.8c-0.9,0.4-2.9,0.8-3.8,0.9c-3,0.4-3.6-1-4-1.7c-0.3-0.6,1.2-1.2,0.9-1.2
						L121,57.6z"/>
				</g>
			</g>
			<g>
				<defs>
					<path id="SVGID_15_" d="M118.9,62.4c-0.8-0.5-1.4-1.8-1.5-2.5c0-0.2,0.1-0.4,0.3-0.5c1.6-0.5,3.2-1.1,4.7-1.7
						c0.7-0.3,1.3-0.6,2-0.9c0.2-0.1,0.3-0.1,0.5-0.1c0.2,0.1,0.3,0.2,0.4,0.4c0.6,1.3,0.6,2.9-0.1,4.1c-0.7,1.2-2.2,2.1-3.6,1.9
						c-0.8-0.1-1.4-0.1-2.1-0.4C119.3,62.6,119.1,62.5,118.9,62.4z"/>
				</defs>
				<clipPath id="SVGID_16_">
					<use xlink:href="#SVGID_15_"  style="overflow:visible;"/>
				</clipPath>
				<g class="st23">
					<path class="st15" d="M119.9,57.6c-0.8,0-5.8,2.2-6.1,2.9c-0.6,1.2,1.4,3.5,2.4,4.1c1,0.6,4,0.1,5.2-0.2
						c0.6-0.1,1.3-1.2,1.9-1.4c0.6-0.2,1.9,0.4,2.3-0.1c0.4-0.6,0.9-1.4,0.2-1.1c-0.9,0.4-2.8,0.6-3.7,0.7c-3,0.4-4.1-2-4.5-2.7
						c-0.3-0.6,1.4-1.2,1.2-1.2L119.9,57.6z"/>
				</g>
			</g>
		</g>
		<g class="st18">
			<path class="st19" d="M119.3,59.9c0.9,0.3,1.8,0.1,2.7-0.1c0.5-0.1,0.9-0.3,1.4-0.4c0.1,0,0.3-0.1,0.4-0.1c-0.1,0,0,0,0.1,0
				c0.3,0-0.1,0-0.2-0.1c1,1.1,2.6-0.9,1.2-1.7c-0.9-0.5-1.7,0-2.5,0.4c-1,0.5-1.9,1-3,1.1C118.9,59,118.8,59.7,119.3,59.9
				L119.3,59.9z"/>
		</g>
	</g>
	<g>
		<path class="st10" d="M328.5,73.2c-1.2-0.2-2.5-1.5-2.9-2.3c-0.1-0.3,0-0.6,0.2-0.7c1.7-1.3,3.3-2.7,4.8-4.2
			c0.7-0.6,1.3-1.3,2-1.9c0.2-0.2,0.3-0.3,0.5-0.3c0.2,0,0.4,0.1,0.6,0.3c1.3,1.3,2,3.2,1.7,5c-0.3,1.8-1.7,3.4-3.4,3.9
			c-1,0.3-1.7,0.5-2.6,0.4C329.1,73.3,328.8,73.2,328.5,73.2z"/>
		<g>
			<g>
				<defs>
					<path id="SVGID_17_" d="M328.5,73.2c-1.2-0.2-2.5-1.5-2.9-2.3c-0.1-0.3,0-0.6,0.2-0.7c1.7-1.3,3.3-2.7,4.8-4.2
						c0.7-0.6,1.3-1.3,2-1.9c0.2-0.2,0.3-0.3,0.5-0.3c0.2,0,0.4,0.1,0.6,0.3c1.3,1.3,2,3.2,1.7,5c-0.3,1.8-1.7,3.4-3.4,3.9
						c-1,0.3-1.7,0.5-2.6,0.4C329.1,73.3,328.8,73.2,328.5,73.2z"/>
				</defs>
				<clipPath id="SVGID_18_">
					<use xlink:href="#SVGID_17_"  style="overflow:visible;"/>
				</clipPath>
				<g class="st24">
					<path class="st12" d="M325.1,70.8c0.7,0.1,1.4-0.3,2-0.6c1-0.5,2-1.1,3-1.8c1.9-1.4,3.8-2.9,5-4.9c0.3-0.5,0-1.3-0.5-1.7
						c-0.6-0.5-1.5-0.3-2,0.3c-0.6,0.6-0.9,1.4-1.5,2.1c-0.7,0.7-1.4,1.4-2.1,2.1c-0.7,0.7-1.5,1.4-2.2,2.1
						c-0.3,0.3-0.6,0.5-0.9,0.8c-0.2,0.2-0.5,0.6-0.9,0.6C324.5,69.9,324.5,70.7,325.1,70.8L325.1,70.8z"/>
				</g>
			</g>
		</g>
		<g class="st13">
			<g>
				<defs>
					<path id="SVGID_19_" d="M328.5,73.2c-1.2-0.2-2.5-1.5-2.9-2.3c-0.1-0.3,0-0.6,0.2-0.7c1.7-1.3,3.3-2.7,4.8-4.2
						c0.7-0.6,1.3-1.3,2-1.9c0.2-0.2,0.3-0.3,0.5-0.3c0.2,0,0.4,0.1,0.6,0.3c1.3,1.3,2,3.2,1.7,5c-0.3,1.8-1.7,3.4-3.4,3.9
						c-1,0.3-1.7,0.5-2.6,0.4C329.1,73.3,328.8,73.2,328.5,73.2z"/>
				</defs>
				<clipPath id="SVGID_20_">
					<use xlink:href="#SVGID_19_"  style="overflow:visible;"/>
				</clipPath>
				<g class="st25">
					<path class="st15" d="M330.3,64.5c-0.9,0.4-5.9,5.2-6,6.1c-0.1,1.7,3.3,3.5,4.7,3.9c1.5,0.3,4.8-1.7,6.1-2.5
						c0.6-0.4,1.1-2.1,1.6-2.5c0.6-0.6,0.8-1.7,1-2.6c0.3-0.9-0.3-1.6-1.2-1.6c-1.3,0-2.2,1.3-3.1,2.1c-0.8,0.6-1.5,1-2.5,1
						c-0.3,0-0.7-0.1-1-0.2c-0.1,0-0.3-0.2-0.2-0.1c-0.7-0.8,0.8-2.9,0.4-2.8L330.3,64.5z"/>
				</g>
			</g>
			<g>
				<defs>
					<path id="SVGID_21_" d="M328.5,73.2c-1.2-0.2-2.5-1.5-2.9-2.3c-0.1-0.3,0-0.6,0.2-0.7c1.7-1.3,3.3-2.7,4.8-4.2
						c0.7-0.6,1.3-1.3,2-1.9c0.2-0.2,0.3-0.3,0.5-0.3c0.2,0,0.4,0.1,0.6,0.3c1.3,1.3,2,3.2,1.7,5c-0.3,1.8-1.7,3.4-3.4,3.9
						c-1,0.3-1.7,0.5-2.6,0.4C329.1,73.3,328.8,73.2,328.5,73.2z"/>
				</defs>
				<clipPath id="SVGID_22_">
					<use xlink:href="#SVGID_21_"  style="overflow:visible;"/>
				</clipPath>
				<g class="st26">
					<path class="st15" d="M328.9,66.5c-0.9,0.4-6,5.2-6,6.1c-0.1,1.7,3.3,3.5,4.7,3.9c1.5,0.3,4.8-1.7,6.1-2.5
						c0.6-0.4,1.1-2.1,1.6-2.5c0.6-0.6,0.8-1.7,1-2.6c0.3-0.9,1.2-1.9,0.5-1.2c-0.9,0.9-3.1,2.2-4.2,2.8c-3.4,1.8-4.7,0.4-5.5-0.3
						c-0.6-0.5,0.8-2,0.5-1.8L328.9,66.5z"/>
				</g>
			</g>
			<g>
				<defs>
					<path id="SVGID_23_" d="M328.5,73.2c-1.2-0.2-2.5-1.5-2.9-2.3c-0.1-0.3,0-0.6,0.2-0.7c1.7-1.3,3.3-2.7,4.8-4.2
						c0.7-0.6,1.3-1.3,2-1.9c0.2-0.2,0.3-0.3,0.5-0.3c0.2,0,0.4,0.1,0.6,0.3c1.3,1.3,2,3.2,1.7,5c-0.3,1.8-1.7,3.4-3.4,3.9
						c-1,0.3-1.7,0.5-2.6,0.4C329.1,73.3,328.8,73.2,328.5,73.2z"/>
				</defs>
				<clipPath id="SVGID_24_">
					<use xlink:href="#SVGID_23_"  style="overflow:visible;"/>
				</clipPath>
				<g class="st27">
					<path class="st15" d="M327.5,67.1c-0.9,0.4-6,5.2-6,6.1c-0.1,1.7,3.3,3.5,4.7,3.9c1.5,0.3,4.8-1.7,6.1-2.5
						c0.6-0.4,1.1-2.1,1.6-2.5c0.6-0.6,2.5-0.4,2.7-1.2c0.3-0.9,0.5-2.1-0.2-1.4c-0.9,0.9-3.1,1.9-4.1,2.5c-3.4,1.8-5.8-0.5-6.5-1.2
						c-0.6-0.5,1.2-2.1,0.8-2L327.5,67.1z"/>
				</g>
			</g>
		</g>
		<g class="st18">
			<path class="st19" d="M327.8,70.1c1.2,0,2.2-0.6,3.2-1.3c0.5-0.4,1-0.7,1.5-1.1c0.1-0.1,0.3-0.2,0.4-0.3c-0.1,0,0,0,0.1,0
				c0.3-0.2-0.1,0-0.2,0c1.6,0.9,2.7-2.2,0.7-2.5c-1.3-0.2-2.1,0.7-2.9,1.6c-1,1-1.8,2.1-3.1,2.6C326.9,69.2,327.2,70.1,327.8,70.1
				L327.8,70.1z"/>
		</g>
	</g>
	<g>
		<path class="st10" d="M226.3,57.4c0.9-0.4,1.6-0.4,2.6-0.5c1.8-0.2,3.7,0.9,4.6,2.5c0.9,1.6,0.9,3.6,0.1,5.3
			c-0.1,0.2-0.2,0.4-0.5,0.5c-0.2,0-0.4,0-0.6-0.1c-0.9-0.4-1.7-0.7-2.5-1.1c-1.9-0.9-3.9-1.6-6-2.2c-0.3-0.1-0.4-0.4-0.4-0.6
			c0.1-1,0.8-2.6,1.9-3.2C225.8,57.7,226,57.5,226.3,57.4z"/>
		<g>
			<g>
				<defs>
					<path id="SVGID_25_" d="M226.3,57.4c0.9-0.4,1.6-0.4,2.6-0.5c1.8-0.2,3.7,0.9,4.6,2.5c0.9,1.6,0.9,3.6,0.1,5.3
						c-0.1,0.2-0.2,0.4-0.5,0.5c-0.2,0-0.4,0-0.6-0.1c-0.9-0.4-1.7-0.7-2.5-1.1c-1.9-0.9-3.9-1.6-6-2.2c-0.3-0.1-0.4-0.4-0.4-0.6
						c0.1-1,0.8-2.6,1.9-3.2C225.8,57.7,226,57.5,226.3,57.4z"/>
				</defs>
				<clipPath id="SVGID_26_">
					<use xlink:href="#SVGID_25_"  style="overflow:visible;"/>
				</clipPath>
				<g class="st28">
					<path class="st12" d="M223.2,61.3c-0.5,0.3-0.2,1.1,0.4,1c0.4-0.1,0.7,0.2,1.1,0.3c0.4,0.2,0.7,0.3,1.1,0.5
						c0.9,0.4,1.9,0.8,2.8,1.2c0.9,0.4,1.8,0.8,2.7,1.2c0.8,0.4,1.4,1,2.1,1.4c0.7,0.4,1.5,0.2,1.9-0.4c0.3-0.5,0.3-1.3-0.2-1.7
						c-1.8-1.5-4.1-2.3-6.4-2.9c-1.1-0.3-2.3-0.5-3.4-0.7C224.6,61.1,223.8,60.9,223.2,61.3L223.2,61.3z"/>
				</g>
			</g>
		</g>
		<g class="st13">
			<g>
				<defs>
					<path id="SVGID_27_" d="M226.3,57.4c0.9-0.4,1.6-0.4,2.6-0.5c1.8-0.2,3.7,0.9,4.6,2.5c0.9,1.6,0.9,3.6,0.1,5.3
						c-0.1,0.2-0.2,0.4-0.5,0.5c-0.2,0-0.4,0-0.6-0.1c-0.9-0.4-1.7-0.7-2.5-1.1c-1.9-0.9-3.9-1.6-6-2.2c-0.3-0.1-0.4-0.4-0.4-0.6
						c0.1-1,0.8-2.6,1.9-3.2C225.8,57.7,226,57.5,226.3,57.4z"/>
				</defs>
				<clipPath id="SVGID_28_">
					<use xlink:href="#SVGID_27_"  style="overflow:visible;"/>
				</clipPath>
				<g class="st29">
					<path class="st15" d="M229.9,64.8c0.4,0-1.8-1.5-1.4-2.5c0,0.1,0.1-0.1,0.1-0.2c0.2-0.2,0.6-0.4,0.9-0.5
						c0.9-0.3,1.8-0.2,2.7,0.1c1.1,0.4,2.4,1.3,3.6,0.9c0.9-0.3,1.1-1.2,0.6-2c-0.5-0.7-1-1.8-1.8-2.1c-0.7-0.3-1.7-1.7-2.4-1.8
						c-1.4-0.3-5.3-1-6.6-0.2c-1.2,0.8-3.8,3.7-3.1,5.3c0.4,0.8,6.8,3.6,7.8,3.6L229.9,64.8z"/>
				</g>
			</g>
			<g>
				<defs>
					<path id="SVGID_29_" d="M226.3,57.4c0.9-0.4,1.6-0.4,2.6-0.5c1.8-0.2,3.7,0.9,4.6,2.5c0.9,1.6,0.9,3.6,0.1,5.3
						c-0.1,0.2-0.2,0.4-0.5,0.5c-0.2,0-0.4,0-0.6-0.1c-0.9-0.4-1.7-0.7-2.5-1.1c-1.9-0.9-3.9-1.6-6-2.2c-0.3-0.1-0.4-0.4-0.4-0.6
						c0.1-1,0.8-2.6,1.9-3.2C225.8,57.7,226,57.5,226.3,57.4z"/>
				</defs>
				<clipPath id="SVGID_30_">
					<use xlink:href="#SVGID_29_"  style="overflow:visible;"/>
				</clipPath>
				<g class="st30">
					<path class="st15" d="M226.4,62.7c0.4,0-1.5-0.8-1.1-1.5c0.5-0.9,1.2-2.6,5-2.1c1.2,0.2,3.7,0.6,4.9,1.1c0.9,0.4-0.4-0.2-0.9-1
						c-0.5-0.7-1-1.8-1.8-2.1c-0.7-0.3-1.7-1.7-2.4-1.8c-1.4-0.3-5.3-1-6.6-0.2c-1.2,0.8-3.8,3.7-3.1,5.3c0.4,0.8,6.8,3.6,7.8,3.6
						L226.4,62.7z"/>
				</g>
			</g>
			<g>
				<defs>
					<path id="SVGID_31_" d="M226.3,57.4c0.9-0.4,1.6-0.4,2.6-0.5c1.8-0.2,3.7,0.9,4.6,2.5c0.9,1.6,0.9,3.6,0.1,5.3
						c-0.1,0.2-0.2,0.4-0.5,0.5c-0.2,0-0.4,0-0.6-0.1c-0.9-0.4-1.7-0.7-2.5-1.1c-1.9-0.9-3.9-1.6-6-2.2c-0.3-0.1-0.4-0.4-0.4-0.6
						c0.1-1,0.8-2.6,1.9-3.2C225.8,57.7,226,57.5,226.3,57.4z"/>
				</defs>
				<clipPath id="SVGID_32_">
					<use xlink:href="#SVGID_31_"  style="overflow:visible;"/>
				</clipPath>
				<g class="st31">
					<path class="st15" d="M225.3,62.7c0.4,0-1.8-0.8-1.5-1.6c0.5-0.9,1.9-3.9,5.7-3.4c1.1,0.2,3.6,0.4,4.7,0.9
						c0.9,0.4,0.3-0.7-0.3-1.4c-0.5-0.7-2.2,0.1-3-0.2c-0.7-0.3-1.7-1.7-2.4-1.8c-1.4-0.3-5.3-1-6.6-0.2c-1.2,0.8-3.8,3.7-3.1,5.3
						c0.4,0.8,6.8,3.6,7.8,3.6L225.3,62.7z"/>
				</g>
			</g>
		</g>
		<g class="st18">
			<path class="st19" d="M226,61c-0.6,0.2-0.5,1.1,0.2,1.1c1.4,0.1,2.6,0.8,3.8,1.4c1,0.5,2.1,1.1,3.2,0.5c1.8-1-0.3-3.5-1.5-2.1
				c0.1-0.1,0.6-0.1,0.2-0.1c-0.2,0-0.2,0-0.1,0c-0.2,0-0.4-0.1-0.5-0.1c-0.6-0.2-1.2-0.3-1.8-0.5C228.3,60.8,227.1,60.6,226,61
				L226,61z"/>
		</g>
	</g>
	<g>
		<path class="st10" d="M269,53.8c-1.1-0.6-1.8-2.2-1.9-3.2c0-0.3,0.2-0.5,0.4-0.6c2-0.6,4-1.4,6-2.2c0.9-0.4,1.7-0.7,2.5-1.1
			c0.2-0.1,0.4-0.2,0.6-0.1c0.2,0.1,0.4,0.3,0.5,0.5c0.8,1.6,0.8,3.7-0.1,5.3c-0.9,1.6-2.8,2.6-4.6,2.5c-1-0.1-1.8-0.1-2.6-0.5
			C269.5,54.1,269.3,53.9,269,53.8z"/>
		<g>
			<g>
				<defs>
					<path id="SVGID_33_" d="M269,53.8c-1.1-0.6-1.8-2.2-1.9-3.2c0-0.3,0.2-0.5,0.4-0.6c2-0.6,4-1.4,6-2.2c0.9-0.4,1.7-0.7,2.5-1.1
						c0.2-0.1,0.4-0.2,0.6-0.1c0.2,0.1,0.4,0.3,0.5,0.5c0.8,1.6,0.8,3.7-0.1,5.3c-0.9,1.6-2.8,2.6-4.6,2.5c-1-0.1-1.8-0.1-2.6-0.5
						C269.5,54.1,269.3,53.9,269,53.8z"/>
				</defs>
				<clipPath id="SVGID_34_">
					<use xlink:href="#SVGID_33_"  style="overflow:visible;"/>
				</clipPath>
				<g class="st32">
					<path class="st12" d="M266.7,50.4c0.7,0.4,1.4,0.2,2.1,0.1c1.2-0.2,2.3-0.4,3.4-0.7c2.3-0.6,4.6-1.4,6.4-2.9
						c0.5-0.4,0.5-1.2,0.2-1.7c-0.4-0.7-1.3-0.8-1.9-0.4c-0.7,0.4-1.3,1.1-2.1,1.4c-0.9,0.5-1.8,0.9-2.7,1.2
						c-0.9,0.4-1.9,0.8-2.8,1.2c-0.4,0.2-0.7,0.3-1.1,0.5c-0.3,0.1-0.7,0.4-1.1,0.3C266.5,49.3,266.1,50.1,266.7,50.4L266.7,50.4z"
						/>
				</g>
			</g>
		</g>
		<g class="st13">
			<g>
				<defs>
					<path id="SVGID_35_" d="M269,53.8c-1.1-0.6-1.8-2.2-1.9-3.2c0-0.3,0.2-0.5,0.4-0.6c2-0.6,4-1.4,6-2.2c0.9-0.4,1.7-0.7,2.5-1.1
						c0.2-0.1,0.4-0.2,0.6-0.1c0.2,0.1,0.4,0.3,0.5,0.5c0.8,1.6,0.8,3.7-0.1,5.3c-0.9,1.6-2.8,2.6-4.6,2.5c-1-0.1-1.8-0.1-2.6-0.5
						C269.5,54.1,269.3,53.9,269,53.8z"/>
				</defs>
				<clipPath id="SVGID_36_">
					<use xlink:href="#SVGID_35_"  style="overflow:visible;"/>
				</clipPath>
				<g class="st33">
					<path class="st15" d="M273.8,46.3c-1,0-7.4,2.8-7.8,3.6c-0.7,1.6,1.8,4.4,3.1,5.3c1.2,0.8,5.1,0.1,6.6-0.2
						c0.7-0.1,1.7-1.6,2.4-1.8c0.8-0.3,1.3-1.4,1.8-2.1c0.5-0.7,0.3-1.6-0.6-2c-1.2-0.4-2.5,0.5-3.6,0.9c-0.9,0.3-1.8,0.4-2.7,0.1
						c-0.3-0.1-0.7-0.3-0.9-0.5c0,0-0.2-0.3-0.1-0.2c-0.4-1,1.8-2.5,1.4-2.5L273.8,46.3z"/>
				</g>
			</g>
			<g>
				<defs>
					<path id="SVGID_37_" d="M269,53.8c-1.1-0.6-1.8-2.2-1.9-3.2c0-0.3,0.2-0.5,0.4-0.6c2-0.6,4-1.4,6-2.2c0.9-0.4,1.7-0.7,2.5-1.1
						c0.2-0.1,0.4-0.2,0.6-0.1c0.2,0.1,0.4,0.3,0.5,0.5c0.8,1.6,0.8,3.7-0.1,5.3c-0.9,1.6-2.8,2.6-4.6,2.5c-1-0.1-1.8-0.1-2.6-0.5
						C269.5,54.1,269.3,53.9,269,53.8z"/>
				</defs>
				<clipPath id="SVGID_38_">
					<use xlink:href="#SVGID_37_"  style="overflow:visible;"/>
				</clipPath>
				<g class="st34">
					<path class="st15" d="M271.7,47.7c-1,0-7.4,2.8-7.8,3.6c-0.7,1.6,1.8,4.4,3.1,5.3c1.2,0.8,5.1,0.1,6.6-0.2
						c0.7-0.1,1.7-1.6,2.4-1.8c0.8-0.3,1.3-1.4,1.8-2.1c0.5-0.7,1.8-1.4,0.9-1c-1.1,0.5-3.7,1-4.9,1.1c-3.8,0.5-4.6-1.3-5-2.1
						c-0.4-0.7,1.5-1.6,1.1-1.5L271.7,47.7z"/>
				</g>
			</g>
			<g>
				<defs>
					<path id="SVGID_39_" d="M269,53.8c-1.1-0.6-1.8-2.2-1.9-3.2c0-0.3,0.2-0.5,0.4-0.6c2-0.6,4-1.4,6-2.2c0.9-0.4,1.7-0.7,2.5-1.1
						c0.2-0.1,0.4-0.2,0.6-0.1c0.2,0.1,0.4,0.3,0.5,0.5c0.8,1.6,0.8,3.7-0.1,5.3c-0.9,1.6-2.8,2.6-4.6,2.5c-1-0.1-1.8-0.1-2.6-0.5
						C269.5,54.1,269.3,53.9,269,53.8z"/>
				</defs>
				<clipPath id="SVGID_40_">
					<use xlink:href="#SVGID_39_"  style="overflow:visible;"/>
				</clipPath>
				<g class="st35">
					<path class="st15" d="M270.3,47.7c-1,0-7.4,2.8-7.8,3.6c-0.7,1.6,1.8,4.4,3.1,5.3c1.2,0.8,5.1,0.1,6.6-0.2
						c0.7-0.1,1.7-1.6,2.4-1.8c0.8-0.3,2.5,0.5,3-0.2c0.5-0.7,1.2-1.8,0.3-1.4c-1.1,0.5-3.6,0.7-4.7,0.9c-3.8,0.5-5.3-2.5-5.7-3.4
						c-0.4-0.7,1.8-1.6,1.5-1.6L270.3,47.7z"/>
				</g>
			</g>
		</g>
		<g class="st18">
			<path class="st19" d="M269.5,50.6c1.1,0.4,2.3,0.2,3.4-0.1c0.6-0.2,1.2-0.4,1.8-0.5c0.2,0,0.4-0.1,0.5-0.1c-0.1,0,0,0,0.1,0
				c0.4,0-0.1,0-0.2-0.1c1.2,1.4,3.3-1.2,1.5-2.1c-1.1-0.6-2.2,0-3.2,0.5c-1.2,0.6-2.4,1.3-3.8,1.4
				C268.9,49.6,268.9,50.4,269.5,50.6L269.5,50.6z"/>
		</g>
	</g>
	<g>
		<path class="st10" d="M87.2,84.8c-0.4-1.2,0.1-2.9,0.7-3.7c0.2-0.2,0.5-0.3,0.7-0.2c2,0.9,3.9,1.6,6,2.3c0.9,0.3,1.8,0.5,2.6,0.8
			c0.2,0.1,0.4,0.1,0.5,0.3c0.1,0.2,0.1,0.5,0,0.7c-0.5,1.8-1.8,3.3-3.6,3.9c-1.7,0.6-3.8,0.2-5.1-1.2c-0.7-0.7-1.3-1.2-1.6-2.1
			C87.4,85.4,87.3,85.1,87.2,84.8z"/>
		<g>
			<g>
				<defs>
					<path id="SVGID_41_" d="M87.3,84.8c-0.4-1.2,0.1-2.9,0.7-3.7c0.2-0.2,0.5-0.3,0.7-0.2c2,0.9,3.9,1.6,6,2.3
						c0.9,0.3,1.8,0.5,2.6,0.8c0.2,0.1,0.4,0.1,0.5,0.3c0.1,0.2,0.1,0.5,0,0.7c-0.5,1.8-1.8,3.3-3.6,3.9c-1.7,0.6-3.8,0.2-5.1-1.2
						c-0.7-0.7-1.3-1.2-1.6-2.1C87.4,85.4,87.4,85.1,87.3,84.8z"/>
				</defs>
				<clipPath id="SVGID_42_">
					<use xlink:href="#SVGID_41_"  style="overflow:visible;"/>
				</clipPath>
				<g class="st36">
					<path class="st12" d="M87.7,80.7c0.2,0.7,0.9,1.1,1.5,1.5c1,0.6,2,1.2,3,1.7c2.1,1,4.3,2,6.7,2c0.6,0,1.1-0.6,1.2-1.2
						c0.1-0.8-0.4-1.4-1.2-1.6c-0.8-0.2-1.7-0.1-2.5-0.3c-1-0.2-1.9-0.5-2.9-0.8c-1-0.3-1.9-0.6-2.9-0.9c-0.4-0.1-0.8-0.3-1.1-0.4
						c-0.3-0.1-0.8-0.2-1-0.5C88.3,79.7,87.5,80.1,87.7,80.7L87.7,80.7z"/>
				</g>
			</g>
		</g>
		<g class="st13">
			<g>
				<defs>
					<path id="SVGID_43_" d="M87.2,84.8c-0.4-1.2,0.1-2.9,0.7-3.7c0.2-0.2,0.5-0.3,0.7-0.2c2,0.9,3.9,1.6,6,2.3
						c0.9,0.3,1.8,0.5,2.6,0.8c0.2,0.1,0.4,0.1,0.5,0.3c0.1,0.2,0.1,0.5,0,0.7c-0.5,1.8-1.8,3.3-3.6,3.9c-1.7,0.6-3.8,0.2-5.1-1.2
						c-0.7-0.7-1.3-1.2-1.6-2.1C87.4,85.4,87.3,85.1,87.2,84.8z"/>
				</defs>
				<clipPath id="SVGID_44_">
					<use xlink:href="#SVGID_43_"  style="overflow:visible;"/>
				</clipPath>
				<g class="st37">
					<path class="st15" d="M95.8,82.2c-0.8-0.6-7.4-2.7-8.2-2.4c-1.6,0.7-1.6,4.5-1.2,6c0.4,1.4,3.8,3.4,5.1,4.2
						c0.6,0.4,2.3,0,3,0.2c0.8,0.3,1.9-0.2,2.7-0.4c0.9-0.2,1.3-1,0.9-1.9c-0.6-1.1-2.2-1.3-3.3-1.7c-0.9-0.4-1.6-0.8-2.1-1.7
						c-0.1-0.2-0.3-0.7-0.3-1c0-0.1,0-0.3,0-0.2c0.4-1,3-0.7,2.7-1L95.8,82.2z"/>
				</g>
			</g>
			<g>
				<defs>
					<path id="SVGID_45_" d="M87.2,84.8c-0.4-1.2,0.1-2.9,0.7-3.7c0.2-0.2,0.5-0.3,0.7-0.2c2,0.9,3.9,1.6,6,2.3
						c0.9,0.3,1.8,0.5,2.6,0.8c0.2,0.1,0.4,0.1,0.5,0.3c0.1,0.2,0.1,0.5,0,0.7c-0.5,1.8-1.8,3.3-3.6,3.9c-1.7,0.6-3.8,0.2-5.1-1.2
						c-0.7-0.7-1.3-1.2-1.6-2.1C87.4,85.4,87.3,85.1,87.2,84.8z"/>
				</defs>
				<clipPath id="SVGID_46_">
					<use xlink:href="#SVGID_45_"  style="overflow:visible;"/>
				</clipPath>
				<g class="st38">
					<path class="st15" d="M93.3,82c-0.8-0.6-7.4-2.8-8.2-2.4c-1.6,0.7-1.6,4.5-1.2,6c0.4,1.4,3.8,3.4,5.1,4.2c0.6,0.4,2.3,0,3,0.2
						c0.8,0.3,1.9-0.2,2.7-0.4c0.9-0.2,2.2,0.1,1.3-0.2c-1.2-0.4-3.5-1.7-4.4-2.4c-3.2-2.1-2.6-4-2.4-4.9c0.2-0.8,2.1-0.2,1.8-0.4
						L93.3,82z"/>
				</g>
			</g>
			<g>
				<defs>
					<path id="SVGID_47_" d="M87.2,84.8c-0.4-1.2,0.1-2.9,0.7-3.7c0.2-0.2,0.5-0.3,0.7-0.2c2,0.9,3.9,1.6,6,2.3
						c0.9,0.3,1.8,0.5,2.6,0.8c0.2,0.1,0.4,0.1,0.5,0.3c0.1,0.2,0.1,0.5,0,0.7c-0.5,1.8-1.8,3.3-3.6,3.9c-1.7,0.6-3.8,0.2-5.1-1.2
						c-0.7-0.7-1.3-1.2-1.6-2.1C87.4,85.4,87.3,85.1,87.2,84.8z"/>
				</defs>
				<clipPath id="SVGID_48_">
					<use xlink:href="#SVGID_47_"  style="overflow:visible;"/>
				</clipPath>
				<g class="st39">
					<path class="st15" d="M92.2,81.1c-0.8-0.6-7.4-2.8-8.2-2.4c-1.6,0.7-1.6,4.5-1.2,6c0.4,1.4,3.8,3.4,5.1,4.2
						c0.6,0.4,2.3,0,3,0.2c0.8,0.3,1.5,2,2.4,1.8c0.9-0.2,2.1-0.6,1.1-0.9c-1.2-0.4-3.2-1.8-4.1-2.4c-3.2-2.1-2.3-5.3-2.1-6.3
						c0.2-0.8,2.4,0,2.1-0.2L92.2,81.1z"/>
				</g>
			</g>
		</g>
		<g class="st18">
			<path class="st19" d="M89.6,82.7c0.6,1.1,1.6,1.6,2.7,2.2c0.6,0.3,1.1,0.5,1.7,0.8c0.2,0.1,0.3,0.2,0.5,0.2c-0.1-0.1,0,0,0.1,0.1
				c0.3,0.2-0.1-0.1-0.1-0.2c0,1.9,3.2,1.3,2.6-0.6c-0.5-1.2-1.7-1.5-2.7-1.8C93,83,91.6,82.8,90.5,82
				C89.9,81.6,89.3,82.2,89.6,82.7L89.6,82.7z"/>
		</g>
	</g>
</g>
</svg>
