<?xml version="1.0" encoding="utf-8"?>
<!-- Generator: Adobe Illustrator 21.0.0, SVG Export Plug-In . SVG Version: 6.00 Build 0)  -->
<svg version="1.1" xmlns="http://www.w3.org/2000/svg" xmlns:xlink="http://www.w3.org/1999/xlink" x="0px" y="0px"
	 viewBox="0 0 389 157" style="enable-background:new 0 0 389 157;" xml:space="preserve">
<style type="text/css">
	.st0{display:none;}
	.st1{display:inline;}
	.st2{fill:#732A13;}
	.st3{fill:#6C151C;}
	.st4{fill:#F6C073;}
	.st5{fill:#F1A12E;}
	.st6{opacity:0.3;fill:#FBE0BA;enable-background:new    ;}
	.st7{fill:#6F4026;}
	.st8{fill:#F6C278;}
	.st9{fill:#AB1717;}
	.st10{fill:#D19990;}
	.st11{fill:#E2A59F;}
	.st12{fill:#FFD5C5;}
</style>
<g id="Слой_1" class="st0">
	<g id="Layer_1" class="st1">
		<g>
			
				<ellipse transform="matrix(0.9998 -1.910948e-02 1.910948e-02 0.9998 -1.7337 3.9668)" class="st2" cx="206.7" cy="92.7" rx="175.1" ry="48.7"/>
			
				<ellipse transform="matrix(0.9998 -1.911576e-02 1.911576e-02 0.9998 -1.5262 3.9298)" class="st3" cx="204.8" cy="81.8" rx="161" ry="44.8"/>
			
				<ellipse transform="matrix(0.9998 -1.911913e-02 1.911913e-02 0.9998 -1.4442 3.9373)" class="st4" cx="205.2" cy="77.5" rx="158.3" ry="44.6"/>
			
				<ellipse transform="matrix(0.9998 -1.910377e-02 1.910377e-02 0.9998 -1.317 3.9311)" class="st5" cx="205.1" cy="70.9" rx="145.6" ry="32.3"/>
			
				<ellipse transform="matrix(0.9998 -1.911114e-02 1.911114e-02 0.9998 -1.3424 3.9328)" class="st5" cx="205.1" cy="72.2" rx="139.4" ry="30.9"/>
			<path class="st6" d="M204.5,41.3c-77,1.5-139.1,16.5-138.8,33.6s63,29.7,140,28.3c77-1.5,139.1-16.5,138.8-33.6
				S281.5,39.9,204.5,41.3z M76.5,69.9c-0.4-0.2-0.5-0.7-0.3-1.1c3.1-9.1,15.8-8,22.9-11.7c0.3-0.2,0.6-0.2,0.8-0.1
				c15-5,30.2-7.7,46.5-8.8c9-0.6,18.1-0.6,27.1-0.7c5.3-0.1,12.1-0.5,16.1,3.6c0.6,0.6-0.1,1.5-0.7,1.7c-8,3.7-17.1,2.5-25.7,3.3
				c-11,1-22.1,2.7-32.9,4.8c-10.9,2.1-22.2,3.3-33,6.1C90.6,68.8,83.3,72.4,76.5,69.9z M180.5,95.3c-6.8,1.8-14,1.7-21,1.7
				c-9.1,0-18.1-0.1-27.2,0c-5.6,0-12.9,0-17.3-4.1c-4.6-4.3-9.2-3.7-15-3.6c-4.6,0-17.9,0.3-17.1-7.4c0.6-5.4,10.5-7.5,14.4-8.5
				c8.1-2.1,16.5-3.3,24.8-4c3.8-0.3,7.4-0.5,11.1-1.1c0.1-0.1,0.3-0.2,0.4-0.2c12.3-2.4,24.7-4,37.2-4.6c8.1-0.4,22-1.8,22.4,9.6
				C193.7,82.5,190.7,92.5,180.5,95.3z M213.5,49.7c7-6.9,18.9-4.7,27.8-6c0.5-0.1,0.7,0.1,0.8,0.4c6,0,12.1,0.7,18.1,1.3
				c6.4,0.6,16.7,0.8,21.1,6.5c0.4,0.6,0.1,1.6-0.7,1.7c-12.9,3.4-25.5-0.7-38.5,0c-8.7,0.5-20.9,2.9-28.6-2.4
				C213,50.8,213,50.1,213.5,49.7z M261.1,84.1c-1.6,4.3-7.6,5.8-11.6,6.6c-7.1,1.4-14.7,2.8-21.8,3.4c-7,0.6-12.6-1.2-15.8-7.8
				c-1.4-3-6.8-16-3.7-20.4c0.1-0.1,0.2-0.3,0.3-0.4c0.4-0.4,0.9-0.7,1.6-0.9c2-0.8,4.1-0.6,6.5,0.2c5.2,1.6,10.6,2.4,15.9,3.9
				c7,1.9,14.2,4.3,20.9,7.3C256.2,77.1,262.7,79.8,261.1,84.1z M300.7,71.4c-4.1,5.6-14.6,4.6-20.5,4.1
				c-11.3-0.9-22.3-2.5-33.2-5.8c-3.7-1.1-18.2-3.5-18.9-8.4c-0.3-2.3,2.3-3.5,5.3-4.1c9.4-3.8,19.3,0,28.9,0.7
				c5.4,0.4,10.9,1.2,16.2,2.1C281.8,60.5,306.3,63.8,300.7,71.4z"/>
			<path class="st7" d="M38.5,90c0,0-6.8,2.4-0.1,15.3s86.2,37.6,160.7,32.7c0,0,51.9,0,52.2-4.1s-19.8-4.3-19.8-4.3
				s-23.5,0.7-33.8,0.8C187.5,130.4,54.8,131.5,38.5,90z"/>
			<path class="st8" d="M55.9,70.2c0,0-3.4-0.2-6.1,6.4c-2.7,6.6,7.9,22.9,55,33.2c47,10.3,115.1,12.6,150.4,6.2s18.1-15.1,0.9-12.8
				c-17.2,2.3-17.2,2.3-17.2,2.3S153,108.1,110,99.9C69.2,92.2,55.1,87.1,55.9,70.2z"/>
		</g>
	</g>
	<g id="Слой_3" class="st1">
		<path class="st9" d="M145.6,45.9c0,0,46.5-2,75.9-1.5c19.1,0.2,41.2-3.1,77.1,5.1c17.5,3.8,28.6,7.5,34.6,10.6
			c3.6,1.9,6,5.6,5.9,9.7c-0.1,6.2-6.3,15.6-56.8,26c-49.7,4.8-55.4,4.6-77.4,3.8c-24.5,0.9-52.2,3.2-76.1-2.4
			c-26.9-5.6-68.6-13.4-56.1-25.5C80.6,64.8,90.8,54.2,145.6,45.9z"/>
	</g>
</g>
<g id="Слой_3_1_">
	<g>
		<path class="st10" d="M146.2,96.3c-0.9-0.3-1.7-0.8-2.2-1.6c-0.4-0.5-0.5-1.2-0.6-1.8c-0.2-2.7,1.4-5.3,3.7-6.5s5.2-1.4,7.7-0.7
			c3.9-3.2,9.3-4.5,14.2-3.5c1.2,0.2,2.3,0.6,3.4,1.2c1.8,1.1,3.1,2.8,4.3,4.5c0.3,0.5,0.7,1,0.9,1.5c0.3,1.1-0.1,2.2-0.9,3
			c-0.8,0.8-1.8,1.2-2.9,1.6c-2.1,0.6-4.3,0.7-6.5,0.9c-3.7,0.3-7.3,0.6-11,1.1C153.1,96.4,149.4,97.5,146.2,96.3z"/>
		<path class="st11" d="M176.9,88.1c-0.1-0.1-0.1-0.2-0.2-0.3c-1.2-1.7-2.5-3.4-4.3-4.5c-1-0.6-2.2-1-3.4-1.2
			c-2.9-0.6-6-0.4-8.9,0.6c-0.1,0.2-0.1,0.3-0.2,0.6c-0.5,2.4-2.5,3.6-3.5,5.6c-0.1,0.3-0.2,0.6-0.1,0.9c0.1,0.5,0.8,0.7,1.3,0.6
			c0.9-0.1,1.8-0.6,2.7-0.8c1.8-0.5,3.7,0,5.6,0.2c1.8,0.2,3.7,0.1,5.5-0.4c1.5-0.4,3-1,4.6-1.1C176.2,88.3,176.6,88.3,176.9,88.1z"
			/>
		<path class="st11" d="M158.6,84.2c0.2-0.3,0.4-0.7,0.5-1.1c-1.6,0.6-3,1.5-4.3,2.5c-2.6-0.7-5.4-0.6-7.7,0.7
			c-1.2,0.7-2.2,1.7-2.8,2.8c1.1-0.1,2.2,0.3,3.1,1.1c0.8,0.7,1.3,1.6,2.2,2.2c0.8,0.5,1.9,0.6,2.8,0.4c0.9-0.2,1.9-0.6,2.7-0.9
			c0.4-0.2,0.9-0.4,0.9-0.9c0-0.4-0.3-0.6-0.5-0.9c-0.2-0.5,0.1-1,0.4-1.5C156.7,87.1,157.7,85.7,158.6,84.2z"/>
		<path class="st11" d="M164.1,91.7c-1.3-0.3-2.7-0.5-4-0.8"/>
		<path class="st11" d="M156.5,94.1c0.3-0.5,0.8-1,0.9-1.7s-0.6-1.3-1.1-0.9c0.1,0.4-0.2,0.9-0.6,1.1s-0.8,0.4-1.2,0.5
			c-1.2,0.3-2.5,0.6-3.8,0.6c-1.3,0-2.6-0.5-3.4-1.5c-0.4-0.5-0.7-1.1-1.1-1.6c-0.6-0.6-1.4-0.8-2.2-0.8c-0.4,0.9-0.6,2-0.5,3
			c0.1,0.6,0.2,1.3,0.6,1.8c0.5,0.8,1.4,1.2,2.2,1.6c3,1.2,6.5,0.2,9.7-0.3C156,95.3,156.2,94.6,156.5,94.1z"/>
		<path class="st11" d="M177.6,89.4c0-0.1-0.1-0.2-0.1-0.3c-0.5,0.1-1,0.2-1.5,0.3c-3.7,0.9-7.6,1.8-11.4,1.2
			c-1.5-0.2-3-0.7-4.4-0.1c0.9,0.6,2.1,0.6,3.2,0.6c1.6,0,3.2,0.3,4.4,1.2c0.9,0.7,1.5,1.8,2.5,2.3c1.1-0.1,2.3-0.3,3.4-0.6
			c1.1-0.3,2.1-0.8,2.9-1.6C177.5,91.6,177.9,90.5,177.6,89.4z"/>
		<path class="st12" d="M176.4,87.5c-1.1-1.6-2.4-3.1-4-4.1c-1-0.6-2.2-1-3.4-1.2c-4.9-1-10.3,0.3-14.2,3.5
			c-2.6-0.7-5.4-0.6-7.7,0.7s-3.9,3.9-3.7,6.5c0.1,0.6,0.2,1.3,0.6,1.8c0.1,0.2,0.3,0.4,0.5,0.5c-0.2-0.9-0.4-1.8-0.2-2.8
			c0.3-1.2,0.9-2.2,1.8-3c1.7-1.4,4.2-2.4,6.5-2.4c0.9,0,2,0.3,2.8,0.2c1.4-0.2,2.1-0.5,3.3-1.1c3.5-1.8,7.5-3.1,11.3-2.2
			C172.4,84.5,174.5,85.9,176.4,87.5z"/>
		<path class="st12" d="M150.6,87.7c-0.1,0.3-0.2,0.7-0.3,1c-0.1,0.2-0.2,0.5-0.2,0.7"/>
		<path class="st10" d="M169.4,94c2.4-0.2,5.1-0.5,6.8-2.2c0.5-0.5,0.9-1.1,1-1.9"/>
	</g>
	<g>
		<path class="st10" d="M313.9,71.5c-3.6-0.5-7.3-0.8-11-1.1c-2.2-0.1-4.4-0.3-6.5-0.9c-1.1-0.3-2.1-0.8-2.9-1.6
			c-0.8-0.8-1.2-1.9-0.9-3c0.2-0.6,0.5-1,0.9-1.5c1.2-1.7,2.5-3.5,4.3-4.5c1-0.6,2.2-1,3.4-1.2c4.9-1,10.3,0.3,14.2,3.5
			c2.6-0.7,5.4-0.6,7.7,0.7c2.3,1.3,3.9,3.9,3.7,6.5c0,0.6-0.2,1.3-0.6,1.8c-0.5,0.8-1.4,1.2-2.2,1.6
			C320.9,73.1,317.2,71.9,313.9,71.5z"/>
		<path class="st11" d="M294.5,63.9c1.6,0,3.1,0.7,4.6,1.1c1.8,0.5,3.6,0.6,5.5,0.4c1.9-0.2,3.8-0.8,5.6-0.2
			c0.9,0.2,1.8,0.8,2.7,0.8c0.5,0,1.1-0.1,1.3-0.6c0.1-0.3,0-0.6-0.1-0.9c-1-2.1-3-3.3-3.5-5.6c0-0.2-0.1-0.4-0.2-0.6
			c-2.8-0.9-5.9-1.2-8.9-0.6c-1.2,0.2-2.4,0.6-3.4,1.2c-1.8,1.1-3.1,2.8-4.3,4.5c-0.1,0.1-0.1,0.2-0.2,0.3
			C293.7,63.9,294.1,63.9,294.5,63.9z"/>
		<path class="st11" d="M314.5,64.1c0.3,0.4,0.6,1,0.4,1.5c-0.1,0.3-0.5,0.6-0.5,0.9c0,0.4,0.5,0.7,0.9,0.9c0.9,0.4,1.8,0.8,2.7,0.9
			c0.9,0.2,2,0.1,2.8-0.4c0.9-0.5,1.4-1.5,2.2-2.2c0.9-0.9,2-1.2,3.1-1.1c-0.7-1.1-1.7-2.1-2.8-2.8c-2.3-1.3-5.2-1.4-7.7-0.7
			c-1.3-1-2.8-1.9-4.3-2.5c0,0.4,0.2,0.8,0.5,1.1C312.6,61.2,313.6,62.7,314.5,64.1z"/>
		<path class="st11" d="M310.2,66.4c-1.3,0.3-2.7,0.5-4,0.8"/>
		<path class="st11" d="M314.4,71.5c3.1,0.4,6.7,1.4,9.7,0.3c0.9-0.3,1.7-0.8,2.2-1.6c0.3-0.5,0.5-1.2,0.6-1.8c0.1-1-0.1-2.1-0.5-3
			c-0.8,0-1.6,0.2-2.2,0.8c-0.5,0.4-0.7,1-1.1,1.6c-0.8,1-2.1,1.5-3.4,1.5c-1.3,0-2.6-0.3-3.8-0.6c-0.4-0.1-0.9-0.2-1.2-0.5
			s-0.6-0.7-0.6-1.1c-0.5-0.4-1.2,0.3-1.1,0.9c0.1,0.6,0.5,1.1,0.9,1.7C314.2,70.2,314.4,70.9,314.4,71.5z"/>
		<path class="st11" d="M293.6,68c0.8,0.8,1.8,1.2,2.9,1.6c1.1,0.3,2.2,0.5,3.4,0.6c1-0.6,1.6-1.6,2.5-2.3c1.2-0.9,2.9-1.2,4.4-1.2
			c1.1,0,2.3,0,3.2-0.6c-1.4-0.6-2.9-0.1-4.4,0.1c-3.8,0.6-7.7-0.3-11.4-1.2c-0.5-0.1-1-0.2-1.5-0.3c0,0.1-0.1,0.2-0.1,0.3
			C292.4,66,292.9,67.2,293.6,68z"/>
		<path class="st12" d="M300.3,59.5c3.8-0.9,7.8,0.3,11.3,2.2c1.2,0.6,2,0.9,3.3,1.1c0.9,0.1,2-0.2,2.8-0.2c2.2-0.1,4.8,0.9,6.5,2.4
			c0.9,0.8,1.5,1.9,1.8,3c0.2,1,0,1.9-0.2,2.8c0.2-0.1,0.3-0.3,0.5-0.5c0.3-0.5,0.5-1.2,0.6-1.8c0.2-2.6-1.4-5.3-3.7-6.5
			c-2.3-1.3-5.2-1.4-7.7-0.7c-3.9-3.2-9.3-4.5-14.2-3.5c-1.2,0.2-2.4,0.6-3.4,1.2c-1.7,1-2.9,2.5-4,4.1
			C295.8,61.4,297.9,60,300.3,59.5z"/>
		<path class="st12" d="M320.2,65c0.1-0.2,0-0.5-0.2-0.7c-0.1-0.3-0.2-0.6-0.3-1"/>
		<path class="st10" d="M293.1,65.5c0.1,0.7,0.5,1.3,1,1.9c1.7,1.7,4.4,2,6.8,2.2"/>
	</g>
	<g>
		<path class="st10" d="M100.3,60.8c3.5-1.2,6.9-2.4,10.3-3.8c2-0.8,4.1-1.7,6.2-2c1.1-0.2,2.2-0.2,3.3,0.1c1,0.4,1.9,1.2,2.1,2.3
			c0.1,0.6,0,1.2-0.1,1.8c-0.4,2.1-0.8,4.2-1.9,6c-0.7,1-1.6,1.8-2.5,2.6c-4,3-9.4,4.2-14.3,3c-2,1.8-4.6,2.9-7.2,2.7
			c-2.6-0.2-5.2-1.8-6.2-4.3c-0.2-0.6-0.4-1.3-0.3-1.9c0.1-0.9,0.7-1.7,1.3-2.4C93.3,62.4,97.1,61.8,100.3,60.8z"/>
		<path class="st11" d="M121.1,59.2c-1.4,0.6-3.1,0.7-4.6,1c-1.8,0.4-3.5,1-5.1,2c-1.6,1-3.1,2.3-4.9,2.6c-0.9,0.2-1.9,0.1-2.8,0.4
			c-0.5,0.2-0.9,0.6-0.9,1.1c0,0.3,0.3,0.5,0.5,0.7c1.8,1.4,4.2,1.6,5.6,3.6c0.1,0.2,0.3,0.3,0.4,0.5c3-0.4,5.9-1.5,8.2-3.4
			c1-0.7,1.9-1.6,2.5-2.6c1.1-1.8,1.6-3.9,1.9-6c0-0.1,0-0.2,0.1-0.3C121.8,58.9,121.4,59.1,121.1,59.2z"/>
		<path class="st11" d="M102.9,67.7c-0.4-0.3-0.9-0.6-1-1.1c0-0.3,0.2-0.7,0-1.1c-0.2-0.4-0.7-0.4-1.1-0.4c-1,0-1.9,0.1-2.9,0.3
			c-0.9,0.3-1.8,0.8-2.3,1.6c-0.6,0.9-0.6,2-1,2.9c-0.5,1.2-1.2,2-2.3,2.4c1.1,0.7,2.4,1.2,3.8,1.3c2.6,0.2,5.3-1,7.2-2.7
			c1.6,0.4,3.3,0.5,5,0.4c-0.2-0.3-0.6-0.6-0.9-0.8C105.9,69.5,104.4,68.6,102.9,67.7z"/>
		<path class="st11" d="M105.8,63.7c1.1-0.8,2.2-1.6,3.3-2.5"/>
		<path class="st11" d="M99.8,61c-3,1-6.6,1.6-8.8,4c-0.6,0.7-1.2,1.5-1.3,2.4c-0.1,0.6,0.1,1.3,0.3,1.9c0.4,1,1,1.8,1.8,2.5
			c0.7-0.3,1.3-0.9,1.6-1.7c0.2-0.6,0.2-1.3,0.3-1.9c0.3-1.2,1.3-2.2,2.4-2.8c1.2-0.6,2.4-0.8,3.7-1.1c0.4-0.1,0.9-0.2,1.3-0.1
			c0.4,0.1,0.9,0.4,1,0.8c0.6,0.1,1-0.8,0.6-1.4s-1-0.8-1.5-1.1C100.6,62.1,100.1,61.6,99.8,61z"/>
		<path class="st11" d="M120.1,55.2c-1.1-0.4-2.2-0.3-3.3-0.1c-1.1,0.2-2.2,0.5-3.3,0.9c-0.7,0.9-0.8,2.1-1.3,3.2
			c-0.7,1.4-2.1,2.3-3.5,3c-1,0.5-2.1,1-2.6,1.9c1.5-0.1,2.7-1.2,3.9-2c3.2-2.2,7-3.1,10.8-3.8c0.5-0.1,1-0.2,1.5-0.4
			c0-0.1,0-0.2,0-0.4C122,56.4,121.1,55.5,120.1,55.2z"/>
		<path class="st12" d="M117.7,65.7c-3.1,2.5-7.2,3.1-11.1,3c-1.4,0-2.2,0-3.5,0.4c-0.8,0.3-1.7,1-2.5,1.4c-2,1-4.7,1.2-6.8,0.7
			c-1.1-0.3-2.2-1-2.9-1.9c-0.7-0.8-0.8-1.7-1.1-2.6c-0.1,0.2-0.1,0.4-0.2,0.7c-0.1,0.6,0.1,1.3,0.3,1.9c0.9,2.5,3.5,4.1,6.2,4.3
			c2.6,0.2,5.3-1,7.2-2.7c4.9,1.2,10.3,0,14.3-3c1-0.7,1.9-1.6,2.5-2.6c1.1-1.6,1.5-3.5,1.8-5.4C121,62,119.6,64.2,117.7,65.7z"/>
		<path class="st12" d="M97.4,69.4c0,0.3,0.3,0.4,0.5,0.6c0.3,0.2,0.5,0.5,0.7,0.7"/>
		<path class="st10" d="M121.6,57.1c-0.4-0.6-1.1-1-1.7-1.2c-2.3-0.8-4.8,0.1-7.1,1"/>
	</g>
	<g>
		<path class="st10" d="M219.7,55.1c3.6,0.5,7.3,0.8,11,1.1c2.2,0.1,4.4,0.3,6.5,0.9c1.1,0.3,2.1,0.8,2.9,1.6c0.8,0.8,1.2,1.9,0.9,3
			c-0.2,0.6-0.5,1-0.9,1.5c-1.2,1.7-2.5,3.5-4.3,4.5c-1,0.6-2.2,1-3.4,1.2c-4.9,1-10.3-0.3-14.2-3.5c-2.6,0.7-5.4,0.6-7.7-0.7
			s-3.9-3.9-3.7-6.5c0-0.6,0.2-1.3,0.6-1.8c0.5-0.8,1.4-1.2,2.2-1.6C212.7,53.5,216.5,54.7,219.7,55.1z"/>
		<path class="st11" d="M239.2,62.7c-1.6,0-3.1-0.7-4.6-1.1c-1.8-0.5-3.6-0.6-5.5-0.4c-1.9,0.2-3.8,0.8-5.6,0.2
			c-0.9-0.2-1.8-0.8-2.7-0.8c-0.5,0-1.1,0.1-1.3,0.6c-0.1,0.3,0,0.6,0.1,0.9c1,2.1,3,3.3,3.5,5.6c0,0.2,0.1,0.4,0.2,0.6
			c2.8,0.9,5.9,1.2,8.9,0.6c1.2-0.2,2.4-0.6,3.4-1.2c1.8-1.1,3.1-2.8,4.3-4.5c0.1-0.1,0.1-0.2,0.2-0.3
			C239.9,62.7,239.5,62.7,239.2,62.7z"/>
		<path class="st11" d="M219.1,62.5c-0.3-0.4-0.6-1-0.4-1.5c0.1-0.3,0.5-0.6,0.5-0.9c0-0.4-0.5-0.7-0.9-0.9
			c-0.9-0.4-1.8-0.8-2.7-0.9c-0.9-0.2-2-0.1-2.8,0.4c-0.9,0.5-1.4,1.5-2.2,2.2c-0.9,0.9-2,1.2-3.1,1.1c0.7,1.1,1.7,2.1,2.8,2.8
			c2.3,1.3,5.2,1.4,7.7,0.7c1.3,1,2.8,1.9,4.3,2.5c0-0.4-0.2-0.8-0.5-1.1C221,65.4,220.1,63.9,219.1,62.5z"/>
		<path class="st11" d="M223.4,60.2c1.3-0.3,2.7-0.5,4-0.8"/>
		<path class="st11" d="M219.3,55.1c-3.1-0.4-6.7-1.4-9.7-0.3c-0.9,0.3-1.7,0.8-2.2,1.6c-0.3,0.5-0.5,1.2-0.6,1.8
			c-0.1,1,0.1,2.1,0.5,3c0.8,0,1.6-0.2,2.2-0.8c0.5-0.4,0.7-1,1.1-1.6c0.8-1,2.1-1.5,3.4-1.5c1.3,0,2.6,0.3,3.8,0.6
			c0.4,0.1,0.9,0.2,1.2,0.5s0.6,0.7,0.6,1.1c0.5,0.4,1.2-0.3,1.1-0.9s-0.5-1.1-0.9-1.7C219.5,56.4,219.3,55.8,219.3,55.1z"/>
		<path class="st11" d="M240,58.7c-0.8-0.8-1.8-1.2-2.9-1.6c-1.1-0.3-2.2-0.5-3.4-0.6c-1,0.6-1.6,1.6-2.5,2.3
			c-1.2,0.9-2.9,1.2-4.4,1.2c-1.1,0-2.3,0-3.2,0.6c1.4,0.6,2.9,0.1,4.4-0.1c3.8-0.6,7.7,0.3,11.4,1.2c0.5,0.1,1,0.2,1.5,0.3
			c0-0.1,0.1-0.2,0.1-0.3C241.2,60.6,240.8,59.4,240,58.7z"/>
		<path class="st12" d="M233.3,67.1c-3.8,0.9-7.8-0.3-11.3-2.2c-1.2-0.6-2-0.9-3.3-1.1c-0.9-0.1-2,0.2-2.8,0.2
			c-2.2,0.1-4.8-0.9-6.5-2.4c-0.9-0.8-1.5-1.9-1.8-3c-0.2-1,0-1.9,0.2-2.8c-0.2,0.1-0.3,0.3-0.5,0.5c-0.3,0.5-0.5,1.2-0.6,1.8
			c-0.2,2.6,1.4,5.3,3.7,6.5s5.2,1.4,7.7,0.7c3.9,3.2,9.3,4.5,14.2,3.5c1.2-0.2,2.4-0.6,3.4-1.2c1.7-1,2.9-2.5,4-4.1
			C237.9,65.2,235.7,66.6,233.3,67.1z"/>
		<path class="st12" d="M213.4,61.7c-0.1,0.2,0,0.5,0.2,0.7c0.1,0.3,0.2,0.6,0.3,1"/>
		<path class="st10" d="M240.5,61.1c-0.1-0.7-0.5-1.3-1-1.9c-1.7-1.7-4.4-2-6.8-2.2"/>
	</g>
</g>
</svg>
