<?xml version="1.0" encoding="utf-8"?>
<!-- Generator: Adobe Illustrator 21.0.0, SVG Export Plug-In . SVG Version: 6.00 Build 0)  -->
<svg version="1.1" id="Слой_1" xmlns="http://www.w3.org/2000/svg" xmlns:xlink="http://www.w3.org/1999/xlink" x="0px" y="0px"
	 viewBox="0 0 200 78" style="enable-background:new 0 0 200 78;" xml:space="preserve">
<style type="text/css">
	.st0{fill:#CC4452;}
	.st1{fill:#D3B6A9;}
	.st2{fill:#E28681;}
	.st3{fill:#FFDDD7;}
	.st4{fill:#A35D58;}
	.st5{opacity:0.34;fill:#FFFFFF;}
	.st6{opacity:0.55;fill:#FFFFFF;}
</style>
<g>
	<g>
		<path class="st0" d="M27,58.2c1.1,1.5,2.8,2.4,4.6,3c2.4,0.9,4.8,1.5,7.1,2.7c1.3,0.7,2.6,1.6,4,1.9c0.3-1.8-0.6-3.7-2-5
			c-1.4-1.2-3.2-1.9-5-2.5c-1.8-0.6-3.6-1.1-5.2-2.1c-0.9-0.6-2.8-2.9-3.8-2.2C25.6,54.8,26.4,57.4,27,58.2z"/>
		<path class="st1" d="M43.7,66.3c2.4,0.8,4.8,1.5,7.3,2.3c3.6,1.1,7.3,2.2,11.1,1.8c3.7-0.5,7-2.5,10.4-4c11.6-5.1,25-4.4,36.8-8.9
			c7.9-3,14.6-8.2,22.2-11.8c12.1-5.7,25.8-7.1,39.2-7.6c7.4-0.2,15-0.3,21.9-2.7c1.5-0.5,3.2-1.9,2.3-3.2c-0.5-0.7-1.4-0.8-2.3-0.9
			C169.4,30,146.1,33,124.1,40C104,46.3,84.6,56.1,63.6,57.6C58,58,52.3,57.9,46.9,59.5c-1.8,0.5-5.2,1.5-6.5,2.9
			C38.6,64.3,42.1,65.8,43.7,66.3z"/>
		<path class="st2" d="M41.7,46c6.6-1.3,13.4-1.8,20-3.2c15.6-3.5,29.5-12.4,44.9-16.5c16.8-4.5,34.5-3.2,51.9-1.8
			c12.3,1,25,2,36.3,7.1c-5,2.5-10.7,2.8-16.2,3.3c-7.7,0.6-15.4,1.4-23,2.3c-11.1,1.3-22.5,3.1-32.1,8.7c-5.1,2.9-9.6,6.9-14.9,9.3
			c-7.2,3.3-15.3,3.8-23,5.2c-5.7,1-11.3,2.6-16.5,5.1c-3.1,1.5-6.2,3.3-9.7,3.6c-3.5,0.3-6.9-1.1-10.2-2.4
			c-6.3-2.6-12.6-5.2-18.9-7.8C18.8,53.8,37.4,46.8,41.7,46z"/>
		<g>
			<path class="st3" d="M135.7,26.8c-5.7,1.3-11.4,2.6-16.9,4.8c-9.6,3.7-18.2,9.9-28.1,12.5c-5.2,1.4-11.3,2-14.5,6.3
				c7.6-3.6,16.1-4.3,24.1-6.9c9-2.9,17.1-8.2,26-11.5c10.7-3.9,22.2-4.8,33.6-5.7c3.5-0.3,7-0.5,10.5-0.8
				c-3.9-0.4-7.8-0.8-11.8-1.1c-3.1-0.2-6.2-0.5-9.2-0.7C144.7,24.7,140.2,25.8,135.7,26.8z"/>
			<path class="st3" d="M183.2,27.6c-15.9,2.4-31.9,4.8-47.8,7.2c-7.8,1.2-15.6,2.4-22.8,5.5c-4.2,1.8-8.2,4.2-12.4,6
				c-10.6,4.3-22.3,4.3-33.7,5.8C57,53.4,47,56.3,40.1,62.7c3,1.2,6,2.5,9,3.7c3.2,1.4,6.6,2.7,10.2,2.4c3.5-0.3,6.5-2.1,9.7-3.6
				c5.2-2.5,10.8-4.1,16.5-5.1c7.8-1.4,15.9-1.8,23-5.2c5.3-2.5,9.8-6.4,14.9-9.3c9.7-5.6,21-7.4,32.1-8.7c7.7-0.9,15.3-1.7,23-2.3
				c5.5-0.4,11.2-0.8,16.2-3.3C191,29.8,187.1,28.6,183.2,27.6z"/>
			<path class="st3" d="M30.7,58.8c1.3,0.5,2.6,1.1,3.9,1.6c0.3-0.2,0.6-0.5,0.9-0.7C52,47.2,73.7,44.9,93,37.8
				c9.8-3.6,19.1-8.6,28.9-12.1c2.9-1,5.9-1.9,8.9-2.6c-3.9,0.1-7.8,0.3-11.7,0.7c-8.6,4-17.2,8-26,11.2
				C72.2,42.8,49.2,46.6,30.7,58.8z"/>
		</g>
	</g>
	<path class="st1" d="M8.7,37c0,0.2,0,0.3,0.1,0.4c0.1,0.3,0.5,0.3,0.8,0.4c1,0.3,1.8,1.1,2.8,1.1c0.1-0.5,0.1-1,0.2-1.6
		c0-0.1,0-0.1,0-0.2c0-0.1-0.1-0.1-0.2-0.1c-0.8-0.5-1.7-0.9-2.6-1.3c-0.3-0.1-0.9-0.6-1.1-0.3C8.5,35.8,8.7,36.7,8.7,37z"/>
	<path class="st4" d="M45.9,51c3.7-1,7.2-2.7,10.9-3.8c8-2.3,16.5-1.8,24.8-3.3c6.9-1.2,13.5-3.9,19.9-6.8c3.7-1.7,7.3-3.5,11-4.8
		c15.7-5.6,33-3.3,49.7-3.3c4,0,10.4-0.9,13.9-2.7c-25.6-7-55.2-7-81.1-1.2C81.2,28.2,67.8,33,54,36.3c-3.9,0.9-8,1.8-11.6,3.6
		c-2,1-3.9,2.4-5.3,4.1c-1,1.2-3.1,3.7-3.3,5.3C33.1,53.5,43.9,51.6,45.9,51z"/>
	<g>
		<path class="st0" d="M5.2,34.5c0.9,1.6,2.6,2.6,4.3,3.4c2.3,1.1,4.7,1.9,6.8,3.3c1.3,0.8,2.4,1.8,3.9,2.2c0.5-1.8-0.3-3.8-1.6-5.1
			c-1.3-1.4-3-2.2-4.7-3c-1.7-0.8-3.5-1.4-5-2.6c-0.8-0.6-2.5-3.1-3.6-2.5C4.1,31,4.7,33.6,5.2,34.5z"/>
		<path class="st1" d="M21.2,44c2.3,1,4.7,1.9,7,2.9c3.5,1.4,7.1,2.9,10.9,2.7c3.7-0.2,7.1-1.9,10.7-3.1c11.9-4.1,25.3-2.3,37.5-5.8
			c8.1-2.4,15.2-7,23.1-9.9c12.5-4.7,26.3-5,39.7-4.3c7.4,0.4,14.9,1,22.1-0.9c1.5-0.4,3.4-2.4,2.4-3.6c-0.3-0.3-1.2-0.3-2.1-0.4
			c-22.9-3.1-46.4-2.1-68.9,3C83,29.1,62.9,37.2,41.7,37c-5.6-0.1-11.3-0.7-16.8,0.5c-1.8,0.4-5.3,1-6.7,2.3
			C16.3,41.6,19.7,43.4,21.2,44z"/>
		<path class="st2" d="M20.9,23.6c6.7-0.7,13.5-0.6,20.2-1.5c15.8-2.2,30.4-9.9,46.2-12.7c17.1-3.1,34.7-0.3,51.8,2.5
			c12.2,2,24.7,4.1,35.5,10.1c-5.2,2-10.9,1.9-16.4,1.9c-7.7-0.1-15.4,0.1-23.1,0.3c-11.2,0.4-22.7,1.2-32.8,6
			c-5.3,2.5-10.1,6-15.6,8c-7.4,2.7-15.5,2.5-23.4,3.2c-5.8,0.5-11.5,1.6-16.9,3.7c-3.2,1.2-6.5,2.8-9.9,2.8c-3.5,0-6.8-1.7-9.9-3.3
			c-6-3.1-12.1-6.3-18.1-9.4C-2.6,29.5,16.5,24,20.9,23.6z"/>
		<g>
			<path class="st3" d="M116.2,12.3c-5.8,0.8-11.6,1.7-17.2,3.3C89.1,18.6,80,24,69.9,25.7c-5.3,0.9-11.4,1-15,5.1
				c7.8-3,16.4-3,24.6-4.9c9.2-2.2,17.7-6.7,26.8-9.3c11-3,22.6-2.9,34-2.9c3.5,0,7,0.1,10.5,0.1c-3.9-0.8-7.8-1.4-11.6-2
				c-3-0.5-6.1-1-9.1-1.5C125.4,11,120.8,11.7,116.2,12.3z"/>
			<path class="st3" d="M163.5,17.1c-16.1,1.1-32.1,2.1-48.2,3.2c-7.8,0.5-15.8,1.1-23.2,3.5c-4.4,1.4-8.5,3.5-12.9,4.9
				c-10.9,3.4-22.6,2.4-34,3c-9.6,0.5-19.8,2.5-27.1,8.3c2.9,1.5,5.8,3,8.6,4.5c3.1,1.6,6.4,3.3,9.9,3.3c3.5,0,6.7-1.6,9.9-2.8
				c5.4-2,11.1-3.1,16.9-3.7c7.9-0.7,16-0.5,23.4-3.2c5.5-2,10.3-5.5,15.6-8c10.1-4.8,21.6-5.6,32.8-6c7.7-0.3,15.4-0.4,23.1-0.3
				c5.5,0,11.3,0.1,16.4-1.9C171.1,20,167.3,18.4,163.5,17.1z"/>
			<path class="st3" d="M8.9,35.4c1.3,0.7,2.5,1.3,3.8,2c0.3-0.2,0.7-0.4,1-0.6C31,25.7,52.9,25.2,72.8,19.7
				c10.1-2.8,19.7-7,29.8-9.6c3-0.8,6-1.4,9.1-1.8C107.8,8,103.9,7.9,100,8c-8.9,3.2-17.8,6.5-26.9,9C51.6,22.9,28.4,24.9,8.9,35.4z
				"/>
		</g>
		<path class="st5" d="M73.1,15.7c-0.2,0.2-0.4,0.4-0.4,0.7c0,0.4,0.4,0.6,0.7,0.8c4.3,2,10.1-1,13.9,1.9c1.5,1.1,2.3,3.1,2.1,5
			c-0.3,2.6-2.5,4.6-3.5,7c-0.3,0.8-0.5,1.7,0.1,2.3c0.3,0.3,0.7,0.5,1.2,0.6c1.9,0.3,3.7-0.8,5.3-1.9c1.5-1.1,3-2.2,4.5-3.3
			c0.8-0.6,1.6-1.3,2.1-2.2c0.5-1,0.5-2.1,0.4-3.2c-0.2-1.6-0.8-3.2-1.9-4.4c-2.7-2.9-7.8-2.7-10.1-5.9c-0.3-0.5-0.6-1-1-1.3
			c-0.7-0.5-1.7-0.5-2.5-0.4C79.3,11.6,76.5,12.1,73.1,15.7z"/>
		<path class="st5" d="M17.1,28.2c0.7,0.7,1.9,0.6,2.9,0.6c5.4-0.5,11,0.3,15.8,2.7c1.5,0.8,2.9,1.7,3.7,3.1c0.6,1,0.9,2.3,1.5,3.3
			c1.5,2.6,5.3,3.7,8,2.2c1-0.6,2-1.6,1.8-2.8c-0.1-0.7-0.6-1.2-1.1-1.7c-2.3-2.1-5.7-2.4-8.2-4.1c-1.3-0.9-2.4-2.1-3.7-2.9
			c-1.7-1.1-3.7-1.5-5.7-1.9c-2.8-0.6-5.5-1.1-8.3-1.7C22.8,24.9,13.6,24.8,17.1,28.2z"/>
	</g>
	<path class="st6" d="M50.2,60c-0.3,0.3-0.5,0.7-0.7,1.1c-0.2,0.8,0.1,1.6,0.7,2.2c1.6,1.8,4.3,1.8,6.6,1.6c4.1-0.3,8.2-1,12.1-2.4
		c2.9-1,5.8-2.5,8.8-3.2c4.7-1.2,9.7-0.7,14.4-2.1c0.6-0.2,1.3-0.5,1.5-1.1c0.2-0.6-0.2-1.2-0.8-1.5c-0.5-0.3-1.2-0.3-1.8-0.3
		c-5.6-0.1-10.9,1.9-16.4,3.3c-2.1,0.5-4.3,1-6.5,0.6c-1.6-0.3-3.1-1-4.7-1.3C59.4,55.8,53.1,56.8,50.2,60z"/>
</g>
</svg>
