<?xml version="1.0" encoding="utf-8"?>
<!-- Generator: Adobe Illustrator 21.0.0, SVG Export Plug-In . SVG Version: 6.00 Build 0)  -->
<svg version="1.1" id="Слой_1" xmlns="http://www.w3.org/2000/svg" xmlns:xlink="http://www.w3.org/1999/xlink" x="0px" y="0px"
	 viewBox="0 0 389 157" style="enable-background:new 0 0 389 157;" xml:space="preserve">
<style type="text/css">
	.st0{fill:#732A13;}
	.st1{fill:#6C151C;}
	.st2{fill:#F6C073;}
	.st3{fill:#F1A12E;}
	.st4{opacity:0.3;fill:#FBE0BA;enable-background:new    ;}
	.st5{fill:#6F4026;}
	.st6{fill:#F6C278;}
	.st7{fill:#AB1717;}
</style>
<g id="Layer_1">
	<g>
		
			<ellipse transform="matrix(0.9999 -1.536177e-02 1.536177e-02 0.9999 -1.3992 3.186)" class="st0" cx="206.7" cy="92.7" rx="175.1" ry="48.7"/>
		
			<ellipse transform="matrix(0.9999 -1.536177e-02 1.536177e-02 0.9999 -1.2331 3.1563)" class="st1" cx="204.8" cy="81.8" rx="161" ry="44.8"/>
		
			<ellipse transform="matrix(0.9999 -1.536177e-02 1.536177e-02 0.9999 -1.1674 3.1621)" class="st2" cx="205.2" cy="77.6" rx="158.3" ry="44.6"/>
		
			<ellipse transform="matrix(0.9999 -1.536177e-02 1.536177e-02 0.9999 -1.0638 3.1606)" class="st3" cx="205.2" cy="70.8" rx="145.6" ry="32.3"/>
		
			<ellipse transform="matrix(0.9999 -1.536177e-02 1.536177e-02 0.9999 -1.0855 3.1602)" class="st3" cx="205.2" cy="72.2" rx="139.4" ry="30.9"/>
		<path class="st4" d="M204.7,41.3c-77,1.2-139.2,16-138.9,33c0.2,17.1,62.9,30,139.9,28.7s139.1-16,138.9-33
			C344.3,53,281.7,40.1,204.7,41.3z M76.5,69.5c-0.4-0.1-0.4-0.7-0.3-1c3.1-9,15.9-8,22.9-11.6c0.3-0.2,0.6-0.1,0.8-0.1
			c15.1-5,30.3-7.6,46.5-8.6c9-0.5,18.1-0.5,27.1-0.7c5.2-0.1,12.1-0.4,16.1,3.7c0.5,0.6,0,1.5-0.7,1.7c-8.1,3.6-17.1,2.4-25.7,3.2
			c-11,0.9-22.1,2.7-32.9,4.7c-10.9,2.1-22.2,3.3-32.9,5.9C90.7,68.4,83.3,72,76.5,69.5z M180.5,95.1c-6.8,1.8-14,1.6-21,1.7
			c-9,0-18.1-0.2-27.1-0.1c-5.6,0.1-12.9-0.1-17.3-4.2c-4.5-4.3-9.2-3.7-15-3.7c-4.5,0.1-17.9,0.3-17.1-7.4C83.7,76,93.6,74,97.5,73
			c8-2.1,16.5-3.3,24.8-3.9c3.7-0.2,7.4-0.5,11.2-1.1c0.1-0.1,0.3-0.2,0.4-0.2c12.3-2.4,24.7-3.9,37.2-4.5c8.1-0.3,22-1.8,22.4,9.6
			C193.7,82.5,190.6,92.4,180.5,95.1z M213.6,49.6c7-6.9,18.9-4.7,27.8-5.9c0.4-0.1,0.7,0.2,0.8,0.4c6,0,12.1,0.8,18.1,1.4
			c6.4,0.6,16.7,0.9,21.1,6.6c0.4,0.5,0.1,1.5-0.7,1.7c-13,3.4-25.4-0.8-38.5-0.1c-8.7,0.5-20.9,2.9-28.6-2.5
			C213.1,50.8,213.2,50.1,213.6,49.6z M261.2,84.3c-1.6,4.3-7.6,5.8-11.6,6.5c-7.1,1.4-14.6,2.7-21.8,3.4c-7,0.6-12.5-1.2-15.7-7.9
			c-1.4-3.1-6.7-16-3.6-20.5c0-0.1,0.1-0.3,0.3-0.4c0.4-0.5,1-0.7,1.6-0.8c2.1-0.8,4.1-0.6,6.5,0.1c5.2,1.6,10.6,2.4,15.8,4
			c6.9,2,14.2,4.4,20.9,7.4C256.2,77.3,262.8,80.1,261.2,84.3z M300.8,71.7c-4.1,5.6-14.6,4.5-20.5,4c-11.3-0.9-22.4-2.6-33.2-6
			c-3.6-1.2-18.2-3.6-18.9-8.4c-0.3-2.3,2.4-3.5,5.3-4.1c9.4-3.8,19.3,0.1,28.9,0.8c5.4,0.4,10.8,1.3,16.2,2.2
			C281.9,60.8,306.3,64.1,300.8,71.7z"/>
		<path class="st5" d="M38.4,89.4c0,0-6.8,2.4-0.1,15.4s86,37.9,160.6,33.3c0,0,51.9,0.3,52.2-3.9c0.3-4.2-19.8-4.4-19.8-4.4
			s-23.6,0.6-33.8,0.6C187.3,130.4,54.7,130.9,38.4,89.4z"/>
		<path class="st6" d="M55.9,69.6c0,0-3.4-0.2-6.2,6.4s7.9,22.9,54.9,33.4s115.1,13,150.4,6.8c35.3-6.2,18.1-15,0.8-12.8
			c-17.2,2.2-17.2,2.2-17.2,2.2s-85.8,2.3-128.8-6.1C69.2,91.6,55.2,86.6,55.9,69.6z"/>
	</g>
</g>
<g id="Слой_3">
	<path class="st7" d="M143.8,45.3c0,0,46.5-2.1,75.9-1.4c19.2,0.2,41.2-3.1,77.2,5c17.5,3.8,28.6,7.4,34.5,10.6
		c3.6,1.9,6,5.6,5.9,9.6c-0.1,6.1-6.2,15.6-56.8,26c-49.7,4.9-55.4,4.6-77.4,3.8c-24.5,0.9-52.3,3.2-76.1-2.4
		c-26.9-5.6-68.6-13.4-56.1-25.5C78.8,64.3,89,53.6,143.8,45.3z"/>
</g>
</svg>
