<?xml version="1.0" encoding="utf-8"?>
<!-- Generator: Adobe Illustrator 21.0.0, SVG Export Plug-In . SVG Version: 6.00 Build 0)  -->
<svg version="1.1" id="Слой_3" xmlns="http://www.w3.org/2000/svg" xmlns:xlink="http://www.w3.org/1999/xlink" x="0px" y="0px"
	 viewBox="0 0 200 109" style="enable-background:new 0 0 200 109;" xml:space="preserve">
<style type="text/css">
	.st0{fill:#E8BA88;}
	.st1{fill:#F2D1B2;}
	.st2{fill:#FF7900;}
	.st3{fill:#EF5D00;}
	.st4{fill:#C53E00;}
	.st5{fill:#FF9D26;}
	.st6{fill:#D24C00;}
</style>
<g>
	<path class="st0" d="M131.4,36.5c0,0,12.1-6.8,14.1-8.3c1.9-1.4,1.4-16.1,5.2-17.5c3.8-1.4,10.8,2.3,11.9,6.6s-2.4,8.5-2.4,8.5
		l-5.9,3.8c0,0,9.6,1.2,10.8,4.2c1.2,2.9,0.3,10.1-1.7,11.5c-1.9,1.4-9.3-0.4-10.3-2.4c-1-2.1-2.2-6.8-2.2-6.8l-13.8,11l-10.8-0.5
		L131.4,36.5z"/>
	<path class="st1" d="M147.4,25.6c0,0,3.5-12.6,4.8-12.6c1.2,0,4.4,0.4,6.3,3.9s-0.7,7.9-0.7,7.9l-7.9,5.1c0,0,6,1.8,5.4,2.9
		c-0.6,1.1-7.2,0.6-7.2,0.6l-1.5-2.1c0,0-8.4,5.9-7.9,3.9c0.4-2,10.1-7.5,10.1-7.5L147.4,25.6z"/>
	<g>
		<path class="st2" d="M142.7,44.5c-1.8-2.6-5.2-2.6-7.6-4.4c3.3-4.1,2.4-9.6-2.1-12.7c-2-1.4-5.8-1.9-7.9-0.7
			c-1.3,0.7-2.6,3.7-3.5,4.8c-1.8,2.1-4,3.7-6.3,5.1c-9.8,5.9-21.7,2.1-31.9-0.5c-8.6-2.2-17.5-3.5-25.9-0.3c-0.3-0.2-0.8-0.2-1.2,0
			C41,42.5,31.9,59.6,40.8,75.1c4,7,11.7,13.5,18.8,17.1c8.2,4.2,19.6,0.2,28-1.2c4.2-0.7,8.9-1,12.8-2.8c4.1-1.9,7.6-4.6,10.8-7.7
			c2.8-2.6,5.3-5.7,7.5-8.8c2.7-3.9,4-8.7,6.9-12.4c2.8-3.5,9.2-0.9,13.1-1.6c2.7-0.5,4.4-2.7,5.2-5.1
			C144.9,49.7,144.4,47,142.7,44.5z"/>
		<path class="st3" d="M135.6,30c0,0,0.7,6.8-2.6,9.1c-1.8,1.3-1.9,2-0.9,3.6c1,1.6,7.9,4.4,8,6c0.1,1.5-3.4,4.9-5.8,5.2
			c-2.4,0.3-11.7-2.2-13.6-2.4c-1.9-0.1-7,7.4-7.6,11.2c-0.6,3.8-13.5,12.1-18.1,14.8c-4.5,2.7-25.9,1.1-31.6,2s-13.7-6.3-15.1-7.2
			c-1.5-0.9-9.3-7.2-9.2-8.1c0.1-0.9-1-8.5-1-8.5s-3.4,7.5,1.1,17.4c4.1,9,15.7,19.1,18.3,20.6c2.5,1.5,8.1,2.5,16.5,1.6
			c8.4-0.9,12.6-3.6,17.7-4.3c5.1-0.7,10.2-2.3,15.7-5.9c5.6-3.6,14.7-16.1,15.1-18.1c0.4-2,4.7-8,5.9-8.3
			c1.2-0.3,13.4,0.6,14.4-1.6c1-2.1,4.8-7.7,3.1-10.7c-1.7-3-8.1-6.2-8.8-7.9s0.5-5.4,0.5-5.4c0-0.3,0-1.1-0.5-1.9
			C136.7,30.6,135.6,30,135.6,30z"/>
		<path class="st4" d="M146,48.8c0,0-3.5,6.8-4.6,7.3s-10.3,2-11.4,1.4s-7.5-3.9-7.6-3s2.5,6.1,2.5,6.1s-5.9,9.2-7.7,10.9
			c-1.7,1.7-8.3,9.5-11.7,12s-13.3,6.8-15,6.3c-1.7-0.5-9.3-0.1-9.3-0.1S69,93.6,65.5,93.2c-3.5-0.3-7.7-1.1-7.7-1.1l-12.3-9.5
			c0,0,12.2,12.6,14.9,13.4c2.7,0.8,18.5-0.1,21.6-1.2c3.1-1.1,8.5-2.8,8.5-2.8s13.4-3.1,15.8-4.7c2.4-1.5,10.2-7,11.9-10.2
			c1.6-3.2,8.4-11.7,8.4-11.7l3.6-4l6.4-1.4c0,0,8.3-2.5,8.4-3.4C145,55.8,146,48.8,146,48.8z"/>
		<path class="st5" d="M39.9,51.3c0,0,6.4,12.2,20,16.6c13.6,4.4,32.9-3.4,36.9-5.8c4-2.4,17.3-17.4,17.3-17.4l7.9-1.6
			c0,0,7.4,1.8,6.7-0.8c-0.7-2.6-1.5-9.3-1.5-9.3s1.1-4.8,0.9-5.2c-0.3-0.4-2.8-0.9-3.4-0.8c-0.5,0.1-2.4,2.6-2.7,3.1
			c-0.3,0.5-6.2,7.5-11.7,8.6c-5.5,1-15.4,0.3-19.2-1.1c-3.8-1.3-16.2-3.5-18.6-4s-11.2-0.4-14.1,1.1S50,38.5,50,38.5
			S42.6,43.6,39.9,51.3z"/>
		<path class="st1" d="M114,39.4c0,0,4.7-4.6,6.3-5.6c1.6-1,4.7-7.1,5.4-5.4c0.7,1.7,0.2,3-1.4,6.5s-6,6.8-7.8,6.9
			C114.6,42,110.3,41.9,114,39.4z"/>
		<path class="st1" d="M67.5,35.1c0,0-7.7,1.1-10.6,2.1s-10.3,6.7-12.1,9.3c-1.8,2.6,1.9,8.5,3.8,9.8c1.9,1.4,14.5-2.5,20.3-6.2
			S83.3,40.2,82.1,39C80.9,37.8,72,34.5,67.5,35.1z"/>
		<path class="st1" d="M83.7,42.9c0,0,4.6-2.4,6.1-2.5s7.5,0.2,9,1.4c1.5,1.1-6.1,2.8-8.7,3.2C87.4,45.3,80.8,43.7,83.7,42.9z"/>
	</g>
	<g>
		<path class="st6" d="M42.8,56.1l0.1,0.4c0.1,0.6,1,0.3,0.9-0.2l-0.1-0.4C43.5,55.3,42.6,55.5,42.8,56.1z"/>
		<path class="st6" d="M48.7,61c-1.1,0.3-0.7,2,0.4,1.7S49.8,60.7,48.7,61z"/>
		<path class="st6" d="M47.6,67.6c-0.3-0.1-0.7-0.1-1-0.2c-0.6-0.1-0.8,0.7-0.2,0.9c0.3,0.1,0.7,0.1,1,0.2
			C47.9,68.6,48.2,67.7,47.6,67.6z"/>
		<path class="st6" d="M53.7,67.1c-1.1,0.3-0.7,2,0.4,1.7C55.3,68.6,54.8,66.8,53.7,67.1z"/>
		<path class="st6" d="M51.7,77.4c-0.6,0.1-0.3,1,0.2,0.9C52.5,78.1,52.3,77.2,51.7,77.4z"/>
		<path class="st6" d="M57.3,76.4L56,76.7c-0.6,0.1-0.3,1,0.2,0.9l1.3-0.3C58.1,77.1,57.8,76.3,57.3,76.4z"/>
		<path class="st6" d="M60.6,73l0.1,0.4c0.1,0.6,1,0.3,0.9-0.2l-0.1-0.4C61.3,72.2,60.4,72.4,60.6,73z"/>
		<path class="st6" d="M61.5,83.9c-1.1,0.3-0.7,2,0.4,1.7C63.1,85.3,62.6,83.6,61.5,83.9z"/>
		<path class="st6" d="M44.4,74.6c-1.1,0.3-0.7,2,0.4,1.7C46,76.1,45.5,74.3,44.4,74.6z"/>
		<path class="st6" d="M42.1,60.7c-1.1,0.3-0.7,2,0.4,1.7S43.2,60.5,42.1,60.7z"/>
		<path class="st6" d="M67.7,66.8c-1.1,0.3-0.7,2,0.4,1.7C69.2,68.2,68.8,66.5,67.7,66.8z"/>
		<path class="st6" d="M77.1,77.3c-0.1,0-0.3,0-0.4-0.1c-0.3-0.4-0.8-0.6-1.2-0.3c-0.4,0.2-0.6,0.8-0.3,1.2c0.4,0.6,1.1,1,1.9,1
			C78.2,79.1,78.3,77.3,77.1,77.3z"/>
		<path class="st6" d="M80.6,84.4c-0.1,0.1-0.2,0.1-0.3,0.1c-0.4-0.2-1-0.1-1.2,0.3c-0.2,0.4-0.1,1,0.3,1.2c0.7,0.3,1.4,0.4,2.1,0
			C82.5,85.4,81.6,83.8,80.6,84.4z"/>
		<path class="st6" d="M71.2,87.8c-0.5-0.2-0.9-0.4-1.4-0.6c-0.4-0.2-1-0.1-1.2,0.3c-0.2,0.4-0.1,1,0.3,1.2c0.5,0.2,0.9,0.4,1.4,0.6
			c0.4,0.2,1,0.1,1.2-0.3C71.8,88.6,71.7,88,71.2,87.8z"/>
		<path class="st6" d="M87.6,74.3C87.6,74.3,87.5,74.3,87.6,74.3c-0.4-0.3-1-0.1-1.3,0.3c-0.3,0.4-0.1,0.9,0.3,1.2
			c0.5,0.4,1.3,0.4,1.8,0.1C89.4,75.3,88.6,73.8,87.6,74.3z"/>
		<path class="st6" d="M85.8,66.7l-0.6,0.1c-1.1,0.3-0.7,2,0.4,1.7l0.6-0.1C87.4,68.2,87,66.4,85.8,66.7z"/>
		<path class="st6" d="M68.4,72.6l-1.3-0.3c-1.1-0.3-1.6,1.4-0.5,1.7c0.4,0.1,0.9,0.2,1.3,0.3C69,74.6,69.5,72.9,68.4,72.6z"/>
		<path class="st6" d="M80.2,56.8c-0.3-0.4-0.8-0.5-1.2-0.3c-0.4,0.2-0.9,0.3-1.4,0.2c-0.5-0.1-1,0.1-1.1,0.6
			c-0.1,0.4,0.1,1,0.6,1.1c1,0.2,1.9,0,2.8-0.4C80.3,57.8,80.4,57.2,80.2,56.8z"/>
		<path class="st6" d="M95.5,63.3l-0.3,0.1c-1.1,0.3-0.7,2,0.4,1.7l0.3-0.1C97,64.8,96.6,63,95.5,63.3z"/>
		<path class="st6" d="M100.7,71.7c-0.4-0.3-0.9-0.1-1.2,0.3c-0.1,0.2-0.3,0.4-0.4,0.5c-0.3,0.4-0.1,1,0.3,1.2
			c0.4,0.3,0.9,0.1,1.2-0.3c0.1-0.2,0.3-0.4,0.4-0.5C101.3,72.6,101.1,72,100.7,71.7z"/>
		<path class="st6" d="M98.4,82.9C98.3,83,98.2,83,98.1,83c-0.4-0.2-1-0.1-1.2,0.3c-0.2,0.4-0.1,1,0.3,1.2c0.7,0.3,1.4,0.4,2.1,0
			C100.3,83.9,99.4,82.3,98.4,82.9z"/>
		<path class="st6" d="M90.1,78.3l-0.6,0.1c-1.1,0.3-0.7,2,0.4,1.7l0.6-0.1C91.6,79.7,91.2,78,90.1,78.3z"/>
		<path class="st6" d="M81.9,70.4c-0.1,0.1-0.2,0.1-0.3,0c-0.4-0.4-1,0.2-0.6,0.6c0.4,0.5,1.2,0.5,1.6,0
			C82.9,70.6,82.3,70,81.9,70.4z"/>
		<path class="st6" d="M101.3,76.5l-0.3,0.1c-0.6,0.1-0.3,1,0.2,0.9l0.3-0.1C102.1,77.2,101.9,76.3,101.3,76.5z"/>
		<path class="st6" d="M108.5,77.7c-0.3,0.4-0.6,0.8-1,1.1c-0.4,0.4,0.3,1.1,0.6,0.6c0.3-0.4,0.6-0.8,1-1.1
			C109.5,77.9,108.9,77.3,108.5,77.7z"/>
		<path class="st6" d="M112.5,68.9c-0.1,0.2-0.1,0.4-0.2,0.6c-0.1,0.6,0.7,0.8,0.9,0.2c0.1-0.2,0.1-0.4,0.2-0.6
			C113.5,68.5,112.6,68.3,112.5,68.9z"/>
		<path class="st6" d="M107.1,65.9l0.1,0.3c0.1,0.6,1,0.3,0.9-0.2l-0.1-0.3C107.8,65.1,106.9,65.3,107.1,65.9z"/>
		<path class="st6" d="M106.6,59.7c-0.1-0.2-0.2-0.4-0.3-0.6c-0.3-0.5-1.1,0-0.8,0.4c0.1,0.2,0.2,0.4,0.3,0.6
			C106.1,60.7,106.9,60.2,106.6,59.7z"/>
		<path class="st6" d="M108.9,53.6c-0.3,0.1-0.8,0.3-0.8,0.7c0,0.4,0.2,0.7,0.7,0.7c0.4,0,0.6-0.3,0.5-0.7
			C109.7,54.1,109.4,53.4,108.9,53.6z"/>
		<path class="st6" d="M115.4,58l-0.3,0.1c-0.6,0.1-0.3,1,0.2,0.9l0.3-0.1C116.2,58.8,115.9,57.9,115.4,58z"/>
		<path class="st6" d="M120.7,62.8c-0.3-0.3-0.7-0.1-0.7,0.3c-0.3,0.2-0.3,0.7,0.1,0.8C120.7,63.9,121.1,63.3,120.7,62.8z"/>
		<path class="st6" d="M119.5,53.6c-0.4,0.5-0.6,1-0.7,1.7c-0.1,0.6,0.8,0.6,0.9,0c0-0.4,0.2-0.8,0.4-1.1
			C120.5,53.8,119.9,53.2,119.5,53.6z"/>
		<path class="st6" d="M117.2,48.5l-0.6,0.1c-1.1,0.3-0.7,2,0.4,1.7l0.6-0.1C118.8,49.9,118.3,48.2,117.2,48.5z"/>
		<path class="st6" d="M123.3,48.7l0.1,0.3c0.1,0.6,1,0.3,0.9-0.2l-0.1-0.3C124,48,123.2,48.2,123.3,48.7z"/>
		<path class="st6" d="M129.3,50.6C129.2,50.6,129.2,50.6,129.3,50.6c-0.4-0.3-1-0.1-1.3,0.3c-0.3,0.4-0.1,0.9,0.3,1.2
			c0.5,0.4,1.3,0.4,1.8,0.1C131.1,51.6,130.3,50.1,129.3,50.6z"/>
		<path class="st6" d="M135.2,52.5l-0.3,0.1c-1.1,0.3-0.7,2,0.4,1.7l0.3-0.1C136.8,53.9,136.3,52.2,135.2,52.5z"/>
		<path class="st6" d="M137.6,49.1l0.1,0.3c0.1,0.6,1,0.3,0.9-0.2l-0.1-0.3C138.3,48.3,137.4,48.5,137.6,49.1z"/>
		<path class="st6" d="M133.5,44.4c-0.1,0.2-0.1,0.4-0.2,0.6c-0.3,1.1,1.4,1.6,1.7,0.5c0.1-0.2,0.1-0.4,0.2-0.6
			C135.5,43.8,133.8,43.3,133.5,44.4z"/>
		<path class="st6" d="M130.3,39.5c-1.1,0.3-0.7,2,0.4,1.7S131.5,39.2,130.3,39.5z"/>
		<path class="st6" d="M134.2,37.8l-0.3,0.1c-0.6,0.1-0.3,1,0.2,0.9l0.3-0.1C135,38.5,134.8,37.6,134.2,37.8z"/>
		<path class="st6" d="M135.4,34.5c-0.6-0.1-1,0.6-0.6,1.1c0.3,0.3,0.7,0.1,0.7-0.3C135.8,35,135.8,34.5,135.4,34.5z"/>
		<path class="st6" d="M133,32.3c-0.5-0.2-0.9-0.4-1.4-0.5c-0.5-0.2-0.8,0.7-0.2,0.9c0.5,0.2,0.9,0.4,1.4,0.5
			C133.3,33.4,133.5,32.5,133,32.3z"/>
		<path class="st6" d="M140.8,44.4l-0.3,0.1c-0.6,0.1-0.3,1,0.2,0.9l0.3-0.1C141.6,45.1,141.4,44.2,140.8,44.4z"/>
		<path class="st6" d="M142.8,51c-0.6,0.1-0.3,1,0.2,0.9C143.6,51.7,143.4,50.8,142.8,51z"/>
		<path class="st6" d="M91.9,57.9l-0.6,0.1c-0.6,0.1-0.3,1,0.2,0.9l0.6-0.1C92.7,58.6,92.5,57.8,91.9,57.9z"/>
		<path class="st6" d="M96.8,53.5l-0.2,0.6c-0.1,0.6,0.7,0.8,0.9,0.2l0.2-0.6C97.8,53.2,96.9,52.9,96.8,53.5z"/>
		<path class="st6" d="M70,60.6c-0.3-0.1-0.7-0.3-1-0.4c-0.5-0.2-0.8,0.7-0.2,0.9c0.3,0.1,0.7,0.3,1,0.4
			C70.3,61.7,70.5,60.8,70,60.6z"/>
		<path class="st6" d="M62.9,62.6c-0.6,0.1-0.3,1,0.2,0.9C63.7,63.3,63.5,62.5,62.9,62.6z"/>
		<path class="st6" d="M102.6,48.7c-0.2-0.4-0.9-0.1-0.8,0.4c0.1,0.7,1,0.8,1.4,0.2C103.5,48.9,103,48.5,102.6,48.7z"/>
		<path class="st6" d="M111.3,48.3l-1.4,0.4c-0.6,0.1-0.3,1,0.2,0.9l1.4-0.4C112.1,49,111.9,48.1,111.3,48.3z"/>
		<path class="st6" d="M113.3,44.1c-0.2,0.2-0.3,0.3-0.5,0.5c-0.4,0.4,0.2,1,0.6,0.6c0.2-0.2,0.3-0.3,0.5-0.5
			C114.4,44.3,113.8,43.7,113.3,44.1z"/>
		<path class="st6" d="M120.5,40.7l-0.6,0.1c-0.6,0.1-0.3,1,0.2,0.9l0.6-0.1C121.2,41.4,121,40.5,120.5,40.7z"/>
		<path class="st6" d="M78.2,64.5c-0.6,0.1-0.3,1,0.2,0.9C79,65.3,78.7,64.4,78.2,64.5z"/>
		<path class="st6" d="M75.1,70c-0.3,0.3-0.1,0.7,0.3,0.7c0.2,0.3,0.7,0.3,0.8-0.1C76.2,70,75.6,69.6,75.1,70z"/>
		<path class="st6" d="M68.1,77c-0.6,0.1-0.3,1,0.2,0.9c0.1,0,0.2,0.1,0.2,0.2c0.2,0.5,1,0.1,0.8-0.4C69.2,77.1,68.7,76.9,68.1,77z"
			/>
		<path class="st6" d="M58,83.3l-0.6,0.1c-0.6,0.1-0.3,1,0.2,0.9l0.6-0.1C58.8,84,58.6,83.1,58,83.3z"/>
		<path class="st6" d="M51.9,81.2c-0.6,0.1-0.3,1,0.2,0.9C52.7,81.9,52.5,81,51.9,81.2z"/>
		<path class="st6" d="M42.8,72.5c-0.6-0.1-1,0.5-0.6,1.1c0.3,0.3,0.7,0.1,0.7-0.3C43.2,73.1,43.3,72.6,42.8,72.5z"/>
		<path class="st6" d="M62.5,90c-0.6-0.3-1.3,0.2-1.1,0.9c0.2,0.5,0.9,0.4,0.9-0.1C62.7,90.8,63,90.3,62.5,90z"/>
		<path class="st6" d="M75.5,86.2c0-0.2-0.1-0.4-0.3-0.5c-1.2-0.4-0.6,1.9,0.3,1C75.6,86.6,75.6,86.3,75.5,86.2z"/>
		<path class="st6" d="M93,86.3c-0.9,0.2-0.5,1.7,0.4,1.4c0.4-0.1,0.4-0.6,0.1-0.8C93.7,86.6,93.5,86.2,93,86.3z"/>
		<path class="st6" d="M97.5,78.4l-0.3,0.1c-0.6,0.1-0.3,1,0.2,0.9l0.3-0.1C98.3,79.1,98,78.2,97.5,78.4z"/>
		<path class="st6" d="M112.4,73.9l-0.3,0.1c-0.6,0.1-0.3,1,0.2,0.9l0.3-0.1C113.2,74.6,112.9,73.8,112.4,73.9z"/>
	</g>
</g>
<g>
	<g>
		<path class="st2" d="M20.1,86.6c0,0,0-2.6,1.4-2.6s2.2,1.7,3.5,1.1c1.3-0.6,3,0.2,3.6,0.6c0.6,0.4,0.1,1,0.4,1.8
			c0.3,0.8-0.2,0.6-0.9,1.9s-1.2,1-2.7,1.5s-2.3,0.4-3.4-0.4c-1.1-0.8-1.9-2.1-2.2-2.7C19.6,87.2,20.1,86.6,20.1,86.6z"/>
		<path class="st3" d="M20.3,85.2c0,0,0.2,1.2,0.2,1.5s0.7,0.9,1.5,1.4c0.8,0.5,1.1,0.4,2.3,0.4c1.2,0,1.7,0,2.4-0.5
			c0.8-0.5,1.2-0.2,1.6-0.8s0.5-1,0.5-1s0.2,1.2,0,1.6c-0.1,0.3-0.2,0.5-1.1,1.5C26.8,90.3,25,91,24.3,91s-1.9-0.3-2.5-0.8
			c-0.6-0.4-1.4-1.5-1.6-1.8s-0.4-0.6-0.4-0.6l0-0.8l0.3-0.4C20.1,86.6,20.1,85.7,20.3,85.2z"/>
		<path class="st4" d="M28.9,87.1c0,0,0.4,0.6,0.3,0.9c0,0.3-0.7,0.8-0.8,1.2c-0.2,0.3-0.4,0.9-0.8,1.2s-1.6,0.4-2.5,0.7
			c-0.9,0.3-2.1,0.6-3.3-0.6c-1.2-1.2-1.6-2.1-1.8-2.3c-0.2-0.3-0.3-0.5-0.2-1c0.1-0.4,0.2-0.6,0.4-0.6c0.2,0-0.3,0.3-0.2,0.8
			c0.2,0.5,0.6,1.1,1,1.6s1.2,1.1,1.7,1.2s1.6,0,1.9,0c0.4,0,0.6,0.1,1.5-0.2c0.8-0.3,1.5-0.4,1.8-1c0.4-0.6,0.6-0.7,0.8-1
			C28.8,87.6,28.9,87.1,28.9,87.1z"/>
		<path class="st5" d="M23.4,86.1c0,0,1.7-0.9,2.3-0.6c0.6,0.3,1.5-0.1,2.1,0.4s0.5,0.5-0.7,1.3s-2,1-3.3,0.6
			c-1.3-0.3-1.4-1.2-1.3-1.5C22.4,86,23.4,86.1,23.4,86.1z"/>
		<path class="st5" d="M20.9,84.6c0,0,0.6-0.6,1.1-0.3s0.7,0.5,1.1,0.8c0.4,0.3,0.2,0.5-0.3,0.5c-0.5,0-0.6,0.3-1.3,0.2
			C21,85.8,20.5,85.1,20.9,84.6z"/>
		<path class="st1" d="M24.7,86.3c0,0,0.4-0.4,0.9-0.4c0.4,0,0.9,0.1,1.4,0.1c0.5,0.1,0.7,0.3,0.5,0.5c-0.2,0.2-0.4,0.4-1.3,0.4
			c-0.9,0.1-1.5,0-1.7-0.2C24.3,86.4,24.7,86.3,24.7,86.3z"/>
	</g>
	<g>
		<path class="st6" d="M28.7,86L28.7,86c0,0.1-0.1,0.1-0.1,0l0-0.1C28.6,85.9,28.7,86,28.7,86z"/>
		<path class="st6" d="M27.9,86.7c0.1,0,0.1,0.3-0.1,0.2S27.8,86.6,27.9,86.7z"/>
		<path class="st6" d="M28.1,87.5c0,0,0.1,0,0.1,0c0.1,0,0.1,0.1,0,0.1c0,0-0.1,0-0.1,0C28.1,87.6,28,87.5,28.1,87.5z"/>
		<path class="st6" d="M27.3,87.4c0.1,0,0.1,0.3-0.1,0.2C27.1,87.6,27.2,87.4,27.3,87.4z"/>
		<path class="st6" d="M27.6,88.7c0.1,0,0,0.1,0,0.1C27.5,88.8,27.5,88.7,27.6,88.7z"/>
		<path class="st6" d="M26.9,88.6l0.2,0c0.1,0,0,0.1,0,0.1l-0.2,0C26.8,88.7,26.8,88.6,26.9,88.6z"/>
		<path class="st6" d="M26.4,89.6c0.1,0,0.1,0.3-0.1,0.2C26.2,89.7,26.3,89.5,26.4,89.6z"/>
		<path class="st6" d="M28.5,88.4c0.1,0,0.1,0.3-0.1,0.2S28.4,88.3,28.5,88.4z"/>
		<path class="st6" d="M28.8,86.6c0.1,0,0.1,0.3-0.1,0.2S28.6,86.6,28.8,86.6z"/>
		<path class="st6" d="M24.4,88.8C24.4,88.8,24.5,88.8,24.4,88.8c0.1-0.1,0.1-0.1,0.2-0.1c0,0,0.1,0.1,0,0.2
			c-0.1,0.1-0.1,0.1-0.2,0.1C24.3,89,24.3,88.8,24.4,88.8z"/>
		<path class="st6" d="M24,89.7C24,89.7,24,89.7,24,89.7c0.1,0,0.2,0,0.2,0c0,0,0,0.1,0,0.2c-0.1,0-0.2,0-0.3,0
			C23.8,89.8,23.9,89.6,24,89.7z"/>
		<path class="st6" d="M25.2,90.1c0.1,0,0.1-0.1,0.2-0.1c0.1,0,0.1,0,0.2,0c0,0,0,0.1,0,0.2c-0.1,0-0.1,0.1-0.2,0.1
			c-0.1,0-0.1,0-0.2,0C25.1,90.2,25.1,90.1,25.2,90.1z"/>
		<path class="st6" d="M23.1,88.4C23.1,88.4,23.1,88.4,23.1,88.4c0.1,0,0.1,0,0.2,0c0,0.1,0,0.1,0,0.2c-0.1,0.1-0.2,0.1-0.2,0
			C22.9,88.6,23,88.4,23.1,88.4z"/>
		<path class="st6" d="M25.5,88.2l0.2,0c0.1,0,0.2,0.2,0.1,0.2c-0.1,0-0.1,0-0.2,0C25.4,88.4,25.4,88.2,25.5,88.2z"/>
		<path class="st6" d="M21.5,88.1c0.1,0,0.1,0,0.2,0c0,0,0,0,0,0.1c0,0,0,0.1,0,0.2c-0.1,0-0.1,0-0.2,0c0,0,0,0,0-0.1
			C21.4,88.2,21.4,88.2,21.5,88.1z"/>
		<path class="st6" d="M21.8,89.5C21.8,89.5,21.8,89.6,21.8,89.5c0.1,0,0.2,0,0.2,0c0,0,0,0.1,0,0.2c-0.1,0-0.2,0-0.3,0
			C21.5,89.7,21.6,89.5,21.8,89.5z"/>
		<path class="st6" d="M22.8,88.9L22.8,88.9c0.2,0.1,0.2,0.3,0,0.2l-0.1,0C22.6,89.1,22.7,88.9,22.8,88.9z"/>
		<path class="st6" d="M21.4,88.7L21.4,88.7c0.1,0,0.1,0.1,0,0.1l0,0C21.3,88.8,21.3,88.7,21.4,88.7z"/>
		<path class="st6" d="M20.5,88.9c0,0,0.1,0.1,0.1,0.1c0,0.1,0,0.1-0.1,0.1C20.5,89.1,20.5,89,20.5,88.9
			C20.4,88.9,20.4,88.9,20.5,88.9z"/>
		<path class="st6" d="M25.5,88.7c0.1,0,0,0.1,0,0.1c0,0,0,0,0,0c0,0.1-0.1,0-0.1-0.1C25.4,88.7,25.5,88.7,25.5,88.7z"/>
		<path class="st6" d="M26.8,89.5L26.8,89.5c0.1,0,0.1,0.1,0,0.1l-0.1,0C26.7,89.6,26.8,89.5,26.8,89.5z"/>
		<path class="st6" d="M27.6,89.2c0.1,0,0,0.1,0,0.1C27.5,89.3,27.5,89.2,27.6,89.2z"/>
		<path class="st6" d="M28.7,88.1c0.1,0,0.1,0.1,0.1,0.1C28.7,88.3,28.7,88.2,28.7,88.1C28.7,88.2,28.6,88.1,28.7,88.1z"/>
		<path class="st6" d="M26.3,90.3c0.1,0,0.2,0,0.1,0.1c0,0.1-0.1,0-0.1,0C26.3,90.4,26.2,90.4,26.3,90.3z"/>
		<path class="st6" d="M24.6,89.9C24.6,89.9,24.7,89.8,24.6,89.9C24.8,89.8,24.8,90.1,24.6,89.9C24.6,89.9,24.6,89.9,24.6,89.9z"/>
		<path class="st6" d="M22.4,89.9c0.1,0,0.1,0.2,0,0.2C22.4,90.1,22.4,90.1,22.4,89.9C22.4,90,22.4,89.9,22.4,89.9z"/>
		<path class="st6" d="M21.9,89L21.9,89c0.1,0,0.1,0.1,0,0.1l0,0C21.8,89.1,21.8,88.9,21.9,89z"/>
	</g>
</g>
<g>
	<g>
		<path class="st2" d="M25.5,49.8c0,0,0-2.5,1.3-2.5s2.1,1.6,3.3,1.1s2.9,0.2,3.5,0.5c0.6,0.4,0.1,0.9,0.4,1.7
			c0.3,0.8-0.2,0.5-0.9,1.8s-1.2,0.9-2.6,1.5c-1.4,0.5-2.2,0.4-3.3-0.4c-1.1-0.8-1.8-2-2.1-2.6C24.9,50.4,25.5,49.8,25.5,49.8z"/>
		<path class="st3" d="M25.6,48.5c0,0,0.2,1.2,0.2,1.4c0,0.2,0.7,0.9,1.4,1.4c0.7,0.5,1.1,0.4,2.2,0.4c1.1,0,1.6,0,2.3-0.5
			c0.7-0.5,1.2-0.2,1.5-0.8c0.3-0.6,0.5-0.9,0.5-0.9s0.2,1.2,0,1.5c-0.1,0.3-0.2,0.5-1,1.4c-0.9,0.9-2.7,1.6-3.3,1.6
			c-0.6,0-1.8-0.3-2.4-0.7c-0.6-0.4-1.4-1.4-1.6-1.7c-0.2-0.3-0.3-0.6-0.3-0.6l0-0.7l0.3-0.4C25.5,49.8,25.4,48.9,25.6,48.5z"/>
		<path class="st4" d="M33.9,50.3c0,0,0.3,0.6,0.3,0.9c0,0.3-0.7,0.8-0.8,1.1s-0.4,0.9-0.8,1.1c-0.4,0.3-1.5,0.4-2.4,0.7
			c-0.9,0.3-2,0.6-3.2-0.6s-1.5-2-1.7-2.3c-0.2-0.3-0.3-0.5-0.2-0.9c0.1-0.4,0.2-0.6,0.4-0.6c0.2,0-0.3,0.3-0.2,0.8
			c0.2,0.5,0.6,1.1,0.9,1.5c0.3,0.4,1.2,1,1.6,1.1c0.4,0.1,1.5,0,1.9,0s0.6,0.1,1.4-0.2s1.4-0.4,1.7-1c0.3-0.5,0.6-0.7,0.8-1
			S33.9,50.3,33.9,50.3z"/>
		<path class="st5" d="M28.6,49.3c0,0,1.6-0.9,2.2-0.6c0.6,0.3,1.5-0.1,2,0.4c0.6,0.5,0.5,0.5-0.7,1.2c-1.2,0.7-1.9,0.9-3.2,0.6
			c-1.3-0.3-1.3-1.1-1.3-1.4C27.7,49.2,28.6,49.3,28.6,49.3z"/>
		<path class="st5" d="M26.2,47.9c0,0,0.6-0.6,1.1-0.3c0.5,0.3,0.7,0.5,1.1,0.8s0.2,0.5-0.3,0.5s-0.6,0.3-1.2,0.2
			C26.3,49,25.8,48.3,26.2,47.9z"/>
		<path class="st1" d="M29.9,49.4c0,0,0.4-0.4,0.8-0.4s0.8,0.1,1.3,0.1c0.5,0.1,0.7,0.3,0.5,0.5c-0.2,0.2-0.4,0.4-1.2,0.4
			c-0.9,0.1-1.5,0-1.7-0.2S29.9,49.4,29.9,49.4z"/>
	</g>
	<g>
		<path class="st6" d="M33.7,49.2L33.7,49.2c0,0.1-0.1,0.1-0.1,0l0-0.1C33.6,49.1,33.7,49.2,33.7,49.2z"/>
		<path class="st6" d="M33,49.8c0.1,0,0.1,0.2,0,0.2S32.8,49.8,33,49.8z"/>
		<path class="st6" d="M33.1,50.6c0,0,0.1,0,0.1,0c0.1,0,0.1,0.1,0,0.1c0,0-0.1,0-0.1,0C33.1,50.7,33.1,50.6,33.1,50.6z"/>
		<path class="st6" d="M32.4,50.6c0.1,0,0.1,0.2,0,0.2S32.3,50.6,32.4,50.6z"/>
		<path class="st6" d="M32.7,51.8c0.1,0,0,0.1,0,0.1C32.6,51.9,32.6,51.8,32.7,51.8z"/>
		<path class="st6" d="M32,51.7l0.2,0c0.1,0,0,0.1,0,0.1l-0.2,0C31.9,51.8,31.9,51.7,32,51.7z"/>
		<path class="st6" d="M31.5,52.6c0.1,0,0.1,0.2,0,0.2C31.3,52.8,31.4,52.6,31.5,52.6z"/>
		<path class="st6" d="M33.5,51.5c0.1,0,0.1,0.2,0,0.2S33.4,51.4,33.5,51.5z"/>
		<path class="st6" d="M33.8,49.8c0.1,0,0.1,0.2,0,0.2C33.6,50,33.6,49.8,33.8,49.8z"/>
		<path class="st6" d="M29.6,51.9C29.6,51.9,29.6,51.9,29.6,51.9c0.1-0.1,0.1-0.1,0.2-0.1c0,0,0.1,0.1,0,0.1
			c-0.1,0.1-0.1,0.1-0.2,0.1C29.5,52.1,29.5,51.9,29.6,51.9z"/>
		<path class="st6" d="M29.2,52.7C29.2,52.7,29.2,52.8,29.2,52.7c0.1,0,0.2,0,0.2,0c0,0,0,0.1,0,0.1c-0.1,0-0.2,0-0.3,0
			C29,52.9,29.1,52.7,29.2,52.7z"/>
		<path class="st6" d="M30.3,53.1c0.1,0,0.1-0.1,0.2-0.1c0.1,0,0.1,0,0.1,0c0,0,0,0.1,0,0.1c-0.1,0-0.1,0.1-0.2,0.1
			c-0.1,0-0.1,0-0.1,0C30.3,53.2,30.3,53.1,30.3,53.1z"/>
		<path class="st6" d="M28.3,51.5C28.3,51.5,28.3,51.5,28.3,51.5c0.1,0,0.1,0,0.2,0c0,0.1,0,0.1,0,0.1c-0.1,0-0.2,0-0.2,0
			C28.1,51.7,28.2,51.5,28.3,51.5z"/>
		<path class="st6" d="M30.6,51.3l0.2,0c0.1,0,0.2,0.2,0.1,0.2c-0.1,0-0.1,0-0.2,0C30.6,51.5,30.5,51.3,30.6,51.3z"/>
		<path class="st6" d="M26.7,51.3c0.1,0,0.1,0,0.1,0c0,0,0,0,0,0.1c0,0,0,0.1,0,0.1c-0.1,0-0.1,0-0.1,0c0,0,0,0,0-0.1
			C26.7,51.4,26.7,51.3,26.7,51.3z"/>
		<path class="st6" d="M27,52.6C27.1,52.6,27.1,52.6,27,52.6c0.1,0,0.2,0,0.2,0c0,0,0,0.1,0,0.1c-0.1,0-0.2,0-0.3,0
			C26.8,52.7,26.9,52.5,27,52.6z"/>
		<path class="st6" d="M28,52L28,52c0.2,0,0.2,0.3,0,0.2l-0.1,0C27.8,52.2,27.9,52,28,52z"/>
		<path class="st6" d="M26.7,51.8L26.7,51.8c0.1,0,0.1,0.1,0,0.1l0,0C26.6,51.9,26.6,51.8,26.7,51.8z"/>
		<path class="st6" d="M25.8,52c0,0,0.1,0.1,0.1,0.1c0,0.1,0,0.1-0.1,0.1C25.8,52.2,25.8,52.1,25.8,52C25.7,52,25.8,52,25.8,52z"/>
		<path class="st6" d="M30.7,51.8c0.1,0,0,0.1,0,0.1c0,0,0,0,0,0c0,0.1-0.1,0-0.1-0.1C30.6,51.8,30.6,51.8,30.7,51.8z"/>
		<path class="st6" d="M31.9,52.5L31.9,52.5c0.1,0,0.1,0.1,0,0.1l-0.1,0C31.8,52.6,31.8,52.5,31.9,52.5z"/>
		<path class="st6" d="M32.6,52.3c0.1,0,0,0.1,0,0.1C32.5,52.4,32.6,52.3,32.6,52.3z"/>
		<path class="st6" d="M33.7,51.2c0.1,0,0.1,0.1,0.1,0.1C33.8,51.4,33.7,51.3,33.7,51.2C33.7,51.3,33.7,51.2,33.7,51.2z"/>
		<path class="st6" d="M31.4,53.4c0.1,0,0.2,0,0.1,0.1C31.5,53.5,31.4,53.5,31.4,53.4C31.4,53.5,31.3,53.4,31.4,53.4z"/>
		<path class="st6" d="M29.8,52.9C29.8,52.9,29.8,52.9,29.8,52.9C30,52.8,29.9,53.1,29.8,52.9C29.8,53,29.8,53,29.8,52.9z"/>
		<path class="st6" d="M27.7,53c0.1,0,0.1,0.2,0,0.2C27.6,53.2,27.6,53.1,27.7,53C27.6,53,27.6,53,27.7,53z"/>
		<path class="st6" d="M27.1,52.1L27.1,52.1c0.1,0,0.1,0.1,0,0.1l0,0C27,52.1,27.1,52,27.1,52.1z"/>
	</g>
</g>
<g>
	<g>
		<path class="st2" d="M112.1,94.6c0,0,0-2.6,1.4-2.6s2.2,1.7,3.5,1.1c1.3-0.6,3,0.2,3.6,0.6c0.6,0.4,0.1,1,0.4,1.8
			c0.3,0.8-0.2,0.6-0.9,1.9c-0.7,1.3-1.2,1-2.7,1.5s-2.3,0.4-3.4-0.4c-1.1-0.8-1.9-2.1-2.2-2.7C111.6,95.2,112.1,94.6,112.1,94.6z"
			/>
		<path class="st3" d="M112.3,93.2c0,0,0.2,1.2,0.2,1.5c0,0.2,0.7,0.9,1.5,1.4c0.8,0.5,1.1,0.4,2.3,0.4c1.2,0,1.7,0,2.4-0.5
			s1.2-0.2,1.6-0.8s0.5-1,0.5-1s0.2,1.2,0,1.6c-0.1,0.3-0.2,0.5-1.1,1.5c-0.9,0.9-2.8,1.7-3.4,1.7c-0.6,0-1.9-0.3-2.5-0.8
			s-1.4-1.5-1.6-1.8c-0.2-0.3-0.4-0.6-0.4-0.6l0-0.8l0.3-0.4C112.1,94.6,112.1,93.7,112.3,93.2z"/>
		<path class="st4" d="M120.9,95.1c0,0,0.4,0.6,0.3,0.9c0,0.3-0.7,0.8-0.8,1.2s-0.4,0.9-0.8,1.2c-0.4,0.3-1.6,0.4-2.5,0.7
			c-0.9,0.3-2.1,0.6-3.3-0.6c-1.2-1.2-1.6-2.1-1.8-2.3c-0.2-0.3-0.3-0.5-0.2-1c0.1-0.4,0.2-0.6,0.4-0.6c0.2,0-0.3,0.3-0.2,0.8
			c0.2,0.5,0.6,1.1,1,1.6c0.4,0.4,1.2,1.1,1.7,1.2s1.6,0,1.9,0c0.4,0,0.6,0.1,1.5-0.2c0.8-0.3,1.5-0.4,1.8-1c0.4-0.6,0.6-0.7,0.8-1
			C120.8,95.6,120.9,95.1,120.9,95.1z"/>
		<path class="st5" d="M115.4,94.1c0,0,1.7-0.9,2.3-0.6c0.6,0.3,1.5-0.1,2.1,0.4s0.5,0.5-0.7,1.3s-2,1-3.3,0.6
			c-1.3-0.3-1.4-1.2-1.3-1.5C114.4,94,115.4,94.1,115.4,94.1z"/>
		<path class="st5" d="M112.9,92.6c0,0,0.6-0.6,1.1-0.3s0.7,0.5,1.1,0.8c0.4,0.3,0.2,0.5-0.3,0.5c-0.5,0-0.6,0.3-1.3,0.2
			C113,93.8,112.5,93.1,112.9,92.6z"/>
		<path class="st1" d="M116.7,94.3c0,0,0.4-0.4,0.9-0.4c0.4,0,0.9,0.1,1.4,0.1c0.5,0.1,0.7,0.3,0.5,0.5c-0.2,0.2-0.4,0.4-1.3,0.4
			c-0.9,0.1-1.5,0-1.7-0.2C116.3,94.4,116.7,94.3,116.7,94.3z"/>
	</g>
	<g>
		<path class="st6" d="M120.7,94L120.7,94c0,0.1-0.1,0.1-0.1,0l0-0.1C120.6,93.9,120.7,94,120.7,94z"/>
		<path class="st6" d="M119.9,94.7c0.1,0,0.1,0.3-0.1,0.2S119.8,94.6,119.9,94.7z"/>
		<path class="st6" d="M120.1,95.5c0,0,0.1,0,0.1,0c0.1,0,0.1,0.1,0,0.1c0,0-0.1,0-0.1,0C120.1,95.6,120,95.5,120.1,95.5z"/>
		<path class="st6" d="M119.3,95.4c0.1,0,0.1,0.3-0.1,0.2C119.1,95.6,119.2,95.4,119.3,95.4z"/>
		<path class="st6" d="M119.6,96.7c0.1,0,0,0.1,0,0.1C119.5,96.8,119.5,96.7,119.6,96.7z"/>
		<path class="st6" d="M118.9,96.6l0.2,0c0.1,0,0,0.1,0,0.1l-0.2,0C118.8,96.7,118.8,96.6,118.9,96.6z"/>
		<path class="st6" d="M118.4,97.6c0.1,0,0.1,0.3-0.1,0.2C118.2,97.7,118.3,97.5,118.4,97.6z"/>
		<path class="st6" d="M120.5,96.4c0.1,0,0.1,0.3-0.1,0.2S120.4,96.3,120.5,96.4z"/>
		<path class="st6" d="M120.8,94.6c0.1,0,0.1,0.3-0.1,0.2S120.6,94.6,120.8,94.6z"/>
		<path class="st6" d="M116.4,96.8C116.4,96.8,116.5,96.8,116.4,96.8c0.1-0.1,0.1-0.1,0.2-0.1c0,0,0.1,0.1,0,0.2
			c-0.1,0.1-0.1,0.1-0.2,0.1C116.3,97,116.3,96.8,116.4,96.8z"/>
		<path class="st6" d="M116,97.7C116,97.7,116,97.7,116,97.7c0.1,0,0.2,0,0.2,0c0,0,0,0.1,0,0.2c-0.1,0-0.2,0-0.3,0
			C115.8,97.8,115.9,97.6,116,97.7z"/>
		<path class="st6" d="M117.2,98.1c0.1,0,0.1-0.1,0.2-0.1c0.1,0,0.1,0,0.2,0c0,0,0,0.1,0,0.2c-0.1,0-0.1,0.1-0.2,0.1
			c-0.1,0-0.1,0-0.2,0C117.1,98.2,117.1,98.1,117.2,98.1z"/>
		<path class="st6" d="M115.1,96.4C115.1,96.4,115.1,96.4,115.1,96.4c0.1,0,0.1,0,0.2,0c0,0.1,0,0.1,0,0.2c-0.1,0.1-0.2,0.1-0.2,0
			C114.9,96.6,115,96.4,115.1,96.4z"/>
		<path class="st6" d="M117.5,96.2l0.2,0c0.1,0,0.2,0.2,0.1,0.2c-0.1,0-0.1,0-0.2,0C117.4,96.4,117.4,96.2,117.5,96.2z"/>
		<path class="st6" d="M113.5,96.1c0.1,0,0.1,0,0.2,0c0,0,0,0,0,0.1c0,0,0,0.1,0,0.2c-0.1,0-0.1,0-0.2,0c0,0,0,0,0-0.1
			C113.4,96.2,113.4,96.2,113.5,96.1z"/>
		<path class="st6" d="M113.8,97.5C113.8,97.5,113.8,97.6,113.8,97.5c0.1,0,0.2,0,0.2,0c0,0,0,0.1,0,0.2c-0.1,0-0.2,0-0.3,0
			C113.5,97.7,113.6,97.5,113.8,97.5z"/>
		<path class="st6" d="M114.8,96.9L114.8,96.9c0.2,0.1,0.2,0.3,0,0.2l-0.1,0C114.6,97.1,114.7,96.9,114.8,96.9z"/>
		<path class="st6" d="M113.4,96.7L113.4,96.7c0.1,0,0.1,0.1,0,0.1l0,0C113.3,96.8,113.3,96.7,113.4,96.7z"/>
		<path class="st6" d="M112.5,96.9c0,0,0.1,0.1,0.1,0.1c0,0.1,0,0.1-0.1,0.1C112.5,97.1,112.5,97,112.5,96.9
			C112.4,96.9,112.4,96.9,112.5,96.9z"/>
		<path class="st6" d="M117.5,96.7c0.1,0,0,0.1,0,0.1c0,0,0,0,0,0c0,0.1-0.1,0-0.1-0.1C117.4,96.7,117.5,96.7,117.5,96.7z"/>
		<path class="st6" d="M118.8,97.5L118.8,97.5c0.1,0,0.1,0.1,0,0.1l-0.1,0C118.7,97.6,118.8,97.5,118.8,97.5z"/>
		<path class="st6" d="M119.6,97.2c0.1,0,0,0.1,0,0.1C119.5,97.3,119.5,97.2,119.6,97.2z"/>
		<path class="st6" d="M120.7,96.1c0.1,0,0.1,0.1,0.1,0.1C120.7,96.3,120.7,96.2,120.7,96.1C120.7,96.2,120.6,96.1,120.7,96.1z"/>
		<path class="st6" d="M118.3,98.3c0.1,0,0.2,0,0.1,0.1c0,0.1-0.1,0-0.1,0C118.3,98.4,118.2,98.4,118.3,98.3z"/>
		<path class="st6" d="M116.6,97.9C116.6,97.9,116.7,97.8,116.6,97.9C116.8,97.8,116.8,98.1,116.6,97.9
			C116.6,97.9,116.6,97.9,116.6,97.9z"/>
		<path class="st6" d="M114.4,97.9c0.1,0,0.1,0.2,0,0.2C114.4,98.1,114.4,98.1,114.4,97.9C114.4,98,114.4,97.9,114.4,97.9z"/>
		<path class="st6" d="M113.9,97L113.9,97c0.1,0,0.1,0.1,0,0.1l0,0C113.8,97.1,113.8,96.9,113.9,97z"/>
	</g>
</g>
<g>
	<g>
		<path class="st2" d="M125.3,75.5c0,0,0-3.7,2-3.7c2,0,3.1,2.4,4.9,1.6c1.8-0.8,4.2,0.2,5.2,0.8c0.9,0.6,0.1,1.4,0.6,2.5
			c0.5,1.1-0.2,0.8-1.3,2.6c-1,1.8-1.7,1.4-3.8,2.2c-2.1,0.8-3.2,0.6-4.8-0.6c-1.6-1.1-2.6-3-3.1-3.8
			C124.5,76.4,125.3,75.5,125.3,75.5z"/>
		<path class="st3" d="M125.5,73.6c0,0,0.2,1.8,0.3,2.1c0.1,0.3,1,1.3,2.1,2c1.1,0.7,1.6,0.6,3.3,0.6s2.4,0,3.4-0.7
			c1.1-0.7,1.8-0.3,2.2-1.1c0.5-0.9,0.7-1.4,0.7-1.4s0.2,1.8,0.1,2.2c-0.2,0.5-0.2,0.7-1.6,2.1c-1.3,1.3-4,2.4-4.9,2.4
			s-2.6-0.5-3.5-1.1c-0.9-0.6-2-2.1-2.3-2.6s-0.5-0.9-0.5-0.9l-0.1-1.1l0.4-0.6C125.3,75.5,125.2,74.3,125.5,73.6z"/>
		<path class="st4" d="M137.7,76.3c0,0,0.5,0.9,0.5,1.3s-1,1.2-1.2,1.7c-0.2,0.5-0.6,1.3-1.2,1.7c-0.6,0.4-2.2,0.6-3.6,1
			s-2.9,0.9-4.7-0.9c-1.8-1.8-2.2-2.9-2.5-3.3c-0.3-0.4-0.5-0.8-0.3-1.4c0.1-0.5,0.3-0.8,0.6-0.9c0.3-0.1-0.5,0.4-0.2,1.1
			c0.2,0.7,0.9,1.6,1.4,2.2c0.5,0.6,1.8,1.6,2.4,1.7c0.6,0.1,2.2,0.1,2.8,0c0.5-0.1,0.9,0.1,2.1-0.3c1.2-0.4,2.1-0.6,2.6-1.4
			s0.9-1,1.1-1.4C137.7,77,137.7,76.3,137.7,76.3z"/>
		<path class="st5" d="M129.9,74.8c0,0,2.4-1.3,3.3-0.9c0.9,0.4,2.1-0.2,3,0.5c0.8,0.7,0.8,0.8-1,1.8s-2.8,1.4-4.7,0.9
			s-2-1.7-1.9-2.1C128.6,74.8,129.9,74.8,129.9,74.8z"/>
		<path class="st5" d="M126.4,72.8c0,0,0.8-0.8,1.6-0.4c0.8,0.5,1,0.7,1.6,1.1c0.6,0.5,0.3,0.8-0.4,0.8c-0.7,0-0.9,0.5-1.8,0.3
			C126.5,74.5,125.8,73.4,126.4,72.8z"/>
		<path class="st1" d="M131.8,75.1c0,0,0.6-0.6,1.2-0.6c0.6,0,1.2,0.1,2,0.2c0.8,0.1,1,0.4,0.8,0.7c-0.2,0.3-0.5,0.5-1.8,0.6
			c-1.3,0.1-2.1,0-2.4-0.3C131.2,75.3,131.8,75.1,131.8,75.1z"/>
	</g>
	<g>
		<path class="st6" d="M137.4,74.7L137.4,74.7c0,0.2-0.2,0.1-0.2,0l0-0.1C137.3,74.6,137.5,74.6,137.4,74.7z"/>
		<path class="st6" d="M136.4,75.6c0.2,0,0.1,0.4-0.1,0.3S136.2,75.6,136.4,75.6z"/>
		<path class="st6" d="M136.6,76.8c0.1,0,0.1,0,0.2,0c0.1,0,0.1,0.1,0,0.2c-0.1,0-0.1,0-0.2,0C136.6,77,136.5,76.8,136.6,76.8z"/>
		<path class="st6" d="M135.5,76.8c0.2,0,0.1,0.4-0.1,0.3C135.2,77,135.3,76.7,135.5,76.8z"/>
		<path class="st6" d="M135.9,78.6c0.1,0,0.1,0.2,0,0.2S135.8,78.5,135.9,78.6z"/>
		<path class="st6" d="M134.9,78.4l0.2,0.1c0.1,0,0.1,0.2,0,0.2l-0.2-0.1C134.8,78.5,134.8,78.4,134.9,78.4z"/>
		<path class="st6" d="M134.2,79.8c0.2,0,0.1,0.4-0.1,0.3S134,79.7,134.2,79.8z"/>
		<path class="st6" d="M137.2,78.1c0.2,0,0.1,0.4-0.1,0.3C136.9,78.3,137,78,137.2,78.1z"/>
		<path class="st6" d="M137.6,75.6c0.2,0,0.1,0.4-0.1,0.3C137.3,75.8,137.4,75.5,137.6,75.6z"/>
		<path class="st6" d="M131.4,78.6C131.4,78.6,131.4,78.6,131.4,78.6c0.1-0.1,0.2-0.1,0.3-0.1c0.1,0,0.1,0.1,0.1,0.2
			c-0.1,0.1-0.2,0.2-0.3,0.2C131.2,79,131.2,78.6,131.4,78.6z"/>
		<path class="st6" d="M130.8,79.9C130.8,79.9,130.8,80,130.8,79.9c0.1,0,0.2,0,0.3,0.1c0,0.1,0,0.2-0.1,0.2c-0.1,0.1-0.3,0.1-0.4,0
			C130.5,80.1,130.6,79.8,130.8,79.9z"/>
		<path class="st6" d="M132.5,80.5c0.1,0,0.2-0.1,0.2-0.1c0.1,0,0.2,0,0.2,0.1c0,0.1,0,0.2-0.1,0.2c-0.1,0-0.2,0.1-0.2,0.1
			c-0.1,0-0.2,0-0.2-0.1C132.4,80.7,132.4,80.5,132.5,80.5z"/>
		<path class="st6" d="M129.5,78.2C129.5,78.2,129.5,78.2,129.5,78.2c0.1-0.1,0.2,0,0.2,0c0,0.1,0,0.2-0.1,0.2
			c-0.1,0.1-0.2,0.1-0.3,0C129.2,78.3,129.3,78.1,129.5,78.2z"/>
		<path class="st6" d="M132.9,77.8l0.2-0.1c0.2-0.1,0.3,0.2,0.1,0.3c-0.1,0-0.2,0-0.2,0.1C132.8,78.1,132.7,77.8,132.9,77.8z"/>
		<path class="st6" d="M127.2,77.7c0.1,0,0.2,0,0.2,0.1c0,0,0,0.1,0.1,0.1c0.1,0.1,0,0.2-0.1,0.2c-0.1,0-0.2,0-0.2-0.1
			c0,0,0-0.1-0.1-0.1C127.1,77.9,127.1,77.8,127.2,77.7z"/>
		<path class="st6" d="M127.6,79.7C127.6,79.7,127.7,79.8,127.6,79.7c0.1,0,0.2,0,0.3,0.1c0,0.1,0,0.2-0.1,0.2
			c-0.1,0.1-0.3,0.1-0.4,0C127.3,79.9,127.4,79.6,127.6,79.7z"/>
		<path class="st6" d="M129.1,78.9l0.1,0c0.2,0,0.1,0.4-0.1,0.3l-0.1,0C128.8,79.1,128.9,78.8,129.1,78.9z"/>
		<path class="st6" d="M127.1,78.6L127.1,78.6c0.2,0,0.1,0.2,0,0.2l-0.1,0C126.9,78.7,127,78.6,127.1,78.6z"/>
		<path class="st6" d="M125.8,78.9c0.1,0.1,0.1,0.1,0.2,0.2c0.1,0.1,0,0.2-0.1,0.1c-0.1-0.1-0.1-0.1-0.2-0.2
			C125.6,78.9,125.7,78.8,125.8,78.9z"/>
		<path class="st6" d="M133,78.6c0.1,0,0.1,0.2,0,0.2c0,0,0,0,0,0c0,0.1-0.2,0-0.1-0.1C132.8,78.6,132.9,78.6,133,78.6z"/>
		<path class="st6" d="M134.8,79.6l0.1,0c0.1,0,0.1,0.2,0,0.2l-0.1,0C134.7,79.8,134.7,79.6,134.8,79.6z"/>
		<path class="st6" d="M135.9,79.2c0.1,0,0.1,0.2,0,0.2S135.8,79.2,135.9,79.2z"/>
		<path class="st6" d="M137.5,77.7c0.1,0,0.2,0.1,0.1,0.2c0,0.1-0.1,0-0.1,0C137.4,77.8,137.4,77.7,137.5,77.7z"/>
		<path class="st6" d="M134,80.9c0.1-0.1,0.2,0,0.2,0.2c0,0.1-0.2,0.1-0.2,0C134,81,134,80.9,134,80.9z"/>
		<path class="st6" d="M131.7,80.2C131.7,80.2,131.7,80.2,131.7,80.2C132,80.1,131.9,80.5,131.7,80.2
			C131.7,80.3,131.7,80.3,131.7,80.2z"/>
		<path class="st6" d="M128.6,80.3c0.2,0,0.1,0.3-0.1,0.3c-0.1,0-0.1-0.1,0-0.1C128.5,80.4,128.5,80.3,128.6,80.3z"/>
		<path class="st6" d="M127.8,78.9L127.8,78.9c0.2,0,0.1,0.2,0,0.2l-0.1,0C127.6,79.1,127.7,78.9,127.8,78.9z"/>
	</g>
</g>
<g>
	<g>
		<path class="st2" d="M21.3,72.5c0,0,0-3.7,2-3.7s3.1,2.4,4.9,1.6c1.8-0.8,4.2,0.2,5.2,0.8c0.9,0.6,0.1,1.4,0.6,2.5
			c0.5,1.1-0.2,0.8-1.3,2.6c-1,1.8-1.7,1.4-3.8,2.2S25.6,79.2,24,78c-1.6-1.1-2.6-3-3.1-3.8C20.5,73.4,21.3,72.5,21.3,72.5z"/>
		<path class="st3" d="M21.5,70.6c0,0,0.2,1.8,0.3,2.1c0.1,0.3,1,1.3,2.1,2c1.1,0.7,1.6,0.6,3.3,0.6s2.4,0,3.4-0.7
			c1.1-0.7,1.8-0.3,2.2-1.1c0.5-0.9,0.7-1.4,0.7-1.4s0.2,1.8,0.1,2.2c-0.2,0.5-0.2,0.7-1.6,2.1c-1.3,1.3-4,2.4-4.9,2.4
			c-0.9,0-2.6-0.5-3.5-1.1c-0.9-0.6-2-2.1-2.3-2.6s-0.5-0.9-0.5-0.9l-0.1-1.1l0.4-0.6C21.3,72.5,21.2,71.3,21.5,70.6z"/>
		<path class="st4" d="M33.7,73.3c0,0,0.5,0.9,0.5,1.3s-1,1.2-1.2,1.7c-0.2,0.5-0.6,1.3-1.2,1.7c-0.6,0.4-2.2,0.6-3.6,1
			c-1.3,0.5-2.9,0.9-4.7-0.9c-1.8-1.8-2.2-2.9-2.5-3.3c-0.3-0.4-0.5-0.8-0.3-1.4c0.1-0.5,0.3-0.8,0.6-0.9c0.3-0.1-0.5,0.4-0.2,1.1
			s0.9,1.6,1.4,2.2s1.8,1.6,2.4,1.7c0.6,0.1,2.2,0.1,2.8,0c0.5-0.1,0.9,0.1,2.1-0.3c1.2-0.4,2.1-0.6,2.6-1.4c0.5-0.8,0.9-1,1.1-1.4
			C33.7,74,33.7,73.3,33.7,73.3z"/>
		<path class="st5" d="M25.9,71.8c0,0,2.4-1.3,3.3-0.9c0.9,0.4,2.1-0.2,3,0.5c0.8,0.7,0.8,0.8-1,1.8s-2.8,1.4-4.7,0.9
			s-2-1.7-1.9-2.1C24.6,71.8,25.9,71.8,25.9,71.8z"/>
		<path class="st5" d="M22.4,69.8c0,0,0.8-0.8,1.6-0.4s1,0.7,1.6,1.1c0.6,0.5,0.3,0.8-0.4,0.8c-0.7,0-0.9,0.5-1.8,0.3
			C22.5,71.5,21.8,70.4,22.4,69.8z"/>
		<path class="st1" d="M27.8,72.1c0,0,0.6-0.6,1.2-0.6s1.2,0.1,2,0.2s1,0.4,0.8,0.7c-0.2,0.3-0.5,0.5-1.8,0.6
			c-1.3,0.1-2.1,0-2.4-0.3C27.2,72.3,27.8,72.1,27.8,72.1z"/>
	</g>
	<g>
		<path class="st6" d="M33.4,71.7L33.4,71.7c0,0.2-0.2,0.1-0.2,0l0-0.1C33.3,71.6,33.5,71.6,33.4,71.7z"/>
		<path class="st6" d="M32.4,72.6c0.2,0,0.1,0.4-0.1,0.3S32.2,72.6,32.4,72.6z"/>
		<path class="st6" d="M32.6,73.8c0.1,0,0.1,0,0.2,0c0.1,0,0.1,0.1,0,0.2c-0.1,0-0.1,0-0.2,0C32.6,74,32.5,73.8,32.6,73.8z"/>
		<path class="st6" d="M31.5,73.8c0.2,0,0.1,0.4-0.1,0.3C31.2,74,31.3,73.7,31.5,73.8z"/>
		<path class="st6" d="M31.9,75.6c0.1,0,0.1,0.2,0,0.2C31.8,75.7,31.8,75.5,31.9,75.6z"/>
		<path class="st6" d="M30.9,75.4l0.2,0.1c0.1,0,0.1,0.2,0,0.2l-0.2-0.1C30.8,75.5,30.8,75.4,30.9,75.4z"/>
		<path class="st6" d="M30.2,76.8c0.2,0,0.1,0.4-0.1,0.3C29.9,77,30,76.7,30.2,76.8z"/>
		<path class="st6" d="M33.2,75.1c0.2,0,0.1,0.4-0.1,0.3S33,75,33.2,75.1z"/>
		<path class="st6" d="M33.6,72.6c0.2,0,0.1,0.4-0.1,0.3C33.3,72.8,33.4,72.5,33.6,72.6z"/>
		<path class="st6" d="M27.4,75.6C27.4,75.6,27.4,75.6,27.4,75.6c0.1-0.1,0.2-0.1,0.3-0.1c0.1,0,0.1,0.1,0.1,0.2
			c-0.1,0.1-0.2,0.2-0.3,0.2C27.2,76,27.2,75.6,27.4,75.6z"/>
		<path class="st6" d="M26.8,76.9C26.8,76.9,26.8,77,26.8,76.9c0.1,0,0.2,0,0.3,0.1c0,0.1,0,0.2-0.1,0.2c-0.1,0.1-0.3,0.1-0.4,0
			C26.5,77.1,26.6,76.8,26.8,76.9z"/>
		<path class="st6" d="M28.5,77.5c0.1,0,0.2-0.1,0.2-0.1c0.1,0,0.2,0,0.2,0.1c0,0.1,0,0.2-0.1,0.2c-0.1,0-0.2,0.1-0.2,0.1
			c-0.1,0-0.2,0-0.2-0.1C28.4,77.7,28.4,77.5,28.5,77.5z"/>
		<path class="st6" d="M25.5,75.2C25.5,75.2,25.5,75.2,25.5,75.2c0.1-0.1,0.2,0,0.2,0c0,0.1,0,0.2-0.1,0.2c-0.1,0.1-0.2,0.1-0.3,0
			C25.2,75.3,25.3,75.1,25.5,75.2z"/>
		<path class="st6" d="M28.9,74.8l0.2-0.1c0.2-0.1,0.3,0.2,0.1,0.3c-0.1,0-0.2,0-0.2,0.1C28.8,75.1,28.7,74.8,28.9,74.8z"/>
		<path class="st6" d="M23.2,74.7c0.1,0,0.2,0,0.2,0.1c0,0,0,0.1,0.1,0.1c0.1,0.1,0,0.2-0.1,0.2c-0.1,0-0.2,0-0.2-0.1
			c0,0,0-0.1-0.1-0.1C23.1,74.9,23.1,74.8,23.2,74.7z"/>
		<path class="st6" d="M23.6,76.7C23.6,76.7,23.7,76.8,23.6,76.7c0.1,0,0.2,0,0.3,0.1c0,0.1,0,0.2-0.1,0.2c-0.1,0.1-0.3,0.1-0.4,0
			C23.3,76.9,23.4,76.6,23.6,76.7z"/>
		<path class="st6" d="M25.1,75.9l0.1,0c0.2,0,0.1,0.4-0.1,0.3l-0.1,0C24.8,76.1,24.9,75.8,25.1,75.9z"/>
		<path class="st6" d="M23.1,75.6L23.1,75.6c0.2,0,0.1,0.2,0,0.2l-0.1,0C22.9,75.7,23,75.6,23.1,75.6z"/>
		<path class="st6" d="M21.8,75.9c0.1,0.1,0.1,0.1,0.2,0.2c0.1,0.1,0,0.2-0.1,0.1c-0.1-0.1-0.1-0.1-0.2-0.2
			C21.6,75.9,21.7,75.8,21.8,75.9z"/>
		<path class="st6" d="M29,75.6c0.1,0,0.1,0.2,0,0.2c0,0,0,0,0,0c0,0.1-0.2,0-0.1-0.1C28.8,75.6,28.9,75.6,29,75.6z"/>
		<path class="st6" d="M30.8,76.6l0.1,0c0.1,0,0.1,0.2,0,0.2l-0.1,0C30.7,76.8,30.7,76.6,30.8,76.6z"/>
		<path class="st6" d="M31.9,76.2c0.1,0,0.1,0.2,0,0.2C31.8,76.4,31.8,76.2,31.9,76.2z"/>
		<path class="st6" d="M33.5,74.7c0.1,0,0.2,0.1,0.1,0.2c0,0.1-0.1,0-0.1,0C33.4,74.8,33.4,74.7,33.5,74.7z"/>
		<path class="st6" d="M30,77.9c0.1-0.1,0.2,0,0.2,0.2c0,0.1-0.2,0.1-0.2,0C30,78,30,77.9,30,77.9z"/>
		<path class="st6" d="M27.7,77.2C27.7,77.2,27.7,77.2,27.7,77.2C28,77.1,27.9,77.5,27.7,77.2C27.7,77.3,27.7,77.3,27.7,77.2z"/>
		<path class="st6" d="M24.6,77.3c0.2,0,0.1,0.3-0.1,0.3c-0.1,0-0.1-0.1,0-0.1C24.5,77.4,24.5,77.3,24.6,77.3z"/>
		<path class="st6" d="M23.8,75.9L23.8,75.9c0.2,0,0.1,0.2,0,0.2l-0.1,0C23.6,76.1,23.7,75.9,23.8,75.9z"/>
	</g>
</g>
<g>
	<g>
		<path class="st2" d="M81.3,100.5c0,0,0-3.7,2-3.7c2,0,3.1,2.4,4.9,1.6c1.8-0.8,4.2,0.2,5.2,0.8c0.9,0.6,0.1,1.4,0.6,2.5
			c0.5,1.1-0.2,0.8-1.3,2.6c-1,1.8-1.7,1.4-3.8,2.2s-3.2,0.6-4.8-0.6c-1.6-1.1-2.6-3-3.1-3.8C80.5,101.4,81.3,100.5,81.3,100.5z"/>
		<path class="st3" d="M81.5,98.6c0,0,0.2,1.8,0.3,2.1c0.1,0.3,1,1.3,2.1,2c1.1,0.7,1.6,0.6,3.3,0.6c1.7,0,2.4,0,3.4-0.7
			c1.1-0.7,1.8-0.3,2.2-1.1c0.5-0.9,0.7-1.4,0.7-1.4s0.2,1.8,0.1,2.2c-0.2,0.5-0.2,0.7-1.6,2.1c-1.3,1.3-4,2.4-4.9,2.4
			s-2.6-0.5-3.5-1.1c-0.9-0.6-2-2.1-2.3-2.6s-0.5-0.9-0.5-0.9l-0.1-1.1l0.4-0.6C81.3,100.5,81.2,99.3,81.5,98.6z"/>
		<path class="st4" d="M93.7,101.3c0,0,0.5,0.9,0.5,1.3s-1,1.2-1.2,1.7c-0.2,0.5-0.6,1.3-1.2,1.7c-0.6,0.4-2.2,0.6-3.6,1
			s-2.9,0.9-4.7-0.9c-1.8-1.8-2.2-2.9-2.5-3.3c-0.3-0.4-0.5-0.8-0.3-1.4c0.1-0.5,0.3-0.8,0.6-0.9c0.3-0.1-0.5,0.4-0.2,1.1
			c0.2,0.7,0.9,1.6,1.4,2.2c0.5,0.6,1.8,1.6,2.4,1.7c0.6,0.1,2.2,0.1,2.8,0c0.5-0.1,0.9,0.1,2.1-0.3c1.2-0.4,2.1-0.6,2.6-1.4
			c0.5-0.8,0.9-1,1.1-1.4C93.7,102,93.7,101.3,93.7,101.3z"/>
		<path class="st5" d="M85.9,99.8c0,0,2.4-1.3,3.3-0.9c0.9,0.4,2.1-0.2,3,0.5c0.8,0.7,0.8,0.8-1,1.8c-1.8,1.1-2.8,1.4-4.7,0.9
			s-2-1.7-1.9-2.1S85.9,99.8,85.9,99.8z"/>
		<path class="st5" d="M82.4,97.8c0,0,0.8-0.8,1.6-0.4c0.8,0.5,1,0.7,1.6,1.1c0.6,0.5,0.3,0.8-0.4,0.8c-0.7,0-0.9,0.5-1.8,0.3
			C82.5,99.5,81.8,98.4,82.4,97.8z"/>
		<path class="st1" d="M87.8,100.1c0,0,0.6-0.6,1.2-0.6c0.6,0,1.2,0.1,2,0.2c0.8,0.1,1,0.4,0.8,0.7c-0.2,0.3-0.5,0.5-1.8,0.6
			c-1.3,0.1-2.1,0-2.4-0.3C87.2,100.3,87.8,100.1,87.8,100.1z"/>
	</g>
	<g>
		<path class="st6" d="M93.4,99.7L93.4,99.7c0,0.2-0.2,0.1-0.2,0l0-0.1C93.3,99.6,93.5,99.6,93.4,99.7z"/>
		<path class="st6" d="M92.4,100.6c0.2,0,0.1,0.4-0.1,0.3C92.1,100.9,92.2,100.6,92.4,100.6z"/>
		<path class="st6" d="M92.6,101.8c0.1,0,0.1,0,0.2,0c0.1,0,0.1,0.1,0,0.2c-0.1,0-0.1,0-0.2,0C92.6,102,92.5,101.8,92.6,101.8z"/>
		<path class="st6" d="M91.5,101.8c0.2,0,0.1,0.4-0.1,0.3C91.2,102,91.3,101.7,91.5,101.8z"/>
		<path class="st6" d="M91.9,103.6c0.1,0,0.1,0.2,0,0.2C91.8,103.7,91.8,103.5,91.9,103.6z"/>
		<path class="st6" d="M90.9,103.4l0.2,0.1c0.1,0,0.1,0.2,0,0.2l-0.2-0.1C90.8,103.5,90.8,103.4,90.9,103.4z"/>
		<path class="st6" d="M90.2,104.8c0.2,0,0.1,0.4-0.1,0.3C89.9,105,90,104.7,90.2,104.8z"/>
		<path class="st6" d="M93.2,103.1c0.2,0,0.1,0.4-0.1,0.3S93,103,93.2,103.1z"/>
		<path class="st6" d="M93.6,100.6c0.2,0,0.1,0.4-0.1,0.3C93.3,100.8,93.4,100.5,93.6,100.6z"/>
		<path class="st6" d="M87.4,103.6C87.4,103.6,87.4,103.6,87.4,103.6c0.1-0.1,0.2-0.1,0.3-0.1c0.1,0,0.1,0.1,0.1,0.2
			c-0.1,0.1-0.2,0.2-0.3,0.2C87.2,104,87.2,103.6,87.4,103.6z"/>
		<path class="st6" d="M86.8,104.9C86.8,104.9,86.8,105,86.8,104.9c0.1,0,0.2,0,0.3,0.1c0,0.1,0,0.2-0.1,0.2c-0.1,0.1-0.3,0.1-0.4,0
			C86.5,105.1,86.6,104.8,86.8,104.9z"/>
		<path class="st6" d="M88.5,105.5c0.1,0,0.2-0.1,0.2-0.1c0.1,0,0.2,0,0.2,0.1c0,0.1,0,0.2-0.1,0.2c-0.1,0-0.2,0.1-0.2,0.1
			c-0.1,0-0.2,0-0.2-0.1C88.4,105.7,88.4,105.5,88.5,105.5z"/>
		<path class="st6" d="M85.5,103.2C85.5,103.2,85.5,103.2,85.5,103.2c0.1-0.1,0.2,0,0.2,0c0,0.1,0,0.2-0.1,0.2
			c-0.1,0.1-0.2,0.1-0.3,0C85.2,103.3,85.3,103.1,85.5,103.2z"/>
		<path class="st6" d="M88.9,102.8l0.2-0.1c0.2-0.1,0.3,0.2,0.1,0.3c-0.1,0-0.2,0-0.2,0.1C88.8,103.1,88.7,102.8,88.9,102.8z"/>
		<path class="st6" d="M83.2,102.7c0.1,0,0.2,0,0.2,0.1c0,0,0,0.1,0.1,0.1c0.1,0.1,0,0.2-0.1,0.2c-0.1,0-0.2,0-0.2-0.1
			c0,0,0-0.1-0.1-0.1C83.1,102.9,83.1,102.8,83.2,102.7z"/>
		<path class="st6" d="M83.6,104.7C83.6,104.7,83.7,104.8,83.6,104.7c0.1,0,0.2,0,0.3,0.1c0,0.1,0,0.2-0.1,0.2
			c-0.1,0.1-0.3,0.1-0.4,0C83.3,104.9,83.4,104.6,83.6,104.7z"/>
		<path class="st6" d="M85.1,103.9l0.1,0c0.2,0,0.1,0.4-0.1,0.3l-0.1,0C84.8,104.1,84.9,103.8,85.1,103.9z"/>
		<path class="st6" d="M83.1,103.6L83.1,103.6c0.2,0,0.1,0.2,0,0.2l-0.1,0C82.9,103.7,83,103.6,83.1,103.6z"/>
		<path class="st6" d="M81.8,103.9c0.1,0.1,0.1,0.1,0.2,0.2c0.1,0.1,0,0.2-0.1,0.1c-0.1-0.1-0.1-0.1-0.2-0.2
			C81.6,103.9,81.7,103.8,81.8,103.9z"/>
		<path class="st6" d="M89,103.6c0.1,0,0.1,0.2,0,0.2c0,0,0,0,0,0c0,0.1-0.2,0-0.1-0.1C88.8,103.6,88.9,103.6,89,103.6z"/>
		<path class="st6" d="M90.8,104.6l0.1,0c0.1,0,0.1,0.2,0,0.2l-0.1,0C90.7,104.8,90.7,104.6,90.8,104.6z"/>
		<path class="st6" d="M91.9,104.2c0.1,0,0.1,0.2,0,0.2S91.8,104.2,91.9,104.2z"/>
		<path class="st6" d="M93.5,102.7c0.1,0,0.2,0.1,0.1,0.2c0,0.1-0.1,0-0.1,0C93.4,102.8,93.4,102.7,93.5,102.7z"/>
		<path class="st6" d="M90,105.9c0.1-0.1,0.2,0,0.2,0.2c0,0.1-0.2,0.1-0.2,0C90,106,90,105.9,90,105.9z"/>
		<path class="st6" d="M87.7,105.2C87.7,105.2,87.7,105.2,87.7,105.2C88,105.1,87.9,105.5,87.7,105.2
			C87.7,105.3,87.7,105.3,87.7,105.2z"/>
		<path class="st6" d="M84.6,105.3c0.2,0,0.1,0.3-0.1,0.3c-0.1,0-0.1-0.1,0-0.1C84.5,105.4,84.5,105.3,84.6,105.3z"/>
		<path class="st6" d="M83.8,103.9L83.8,103.9c0.2,0,0.1,0.2,0,0.2l-0.1,0C83.6,104.1,83.7,103.9,83.8,103.9z"/>
	</g>
</g>
<g>
	<g>
		<path class="st2" d="M42.5,99.8c0,0,0-2.5,1.3-2.5s2.1,1.6,3.3,1.1c1.2-0.5,2.9,0.2,3.5,0.5c0.6,0.4,0.1,0.9,0.4,1.7
			c0.3,0.8-0.2,0.5-0.9,1.8c-0.7,1.2-1.2,0.9-2.6,1.5c-1.4,0.5-2.2,0.4-3.3-0.4c-1.1-0.8-1.8-2-2.1-2.6S42.5,99.8,42.5,99.8z"/>
		<path class="st3" d="M42.6,98.5c0,0,0.2,1.2,0.2,1.4c0,0.2,0.7,0.9,1.4,1.4c0.7,0.5,1.1,0.4,2.2,0.4s1.6,0,2.3-0.5
			c0.7-0.5,1.2-0.2,1.5-0.8c0.3-0.6,0.5-0.9,0.5-0.9s0.2,1.2,0,1.5c-0.1,0.3-0.2,0.5-1,1.4c-0.9,0.9-2.7,1.6-3.3,1.6
			c-0.6,0-1.8-0.3-2.4-0.7c-0.6-0.4-1.4-1.4-1.6-1.7c-0.2-0.3-0.3-0.6-0.3-0.6l0-0.7l0.3-0.4C42.5,99.8,42.4,98.9,42.6,98.5z"/>
		<path class="st4" d="M50.9,100.3c0,0,0.3,0.6,0.3,0.9c0,0.3-0.7,0.8-0.8,1.1s-0.4,0.9-0.8,1.1c-0.4,0.3-1.5,0.4-2.4,0.7
			c-0.9,0.3-2,0.6-3.2-0.6s-1.5-2-1.7-2.3c-0.2-0.3-0.3-0.5-0.2-0.9c0.1-0.4,0.2-0.6,0.4-0.6c0.2,0-0.3,0.3-0.2,0.8s0.6,1.1,0.9,1.5
			c0.3,0.4,1.2,1,1.6,1.1c0.4,0.1,1.5,0,1.9,0s0.6,0.1,1.4-0.2c0.8-0.3,1.4-0.4,1.7-1s0.6-0.7,0.8-1
			C50.9,100.8,50.9,100.3,50.9,100.3z"/>
		<path class="st5" d="M45.6,99.3c0,0,1.6-0.9,2.2-0.6s1.5-0.1,2,0.4c0.6,0.5,0.5,0.5-0.7,1.2c-1.2,0.7-1.9,0.9-3.2,0.6
			c-1.3-0.3-1.3-1.1-1.3-1.4S45.6,99.3,45.6,99.3z"/>
		<path class="st5" d="M43.2,97.9c0,0,0.6-0.6,1.1-0.3c0.5,0.3,0.7,0.5,1.1,0.8c0.4,0.3,0.2,0.5-0.3,0.5c-0.5,0-0.6,0.3-1.2,0.2
			C43.3,99,42.8,98.3,43.2,97.9z"/>
		<path class="st1" d="M46.9,99.4c0,0,0.4-0.4,0.8-0.4c0.4,0,0.8,0.1,1.3,0.1c0.5,0.1,0.7,0.3,0.5,0.5s-0.4,0.4-1.2,0.4
			c-0.9,0.1-1.5,0-1.7-0.2C46.5,99.6,46.9,99.4,46.9,99.4z"/>
	</g>
	<g>
		<path class="st6" d="M50.7,99.2L50.7,99.2c0,0.1-0.1,0.1-0.1,0l0-0.1C50.6,99.1,50.7,99.2,50.7,99.2z"/>
		<path class="st6" d="M50,99.8c0.1,0,0.1,0.2,0,0.2S49.8,99.8,50,99.8z"/>
		<path class="st6" d="M50.1,100.6c0,0,0.1,0,0.1,0c0.1,0,0.1,0.1,0,0.1c0,0-0.1,0-0.1,0C50.1,100.7,50.1,100.6,50.1,100.6z"/>
		<path class="st6" d="M49.4,100.6c0.1,0,0.1,0.2,0,0.2C49.2,100.8,49.3,100.6,49.4,100.6z"/>
		<path class="st6" d="M49.7,101.8c0.1,0,0,0.1,0,0.1C49.6,101.9,49.6,101.8,49.7,101.8z"/>
		<path class="st6" d="M49,101.7l0.2,0c0.1,0,0,0.1,0,0.1l-0.2,0C48.9,101.8,48.9,101.7,49,101.7z"/>
		<path class="st6" d="M48.5,102.6c0.1,0,0.1,0.2,0,0.2C48.3,102.8,48.4,102.6,48.5,102.6z"/>
		<path class="st6" d="M50.5,101.5c0.1,0,0.1,0.2,0,0.2S50.4,101.4,50.5,101.5z"/>
		<path class="st6" d="M50.8,99.8c0.1,0,0.1,0.2,0,0.2C50.6,100,50.6,99.8,50.8,99.8z"/>
		<path class="st6" d="M46.6,101.9C46.6,101.9,46.6,101.9,46.6,101.9c0.1-0.1,0.1-0.1,0.2-0.1c0,0,0.1,0.1,0,0.1
			c-0.1,0.1-0.1,0.1-0.2,0.1C46.5,102.1,46.5,101.9,46.6,101.9z"/>
		<path class="st6" d="M46.2,102.7C46.2,102.7,46.2,102.8,46.2,102.7c0.1,0,0.2,0,0.2,0c0,0,0,0.1,0,0.1c-0.1,0-0.2,0-0.3,0
			C46,102.9,46.1,102.7,46.2,102.7z"/>
		<path class="st6" d="M47.3,103.1c0.1,0,0.1-0.1,0.2-0.1c0.1,0,0.1,0,0.1,0c0,0,0,0.1,0,0.1c-0.1,0-0.1,0.1-0.2,0.1
			c-0.1,0-0.1,0-0.1,0C47.3,103.2,47.3,103.1,47.3,103.1z"/>
		<path class="st6" d="M45.3,101.5C45.3,101.5,45.3,101.5,45.3,101.5c0.1,0,0.1,0,0.2,0c0,0.1,0,0.1,0,0.1c-0.1,0-0.2,0-0.2,0
			C45.1,101.7,45.2,101.5,45.3,101.5z"/>
		<path class="st6" d="M47.6,101.3l0.2,0c0.1,0,0.2,0.2,0.1,0.2c-0.1,0-0.1,0-0.2,0C47.6,101.5,47.5,101.3,47.6,101.3z"/>
		<path class="st6" d="M43.7,101.3c0.1,0,0.1,0,0.1,0c0,0,0,0,0,0.1c0,0,0,0.1,0,0.1c-0.1,0-0.1,0-0.1,0c0,0,0,0,0-0.1
			C43.7,101.4,43.7,101.3,43.7,101.3z"/>
		<path class="st6" d="M44,102.6C44.1,102.6,44.1,102.6,44,102.6c0.1,0,0.2,0,0.2,0c0,0,0,0.1,0,0.1c-0.1,0-0.2,0-0.3,0
			C43.8,102.7,43.9,102.5,44,102.6z"/>
		<path class="st6" d="M45,102L45,102c0.2,0,0.2,0.3,0,0.2l-0.1,0C44.8,102.2,44.9,102,45,102z"/>
		<path class="st6" d="M43.7,101.8L43.7,101.8c0.1,0,0.1,0.1,0,0.1l0,0C43.6,101.9,43.6,101.8,43.7,101.8z"/>
		<path class="st6" d="M42.8,102c0,0,0.1,0.1,0.1,0.1c0,0.1,0,0.1-0.1,0.1C42.8,102.2,42.8,102.1,42.8,102
			C42.7,102,42.8,102,42.8,102z"/>
		<path class="st6" d="M47.7,101.8c0.1,0,0,0.1,0,0.1c0,0,0,0,0,0c0,0.1-0.1,0-0.1-0.1C47.6,101.8,47.6,101.8,47.7,101.8z"/>
		<path class="st6" d="M48.9,102.5L48.9,102.5c0.1,0,0.1,0.1,0,0.1l-0.1,0C48.8,102.6,48.8,102.5,48.9,102.5z"/>
		<path class="st6" d="M49.6,102.3c0.1,0,0,0.1,0,0.1C49.5,102.4,49.6,102.3,49.6,102.3z"/>
		<path class="st6" d="M50.7,101.2c0.1,0,0.1,0.1,0.1,0.1C50.8,101.4,50.7,101.3,50.7,101.2C50.7,101.3,50.7,101.2,50.7,101.2z"/>
		<path class="st6" d="M48.4,103.4c0.1,0,0.2,0,0.1,0.1C48.5,103.5,48.4,103.5,48.4,103.4C48.4,103.5,48.3,103.4,48.4,103.4z"/>
		<path class="st6" d="M46.8,102.9C46.8,102.9,46.8,102.9,46.8,102.9C47,102.8,46.9,103.1,46.8,102.9C46.8,103,46.8,103,46.8,102.9z
			"/>
		<path class="st6" d="M44.7,103c0.1,0,0.1,0.2,0,0.2C44.6,103.2,44.6,103.1,44.7,103C44.6,103,44.6,103,44.7,103z"/>
		<path class="st6" d="M44.1,102.1L44.1,102.1c0.1,0,0.1,0.1,0,0.1l0,0C44,102.1,44.1,102,44.1,102.1z"/>
	</g>
</g>
</svg>
