<?xml version="1.0" encoding="utf-8"?>
<!-- Generator: Adobe Illustrator 21.0.0, SVG Export Plug-In . SVG Version: 6.00 Build 0)  -->
<svg version="1.1" id="Слой_2" xmlns="http://www.w3.org/2000/svg" xmlns:xlink="http://www.w3.org/1999/xlink" x="0px" y="0px"
	 viewBox="0 0 200 109" style="enable-background:new 0 0 200 109;" xml:space="preserve">
<style type="text/css">
	.st0{opacity:0.57;clip-path:url(#SVGID_2_);}
	.st1{fill:#66753C;}
	.st2{opacity:0.19;clip-path:url(#SVGID_4_);}
	.st3{fill:#D9412C;}
	.st4{opacity:0.37;clip-path:url(#SVGID_4_);}
	.st5{fill:#E87C79;}
	.st6{fill:#FFFFFF;}
	.st7{opacity:0.57;}
</style>
<g>
	<g>
		<defs>
			<path id="SVGID_1_" d="M159.3,14.1c0.1,0,0.2,0.1,0.2,0.2c0,0.1,0,0.2,0,0.3c-0.3,0.7-0.8,1.4-1.5,1.8c-1.3,0.7-2.8,1-4.3,1.2
				c-5.8,0.8-6.8,1.3-9.8,3.3c-1.8,1.2-3.5,2.6-4.8,4.4c-1.3,1.8-2.1,3.9-1.9,6.1c0.1,0.9,0,2.2-0.9,2.2c-0.3,0-0.6-0.2-0.8-0.4
				c-3.3-2.4-8.6-2.7-11.6-5.4c1.6,0.8,5.8-1.6,7.4-2.3c1.6-0.8,3-2,4.3-3.2c2.4-2.3,4.9-4.6,7.7-6.4c2.8-1.8,6.2-3,9.5-2.7
				C154.2,13.2,158.3,13.5,159.3,14.1z"/>
		</defs>
		<use xlink:href="#SVGID_1_"  style="overflow:visible;fill:#729050;"/>
		<clipPath id="SVGID_2_">
			<use xlink:href="#SVGID_1_"  style="overflow:visible;"/>
		</clipPath>
		<g class="st0">
			<path class="st1" d="M161.4,14.1c0-6.8-15.1-4.4-18.7-3c-3.9,1.4-7.3,4.4-10.4,7.2c-1.2,1.1-2.3,2.1-3.7,2.9
				c-1.5,0.9-3.2,0.8-4.8,1.5c-3,1.2-2.7,5.6-0.2,7.1c6.3,3.9,12.2-4.5,16-8.2c3.3-3.2,5.8-5.2,10.3-6c1.9-0.3,3.8-0.5,5.7-0.6
				c1.6-0.1,3.3,0.3,4.9,0.2C160.9,14.9,161.4,14.6,161.4,14.1L161.4,14.1z"/>
		</g>
	</g>
	<g>
		<defs>
			<path id="SVGID_3_" d="M137.8,34c-1.1-1.3-2.2-2.5-3.4-3.6c-3.5-3.2-8.5-5.1-13.1-3.9c-3.2,0.8-5.8,3-8.1,5.3
				c-8.9,8.7-15.6,19.4-25.1,27.4c-2.5,2.1-5.2,4.1-7.8,6.2c-2.9,2.4-5.5,5.1-8.1,7.8C66.8,78.8,61.3,84.4,55.9,90
				c-0.7,0.8-1.4,2.1-0.5,2.7c0.3,0.2,0.8,0.1,1.2,0c14.7-3,29.1-8.3,41.8-16.2c7.7-4.7,25-20,29.6-24.3c4.3-4.1,8.7-8.4,10.7-13.9
				c0.3-0.7,0.5-1.5,0.3-2.3C138.9,35.2,138.3,34.6,137.8,34z"/>
		</defs>
		<use xlink:href="#SVGID_3_"  style="overflow:visible;fill:#DF4636;"/>
		<clipPath id="SVGID_4_">
			<use xlink:href="#SVGID_3_"  style="overflow:visible;"/>
		</clipPath>
		<g class="st2">
			<path class="st3" d="M50.2,88.5c1.4,3.2,6,2.9,8.8,2.6c1.4-0.2,3.3-1.2,4.6-1.8c2.5-1.1,5.1-2.2,7.6-3.4
				C81.6,81,90.9,73.8,99.1,65.8c7.8-7.6,13.1-17.3,20.2-25.5c1.6-1.8,3.2-3.6,5-5.2c1.2-1.1,2.9-2,3.7-2.1c1.6-0.1,2.7-0.7,4.6-0.1
				c2.1,0.7,4.8,1.9,7.4,4.9c2.2,2.5,5.6-5.5,4.5-9.1c-3-10.6-17.9-11.7-26-6.8c-4.7,2.9-8.3,7.2-11.8,11.4
				c-3.8,4.7-7.2,9.7-10.8,14.6c-6.5,8.7-15.2,16.1-24.5,21.8c-5,3.1-10.4,5.3-15.1,8.9c-1.3,1-2.8,2.5-3.7,3.9
				c-0.4,0.6-0.8,1.3-1.2,2c0.2-0.3-1,0.9-0.3,0.5C50,85.7,49.6,87.1,50.2,88.5L50.2,88.5z"/>
		</g>
		<g class="st4">
			<path class="st3" d="M42.5,87.3c1.6,3.6,6.6,3.2,9.8,2.9c1.6-0.2,3.6-1.3,5.1-2c2.8-1.2,5.6-2.4,8.4-3.7
				c11.5-5.4,21.7-13.4,30.8-22.2c8.7-8.4,14.4-19.1,22.4-28.1c1.8-2,3.6-4,5.5-5.8c1.4-1.2,3.2-2.2,4.1-2.3c1.8-0.1,3-0.8,5.1-0.1
				c2.3,0.7,5.3,2.1,8.2,5.5c2.4,2.7,6.1-6.1,5-10c-3.3-11.7-19.8-13-28.7-7.6c-5.2,3.2-9.2,8-13,12.6c-4.2,5.2-8,10.7-12,16.1
				c-7.1,9.6-16.8,17.8-27,24.1c-5.5,3.4-11.5,5.9-16.7,9.8c-1.4,1.1-3.1,2.8-4.1,4.3c-0.5,0.7-0.9,1.5-1.4,2.2
				c0.2-0.3-1.1,1-0.3,0.5C42.3,84.3,41.8,85.8,42.5,87.3L42.5,87.3z"/>
		</g>
		<g class="st4">
			<path class="st3" d="M38.5,85c1.6,3.6,6.6,3.2,9.8,2.9c1.6-0.2,3.6-1.3,5.1-2c2.8-1.2,5.6-2.4,8.4-3.7
				C73.2,76.8,83.5,68.8,92.5,60c8.7-8.4,14.4-19.1,22.4-28.1c1.8-2,3.6-4,5.5-5.8c1.4-1.2,3.2-2.2,4.1-2.3c1.8-0.1,3-0.8,5.1-0.1
				c2.3,0.7,5.3,2.1,8.2,5.5c2.4,2.7,6.1-6.1,5-10c-3.3-11.7-19.8-13-28.7-7.6c-5.2,3.2-9.2,8-13,12.6c-4.2,5.2-8,10.7-12,16.1
				c-7.1,9.6-16.8,17.8-27,24.1c-5.5,3.4-11.5,5.9-16.7,9.8c-1.4,1.1-3.1,2.8-4.1,4.3c-0.5,0.7-0.9,1.5-1.4,2.2
				c0.2-0.3-1.1,1-0.3,0.5C38.3,82,37.8,83.5,38.5,85L38.5,85z"/>
		</g>
	</g>
	<g>
		<path class="st5" d="M93.6,70.3c2.4-0.2,4.5-1.2,5.9-3.3c1.1-1.6-0.9-3.7-2.6-2.7c-1.9,1.1-2.9,2.8-4.1,4.5
			C92.4,69.4,92.9,70.3,93.6,70.3L93.6,70.3z"/>
	</g>
	<g>
		<path class="st5" d="M93.2,65.6c1.2-0.6,2.8-1.2,3.7-2.3c0.4-0.5,0.5-1,0.3-1.6c-0.1-0.2-0.3-0.4-0.5-0.5C96,60.9,95.5,61,95,61.3
			c-1.1,0.8-1.8,2.3-2.5,3.5C92.2,65.3,92.7,65.8,93.2,65.6L93.2,65.6z"/>
	</g>
	<g>
		<path class="st5" d="M95.6,74.3c8.3-3.4,15.2-8.7,21.5-14.9c3.2-3.1,6.1-6.5,9-9.8c2.4-2.7,6.4-6.2,7-9.9c0.5-3-2.5-4.9-4.9-3.1
			c-1.4,1-2.2,2.5-3.2,3.9c-1.3,1.7-2.6,3.3-3.9,5c-2.6,3.3-5.2,6.6-7.9,9.7c-5.6,6.4-11.5,12.9-18.1,18.4
			C94.7,74,95.1,74.5,95.6,74.3L95.6,74.3z"/>
	</g>
	<g>
		<path class="st5" d="M63.2,88.2c2.9,2.4,7.3-0.7,10.2-1.9c2.9-1.2,5.8-2.3,8.7-3.4c2.7-1.1,5.8-2.2,8.2-3.8c2.6-1.9,0-5.5-2.5-3.6
			c-1.9,1.4-4.5,2.3-6.6,3.4c-2.5,1.2-5,2.2-7.5,3.4c-2,0.9-4,1.8-5.8,3c-1.4,0.9-3,2.1-4.6,2.6C63.1,87.9,63,88.1,63.2,88.2
			L63.2,88.2z"/>
	</g>
	<g>
		<path class="st6" d="M123,49.4c1.8-0.3,3.6-2.4,4.6-3.8c0.8-1.2,2.2-2.7,2.2-4.3c0-2-2.6-2.2-3.3-0.5c-0.6,1.3-1.2,2.5-1.8,3.8
			c-0.7,1.4-2.6,3-2,4.7C122.8,49.3,122.9,49.4,123,49.4L123,49.4z"/>
	</g>
	<g>
		<path class="st6" d="M97.1,69.6c0.2,0,0.3,0.1,0.5,0.1c0.2,0,0.4,0,0.6,0.1c-0.2-0.1-0.4-0.2-0.7-0.3c0,0,0,0,0.1,0.1
			c0.5,0.5,1.3,0.5,1.7-0.2c0.1-0.1,0.1-0.2,0.1-0.3c0.1-0.3,0-0.8-0.2-1c-0.2-0.2-0.3-0.2-0.5-0.3c-0.5-0.2-1.3,0.2-1.4,0.7
			c0,0,0,0.1,0,0.1c0.1-0.1,0.2-0.3,0.3-0.4c-0.1,0.2-0.3,0.3-0.4,0.5C97,68.8,97,69,96.8,69.2C96.7,69.3,96.9,69.6,97.1,69.6
			L97.1,69.6z"/>
	</g>
	<g class="st7">
		<path class="st1" d="M137,24.8c-1,1.3-2.1,2.5-2.8,3.9c-0.1,0.1,0.1,0.3,0.2,0.2c1-1.2,1.9-2.7,2.7-4
			C137.1,24.8,137,24.8,137,24.8L137,24.8z"/>
	</g>
	<g class="st7">
		<path class="st1" d="M136.6,27c-0.6,1.1-0.9,2.3-1.2,3.5c0,0.1,0.1,0.2,0.2,0.1C136.2,29.5,136.1,28.2,136.6,27
			C136.7,27,136.6,27,136.6,27L136.6,27z"/>
	</g>
	<g class="st7">
		<path class="st1" d="M144.5,18.6c-2.2,1.2-4.2,2.7-5.8,4.7c-0.1,0.1,0.1,0.2,0.2,0.1C140.8,21.8,142.6,20.2,144.5,18.6
			C144.6,18.6,144.5,18.6,144.5,18.6L144.5,18.6z"/>
	</g>
	<g class="st7">
		<path class="st1" d="M154,16c-1.6-0.7-3.5,0.6-4.9,1.1c-0.2,0.1-0.2,0.4,0.1,0.4C150.8,17.1,152.3,15.9,154,16
			C154,16,154,16,154,16L154,16z"/>
	</g>
	<g class="st7">
		<path class="st1" d="M147.4,17.1c-0.4,0.1-0.8,0.2-1.1,0.4c-0.1,0,0,0.1,0.1,0.1C146.7,17.5,147,17.3,147.4,17.1
			C147.4,17.2,147.4,17.1,147.4,17.1L147.4,17.1z"/>
	</g>
	<g class="st7">
		<path class="st1" d="M138.3,24.3c-0.3,0.4-0.6,0.8-0.9,1.2c-0.1,0.2,0.1,0.3,0.3,0.2c0.4-0.4,0.7-0.8,0.9-1.3
			C138.6,24.3,138.4,24.2,138.3,24.3L138.3,24.3z"/>
	</g>
</g>
</svg>
