<?xml version="1.0" encoding="utf-8"?>
<!-- Generator: Adobe Illustrator 21.0.0, SVG Export Plug-In . SVG Version: 6.00 Build 0)  -->
<svg version="1.1" id="Слой_3" xmlns="http://www.w3.org/2000/svg" xmlns:xlink="http://www.w3.org/1999/xlink" x="0px" y="0px"
	 viewBox="0 0 200 109" style="enable-background:new 0 0 200 109;" xml:space="preserve">
<style type="text/css">
	.st0{fill:#518D23;}
	.st1{fill:#ACD680;}
	.st2{fill:#FFC200;}
	.st3{fill:#FDDB22;}
	.st4{fill:#78B639;}
	.st5{opacity:0.3;}
	.st6{fill:#FFFFFF;}
</style>
<g>
	<g>
		<path class="st0" d="M102.4,34.4c0,0-0.6-19.5-1.8-28.1c-1.2-8.6,1,0-4.5,21.6c-5.6,21.6-12.5,27.4-12.3,41.6
			C83.9,83.8,96.7,70.9,102.4,34.4z"/>
	</g>
	<g>
		<path class="st1" d="M120.9,68.2c0,0-4.7,2-6.8,7.9c-2.1,5.9-5.7,14.8-10.4,17.2c-4.7,2.3,2.1-17.1,2.1-17.1S114.1,67,120.9,68.2z
			"/>
	</g>
	<g>
		<path class="st0" d="M116.7,50c0,0,9.7-2.9,14.6-3.5c4.9-0.6-0.6-0.8-7.4,7.1c-6.7,7.8-5,14-11.9,16.3C105,72.1,103,60.5,116.7,50
			z"/>
	</g>
	<g>
		
			<ellipse transform="matrix(0.3603 -0.9328 0.9328 0.3603 20.0315 131.3331)" class="st2" cx="105.8" cy="51.1" rx="45.3" ry="13.2"/>
	</g>
	<g>
		<g>
			<path class="st3" d="M98.8,43.7L95,42.3c-0.8-0.3-1.2-1.2-0.9-1.9l0.3-0.7c0.3-0.8,1.2-1.2,1.9-0.9l3.8,1.5
				c0.8,0.3,1.2,1.2,0.9,1.9l-0.3,0.7C100.4,43.6,99.5,44,98.8,43.7z"/>
		</g>
		<g>
			<path class="st3" d="M105.9,46.5l-3.8-1.5c-0.8-0.3-1.2-1.2-0.9-1.9l0.3-0.7c0.3-0.8,1.2-1.2,1.9-0.9l3.8,1.5
				c0.8,0.3,1.2,1.2,0.9,1.9l-0.3,0.7C107.6,46.4,106.7,46.8,105.9,46.5z"/>
		</g>
		<g>
			<path class="st3" d="M113,49.2l-3.8-1.5c-0.8-0.3-1.2-1.2-0.9-1.9l0.3-0.7c0.3-0.8,1.2-1.2,1.9-0.9l3.8,1.5
				c0.8,0.3,1.2,1.2,0.9,1.9l-0.3,0.7C114.7,49.1,113.8,49.5,113,49.2z"/>
		</g>
		<g>
			<path class="st3" d="M120.2,52l-3.8-1.5c-0.8-0.3-1.2-1.2-0.9-1.9l0.3-0.7c0.3-0.8,1.2-1.2,1.9-0.9l3.8,1.5
				c0.8,0.3,1.2,1.2,0.9,1.9l-0.3,0.7C121.8,51.9,121,52.3,120.2,52z"/>
		</g>
		<g>
			<path class="st3" d="M97.4,47.5l-3.8-1.5c-0.8-0.3-1.2-1.2-0.9-1.9l0.3-0.7c0.3-0.8,1.2-1.2,1.9-0.9l3.8,1.5
				c0.8,0.3,1.2,1.2,0.9,1.9l-0.3,0.7C99,47.4,98.1,47.8,97.4,47.5z"/>
		</g>
		<g>
			<path class="st3" d="M104.5,50.3l-3.8-1.5c-0.8-0.3-1.2-1.2-0.9-1.9l0.3-0.7c0.3-0.8,1.2-1.2,1.9-0.9l3.8,1.5
				c0.8,0.3,1.2,1.2,0.9,1.9l-0.3,0.7C106.2,50.2,105.3,50.6,104.5,50.3z"/>
		</g>
		<g>
			<path class="st3" d="M111.6,53.1l-3.8-1.5c-0.8-0.3-1.2-1.2-0.9-1.9l0.3-0.7c0.3-0.8,1.2-1.2,1.9-0.9l3.8,1.5
				c0.8,0.3,1.2,1.2,0.9,1.9l-0.3,0.7C113.3,53,112.4,53.4,111.6,53.1z"/>
		</g>
		<g>
			<path class="st3" d="M118.8,55.8l-3.8-1.5c-0.8-0.3-1.2-1.2-0.9-1.9l0.3-0.7c0.3-0.8,1.2-1.2,1.9-0.9l3.8,1.5
				c0.8,0.3,1.2,1.2,0.9,1.9l-0.3,0.7C120.4,55.7,119.6,56.1,118.8,55.8z"/>
		</g>
		<g>
			<path class="st3" d="M100.4,40l-3.7-1.4c-0.8-0.3-1.2-1.2-0.9-1.9l0.3-0.7c0.3-0.8,1.2-1.2,1.9-0.9l3.7,1.4
				c0.8,0.3,1.2,1.2,0.9,1.9l-0.3,0.7C102,39.9,101.1,40.3,100.4,40z"/>
		</g>
		<g>
			<path class="st3" d="M107.5,42.7l-3.7-1.4c-0.8-0.3-1.2-1.2-0.9-1.9l0.3-0.7c0.3-0.8,1.2-1.2,1.9-0.9l3.7,1.4
				c0.8,0.3,1.2,1.2,0.9,1.9l-0.3,0.7C109.1,42.6,108.2,43,107.5,42.7z"/>
		</g>
		<g>
			<path class="st3" d="M114.5,45.4l-3.7-1.4c-0.8-0.3-1.2-1.2-0.9-1.9l0.3-0.7c0.3-0.8,1.2-1.2,1.9-0.9l3.7,1.4
				c0.8,0.3,1.2,1.2,0.9,1.9l-0.3,0.7C116.2,45.3,115.3,45.7,114.5,45.4z"/>
		</g>
		<g>
			<path class="st3" d="M121.6,48.2l-3.7-1.4c-0.8-0.3-1.2-1.2-0.9-1.9l0.3-0.7c0.3-0.8,1.2-1.2,1.9-0.9l3.7,1.4
				c0.8,0.3,1.2,1.2,0.9,1.9l-0.3,0.7C123.2,48.1,122.4,48.5,121.6,48.2z"/>
		</g>
		<g>
			<path class="st3" d="M101.9,36.3l-3.6-1.4c-0.8-0.3-1.1-1.1-0.8-1.9l0.3-0.7c0.3-0.8,1.1-1.1,1.9-0.8l3.6,1.4
				c0.8,0.3,1.1,1.1,0.8,1.9l-0.3,0.7C103.5,36.2,102.7,36.6,101.9,36.3z"/>
		</g>
		<g>
			<path class="st3" d="M108.8,39l-3.6-1.4c-0.8-0.3-1.1-1.1-0.8-1.9l0.3-0.7c0.3-0.8,1.1-1.1,1.9-0.8l3.6,1.4
				c0.8,0.3,1.1,1.1,0.8,1.9l-0.3,0.7C110.4,38.9,109.6,39.3,108.8,39z"/>
		</g>
		<g>
			<path class="st3" d="M115.7,41.6l-3.6-1.4c-0.8-0.3-1.1-1.1-0.8-1.9l0.3-0.7c0.3-0.8,1.1-1.1,1.9-0.8l3.6,1.4
				c0.8,0.3,1.1,1.1,0.8,1.9l-0.3,0.7C117.3,41.6,116.4,41.9,115.7,41.6z"/>
		</g>
		<g>
			<path class="st3" d="M122.6,44.3l-3.6-1.4c-0.8-0.3-1.1-1.1-0.8-1.9l0.3-0.7c0.3-0.8,1.1-1.1,1.9-0.8l3.6,1.4
				c0.8,0.3,1.1,1.1,0.8,1.9l-0.3,0.7C124.2,44.2,123.3,44.6,122.6,44.3z"/>
		</g>
		<g>
			<path class="st3" d="M103.6,32.8l-3.5-1.3c-0.7-0.3-1.1-1.1-0.8-1.8l0.2-0.6c0.3-0.7,1.1-1.1,1.8-0.8l3.5,1.3
				c0.7,0.3,1.1,1.1,0.8,1.8l-0.2,0.6C105.2,32.8,104.4,33.1,103.6,32.8z"/>
		</g>
		<g>
			<path class="st3" d="M110.3,35.4l-3.5-1.3c-0.7-0.3-1.1-1.1-0.8-1.8l0.2-0.6c0.3-0.7,1.1-1.1,1.8-0.8l3.5,1.3
				c0.7,0.3,1.1,1.1,0.8,1.8l-0.2,0.6C111.8,35.3,111,35.7,110.3,35.4z"/>
		</g>
		<g>
			<path class="st3" d="M116.8,37.9l-3.5-1.3c-0.7-0.3-1.1-1.1-0.8-1.8l0.2-0.6c0.3-0.7,1.1-1.1,1.8-0.8l3.5,1.3
				c0.7,0.3,1.1,1.1,0.8,1.8l-0.2,0.6C118.4,37.8,117.5,38.2,116.8,37.9z"/>
		</g>
		<g>
			<path class="st3" d="M123.4,40.5l-3.5-1.3c-0.7-0.3-1.1-1.1-0.8-1.8l0.2-0.6c0.3-0.7,1.1-1.1,1.8-0.8l3.5,1.3
				c0.7,0.3,1.1,1.1,0.8,1.8l-0.2,0.6C125,40.4,124.2,40.8,123.4,40.5z"/>
		</g>
		<g>
			<path class="st3" d="M105.4,29.5l-3.3-1.3c-0.7-0.3-1-1-0.8-1.7l0.2-0.6c0.3-0.7,1-1,1.7-0.8l3.3,1.3c0.7,0.3,1,1,0.8,1.7
				l-0.2,0.6C106.8,29.5,106.1,29.8,105.4,29.5z"/>
		</g>
		<g>
			<path class="st3" d="M111.6,32l-3.3-1.3c-0.7-0.3-1-1-0.8-1.7l0.2-0.6c0.3-0.7,1-1,1.7-0.8l3.3,1.3c0.7,0.3,1,1,0.8,1.7l-0.2,0.6
				C113.1,31.9,112.3,32.2,111.6,32z"/>
		</g>
		<g>
			<path class="st3" d="M117.9,34.4l-3.3-1.3c-0.7-0.3-1-1-0.8-1.7l0.2-0.6c0.3-0.7,1-1,1.7-0.8l3.3,1.3c0.7,0.3,1,1,0.8,1.7
				l-0.2,0.6C119.3,34.3,118.5,34.6,117.9,34.4z"/>
		</g>
		<g>
			<path class="st3" d="M124.1,36.8l-3.3-1.3c-0.7-0.3-1-1-0.8-1.7l0.2-0.6c0.3-0.7,1-1,1.7-0.8l3.3,1.3c0.7,0.3,1,1,0.8,1.7
				l-0.2,0.6C125.6,36.7,124.8,37,124.1,36.8z"/>
		</g>
		<g>
			<path class="st3" d="M106.8,26.3l-3.1-1.2c-0.7-0.3-1-1-0.7-1.6l0.2-0.6c0.3-0.7,1-1,1.6-0.7l3.1,1.2c0.7,0.3,1,1,0.7,1.6
				l-0.2,0.6C108.2,26.2,107.4,26.5,106.8,26.3z"/>
		</g>
		<g>
			<path class="st3" d="M112.8,28.6l-3.1-1.2c-0.7-0.3-1-1-0.7-1.6l0.2-0.6c0.3-0.7,1-1,1.6-0.7l3.1,1.2c0.7,0.3,1,1,0.7,1.6
				l-0.2,0.6C114.2,28.5,113.4,28.8,112.8,28.6z"/>
		</g>
		<g>
			<path class="st3" d="M118.7,30.9l-3.1-1.2c-0.7-0.3-1-1-0.7-1.6l0.2-0.6c0.3-0.7,1-1,1.6-0.7l3.1,1.2c0.7,0.3,1,1,0.7,1.6
				l-0.2,0.6C120.1,30.8,119.4,31.1,118.7,30.9z"/>
		</g>
		<g>
			<path class="st3" d="M124.7,33.2l-3.1-1.2c-0.7-0.3-1-1-0.7-1.6l0.2-0.6c0.3-0.7,1-1,1.6-0.7l3.1,1.2c0.7,0.3,1,1,0.7,1.6
				l-0.2,0.6C126.1,33.1,125.4,33.4,124.7,33.2z"/>
		</g>
		<g>
			<path class="st3" d="M108.4,23.2l-3-1.1c-0.6-0.2-0.9-0.9-0.7-1.6L105,20c0.2-0.6,0.9-0.9,1.6-0.7l3,1.1c0.6,0.2,0.9,0.9,0.7,1.6
				l-0.2,0.5C109.7,23.2,109,23.5,108.4,23.2z"/>
		</g>
		<g>
			<path class="st3" d="M114,25.4l-3-1.1c-0.6-0.2-0.9-0.9-0.7-1.6l0.2-0.5c0.2-0.6,0.9-0.9,1.6-0.7l3,1.1c0.6,0.2,0.9,0.9,0.7,1.6
				l-0.2,0.5C115.4,25.4,114.7,25.7,114,25.4z"/>
		</g>
		<g>
			<path class="st3" d="M119.7,27.6l-3-1.1c-0.6-0.2-0.9-0.9-0.7-1.6l0.2-0.5c0.2-0.6,0.9-0.9,1.6-0.7l3,1.1
				c0.6,0.2,0.9,0.9,0.7,1.6l-0.2,0.5C121,27.5,120.3,27.8,119.7,27.6z"/>
		</g>
		<g>
			<path class="st3" d="M125.3,29.8l-3-1.1c-0.6-0.2-0.9-0.9-0.7-1.6l0.2-0.5c0.2-0.6,0.9-0.9,1.6-0.7l3,1.1
				c0.6,0.2,0.9,0.9,0.7,1.6l-0.2,0.5C126.6,29.7,125.9,30,125.3,29.8z"/>
		</g>
		<g>
			<path class="st3" d="M110.1,20.5l-2.8-1.1c-0.6-0.2-0.9-0.9-0.6-1.4l0.2-0.5c0.2-0.6,0.9-0.9,1.4-0.6l2.8,1.1
				c0.6,0.2,0.9,0.9,0.6,1.4l-0.2,0.5C111.3,20.4,110.7,20.7,110.1,20.5z"/>
		</g>
		<g>
			<path class="st3" d="M115.4,22.5l-2.8-1.1c-0.6-0.2-0.9-0.9-0.6-1.4l0.2-0.5c0.2-0.6,0.9-0.9,1.4-0.6l2.8,1.1
				c0.6,0.2,0.9,0.9,0.6,1.4l-0.2,0.5C116.6,22.5,115.9,22.8,115.4,22.5z"/>
		</g>
		<g>
			<path class="st3" d="M120.6,24.6l-2.8-1.1c-0.6-0.2-0.9-0.9-0.6-1.4l0.2-0.5c0.2-0.6,0.9-0.9,1.4-0.6l2.8,1.1
				c0.6,0.2,0.9,0.9,0.6,1.4l-0.2,0.5C121.8,24.5,121.2,24.8,120.6,24.6z"/>
		</g>
		<g>
			<path class="st3" d="M125.9,26.6l-2.8-1.1c-0.6-0.2-0.9-0.9-0.6-1.4l0.2-0.5c0.2-0.6,0.9-0.9,1.4-0.6l2.8,1.1
				c0.6,0.2,0.9,0.9,0.6,1.4l-0.2,0.5C127.1,26.5,126.4,26.8,125.9,26.6z"/>
		</g>
		<g>
			<path class="st3" d="M111.6,17.9l-2.5-1c-0.5-0.2-0.8-0.8-0.6-1.3l0.2-0.5c0.2-0.5,0.8-0.8,1.3-0.6l2.5,1
				c0.5,0.2,0.8,0.8,0.6,1.3l-0.2,0.5C112.7,17.9,112.1,18.1,111.6,17.9z"/>
		</g>
		<g>
			<path class="st3" d="M116.5,19.8l-2.5-1c-0.5-0.2-0.8-0.8-0.6-1.3l0.2-0.5c0.2-0.5,0.8-0.8,1.3-0.6l2.5,1
				c0.5,0.2,0.8,0.8,0.6,1.3l-0.2,0.5C117.6,19.8,117,20,116.5,19.8z"/>
		</g>
		<g>
			<path class="st3" d="M121.3,21.7l-2.5-1c-0.5-0.2-0.8-0.8-0.6-1.3l0.2-0.5c0.2-0.5,0.8-0.8,1.3-0.6l2.5,1
				c0.5,0.2,0.8,0.8,0.6,1.3l-0.2,0.5C122.4,21.6,121.8,21.9,121.3,21.7z"/>
		</g>
		<g>
			<path class="st3" d="M126.2,23.6l-2.5-1c-0.5-0.2-0.8-0.8-0.6-1.3l0.2-0.5c0.2-0.5,0.8-0.8,1.3-0.6l2.5,1
				c0.5,0.2,0.8,0.8,0.6,1.3l-0.2,0.5C127.3,23.5,126.7,23.8,126.2,23.6z"/>
		</g>
		<g>
			<path class="st3" d="M113.1,15.6l-2.3-0.9c-0.5-0.2-0.7-0.7-0.5-1.2l0.2-0.4c0.2-0.5,0.7-0.7,1.2-0.5l2.3,0.9
				c0.5,0.2,0.7,0.7,0.5,1.2l-0.2,0.4C114.1,15.5,113.6,15.8,113.1,15.6z"/>
		</g>
		<g>
			<path class="st3" d="M117.5,17.3l-2.3-0.9c-0.5-0.2-0.7-0.7-0.5-1.2l0.2-0.4c0.2-0.5,0.7-0.7,1.2-0.5l2.3,0.9
				c0.5,0.2,0.7,0.7,0.5,1.2l-0.2,0.4C118.5,17.2,118,17.5,117.5,17.3z"/>
		</g>
		<g>
			<path class="st3" d="M121.9,19l-2.3-0.9c-0.5-0.2-0.7-0.7-0.5-1.2l0.2-0.4c0.2-0.5,0.7-0.7,1.2-0.5l2.3,0.9
				c0.5,0.2,0.7,0.7,0.5,1.2l-0.2,0.4C122.9,18.9,122.4,19.2,121.9,19z"/>
		</g>
		<g>
			<path class="st3" d="M126.3,20.7l-2.3-0.9c-0.5-0.2-0.7-0.7-0.5-1.2l0.2-0.4c0.2-0.5,0.7-0.7,1.2-0.5l2.3,0.9
				c0.5,0.2,0.7,0.7,0.5,1.2l-0.2,0.4C127.3,20.6,126.8,20.9,126.3,20.7z"/>
		</g>
		<g>
			<path class="st3" d="M114.6,13.5l-2.1-0.8c-0.4-0.2-0.6-0.7-0.5-1.1l0.1-0.4c0.2-0.4,0.7-0.6,1.1-0.5l2.1,0.8
				c0.4,0.2,0.6,0.7,0.5,1.1l-0.1,0.4C115.6,13.4,115.1,13.6,114.6,13.5z"/>
		</g>
		<g>
			<path class="st3" d="M118.6,15l-2.1-0.8c-0.4-0.2-0.6-0.7-0.5-1.1l0.1-0.4c0.2-0.4,0.7-0.6,1.1-0.5l2.1,0.8
				c0.4,0.2,0.6,0.7,0.5,1.1l-0.1,0.4C119.5,14.9,119,15.2,118.6,15z"/>
		</g>
		<g>
			<path class="st3" d="M122.5,16.5l-2.1-0.8c-0.4-0.2-0.6-0.7-0.5-1.1l0.1-0.4c0.2-0.4,0.7-0.6,1.1-0.5l2.1,0.8
				c0.4,0.2,0.6,0.7,0.5,1.1l-0.1,0.4C123.4,16.4,122.9,16.7,122.5,16.5z"/>
		</g>
		<g>
			<path class="st3" d="M126.4,18l-2.1-0.8c-0.4-0.2-0.6-0.7-0.5-1.1l0.1-0.4c0.2-0.4,0.7-0.6,1.1-0.5l2.1,0.8
				c0.4,0.2,0.6,0.7,0.5,1.1l-0.1,0.4C127.4,18,126.9,18.2,126.4,18z"/>
		</g>
		<g>
			<path class="st3" d="M116.5,11.8l-1.7-0.6c-0.3-0.1-0.5-0.5-0.4-0.9l0.1-0.3c0.1-0.3,0.5-0.5,0.9-0.4l1.7,0.6
				c0.3,0.1,0.5,0.5,0.4,0.9l-0.1,0.3C117.3,11.8,116.9,11.9,116.5,11.8z"/>
		</g>
		<g>
			<path class="st3" d="M119.7,13l-1.7-0.6c-0.3-0.1-0.5-0.5-0.4-0.9l0.1-0.3c0.1-0.3,0.5-0.5,0.9-0.4l1.7,0.6
				c0.3,0.1,0.5,0.5,0.4,0.9l-0.1,0.3C120.4,13,120.1,13.2,119.7,13z"/>
		</g>
		<g>
			<path class="st3" d="M122.8,14.2l-1.7-0.6c-0.3-0.1-0.5-0.5-0.4-0.9l0.1-0.3c0.1-0.3,0.5-0.5,0.9-0.4l1.7,0.6
				c0.3,0.1,0.5,0.5,0.4,0.9l-0.1,0.3C123.6,14.2,123.2,14.4,122.8,14.2z"/>
		</g>
		<g>
			<path class="st3" d="M126,15.5l-1.7-0.6c-0.3-0.1-0.5-0.5-0.4-0.9l0.1-0.3c0.1-0.3,0.5-0.5,0.9-0.4l1.7,0.6
				c0.3,0.1,0.5,0.5,0.4,0.9l-0.1,0.3C126.7,15.4,126.4,15.6,126,15.5z"/>
		</g>
		<g>
			<path class="st3" d="M117.8,10.4l-1.4-0.5c-0.3-0.1-0.4-0.4-0.3-0.7l0.1-0.3c0.1-0.3,0.4-0.4,0.7-0.3l1.4,0.5
				c0.3,0.1,0.4,0.4,0.3,0.7l-0.1,0.3C118.4,10.3,118.1,10.5,117.8,10.4z"/>
		</g>
		<g>
			<path class="st3" d="M120.4,11.4l-1.4-0.5c-0.3-0.1-0.4-0.4-0.3-0.7l0.1-0.3c0.1-0.3,0.4-0.4,0.7-0.3l1.4,0.5
				c0.3,0.1,0.4,0.4,0.3,0.7l-0.1,0.3C121,11.3,120.7,11.5,120.4,11.4z"/>
		</g>
		<g>
			<path class="st3" d="M123,12.4l-1.4-0.5c-0.3-0.1-0.4-0.4-0.3-0.7l0.1-0.3c0.1-0.3,0.4-0.4,0.7-0.3l1.4,0.5
				c0.3,0.1,0.4,0.4,0.3,0.7l-0.1,0.3C123.6,12.4,123.3,12.5,123,12.4z"/>
		</g>
		<g>
			<path class="st3" d="M125.6,13.4l-1.4-0.5c-0.3-0.1-0.4-0.4-0.3-0.7l0.1-0.3c0.1-0.3,0.4-0.4,0.7-0.3l1.4,0.5
				c0.3,0.1,0.4,0.4,0.3,0.7l-0.1,0.3C126.2,13.4,125.9,13.5,125.6,13.4z"/>
		</g>
		<g>
			<path class="st3" d="M119.2,9.3l-1-0.4c-0.2-0.1-0.3-0.3-0.2-0.5l0.1-0.2c0.1-0.2,0.3-0.3,0.5-0.2l1,0.4c0.2,0.1,0.3,0.3,0.2,0.5
				l-0.1,0.2C119.6,9.3,119.4,9.4,119.2,9.3z"/>
		</g>
		<g>
			<path class="st3" d="M121,10l-1-0.4c-0.2-0.1-0.3-0.3-0.2-0.5l0.1-0.2c0.1-0.2,0.3-0.3,0.5-0.2l1,0.4c0.2,0.1,0.3,0.3,0.2,0.5
				l-0.1,0.2C121.4,10,121.2,10.1,121,10z"/>
		</g>
		<g>
			<path class="st3" d="M122.9,10.7l-1-0.4c-0.2-0.1-0.3-0.3-0.2-0.5l0.1-0.2c0.1-0.2,0.3-0.3,0.5-0.2l1,0.4
				c0.2,0.1,0.3,0.3,0.2,0.5l-0.1,0.2C123.3,10.7,123.1,10.8,122.9,10.7z"/>
		</g>
		<g>
			<path class="st3" d="M124.7,11.4l-1-0.4c-0.2-0.1-0.3-0.3-0.2-0.5l0.1-0.2c0.1-0.2,0.3-0.3,0.5-0.2l1,0.4
				c0.2,0.1,0.3,0.3,0.2,0.5l-0.1,0.2C125.1,11.4,124.9,11.5,124.7,11.4z"/>
		</g>
		<g>
			<path class="st3" d="M121.5,9l-1-0.4c-0.2-0.1-0.3-0.3-0.2-0.5l0.1-0.2c0.1-0.2,0.3-0.3,0.5-0.2l1,0.4c0.2,0.1,0.3,0.3,0.2,0.5
				L122,8.8C121.9,9,121.7,9.1,121.5,9z"/>
		</g>
		<g>
			<path class="st3" d="M123.3,9.7l-1-0.4c-0.2-0.1-0.3-0.3-0.2-0.5l0.1-0.2c0.1-0.2,0.3-0.3,0.5-0.2l1,0.4c0.2,0.1,0.3,0.3,0.2,0.5
				l-0.1,0.2C123.8,9.7,123.5,9.8,123.3,9.7z"/>
		</g>
		<g>
			<path class="st3" d="M95.5,51.5l-3.8-1.5c-0.8-0.3-1.7,0.1-1.9,0.9l-0.3,0.7c-0.3,0.8,0.1,1.7,0.9,1.9l3.8,1.5
				c0.8,0.3,1.7-0.1,1.9-0.9l0.3-0.7C96.6,52.7,96.2,51.8,95.5,51.5z"/>
		</g>
		<g>
			<path class="st3" d="M102.6,54.3l-3.8-1.5c-0.8-0.3-1.7,0.1-1.9,0.9l-0.3,0.7c-0.3,0.8,0.1,1.7,0.9,1.9l3.8,1.5
				c0.8,0.3,1.7-0.1,1.9-0.9l0.3-0.7C103.8,55.5,103.4,54.6,102.6,54.3z"/>
		</g>
		<g>
			<path class="st3" d="M109.7,57.1l-3.8-1.5c-0.8-0.3-1.7,0.1-1.9,0.9l-0.3,0.7c-0.3,0.8,0.1,1.7,0.9,1.9l3.8,1.5
				c0.8,0.3,1.7-0.1,1.9-0.9l0.3-0.7C110.9,58.2,110.5,57.4,109.7,57.1z"/>
		</g>
		<g>
			<path class="st3" d="M116.9,59.8l-3.8-1.5c-0.8-0.3-1.7,0.1-1.9,0.9l-0.3,0.7c-0.3,0.8,0.1,1.7,0.9,1.9l3.8,1.5
				c0.8,0.3,1.7-0.1,1.9-0.9l0.3-0.7C118.1,61,117.7,60.1,116.9,59.8z"/>
		</g>
		<g>
			<path class="st3" d="M97,47.8l-3.8-1.5c-0.8-0.3-1.7,0.1-1.9,0.9L91,47.9c-0.3,0.8,0.1,1.7,0.9,1.9l3.8,1.5
				c0.8,0.3,1.7-0.1,1.9-0.9l0.3-0.7C98.2,49,97.8,48.1,97,47.8z"/>
		</g>
		<g>
			<path class="st3" d="M104.2,50.5l-3.8-1.5c-0.8-0.3-1.7,0.1-1.9,0.9l-0.3,0.7c-0.3,0.8,0.1,1.7,0.9,1.9l3.8,1.5
				c0.8,0.3,1.7-0.1,1.9-0.9l0.3-0.7C105.3,51.7,104.9,50.8,104.2,50.5z"/>
		</g>
		<g>
			<path class="st3" d="M111.3,53.3l-3.8-1.5c-0.8-0.3-1.7,0.1-1.9,0.9l-0.3,0.7c-0.3,0.8,0.1,1.7,0.9,1.9l3.8,1.5
				c0.8,0.3,1.7-0.1,1.9-0.9l0.3-0.7C112.4,54.5,112,53.6,111.3,53.3z"/>
		</g>
		<g>
			<path class="st3" d="M118.4,56.1l-3.8-1.5c-0.8-0.3-1.7,0.1-1.9,0.9l-0.3,0.7c-0.3,0.8,0.1,1.7,0.9,1.9l3.8,1.5
				c0.8,0.3,1.7-0.1,1.9-0.9l0.3-0.7C119.6,57.2,119.2,56.4,118.4,56.1z"/>
		</g>
		<g>
			<path class="st3" d="M94.1,55.4L90.4,54c-0.8-0.3-1.6,0.1-1.9,0.9l-0.3,0.7c-0.3,0.8,0.1,1.6,0.9,1.9l3.7,1.4
				c0.8,0.3,1.6-0.1,1.9-0.9l0.3-0.7C95.3,56.6,94.9,55.7,94.1,55.4z"/>
		</g>
		<g>
			<path class="st3" d="M101.2,58.2l-3.7-1.4c-0.8-0.3-1.6,0.1-1.9,0.9l-0.3,0.7c-0.3,0.8,0.1,1.6,0.9,1.9l3.7,1.4
				c0.8,0.3,1.6-0.1,1.9-0.9l0.3-0.7C102.4,59.3,102,58.5,101.2,58.2z"/>
		</g>
		<g>
			<path class="st3" d="M108.3,60.9l-3.7-1.4c-0.8-0.3-1.6,0.1-1.9,0.9l-0.3,0.7c-0.3,0.8,0.1,1.6,0.9,1.9l3.7,1.4
				c0.8,0.3,1.6-0.1,1.9-0.9l0.3-0.7C109.4,62,109,61.2,108.3,60.9z"/>
		</g>
		<g>
			<path class="st3" d="M115.4,63.6l-3.7-1.4c-0.8-0.3-1.6,0.1-1.9,0.9l-0.3,0.7c-0.3,0.8,0.1,1.6,0.9,1.9l3.7,1.4
				c0.8,0.3,1.6-0.1,1.9-0.9l0.3-0.7C116.5,64.8,116.1,63.9,115.4,63.6z"/>
		</g>
		<g>
			<path class="st3" d="M92.8,59.1l-3.6-1.4c-0.8-0.3-1.6,0.1-1.9,0.8l-0.3,0.7c-0.3,0.8,0.1,1.6,0.8,1.9l3.6,1.4
				c0.8,0.3,1.6-0.1,1.9-0.8l0.3-0.7C94,60.3,93.6,59.4,92.8,59.1z"/>
		</g>
		<g>
			<path class="st3" d="M99.7,61.8l-3.6-1.4c-0.8-0.3-1.6,0.1-1.9,0.8L94,61.9c-0.3,0.8,0.1,1.6,0.8,1.9l3.6,1.4
				c0.8,0.3,1.6-0.1,1.9-0.8l0.3-0.7C100.9,63,100.5,62.1,99.7,61.8z"/>
		</g>
		<g>
			<path class="st3" d="M106.6,64.5l-3.6-1.4c-0.8-0.3-1.6,0.1-1.9,0.8l-0.3,0.7c-0.3,0.8,0.1,1.6,0.8,1.9l3.6,1.4
				c0.8,0.3,1.6-0.1,1.9-0.8l0.3-0.7C107.7,65.6,107.4,64.8,106.6,64.5z"/>
		</g>
		<g>
			<path class="st3" d="M113.5,67.1l-3.6-1.4c-0.8-0.3-1.6,0.1-1.9,0.8l-0.3,0.7c-0.3,0.8,0.1,1.6,0.8,1.9l3.6,1.4
				c0.8,0.3,1.6-0.1,1.9-0.8l0.3-0.7C114.6,68.3,114.3,67.4,113.5,67.1z"/>
		</g>
		<g>
			<path class="st3" d="M91.8,62.9l-3.5-1.3c-0.7-0.3-1.5,0.1-1.8,0.8L86.2,63c-0.3,0.7,0.1,1.5,0.8,1.8l3.5,1.3
				c0.7,0.3,1.5-0.1,1.8-0.8l0.2-0.6C92.8,64,92.5,63.2,91.8,62.9z"/>
		</g>
		<g>
			<path class="st3" d="M98.4,65.4l-3.5-1.3c-0.7-0.3-1.5,0.1-1.8,0.8l-0.2,0.6c-0.3,0.7,0.1,1.5,0.8,1.8l3.5,1.3
				c0.7,0.3,1.5-0.1,1.8-0.8l0.2-0.6C99.5,66.5,99.1,65.7,98.4,65.4z"/>
		</g>
		<g>
			<path class="st3" d="M104.9,68l-3.5-1.3c-0.7-0.3-1.5,0.1-1.8,0.8l-0.2,0.6c-0.3,0.7,0.1,1.5,0.8,1.8l3.5,1.3
				c0.7,0.3,1.5-0.1,1.8-0.8l0.2-0.6C106,69.1,105.7,68.3,104.9,68z"/>
		</g>
		<g>
			<path class="st3" d="M111.6,70.5l-3.5-1.3c-0.7-0.3-1.5,0.1-1.8,0.8l-0.2,0.6c-0.3,0.7,0.1,1.5,0.8,1.8l3.5,1.3
				c0.7,0.3,1.5-0.1,1.8-0.8l0.2-0.6C112.6,71.6,112.3,70.8,111.6,70.5z"/>
		</g>
		<g>
			<path class="st3" d="M90.8,66.5l-3.3-1.3c-0.7-0.3-1.5,0.1-1.7,0.8l-0.2,0.6c-0.3,0.7,0.1,1.5,0.8,1.7l3.3,1.3
				c0.7,0.3,1.5-0.1,1.7-0.8l0.2-0.6C91.8,67.5,91.5,66.8,90.8,66.5z"/>
		</g>
		<g>
			<path class="st3" d="M97.1,68.9l-3.3-1.3c-0.7-0.3-1.5,0.1-1.7,0.8L91.9,69c-0.3,0.7,0.1,1.5,0.8,1.7l3.3,1.3
				c0.7,0.3,1.5-0.1,1.7-0.8l0.2-0.6C98.1,70,97.8,69.2,97.1,68.9z"/>
		</g>
		<g>
			<path class="st3" d="M103.3,71.3l-3.3-1.3c-0.7-0.3-1.5,0.1-1.7,0.8l-0.2,0.6c-0.3,0.7,0.1,1.5,0.8,1.7l3.3,1.3
				c0.7,0.3,1.5-0.1,1.7-0.8l0.2-0.6C104.3,72.4,104,71.6,103.3,71.3z"/>
		</g>
		<g>
			<path class="st3" d="M109.6,73.7l-3.3-1.3c-0.7-0.3-1.5,0.1-1.7,0.8l-0.2,0.6c-0.3,0.7,0.1,1.5,0.8,1.7l3.3,1.3
				c0.7,0.3,1.5-0.1,1.7-0.8l0.2-0.6C110.6,74.8,110.3,74,109.6,73.7z"/>
		</g>
		<g>
			<path class="st3" d="M89.7,69.9l-3.1-1.2c-0.7-0.3-1.4,0.1-1.6,0.7L84.7,70c-0.3,0.7,0.1,1.4,0.7,1.6l3.1,1.2
				c0.7,0.3,1.4-0.1,1.6-0.7l0.2-0.6C90.7,70.9,90.3,70.1,89.7,69.9z"/>
		</g>
		<g>
			<path class="st3" d="M95.7,72.2L92.5,71c-0.7-0.3-1.4,0.1-1.6,0.7l-0.2,0.6c-0.3,0.7,0.1,1.4,0.7,1.6l3.1,1.2
				c0.7,0.3,1.4-0.1,1.6-0.7l0.2-0.6C96.7,73.2,96.3,72.4,95.7,72.2z"/>
		</g>
		<g>
			<path class="st3" d="M101.6,74.5l-3.1-1.2c-0.7-0.3-1.4,0.1-1.6,0.7l-0.2,0.6c-0.3,0.7,0.1,1.4,0.7,1.6l3.1,1.2
				c0.7,0.3,1.4-0.1,1.6-0.7l0.2-0.6C102.6,75.5,102.3,74.7,101.6,74.5z"/>
		</g>
		<g>
			<path class="st3" d="M107.6,76.8l-3.1-1.2c-0.7-0.3-1.4,0.1-1.6,0.7l-0.2,0.6c-0.3,0.7,0.1,1.4,0.7,1.6l3.1,1.2
				c0.7,0.3,1.4-0.1,1.6-0.7l0.2-0.6C108.6,77.8,108.3,77,107.6,76.8z"/>
		</g>
		<g>
			<path class="st3" d="M88.8,73.2l-3-1.1c-0.6-0.2-1.3,0.1-1.6,0.7l-0.2,0.5c-0.2,0.6,0.1,1.3,0.7,1.6l3,1.1
				c0.6,0.2,1.3-0.1,1.6-0.7l0.2-0.5C89.8,74.1,89.4,73.4,88.8,73.2z"/>
		</g>
		<g>
			<path class="st3" d="M94.5,75.4l-3-1.1c-0.6-0.2-1.3,0.1-1.6,0.7l-0.2,0.5c-0.2,0.6,0.1,1.3,0.7,1.6l3,1.1
				c0.6,0.2,1.3-0.1,1.6-0.7l0.2-0.5C95.4,76.3,95.1,75.6,94.5,75.4z"/>
		</g>
		<g>
			<path class="st3" d="M100.1,77.5l-3-1.1c-0.6-0.2-1.3,0.1-1.6,0.7l-0.2,0.5c-0.2,0.6,0.1,1.3,0.7,1.6l3,1.1
				c0.6,0.2,1.3-0.1,1.6-0.7l0.2-0.5C101,78.5,100.7,77.8,100.1,77.5z"/>
		</g>
		<g>
			<path class="st3" d="M105.8,79.7l-3-1.1c-0.6-0.2-1.3,0.1-1.6,0.7l-0.2,0.5c-0.2,0.6,0.1,1.3,0.7,1.6l3,1.1
				c0.6,0.2,1.3-0.1,1.6-0.7l0.2-0.5C106.7,80.7,106.4,80,105.8,79.7z"/>
		</g>
		<g>
			<path class="st3" d="M88.2,76.4l-2.8-1.1c-0.6-0.2-1.2,0.1-1.4,0.6l-0.2,0.5c-0.2,0.6,0.1,1.2,0.6,1.4l2.8,1.1
				c0.6,0.2,1.2-0.1,1.4-0.6l0.2-0.5C89.1,77.2,88.8,76.6,88.2,76.4z"/>
		</g>
		<g>
			<path class="st3" d="M93.5,78.4l-2.8-1.1c-0.6-0.2-1.2,0.1-1.4,0.6l-0.2,0.5c-0.2,0.6,0.1,1.2,0.6,1.4l2.8,1.1
				c0.6,0.2,1.2-0.1,1.4-0.6l0.2-0.5C94.4,79.3,94.1,78.6,93.5,78.4z"/>
		</g>
		<g>
			<path class="st3" d="M98.8,80.4L96,79.3c-0.6-0.2-1.2,0.1-1.4,0.6l-0.2,0.5c-0.2,0.6,0.1,1.2,0.6,1.4l2.8,1.1
				c0.6,0.2,1.2-0.1,1.4-0.6l0.2-0.5C99.6,81.3,99.3,80.6,98.8,80.4z"/>
		</g>
		<g>
			<path class="st3" d="M104,82.4l-2.8-1.1c-0.6-0.2-1.2,0.1-1.4,0.6l-0.2,0.5c-0.2,0.6,0.1,1.2,0.6,1.4L103,85
				c0.6,0.2,1.2-0.1,1.4-0.6l0.2-0.5C104.9,83.3,104.6,82.7,104,82.4z"/>
		</g>
		<g>
			<path class="st3" d="M87.6,79.3l-2.5-1c-0.5-0.2-1.1,0.1-1.3,0.6l-0.2,0.5c-0.2,0.5,0.1,1.1,0.6,1.3l2.5,1
				c0.5,0.2,1.1-0.1,1.3-0.6l0.2-0.5C88.4,80.1,88.2,79.5,87.6,79.3z"/>
		</g>
		<g>
			<path class="st3" d="M92.5,81.1l-2.5-1c-0.5-0.2-1.1,0.1-1.3,0.6l-0.2,0.5c-0.2,0.5,0.1,1.1,0.6,1.3l2.5,1
				c0.5,0.2,1.1-0.1,1.3-0.6l0.2-0.5C93.3,81.9,93.1,81.3,92.5,81.1z"/>
		</g>
		<g>
			<path class="st3" d="M97.4,83l-2.5-1c-0.5-0.2-1.1,0.1-1.3,0.6l-0.2,0.5c-0.2,0.5,0.1,1.1,0.6,1.3l2.5,1c0.5,0.2,1.1-0.1,1.3-0.6
				l0.2-0.5C98.2,83.8,97.9,83.2,97.4,83z"/>
		</g>
		<g>
			<path class="st3" d="M102.2,84.9l-2.5-1c-0.5-0.2-1.1,0.1-1.3,0.6L98.2,85c-0.2,0.5,0.1,1.1,0.6,1.3l2.5,1
				c0.5,0.2,1.1-0.1,1.3-0.6l0.2-0.5C103,85.7,102.8,85.1,102.2,84.9z"/>
		</g>
		<g>
			<path class="st3" d="M87.2,82l-2.3-0.9c-0.5-0.2-1,0.1-1.2,0.5l-0.2,0.4c-0.2,0.5,0.1,1,0.5,1.2l2.3,0.9c0.5,0.2,1-0.1,1.2-0.5
				l0.2-0.4C87.9,82.7,87.6,82.2,87.2,82z"/>
		</g>
		<g>
			<path class="st3" d="M91.6,83.7l-2.3-0.9c-0.5-0.2-1,0.1-1.2,0.5l-0.2,0.4c-0.2,0.5,0.1,1,0.5,1.2l2.3,0.9c0.5,0.2,1-0.1,1.2-0.5
				l0.2-0.4C92.3,84.5,92.1,83.9,91.6,83.7z"/>
		</g>
		<g>
			<path class="st3" d="M96,85.4l-2.3-0.9c-0.5-0.2-1,0.1-1.2,0.5l-0.2,0.4c-0.2,0.5,0.1,1,0.5,1.2l2.3,0.9c0.5,0.2,1-0.1,1.2-0.5
				l0.2-0.4C96.7,86.1,96.4,85.6,96,85.4z"/>
		</g>
		<g>
			<path class="st3" d="M100.4,87.1l-2.3-0.9c-0.5-0.2-1,0.1-1.2,0.5l-0.2,0.4c-0.2,0.5,0.1,1,0.5,1.2l2.3,0.9
				c0.5,0.2,1-0.1,1.2-0.5l0.2-0.4C101.1,87.8,100.8,87.3,100.4,87.1z"/>
		</g>
		<g>
			<path class="st3" d="M86.9,84.6l-2.1-0.8c-0.4-0.2-0.9,0-1.1,0.5l-0.1,0.4c-0.2,0.4,0,0.9,0.5,1.1l2.1,0.8c0.4,0.2,0.9,0,1.1-0.5
				l0.1-0.4C87.5,85.3,87.3,84.8,86.9,84.6z"/>
		</g>
		<g>
			<path class="st3" d="M90.8,86.2l-2.1-0.8c-0.4-0.2-0.9,0-1.1,0.5l-0.1,0.4c-0.2,0.4,0,0.9,0.5,1.1l2.1,0.8c0.4,0.2,0.9,0,1.1-0.5
				l0.1-0.4C91.5,86.8,91.3,86.3,90.8,86.2z"/>
		</g>
		<g>
			<path class="st3" d="M94.7,87.7l-2.1-0.8c-0.4-0.2-0.9,0-1.1,0.5l-0.1,0.4c-0.2,0.4,0,0.9,0.5,1.1l2.1,0.8c0.4,0.2,0.9,0,1.1-0.5
				l0.1-0.4C95.4,88.3,95.2,87.8,94.7,87.7z"/>
		</g>
		<g>
			<path class="st3" d="M98.7,89.2l-2.1-0.8c-0.4-0.2-0.9,0-1.1,0.5l-0.1,0.4c-0.2,0.4,0,0.9,0.5,1.1l2.1,0.8c0.4,0.2,0.9,0,1.1-0.5
				l0.1-0.4C99.3,89.8,99.1,89.4,98.7,89.2z"/>
		</g>
		<g>
			<path class="st3" d="M87.2,87.1l-1.7-0.6c-0.3-0.1-0.7,0-0.9,0.4l-0.1,0.3c-0.1,0.3,0,0.7,0.4,0.9l1.7,0.6c0.3,0.1,0.7,0,0.9-0.4
				l0.1-0.3C87.7,87.6,87.5,87.3,87.2,87.1z"/>
		</g>
		<g>
			<path class="st3" d="M90.3,88.3l-1.7-0.6c-0.3-0.1-0.7,0-0.9,0.4l-0.1,0.3c-0.1,0.3,0,0.7,0.4,0.9l1.7,0.6c0.3,0.1,0.7,0,0.9-0.4
				l0.1-0.3C90.9,88.9,90.7,88.5,90.3,88.3z"/>
		</g>
		<g>
			<path class="st3" d="M93.5,89.6l-1.7-0.6c-0.3-0.1-0.7,0-0.9,0.4l-0.1,0.3c-0.1,0.3,0,0.7,0.4,0.9l1.7,0.6c0.3,0.1,0.7,0,0.9-0.4
				l0.1-0.3C94,90.1,93.8,89.7,93.5,89.6z"/>
		</g>
		<g>
			<path class="st3" d="M96.7,90.8L95,90.1c-0.3-0.1-0.7,0-0.9,0.4L94,90.8c-0.1,0.3,0,0.7,0.4,0.9l1.7,0.6c0.3,0.1,0.7,0,0.9-0.4
				l0.1-0.3C97.2,91.3,97,90.9,96.7,90.8z"/>
		</g>
		<g>
			<path class="st3" d="M87.1,89l-1.4-0.5c-0.3-0.1-0.6,0-0.7,0.3L85,89.1c-0.1,0.3,0,0.6,0.3,0.7l1.4,0.5c0.3,0.1,0.6,0,0.7-0.3
				l0.1-0.3C87.6,89.5,87.4,89.1,87.1,89z"/>
		</g>
		<g>
			<path class="st3" d="M89.8,90l-1.4-0.5c-0.3-0.1-0.6,0-0.7,0.3l-0.1,0.3c-0.1,0.3,0,0.6,0.3,0.7l1.4,0.5c0.3,0.1,0.6,0,0.7-0.3
				l0.1-0.3C90.2,90.5,90,90.1,89.8,90z"/>
		</g>
		<g>
			<path class="st3" d="M92.4,91L91,90.5c-0.3-0.1-0.6,0-0.7,0.3l-0.1,0.3c-0.1,0.3,0,0.6,0.3,0.7l1.4,0.5c0.3,0.1,0.6,0,0.7-0.3
				l0.1-0.3C92.8,91.5,92.6,91.2,92.4,91z"/>
		</g>
		<g>
			<path class="st3" d="M95,92.1l-1.4-0.5c-0.3-0.1-0.6,0-0.7,0.3l-0.1,0.3c-0.1,0.3,0,0.6,0.3,0.7l1.4,0.5c0.3,0.1,0.6,0,0.7-0.3
				l0.1-0.3C95.4,92.5,95.3,92.2,95,92.1z"/>
		</g>
		<g>
			<path class="st3" d="M87.4,90.7l-1-0.4c-0.2-0.1-0.4,0-0.5,0.2l-0.1,0.2c-0.1,0.2,0,0.4,0.2,0.5l1,0.4c0.2,0.1,0.4,0,0.5-0.2
				l0.1-0.2C87.7,91,87.6,90.8,87.4,90.7z"/>
		</g>
		<g>
			<path class="st3" d="M89.3,91.5l-1-0.4c-0.2-0.1-0.4,0-0.5,0.2l-0.1,0.2c-0.1,0.2,0,0.4,0.2,0.5l1,0.4c0.2,0.1,0.4,0,0.5-0.2
				l0.1-0.2C89.6,91.8,89.5,91.5,89.3,91.5z"/>
		</g>
		<g>
			<path class="st3" d="M91.1,92.2l-1-0.4c-0.2-0.1-0.4,0-0.5,0.2l-0.1,0.2c-0.1,0.2,0,0.4,0.2,0.5l1,0.4c0.2,0.1,0.4,0,0.5-0.2
				l0.1-0.2C91.4,92.5,91.3,92.2,91.1,92.2z"/>
		</g>
		<g>
			<path class="st3" d="M93,92.9l-1-0.4c-0.2-0.1-0.4,0-0.5,0.2l-0.1,0.2c-0.1,0.2,0,0.4,0.2,0.5l1,0.4c0.2,0.1,0.4,0,0.5-0.2
				l0.1-0.2C93.3,93.2,93.2,93,93,92.9z"/>
		</g>
		<g>
			<path class="st3" d="M88.9,92.5l-1-0.4c-0.2-0.1-0.4,0-0.5,0.2l-0.1,0.2c-0.1,0.2,0,0.4,0.2,0.5l1,0.4c0.2,0.1,0.4,0,0.5-0.2
				l0.1-0.2C89.2,92.9,89.1,92.6,88.9,92.5z"/>
		</g>
		<g>
			<path class="st3" d="M90.8,93.3l-1-0.4c-0.2-0.1-0.4,0-0.5,0.2l-0.1,0.2c-0.1,0.2,0,0.4,0.2,0.5l1,0.4c0.2,0.1,0.4,0,0.5-0.2
				l0.1-0.2C91.1,93.6,91,93.3,90.8,93.3z"/>
		</g>
	</g>
	<g>
		<path class="st4" d="M87.1,92.5c0,0,6.6,0.6,9.8-4.6c3.3-5.2,4.3-14.6,11-18.4c6.7-3.8,6.9-1.6,9.9-1.8c3.1-0.2,3.6-1,4.7-3.6
			c1.1-2.6-0.1,3.1-1.6,4.1c-1.5,1-5.4-0.2-9.9,8.8c-4.4,8.9-3.2,14.8-8.8,17.1C96.7,96.3,87.5,93.7,87.1,92.5z"/>
	</g>
	<g>
		<path class="st1" d="M83.9,70.7c0,0,9.7-15.4,9.9-15.9c0.2-0.6,0.3-8.1,0.3-8.1l-2.2-5.1L86,36.7l-3.4-5.2c0,0-1.4,3.5,2.3,7.9
			c3.8,4.3,4,8.5,0.5,15.8s-6.1,15-6.7,19.1L83.9,70.7z"/>
	</g>
	<g>
		<path class="st4" d="M96.8,94.9c0,0-5.8-2.5-4.7-11.1c1.1-8.6,2.9-15.5,3.6-22.2s2.5-16.2-3.4-21c-5.9-4.8-9.5-7.5-9.8-9.2
			c-0.3-1.7-0.9,5.5,7.2,9.9c8.2,4.4-4.9,15.2-8.9,25.6c-4,10.4-3.9,18,0.7,22C86.2,93,89.9,94.6,96.8,94.9z"/>
	</g>
	<g class="st5">
		<path class="st6" d="M119,12.2c0,0-13.6,4.7-15.4,16.9C101.8,41.4,129.3,6.3,119,12.2z"/>
	</g>
</g>
</svg>
