<?xml version="1.0" encoding="utf-8"?>
<!-- Generator: Adobe Illustrator 21.0.0, SVG Export Plug-In . SVG Version: 6.00 Build 0)  -->
<svg version="1.1" id="Слой_3" xmlns="http://www.w3.org/2000/svg" xmlns:xlink="http://www.w3.org/1999/xlink" x="0px" y="0px"
	 viewBox="0 0 200 109" style="enable-background:new 0 0 200 109;" xml:space="preserve">
<style type="text/css">
	.st0{fill:#6AA643;}
	.st1{fill:#609440;}
	.st2{fill:#79B64C;}
	.st3{fill:#5D9340;}
	.st4{fill:#9ECD68;}
	.st5{fill:#D0E7C2;}
	.st6{fill:#B6D99B;}
</style>
<g>
	<g>
		<path class="st0" d="M165.2,16.7c0.1,3.1-1,6.2-3.3,8.6c-12.7,13.1-26.8,23.3-42.6,32.3c-6.8,3.8-14.1,7.2-21.5,10.1
			c-3.9,1.5-7.9,2.8-11.9,4C81,73,72.2,73.4,69.4,68l-4.9-18.3c8.5-7.4,16.5-13,26.1-18.8c9.4-5.6,19.2-11.1,29-16.1
			c6.2-3.2,12.9-6,19.4-8.7c4.7-1.9,10.3-3.3,15.4-2.3c0.7,0.1,1.3,0.3,2,0.5c1.2,0.4,2.3,1,3.4,1.7c0.1,0.1,0.3,0.2,0.4,0.3
			c0.1,0.1,0.2,0.1,0.3,0.2c0.5,0.4,0.9,0.7,1.3,1.2c0.8,0.9,1.5,1.8,2.1,2.8c0.2,0.3,0.3,0.6,0.4,0.9c0.6,1.3,1,2.7,1.1,4.2
			C165.2,16,165.2,16.4,165.2,16.7z"/>
		<path class="st1" d="M165.2,16.7c0.1,3.1-1,6.2-3.3,8.6c-12.7,13.1-26.8,23.3-42.6,32.3c-6.8,3.8-14.1,7.2-21.5,10.1
			c-0.6-1.2-0.9-2.5-1.1-3.9c-0.1-0.8-0.1-1.5,0-2.1c0-0.5,0.1-0.9,0.3-1.3c1.2-3.4,5.4-3.7,9.3-5.3c3.2-1.2,6.2-2.6,9.3-4
			c2-1,4-2,5.9-3c5.7-3.1,11.2-6.6,16.4-10.5c3.9-3,7.7-6.2,11.1-9.6c2.9-2.9,6.1-6.3,8.4-10c0.6-1,1.2-2.1,1.7-3.2
			c0.8-1.9,1.3-3.9,1.4-5.9c0-0.3,0-0.7,0-1c0-0.3,0-0.6-0.1-0.9c0.5,0.4,0.9,0.7,1.3,1.2c0.8,0.9,1.5,1.8,2.1,2.8
			c0.2,0.3,0.3,0.6,0.4,0.9c0.6,1.3,1,2.7,1.1,4.2C165.2,16,165.2,16.4,165.2,16.7z"/>
		<path class="st2" d="M156.3,4.5c-2.5,1.2-5.1,2.1-7.6,3.2c-3.2,1.5-6.4,3-9.5,4.6c-6.4,3.3-12.7,6.7-19,10.3
			c-6.3,3.6-12.5,7.2-18.8,10.7c-6,3.4-12.1,7.2-18.6,9.5c-0.6,0.2-0.9-0.6-0.4-0.9c3.1-2,6.4-3.6,9.7-5.4c3.1-1.6,6.2-3.3,9.3-5
			c6.3-3.5,12.6-7.1,18.9-10.6c6.3-3.5,12.6-6.9,19.1-10.1c3.1-1.5,6.2-3,9.3-4.3c1.8-0.8,3.7-1.7,5.6-2.5
			C154.9,4.1,155.6,4.3,156.3,4.5z"/>
		<path class="st2" d="M161.6,7.8c-0.4,0.3-0.8,0.6-1.2,0.8c-1.6,1-3.2,1.9-4.9,2.7c-3,1.6-6,3.2-9,4.8c-6.6,3.7-13.1,7.4-19.6,11.2
			c-6.5,3.8-12.9,7.7-19.2,11.7c-6.3,4-12.6,8.3-19.2,11.8c-0.8,0.4-1.4-0.6-0.7-1.2c5.9-4.6,12.4-8.5,18.8-12.5
			c6.4-4,12.8-7.9,19.2-11.7c6.5-3.8,13-7.6,19.7-11.1c3-1.6,6.1-3.2,9.1-4.8c1.9-1,3.8-2.1,5.6-3.2c0.1,0.1,0.2,0.1,0.3,0.2
			C160.7,7,161.2,7.4,161.6,7.8z"/>
		<path class="st2" d="M164,11.5c-1.2,1.5-2.8,2.8-4.1,4c-0.9,0.8-1.7,1.6-2.6,2.3c-1.9,1.6-3.9,3.2-5.9,4.7
			c-6,4.6-12.4,8.7-18.8,12.7c-6.4,4-12.8,8-19.6,11.4c-6.6,3.4-13.5,6.9-20.7,8.7c-0.9,0.2-1.6-1.1-0.7-1.5
			c3.4-1.6,6.8-2.8,10.2-4.3c3.4-1.5,6.7-3,10-4.7c6.6-3.4,12.9-7.1,19.2-11c6.3-3.9,12.4-8,18.5-12.3c2.9-2.1,5.8-4.3,8.6-6.5
			c0.2-0.2,0.4-0.3,0.6-0.5c1.1-0.9,2.3-1.8,3.4-2.7c0.4-0.4,0.9-0.8,1.3-1.2C163.8,11,163.9,11.2,164,11.5z"/>
		<path class="st2" d="M165.2,16.7c-7.3,9.3-17.4,16-27.3,22.5c-13.1,8.7-26.7,16.6-41.3,22.4c-0.2,0.1-0.4,0.2-0.7,0.3
			c-0.5,0.2-1-0.7-0.4-0.9c0.5-0.2,0.9-0.4,1.4-0.6c6.3-2.9,12.5-6,18.6-9.3c0.4-0.2,0.9-0.5,1.3-0.7c6.8-3.8,13.5-7.9,20-12.2
			c0.3-0.2,0.7-0.4,1-0.6c9.7-6.3,19.9-12.8,27.4-21.8C165.2,16,165.2,16.4,165.2,16.7z"/>
	</g>
	<path class="st3" d="M61.8,71.1c-3-2.2-4.9-5.5-3.8-9.6c0.7-2.7,0.8-5.3,2.1-7.8c3.2-5.8,10-10.9,15.7-14.3
		c5.7-3.4,13.5-5.6,19.9-3.1c2.9,1.2,5.1,3.2,6.1,6.2c0.9,2.6,0.6,5.3,0.8,7.9c0.3,5.4-4.1,11.5-7.6,15.2c-7.5,7.8-18,11.4-28.4,7.9
		C64.9,72.9,63.2,72.1,61.8,71.1z"/>
	<path class="st4" d="M99.7,40.7c-0.5-0.7-1.1-1.3-1.8-1.9c-3.2-2.5-7.8-3.3-11.8-2.6c-2.2,0.3-4.1,1.3-6.2,2.2
		c-2.6,1.1-5.3,2.6-7.8,4.1c-5,3-9,7.3-11.4,12.6c-1.2,2.6-2.3,4.6-1.8,7.6c0.4,2.6,1.6,4.6,3.4,6.7c3.4,3.9,10,4.4,15.1,3.9
		c8-0.8,14.6-5.6,19.4-11.8C101.1,56,104.2,47.1,99.7,40.7z"/>
	<path class="st5" d="M98.4,56.9c2.1-3.8,3.1-9.6,1.1-13.7c-4-8.2-13.3-6-20-3.5c-3,1.1-5.7,2.5-8.2,4.4c-4.4,3.4-9.4,8.3-10.8,13.7
		c-0.7,2.7-0.4,5.9,0.7,8.5c1.2,3,3.8,4.2,6.9,4.8c2.8,0.5,6.1,0.1,8.9-0.3c3-0.4,6.1-0.7,8.9-1.9C91.5,66.6,95.5,62.2,98.4,56.9z"
		/>
	<path class="st6" d="M73.6,51.8c-0.1-0.9,0.1,0.4,0,0.2c0.1,0.2,0.2,0.4,0.3,0.6c0.3,0.5,0.6,0.8,1,1.1c1,0.8,2.7,0.7,3.3-0.4
		c0.3-0.6,0.3-1.4-0.1-2c-0.3-0.4-0.4-0.5-0.8-0.8c0.6,0.5-0.2-0.1-0.4-0.3c-0.8-0.4-1.5-0.7-2.4-0.4C73.8,50.1,73.5,51,73.6,51.8
		L73.6,51.8z"/>
	<path class="st6" d="M82,44.2c0.7,2.4,4.4,5,6.7,3.5c0.9-0.6,1.3-1.6,1.1-2.6c-0.4-1.4-1.6-2.1-2.8-2.6c-1.3-0.6-2.2-1-3.6-0.8
		C82.4,41.9,81.8,43.3,82,44.2L82,44.2z"/>
	<path class="st6" d="M90.1,47c-2.5,0.7-2.5,4.7-0.4,5.9c1,0.6,2.4,0.3,3-0.8c0.1-0.2,0.2-0.4,0.3-0.7c0-0.2,0.1-0.4,0.1-0.6
		c-0.1-0.7-0.1-0.8,0-0.4c-0.1-0.7-0.2-1.3-0.5-2C92.1,47.6,91.1,46.7,90.1,47L90.1,47z"/>
	<path class="st6" d="M77.7,48.9c0.9,0.7,1.8,1.2,2.7,1.8c1.1,0.7,1.9,1.5,3.4,1.6c1.6,0.1,2.4-1.8,1.7-3c-0.7-1.3-2.2-1.9-3.5-2.4
		c-1.4-0.5-2.8-0.6-4.1,0C77.3,47.2,77.1,48.4,77.7,48.9L77.7,48.9z"/>
</g>
<g>
	<path class="st0" d="M111.5,70.1c0,0.4,0,0.8-0.1,1.2c-0.2,2.6-0.7,4.8-2.3,6.9c-0.3,0.4-0.7,0.9-1.1,1.3c-0.3,0.3-0.5,0.5-0.8,0.8
		c-1.9,1.6-4.5,2.9-6.8,3.7c-0.4,0.1-0.7,0.2-1.1,0.4c-0.8,0.2-1.6,0.4-2.4,0.6c-10.2,2.5-21.8,2.5-30.8-3.4
		c-4.3-2.8-7.7-7.2-7.8-12.6c0-3.8,0.4-6.6,3.3-9.2c3.3-3,7.1-4.6,11.3-5.4c1.7-0.3,3.5-0.6,5.3-0.7c3.3-0.3,6.7-0.1,10,0.3
		c2,0.3,4,0.6,6,1.1c0,0,0,0,0,0c0.4,0.1,0.9,0.2,1.3,0.3c3.4,0.8,7.2,2.3,10.3,4.4c1.2,0.9,2.3,1.8,3.2,3c1.2,1.5,2.1,3.2,2.3,5.3
		C111.5,68.7,111.5,69.4,111.5,70.1z"/>
	<path class="st2" d="M111.5,70.1c0,0.4,0,0.8-0.1,1.2c-0.2,0-0.4-0.1-0.6-0.1c-1-0.2-2-0.3-2.9-0.5c-1.1-0.2-3.5-0.4-3.4-2
		c0-1.5,3-1,3.8-0.9c0.9,0.1,2.1,0,3.1,0.1C111.5,68.7,111.5,69.4,111.5,70.1z"/>
	<path class="st2" d="M109.1,78.2c-0.3,0.4-0.7,0.9-1.1,1.3c-0.3,0.3-0.5,0.5-0.8,0.8c-0.2,0-0.4-0.1-0.6-0.1
		c-1.5-0.4-3.3-0.6-4.6-1.5c-0.4-0.3-0.4-1,0.1-1.1c1.6-0.3,3.5,0.1,5.1,0.4C107.8,78,108.5,78.1,109.1,78.2z"/>
	<path class="st2" d="M100.4,84c-0.4,0.1-0.7,0.2-1.1,0.4c-0.8,0.2-1.6,0.4-2.4,0.6c-0.8-0.3-1.8-0.8-2-1.7c-0.1-0.2,0-0.5,0.2-0.6
		c1.1-0.6,2.7,0.3,3.8,0.7C99.4,83.6,99.9,83.8,100.4,84z"/>
	<path class="st2" d="M109.1,62.7c-1.2-0.1-2.4-0.4-3.6-0.6c-2-0.3-4-0.2-6-0.6c-0.6-0.1-0.5-0.8-0.1-1.1c1.8-1.3,4.4-0.9,6.5-0.7
		c0,0,0.1,0,0.1,0C107.1,60.6,108.2,61.6,109.1,62.7z"/>
	<path class="st2" d="M94.2,55c-1.1,0.4-2.2,0.3-3.3,0.3c-1.4,0-2.7,0.2-4,0.6c-0.8,0.2-1.3-0.9-0.5-1.3c0.5-0.3,1.1-0.5,1.8-0.7
		C90.2,54.2,92.2,54.5,94.2,55z"/>
	<path class="st3" d="M74.1,54.3c6.2-1.3,11.8-0.3,17.7,1.5c2.5,0.8,5.1,1.6,7.4,3c2.5,1.5,5.5,5.5,6.7,8.2
		c1.7,3.8,0.1,9.9-2.7,12.9c-2.7,2.9-6.9,4.1-10.5,5.2c-7.3,2.3-13.7,2.7-21-0.1c-3.8-1.5-7.7-2.7-10.5-5.7
		c-4.3-4.6-5.5-11.2-1.6-16.5C62.9,57.9,68.5,55.5,74.1,54.3z"/>
	<path class="st4" d="M78.4,54.8c5.5-0.7,12.2,1.4,17.3,3.3c2.8,1.1,4.7,3.2,6.8,5.2c4.2,4,4.3,9.6,1,14.2
		c-3.7,5.2-9.7,6.8-15.7,7.9c-6.1,1.1-13.6-0.3-19.2-2.7c-5.8-2.5-12.3-8.1-10.2-15.1c1.1-3.6,2.8-6.7,6.2-8.6
		C68.7,56.6,73.6,55.5,78.4,54.8z"/>
	<path class="st5" d="M71.3,57.3c5.8-1.9,11.9-1.5,17.7,0.1c2.5,0.7,5.3,1.5,7.6,2.8c3.2,1.9,7.3,6.4,7.7,10.3
		c0.3,3.1-1.4,6.3-3.6,8.4c-2.7,2.6-6.8,4.1-10.6,4.4c-3.9,0.3-7.9,1.5-11.9,0.8c-3.6-0.6-7.5-2-10.8-3.5c-1.7-0.8-3.3-2.3-4.8-3.5
		c-1.2-0.9-3.1-3.3-3.5-4.7c-0.8-2.8,0.4-6.2,1.9-8.6c1.5-2.5,4-3.5,6.5-4.8C68.8,58.3,70.1,57.7,71.3,57.3z"/>
	<path class="st6" d="M88.4,65.2c0.5,1.6,1.4,3.3,2.7,4.4c1.1,1,2.9,0.1,2.5-1.5c-0.5-1.9-2.3-2.6-3.5-3.9
		C89.4,63.5,88.1,64.2,88.4,65.2L88.4,65.2z"/>
	<path class="st6" d="M91.7,72c-2,1.4-4.7,2.9-4.3,5.7c0.2,1.2,1.8,1.7,2.7,1.1c1-0.6,1.5-1.8,2-2.8c0.5-0.9,0.9-1.8,1.2-2.8
		C93.5,72.4,92.6,71.5,91.7,72L91.7,72z"/>
	<path class="st6" d="M82.6,63.9c-0.1,0.7-0.2,1.2-0.1,2c0.1,0.7,0.2,1.3,0.3,1.9c0.2,1.1,1,2.8,2.4,2.4c2.5-0.7-0.4-5.6-1.1-6.8
		C83.7,62.7,82.7,63.2,82.6,63.9L82.6,63.9z"/>
	<path class="st6" d="M77.6,62.2c-1.1,1.6-2.2,4.2-1.2,6c0.6,1.1,2.2,1.1,2.8,0c0.5-0.9,0.5-1.9,0.6-2.9c0.1-0.9,0.1-2-0.2-2.9
		C79.3,61.6,78.2,61.4,77.6,62.2L77.6,62.2z"/>
	<path class="st6" d="M70.2,65.3c0.2,0.2,0.4,0.5,0.6,0.7c0.1,0.1,0.2,0.2,0.4,0.4c0,0,0.4,0.4,0.2,0.2c0.5,0.7,0.8,1.5,1.6,2
		c0.9,0.5,2.1,0.1,2.3-1c0.4-1.4-0.6-2.5-1.7-3.3c-0.8-0.6-1.6-0.9-2.7-0.9C70,63.2,69.5,64.6,70.2,65.3L70.2,65.3z"/>
</g>
<g>
	<path class="st3" d="M73.6,62.7c8.4-1.5,16.3,4.6,17.2,13c0.4,3.9-0.2,8.1-1.7,11.8c-1.8,4.6-4.5,8.7-8.5,11.6
		c-4.3,3.2-12.8,4.2-16.9-0.1c-2.4-2.5-5.4-6.9-5.6-10.5c-0.5-6,0.6-12.6,3.6-17.9C64,66.5,68.7,63.6,73.6,62.7z"/>
	<path class="st4" d="M81.4,64c10.1,4.1,10.5,15.2,7,24.1c-1.7,4.2-4.4,8.4-8.3,10.7c-6.7,3.8-14.6,4.1-18.9-3.3
		c-3.6-6.1-3.2-14.6-0.6-21C63.7,66.2,72.7,60.5,81.4,64z"/>
	<path class="st5" d="M77.6,64.2c1.6,0.2,3.8,0.9,5.1,1.8c3.3,2.4,5.4,6.2,6.2,10.1c1.3,6.7-3,17-8.3,21.3c-1.9,1.6-4.7,2.5-7.1,2.7
		c-3.4,0.3-7.2-1-9.9-3.1c-5.1-4.2-3.4-14-1.6-19.3C64.3,70.6,68.8,62.9,77.6,64.2z"/>
	<g>
		<path class="st0" d="M68.3,77.5c-0.2,0.7-0.4,1.4-0.7,2.1c-1.3,3.4-3.4,6.6-5.6,9.1c0,0-0.1,0.1-0.1,0.1c-0.4,0.4-0.8,0.9-1.3,1.4
			c-1.8,1.8-4,3.7-6.3,5.3c-0.8,0.5-1.6,1-2.3,1.4c-1.3,0.7-2.5,1.2-3.8,1.4c-3.7,0.8-11.5-0.1-14-2.8c-7.9-8.6-3.8-21.4,3-29.3
			c5.9-6.8,17-9,24.9-4.9c0.5,0.3,1,0.6,1.5,0.9c0.3,0.2,0.6,0.4,0.8,0.6c1.8,1.4,3.1,3.1,3.8,4.9c0.3,0.7,0.4,1.3,0.6,2
			C69.4,72.3,69.1,74.9,68.3,77.5z"/>
		<path class="st2" d="M64.5,62.8c-0.8,0.1-1.5,0.2-2.3,0.3c-1.6,0.2-3.1,0.5-4.7,0.1c-0.2-0.1-0.2-0.3-0.1-0.4
			c1.4-0.9,3-1.2,4.6-1.4c0.5,0.3,1,0.6,1.5,0.9C64,62.4,64.3,62.6,64.5,62.8z"/>
		<path class="st2" d="M68.9,69.8c-0.3,0-0.6,0-0.9,0c-1.8,0.1-3.5,0.2-5.2-0.3c-0.2-0.1-0.2-0.3-0.1-0.4c1.7-0.9,3.4-1.1,5.3-1.3
			c0.1,0,0.2,0,0.3,0C68.6,68.4,68.8,69.1,68.9,69.8z"/>
		<path class="st2" d="M68.3,77.5c-0.2,0.7-0.4,1.4-0.7,2.1c-0.6,0-1.2-0.1-1.8-0.1c-1.8,0-4,0.1-5.7-0.4c-0.2-0.1-0.3-0.4-0.1-0.5
			c1.8-0.9,4.3-1,6.2-1C66.9,77.5,67.6,77.5,68.3,77.5z"/>
		<path class="st2" d="M61.9,88.8c-0.4,0.4-0.8,0.9-1.3,1.4c-0.7-0.1-1.3-0.3-2-0.4c-1.3-0.3-2.5-0.5-3.6-1.2
			c-0.2-0.1-0.2-0.4,0.1-0.5C57.2,87.4,59.8,88,61.9,88.8z"/>
		<path class="st2" d="M54.4,95.5c-0.8,0.5-1.6,1-2.3,1.4c-0.2-0.1-0.4-0.1-0.6-0.2c-1-0.3-2.1-0.5-3.1-0.9
			c-0.7-0.2-1.4-0.5-1.7-1.1c-0.1-0.1,0-0.2,0.1-0.3c1.2-0.9,3.9,0.2,5.2,0.5C52.7,95,53.5,95.2,54.4,95.5z"/>
		<path class="st3" d="M55,60.2c3.5,1.1,7,3.3,9,6.5c4.5,7-2,16.8-6.5,22.1c-1.7,2-3.5,4-5.6,5.6c-5.8,4.5-17,4.6-20.5-2.8
			C24.7,77.3,38,54.8,55,60.2z"/>
		<path class="st4" d="M57.8,87.5c-3.4,4.7-7.8,8.9-13.1,9.4c-3.9,0.4-8.4,0-11.4-2.6c-2.7-2.3-4.2-8.4-3.8-11.9
			c0.9-8.2,6-16.9,13.8-20.6c4.7-2.2,10.5-2.1,15,0.5c7.7,4.4,7.9,11.4,3.8,18.6C60.9,82.9,59.5,85.3,57.8,87.5z"/>
		<path class="st5" d="M46.3,61.9c-2.7,0.6-4.9,2.4-7.2,3.9c-2.5,1.6-4.1,3.7-5.3,6.3c-1.2,2.3-2.7,4.6-3.2,7.2
			c-1.2,6.5-0.3,12,5.4,15.8c3.9,2.6,8.6,1.7,12.4-0.8c4.7-3.1,9.1-7.8,11.9-12.7c1.5-2.7,2.5-5.4,2.8-8.4c0.3-2.9-0.3-4.9-2.1-7.2
			C57.1,61.3,51.9,60.7,46.3,61.9z"/>
		<path class="st6" d="M44.8,67.5c0.4,0.6,1,0.9,1.6,1.2c0.6,0.4,1.5,0.8,2.2,1c1.4,0.4,3-1.3,2-2.6c-1.3-1.8-4.1-2.1-5.7-0.7
			C44.7,66.7,44.6,67.2,44.8,67.5L44.8,67.5z"/>
		<path class="st6" d="M52.3,70c-0.1,1.2,0.8,2.2,1.5,3c0.7,0.8,2,2.1,3.1,1.4c1.4-0.8-0.1-2.5-0.7-3.2c-0.7-0.8-1.6-1.7-2.7-2.2
			C52.9,68.8,52.3,69.4,52.3,70L52.3,70z"/>
		<path class="st6" d="M49.2,72.5c-0.4,1,0.2,2.5,0.5,3.5c0.4,1.5,1.1,2.8,2.5,3.4c0.9,0.4,2-0.6,1.9-1.5c-0.1-1.4-0.9-2.7-1.5-3.9
			c-0.5-1.1-1.5-2.4-2.9-2.1C49.5,72,49.3,72.3,49.2,72.5L49.2,72.5z"/>
		<path class="st6" d="M42,72c1.6,0.5,3.2,0,4.8,0.5c2,0.7,3-2.6,0.9-3.3c-2.1-0.6-4.2,0.4-5.9,1.5C41.3,71.1,41.4,71.8,42,72L42,72
			z"/>
		<path class="st6" d="M46.5,74.1c-1.2-0.9-3.6-0.9-4.7,0.1c-0.6,0.6-0.2,1.5,0.5,1.8c0.7,0.3,1.5,0.1,2.2,0c0.7-0.1,1.4-0.2,2-0.7
			C47,75,47,74.5,46.5,74.1L46.5,74.1z"/>
		<path class="st6" d="M47.6,77.4c-0.5,0.4-0.6,1.2-0.7,1.7c0,0.9,0,1.6,0.3,2.4c0.4,0.8,1.6,0.6,1.8-0.2c0.2-0.7,0.1-1.4,0-2.1
			c0-0.6-0.2-1.4-0.7-1.7C48.1,77.1,47.9,77.1,47.6,77.4L47.6,77.4z"/>
		<path class="st6" d="M42.3,77.8c-0.6-0.1-1.2-0.2-1.7-0.5c-0.7-0.3-1.4-0.7-2.2-0.2c-0.6,0.4-0.6,1-0.4,1.5
			c0.3,0.8,1.4,0.9,2.2,0.9c0.8,0,1.6-0.2,2.3-0.6C43,78.7,42.8,77.9,42.3,77.8L42.3,77.8z"/>
		<path class="st6" d="M42.2,80.8c-0.4,0.8-0.2,1.6,0.1,2.5c0.3,0.8,0.7,1.9,1.6,2.3c0.7,0.3,1.3-0.1,1.4-0.8
			c0.1-0.8-0.3-1.5-0.7-2.2c-0.3-0.7-0.5-1.4-1-1.9C43.3,80.2,42.4,80.2,42.2,80.8L42.2,80.8z"/>
		<path class="st6" d="M39.3,82.6c-1,0.8-1.5,2.7-0.3,3.5c0.3,0.2,0.7,0.2,1,0c1.1-0.8,0.6-1.9,0.5-3C40.5,82.4,39.8,82.2,39.3,82.6
			L39.3,82.6z"/>
	</g>
	<path class="st6" d="M73.6,70.4c-1-0.1-2.1,0-3.1,0.2c-0.6,0.1-1,0.7-1,1.3c0,0.8,0.6,1.3,1.3,1.3c1.1,0.1,2.3-0.4,3.3-0.8
		C75.2,71.9,74.6,70.5,73.6,70.4L73.6,70.4z"/>
	<path class="st6" d="M76.5,72.2c0.3,1,1.1,1.6,1.9,2.1c0.9,0.6,1.9,1.1,2.9,1.4c1.5,0.6,2.8-1.7,1.6-2.7c-0.7-0.6-1.6-0.9-2.5-1.3
		c-0.8-0.3-1.6-0.8-2.4-1C77.1,70.6,76.2,71.3,76.5,72.2L76.5,72.2z"/>
	<path class="st6" d="M74.1,74.8c-0.4-0.2-0.7-0.3-1.1-0.5c-0.5-0.2-1.3,0-1.8,0.2c-1.2,0.3-2.1,1.2-2.3,2.4c-0.1,1,1.3,1.8,2.1,1.2
		c0.5-0.4,0.9-0.8,1.4-1.2c0.3-0.2,0.5-0.3,0.8-0.4c0.3-0.1,0.5-0.5,0.8-0.6C74.5,75.8,74.5,75,74.1,74.8L74.1,74.8z"/>
	<path class="st6" d="M75.7,76.7c-0.4,1.2,0.7,2.4,1.6,3.1c0.8,0.6,2.3,1.4,3.3,0.7c0.3-0.2,0.5-0.6,0.4-1c-0.2-0.8-1.2-1.3-1.9-1.7
		c-0.3-0.2-0.7-0.4-0.9-0.7c-0.3-0.3-0.4-0.7-0.8-0.9C76.8,75.7,75.9,75.9,75.7,76.7L75.7,76.7z"/>
	<path class="st6" d="M73.6,78.9c-0.9-0.3-2.3,0.3-3.1,0.7c-0.7,0.3-2,1.1-1.7,2c0.5,1.7,4.5,0.1,5.3-0.7
		C74.8,80.2,74.4,79.2,73.6,78.9L73.6,78.9z"/>
	<path class="st6" d="M75.6,81.5c-0.5,0.7-0.7,1.9-0.2,2.6c0.5,0.7,1.4,0.7,1.9,0c0.5-0.7,0.3-1.9-0.2-2.6
		C76.8,80.9,76,80.9,75.6,81.5L75.6,81.5z"/>
	<path class="st6" d="M72,83.5c-0.9-0.7-2.1-0.5-3.1-0.1c-1.2,0.4-2.4,0.9-2.6,2.3c-0.1,0.7,0.5,1.3,1.1,1.5c1,0.3,1.8-0.4,2.7-0.9
		c0.7-0.4,1.7-0.7,2.1-1.4C72.4,84.4,72.4,83.8,72,83.5L72,83.5z"/>
	<path class="st6" d="M73.9,86.2c-1.4,1.3-0.7,4.3,1.1,4.8c0.7,0.2,1.4-0.3,1.6-0.9c0.3-0.8,0-1.6-0.5-2.3c-0.4-0.7-0.7-1.2-1.3-1.7
		C74.5,85.9,74.1,86,73.9,86.2L73.9,86.2z"/>
	<path class="st6" d="M70.5,89.4c-0.3,0.3-0.5,0.8-0.7,1.3c-0.2,0.6-0.3,1.3,0,1.9c0.4,0.7,1.2,0.6,1.7,0.2c0.5-0.4,0.6-1.1,0.5-1.6
		c0-0.4-0.1-1-0.2-1.4C71.6,89.2,70.9,88.9,70.5,89.4L70.5,89.4z"/>
</g>
</svg>
