<?xml version="1.0" encoding="utf-8"?>
<!-- Generator: Adobe Illustrator 21.0.0, SVG Export Plug-In . SVG Version: 6.00 Build 0)  -->
<svg version="1.1" xmlns="http://www.w3.org/2000/svg" xmlns:xlink="http://www.w3.org/1999/xlink" x="0px" y="0px"
	 viewBox="0 0 200 109" style="enable-background:new 0 0 200 109;" xml:space="preserve">
<style type="text/css">
	.st0{fill:#C02217;}
	.st1{fill:#D73B24;}
	.st2{fill:#C3301C;}
	.st3{fill:#EC7533;}
	.st4{opacity:0.5;fill:#872011;}
</style>
<g id="Слой_3">
</g>
<g id="Слой_2">
	<g>
		<path class="st0" d="M156.7,14.7c0,0.2-0.1,0.5-0.1,0.7c-0.2,1.2-1,1.5-2,0.8c-2-1.5-4.1-2.1-6.5-1.2c-0.8,0.3-1.7,0.7-2.5,1.1
			c-2.3,1-4.6,1.7-7.1,1.2c-0.3-0.1-0.6-0.1-1-0.1c-2.5-0.3-4.6,0.4-6.2,2.4c-1.1,1.4-2.5,2.2-4.1,2.7c-0.5,0.2-1,0.3-1.5,0.5
			c-2,0.8-3.2,2.1-3.5,4.3c-0.1,1.1-0.6,2.1-1.4,2.9c-0.8,0.7-1.5,1.5-2.5,2c-1.5,0.8-2.1,2-2.1,3.6c0,2.5,0.1,5,0.3,7.5
			c0.1,1.3,0,2.5-0.7,3.6c-1.1,1.8-1.1,3.6-0.3,5.5c0.7,1.8,1.4,3.7,2,5.5c0.3,1,0.3,2.2,0.2,3.3c-0.1,1.2-0.4,2.4-0.6,3.6
			c-0.6,4.3,0.4,8.1,3.8,10.9c2.6,2.2,4.3,4.9,5,8.2c0.1,0.4,0.2,0.8,0.3,1.2c0.6,1.5,1.1,3.1,1.9,4.5c1.8,3.1,4.7,4.4,8.2,4.7
			c1.5,0.1,2.7,0.7,3.7,1.8c0.5,0.5,1.1,1.1,1.8,1.2c1.4,0.3,2.9,0.7,4.4,0.6c1.2-0.1,2.1,0.2,2.9,1.1c0.2,0.3,0.6,0.5,0.8,0.8
			c1,1,2.3,1.5,3.7,1.4c1.6-0.2,3.2-0.3,4.7-0.8c5.6-1.8,10.7-4.5,14.4-9.2c1-1.3,2.1-2.4,3.7-3.2c0,0,3.9-3.4,4.4-15.6
			c1.1-13.3,3.9-10.6,0.8-16.9c-4.7-8.6-7.2-10.6-5.3-15.8c-1.4-6.9-4.5-7.8-8.3-11.1s-3.3-10-4.7-11.4S159.3,13.1,156.7,14.7z"/>
		<g>
			
				<ellipse transform="matrix(0.9485 -0.3168 0.3168 0.9485 -10.7524 50.2139)" class="st1" cx="149" cy="58.2" rx="25.9" ry="36.5"/>
			<g>
				<path class="st2" d="M137.9,37.3c0,0-2.5-13.1-8.9,1.1c-1.1,2.2-15.3,34.7,22.5,50.8c2.5-0.8,3.9,0.6,1.9-5.3
					c-1.9-5.8-2.2-9.4-6.1-12.8c-3.6-2.5-12.8-10.6-7.2-21.7C141.2,47.3,140.4,44.8,137.9,37.3z"/>
				
					<ellipse transform="matrix(0.7808 -0.6248 0.6248 0.7808 1.7486 92.4476)" class="st3" cx="132.6" cy="43.7" rx="1.8" ry="2.6"/>
				
					<ellipse transform="matrix(0.2913 -0.9566 0.9566 0.2913 38.0597 165.2369)" class="st3" cx="130.6" cy="56.9" rx="2.2" ry="2.6"/>
				
					<ellipse transform="matrix(0.2913 -0.9566 0.9566 0.2913 27.6035 178.3481)" class="st3" cx="134.2" cy="70.5" rx="2.6" ry="2.2"/>
				
					<ellipse transform="matrix(0.1999 -0.9798 0.9798 0.1999 37.7359 205.3454)" class="st3" cx="144.6" cy="79.6" rx="2.6" ry="1.8"/>
			</g>
			<g>
				<path class="st2" d="M145.7,34.7c0,0-5.8-11.9,7.8-4.5c2.2,1.1,33.1,18.6,12.5,54.2c-2.5,0.8-2.8,2.8-4.7-3.1
					c-1.9-5.8-3.9-8.9-2.8-13.9c1.4-4.2,3.9-16.1-7.2-21.7C149,44.7,148.2,42.2,145.7,34.7z"/>
				
					<ellipse transform="matrix(3.006613e-02 -0.9995 0.9995 3.006613e-02 112.4606 189.2495)" class="st3" cx="153.7" cy="36.7" rx="2.6" ry="1.8"/>
				<ellipse transform="matrix(0.5895 -0.8078 0.8078 0.5895 29.9082 150.812)" class="st3" cx="163.3" cy="46" rx="2.6" ry="2.2"/>
				
					<ellipse transform="matrix(0.5895 -0.8078 0.8078 0.5895 21.5326 160.4425)" class="st3" cx="168.6" cy="59" rx="2.2" ry="2.6"/>
				<ellipse transform="matrix(0.663 -0.7486 0.7486 0.663 1.5615 148.4957)" class="st3" cx="165.7" cy="72.5" rx="1.8" ry="2.6"/>
			</g>
		</g>
	</g>
	<path class="st4" d="M131,19c0,0,12-3.4,14.5,8.8S143,41,145,48s7,17,4,21s-13,32-23,21S142,54,131,19z"/>
	<g>
		<path class="st0" d="M130.4,10.3c-0.1,0.2-0.2,0.5-0.4,0.7c-0.7,1.2-1.7,1.2-2.4,0.1c-1.6-2.4-3.6-3.8-6.6-3.6
			c-1,0.1-2.1,0.2-3.1,0.3c-2.8,0.3-5.5,0.2-8-1.3c-0.3-0.2-0.7-0.3-1-0.4c-2.6-1.2-5.1-1.3-7.6,0.4c-1.6,1.1-3.5,1.5-5.4,1.4
			c-0.6,0-1.2,0-1.8,0c-2.4,0.1-4.3,1.1-5.3,3.4c-0.5,1.2-1.4,2.1-2.5,2.6c-1.1,0.5-2.2,1.1-3.4,1.2c-1.9,0.3-3,1.5-3.5,3.1
			c-0.9,2.7-1.7,5.5-2.4,8.2c-0.4,1.4-0.9,2.7-2,3.7c-1.8,1.5-2.5,3.4-2.3,5.8c0.2,2.2,0.2,4.5,0.1,6.7c-0.1,1.2-0.5,2.5-0.9,3.6
			c-0.5,1.3-1.3,2.5-1.9,3.7c-2.2,4.4-2.5,8.8,0.2,13.2c2,3.3,2.8,6.8,2.4,10.6c-0.1,0.5-0.1,0.9-0.1,1.4c0.1,1.9,0.1,3.8,0.5,5.6
			c0.8,4,3.5,6.5,7.1,8.1c1.5,0.7,2.6,1.7,3.4,3.3c0.4,0.7,0.8,1.6,1.5,2c1.4,0.9,2.9,1.8,4.5,2.2c1.4,0.4,2.2,0.9,2.7,2.2
			c0.1,0.4,0.4,0.8,0.6,1.1c0.8,1.4,1.9,2.4,3.5,2.8c1.7,0.4,3.5,0.8,5.3,0.9c6.7,0.1,13.1-1,18.9-4.8c1.6-1,3.2-1.9,5.1-2.1
			c0,0,5.4-2.3,10.4-15.3c6-14,8-10,7-18c-2-11-4-14,0-19c1-8-2-10-5-15s0-12-1-14S133.9,9.6,130.4,10.3z"/>
		<g>
			<ellipse class="st1" cx="106.5" cy="54.5" rx="29.5" ry="41.5"/>
			<g>
				<path class="st2" d="M102,28c0,0,2-15-10-2c-2,2-29,32,6,63c3,0,4,2,4-5s1-11-2-16c-3-4-10-16,0-26C102,40,102,37,102,28z"/>
				<ellipse transform="matrix(0.9385 -0.3452 0.3452 0.9385 -5.6133 34.4779)" class="st3" cx="94" cy="33" rx="2" ry="3"/>
				<ellipse transform="matrix(0.5794 -0.8151 0.8151 0.5794 -1.3062 90.469)" class="st3" cx="87" cy="46.5" rx="2.5" ry="3"/>
				<ellipse transform="matrix(0.5794 -0.8151 0.8151 0.5794 -14.7677 96.3838)" class="st3" cx="86" cy="62.5" rx="3" ry="2.5"/>
				<ellipse transform="matrix(0.5 -0.866 0.866 0.5 -18.8179 119.4064)" class="st3" cx="94" cy="76" rx="3" ry="2"/>
			</g>
			<g>
				<path class="st2" d="M111.3,28c0,0-2-15,10-2c2,2,29,32-6,63c-3,0-4,2-4-5s-1-11,2-16c3-4,10-16,0-26
					C111.3,40,111.3,37,111.3,28z"/>
				<ellipse transform="matrix(0.3452 -0.9385 0.9385 0.3452 47.1714 133.6115)" class="st3" cx="119.3" cy="33" rx="3" ry="2"/>
				<ellipse transform="matrix(0.8151 -0.5794 0.5794 0.8151 -3.5757 81.7982)" class="st3" cx="126.3" cy="46.5" rx="3" ry="2.5"/>
				
					<ellipse transform="matrix(0.8151 -0.5794 0.5794 0.8151 -12.6608 85.3366)" class="st3" cx="127.3" cy="62.5" rx="2.5" ry="3"/>
				<ellipse transform="matrix(0.866 -0.5 0.5 0.866 -22.0116 69.8518)" class="st3" cx="119.3" cy="76" rx="2" ry="3"/>
			</g>
		</g>
	</g>
	<path class="st4" d="M84,14c0,0,10.3-6.2,13.7,0.9c3.3,7.1,1.2,13.1,4.2,20.6S109,49,106,55s-1,14,0,18S88,95,84,94S104,60,84,14z"
		/>
	<g>
		<path class="st0" d="M87.4,11.3c-0.1,0.2-0.2,0.5-0.4,0.7c-0.7,1.2-1.7,1.2-2.4,0.1c-1.6-2.4-3.6-3.8-6.6-3.6
			c-1,0.1-2.1,0.2-3.1,0.3C72.2,9,69.5,9,67,7.4c-0.3-0.2-0.7-0.3-1-0.4c-2.6-1.2-5.1-1.3-7.6,0.4c-1.6,1.1-3.5,1.5-5.4,1.4
			c-0.6,0-1.2,0-1.8,0c-2.4,0.1-4.3,1.1-5.3,3.4c-0.5,1.2-1.4,2.1-2.5,2.6c-1.1,0.5-2.2,1.1-3.4,1.2c-1.9,0.3-3,1.5-3.5,3.1
			c-0.9,2.7-1.7,5.5-2.4,8.2c-0.4,1.4-0.9,2.7-2,3.7c-1.8,1.5-2.5,3.4-2.3,5.8c0.2,2.2,0.2,4.5,0.1,6.7c-0.1,1.2-0.5,2.5-0.9,3.6
			c-0.5,1.3-1.3,2.5-1.9,3.7c-2.2,4.4-2.5,8.8,0.2,13.2c2,3.3,2.8,6.8,2.4,10.6c-0.1,0.5-0.1,0.9-0.1,1.4c0.1,1.9,0.1,3.8,0.5,5.6
			c0.8,4,3.5,6.5,7.1,8.1c1.5,0.7,2.6,1.7,3.4,3.3c0.4,0.7,0.8,1.6,1.5,2c1.4,0.9,2.9,1.8,4.5,2.2c1.4,0.4,2.2,0.9,2.7,2.2
			c0.1,0.4,0.4,0.8,0.6,1.1c0.8,1.4,1.9,2.4,3.5,2.8c1.7,0.4,3.5,0.8,5.3,0.9c6.7,0.1,13.1-1,18.9-4.8c1.6-1,3.2-1.9,5.1-2.1
			c0,0,5.4-2.3,10.4-15.3c6-14,8-10,7-18c-2-11-4-14,0-19c1-8-2-10-5-15s0-12-1-14S90.9,10.6,87.4,11.3z"/>
		<g>
			<ellipse class="st1" cx="63.5" cy="55.5" rx="29.5" ry="41.5"/>
			<g>
				<path class="st2" d="M59,29c0,0,2-15-10-2c-2,2-29,32,6,63c3,0,4,2,4-5s1-11-2-16c-3-4-10-16,0-26C59,41,59,38,59,29z"/>
				<ellipse transform="matrix(0.9385 -0.3452 0.3452 0.9385 -8.6019 19.6956)" class="st3" cx="51" cy="34" rx="2" ry="3"/>
				<ellipse transform="matrix(0.5794 -0.8151 0.8151 0.5794 -20.2079 55.8421)" class="st3" cx="44" cy="47.5" rx="2.5" ry="3"/>
				<ellipse transform="matrix(0.5794 -0.8151 0.8151 0.5794 -33.6695 61.757)" class="st3" cx="43" cy="63.5" rx="3" ry="2.5"/>
				<ellipse transform="matrix(0.5 -0.866 0.866 0.5 -41.184 82.6673)" class="st3" cx="51" cy="77" rx="3" ry="2"/>
			</g>
			<g>
				<path class="st2" d="M68.3,29c0,0-2-15,10-2c2,2,29,32-6,63c-3,0-4,2-4-5s-1-11,2-16c3-4,10-16,0-26C68.3,41,68.3,38,68.3,29z"
					/>
				<ellipse transform="matrix(0.3452 -0.9385 0.9385 0.3452 18.0767 93.9096)" class="st3" cx="76.3" cy="34" rx="3" ry="2"/>
				<ellipse transform="matrix(0.8151 -0.5794 0.5794 0.8151 -12.1076 57.0698)" class="st3" cx="83.3" cy="47.5" rx="3" ry="2.5"/>
				<ellipse transform="matrix(0.8151 -0.5794 0.5794 0.8151 -21.1927 60.6083)" class="st3" cx="84.3" cy="63.5" rx="2.5" ry="3"/>
				<ellipse transform="matrix(0.866 -0.5 0.5 0.866 -28.2725 48.4858)" class="st3" cx="76.3" cy="77" rx="2" ry="3"/>
			</g>
		</g>
	</g>
</g>
</svg>
