<?xml version="1.0" encoding="utf-8"?>
<!-- Generator: Adobe Illustrator 21.0.0, SVG Export Plug-In . SVG Version: 6.00 Build 0)  -->
<svg version="1.1" id="Слой_2" xmlns="http://www.w3.org/2000/svg" xmlns:xlink="http://www.w3.org/1999/xlink" x="0px" y="0px"
	 viewBox="0 0 200 109" style="enable-background:new 0 0 200 109;" xml:space="preserve">
<style type="text/css">
	.st0{opacity:0.2;clip-path:url(#SVGID_2_);}
	.st1{fill:#C3938F;}
	.st2{opacity:0.46;}
	.st3{fill:#F9EFED;}
	.st4{opacity:0.56;}
	.st5{clip-path:url(#SVGID_4_);}
	.st6{fill:#C89896;}
	.st7{opacity:0.78;clip-path:url(#SVGID_4_);}
	.st8{opacity:0.54;clip-path:url(#SVGID_4_);}
	.st9{opacity:0.41;clip-path:url(#SVGID_4_);}
	.st10{opacity:0.18;clip-path:url(#SVGID_6_);}
	.st11{fill:#AA3A47;}
	.st12{opacity:0.26;}
	.st13{opacity:0.53;}
	.st14{opacity:0.34;}
	.st15{fill:#F7D5D7;}
	.st16{opacity:0.45;clip-path:url(#SVGID_8_);}
	.st17{fill:#FEF6F6;}
	.st18{opacity:0.22;}
	.st19{clip-path:url(#SVGID_10_);}
	.st20{fill:#D8ACAB;}
	.st21{opacity:0.18;}
	.st22{fill:#FEFEFE;}
</style>
<g>
	<g>
		<g>
			<defs>
				<path id="SVGID_1_" d="M101.5,92.8c-6.1,1.3-12.3,1-18.4-0.3c-10.2-2.1-20.7-5.3-28.3-12.4c-2.2-2.1-4.2-4.5-5.4-7.4
					c-1.2-2.8-1.4-5.9-1.4-9c0-7.5,2.2-15.5,8-20.3c2.4-2.1,5.4-3.4,8.3-4.8c3.3-1.5,6.5-3,10-3.9c2.3-0.6,4.8-0.8,7.1-1.4
					c3.3-0.9,6.6-2.5,8.7-5.3c2.1-2.8,2.8-6.3,2.6-9.8c-0.1-2.5-0.7-5-1.4-7.4C90.8,9.5,91.9,8,93.4,8c1.3,0,2.6,0.1,3.9,0.4
					c0.5,0.1,0.9,0.2,1.3,0.5c0.5,0.4,0.7,1.1,0.8,1.7c0.7,3.7-0.1,7.5-0.4,11.3c-0.3,3.8,0.2,7.9,3,10.5c1.7,1.6,3.9,2.3,6.1,3
					c7.4,2.1,15.5,3.7,21,9.2c5.3,5.3,7,13.4,6.5,21c-0.2,3.3-1,6.6-2.7,9.5C125.9,86.9,118.6,89.1,101.5,92.8z"/>
			</defs>
			<use xlink:href="#SVGID_1_"  style="overflow:visible;fill:#F6DCDB;"/>
			<clipPath id="SVGID_2_">
				<use xlink:href="#SVGID_1_"  style="overflow:visible;"/>
			</clipPath>
			<g class="st0">
				<path class="st1" d="M88.2,5.6c-0.3,1.3-0.9,2.3-1.1,3.6c-0.3,1.2-0.4,2.4-0.6,3.6c-0.5,2.6-0.9,5.1-1.9,7.6
					c-2.1,5.3-48.7,17.7-49.7,23.4c-2.1,12,18.4,41.6,25.8,51.1c6.6,8.4,41,1,51.3,2.9c5.2,1,12.5-11.2,17.8-11
					c6.1,0.2,12.5-5.4,9.3-11.7c-0.7-1.4-2.6-2.5-4.1-2.4c-0.8,0.1-1.6,0.2-2.3,0.3c1.2-0.3-1.1,0.1-1.4,0.1c-1.7,0-3.4-0.2-5-0.3
					c-4.3-0.3-8.4-0.9-12.6-1.8c-7.7-1.8-13.9-5.9-17.9-12.7c-4.4-7.5-5-16.2-2.3-24.4c1.5-4.6,3.6-9,4-13.8c0.2-2.4,0.7-6.5,0-8.9
					c0,0-1.5-6.2-1.9-7.4C94.7,1.5,88.7,2.9,88.2,5.6L88.2,5.6z"/>
			</g>
			<g class="st0">
				<path class="st1" d="M76,14.5c-0.3,1.3-0.9,2.3-1.1,3.6c-0.3,1.2-0.4,2.4-0.6,3.6c-0.5,2.6-0.9,5.1-1.9,7.6
					C70.3,34.6,23.7,47,22.7,52.7c-2.1,12,18.4,41.6,25.8,51.1c6.6,8.4,41,1,51.3,2.9c5.2,1,12.5-11.2,17.8-11
					c6.1,0.2,18.4-3,15.2-9.3c-0.7-1.4-0.9-5-2.5-4.8c-0.8,0.1-9.2,0.2-9.9,0.4c1.2-0.3-1.1,0.1-1.4,0.1c-1.7,0-3.4-0.2-5-0.3
					c-4.3-0.3-8.4-0.9-12.6-1.8c-7.7-1.8-13.9-5.9-17.9-12.7c-4.4-7.5-5-16.2-2.3-24.4c1.5-4.6,9.2-12.4,9.7-17.3
					c0.2-2.4-4.9-3.1-5.7-5.4c0,0-1.5-6.2-1.9-7.4C82.5,10.5,76.6,11.8,76,14.5L76,14.5z"/>
			</g>
			<g class="st0">
				<path class="st1" d="M62.9,19.5c-0.4,1.2-1.2,2.2-1.6,3.4c-0.4,1.1-0.7,2.3-1.1,3.5c-0.8,2.5-1.7,4.9-3,7.2
					C54.4,38.5,6.5,44.2,4.7,49.6C0.9,61.2,16.9,93.4,23,103.9c5.3,9.2,40.5,6.8,50.4,10.1c5,1.7,14-9.3,19.2-8.4
					c6,1.1,18.7-0.4,16.4-7c-0.5-1.5-0.2-5.1-1.8-5.1c-0.8,0-9.1-1.1-9.9-1c1.2-0.1-1.1,0-1.4-0.1c-1.7-0.2-3.3-0.6-4.9-1
					c-4.2-0.9-8.2-2-12.2-3.6c-7.4-2.9-13-7.8-16-15.1c-3.3-8-1.2-17.9,2.8-25.5c4-7.6,9.2-9,14.7-13.6c1.9-1.6-8.7-4.9-9.2-7.3
					c0,0-0.6-6.3-0.8-7.6C69.9,16.4,63.8,16.9,62.9,19.5L62.9,19.5z"/>
			</g>
		</g>
		<g class="st2">
			<path class="st3" d="M92.7,45.6c3,3.8,8.4,3.8,10.2,8.3c4.9,12.7-12.4,13.5-4.9,25.3c1.5,2.4,4.5,7,15.7,3.7
				c4.9-1.4,8.8-5.4,11.4-9.5c4.5-7,4-16.4-0.7-23.2c-4.1-6-10.2-9.5-16.9-12.1c-2.6-1-4.6-1.7-6.9-2.9c-1.2-0.6-2.4-1.4-3.5-2.2
				c-0.7-0.5-1.7-1.7-2.5-2C90.1,30,88.6,40.4,92.7,45.6z"/>
		</g>
		<g>
			<path class="st3" d="M116.6,81.6c7-4.7,10-13.4,9.1-21.6c-0.5-4.4-1.9-8.5-4.3-12.2c-2.5-3.8-7.7-9-12.8-6.9
				c-1.9,0.8-3.8,2.4-3.6,4.8c0.4,4.2,3.4,6.4,6.1,9.2c1.7,1.8,2.7,4,3.5,6.6c1.7,5.6,0.1,11.5-2.1,16.9
				C111.5,80.7,114.7,82.9,116.6,81.6L116.6,81.6z"/>
		</g>
		<g>
			<path class="st3" d="M99.6,37.6C99.6,37.6,99.5,37.6,99.6,37.6c-0.9,1.3-0.3,3.1,1,3.8c1.6,0.9,3.6,0.1,4.1-1.7c0,0,0,0,0-0.1
				c0.3-1.2-0.2-2.5-1.3-3.1c-0.6-0.4-1.4-0.5-2.1-0.3C100.5,36.5,100,36.9,99.6,37.6L99.6,37.6z"/>
		</g>
		<g class="st4">
			<defs>
				<path id="SVGID_3_" class="st4" d="M101.5,92.8c-6.1,1.3-12.3,1-18.4-0.3c-10.2-2.1-20.7-5.3-28.3-12.4
					c-2.2-2.1-4.2-4.5-5.4-7.4c-1.2-2.8-1.4-5.9-1.4-9c0-7.5,2.2-15.5,8-20.3c2.4-2.1,5.4-3.4,8.3-4.8c3.3-1.5,6.5-3,10-3.9
					c2.3-0.6,4.8-0.8,7.1-1.4c3.3-0.9,6.6-2.5,8.7-5.3c2.1-2.8,2.8-6.3,2.6-9.8c-0.1-2.5-0.7-5-1.4-7.4C90.8,9.5,91.9,8,93.4,8
					c1.3,0,2.6,0.1,3.9,0.4c0.5,0.1,0.9,0.2,1.3,0.5c0.5,0.4,0.7,1.1,0.8,1.7c0.7,3.7-0.1,7.5-0.4,11.3c-0.3,3.8,0.2,7.9,3,10.5
					c1.7,1.6,3.9,2.3,6.1,3c7.4,2.1,15.5,3.7,21,9.2c5.3,5.3,7,13.4,6.5,21c-0.2,3.3-1,6.6-2.7,9.5
					C125.9,86.9,118.6,89.1,101.5,92.8z"/>
			</defs>
			<clipPath id="SVGID_4_">
				<use xlink:href="#SVGID_3_"  style="overflow:visible;"/>
			</clipPath>
			<g class="st5">
				<path class="st6" d="M75.3,39.7c-6,1.7-11.3,6.3-15.3,11c-4,4.6-5.9,10.5-6.2,16.5c-0.6,12.4,6.8,25.2,17.6,31.2
					c1.7,1,3-1.4,1.5-2.5c-8.7-6.6-15-16.9-15.4-27.9C57,55.7,66.2,47,75.9,41.1C76.6,40.6,76.2,39.4,75.3,39.7L75.3,39.7z"/>
			</g>
			<g class="st7">
				<path class="st6" d="M88.5,36.3c-3.3,2.8-5.6,7.2-7.5,11c-2.9,5.7-5,11.6-6.2,17.8c-2.6,12.8,1,26.1,9.6,35.8
					c0.9,1,2.7-0.3,1.9-1.5C79.5,88.9,75.6,77.6,77.9,65c1-5.7,3.1-11.1,5.4-16.4c1.6-3.8,3.6-8.2,6.3-11.3
					C90.1,36.6,89.2,35.7,88.5,36.3L88.5,36.3z"/>
			</g>
			<g class="st5">
				<path class="st6" d="M96.3,46.5c-0.1,4.3,0.9,8.5,1,12.9c0.2,4.6-0.6,9.3-1,13.9c-0.4,4.8-1,9.5-1.9,14.2
					c-0.9,4.3-3,8.4-3.3,12.8c-0.1,1.6,2.4,2.4,3.1,0.8c3.9-8.4,5.2-17.7,6.1-26.8c0.5-4.6,0.8-9.3,0.7-13.9c-0.2-5-1.8-9.4-3-14.1
					C97.8,45.3,96.3,45.5,96.3,46.5L96.3,46.5z"/>
			</g>
			<g class="st8">
				<path class="st6" d="M110.9,48.7c5.5,4.7,5.2,14.4,4.5,20.9c-0.5,4.9-2.1,9.7-4.1,14.2c-1.9,4.1-5.1,7.5-6.8,11.6
					c-0.6,1.5,1.4,2.8,2.6,2c4-2.6,6.4-8.1,8.3-12.3c2.2-4.9,3.6-10.2,4.1-15.5c0.6-7.5-0.1-18.3-7.5-22.4
					C111.2,46.7,110.1,48,110.9,48.7L110.9,48.7z"/>
			</g>
			<g class="st9">
				<path class="st6" d="M118.8,44.8c6.2,5.2,12.3,12.9,12.8,21.3c0.5,8.8-5.1,16.1-8.4,23.8c-0.7,1.7,1.4,3.9,2.8,2.2
					c5.8-7.3,10.1-17.4,9.1-26.9c-0.9-9.1-8-16.8-15.3-21.7C119,43,118.1,44.2,118.8,44.8L118.8,44.8z"/>
			</g>
		</g>
		<g>
			<defs>
				<path id="SVGID_5_" d="M101.5,92.8c-6.1,1.3-12.3,1-18.4-0.3c-10.2-2.1-20.7-5.3-28.3-12.4c-2.2-2.1-4.2-4.5-5.4-7.4
					c-1.2-2.8-1.4-5.9-1.4-9c0-7.5,2.2-15.5,8-20.3c2.4-2.1,5.4-3.4,8.3-4.8c3.3-1.5,6.5-3,10-3.9c2.3-0.6,4.8-0.8,7.1-1.4
					c3.3-0.9,6.6-2.5,8.7-5.3c2.1-2.8,2.8-6.3,2.6-9.8c-0.1-2.5-0.7-5-1.4-7.4C90.8,9.5,91.9,8,93.4,8c1.3,0,2.6,0.1,3.9,0.4
					c0.5,0.1,0.9,0.2,1.3,0.5c0.5,0.4,0.7,1.1,0.8,1.7c0.7,3.7-0.1,7.5-0.4,11.3c-0.3,3.8,0.2,7.9,3,10.5c1.7,1.6,3.9,2.3,6.1,3
					c7.4,2.1,15.5,3.7,21,9.2c5.3,5.3,7,13.4,6.5,21c-0.2,3.3-1,6.6-2.7,9.5C125.9,86.9,118.6,89.1,101.5,92.8z"/>
			</defs>
			<clipPath id="SVGID_6_">
				<use xlink:href="#SVGID_5_"  style="overflow:visible;"/>
			</clipPath>
			<g class="st10">
				<g>
					<path class="st11" d="M63.6,53.6c1.3-1.2,2.3-2.6,3.5-3.9c1.7-1.8,3.7-3.2,5.7-4.7c3-2.2,6.1-4.3,8.1-7.6
						c0.1-0.2-0.2-0.5-0.4-0.3c-2.6,3.2-5.6,5.5-8.8,8c-1.5,1.1-2.9,2.3-4.2,3.6c-1.5,1.4-2.5,3.3-4,4.7
						C63.4,53.5,63.5,53.7,63.6,53.6L63.6,53.6z"/>
				</g>
				<g>
					<path class="st11" d="M70.9,48.9c-4.2,2.5-6.8,6.4-8.9,10.7c-1.9,3.9-3.6,8.7-2.3,13c0.1,0.2,0.4,0.1,0.3-0.1
						C58.4,64.2,64.2,53.6,71,49C71,49,71,48.9,70.9,48.9L70.9,48.9z"/>
				</g>
				<g>
					<path class="st11" d="M64.3,44.2c-6.8,5.6-12.5,12.4-12.1,21.7c0,0.2,0.3,0.2,0.3,0C52.6,56.9,57.8,49.9,64.3,44.2
						C64.4,44.2,64.3,44.1,64.3,44.2L64.3,44.2z"/>
				</g>
				<g>
					<path class="st11" d="M53.8,51.9c2-4.3,6.4-7.3,10.5-9.4c5.5-2.8,11.3-4.8,16.5-8.1c0.3-0.2,0-0.6-0.3-0.5
						c-5.8,2.6-11.6,5.4-17.3,8.3c-3.9,2.1-7.9,5.4-9.7,9.5C53.4,51.9,53.7,52.1,53.8,51.9L53.8,51.9z"/>
				</g>
				<g>
					<path class="st11" d="M83.3,38.6c-5.8,4.7-9.8,10.8-13.2,17.4c-1.7,3.2-3.1,6.6-3.8,10.2c-0.8,3.9,0,7.9,0.7,11.8
						c0,0.2,0.5,0.2,0.4-0.1c-0.5-3.5-1.1-7-0.9-10.6c0.3-4.3,2.4-8.2,4.4-11.9c3.2-6.2,7.2-12,12.6-16.5
						C83.8,38.7,83.5,38.4,83.3,38.6L83.3,38.6z"/>
				</g>
				<g>
					<path class="st11" d="M75.5,50.8c-4.4,5.2-6,12-6.9,18.6c-1.1,8.4,1.3,15.9,4.6,23.5c0.1,0.2,0.5,0.1,0.4-0.2
						c-2.7-7.1-5.3-13.9-4.7-21.7C69.6,64.1,71.4,56.7,75.5,50.8C75.6,50.8,75.5,50.8,75.5,50.8L75.5,50.8z"/>
				</g>
				<g>
					<path class="st11" d="M67.2,82.8c1.6,3.2,1.8,6.9,4.3,9.6c0.2,0.2,0.5-0.1,0.3-0.3c-2.3-2.8-2.7-6.4-4.4-9.4
						C67.4,82.6,67.2,82.7,67.2,82.8L67.2,82.8z"/>
				</g>
				<g>
					<path class="st11" d="M80.2,45.1c-3.2,5-5.6,10.6-7.9,16.1c-2.1,5.2-2.4,10.9-1.1,16.3c0.1,0.4,0.6,0.2,0.6-0.2
						c-1-5.9-0.6-11.3,1.5-16.9c2-5.2,4.1-10.4,7-15.3C80.4,45.1,80.2,45,80.2,45.1L80.2,45.1z"/>
				</g>
				<g>
					<path class="st11" d="M80.6,60.6c-1.2,2.2-1.3,5-1.6,7.4c-0.4,3.2-0.5,6.3-0.2,9.5c0.6,6.7,2.2,13.3,4.6,19.6
						c0.1,0.2,0.4,0.1,0.3-0.1c-2-5.7-3.4-11.4-4.1-17.4c-0.3-3.1-0.4-6.2-0.2-9.3c0.2-2.8,0.2-6.8,1.4-9.4
						C81.1,60.6,80.8,60.4,80.6,60.6L80.6,60.6z"/>
				</g>
				<g>
					<path class="st11" d="M81.3,57.4c1.5-4.5,4.9-7.9,7.3-11.9c2.3-3.8,3.7-8.3,4.8-12.6c0.1-0.3-0.4-0.4-0.5-0.1
						c-1.7,4.5-2.9,9.1-5.4,13.2c-2.3,3.8-5.3,7-6.5,11.4C81.1,57.4,81.3,57.5,81.3,57.4L81.3,57.4z"/>
				</g>
				<g>
					<path class="st11" d="M85.1,53.2c-2.3,2.9-2.5,6.6-3.1,10.1c-0.7,4.2-2.2,8.1-0.9,12.4c0.1,0.4,0.7,0.2,0.6-0.2
						c-0.7-4.2,0.2-7.9,0.9-12c0.5-3.5,0.6-7.1,2.8-10C85.5,53.2,85.2,53,85.1,53.2L85.1,53.2z"/>
				</g>
				<g>
					<path class="st11" d="M84.2,64.9C83.4,70.9,83.3,77,83.2,83c0,5.5,0.3,11.9,2.3,17c0.2,0.4,0.8,0.3,0.7-0.2
						c-0.5-3.2-1.4-6.2-1.8-9.4c-0.4-2.8-0.4-5.6-0.5-8.4c-0.1-5.7,0.6-11.3,0.3-17C84.3,64.8,84.2,64.8,84.2,64.9L84.2,64.9z"/>
				</g>
				<g>
					<path class="st11" d="M81.2,78.2c-0.4,1.3-0.1,2.7,0,4c0,0.2,0.3,0.2,0.3,0c0.1-1.3-0.4-2.6,0-3.9C81.6,78.1,81.3,78,81.2,78.2
						L81.2,78.2z"/>
				</g>
				<g>
					<path class="st11" d="M84.3,62.7c1.1-4.2,2.3-8.1,4.2-12c1.8-3.6,2.5-7.6,4.6-11.1c0.1-0.2-0.2-0.5-0.4-0.3
						c-2.6,3.1-3.2,7.4-4.8,11c-1.8,4-3.5,7.9-3.8,12.3C84.2,62.7,84.3,62.7,84.3,62.7L84.3,62.7z"/>
				</g>
				<g>
					<path class="st11" d="M93.4,41.9c-0.5,1.5-0.9,3.1-1.4,4.6c-0.6,1.8-1.7,3.4-2.5,5c-1.2,2.4-1.6,5.2-1.9,7.9
						c-0.4,3.5-0.3,6.9-0.1,10.4c0.3,3.8-0.2,7.5-0.1,11.3c0,0.5,0.8,0.5,0.8,0c0.2-3,0.2-6.1,0.2-9.1c0-3.5-0.5-7-0.3-10.5
						c0.3-3.9,1-7.7,2.8-11.1c1.4-2.8,2-5.3,2.6-8.3C93.7,41.8,93.5,41.7,93.4,41.9L93.4,41.9z"/>
				</g>
				<g>
					<path class="st11" d="M87.3,97.1c1.3-0.7,1.3-2.9,1.4-4.2c0.2-2.3,0.3-4.9,0-7.1c0-0.3-0.5-0.2-0.5,0c-0.5,1.7-0.2,3.7-0.2,5.4
						C88,93.2,87.5,95,87.3,97.1C87.2,97.1,87.3,97.1,87.3,97.1L87.3,97.1z"/>
				</g>
				<g>
					<path class="st11" d="M90.4,87c0.4-9.3,1.3-18.5,1.3-27.7c0-0.3-0.4-0.3-0.5-0.1c-0.8,4.2-0.6,8.6-0.6,12.9
						C90.5,77,90.1,82,90.4,87C90.3,87,90.4,87,90.4,87L90.4,87z"/>
				</g>
				<g>
					<path class="st11" d="M99.8,46.7c1.9,8.6,3.9,17,2.5,25.8c-0.1,0.3,0.4,0.4,0.5,0.1C105.1,64.1,102.2,54.8,99.8,46.7
						C99.8,46.6,99.8,46.6,99.8,46.7L99.8,46.7z"/>
				</g>
				<g>
					<path class="st11" d="M101.4,77.7c-0.4,3.8-1,7.6-1.9,11.3c-0.8,3.3-3,5.9-3.8,9.2c-0.1,0.3,0.4,0.5,0.5,0.1
						c1.2-3.2,3-5.9,3.8-9.2c1-3.6,1.7-7.7,1.5-11.4C101.7,77.5,101.4,77.5,101.4,77.7L101.4,77.7z"/>
				</g>
				<g>
					<path class="st11" d="M102.5,86.2c1.8-9,7.6-20.2,2.5-29.1c-0.2-0.3-0.7-0.1-0.6,0.2C108.2,67.3,103.3,76.3,102.5,86.2
						C102.4,86.2,102.5,86.3,102.5,86.2L102.5,86.2z"/>
				</g>
				<g>
					<path class="st11" d="M109.5,50.7c5,6.2,5.3,15.1,3.2,22.5c-0.1,0.3,0.3,0.4,0.4,0.1C116,66.3,115,56.2,109.5,50.7
						C109.5,50.6,109.4,50.7,109.5,50.7L109.5,50.7z"/>
				</g>
				<g>
					<path class="st11" d="M111.7,76.3c-1.3,7.2-6.6,13.1-7.3,20.5c0,0.4,0.6,0.4,0.7,0.1c1.2-4.3,2.5-8.3,4.4-12.4
						c1.2-2.5,3-5.3,2.4-8.2C111.9,76.2,111.7,76.2,111.7,76.3L111.7,76.3z"/>
				</g>
				<g>
					<path class="st11" d="M102.3,90.6c-0.7,1.8-1.3,3.8-1.4,5.7c0,0.1,0.1,0.1,0.1,0C101.2,94.3,101.6,92.4,102.3,90.6
						C102.3,90.5,102.3,90.5,102.3,90.6L102.3,90.6z"/>
				</g>
				<g>
					<path class="st11" d="M120.9,59.2c1.9,6.4,0.8,12.7-1.1,18.9c-0.1,0.3,0.4,0.5,0.5,0.2C122.8,72.2,123.6,65.5,120.9,59.2
						C120.9,59.1,120.9,59.2,120.9,59.2L120.9,59.2z"/>
				</g>
				<g>
					<path class="st11" d="M123.6,69.9c-0.6,7.9-4.9,14.3-6.6,21.8c-0.1,0.4,0.4,0.5,0.6,0.2c2.5-7.1,6.5-14.3,6.3-21.9
						C123.9,69.7,123.6,69.7,123.6,69.9L123.6,69.9z"/>
				</g>
				<g>
					<path class="st11" d="M118.6,81.4c-0.9,1-1,2.4-1.3,3.7c-0.6,2.2-1.7,4.1-2.1,6.4c0,0.3,0.4,0.4,0.5,0.1
						c0.5-1.7,1.2-3.4,1.8-5.1c0.6-1.6,0.8-3.4,1.3-5C118.8,81.4,118.6,81.3,118.6,81.4L118.6,81.4z"/>
				</g>
				<g>
					<path class="st11" d="M122.9,51.5c3.6,5.7,6.1,11.4,5,18.3c-0.1,0.6,0.6,0.8,0.8,0.2c2.4-6.3-2-13.7-5.7-18.6
						C123,51.3,122.9,51.4,122.9,51.5L122.9,51.5z"/>
				</g>
				<g>
					<path class="st11" d="M126.4,45.5c5.7,5.4,10.4,11.4,12.6,19.1c0.1,0.4,0.6,0.2,0.6-0.2C138.2,56.5,132.5,50.5,126.4,45.5
						C126.4,45.5,126.4,45.5,126.4,45.5L126.4,45.5z"/>
				</g>
				<g>
					<path class="st11" d="M97.3,24.2c-0.7,4.1-0.2,8.3,2.5,11.6c0.2,0.3,0.6-0.1,0.5-0.3c-2.1-3.6-3.2-7-2.8-11.3
						C97.4,24.2,97.3,24.2,97.3,24.2L97.3,24.2z"/>
				</g>
				<g>
					<path class="st11" d="M96,29.4c0.2,1.9,0.3,3.8,0.5,5.7c0,0.2,0.2,0.2,0.3,0C96.9,33.2,96.3,31.2,96,29.4
						C96.1,29.3,96,29.3,96,29.4L96,29.4z"/>
				</g>
				<g>
					<path class="st11" d="M94.6,28.6c0.1,1.1,0.1,2.1,0.1,3.2c0,1.2-0.3,2.4-0.5,3.6c0,0.3,0.4,0.3,0.5,0.1c0.8-2.1,0.3-4.8,0-6.9
						C94.8,28.5,94.6,28.5,94.6,28.6L94.6,28.6z"/>
				</g>
			</g>
		</g>
		<g class="st12">
			<path class="st3" d="M88.3,83.8c3.4-4.2,5-10,6.2-15.2c1.4-5.7,2.3-11.9,2-17.8c-0.4-8.5-13.2-6.9-11.6,1.6
				c0.4,2.3,1.2,4.5,1.5,6.8c0.3,2.4,0.2,4.9,0.1,7.3c-0.2,5-0.4,10.6-1.5,15.5C84.7,83.6,87,85.4,88.3,83.8L88.3,83.8z"/>
		</g>
		<g class="st13">
			<path class="st3" d="M108.8,79.9c1.5-5.4,3-10.7,3.8-16.2c0.6-4.7,2.1-13.5-2.9-16.1c-2.2-1.1-4.4-0.5-5.8,1.5
				c-1.8,2.5-0.8,4.8-0.1,7.5c0.6,2.3,0.6,4.7,0.7,7.1c0.1,5.2-0.5,10.4-1,15.5C103,82.3,107.9,82.8,108.8,79.9L108.8,79.9z"/>
		</g>
		<g class="st14">
			<path class="st3" d="M69.2,72.6c0.8-4.3,2.2-8.6,4-12.6c1.8-4,6.5-8.4,5.2-13c-0.4-1.3-1.7-2.5-3.1-2.4
				c-5.8,0.4-7.9,7.6-9.4,12.3c-1.6,5.2-1.7,10.5,0.3,15.6C66.7,73.9,68.9,74.3,69.2,72.6L69.2,72.6z"/>
		</g>
		<g class="st12">
			<path class="st3" d="M56.3,50.7c2.4-4.3,8.8-5.5,12.8-7.7c1.6-0.9,0.9-3.5-0.9-3.5c-5.4,0.1-12.9,5.1-13.4,10.8
				C54.6,51.1,55.9,51.4,56.3,50.7L56.3,50.7z"/>
		</g>
	</g>
	<g>
		<path class="st15" d="M113.8,95.6c-4.9-2.7-8.2-10.2-8.7-14.6c-0.1-1.3,0.7-2.5,1.9-2.9c9.3-2.9,18.4-6.2,27.3-10.1
			c3.9-1.7,7.7-3.4,11.6-5.1c0.9-0.4,1.8-0.7,2.7-0.5c1.1,0.3,1.7,1.3,2.2,2.3c3.7,7.5,3.7,16.8-0.5,24.1
			c-4.2,7.2-12.6,12-20.9,11.2c-4.5-0.4-8-0.4-12-2.4C116.1,97.2,115,96.3,113.8,95.6z"/>
		<g>
			<defs>
				<path id="SVGID_7_" d="M113.8,95.5c-4.9-2.7-8.2-10.2-8.7-14.6c-0.1-1.3,0.7-2.5,1.9-2.9c9.3-2.9,18.4-6.2,27.3-10.1
					c3.9-1.7,7.7-3.4,11.6-5.1c0.9-0.4,1.8-0.7,2.7-0.5c1.1,0.3,1.7,1.3,2.2,2.3c3.7,7.5,3.7,16.8-0.5,24.1
					c-4.2,7.2-12.6,12-20.9,11.2c-4.5-0.4-8-0.4-12-2.4C116.1,97,115,96.1,113.8,95.5z"/>
			</defs>
			<clipPath id="SVGID_8_">
				<use xlink:href="#SVGID_7_"  style="overflow:visible;"/>
			</clipPath>
			<g class="st16">
				<path class="st17" d="M103,79.9c3,1.7,6.4,1,9.7,0.5c5.3-0.7,10.5-1.7,15.6-3.1c10.3-2.8,20.9-6.2,29.1-13.2
					c2.1-1.8,2.1-5.5,0.7-7.8c-1.9-3.1-5.8-3.7-8.8-2c-3.4,1.9-6.1,4.8-9.6,6.6c-4.1,2.1-8.2,4-12.4,5.7c-4.3,1.8-8.5,3.7-12.8,5.5
					c-1.7,0.7-3.4,1.4-5.1,2.1c-1.4,0.6-3.2,1.6-4.8,1.3C102.1,75.1,100.6,78.6,103,79.9L103,79.9z"/>
			</g>
		</g>
		<g class="st18">
			<defs>
				<path id="SVGID_9_" class="st18" d="M113.8,95.6c-4.9-2.7-8.2-10.2-8.7-14.6c-0.1-1.3,0.7-2.5,1.9-2.9
					c9.3-2.9,18.4-6.2,27.3-10.1c3.9-1.7,7.7-3.4,11.6-5.1c0.9-0.4,1.8-0.7,2.7-0.5c1.1,0.3,1.7,1.3,2.2,2.3
					c3.7,7.5,3.7,16.8-0.5,24.1c-4.2,7.2-12.6,12-20.9,11.2c-4.5-0.4-8-0.4-12-2.4C116.1,97.2,115,96.3,113.8,95.6z"/>
			</defs>
			<clipPath id="SVGID_10_">
				<use xlink:href="#SVGID_9_"  style="overflow:visible;"/>
			</clipPath>
			<g class="st19">
				<path class="st20" d="M135.4,61.2C131,61.4,101.7,74,99.9,77.8c-3.3,7.1,8.3,20.3,14,24.1c5.7,3.7,23.5,0.3,30.1-1
					c3.3-0.6,7.8-7.1,10.9-8.3c3.6-1.4,6-6.3,8.3-9.5c2.5-3.4,1.4-7.5-2.7-9c-5.4-1.9-11.5,2.1-16.5,3.9c-4.3,1.5-8,1.9-12.3,0.4
					c-1.2-0.4-3-1.5-3.9-2.4c-0.2-0.2-0.8-1.2-0.6-0.7c-1.6-4.7,8-11.4,6.4-11.4L135.4,61.2z"/>
			</g>
			<g class="st19">
				<path class="st20" d="M126,67.8c-4.4,0.2-33.8,12.8-35.5,16.6c-3.3,7.1,8.3,20.3,14,24.1c5.7,3.7,23.5,0.3,30.1-1
					c3.3-0.6,7.8-7.1,10.9-8.3c3.6-1.4,6-6.3,8.3-9.5c2.5-3.4,8.1-6.3,4.1-4.5c-5.2,2.3-17,4.5-22.3,5.2c-17.3,2.2-20.9-5.8-23-9.8
					c-1.7-3.3,6.7-7.1,5.1-7L126,67.8z"/>
			</g>
			<g class="st19">
				<path class="st20" d="M119.5,67.9c-4.4,0.2-33.8,12.8-35.5,16.6c-3.3,7.1,8.3,20.3,14,24.1c5.7,3.7,23.5,0.3,30.1-1
					c3.3-0.6,7.8-7.1,10.9-8.3c3.6-1.4,11.2,2.4,13.6-0.8c2.5-3.4,5.3-8.3,1.3-6.5c-5.2,2.3-16.3,3.4-21.5,4.1
					c-17.3,2.2-24-11.4-26.1-15.4c-1.7-3.3,8.3-7.1,6.7-7.1L119.5,67.9z"/>
			</g>
		</g>
		<g class="st21">
			<path class="st22" d="M115.8,81.2c5.2,1.9,10.5,0.8,15.7-0.6c2.7-0.8,5.4-1.6,8.2-2.3c0.8-0.2,1.6-0.4,2.4-0.6
				c-0.4,0-0.2,0,0.5,0c1.7-0.1-0.5,0-0.9-0.5c5.7,6.3,15-5.3,7-9.7c-5.2-2.8-10.1-0.1-14.8,2.1c-5.7,2.7-11,6-17.4,6.4
				C113.3,76.3,113.1,80.2,115.8,81.2L115.8,81.2z"/>
		</g>
	</g>
</g>
</svg>
