<?xml version="1.0" encoding="utf-8"?>
<!-- Generator: Adobe Illustrator 21.0.0, SVG Export Plug-In . SVG Version: 6.00 Build 0)  -->
<svg version="1.1" id="Слой_1" xmlns="http://www.w3.org/2000/svg" xmlns:xlink="http://www.w3.org/1999/xlink" x="0px" y="0px"
	 viewBox="0 0 200 109" style="enable-background:new 0 0 200 109;" xml:space="preserve">
<style type="text/css">
	.st0{fill:#D69F69;}
	.st1{fill:#C49162;}
	.st2{fill:#AD6F40;}
	.st3{fill:#99613A;}
	.st4{fill:#D19990;}
	.st5{fill:#E2A59F;}
	.st6{fill:#FFD5C5;}
</style>
<g>
	<path class="st0" d="M15.9,74.6c-5-6.8-8.7-15.6-5.8-23.6c1.1-3,3-5.6,5.1-8c8.2-9.3,19.8-15.6,32.1-17.4c1.5-0.2,3.1-0.4,4.5-1
		c1.1-0.5,2.1-1.2,3.1-1.9C69.2,13,87.8,12,104.9,14.4c29.9,4.3,59.4,19.3,75.4,44.9c1.7,2.7,3.3,5.7,3,8.9
		c-0.3,3.9-3.5,7.2-7.1,8.8c-3.6,1.6-7.7,1.9-11.6,2.1c-27.9,1.7-55.8,3.6-83.1,9.8c-3.3,0.8-6.7,1.6-9.9,2.9
		c-3.3,1.3,1.1,6.8-2.3,7.1c-8,0.6-18.6-2-23.3-3.5C34.1,91.9,23.3,84.5,15.9,74.6z"/>
	<path class="st1" d="M12.4,68c1.1,2.3,2.5,4.6,4,6.6c7.4,9.9,18.2,17.3,30,20.8c4.8,1.4,15.3,4,23.3,3.5c3.5-0.2-1-5.7,2.3-7.1
		c0,0,0,0,0.1,0c-5.9-1.8-12.1-2.8-18.2-3c-3.6-0.1-7.2,0.1-10.8-0.3c-7-0.8-13.7-4.1-19.2-8.5c-2.6-2.1-5-4.4-7.2-6.8
		C16.3,72.6,14.3,69.9,12.4,68z"/>
	<path class="st2" d="M184.5,64.9c-6.7-26-50.5-46.4-79.2-50.5c-17.1-2.4-35.6-1.4-49.9,8.3c-1,0.7-2,1.4-3.1,1.9
		c-1.4,0.6-3,0.8-4.5,1C35.5,27.4,23.4,32.7,15.1,42c-2.1,2.4-4.2,5.1-5.2,8c-0.7,2-0.9,4.7-0.9,6.7c1,2.4,3.5,4.7,5.9,5.7
		c3.5,1.5,7.7,0.9,11.3,2.6c5.5,2.6,7.7,9.7,13.1,12.5c4.1,2.1,9.2,1.2,13.3-0.9c4.1-2.1,7.6-5.2,11.5-7.7c6.2-4,13.2-6.4,20.3-8.3
		c21.7-5.8,44.8-6.7,66.9-2.6c7.9,1.4,16.3,3.5,23.7,0.5C176.3,58.1,183.5,65.9,184.5,64.9z"/>
	<path class="st3" d="M123.6,32c-8.2-2.2-17-2.6-24.9-6c-3.9-1.7-7.5-4.1-11.3-6.2c-2.3-1.3-4.8-2.5-7.5-2.8
		c-2.1-0.2-4.2,0.1-6.4,0.1c-2.4,0.1-4.7-0.2-7.1-0.3c-3.9,1.4-7.7,3.3-11.2,5.7c-1,0.7-2,1.4-3.1,1.9c-0.9,0.4-1.9,0.6-2.9,0.8
		c0.6,1.7,2.6,2.7,4.3,3.4c6.8,2.6,13.8,4.7,20.4,7.9c6.6,3.2,12.7,7.5,16.8,13.6c1,1.4,1.9,3,3.5,3.8c1.4,0.7,3.1,0.5,4.6-0.1
		c1.5-0.6,2.7-1.6,4-2.5c5.6-4,11.9-7.1,18.5-9.1c1.7-0.5,3.6-1,5-2.1c1.4-1.1,2.4-3.1,1.8-4.8C127.5,33.3,125.4,32.5,123.6,32z"/>
	<path class="st4" d="M57.4,96.7c-3.6-1.4-7.1-3.4-9.2-6.5c-1.5-2.2-2.2-4.9-2.4-7.5c-1-10.9,5.7-21.6,15.2-26.9
		c9.5-5.3,21.2-5.8,31.7-2.8c16.1-13,38.1-18.4,58.4-14.3c4.8,1,9.6,2.5,13.9,5c7.4,4.4,12.7,11.6,17.8,18.6c1.4,2,2.9,4,3.6,6.3
		c1.2,4.4-0.6,9.2-3.8,12.4c-3.2,3.2-7.5,5.1-11.9,6.4c-8.6,2.5-17.6,3-26.6,3.6c-15,1.1-30.1,2.5-45,4.4
		C85.7,97,70.3,101.8,57.4,96.7z"/>
	<path class="st5" d="M183.1,63.3c-0.3-0.4-0.5-0.7-0.8-1.1c-5.1-7-10.4-14.1-17.8-18.6c-4.2-2.5-9-4-13.9-5
		c-12.1-2.5-24.8-1.5-36.5,2.3c-0.3,0.7-0.5,1.4-0.7,2.4c-2,9.8-10.3,14.6-14.5,23.2c-0.5,1.1-1,2.4-0.6,3.5c0.6,2,3.1,2.7,5.2,2.6
		c3.9-0.3,7.3-2.4,11.1-3.4c7.4-2.1,15.3,0.1,22.9,1c7.5,0.8,15.1,0.3,22.4-1.6c6.3-1.6,12.5-4.2,19-4.4
		C180.3,64.1,182,64.1,183.1,63.3z"/>
	<path class="st5" d="M108.3,47c0.9-1.3,1.7-2.9,1.9-4.5c-6.4,2.6-12.4,6.1-17.8,10.4c-10.5-2.9-22.2-2.5-31.7,2.8
		c-4.8,2.7-8.9,6.8-11.6,11.5c4.6-0.3,8.9,1.2,12.7,4.7c3.1,2.8,5.3,6.7,8.9,8.9c3.4,2.1,7.6,2.4,11.5,1.7c3.9-0.7,7.6-2.3,11.2-3.9
		c1.6-0.7,3.5-1.8,3.5-3.6c0-1.5-1.4-2.6-1.9-3.9c-0.7-2,0.5-4.2,1.6-6C100.5,59.1,104.4,53.1,108.3,47z"/>
	<g>
		<path class="st5" d="M151.7,90.3c-2.3-2.4-4.2-5.2-6.8-7.2c-4-3.1-9.2-4.2-14.2-5.2c-5.5-1.1-11-2.2-16.5-3.3
			c-3.2-0.6-7.7-0.6-8.5,2.7c-0.5,2.1,1,4.1,1.1,6.2c0.2,4.4-5.7,6.9-6.3,11.3c0,0.1,0,0.1,0,0.2c14.5-1.8,29-3.2,43.6-4.2
			C146.6,90.7,149.1,90.5,151.7,90.3z"/>
		<path class="st5" d="M99.6,87.6c1.4-2.2,3.3-4.2,3.6-6.8c0.3-2.6-2.6-5.5-4.7-3.9c0.3,1.8-0.8,3.6-2.3,4.7c-1.5,1.1-3.3,1.6-5.1,2
			c-5.1,1.3-10.3,2.6-15.6,2.5c-5.3-0.2-10.7-2.1-14-6.2c-1.6-2.1-2.7-4.6-4.6-6.4c-2.6-2.4-5.8-3.4-9-3.4
			c-1.7,3.9-2.5,8.2-2.1,12.5c0.3,2.6,1,5.3,2.4,7.5c2.1,3.2,5.7,5.1,9.2,6.5c12.4,4.8,26.9,0.7,39.8-1.1
			C97.3,92.7,98.1,90,99.6,87.6z"/>
		<path class="st5" d="M186.3,68.4c-0.1-0.5-0.3-1-0.5-1.4c-2,0.3-4.1,0.8-6.1,1.3c-15.2,3.9-31.1,7.3-46.7,5
			c-6-0.9-12.4-2.7-18.1-0.4c3.7,2.6,8.6,2.4,13.2,2.4c6.4,0.1,13.2,1.1,18.2,5c3.7,2.9,6.2,7.2,10.3,9.5c4.7-0.5,9.4-1.3,13.9-2.6
			c4.4-1.3,8.7-3.1,11.9-6.4C185.6,77.6,187.5,72.8,186.3,68.4z"/>
	</g>
	<path class="st6" d="M181.4,60.5c-4.7-6.4-9.7-12.7-16.5-16.8c-4.2-2.5-9-4-13.9-5c-20.3-4.1-42.3,1.3-58.4,14.3
		c-10.5-2.9-22.2-2.5-31.7,2.8c-9.5,5.3-16.2,16.1-15.2,26.9c0.3,2.6,1,5.3,2.4,7.5c0.6,0.8,1.2,1.6,1.9,2.2
		c-0.7-3.9-1.6-7.3-0.7-11.6c1.1-4.8,3.6-9.2,7.3-12.4c6.9-5.9,17.4-10,26.5-9.7c3.5,0.1,8.2,1.4,11.7,0.9c5.6-0.9,8.6-2.1,13.7-4.7
		c14.3-7.5,30.8-12.6,46.5-8.9C164.8,48.3,173.6,54,181.4,60.5z"/>
	<path class="st6" d="M152.1,47c-0.7,1.2-1.1,2.7-2.2,3.6c-1.5,1.3-3.8,0.9-5.8,1.1c-2.5,0.3-4.9,1.5-6.5,3.5c1.1-1.4,3-2,4.8-2.2
		c1.8-0.2,3.6-0.1,5.4-0.5c1.7-0.5,3.3-1.5,4.4-2.9c0.7-0.9,1.3-1.9,2.2-2.6c1.7-1.1,3.9-0.5,5.8-0.9c1.7-0.3,1.8-1.3,0.5-2
		c-0.7-0.4-2.4-0.7-3.2-0.7C155.3,43.5,153.2,45.2,152.1,47z"/>
	<path class="st6" d="M68.2,70.6c0.9,1.5,1.2,3.4,1.9,5c0.7,1.6,2.2,3.1,4,3c-1.5-0.2-2.5-1.6-3-3c-0.5-1.4-0.5-2.9-1-4.3
		c-0.7-2.3-2.5-4.3-4.8-5.3c-0.4-0.2-0.9-0.3-1.3-0.7c-0.5-0.4-0.7-1.1-0.8-1.8c-0.2-2.2,1.3-4.3,3.2-5.3c2-1,4.3-1,6.4-0.3
		c1,0.3,2.1,0.8,2.4,1.8c0.2,0.6,0.1,1.3,0,1.9c-0.3,1.4-0.7,2.7-1.3,4c-0.5,0.9-1,1.9-0.7,2.9c0.2,0.6,0.6,1.1,0.9,1.7
		c0.2,0.7,0.2,1.4,0.3,2.1c0.1,0.7,0.5,1.4,1.1,1.6c-0.4-1.4-0.7-2.8-1.1-4.3c-0.2-0.9-0.4-1.9-0.1-2.7c0.4-1.2,1.8-2,2.2-3.2
		c0.3-1.1-0.2-2.4,0.2-3.4c0.2-0.6,0.7-1,0.9-1.6c0.3-1.3-1-2.4-2.2-2.8c-2.7-1-5.7-0.6-8.3,0.5c-2.5,1-10.3,4.6-8.6,8.2
		C60.4,68.1,66,66.8,68.2,70.6z"/>
	<path class="st6" d="M54,88.6c1.7-0.1,3.3-0.8,4.9-1.3c7.7-2.2,11.5,3.4,24-0.6c-2.8,1-5.8,1.6-8.7,1.8c-4.8,0.3-9.5-1.5-14.1-0.2
		c-1.8,0.5-3.7,2.4-5.6,2.6c-2.3,0.2-4.6-0.7-6.2-2.3c-1.3-1.3-1.5-3.1,0.5-2.3C50.7,87.2,51.6,88.7,54,88.6z"/>
	<path class="st3" d="M42.9,26.3C34.9,27,26.7,29,20.1,33.8c-3.3,2.4-6.1,5.5-8.1,9.1c-1,1.8-1.9,3.8-2.3,5.8
		c-0.4,1.7-0.2,3.9,1.5,1.9c5.6-6.8,11.2-12.9,18.7-17.7C34,30.2,38.4,28,42.9,26.3z"/>
	<g>
		<path class="st3" d="M32,51.6c2.1-2,4.3-3.9,6.5-5.7c2.2-1.8,4.5-3.6,6.9-5.3c2.3-1.7,4.8-3.3,7.2-4.9c2.5-1.5,5-3,7.5-4.4
			c2.6-1.4,5.2-2.7,7.8-3.9c0.3-0.2,0.7-0.3,1-0.4c0.2-0.1,0.2-0.3,0.1-0.5c-0.1-0.2-0.3-0.2-0.5-0.1c-2.7,1.2-5.3,2.5-7.8,3.9
			c-2.6,1.4-5.1,2.8-7.6,4.3c-2.5,1.5-4.9,3.1-7.3,4.8c-2.4,1.7-4.7,3.5-7,5.3c-2.3,1.8-4.5,3.7-6.6,5.7c-0.3,0.2-0.5,0.5-0.8,0.7
			C31.2,51.4,31.7,51.9,32,51.6L32,51.6z"/>
	</g>
	<g>
		<path class="st3" d="M42.9,50.4c3.3-4.1,7.3-7.6,11.6-10.6c4.4-3,9.1-5.5,13.9-7.8c2.7-1.3,5.4-2.5,8.1-3.8
			c0.2-0.1,0.2-0.3,0.1-0.5c-0.1-0.2-0.3-0.2-0.5-0.1c-4.9,2.2-9.8,4.4-14.5,7c-4.7,2.5-9.2,5.4-13.2,8.9c-2.2,1.9-4.3,4.1-6.2,6.4
			c-0.1,0.2-0.1,0.4,0,0.5C42.5,50.5,42.8,50.6,42.9,50.4L42.9,50.4z"/>
	</g>
	<g>
		<path class="st3" d="M60.8,47.1c2.6-2.6,5.4-5,8.4-7.2c3-2.2,6.1-4.2,9.4-5.9c1.8-1,3.7-1.8,5.6-2.6c0.2-0.1,0.3-0.2,0.3-0.4
			c0-0.2-0.3-0.3-0.4-0.3c-3.5,1.4-6.8,3.1-10,5.1c-3.2,1.9-6.2,4.1-9.1,6.6c-1.6,1.4-3.2,2.8-4.7,4.3
			C59.9,46.9,60.4,47.5,60.8,47.1L60.8,47.1z"/>
	</g>
	<g>
		<path class="st3" d="M72.4,47c3.1-3.1,6.7-5.8,10.6-7.9c1.1-0.6,2.2-1.2,3.4-1.7c0.2-0.1,0.2-0.3,0.1-0.5
			c-0.1-0.2-0.3-0.2-0.5-0.1c-4.1,1.8-7.9,4.2-11.3,7.1c-1,0.8-1.9,1.7-2.8,2.6C71.6,46.8,72.1,47.3,72.4,47L72.4,47z"/>
	</g>
	<g>
		<path class="st3" d="M26.4,47.5c3.9,0.2,7.8,0.5,11.6,0.9c3.9,0.4,7.7,1,11.5,1.7c2.2,0.4,4.3,0.8,6.4,1.3
			c0.5,0.1,0.7-0.6,0.2-0.7c-3.8-0.8-7.7-1.5-11.6-2.1c-3.9-0.6-7.7-1-11.6-1.4c-2.2-0.2-4.4-0.3-6.6-0.4
			C25.9,46.8,25.9,47.5,26.4,47.5L26.4,47.5z"/>
	</g>
	<g>
		<path class="st3" d="M33.2,41.3c4.9,0.2,9.9,0.5,14.8,1.1c4.9,0.5,9.8,1.3,14.6,2.2c2.7,0.5,5.5,1.1,8.2,1.7
			c0.5,0.1,0.7-0.6,0.2-0.7c-4.8-1.1-9.7-2.1-14.6-2.8c-4.9-0.8-9.8-1.3-14.8-1.7c-2.8-0.2-5.6-0.4-8.3-0.5
			C32.8,40.6,32.8,41.3,33.2,41.3L33.2,41.3z"/>
	</g>
	<g>
		<path class="st3" d="M48.3,33.3c3.5,0.5,7.1,1.1,10.6,1.7c3.5,0.6,7,1.3,10.5,2c2,0.4,3.9,0.9,5.9,1.3c0.5,0.1,0.7-0.6,0.2-0.7
			c-3.5-0.8-7-1.5-10.5-2.2c-3.5-0.7-7-1.3-10.5-1.9c-2-0.3-4-0.6-6-0.9c-0.2,0-0.4,0-0.4,0.3C48,33,48.1,33.3,48.3,33.3L48.3,33.3z
			"/>
	</g>
	<g>
		<path class="st3" d="M88.8,28c0.5-1.1,1.7-1.8,2.7-2.5c1.1-0.7,2.2-1.4,3.3-2.1c2.3-1.3,4.7-2.4,7.2-3.3c1.4-0.5,2.8-1,4.2-1.3
			c0.5-0.1,0.3-0.8-0.2-0.7c-5.2,1.4-10.2,3.7-14.7,6.7c-1.2,0.8-2.5,1.6-3.2,2.9C88,28.1,88.6,28.5,88.8,28L88.8,28z"/>
	</g>
	<g>
		<path class="st3" d="M95.5,30.6c2.2-2,4.5-3.7,6.9-5.3c2.4-1.6,5-2.9,7.7-4c1.5-0.6,3.1-1.2,4.6-1.7c0.4-0.1,0.3-0.8-0.2-0.7
			c-2.8,0.9-5.6,2-8.2,3.4c-2.6,1.3-5.2,2.9-7.5,4.7c-1.3,1-2.6,2-3.9,3.2C94.7,30.4,95.2,30.9,95.5,30.6L95.5,30.6z"/>
	</g>
	<g>
		<path class="st3" d="M106.6,31.1c4.2-3.3,8.9-6,13.9-7.9c1.4-0.5,2.8-1,4.2-1.4c0.4-0.1,0.3-0.8-0.2-0.7
			c-5.2,1.5-10.2,3.8-14.7,6.8c-1.3,0.8-2.5,1.7-3.7,2.7c-0.2,0.1-0.1,0.4,0,0.5C106.3,31.3,106.5,31.2,106.6,31.1L106.6,31.1z"/>
	</g>
	<g>
		<path class="st3" d="M116.9,33.4c4-2.1,8.3-3.9,12.6-5.3c1.2-0.4,2.4-0.7,3.7-1.1c0.5-0.1,0.3-0.8-0.2-0.7
			c-4.4,1.2-8.8,2.7-13,4.7c-1.2,0.6-2.4,1.1-3.5,1.8C116.1,33,116.5,33.6,116.9,33.4L116.9,33.4z"/>
	</g>
	<g>
		<path class="st3" d="M92.9,19.3c3.2,0.9,6.3,1.9,9.4,3c3.1,1.1,6.1,2.4,9.1,3.7c1.7,0.8,3.4,1.6,5,2.4c0.4,0.2,0.8-0.4,0.4-0.6
			c-3-1.5-6-2.8-9.1-4.1c-3.1-1.3-6.2-2.4-9.3-3.4c-1.8-0.6-3.6-1.1-5.4-1.7C92.7,18.4,92.5,19.1,92.9,19.3L92.9,19.3z"/>
	</g>
	<g>
		<path class="st3" d="M108.9,18.5c3.6,1.4,7.2,2.9,10.7,4.6c3.5,1.7,6.9,3.5,10.2,5.5c1.9,1.1,3.8,2.3,5.6,3.5
			c0.4,0.3,0.8-0.4,0.4-0.6c-3.3-2.1-6.6-4.2-10-6c-3.4-1.9-6.9-3.6-10.5-5.1c-2-0.9-4.1-1.7-6.1-2.5
			C108.7,17.6,108.5,18.3,108.9,18.5L108.9,18.5z"/>
	</g>
	<path class="st4" d="M130,90.2c7.4-1.1,14.9-2,22.4-2.7c9.9-1,20.8-2.1,27.9-9.1c2.1-2.1,3.8-4.7,4.3-7.6c0.5-2.9-0.7-8.1-3-9.9
		c3.6,2.7,6.6,9.7,5.4,14.1c-1.2,4.4-5.9,8.1-9.8,10.4c-3.9,2.4-8.3,3.6-12.8,4.5c-14.4,3-29.2,3-43.9,4.4
		c-16.7,1.6-33.5,5.5-50.3,4.7c-4-0.2-9-0.6-12.7-2.2c4.1,1,8.1-0.1,11.3,0c4.9,0.1,9.9,0,14.8-0.4c10-0.7,20-2.2,29.9-3.7
		C119,91.9,124.5,91,130,90.2z"/>
</g>
</svg>
