<?xml version="1.0" encoding="utf-8"?>
<!-- Generator: Adobe Illustrator 21.0.0, SVG Export Plug-In . SVG Version: 6.00 Build 0)  -->
<svg version="1.1" id="Слой_3" xmlns="http://www.w3.org/2000/svg" xmlns:xlink="http://www.w3.org/1999/xlink" x="0px" y="0px"
	 viewBox="0 0 200 109" style="enable-background:new 0 0 200 109;" xml:space="preserve">
<style type="text/css">
	.st0{fill:#F2D025;}
	.st1{fill:#E8C325;}
	.st2{fill:#FFF424;}
	.st3{fill:#FFF4C5;}
	.st4{fill:#FCDF23;}
	.st5{opacity:0.3;fill:#FFF4C5;}
	.st6{fill:#C4AE2C;}
</style>
<g>
	<path class="st0" d="M194.7,67.8c-0.2-5-3.6-13.6-3.6-13.6s-50.9-7.1-67.1-5.4s-49.7,8.5-49.7,8.5s-2.6,12.1-0.3,15.4
		c2.4,3.4,14.4,24,63.6,23.3C186.2,95.3,195,74.6,194.7,67.8z"/>
	<path class="st1" d="M191.8,66.3c-5.9-6.7-15.5-8.2-25-5.6c-7.9,2.2-14.9,5.8-20.1,10.8c-1,0.9-3.1,2.7-2.8,4
		c0.3,1.1,1.6,1.8,2.8,0.6l-0.9,1c8.6,2.9-5.6,16.2,6.1,16c14.8-0.2,27.1-7.2,34.5-13.2c2.3-1.8,3.9-4.6,5.5-6.6
		C193.7,71,193.9,68.6,191.8,66.3z"/>
	
		<ellipse transform="matrix(2.930702e-02 -0.9996 0.9996 2.930702e-02 70.6219 190.7338)" class="st2" cx="133.5" cy="59" rx="29.5" ry="59.2"/>
	
		<ellipse transform="matrix(2.930741e-02 -0.9996 0.9996 2.930741e-02 71.0243 190.8814)" class="st3" cx="133.8" cy="58.9" rx="28.1" ry="56.7"/>
	
		<ellipse transform="matrix(2.930705e-02 -0.9996 0.9996 2.930705e-02 72.3892 190.0983)" class="st4" cx="134.1" cy="57.8" rx="24.1" ry="51.1"/>
	
		<ellipse transform="matrix(2.931602e-02 -0.9996 0.9996 2.931602e-02 71.7347 191.3181)" class="st3" cx="134.4" cy="58.7" rx="1.7" ry="5.4"/>
	<polygon class="st3" points="134.6,58.8 167.5,39.2 168.6,40.2 135.5,59 	"/>
	<polygon class="st3" points="138.2,33.4 134.3,58.3 135.6,58.5 140,32.9 	"/>
	<polygon class="st3" points="110.9,34.7 134.3,58.3 133.8,58.9 108.4,35.5 	"/>
	<polygon class="st3" points="87.4,45.1 133.8,58.9 133.9,59.3 86,46.5 	"/>
	<polygon class="st3" points="84.3,66.1 132.8,58.6 133.8,58.9 85.9,67.6 	"/>
	<polygon class="st3" points="106.7,79.6 133.5,59 134.8,59.3 109,80.6 	"/>
	<polygon class="st3" points="135.5,59 141,84.4 142.8,84.1 136.2,58.8 	"/>
	<polygon class="st3" points="137.1,58.7 179.4,72.6 178,74.3 136.1,59 	"/>
	<path class="st3" d="M185.1,52.4c-0.5,0.2-49.8,6.2-49.8,6.2l-0.2,0.6l51.2-5.1L185.1,52.4z"/>
	<g>
		<path class="st2" d="M131.9,63c-0.5,0.7-1.1,1.4-1.6,2.1c-0.3,0.4,0.4,0.9,0.7,0.4c0.5-0.7,1.1-1.4,1.6-2.1
			C132.9,63,132.2,62.6,131.9,63L131.9,63z"/>
	</g>
	<g>
		<path class="st2" d="M133.2,64c-0.4,0.8-0.6,1.6-0.7,2.4c-0.1,0.5,0.7,0.5,0.8,0c0.1-0.7,0.3-1.4,0.6-2
			C134.2,64,133.5,63.6,133.2,64L133.2,64z"/>
	</g>
	<g>
		<path class="st2" d="M134.7,65.1c0,0.9,0.2,1.8,0,2.8c-0.1,0.5,0.7,0.8,0.8,0.2c0.2-1,0-2,0-3C135.5,64.6,134.7,64.6,134.7,65.1
			L134.7,65.1z"/>
	</g>
	<g>
		<path class="st2" d="M128.6,67.3c-0.7,0.7-1.3,1.5-2,2.3c-0.4,0.4,0.2,1,0.6,0.6c0.7-0.8,1.3-1.6,2-2.3
			C129.5,67.5,129,66.9,128.6,67.3L128.6,67.3z"/>
	</g>
	<g>
		<path class="st2" d="M130.5,67.8c-0.4,0.6-0.9,1.3-1.1,2c-0.2,0.5,0.6,0.7,0.8,0.2c0.2-0.7,0.7-1.2,1-1.8
			C131.5,67.8,130.8,67.4,130.5,67.8L130.5,67.8z"/>
	</g>
	<g>
		<path class="st2" d="M133,69.2c-0.3,0.9-0.4,1.8-0.5,2.8c-0.1,0.5,0.8,0.5,0.8,0c0.1-0.9,0.2-1.7,0.5-2.5
			C134,69,133.2,68.8,133,69.2L133,69.2z"/>
	</g>
	<g>
		<path class="st2" d="M135.5,71.1c0.2,0.7,0.4,1.4,0.4,2.2c0,0.5,0.8,0.6,0.8,0c0-0.8-0.3-1.6-0.5-2.4
			C136.2,70.4,135.4,70.6,135.5,71.1L135.5,71.1z"/>
	</g>
	<g>
		<path class="st2" d="M130.3,72.7c-0.5,0.8-0.8,1.6-1,2.5c-0.1,0.5,0.6,0.8,0.8,0.2c0.2-0.8,0.5-1.6,0.9-2.3
			C131.3,72.7,130.6,72.3,130.3,72.7L130.3,72.7z"/>
	</g>
	<g>
		<path class="st2" d="M127.5,71.5c-0.4,0.6-0.9,1.2-1.4,1.8c-0.3,0.4,0.2,1,0.6,0.6c0.6-0.6,1.1-1.3,1.6-2
			C128.5,71.5,127.8,71.1,127.5,71.5L127.5,71.5z"/>
	</g>
	<g>
		<path class="st2" d="M124.5,70.9c-0.4,0.1-0.7,0.5-1,0.7c-0.4,0.4-0.8,0.8-1.2,1.1c-0.4,0.4,0.2,1,0.6,0.6
			c0.3-0.3,0.6-0.6,0.9-0.9c0.2-0.2,0.6-0.7,0.9-0.7C125.2,71.5,125,70.7,124.5,70.9L124.5,70.9z"/>
	</g>
	<g>
		<path class="st2" d="M119.2,73.8c-0.9,0.7-1.6,1.7-2.3,2.5c-0.4,0.4,0.2,1,0.6,0.6c0.8-0.8,1.4-1.8,2.3-2.5
			C120.2,74.1,119.6,73.5,119.2,73.8L119.2,73.8z"/>
	</g>
	<g>
		<path class="st2" d="M120.1,76c-0.5,0.7-1,1.3-1.5,2c-0.3,0.5,0.4,0.9,0.7,0.4c0.4-0.7,1-1.3,1.5-2C121.1,76,120.4,75.6,120.1,76
			L120.1,76z"/>
	</g>
	<g>
		<path class="st2" d="M123.5,75.5c-0.3,0.9-0.5,1.9-1,2.8c-0.2,0.5,0.5,0.9,0.7,0.4c0.4-1,0.7-2,1.1-3
			C124.5,75.2,123.7,75,123.5,75.5L123.5,75.5z"/>
	</g>
	<g>
		<path class="st2" d="M127.6,75.9c0,0.7,0,1.5-0.1,2.2c0,0.5,0.8,0.6,0.8,0c0-0.7,0-1.5,0.1-2.2C128.4,75.4,127.6,75.4,127.6,75.9
			L127.6,75.9z"/>
	</g>
	<g>
		<path class="st2" d="M132.4,75.6c-0.3,1-0.1,2.1-0.1,3.2c0,0.5,0.8,0.6,0.8,0c0-1-0.2-2,0.1-3C133.3,75.3,132.6,75,132.4,75.6
			L132.4,75.6z"/>
	</g>
	<g>
		<path class="st2" d="M135.8,75.9c0.1,1.4,0.8,2.7,1.2,4c0.2,0.5,1,0.3,0.8-0.2c-0.4-1.3-1.1-2.5-1.2-3.8
			C136.6,75.4,135.7,75.3,135.8,75.9L135.8,75.9z"/>
	</g>
	<g>
		<path class="st2" d="M137.2,75.5c0,0.7,0.4,1.3,0.5,2c0.1,0.5,0.9,0.3,0.8-0.2c-0.1-0.4-0.2-0.7-0.3-1c0-0.2-0.1-0.3-0.1-0.5
			c0-0.1,0-0.1,0-0.2c0,0,0-0.2,0-0.1C138,75,137.2,75,137.2,75.5L137.2,75.5z"/>
	</g>
	<g>
		<path class="st2" d="M92.2,68.4c1.5-0.1,3-0.5,4.5-0.8c0.5-0.1,0.3-0.9-0.2-0.8c-1.4,0.3-3.1,0.7-4.3,0.8
			C91.7,67.6,91.7,68.4,92.2,68.4L92.2,68.4z"/>
	</g>
	<g>
		<path class="st2" d="M94.1,69.7c0.8-0.2,1.5-0.4,2.3-0.5c0.5-0.1,0.3-0.9-0.2-0.8c-0.8,0.2-1.5,0.4-2.3,0.5
			C93.3,69.1,93.5,69.9,94.1,69.7L94.1,69.7z"/>
	</g>
	<g>
		<path class="st2" d="M99.3,71.1c0.8-0.3,1.7-0.5,2.6-0.6c0.5-0.1,0.6-0.9,0-0.8c-1,0.1-1.9,0.3-2.8,0.6
			C98.6,70.5,98.8,71.3,99.3,71.1L99.3,71.1z"/>
	</g>
	<g>
		<path class="st2" d="M100.2,73.5c0.8-0.3,1.5-0.6,2.3-0.9c0.5-0.2,0.3-1-0.2-0.8c-0.8,0.3-1.7,0.7-2.5,1
			C99.3,73,99.7,73.7,100.2,73.5L100.2,73.5z"/>
	</g>
	<g>
		<path class="st2" d="M106.7,74.3c0.7-0.3,1.4-0.6,2.1-0.9c0.5-0.2,0.1-0.9-0.4-0.7c-0.7,0.3-1.4,0.6-2.1,0.9
			C105.8,73.7,106.2,74.4,106.7,74.3L106.7,74.3z"/>
	</g>
	<g>
		<path class="st2" d="M106.8,71.2c0.8-0.6,1.7-0.8,2.7-1c0.5-0.1,0.3-0.9-0.2-0.8c-1,0.2-2,0.5-2.9,1.1
			C106,70.8,106.3,71.5,106.8,71.2L106.8,71.2z"/>
	</g>
	<g>
		<path class="st2" d="M113.3,71.1c0.8-0.4,1.6-0.6,2.4-0.9c0.5-0.2,0.3-1-0.2-0.8c-0.9,0.3-1.7,0.6-2.6,1
			C112.5,70.6,112.9,71.3,113.3,71.1L113.3,71.1z"/>
	</g>
	<g>
		<path class="st2" d="M104.5,68.2c0.8-0.2,1.7-0.4,2.5-0.7c0.5-0.2,0.3-1-0.2-0.8c-0.8,0.3-1.6,0.6-2.5,0.7
			C103.8,67.5,104,68.3,104.5,68.2L104.5,68.2z"/>
	</g>
	<g>
		<path class="st2" d="M100.3,66.8c0.6-0.2,1.3-0.3,2-0.5c0.5-0.1,0.3-0.9-0.2-0.8c-0.6,0.2-1.3,0.3-2,0.5
			C99.6,66.2,99.8,67,100.3,66.8L100.3,66.8z"/>
	</g>
	<g>
		<path class="st2" d="M109.5,65.8c0.8-0.1,1.5-0.4,2.3-0.5c0.5-0.1,0.3-0.9-0.2-0.8c-0.8,0.2-1.5,0.4-2.3,0.5
			C108.8,65.1,109,65.9,109.5,65.8L109.5,65.8z"/>
	</g>
	<g>
		<path class="st2" d="M111.9,67.1c0.7-0.3,1.5-0.5,2.3-0.7c0.5-0.1,0.3-0.9-0.2-0.8c-0.8,0.2-1.7,0.5-2.5,0.8
			C111,66.6,111.4,67.3,111.9,67.1L111.9,67.1z"/>
	</g>
	<g>
		<path class="st2" d="M118.2,67.1c1-0.3,2-0.7,3-1.1c0.5-0.2,0.1-0.9-0.4-0.7c-0.9,0.4-1.8,0.7-2.8,1
			C117.5,66.4,117.6,67.2,118.2,67.1L118.2,67.1z"/>
	</g>
	<g>
		<path class="st2" d="M117,64.6c0.9,0,1.8-0.3,2.7-0.5c0.5-0.2,0.3-1-0.2-0.8c-0.8,0.3-1.6,0.5-2.5,0.5
			C116.5,63.8,116.5,64.6,117,64.6L117,64.6z"/>
	</g>
	<g>
		<path class="st2" d="M123,63.6c0.9-0.2,1.8-0.5,2.7-0.7c0.5-0.2,0.3-1-0.2-0.8c-0.9,0.3-1.8,0.6-2.7,0.7
			C122.2,62.9,122.4,63.7,123,63.6L123,63.6z"/>
	</g>
	<g>
		<path class="st2" d="M87.8,63.4c0.8-0.2,1.7-0.3,2.4-0.1c0.5,0.1,0.8-0.7,0.2-0.8c-0.9-0.2-2-0.1-2.9,0.1
			C87.1,62.8,87.3,63.6,87.8,63.4L87.8,63.4z"/>
	</g>
	<g>
		<path class="st2" d="M86.1,60.5c0.6,0,1.3-0.1,1.9-0.3c0.5-0.2,0.3-1-0.2-0.8c-0.5,0.2-1.1,0.3-1.6,0.2
			C85.6,59.7,85.6,60.5,86.1,60.5L86.1,60.5z"/>
	</g>
	<g>
		<path class="st2" d="M92,60.7c0.9-0.2,1.8-0.3,2.7-0.4c0.5,0,0.6-0.9,0-0.8c-1,0.1-1.9,0.2-2.9,0.4C91.3,60,91.5,60.8,92,60.7
			L92,60.7z"/>
	</g>
	<g>
		<path class="st2" d="M96.1,61.7c0.6-0.2,1.3-0.3,2-0.4c0.5-0.1,0.3-0.9-0.2-0.8c-0.7,0.1-1.3,0.2-2,0.4
			C95.4,61.1,95.6,61.9,96.1,61.7L96.1,61.7z"/>
	</g>
	<g>
		<path class="st2" d="M104,60.3c0.7-0.2,1.3-0.3,2-0.3c0.5,0,0.6-0.8,0-0.8c-0.8,0-1.5,0.2-2.3,0.4C103.3,59.6,103.5,60.4,104,60.3
			L104,60.3z"/>
	</g>
	<g>
		<path class="st2" d="M99,57.7c0.9,0,1.8,0,2.8,0c0.5,0,0.6-0.8,0-0.8c-0.9,0-1.8,0-2.8,0C98.5,56.9,98.5,57.7,99,57.7L99,57.7z"/>
	</g>
	<g>
		<path class="st2" d="M93.6,55.5c0.7,0,1.4-0.1,2.1-0.2c0.5-0.1,0.3-0.9-0.2-0.8c-0.6,0.1-1.2,0.1-1.8,0.1
			C93.1,54.7,93.1,55.5,93.6,55.5L93.6,55.5z"/>
	</g>
	<g>
		<path class="st2" d="M86.6,55.7c0.6,0,1.2,0,1.7-0.1c0.5-0.1,0.3-0.9-0.2-0.8c-0.5,0.1-1,0.1-1.5,0C86.1,54.9,86.1,55.7,86.6,55.7
			L86.6,55.7z"/>
	</g>
	<g>
		<path class="st2" d="M93.1,52.1c0.6,0,1.1,0.1,1.6,0.2c0.5,0.1,0.8-0.7,0.2-0.8c-0.6-0.1-1.2-0.2-1.8-0.3
			C92.6,51.3,92.6,52.1,93.1,52.1L93.1,52.1z"/>
	</g>
	<g>
		<path class="st2" d="M102.9,55.1c0.6,0.1,1.3,0.2,1.9,0.3c0.5,0,0.6-0.8,0-0.8c-0.6,0-1.2-0.1-1.7-0.2
			C102.6,54.2,102.3,55,102.9,55.1L102.9,55.1z"/>
	</g>
	<g>
		<path class="st2" d="M106,57.2c0.8,0,1.5,0,2.2,0.2c0.5,0.1,0.5-0.7,0-0.8c-0.7-0.1-1.5-0.1-2.2-0.2
			C105.5,56.4,105.4,57.2,106,57.2L106,57.2z"/>
	</g>
	<g>
		<path class="st2" d="M109.9,59.3c0.8-0.1,1.6-0.1,2.5,0c0.5,0,0.6-0.8,0-0.8c-0.8,0-1.6,0-2.5,0C109.4,58.5,109.4,59.3,109.9,59.3
			L109.9,59.3z"/>
	</g>
	<g>
		<path class="st2" d="M113.1,57.2c0.7,0,1.3,0.1,1.9,0.2c0.5,0.1,0.5-0.7,0-0.8c-0.6-0.1-1.3-0.1-1.9-0.2
			C112.6,56.4,112.6,57.2,113.1,57.2L113.1,57.2z"/>
	</g>
	<g>
		<path class="st2" d="M118.6,58.9c0.8,0,1.6,0,2.5,0.1c0.5,0,0.6-0.8,0-0.8c-0.8,0-1.6,0-2.5-0.1C118.1,58.1,118.1,58.9,118.6,58.9
			L118.6,58.9z"/>
	</g>
	<g>
		<path class="st2" d="M138.1,62.2c0.3,1,1,1.7,1.6,2.5c0.3,0.4,1,0,0.7-0.4c-0.5-0.8-1.2-1.4-1.5-2.3
			C138.8,61.5,138,61.6,138.1,62.2L138.1,62.2z"/>
	</g>
	<g>
		<path class="st2" d="M140,62.8c0.6,0.4,1.1,1,1.6,1.4c0.4,0.3,1-0.3,0.6-0.6c-0.6-0.5-1.1-1.1-1.8-1.6
			C140,61.8,139.5,62.5,140,62.8L140,62.8z"/>
	</g>
	<g>
		<path class="st2" d="M143.5,63.8c0.8,0.3,1.6,0.7,2.4,1c0.5,0.2,0.7-0.6,0.2-0.8c-0.8-0.3-1.6-0.7-2.4-1
			C143.2,62.9,143,63.7,143.5,63.8L143.5,63.8z"/>
	</g>
	<g>
		<path class="st2" d="M139.1,66.4c0.5,1,1.1,2,1.7,2.9c0.3,0.4,1,0.1,0.7-0.4c-0.6-0.9-1.1-1.9-1.7-2.9
			C139.6,65.5,138.8,65.9,139.1,66.4L139.1,66.4z"/>
	</g>
	<g>
		<path class="st2" d="M141.6,66.7c0.7,0.4,1.2,1,1.8,1.5c0.4,0.3,0.9-0.4,0.4-0.7c-0.6-0.5-1.1-1.1-1.8-1.5
			C141.5,65.7,141.1,66.4,141.6,66.7L141.6,66.7z"/>
	</g>
	<g>
		<path class="st2" d="M145.5,67.2c0.6,0.2,1.1,0.6,1.6,0.9c0.4,0.3,0.9-0.4,0.4-0.7c-0.6-0.4-1.2-0.8-1.8-1
			C145.3,66.2,145,67,145.5,67.2L145.5,67.2z"/>
	</g>
	<g>
		<path class="st2" d="M148.4,66c0.8,0.4,1.7,0.8,2.5,1.1c0.5,0.2,0.7-0.6,0.2-0.8c-0.9-0.3-1.7-0.7-2.5-1.1
			C148.2,65,147.9,65.8,148.4,66L148.4,66z"/>
	</g>
	<g>
		<path class="st2" d="M141.4,72.1c0.3,0.7,0.7,1.3,1,2c0.2,0.5,0.9,0.1,0.7-0.4c-0.3-0.7-0.7-1.3-1-2
			C141.9,71.2,141.1,71.6,141.4,72.1L141.4,72.1z"/>
	</g>
	<g>
		<path class="st2" d="M143.9,70.7c0.3,0.5,0.8,0.9,1.3,1.2c0.2,0.1,0.5,0,0.6-0.1c0.1-0.2,0-0.4-0.1-0.6c-0.4-0.3-0.8-0.7-1.1-1.1
			c-0.1-0.2-0.4-0.2-0.6,0C143.8,70.3,143.8,70.5,143.9,70.7L143.9,70.7z"/>
	</g>
	<g>
		<path class="st2" d="M147.5,70.3c0.7,0.4,1.4,0.9,2.1,1.3c0.5,0.3,0.9-0.4,0.4-0.7c-0.7-0.4-1.4-0.9-2.1-1.3
			C147.5,69.4,147,70.1,147.5,70.3L147.5,70.3z"/>
	</g>
	<g>
		<path class="st2" d="M151.4,69.6c0.8,0.4,1.6,0.7,2.4,0.8c0.5,0.1,0.8-0.7,0.2-0.8c-0.8-0.1-1.5-0.4-2.2-0.7
			C151.4,68.7,150.9,69.4,151.4,69.6L151.4,69.6z"/>
	</g>
	<g>
		<path class="st2" d="M155.5,68.7c0.8,0.2,1.6,0.4,2.4,0.6c0.5,0.1,0.8-0.6,0.2-0.8c-0.8-0.2-1.6-0.4-2.4-0.6
			C155.2,67.7,155,68.5,155.5,68.7L155.5,68.7z"/>
	</g>
	<g>
		<path class="st2" d="M161.2,70.4c0.7,0.2,1.3,0.6,2,0.9c0.5,0.2,0.9-0.5,0.4-0.7c-0.7-0.3-1.4-0.8-2.2-1
			C160.9,69.4,160.7,70.2,161.2,70.4L161.2,70.4z"/>
	</g>
	<g>
		<path class="st2" d="M143,76.5c0.2,0.8,0.5,1.7,1.2,2.3c0.4,0.4,1-0.2,0.6-0.6c-0.5-0.5-0.8-1.2-1-1.9
			C143.7,75.8,142.9,76,143,76.5L143,76.5z"/>
	</g>
	<g>
		<path class="st2" d="M144.7,74.6c0.5,0.4,0.8,0.9,1.1,1.5c0.3,0.5,1,0.1,0.7-0.4c-0.3-0.6-0.7-1.2-1.2-1.7
			C144.9,73.7,144.3,74.2,144.7,74.6L144.7,74.6z"/>
	</g>
	<g>
		<path class="st2" d="M148.1,77.4c0.4,0.5,0.8,1,1.2,1.5c0.4,0.4,1-0.2,0.6-0.6c-0.4-0.5-0.8-1-1.2-1.5c-0.1-0.2-0.4-0.2-0.6,0
			C148,77,148,77.3,148.1,77.4L148.1,77.4z"/>
	</g>
	<g>
		<path class="st2" d="M148.1,73.7c0.4,0.3,0.8,0.6,1.2,0.9c0.2,0.1,0.5,0,0.6-0.1c0.1-0.2,0-0.4-0.1-0.6c-0.4-0.3-0.8-0.6-1.2-0.9
			c-0.2-0.1-0.5,0-0.6,0.1C147.8,73.4,147.9,73.6,148.1,73.7L148.1,73.7z"/>
	</g>
	<g>
		<path class="st2" d="M153,76.4c0.4,0.3,0.9,0.7,1.3,1.1c0.2,0.1,0.5,0,0.6-0.1c0.1-0.2,0-0.4-0.1-0.6c-0.4-0.3-0.9-0.7-1.3-1.1
			c-0.2-0.1-0.5,0-0.6,0.1C152.8,76.1,152.9,76.3,153,76.4L153,76.4z"/>
	</g>
	<g>
		<path class="st2" d="M151.7,71.9c0.7,0.5,1.4,1.1,2.1,1.6c0.4,0.3,0.9-0.4,0.4-0.7c-0.7-0.5-1.4-1.1-2.1-1.6
			C151.7,70.9,151.3,71.6,151.7,71.9L151.7,71.9z"/>
	</g>
	<g>
		<path class="st2" d="M157.3,74.8c0.6,0.3,1.2,0.7,1.8,1c0.5,0.2,0.7-0.6,0.2-0.8c-0.6-0.3-1.2-0.7-1.8-1
			C157,73.8,156.8,74.6,157.3,74.8L157.3,74.8z"/>
	</g>
	<g>
		<path class="st2" d="M156.5,71.4c0.8,0.5,1.6,0.8,2.5,1c0.5,0.1,0.8-0.6,0.2-0.8c-0.8-0.2-1.6-0.5-2.3-0.9
			C156.4,70.4,156,71.1,156.5,71.4L156.5,71.4z"/>
	</g>
	<g>
		<path class="st2" d="M162.4,74.4c0.6,0.2,1.2,0.5,1.8,0.7c0.5,0.1,0.8-0.7,0.2-0.8c-0.6-0.1-1.2-0.4-1.8-0.7
			C162.1,73.4,161.9,74.2,162.4,74.4L162.4,74.4z"/>
	</g>
	<g>
		<path class="st2" d="M165.1,72.9c1,0.4,2.1,0.8,3,1.3c0.5,0.2,0.9-0.5,0.4-0.7c-1-0.5-2.2-0.9-3.2-1.4
			C164.8,71.9,164.6,72.7,165.1,72.9L165.1,72.9z"/>
	</g>
	<g>
		<path class="st2" d="M144.6,59.6c0.7,0,1.4,0,2.1,0.1c0.5,0,0.6-0.8,0-0.8c-0.7,0-1.4,0-2.1-0.1C144.1,58.7,144.1,59.6,144.6,59.6
			L144.6,59.6z"/>
	</g>
	<g>
		<path class="st2" d="M147.4,61.4c0.4,0,0.9,0,1.3,0.1c0.5,0.1,0.8-0.7,0.2-0.8c-0.5-0.1-1-0.1-1.5-0.2
			C146.9,60.6,146.9,61.4,147.4,61.4L147.4,61.4z"/>
	</g>
	<g>
		<path class="st2" d="M151.2,62.2c0.7,0.2,1.4,0.3,2.1,0.4c0.5,0.1,0.5-0.7,0-0.8c-0.6-0.1-1.3-0.1-1.9-0.3
			C150.9,61.2,150.7,62,151.2,62.2L151.2,62.2z"/>
	</g>
	<g>
		<path class="st2" d="M151.6,59.7c0.9,0,1.8,0.1,2.7,0.2c0.5,0,0.6-0.8,0-0.8c-0.9,0-1.8-0.1-2.7-0.2
			C151.1,58.8,151.1,59.7,151.6,59.7L151.6,59.7z"/>
	</g>
	<g>
		<path class="st2" d="M158,61.7c0.5,0.1,0.9,0.2,1.4,0.3c0.5,0.1,0.8-0.7,0.2-0.8c-0.5-0.1-0.9-0.2-1.4-0.3
			C157.7,60.8,157.4,61.6,158,61.7L158,61.7z"/>
	</g>
	<g>
		<path class="st2" d="M159.6,64.1c0.8,0.4,1.6,0.6,2.4,0.7c0.5,0.1,0.5-0.7,0-0.8c-0.8-0.1-1.5-0.3-2.2-0.7
			C159.4,63.1,159.2,63.9,159.6,64.1L159.6,64.1z"/>
	</g>
	<g>
		<path class="st2" d="M167.3,67.3c0.6,0.2,1.2,0.4,1.8,0.7c0.5,0.2,0.7-0.6,0.2-0.8c-0.6-0.2-1.2-0.4-1.8-0.7
			C167,66.3,166.8,67.1,167.3,67.3L167.3,67.3z"/>
	</g>
	<g>
		<path class="st2" d="M166.9,63.5c0.9,0.1,1.8,0.4,2.7,0.7c0.5,0.1,0.8-0.7,0.2-0.8c-1-0.3-1.9-0.6-3-0.7
			C166.4,62.6,166.4,63.4,166.9,63.5L166.9,63.5z"/>
	</g>
	<g>
		<path class="st2" d="M162.7,60.1c0.7,0,1.5,0,2.2,0.1c0.5,0,0.6-0.8,0-0.8c-0.7,0-1.5,0-2.2-0.1C162.2,59.3,162.2,60.1,162.7,60.1
			L162.7,60.1z"/>
	</g>
	<g>
		<path class="st2" d="M158.3,58.9c0.8-0.1,1.6-0.2,2.5-0.2c0.5,0,0.6-0.9,0-0.8c-0.8,0.1-1.6,0.2-2.5,0.2
			C157.8,58.1,157.7,58.9,158.3,58.9L158.3,58.9z"/>
	</g>
	<g>
		<path class="st2" d="M170.4,57.9c0.8,0,1.6,0,2.5,0.1c0.5,0,0.6-0.8,0-0.8c-0.8,0-1.6,0-2.5-0.1C169.9,57,169.9,57.9,170.4,57.9
			L170.4,57.9z"/>
	</g>
	<g>
		<path class="st2" d="M171.1,61c0.7,0,1.4,0,2.1,0.1c0.5,0,0.6-0.8,0-0.8c-0.7,0-1.4,0-2.1-0.1C170.6,60.1,170.5,60.9,171.1,61
			L171.1,61z"/>
	</g>
	<g>
		<path class="st2" d="M176.1,64.9c0.8,0,1.6,0,2.3,0.1c0.5,0,0.6-0.8,0-0.8c-0.8,0-1.6,0-2.3-0.1C175.6,64.1,175.5,64.9,176.1,64.9
			L176.1,64.9z"/>
	</g>
	<g>
		<path class="st2" d="M178.9,61.4c0.7,0.2,1.4,0.5,2.1,0.7c0.5,0.2,0.7-0.6,0.2-0.8c-0.7-0.2-1.4-0.5-2.1-0.7
			C178.7,60.4,178.4,61.2,178.9,61.4L178.9,61.4z"/>
	</g>
	<g>
		<path class="st2" d="M177.3,57.1c0.9,0.1,1.9,0.2,2.9,0.2c0.5,0,0.6-0.8,0-0.8c-1,0-1.9-0.1-2.9-0.2
			C176.8,56.2,176.8,57,177.3,57.1L177.3,57.1z"/>
	</g>
	<g>
		<path class="st2" d="M143,56.3c0.5-0.4,1.2-0.5,1.8-0.7c0.5-0.1,0.3-1-0.2-0.8c-0.7,0.2-1.6,0.3-2.1,0.9
			C142,56.1,142.6,56.7,143,56.3L143,56.3z"/>
	</g>
	<g>
		<path class="st2" d="M147.1,56.2c0.6-0.1,1.2-0.2,1.7-0.5c0.5-0.2,0.1-1-0.4-0.7c-0.5,0.3-1,0.3-1.5,0.4
			C146.4,55.4,146.6,56.2,147.1,56.2L147.1,56.2z"/>
	</g>
	<g>
		<path class="st2" d="M156.9,55.1c0.3-0.1,0.6-0.2,0.9-0.3c0.5-0.2,0.3-1-0.2-0.8c-0.3,0.1-0.6,0.2-0.9,0.3
			C156.2,54.5,156.4,55.3,156.9,55.1L156.9,55.1z"/>
	</g>
	<g>
		<path class="st2" d="M150.2,52.8c0.7-0.3,1.4-0.5,2.1-0.9c0.5-0.2,0.1-1-0.4-0.7c-0.7,0.3-1.4,0.6-2.1,0.9
			C149.3,52.3,149.7,53,150.2,52.8L150.2,52.8z"/>
	</g>
	<g>
		<path class="st2" d="M153.7,53.3c0.6-0.3,1.2-0.5,1.8-0.7c0.5-0.2,0.3-1-0.2-0.8c-0.7,0.2-1.3,0.5-2,0.8
			C152.8,52.8,153.2,53.6,153.7,53.3L153.7,53.3z"/>
	</g>
	<g>
		<path class="st2" d="M161.8,51.8c0.9-0.3,1.9-0.5,2.8-0.7c0.5-0.1,0.3-0.9-0.2-0.8c-0.9,0.3-1.9,0.4-2.8,0.7
			C161.1,51.2,161.3,52,161.8,51.8L161.8,51.8z"/>
	</g>
	<g>
		<path class="st2" d="M157.9,49.6c0.6-0.3,1.1-0.6,1.8-0.8c0.5-0.2,0.3-1-0.2-0.8c-0.7,0.2-1.3,0.6-2,0.9
			C157.1,49.1,157.5,49.8,157.9,49.6L157.9,49.6z"/>
	</g>
	<g>
		<path class="st2" d="M165.1,45.5c0.4,0,0.8-0.2,1.2-0.3c0.5-0.2,0.3-1-0.2-0.8c-0.3,0.1-0.7,0.3-1,0.3
			C164.6,44.6,164.6,45.5,165.1,45.5L165.1,45.5z"/>
	</g>
	<g>
		<path class="st2" d="M165.7,48.7c0.9-0.5,1.8-0.8,2.8-1c0.5-0.1,0.3-0.9-0.2-0.8c-1.1,0.2-2,0.6-3,1.1
			C164.8,48.2,165.2,48.9,165.7,48.7L165.7,48.7z"/>
	</g>
	<g>
		<path class="st2" d="M171.9,50.4c0.7-0.2,1.5-0.3,2.3-0.3c0.5-0.1,0.6-0.9,0-0.8c-0.8,0.1-1.7,0.2-2.5,0.4
			C171.2,49.8,171.4,50.6,171.9,50.4L171.9,50.4z"/>
	</g>
	<g>
		<path class="st2" d="M175.5,51.9c0.5-0.1,1.1-0.2,1.6-0.3c0.5-0.1,0.3-0.9-0.2-0.8c-0.5,0.1-1.1,0.2-1.6,0.3
			C174.8,51.2,175,52,175.5,51.9L175.5,51.9z"/>
	</g>
	<g>
		<path class="st2" d="M96.4,44.7c1,0.1,2,0.3,3,0.6c0.5,0.1,0.8-0.7,0.2-0.8c-1.1-0.3-2.1-0.6-3.3-0.6
			C95.9,43.8,95.9,44.6,96.4,44.7L96.4,44.7z"/>
	</g>
	<g>
		<path class="st2" d="M101.1,42.4c0.6,0.1,1.1,0.2,1.6,0.5c0.5,0.2,0.7-0.6,0.2-0.8c-0.5-0.2-1.1-0.3-1.6-0.5
			C100.8,41.6,100.6,42.3,101.1,42.4L101.1,42.4z"/>
	</g>
	<g>
		<path class="st2" d="M103.9,45.9c0.6,0.2,1.2,0.4,1.8,0.6c0.5,0.2,0.7-0.6,0.2-0.8c-0.6-0.2-1.2-0.4-1.8-0.6
			C103.7,44.9,103.4,45.7,103.9,45.9L103.9,45.9z"/>
	</g>
	<g>
		<path class="st2" d="M106.4,46.6c0.5,0,0.6-0.8,0-0.8C105.9,45.8,105.8,46.6,106.4,46.6L106.4,46.6z"/>
	</g>
	<g>
		<path class="st2" d="M111.1,48.8c0.5,0.3,1.1,0.4,1.6,0.4c0.5,0,0.6-0.8,0-0.8c-0.4,0-0.8-0.1-1.2-0.3
			C111.1,47.9,110.6,48.6,111.1,48.8L111.1,48.8z"/>
	</g>
	<g>
		<path class="st2" d="M108.7,44c0.8,0.3,1.6,0.8,2.4,1.1c0.5,0.2,0.7-0.6,0.2-0.8c-0.8-0.3-1.6-0.8-2.4-1.1
			C108.4,43,108.2,43.8,108.7,44L108.7,44z"/>
	</g>
	<g>
		<path class="st2" d="M107.9,39.3c0.4,0.4,0.9,0.7,1.4,0.9c0.2,0.1,0.5-0.1,0.5-0.3c0.1-0.2-0.1-0.4-0.3-0.5
			c-0.4-0.2-0.8-0.5-1.2-0.8c-0.2-0.1-0.5,0-0.6,0.1C107.7,39,107.7,39.2,107.9,39.3L107.9,39.3z"/>
	</g>
	<g>
		<path class="st2" d="M116.3,46c0.7,0.3,1.3,0.7,1.9,1c0.4,0.3,0.9-0.4,0.4-0.7c-0.7-0.4-1.4-0.8-2.1-1.1
			C116.1,45,115.8,45.8,116.3,46L116.3,46z"/>
	</g>
	<g>
		<path class="st2" d="M119,49.8c0.6,0.2,1.1,0.5,1.7,0.7c0.5,0.2,0.7-0.6,0.2-0.8c-0.6-0.2-1.2-0.4-1.7-0.7
			C118.7,48.8,118.5,49.6,119,49.8L119,49.8z"/>
	</g>
	<g>
		<path class="st2" d="M122.1,53.2c0.3,0.1,0.6,0.2,0.9,0.3c0.5,0.2,0.7-0.6,0.2-0.8c-0.3-0.1-0.6-0.2-0.9-0.3
			C121.9,52.2,121.6,53,122.1,53.2L122.1,53.2z"/>
	</g>
	<g>
		<path class="st2" d="M125.8,46.2c0.5,0.4,1,0.8,1.5,1.2c0.4,0.3,1-0.2,0.6-0.6c-0.5-0.4-1-0.8-1.5-1.2
			C126,45.3,125.4,45.9,125.8,46.2L125.8,46.2z"/>
	</g>
	<g>
		<path class="st2" d="M127.3,40.4c0.2,0.4,0.5,0.7,0.7,1.1c0.2,0.5,1,0.1,0.7-0.4c-0.2-0.4-0.4-0.8-0.7-1.1
			C127.7,39.5,127,39.9,127.3,40.4L127.3,40.4z"/>
	</g>
	<g>
		<path class="st2" d="M123.3,41.1c0.2,0.4,0.6,0.6,0.9,0.9c0.2,0.1,0.5,0.1,0.6-0.1c0.1-0.2,0.1-0.4-0.1-0.6
			c-0.2-0.2-0.5-0.3-0.7-0.6c-0.1-0.2-0.4-0.3-0.6-0.2C123.2,40.6,123.1,40.9,123.3,41.1L123.3,41.1z"/>
	</g>
	<g>
		<path class="st2" d="M132.2,41.9C132.2,41.9,132.2,42,132.2,41.9c0,0.1,0,0.2,0,0.1c0,0.1,0,0.3,0,0.4c0,0.2,0.2,0.4,0.4,0.4
			c0.2,0,0.4-0.2,0.4-0.4c0-0.3,0-0.6-0.1-0.9c-0.1-0.2-0.4-0.3-0.6-0.2C132.2,41.5,132.1,41.7,132.2,41.9L132.2,41.9z"/>
	</g>
	<g>
		<path class="st2" d="M131.4,46.9c0.1,0.5,0.3,1,0.5,1.5c0.2,0.5,1,0.3,0.8-0.2c-0.2-0.5-0.4-1-0.5-1.5
			C132.1,46.2,131.3,46.4,131.4,46.9L131.4,46.9z"/>
	</g>
	<g>
		<path class="st2" d="M131,51.6c0.2,0.4,0.4,0.8,0.7,1.1c0.4,0.4,1-0.2,0.6-0.6c-0.3-0.3-0.4-0.6-0.6-1
			C131.5,50.8,130.7,51.2,131,51.6L131,51.6z"/>
	</g>
	<g>
		<path class="st2" d="M134.3,48.3c0.1,0.3,0.2,0.7,0.2,1c0,0.5,0.8,0.6,0.8,0c0-0.4-0.1-0.8-0.2-1.2
			C135,47.6,134.2,47.8,134.3,48.3L134.3,48.3z"/>
	</g>
	<g>
		<path class="st2" d="M138.6,51.7c0.2-0.4,0.4-0.9,0.7-1.3c0.2-0.5-0.4-0.9-0.7-0.4c-0.2,0.4-0.4,0.9-0.7,1.3
			C137.6,51.8,138.3,52.2,138.6,51.7L138.6,51.7z"/>
	</g>
	<g>
		<path class="st2" d="M139.6,46.2c0.1-0.6,0.4-1.2,0.7-1.8c0.2-0.5-0.6-0.7-0.8-0.2c-0.2,0.6-0.5,1.2-0.7,1.8
			C138.7,46.5,139.5,46.8,139.6,46.2L139.6,46.2z"/>
	</g>
	<g>
		<path class="st2" d="M141.9,47.6c0.4-0.7,0.8-1.5,1.3-2.2c0.3-0.5-0.4-0.9-0.7-0.4c-0.4,0.7-0.8,1.5-1.3,2.2
			C140.9,47.7,141.6,48.1,141.9,47.6L141.9,47.6z"/>
	</g>
	<g>
		<path class="st2" d="M148.4,44.3c0.4-0.3,0.9-0.6,1.2-0.9c0.4-0.4-0.2-1-0.6-0.6c-0.3,0.3-0.7,0.6-1.1,0.8
			c-0.2,0.1-0.3,0.3-0.2,0.6C147.9,44.3,148.2,44.4,148.4,44.3L148.4,44.3z"/>
	</g>
	<g>
		<path class="st2" d="M153.3,44.5c0.7-0.4,1.4-0.8,2.1-1.3c0.4-0.3-0.1-0.9-0.6-0.6c-0.6,0.5-1.2,0.9-1.9,1.2
			C152.4,44.1,152.8,44.8,153.3,44.5L153.3,44.5z"/>
	</g>
	<g>
		<path class="st2" d="M145,48.6c0.6-0.4,1.2-0.8,1.8-1.2c0.4-0.3,0.1-1-0.4-0.7c-0.7,0.4-1.3,0.8-2,1.3
			C144.1,48.4,144.6,49,145,48.6L145,48.6z"/>
	</g>
	<g>
		<path class="st2" d="M140.8,53.5c0.4-0.4,0.8-0.8,1.2-1.2c0.4-0.4-0.2-1-0.6-0.6c-0.4,0.4-0.8,0.8-1.2,1.2
			C139.9,53.3,140.4,53.9,140.8,53.5L140.8,53.5z"/>
	</g>
	<g>
		<path class="st2" d="M142.2,37.5c-0.1,0.4-0.2,0.8-0.3,1.2c-0.1,0.5,0.6,0.8,0.8,0.2c0.1-0.4,0.2-0.8,0.3-1.2
			C143.2,37.2,142.4,37,142.2,37.5L142.2,37.5z"/>
	</g>
	<g>
		<path class="st2" d="M159.6,41.5c0.5-0.2,0.9-0.4,1.3-0.7c0.4-0.4-0.2-1-0.6-0.6c-0.3,0.3-0.8,0.4-1.2,0.6
			C158.7,41,159.1,41.7,159.6,41.5L159.6,41.5z"/>
	</g>
	<path class="st5" d="M101.7,74.7c4.9,1.8,18.6,9.3,52.2,3.8c17.1-2.8,23.8-9.8,26.4-13.2c3.7-4.8,2.3-9.6-1.2-14.3
		c-1.8-2.4-4.7-4.3-7.8-5.7c-7.9-3.7-17.4-3.6-19.8-2.7c-3.7,1.4-2.8,3.7-0.2,5.4c2.4,1.6,15.2,4.7,11.5,10.7
		c-1.8,2.9-15,6.5-22,8.1c-5.2,1.2-14.6,2-20.2,3c-6.3,1.2-10.7,0-17.1,0.6c-1.6,0.1-4.2,0.6-4.5,2.1
		C98.8,73.5,100.6,74.2,101.7,74.7z"/>
	<path class="st0" d="M136.2,47.1c-1.5-4.7-7.1-12.2-7.1-12.2s-50.9,6.9-66,12.8c-15.1,6-45.6,21.5-45.6,21.5s0.7,12.3,3.9,14.9
		c3.2,2.6,20.4,19.2,67.5,5.3C135.3,75.8,138.3,53.6,136.2,47.1z"/>
	<path class="st1" d="M132.1,39.5c-7.7-4.5-16.3,3.2-24.7,8.3c-7,4.2-12.8,9.6-16.4,15.8c-0.7,1.2-2.3,3.5-1.6,4.7
		c0.5,1,2,1.3,2.9-0.2l-0.6,1.2c6,0.3-0.1,17.5-2.6,19.7c-1.8,1.6,8.8-2.1,12.5-3.4c13.8-5.2,26.2-15.7,31.7-23.5
		c1.7-2.4,3-7.3,3.3-10.3C136.6,48.9,135.3,41.4,132.1,39.5z"/>
	
		<ellipse transform="matrix(0.9706 -0.2407 0.2407 0.9706 -11.0565 19.6347)" class="st2" cx="74.9" cy="55.1" rx="59.2" ry="29.5"/>
	
		<ellipse transform="matrix(0.9706 -0.2407 0.2407 0.9706 -11.0008 19.6843)" class="st3" cx="75.1" cy="54.9" rx="56.7" ry="28.1"/>
	<ellipse transform="matrix(0.9706 -0.2407 0.2407 0.9706 -10.7298 19.645)" class="st4" cx="75.1" cy="53.7" rx="51.1" ry="24.1"/>
	<ellipse transform="matrix(0.9706 -0.2407 0.2407 0.9706 -10.9133 19.7999)" class="st3" cx="75.6" cy="54.6" rx="5.4" ry="1.7"/>
	<polygon class="st3" points="75.8,54.5 102.2,26.8 103.6,27.5 76.8,54.5 	"/>
	<polygon class="st3" points="72.4,29.1 75.4,54.2 76.7,54 74.1,28.2 	"/>
	<polygon class="st3" points="46.6,37.8 75.4,54.2 75.1,54.9 44.4,39.2 	"/>
	<polygon class="st3" points="26.7,54.1 75.1,54.9 75.3,55.2 25.8,55.8 	"/>
	<polygon class="st3" points="29.4,75.1 74.1,54.9 75.1,54.9 31.3,76.2 	"/>
	<polygon class="st3" points="54.6,82.1 74.9,55.1 76.2,55 57,82.5 	"/>
	<polygon class="st3" points="76.8,54.5 88.8,77.5 90.5,76.8 77.3,54.2 	"/>
	<polygon class="st3" points="78.2,53.8 122.7,55.9 121.8,57.8 77.3,54.4 	"/>
	<path class="st3" d="M122.7,34.8c-0.4,0.3-46.3,19.3-46.3,19.3l0,0.6l48-18.7L122.7,34.8z"/>
	<g>
		<path class="st2" d="M74.4,59.3c-0.3,0.8-0.6,1.6-1,2.5c-0.2,0.5,0.6,0.7,0.8,0.2c0.3-0.8,0.7-1.6,1-2.5
			C75.4,59.1,74.6,58.8,74.4,59.3L74.4,59.3z"/>
	</g>
	<g>
		<path class="st2" d="M75.9,60c-0.2,0.8-0.2,1.7-0.1,2.5c0.1,0.5,0.9,0.3,0.8-0.2c-0.1-0.7-0.1-1.4,0-2.1
			C76.8,59.7,76,59.5,75.9,60L75.9,60z"/>
	</g>
	<g>
		<path class="st2" d="M77.6,60.6c0.2,0.9,0.7,1.7,0.8,2.6c0,0.5,0.9,0.6,0.8,0c-0.1-1-0.5-1.9-0.8-2.9
			C78.3,59.9,77.5,60.1,77.6,60.6L77.6,60.6z"/>
	</g>
	<g>
		<path class="st2" d="M72.3,64.4c-0.5,0.9-0.9,1.8-1.3,2.7c-0.2,0.5,0.5,0.9,0.7,0.4c0.5-0.9,0.8-1.9,1.3-2.7
			C73.3,64.4,72.6,63.9,72.3,64.4L72.3,64.4z"/>
	</g>
	<g>
		<path class="st2" d="M74.4,64.4c-0.2,0.7-0.5,1.5-0.5,2.2c0,0.5,0.8,0.5,0.8,0c0-0.7,0.3-1.4,0.5-2C75.3,64.1,74.5,63.9,74.4,64.4
			L74.4,64.4z"/>
	</g>
	<g>
		<path class="st2" d="M77.1,65.1c-0.1,0.9,0.1,1.9,0.3,2.8c0.1,0.5,0.9,0.3,0.8-0.2c-0.1-0.9-0.3-1.7-0.2-2.6
			C78,64.6,77.2,64.5,77.1,65.1L77.1,65.1z"/>
	</g>
	<g>
		<path class="st2" d="M80,66.2c0.4,0.6,0.8,1.2,1,2c0.1,0.5,0.9,0.3,0.8-0.2c-0.2-0.8-0.7-1.5-1.1-2.2C80.5,65.3,79.8,65.7,80,66.2
			L80,66.2z"/>
	</g>
	<g>
		<path class="st2" d="M75.5,69.2c-0.2,0.9-0.3,1.8-0.3,2.7c0,0.5,0.8,0.6,0.8,0c0-0.8,0.1-1.7,0.3-2.5
			C76.4,68.9,75.6,68.7,75.5,69.2L75.5,69.2z"/>
	</g>
	<g>
		<path class="st2" d="M72.4,68.8c-0.3,0.7-0.5,1.4-0.9,2.1c-0.2,0.5,0.5,0.9,0.7,0.4c0.4-0.8,0.7-1.5,1-2.3
			C73.4,68.5,72.6,68.3,72.4,68.8L72.4,68.8z"/>
	</g>
	<g>
		<path class="st2" d="M69.3,68.9c-0.4,0.2-0.6,0.6-0.8,1c-0.3,0.5-0.5,1-0.8,1.4c-0.3,0.5,0.4,0.9,0.7,0.4c0.2-0.4,0.4-0.8,0.6-1.1
			c0.2-0.3,0.4-0.8,0.6-1C70.2,69.4,69.8,68.6,69.3,68.9L69.3,68.9z"/>
	</g>
	<g>
		<path class="st2" d="M65,73.1c-0.7,0.9-1.1,2-1.6,3c-0.2,0.5,0.5,0.9,0.7,0.4c0.5-1,0.9-2.1,1.6-3C66.1,73.2,65.4,72.7,65,73.1
			L65,73.1z"/>
	</g>
	<g>
		<path class="st2" d="M66.5,75.1c-0.3,0.8-0.7,1.5-0.9,2.3c-0.2,0.5,0.6,0.7,0.8,0.2c0.2-0.8,0.6-1.5,0.9-2.3
			C67.5,74.8,66.7,74.6,66.5,75.1L66.5,75.1z"/>
	</g>
	<g>
		<path class="st2" d="M69.7,73.7c-0.1,1,0,2-0.2,3c-0.1,0.5,0.7,0.8,0.8,0.2c0.2-1.1,0.1-2.1,0.2-3.2
			C70.5,73.1,69.7,73.1,69.7,73.7L69.7,73.7z"/>
	</g>
	<g>
		<path class="st2" d="M73.7,73c0.2,0.7,0.4,1.5,0.5,2.2c0.1,0.5,0.9,0.3,0.8-0.2c-0.2-0.7-0.4-1.5-0.5-2.2
			C74.4,72.3,73.6,72.5,73.7,73L73.7,73z"/>
	</g>
	<g>
		<path class="st2" d="M78.3,71.3c0,1.1,0.5,2.1,0.7,3.1c0.1,0.5,0.9,0.3,0.8-0.2c-0.2-0.9-0.7-1.9-0.7-2.9
			C79.1,70.8,78.2,70.8,78.3,71.3L78.3,71.3z"/>
	</g>
	<g>
		<path class="st2" d="M81.6,70.7c0.5,1.3,1.5,2.4,2.3,3.6c0.3,0.4,1,0,0.7-0.4c-0.7-1.1-1.7-2.1-2.2-3.3
			C82.2,70,81.4,70.2,81.6,70.7L81.6,70.7z"/>
	</g>
	<g>
		<path class="st2" d="M82.9,70c0.2,0.6,0.7,1.2,1,1.8c0.2,0.5,0.9,0.1,0.7-0.4c-0.2-0.3-0.3-0.6-0.5-0.9c-0.1-0.1-0.2-0.3-0.2-0.4
			c0-0.1-0.1-0.1-0.1-0.2c0,0-0.1-0.2,0,0C83.5,69.3,82.7,69.5,82.9,70L82.9,70z"/>
	</g>
	<g>
		<path class="st2" d="M37.6,75.2c1.4-0.5,2.8-1.3,4.1-2c0.5-0.2,0.1-1-0.4-0.7c-1.2,0.6-2.8,1.5-3.9,1.9
			C36.9,74.6,37.1,75.4,37.6,75.2L37.6,75.2z"/>
	</g>
	<g>
		<path class="st2" d="M39.7,76c0.7-0.4,1.4-0.8,2-1.1c0.5-0.3,0.1-1-0.4-0.7c-0.7,0.4-1.4,0.8-2,1.1C38.9,75.6,39.3,76.3,39.7,76
			L39.7,76z"/>
	</g>
	<g>
		<path class="st2" d="M45.2,75.9c0.7-0.5,1.5-1,2.3-1.3c0.5-0.2,0.3-1-0.2-0.8c-0.9,0.3-1.7,0.8-2.5,1.4
			C44.3,75.5,44.7,76.2,45.2,75.9L45.2,75.9z"/>
	</g>
	<g>
		<path class="st2" d="M46.7,78.1c0.7-0.5,1.3-1,1.9-1.5c0.4-0.3,0-1-0.4-0.7c-0.7,0.5-1.4,1.1-2.1,1.6
			C45.7,77.8,46.2,78.4,46.7,78.1L46.7,78.1z"/>
	</g>
	<g>
		<path class="st2" d="M53.1,77c0.6-0.5,1.2-0.9,1.8-1.4c0.4-0.3-0.2-0.9-0.6-0.6c-0.6,0.5-1.2,0.9-1.8,1.4
			C52.1,76.7,52.7,77.3,53.1,77L53.1,77z"/>
	</g>
	<g>
		<path class="st2" d="M52.4,74c0.6-0.7,1.5-1.3,2.3-1.7c0.5-0.2,0.1-1-0.4-0.7c-0.9,0.5-1.8,1-2.5,1.8C51.5,73.8,52,74.4,52.4,74
			L52.4,74z"/>
	</g>
	<g>
		<path class="st2" d="M58.7,72.1c0.7-0.5,1.3-1,2-1.5c0.4-0.3,0-1-0.4-0.7c-0.8,0.5-1.5,1.1-2.2,1.6C57.7,71.9,58.3,72.5,58.7,72.1
			L58.7,72.1z"/>
	</g>
	<g>
		<path class="st2" d="M49.4,71.7c0.8-0.4,1.5-0.9,2.2-1.4c0.4-0.3,0-1-0.4-0.7c-0.7,0.5-1.4,1-2.2,1.4C48.5,71.3,48.9,72,49.4,71.7
			L49.4,71.7z"/>
	</g>
	<g>
		<path class="st2" d="M44.9,71.6c0.6-0.4,1.2-0.6,1.8-1c0.5-0.3,0-1-0.4-0.7c-0.6,0.4-1.2,0.6-1.8,1C44.1,71.1,44.5,71.9,44.9,71.6
			L44.9,71.6z"/>
	</g>
	<g>
		<path class="st2" d="M53.6,68.1c0.7-0.3,1.4-0.7,2-1.1c0.5-0.3,0.1-1-0.4-0.7c-0.7,0.4-1.3,0.8-2,1.1
			C52.7,67.6,53.1,68.3,53.6,68.1L53.6,68.1z"/>
	</g>
	<g>
		<path class="st2" d="M56.2,68.7c0.6-0.5,1.3-0.9,2-1.3c0.5-0.3,0.1-1-0.4-0.7c-0.8,0.4-1.5,0.9-2.2,1.4
			C55.2,68.5,55.8,69,56.2,68.7L56.2,68.7z"/>
	</g>
	<g>
		<path class="st2" d="M62.2,67c0.9-0.6,1.8-1.2,2.6-1.8c0.4-0.3-0.2-0.9-0.6-0.6c-0.8,0.6-1.6,1.2-2.4,1.7
			C61.4,66.5,61.8,67.3,62.2,67L62.2,67z"/>
	</g>
	<g>
		<path class="st2" d="M60.4,64.9c0.9-0.2,1.7-0.7,2.4-1.3c0.4-0.3,0-1-0.4-0.7c-0.7,0.5-1.4,0.9-2.2,1.2
			C59.7,64.2,59.9,65,60.4,64.9L60.4,64.9z"/>
	</g>
	<g>
		<path class="st2" d="M65.9,62.4c0.8-0.4,1.6-0.9,2.4-1.4c0.4-0.3,0-1-0.4-0.7c-0.8,0.5-1.6,1-2.4,1.4
			C65.1,61.9,65.5,62.6,65.9,62.4L65.9,62.4z"/>
	</g>
	<g>
		<path class="st2" d="M32,71.6c0.7-0.4,1.5-0.8,2.3-0.8c0.5,0,0.6-0.8,0-0.8c-1,0-1.9,0.4-2.7,0.9C31.2,71.2,31.6,71.9,32,71.6
			L32,71.6z"/>
	</g>
	<g>
		<path class="st2" d="M29.6,69.3c0.6-0.2,1.2-0.4,1.7-0.8c0.4-0.3,0-1-0.4-0.7c-0.5,0.3-1,0.5-1.5,0.7
			C28.9,68.6,29.1,69.4,29.6,69.3L29.6,69.3z"/>
	</g>
	<g>
		<path class="st2" d="M35.3,67.9c0.8-0.4,1.6-0.8,2.5-1.1c0.5-0.2,0.3-1-0.2-0.8c-0.9,0.3-1.8,0.7-2.7,1.2
			C34.4,67.4,34.8,68.1,35.3,67.9L35.3,67.9z"/>
	</g>
	<g>
		<path class="st2" d="M39.6,67.7c0.6-0.3,1.2-0.6,1.8-0.9c0.5-0.2,0.1-0.9-0.4-0.7c-0.6,0.3-1.2,0.5-1.8,0.9
			C38.7,67.3,39.1,68,39.6,67.7L39.6,67.7z"/>
	</g>
	<g>
		<path class="st2" d="M46.8,64.3c0.6-0.4,1.2-0.7,1.9-0.9c0.5-0.1,0.3-0.9-0.2-0.8c-0.8,0.2-1.4,0.6-2.1,1
			C46,63.8,46.4,64.5,46.8,64.3L46.8,64.3z"/>
	</g>
	<g>
		<path class="st2" d="M41.3,63.1c0.9-0.2,1.8-0.5,2.7-0.8c0.5-0.1,0.3-0.9-0.2-0.8c-0.9,0.2-1.8,0.5-2.7,0.8
			C40.6,62.5,40.8,63.3,41.3,63.1L41.3,63.1z"/>
	</g>
	<g>
		<path class="st2" d="M35.5,62.5c0.7-0.2,1.3-0.4,1.9-0.7c0.5-0.2,0.1-0.9-0.4-0.7c-0.6,0.2-1.1,0.5-1.7,0.6
			C34.8,61.8,35,62.6,35.5,62.5L35.5,62.5z"/>
	</g>
	<g>
		<path class="st2" d="M28.8,64.5c0.6-0.1,1.1-0.3,1.7-0.5c0.5-0.2,0.1-0.9-0.4-0.7c-0.5,0.2-1,0.3-1.5,0.5
			C28.1,63.9,28.3,64.7,28.8,64.5L28.8,64.5z"/>
	</g>
	<g>
		<path class="st2" d="M34.1,59.3c0.5-0.1,1.1-0.2,1.6-0.2c0.5,0,0.6-0.8,0-0.8c-0.6,0-1.2,0.1-1.8,0.2
			C33.4,58.7,33.6,59.5,34.1,59.3L34.1,59.3z"/>
	</g>
	<g>
		<path class="st2" d="M44.3,59.5c0.7-0.1,1.3-0.1,1.9-0.3c0.5-0.1,0.3-0.9-0.2-0.8c-0.6,0.1-1.1,0.2-1.7,0.2
			C43.8,58.8,43.7,59.6,44.3,59.5L44.3,59.5z"/>
	</g>
	<g>
		<path class="st2" d="M47.8,60.8c0.7-0.2,1.5-0.4,2.2-0.4c0.5-0.1,0.3-0.9-0.2-0.8c-0.7,0.1-1.5,0.3-2.2,0.4
			C47.1,60.1,47.3,60.9,47.8,60.8L47.8,60.8z"/>
	</g>
	<g>
		<path class="st2" d="M52.2,61.7c0.8-0.3,1.6-0.5,2.4-0.7c0.5-0.1,0.3-0.9-0.2-0.8c-0.8,0.2-1.6,0.4-2.4,0.7
			C51.5,61.1,51.7,61.9,52.2,61.7L52.2,61.7z"/>
	</g>
	<g>
		<path class="st2" d="M54.7,58.8c0.6-0.2,1.3-0.3,1.9-0.4c0.5-0.1,0.3-0.9-0.2-0.8c-0.6,0.1-1.3,0.2-1.9,0.4
			C54,58.2,54.2,59,54.7,58.8L54.7,58.8z"/>
	</g>
	<g>
		<path class="st2" d="M60.5,59c0.8-0.2,1.6-0.4,2.4-0.6c0.5-0.1,0.3-0.9-0.2-0.8c-0.8,0.2-1.6,0.4-2.4,0.6
			C59.7,58.3,59.9,59.1,60.5,59L60.5,59z"/>
	</g>
	<g>
		<path class="st2" d="M80.1,56.9c0.6,0.9,1.4,1.3,2.2,2c0.4,0.3,1-0.2,0.6-0.6c-0.7-0.6-1.6-1-2.1-1.8C80.6,56,79.8,56.4,80.1,56.9
			L80.1,56.9z"/>
	</g>
	<g>
		<path class="st2" d="M82.1,56.9c0.7,0.2,1.3,0.7,2,0.9c0.5,0.2,0.9-0.5,0.4-0.7c-0.7-0.3-1.4-0.8-2.2-1
			C81.8,56,81.6,56.8,82.1,56.9L82.1,56.9z"/>
	</g>
	<g>
		<path class="st2" d="M85.7,57c0.9,0,1.7,0.2,2.6,0.3c0.5,0.1,0.5-0.8,0-0.8c-0.9-0.1-1.7-0.3-2.6-0.3C85.2,56.2,85.2,57,85.7,57
			L85.7,57z"/>
	</g>
	<g>
		<path class="st2" d="M82.2,60.7c0.8,0.8,1.6,1.6,2.4,2.4c0.4,0.4,1-0.2,0.6-0.6c-0.8-0.8-1.6-1.5-2.4-2.4
			C82.4,59.7,81.8,60.3,82.2,60.7L82.2,60.7z"/>
	</g>
	<g>
		<path class="st2" d="M84.7,60.3c0.8,0.2,1.4,0.7,2.1,0.9c0.5,0.2,0.7-0.6,0.2-0.8c-0.7-0.3-1.4-0.8-2.1-0.9
			C84.4,59.4,84.2,60.2,84.7,60.3L84.7,60.3z"/>
	</g>
	<g>
		<path class="st2" d="M88.6,59.7c0.6,0.1,1.2,0.3,1.8,0.5c0.5,0.2,0.7-0.6,0.2-0.8c-0.7-0.2-1.3-0.4-2-0.5
			C88.1,58.8,88.1,59.6,88.6,59.7L88.6,59.7z"/>
	</g>
	<g>
		<path class="st2" d="M91.1,57.8c0.9,0.1,1.8,0.3,2.7,0.4c0.5,0,0.5-0.8,0-0.8c-0.9-0.1-1.8-0.3-2.7-0.4
			C90.6,56.9,90.6,57.8,91.1,57.8L91.1,57.8z"/>
	</g>
	<g>
		<path class="st2" d="M85.9,65.5c0.5,0.6,1,1.1,1.5,1.6c0.3,0.4,0.9-0.2,0.6-0.6c-0.5-0.6-1-1.1-1.5-1.6
			C86.2,64.6,85.6,65.1,85.9,65.5L85.9,65.5z"/>
	</g>
	<g>
		<path class="st2" d="M88,63.5c0.5,0.4,1,0.6,1.6,0.8c0.2,0.1,0.5-0.1,0.5-0.3c0.1-0.2-0.1-0.4-0.3-0.5c-0.5-0.2-1-0.4-1.4-0.8
			c-0.2-0.1-0.5,0-0.6,0.1C87.7,63.2,87.8,63.4,88,63.5L88,63.5z"/>
	</g>
	<g>
		<path class="st2" d="M91.4,62.2c0.8,0.2,1.6,0.4,2.4,0.7c0.5,0.1,0.7-0.6,0.2-0.8c-0.8-0.2-1.6-0.4-2.4-0.7
			C91.1,61.3,90.8,62.1,91.4,62.2L91.4,62.2z"/>
	</g>
	<g>
		<path class="st2" d="M94.9,60.5c0.9,0.1,1.7,0.2,2.6,0.1c0.5-0.1,0.5-0.9,0-0.8c-0.8,0.1-1.6,0-2.3-0.1
			C94.6,59.6,94.4,60.4,94.9,60.5L94.9,60.5z"/>
	</g>
	<g>
		<path class="st2" d="M98.6,58.5c0.8,0,1.7-0.1,2.5-0.1c0.5,0,0.6-0.8,0-0.8c-0.8,0-1.7,0.1-2.5,0.1C98.1,57.7,98.1,58.5,98.6,58.5
			L98.6,58.5z"/>
	</g>
	<g>
		<path class="st2" d="M104.6,58.6c0.7,0,1.5,0.2,2.2,0.4c0.5,0.1,0.8-0.7,0.2-0.8c-0.8-0.1-1.6-0.4-2.4-0.4
			C104,57.7,104,58.6,104.6,58.6L104.6,58.6z"/>
	</g>
	<g>
		<path class="st2" d="M88.7,69.4c0.4,0.7,1,1.5,1.7,1.9c0.5,0.2,0.9-0.5,0.4-0.7c-0.7-0.3-1.1-0.9-1.4-1.6
			C89.2,68.5,88.5,68.9,88.7,69.4L88.7,69.4z"/>
	</g>
	<g>
		<path class="st2" d="M89.8,67.1c0.6,0.3,1,0.7,1.5,1.1c0.4,0.4,1-0.2,0.6-0.6c-0.5-0.5-1-1-1.6-1.3C89.8,66.1,89.4,66.8,89.8,67.1
			L89.8,67.1z"/>
	</g>
	<g>
		<path class="st2" d="M93.9,68.9c0.5,0.4,1,0.8,1.5,1.1c0.5,0.3,0.9-0.4,0.4-0.7c-0.5-0.3-1-0.7-1.5-1.1c-0.2-0.1-0.5,0-0.6,0.1
			C93.6,68.6,93.7,68.8,93.9,68.9L93.9,68.9z"/>
	</g>
	<g>
		<path class="st2" d="M92.9,65.3c0.5,0.2,0.9,0.3,1.4,0.5c0.2,0.1,0.5-0.1,0.5-0.3c0.1-0.2-0.1-0.4-0.3-0.5
			c-0.5-0.2-0.9-0.3-1.4-0.5c-0.2-0.1-0.5,0.1-0.5,0.3C92.5,65.1,92.7,65.2,92.9,65.3L92.9,65.3z"/>
	</g>
	<g>
		<path class="st2" d="M98.3,66.6c0.5,0.2,1,0.5,1.5,0.7c0.2,0.1,0.5-0.1,0.5-0.3c0.1-0.2-0.1-0.4-0.3-0.5c-0.5-0.2-1-0.5-1.5-0.7
			c-0.2-0.1-0.5,0.1-0.5,0.3C98,66.3,98.1,66.5,98.3,66.6L98.3,66.6z"/>
	</g>
	<g>
		<path class="st2" d="M95.9,62.6c0.8,0.3,1.6,0.7,2.5,1c0.5,0.2,0.7-0.6,0.2-0.8c-0.8-0.3-1.6-0.6-2.5-1
			C95.6,61.6,95.4,62.4,95.9,62.6L95.9,62.6z"/>
	</g>
	<g>
		<path class="st2" d="M102,63.9c0.7,0.1,1.3,0.4,2,0.4c0.5,0.1,0.5-0.8,0-0.8c-0.7-0.1-1.3-0.4-2-0.4C101.5,63,101.4,63.8,102,63.9
			L102,63.9z"/>
	</g>
	<g>
		<path class="st2" d="M100.3,60.9c0.9,0.3,1.8,0.3,2.7,0.3c0.5,0,0.6-0.8,0-0.8c-0.9,0-1.7,0-2.5-0.3
			C100,59.9,99.8,60.7,100.3,60.9L100.3,60.9z"/>
	</g>
	<g>
		<path class="st2" d="M106.8,62.1c0.6,0.1,1.3,0.2,1.9,0.2c0.5,0,0.6-0.9,0-0.8c-0.6,0-1.3-0.1-1.9-0.2
			C106.3,61.3,106.3,62.1,106.8,62.1L106.8,62.1z"/>
	</g>
	<g>
		<path class="st2" d="M109,60c1.1,0.1,2.2,0.2,3.3,0.4c0.5,0.1,0.8-0.7,0.2-0.8c-1.1-0.2-2.3-0.3-3.5-0.4
			C108.5,59.1,108.5,59.9,109,60L109,60z"/>
	</g>
	<g>
		<path class="st2" d="M85.7,52.6c0.7-0.2,1.4-0.3,2.1-0.5c0.5-0.1,0.3-0.9-0.2-0.8c-0.7,0.2-1.4,0.3-2.1,0.5
			C85,52,85.2,52.8,85.7,52.6L85.7,52.6z"/>
	</g>
	<g>
		<path class="st2" d="M88.9,53.6c0.4-0.1,0.9-0.2,1.3-0.2c0.5,0,0.6-0.9,0-0.8c-0.5,0-1,0.1-1.5,0.3C88.2,53,88.4,53.8,88.9,53.6
			L88.9,53.6z"/>
	</g>
	<g>
		<path class="st2" d="M92.7,53.4c0.7,0,1.4-0.1,2.2-0.2c0.5-0.1,0.3-0.9-0.2-0.8c-0.6,0.1-1.3,0.2-1.9,0.2
			C92.2,52.6,92.2,53.4,92.7,53.4L92.7,53.4z"/>
	</g>
	<g>
		<path class="st2" d="M92.4,50.9c0.9-0.2,1.7-0.3,2.6-0.5c0.5-0.1,0.3-0.9-0.2-0.8c-0.9,0.2-1.7,0.3-2.6,0.5
			C91.7,50.2,91.9,51,92.4,50.9L92.4,50.9z"/>
	</g>
	<g>
		<path class="st2" d="M99.1,51.1c0.5,0,1,0,1.5,0c0.5,0,0.6-0.8,0-0.8c-0.5,0-1,0-1.5,0C98.6,50.3,98.6,51.1,99.1,51.1L99.1,51.1z"
			/>
	</g>
	<g>
		<path class="st2" d="M101.4,53c0.8,0.1,1.7,0.1,2.5,0c0.5-0.1,0.3-0.9-0.2-0.8c-0.8,0.1-1.6,0.1-2.3,0
			C100.9,52,100.9,52.9,101.4,53L101.4,53z"/>
	</g>
	<g>
		<path class="st2" d="M109.6,54c0.6,0.1,1.3,0.1,1.9,0.2c0.5,0,0.5-0.8,0-0.8c-0.6-0.1-1.3-0.1-1.9-0.2
			C109.1,53.1,109.1,53.9,109.6,54L109.6,54z"/>
	</g>
	<g>
		<path class="st2" d="M108.2,50.4c0.9-0.1,1.9-0.1,2.8-0.1c0.5,0,0.6-0.8,0-0.8c-1,0-2,0-3,0.1C107.5,49.7,107.7,50.5,108.2,50.4
			L108.2,50.4z"/>
	</g>
	<g>
		<path class="st2" d="M103.3,48.3c0.7-0.2,1.5-0.4,2.2-0.5c0.5-0.1,0.3-0.9-0.2-0.8c-0.7,0.2-1.5,0.4-2.2,0.5
			C102.6,47.6,102.8,48.4,103.3,48.3L103.3,48.3z"/>
	</g>
	<g>
		<path class="st2" d="M98.6,48.3c0.8-0.3,1.5-0.6,2.3-0.9c0.5-0.2,0.3-1-0.2-0.8c-0.8,0.3-1.5,0.6-2.3,0.9
			C98,47.7,98.1,48.5,98.6,48.3L98.6,48.3z"/>
	</g>
	<g>
		<path class="st2" d="M110.1,44.1c0.8-0.2,1.6-0.4,2.4-0.6c0.5-0.1,0.3-0.9-0.2-0.8c-0.8,0.2-1.6,0.4-2.4,0.6
			C109.4,43.4,109.6,44.2,110.1,44.1L110.1,44.1z"/>
	</g>
	<g>
		<path class="st2" d="M111.6,46.9c0.7-0.2,1.4-0.3,2.1-0.5c0.5-0.1,0.3-0.9-0.2-0.8c-0.7,0.2-1.4,0.3-2.1,0.5
			C110.8,46.2,111,47,111.6,46.9L111.6,46.9z"/>
	</g>
	<g>
		<path class="st2" d="M117.4,49.3c0.8-0.2,1.5-0.4,2.3-0.6c0.5-0.1,0.3-0.9-0.2-0.8c-0.8,0.2-1.5,0.4-2.3,0.6
			C116.7,48.6,116.9,49.4,117.4,49.3L117.4,49.3z"/>
	</g>
	<g>
		<path class="st2" d="M119.2,45.2c0.7,0,1.5,0.1,2.2,0.1c0.5,0,0.6-0.8,0-0.8c-0.7,0-1.5-0.1-2.2-0.1
			C118.7,44.3,118.7,45.1,119.2,45.2L119.2,45.2z"/>
	</g>
	<g>
		<path class="st2" d="M116.5,41.4c0.9-0.1,1.9-0.4,2.8-0.6c0.5-0.1,0.3-0.9-0.2-0.8c-0.9,0.2-1.9,0.5-2.8,0.6
			C115.8,40.7,116,41.5,116.5,41.4L116.5,41.4z"/>
	</g>
	<g>
		<path class="st2" d="M83.3,50c0.3-0.5,1-0.8,1.5-1.1c0.4-0.3,0-1-0.4-0.7c-0.6,0.4-1.4,0.8-1.8,1.4C82.3,50,83,50.4,83.3,50
			L83.3,50z"/>
	</g>
	<g>
		<path class="st2" d="M87.2,48.7c0.6-0.3,1.1-0.5,1.5-1c0.4-0.4-0.2-1-0.6-0.6c-0.4,0.4-0.9,0.6-1.4,0.8
			C86.3,48.2,86.7,48.9,87.2,48.7L87.2,48.7z"/>
	</g>
	<g>
		<path class="st2" d="M96.4,45c0.3-0.2,0.5-0.3,0.8-0.5c0.4-0.3,0-1-0.4-0.7c-0.3,0.2-0.5,0.3-0.8,0.5C95.5,44.6,95.9,45.3,96.4,45
			L96.4,45z"/>
	</g>
	<g>
		<path class="st2" d="M89.2,44.7c0.6-0.4,1.2-0.9,1.8-1.4c0.4-0.4-0.2-1-0.6-0.6c-0.5,0.5-1.2,0.9-1.8,1.4
			C88.2,44.4,88.8,45,89.2,44.7L89.2,44.7z"/>
	</g>
	<g>
		<path class="st2" d="M92.8,44.2c0.5-0.4,1-0.8,1.5-1.2c0.4-0.3,0-1-0.4-0.7c-0.6,0.4-1.1,0.8-1.7,1.3
			C91.8,43.9,92.4,44.5,92.8,44.2L92.8,44.2z"/>
	</g>
	<g>
		<path class="st2" d="M100.2,40.5c0.8-0.5,1.7-1,2.5-1.5c0.4-0.3,0-1-0.4-0.7c-0.8,0.5-1.7,0.9-2.5,1.5
			C99.4,40.1,99.7,40.8,100.2,40.5L100.2,40.5z"/>
	</g>
	<g>
		<path class="st2" d="M95.8,39.4c0.5-0.5,0.9-0.9,1.5-1.3c0.4-0.3,0-1-0.4-0.7c-0.6,0.4-1.1,0.9-1.6,1.4
			C94.9,39.2,95.4,39.8,95.8,39.4L95.8,39.4z"/>
	</g>
	<g>
		<path class="st2" d="M101.6,33.5c0.4-0.1,0.8-0.4,1.1-0.6c0.4-0.3,0-1-0.4-0.7c-0.3,0.2-0.6,0.4-0.9,0.5
			C100.9,32.9,101.1,33.7,101.6,33.5L101.6,33.5z"/>
	</g>
	<g>
		<path class="st2" d="M103.1,36.5c0.7-0.7,1.5-1.3,2.4-1.7c0.5-0.2,0.1-1-0.4-0.7c-1,0.5-1.8,1.1-2.6,1.8
			C102.1,36.3,102.7,36.8,103.1,36.5L103.1,36.5z"/>
	</g>
	<g>
		<path class="st2" d="M109.5,36.5c0.7-0.4,1.4-0.6,2.1-0.9c0.5-0.2,0.3-1-0.2-0.8c-0.8,0.3-1.5,0.6-2.3,1
			C108.6,36,109,36.8,109.5,36.5L109.5,36.5z"/>
	</g>
	<g>
		<path class="st2" d="M113.4,36.9c0.5-0.2,1-0.5,1.5-0.7c0.5-0.2,0.1-0.9-0.4-0.7c-0.5,0.2-1,0.5-1.5,0.7
			C112.5,36.4,112.9,37.1,113.4,36.9L113.4,36.9z"/>
	</g>
	<g>
		<path class="st2" d="M35.3,51.3c1-0.2,2.1-0.2,3.1-0.3c0.5,0,0.6-0.8,0-0.8c-1.1,0-2.2,0-3.3,0.3C34.5,50.6,34.7,51.4,35.3,51.3
			L35.3,51.3z"/>
	</g>
	<g>
		<path class="st2" d="M39.2,47.9c0.6,0,1.1-0.1,1.7,0c0.5,0.1,0.5-0.8,0-0.8c-0.6-0.1-1.1,0-1.7,0C38.6,47.1,38.6,47.9,39.2,47.9
			L39.2,47.9z"/>
	</g>
	<g>
		<path class="st2" d="M42.8,50.4c0.6,0,1.3,0,1.9,0.1c0.5,0,0.5-0.8,0-0.8c-0.6,0-1.3,0-1.9-0.1C42.3,49.6,42.3,50.4,42.8,50.4
			L42.8,50.4z"/>
	</g>
	<g>
		<path class="st2" d="M45.4,50.4c0.5-0.1,0.3-0.9-0.2-0.8C44.7,49.8,44.9,50.6,45.4,50.4L45.4,50.4z"/>
	</g>
	<g>
		<path class="st2" d="M50.5,51.3c0.6,0.1,1.1,0.1,1.7,0c0.5-0.1,0.3-0.9-0.2-0.8c-0.4,0.1-0.8,0.1-1.2,0.1
			C50.3,50.4,50,51.2,50.5,51.3L50.5,51.3z"/>
	</g>
	<g>
		<path class="st2" d="M46.9,47.3c0.9,0.1,1.7,0.3,2.6,0.4c0.5,0.1,0.5-0.8,0-0.8c-0.9-0.1-1.7-0.3-2.6-0.4
			C46.4,46.4,46.4,47.2,46.9,47.3L46.9,47.3z"/>
	</g>
	<g>
		<path class="st2" d="M44.9,43c0.5,0.2,1,0.4,1.6,0.5c0.2,0,0.4-0.2,0.4-0.4c0-0.2-0.2-0.4-0.4-0.4c-0.5-0.1-0.9-0.3-1.4-0.5
			c-0.2-0.1-0.5,0.1-0.5,0.3C44.6,42.7,44.7,42.9,44.9,43L44.9,43z"/>
	</g>
	<g>
		<path class="st2" d="M54.8,47.1c0.7,0.1,1.4,0.3,2.1,0.5c0.5,0.2,0.7-0.6,0.2-0.8c-0.8-0.2-1.6-0.4-2.3-0.5
			C54.3,46.3,54.2,47.1,54.8,47.1L54.8,47.1z"/>
	</g>
	<g>
		<path class="st2" d="M58.4,50.1c0.6,0.1,1.2,0.1,1.8,0.2c0.5,0,0.5-0.8,0-0.8c-0.6,0-1.2-0.1-1.8-0.2
			C57.8,49.3,57.8,50.1,58.4,50.1L58.4,50.1z"/>
	</g>
	<g>
		<path class="st2" d="M62.3,52.5c0.3,0,0.6,0.1,1,0.1c0.5,0,0.5-0.8,0-0.8c-0.3,0-0.6-0.1-1-0.1C61.8,51.7,61.8,52.5,62.3,52.5
			L62.3,52.5z"/>
	</g>
	<g>
		<path class="st2" d="M64,44.8c0.6,0.3,1.2,0.5,1.8,0.7c0.5,0.2,0.9-0.5,0.4-0.7c-0.6-0.3-1.2-0.5-1.8-0.7
			C64,43.9,63.5,44.6,64,44.8L64,44.8z"/>
	</g>
	<g>
		<path class="st2" d="M63.8,38.8c0.3,0.3,0.7,0.6,1,0.9c0.3,0.4,0.9-0.2,0.6-0.6c-0.3-0.3-0.6-0.6-1-0.9
			C64,37.9,63.4,38.4,63.8,38.8L63.8,38.8z"/>
	</g>
	<g>
		<path class="st2" d="M60.1,40.6c0.3,0.3,0.7,0.5,1.1,0.6c0.2,0.1,0.5-0.1,0.5-0.3c0.1-0.2-0.1-0.4-0.3-0.5
			c-0.3-0.1-0.6-0.2-0.8-0.4c-0.2-0.1-0.4-0.2-0.6,0C60,40.1,60,40.4,60.1,40.6L60.1,40.6z"/>
	</g>
	<g>
		<path class="st2" d="M69,39C69,38.9,69,39,69,39c0,0.1,0.1,0.2,0.1,0.1c0,0.1,0.1,0.2,0.1,0.4c0.1,0.2,0.3,0.4,0.5,0.3
			c0.2-0.1,0.4-0.3,0.3-0.5c-0.1-0.3-0.2-0.6-0.4-0.9c-0.1-0.2-0.4-0.2-0.6,0C68.9,38.6,68.9,38.8,69,39L69,39z"/>
	</g>
	<g>
		<path class="st2" d="M69.6,44c0.2,0.5,0.5,0.9,0.9,1.4c0.3,0.4,1,0,0.7-0.4c-0.3-0.4-0.6-0.9-0.9-1.4C70.1,43.1,69.4,43.5,69.6,44
			L69.6,44z"/>
	</g>
	<g>
		<path class="st2" d="M70.5,48.6c0.3,0.3,0.6,0.6,1,0.9c0.5,0.3,0.9-0.4,0.4-0.7c-0.3-0.2-0.6-0.5-0.9-0.8
			C70.7,47.7,70.1,48.3,70.5,48.6L70.5,48.6z"/>
	</g>
	<g>
		<path class="st2" d="M72.8,44.6c0.2,0.3,0.3,0.6,0.4,0.9c0.1,0.5,0.9,0.3,0.8-0.2c-0.1-0.4-0.3-0.8-0.5-1.1
			C73.2,43.7,72.5,44.1,72.8,44.6L72.8,44.6z"/>
	</g>
	<g>
		<path class="st2" d="M77.8,46.7c0.1-0.5,0.2-1,0.3-1.4c0.1-0.5-0.7-0.8-0.8-0.2c-0.1,0.5-0.2,1-0.3,1.4
			C76.9,47,77.7,47.2,77.8,46.7L77.8,46.7z"/>
	</g>
	<g>
		<path class="st2" d="M77.3,41.2c0-0.6,0.1-1.3,0.2-1.9c0-0.5-0.8-0.5-0.8,0c-0.1,0.6-0.2,1.3-0.2,1.9
			C76.5,41.7,77.3,41.7,77.3,41.2L77.3,41.2z"/>
	</g>
	<g>
		<path class="st2" d="M79.8,41.9c0.2-0.8,0.4-1.7,0.6-2.5c0.1-0.5-0.6-0.7-0.8-0.2c-0.2,0.8-0.4,1.7-0.6,2.5
			C78.9,42.2,79.7,42.4,79.8,41.9L79.8,41.9z"/>
	</g>
	<g>
		<path class="st2" d="M85.2,36.9c0.3-0.4,0.7-0.8,0.9-1.2c0.3-0.5-0.4-0.9-0.7-0.4c-0.2,0.4-0.5,0.7-0.8,1.1
			c-0.1,0.2-0.2,0.4,0,0.6C84.8,37.1,85.1,37.1,85.2,36.9L85.2,36.9z"/>
	</g>
	<g>
		<path class="st2" d="M90,35.8c0.6-0.6,1.1-1.2,1.6-1.8c0.3-0.4-0.4-0.8-0.7-0.4c-0.4,0.6-1,1.2-1.5,1.7C89,35.6,89.6,36.2,90,35.8
			L90,35.8z"/>
	</g>
	<g>
		<path class="st2" d="M83.2,42c0.4-0.6,0.9-1.1,1.4-1.6c0.4-0.4-0.2-1-0.6-0.6c-0.5,0.6-1.1,1.2-1.5,1.8C82.1,42,82.9,42.4,83.2,42
			L83.2,42z"/>
	</g>
	<g>
		<path class="st2" d="M80.4,47.8c0.3-0.5,0.5-1,0.8-1.5c0.3-0.5-0.4-0.9-0.7-0.4c-0.3,0.5-0.5,1-0.8,1.5
			C79.4,47.9,80.1,48.3,80.4,47.8L80.4,47.8z"/>
	</g>
	<g>
		<path class="st2" d="M77.5,32c0,0.4,0,0.8,0,1.3c0,0.5,0.8,0.6,0.8,0c0-0.4,0-0.8,0-1.3C78.3,31.5,77.5,31.5,77.5,32L77.5,32z"/>
	</g>
	<g>
		<path class="st2" d="M95.2,31.2c0.4-0.3,0.8-0.6,1.1-1.1c0.3-0.4-0.4-0.9-0.7-0.4c-0.2,0.4-0.6,0.6-1,0.9
			C94.3,30.9,94.8,31.5,95.2,31.2L95.2,31.2z"/>
	</g>
	<path class="st5" d="M88.2,30c-4.4-1.1-9.7,0-14,1.1c-9,2.2-18.3,4.8-26.6,8.9c-2,1-8.4,5.6-10,6.6c-2.9,1.9-5.2,4.6-6.6,7.8
		c-2.5,5.4-2.2,12,1.9,16.5c2.1,2.3,4.9,3.7,7.8,4.8c9.2,3.7,16.4,0.1,18.1-1.4c2.6-2.3,4.1-6.2,2.8-9.6c-0.9-2.4-3-3.6-3.3-6.3
		c-0.4-3.8,1.1-6.7,3.5-9.6c3.1-3.7,7.3-5.8,11.5-8c4.7-2.5,9.7-3.9,14.7-5.8c1.3-0.5,3.2-1.4,3-3.1C90.8,30.7,89.2,30.2,88.2,30z"
		/>
	<path class="st6" d="M93.4,88.3c0,0,2.7-0.6,5.3-1.7c2.7-1.1,6-2.3,6-2.3l5.8,1.7c0,0,0.3,2.9,1.7,4.7c2.9,3.6,4.6,4.3,4.6,4.3
		s-10.9-1.7-14.8-3C98.1,90.7,93.4,88.3,93.4,88.3z"/>
	<path class="st6" d="M110.5,86c0,0,4-2.4,9.6-7.5c4.6-4.2,9.4-9,12.3-13.6c1-1.7,1.4-4.1,1.4-4.1s-1.7,4.7-15.3,15.3
		c-4.7,3.6-13.7,8.3-13.7,8.3C107.8,85.3,110.5,86,110.5,86z"/>
</g>
</svg>
