<?xml version="1.0" encoding="utf-8"?>
<!-- Generator: Adobe Illustrator 21.0.0, SVG Export Plug-In . SVG Version: 6.00 Build 0)  -->
<svg version="1.1" id="Слой_2" xmlns="http://www.w3.org/2000/svg" xmlns:xlink="http://www.w3.org/1999/xlink" x="0px" y="0px"
	 viewBox="0 0 200 109" style="enable-background:new 0 0 200 109;" xml:space="preserve">
<style type="text/css">
	.st0{fill:#D0BFA5;}
	.st1{opacity:0.24;clip-path:url(#SVGID_2_);}
	.st2{fill:#C1B099;}
	.st3{opacity:0.46;}
	.st4{fill:#EEE6D3;}
	.st5{opacity:0.47;clip-path:url(#SVGID_4_);}
	.st6{fill:#E7DBC5;}
	.st7{opacity:0.41;fill:#F1E1CA;}
	.st8{opacity:0.4;}
	.st9{fill:#F1E1CA;}
	.st10{fill:#EDE9E0;}
	.st11{fill:#D6BD9E;}
	.st12{clip-path:url(#SVGID_6_);}
	.st13{fill:#F9F5ED;}
	.st14{fill:#94867B;}
	.st15{fill:#F3E9DD;}
</style>
<g>
	<g>
		<g>
			<g>
				<path class="st0" d="M112.2,51.9c2,6.6,0.5,13.8-4,19.5c-1.1,1.4-2.7,2.9-4.7,3c-1.2,0.1-2.4-0.2-3.5-0.6
					c-3.9-1.2-7.8-2.4-11.7-3.5c-2.4-0.7-4.9-1.5-6.8-2.9c-3.3-2.5-4.1-6.6-4.5-10.3c-0.4-4.5-0.4-9.5,3.4-12.7
					c9.5-1.5,19.7-0.1,28.2,3.8c1,0.4,1.9,1,2.6,1.7C111.8,50.4,112,51.1,112.2,51.9z"/>
				<g>
					<defs>
						<path id="SVGID_1_" d="M112.2,52.5c2,6.6,0.5,13.8-4,19.5c-1.1,1.4-2.7,2.9-4.7,3c-1.2,0.1-2.4-0.2-3.5-0.6
							c-3.9-1.2-7.8-2.4-11.7-3.5c-2.4-0.7-4.9-1.5-6.8-2.9c-3.3-2.5-4.1-6.6-4.5-10.3c-0.4-4.5-0.4-9.5,3.4-12.7
							c9.5-1.5,19.7-0.1,28.2,3.8c1,0.4,1.9,1,2.6,1.7C111.8,51.1,112,51.8,112.2,52.5z"/>
					</defs>
					<clipPath id="SVGID_2_">
						<use xlink:href="#SVGID_1_"  style="overflow:visible;"/>
					</clipPath>
					<g class="st1">
						<path class="st2" d="M62.9,48.2C58,58.1,74.2,66.3,82.1,70.8c6.8,3.8,13.4,7.3,20.9,10c8.8,3.2,21.1,7.9,30,3.1
							c5.2-2.8,6.4-8.6,1.9-12.5c-5.6-4.8-14.4-4.8-21.8-6.6c-6.8-1.7-13.3-4.2-19.5-7c-3.5-1.5-7-2.9-10.5-4.6
							c-2.1-1-8.8-3.8-9.1-5C72.6,43.2,64.9,44.2,62.9,48.2L62.9,48.2z"/>
					</g>
					<g class="st1">
						<path class="st2" d="M58.7,53.6C53.8,63.5,70,71.7,77.9,76.1c6.8,3.8,13.4,7.3,20.9,10c8.8,3.2,21.1,7.9,30,3.1
							c5.2-2.8,6.4-8.6,1.9-12.5c-5.6-4.8-14.4-4.8-21.8-6.6c-6.8-1.7-13.3-4.2-19.5-7c-3.5-1.5-7-2.9-10.5-4.6
							c-2.1-1-8.8-3.8-9.1-5C68.4,48.5,60.7,49.6,58.7,53.6L58.7,53.6z"/>
					</g>
				</g>
				<g class="st3">
					<path class="st4" d="M81.8,49.8c4.2,0.6,8.5,1.7,12.3,3.1c3.9,1.4,6.8,3.8,10.1,5.9c2.1,1.3,5.5-0.4,5.3-2.5
						c-0.8-9.2-19-11.9-27.7-10.2C79.6,46.4,79.5,49.4,81.8,49.8L81.8,49.8z"/>
				</g>
			</g>
			<g>
				<defs>
					<path id="SVGID_3_" d="M47.8,24.8c4.4-5.1,10.4-9.1,17-10c9-1.3,17.9-0.4,25.7,4.2c1.1,0.6,2.2,1.3,3.1,2.2
						c2.6,2.7,3.3,6.7,3.3,10.4C97.1,47.1,89.4,61.7,80,74c-1.3,1.7-2.8,3.1-4.2,4.8c-5.1,6-9.9,4.7-10.7,4.6
						c-15.8-3.1-21.5-12.9-24-17.6C37.3,58.9,34.6,39.8,47.8,24.8z"/>
				</defs>
				<use xlink:href="#SVGID_3_"  style="overflow:visible;fill:#EEE6D3;"/>
				<clipPath id="SVGID_4_">
					<use xlink:href="#SVGID_3_"  style="overflow:visible;"/>
				</clipPath>
				<g class="st5">
					<path class="st6" d="M64.2,7.3C55.1,3.4,38.1,14.2,35.7,22c-2.4,7.7-5.6,35.5-0.9,42.3c5.5,7.9,19.6,22.8,28.4,26
						c7.6,2.8,25.3-26.1,33.5-27c6.1-0.6,9.3-8.6,3.3-12.1c-5.9-3.4-12.5-4.3-19-6.1c-6.9-1.9-12.1-3.7-18-8
						c1.1,0.8-0.7-0.7-0.8-0.7c-0.5-0.5-1-0.9-1.5-1.5C50.5,22,64.2,7.3,64.2,7.3z"/>
				</g>
				<g class="st5">
					<path class="st6" d="M57.6,11.9C46.7,7.2,26.7,20,23.7,29.3c-2.9,9.1-6.7,42.1-1.1,50.1c6.5,9.4,23.3,27,33.6,30.9
						c9.1,3.4,30-30.9,39.7-32c7.2-0.8,11.1-10.2,3.9-14.4c-7-4-14.8-5.1-22.5-7.2c-8.2-2.2-14.4-4.4-21.4-9.4
						c1.3,0.9-0.9-0.8-0.9-0.8c-0.6-0.6-1.2-1.1-1.7-1.8C41.4,29.2,57.6,11.9,57.6,11.9z"/>
				</g>
				<g class="st5">
					<path class="st6" d="M49,23c-10.9-4.6-30.9,8.2-33.9,17.4c-2.9,9.1-6.7,42.1-1.1,50.1c6.5,9.4,23.3,27,33.6,30.9
						c9.1,3.4,30-30.9,39.7-32c7.2-0.8,11.1-10.2,3.9-14.4c-7-4-14.8-5.1-22.5-7.2c-8.2-2.2-14.4-4.4-21.4-9.4
						c1.3,0.9-0.9-0.8-0.9-0.8c-0.6-0.6-1.2-1.1-1.7-1.8C32.8,40.4,49,23,49,23z"/>
				</g>
			</g>
			<path class="st7" d="M88.2,53c-3.1-8.2-11.4-9.8-19.2-10.8c-0.2,0-0.6-0.1-1-0.1c-0.8-0.1-1.6-0.3-2.4-0.4
				c-2.7-0.4-5.4-0.7-8.2-0.8c-4.4-0.2-10.6-0.3-14.4,2.2c-2.1,1.4-2,4.1,0,5.5c2.9,2,5.6,3.2,8.6,5.1c3.8,2.5,8.8,5.3,12.8,7.4
				c5.4,2.9,11.7,3.4,18,1.8C86.5,62.1,89.8,57.1,88.2,53z"/>
		</g>
		<g class="st8">
			<path class="st9" d="M45.8,38c2.5-1,4.6-2.7,7.3-3.4c2.9-0.8,6-1.2,9-1.5c6.5-0.6,13.9-1.1,20.2,1c9.9,3.3,14.5-13.4,4.3-15.6
				c-8.7-1.9-18.6-0.3-27,2.4c-5.9,1.8-17.2,7.3-16.4,15.1C43.2,37.1,44.4,38.5,45.8,38L45.8,38z"/>
		</g>
	</g>
	<g>
		<g>
			<path class="st10" d="M147.6,80.7c1.7-0.6,3.1-1.6,4.5-2.7c1.6-1.3,3.2-2.8,4.2-4.6c1.4-2.6,1.4-5.8,1-8.7
				c-1.7-12.6-6.7-21.2-16.5-29.4c-2.5-2.1-5.3-4.1-8.4-5.3c-5.6-2.1-15.1-3.5-20.7-1.5c-3.2,1.2-6.4,2.7-8.8,5.2
				c-3.3,3.5-4.8,8.5-4.2,13.3c0.6,4.8,3.2,9.2,6.9,12.3c0.4,0.4,0.9,0.7,1,1.3c0.3,1-0.6,2-1.3,2.7c-2.9,2.6-5.8,5.2-8.8,7.8
				c-0.5,0.4-1,0.9-1.1,1.5c-0.2,0.9,0.5,1.7,1.1,2.3c5.9,5.9,12.7,13.3,20.6,15.8c1,0.3,3,0.1,3.7-1.3c1.5-2.9,6.9-10.7,10.2-11
				c2-0.2,4,0.7,5.9,1.4C140.5,80.9,144.2,81.8,147.6,80.7z"/>
			<g>
				<path class="st11" d="M109.8,51.4c-1.2-3.1,0-5,3.3-5.4c1.6-0.2,3.1-0.1,4.7,0.4c1.8,0.6,2.9,2,5,2.2c1.6,0.2,2.6-1.4,2.7-2.7
					c0.4-3.5-3.6-5.4-6.4-6c-2.9-0.7-6.1-0.5-8.8,0.8c-2.2,1-4.4,2.7-4.9,5.2c-0.5,2.7,1.2,4.9,3.4,6.4
					C109.2,52.5,110,51.9,109.8,51.4L109.8,51.4z"/>
			</g>
			<g>
				<path class="st11" d="M135.9,70.3c2.5,3.6,7.1,2.3,9.8-0.6c3.5-3.9,2.5-10-0.5-13.8c-2.6-3.3-8,0.9-5.8,4.4
					c1,1.6,2.1,3.2,1.8,5.1c-0.3,2.1-1.8,3.9-4.1,3.3C136.2,68.5,135.3,69.4,135.9,70.3L135.9,70.3z"/>
			</g>
			<g>
				<defs>
					<path id="SVGID_5_" d="M147.6,80.7c1.7-0.6,3.1-1.6,4.5-2.7c1.6-1.3,3.2-2.8,4.2-4.6c1.4-2.6,1.4-5.8,1-8.7
						c-1.7-12.6-6.7-21.2-16.5-29.4c-2.5-2.1-5.3-4.1-8.4-5.3c-5.6-2.1-15.1-3.5-20.7-1.5c-3.2,1.2-6.4,2.7-8.8,5.2
						c-3.3,3.5-4.8,8.5-4.2,13.3c0.6,4.8,3.2,9.2,6.9,12.3c0.4,0.4,0.9,0.7,1,1.3c0.3,1-0.6,2-1.3,2.7c-2.9,2.6-5.8,5.2-8.8,7.8
						c-0.5,0.4-1,0.9-1.1,1.5c-0.2,0.9,0.5,1.7,1.1,2.3c5.9,5.9,12.7,13.3,20.6,15.8c1,0.3,3,0.1,3.7-1.3c1.5-2.9,6.9-10.7,10.2-11
						c2-0.2,4,0.7,5.9,1.4C140.5,80.9,144.2,81.8,147.6,80.7z"/>
				</defs>
				<clipPath id="SVGID_6_">
					<use xlink:href="#SVGID_5_"  style="overflow:visible;"/>
				</clipPath>
				<g class="st12">
					<path class="st11" d="M157.7,67.5c-1.6,3.5-3.9,7.5-7.2,9.6c-4.7,2.8-10.2,0.4-14.7-1.7c-4.5-2-7.7-1.4-11.2,2.2
						c-1.8,1.9-3,4.4-4.3,6.7c-1.4,2.5-3.4,5-3.1,7.9c0.2,2.7,2.9,4.5,5.4,3.1c2.6-1.4,3.7-4.2,5.1-6.7c1.3-2.2,2.4-4.3,4.3-6.1
						c0.7-0.4,0.4-0.4-0.8,0c0.5,0.1,0.9,0.3,1.4,0.5c1.3,0.5,2.5,0.9,3.8,1.2c2.5,0.5,5.1,0.5,7.6,0c4.3-0.8,8.5-2.2,11.3-5.8
						c2.4-3,3.9-6.7,4.3-10.6C159.7,67,158.1,66.6,157.7,67.5L157.7,67.5z"/>
				</g>
				<g class="st12">
					<path class="st11" d="M91,73.7c0.1-0.1,0.2-0.2,0.3-0.3c-0.8-0.1-1.6-0.2-2.4-0.3c1.1,2.3,4.2,3.8,6.2,5.3
						c2.7,2.1,5.6,3.9,8.1,6.2c2,1.7,4.3,4.2,5.1,6.8c0.3,1.1-0.1,2.4,0.3,3.5c0.5,1.7,1.3,2.9,2.8,3.8c2.8,1.5,5.8,0.1,6.8-2.8
						c0.9-2.6-0.2-6.3-1.2-8.7c-1.5-3.4-5-6.4-7.9-8.6c-3.3-2.4-6.9-4.3-10.5-6c-2.9-1.3-6.5-3.6-9.4-1.4c-0.8,0.6-0.6,2,0.3,2.4
						c0.2,0.1,0.3,0.2,0.5,0.2C90.3,74,90.7,74,91,73.7L91,73.7z"/>
				</g>
			</g>
			<g>
				<path class="st13" d="M133.9,46.8c-2.3,1.4-3.8,3.5-5.6,5.5c-2.1,2.4-4.2,4.8-6.4,7.1c-1.3,1.4-2.6,2.6-4.1,3.8
					c-0.6,0.5-1.3,1-1.9,1.5c-0.6,0.5-0.6,0.5,0.1-0.1c-0.7,0.5-1.3,1-2,1.5c-2.8,2.3-2.5,7-0.1,9.4c2.6,2.7,6.8,2.5,9.4,0.1
					c2.6-2.4,5-5.3,7.1-8.2c1.8-2.6,3.6-5.3,5-8.1c1.5-2.9,3.3-6.5,2.9-9.9C138.2,47.3,136.1,45.5,133.9,46.8L133.9,46.8z"/>
			</g>
			<g>
				<path class="st13" d="M115.9,54.4c-0.1,2.5-3.2,1.5-4.8,1.1c-2.3-0.6-3.7-3-4.8-4.9c-2.8-5.2-1.9-11.2,4.3-13
					c4.1-1.2,8.9-0.3,13,0.6c4.2,1,8.2,2.7,11.1,5.8c1.6,1.7,5.1,1.1,5.6-1.5c1.7-9.4-9.7-11.8-17-12.3c-7.5-0.5-15.7,1.4-20.7,7.3
					c-5.2,6-3.2,16.8,3.2,21.3c2.7,1.9,6.1,2.5,9.3,1.7c3.2-0.8,4-3.7,2.6-6.4C117.1,53.1,115.9,53.5,115.9,54.4L115.9,54.4z"/>
			</g>
			<g>
				<path class="st13" d="M126.8,37.6c0.5,5.2,2.6,10,2.5,15.3c-0.2,4.8,7.7,6,8.5,1.1c1.1-6.9-1.1-13.6-5.6-18.8
					c-3.1-3.6-8.1,0.3-7.4,4.2c0.6,3.3,2.8,5.8,4.3,8.7c1.1,2.1,0.5,3.7,1.5,5.9c0.5-2,1.1-4,1.6-6.1c0,0,0,0-0.1,0
					c-2.4,1.3-3,5-0.9,6.9c0,0,0,0,0,0c1.8,1.7,4.5,1.8,6.3,0.1c2.4-2.2,1.4-5.6,0.7-8.3c-1-3.5-4.4-6-5-9.5
					c-2.5,1.4-4.9,2.8-7.4,4.2c2.7,3.2,3.7,7.4,3.4,11.6c2.8-0.4,5.7-0.8,8.5-1.1c-1.3-5.5-4.2-11.9-8.9-15.4
					C128.1,35.8,126.7,36.6,126.8,37.6L126.8,37.6z"/>
			</g>
			<g>
				<path class="st13" d="M153.9,68c3.8-6,0.1-13.9-3-19.5c-1.9-3.4-4.5-6.4-7.4-9c-3-2.8-7-5.9-11.3-5.8c-1.7,0-3.3,1.2-3.7,2.8
					c-0.6,2.2,1,3.7,2.5,4.9c1.5,1.1,3.6,1.7,5.2,2.7c1.9,1.2,3.6,2.8,5.2,4.4c5.4,5.2,10.2,11.1,10.3,19
					C151.8,68.6,153.3,69,153.9,68L153.9,68z"/>
			</g>
			<g>
				<path class="st13" d="M149.7,52.6c-1-3.8-4.9-5.7-8.3-7.1c-1.7-0.7-4.5-0.4-6.1,0.6c-2.2,1.5-2.9,2.9-3.7,5.4
					c-0.8,2.3,1.9,3.9,3.8,3c1.3-0.6,3.5-1.6,5-1.7c2-0.1,4.8,1,6.6,1.9C148.4,55.3,150.1,54.1,149.7,52.6L149.7,52.6z"/>
			</g>
			<g>
				<path class="st13" d="M133.7,56.5c1.6-1.1,3.2-2.3,5-3.2c1.8-0.9,4-0.6,6-0.4c4.1,0.2,4.1-6.7,0-6.4c-2.9,0.2-5.6,0.4-7.9,2.4
					c-2,1.7-3.1,4.1-4.4,6.3C131.8,56,132.8,57.1,133.7,56.5L133.7,56.5z"/>
			</g>
			<g>
				<path class="st13" d="M109.7,37.5c4.7-0.4,9.2,0.7,13.1,3.2c1.9,1.2,3.6,2.7,5.1,4.4c1.5,1.7,2.4,3.8,4.5,4.8
					c1.8,0.8,3.8,0.2,4.3-1.8c1.8-6-6.1-11.2-10.8-13.1c-5.4-2.2-11.9-2.2-16.8,1C108.7,36.3,108.8,37.5,109.7,37.5L109.7,37.5z"/>
			</g>
			<g>
				<path class="st13" d="M126.5,59.4c3.5-1.4,6.6-5.2,7.7-8.8c1.3-4.3,1-11.2-4.4-12.4c-1.4-0.3-3.3,0.4-3.6,2
					c-0.3,1.6-0.1,2.9,0.6,4.4c0.6,1.3,0.4,2.9,0.4,4.3c0,3-0.1,6.4-1.7,9.1C125.3,58.8,125.8,59.7,126.5,59.4L126.5,59.4z"/>
			</g>
			<g>
				<path class="st14" d="M121.1,48.2c0.8,0.2,1.6,0.1,2.4,0.2c-0.2-0.4-0.5-0.8-0.7-1.2c-0.1,0.1-0.1,0.3-0.2,0.4
					c-0.2,0.2,0,0,0.1,0c0.2,0.1,0.2,0.2,0.1,0c-0.2-0.4-0.6-0.5-1-0.4C121.3,47.2,120.9,47.8,121.1,48.2c0.3,0.8,0.9,1.3,1.7,1.1
					c0.7-0.1,1.2-0.9,1.4-1.5c0.2-0.6-0.4-1.1-1-1c-0.7,0.2-1.4,0.4-2.1,0.5C120.7,47.5,120.7,48.1,121.1,48.2L121.1,48.2z"/>
			</g>
			<g>
				<path class="st14" d="M139.5,58c-0.2,0.3-0.5,0.4-0.6,0.6c-0.5,0.8,0.5,1.8,1.3,1.3c0.3-0.2,0.5-0.5,0.5-0.9
					c0-0.5-0.3-1-0.8-1.1c-0.5-0.1-1,0.1-1.2,0.5c-0.1,0.3-0.2,0.5-0.2,0.8c-0.1,1,1.4,1.3,1.9,0.5c0.1-0.1,0.1-0.3,0.2-0.3
					c0.1-0.3,0.1-0.1-0.2,0.3c-0.1,0.1-0.3,0.2-0.4,0.3c0,0,0,0,0,0c-0.2,0-0.4,0-0.5,0c-0.2-0.1-0.2-0.1-0.1,0
					c-0.2-0.3-0.3-0.6-0.5-0.8c0,0.1,0,0.1,0-0.1c0.6,0,1.2,0,1.8,0c0-0.1-0.1-0.2-0.1-0.3c0-0.1,0-0.3-0.1-0.4
					C140.2,57.7,139.7,57.7,139.5,58L139.5,58z"/>
			</g>
			<g>
				<path class="st15" d="M119.4,58.4c-3.7,3.2-6.9,6.9-10.5,10.2c-0.4,0.3,0.1,1,0.5,0.7c4-2.9,6.9-7,10.5-10.4
					C120.3,58.6,119.8,58,119.4,58.4L119.4,58.4z"/>
			</g>
			<g>
				<path class="st15" d="M120.6,60c-2.9,3.9-6.9,6.8-9.8,10.6c-0.3,0.4,0.3,0.9,0.7,0.5c3.5-3.4,7.3-6.5,9.7-10.8
					C121.3,60,120.8,59.7,120.6,60L120.6,60z"/>
			</g>
			<g>
				<path class="st15" d="M127.6,66.4c-3.3,5.2-8.2,10.1-10,16.1c-0.1,0.4,0.6,0.8,0.8,0.3c2.8-5.7,6.6-10.6,9.6-16.2
					C128.1,66.3,127.8,66.1,127.6,66.4L127.6,66.4z"/>
			</g>
			<g>
				<path class="st15" d="M125.3,66.4c-3.4,4.1-6.9,8.6-8.7,13.7c-0.2,0.5,0.6,0.8,0.9,0.4c2.8-4.6,5.2-9.3,8.4-13.7
					C126.1,66.5,125.5,66.1,125.3,66.4L125.3,66.4z"/>
			</g>
			<g>
				<path class="st15" d="M120.7,58.7c2.8-2.6,5.1-6.2,5.5-10.1c0-0.4-0.5-0.5-0.7-0.2c-0.7,1.3-1.1,2.7-1.6,4.1
					c-0.8,2.1-2,4-3.6,5.7C120,58.5,120.4,59,120.7,58.7L120.7,58.7z"/>
			</g>
			<g>
				<path class="st15" d="M127.4,48.9c-0.7,4.7-3.4,8.3-6.6,11.7c-0.3,0.3,0.2,0.8,0.5,0.5c3.6-3.3,6.2-7.2,6.7-12.1
					C128.1,48.6,127.5,48.5,127.4,48.9L127.4,48.9z"/>
			</g>
			<g>
				<path class="st15" d="M105.9,48.3c-0.6-2.3,1.3-4.8,2.6-6.5c1.6-2,3.7-2.4,6.1-2.4c2.4,0,4.8,0.3,7,1.3c1.3,0.6,2.2,1.6,2.9,2.7
					c0.8,1.4-0.3,2.8-0.7,4c-0.2,0.6,0.6,1.2,1.1,0.8c2.9-2.2,3.9-4.6,1.5-7.8c-2.5-3.3-7-4.1-10.9-4.1c-3.2,0-6.3,0.8-8.3,3.6
					c-1.7,2.4-3.3,5.6-1.9,8.5C105.4,48.9,106,48.6,105.9,48.3L105.9,48.3z"/>
			</g>
			<g>
				<path class="st15" d="M141.1,72.7c7.2,0.2,9.8-7.5,9.4-13.6c-0.2-3.2-2.7-6.9-5.9-7.8c-3.4-1-6.3,1.6-6.8,5
					c-0.2,1.1,0.9,1.8,1.8,1.1c1.8-1.5,2.4-4.1,5.3-2.4c2.4,1.5,2.8,4.1,2.8,6.7c-0.1,4.4-1.6,9.9-6.5,10.7
					C140.8,72.3,140.9,72.7,141.1,72.7L141.1,72.7z"/>
			</g>
			<g>
				<path class="st15" d="M100,70.8c2.7-1.4,5.1-3,7.4-4.8c0.3-0.2-0.1-0.6-0.3-0.5c-2.4,1.6-4.8,3.4-7.3,4.9
					C99.5,70.5,99.8,70.9,100,70.8L100,70.8z"/>
			</g>
			<g>
				<path class="st11" d="M103.1,68.9c1.8-1.7,3.6-3.3,5.4-5.1c0.2-0.2-0.1-0.6-0.3-0.4c-1.8,1.7-3.4,3.5-5.1,5.3
					C102.9,68.8,103,68.9,103.1,68.9L103.1,68.9z"/>
			</g>
			<g>
				<path class="st11" d="M119.2,72.2c-1.7,2.9-3.6,5.6-5.1,8.6c-0.1,0.2,0.2,0.4,0.3,0.2C116.1,78.1,117.8,75.3,119.2,72.2
					C119.3,72.2,119.2,72.1,119.2,72.2L119.2,72.2z"/>
			</g>
			<g>
				<path class="st11" d="M107.4,65.7c-2.2,2.1-4.3,4-6.8,5.7c-0.2,0.1,0,0.5,0.2,0.3c2.7-1.2,4.8-3.7,6.8-5.9
					C107.7,65.8,107.5,65.6,107.4,65.7L107.4,65.7z"/>
			</g>
			<g>
				<path class="st13" d="M111,65.1c-2.1,2.8-5.4,4.6-7.3,7.5c-0.2,0.3,0.2,0.6,0.5,0.4c2.5-2.4,5.3-4.8,7.3-7.6
					C111.7,65.1,111.2,64.8,111,65.1L111,65.1z"/>
			</g>
			<g>
				<path class="st13" d="M110.2,68.5c-1.4,1.6-3.7,2.6-4.4,4.7c-0.1,0.3,0.3,0.4,0.4,0.2c1.1-1.8,3-3,4.2-4.7
					C110.6,68.5,110.3,68.3,110.2,68.5L110.2,68.5z"/>
			</g>
			<g>
				<path class="st13" d="M110,71.4c-1.1,1-2.2,2-3.1,3.2c-0.1,0.2,0.1,0.4,0.3,0.2c1-1.1,2-2.2,3.1-3.2
					C110.4,71.5,110.2,71.2,110,71.4L110,71.4z"/>
			</g>
			<g>
				<path class="st13" d="M117.8,68.3c1.5-1.8,3.4-3,4.7-5c1.6-2.3,2.6-5.3,3.2-8c1.1-4.6,2-9.1,0.1-13.6c-1.7-4-6-5.7-9.8-7.1
					c-4.1-1.4-8.9-0.5-11.2,3.3c-0.5,0.8,0.5,2.1,1.4,1.4c5.8-4.1,15.3-0.8,17.1,6c0.9,3.6-0.8,8.7-1.9,12.1c-0.6,2.1-1.5,4.1-2.4,6
					c-0.7,1.5-1.8,2.6-2.5,4.1C116.5,68.3,117.4,68.8,117.8,68.3L117.8,68.3z"/>
			</g>
			<g>
				<path class="st13" d="M123.2,36.9c2.8,2.7,3.4,7.1,3.3,10.8c-0.1,3,0.3,7.6-2,9.9c1,0.6,1.9,1.1,2.9,1.7
					c1.4-7.5,3.3-15.7-0.4-22.9c-1-2-4-0.3-3,1.7c3.2,6.2,1.3,13.8,0.1,20.3c-0.3,1.6,1.6,3,2.9,1.7c3.1-3.1,2.9-8.3,2.8-12.4
					c-0.1-4.5-1.6-9.5-5.6-12C123.3,35.3,122.5,36.3,123.2,36.9L123.2,36.9z"/>
			</g>
			<g>
				<path class="st13" d="M123,37.4c-0.2,0-0.4-0.2-0.3,0c0.1,0.1,0.2,0.2,0.3,0.3c0.3,0.3,0.6,0.6,0.9,0.9c0.3,0.3,0.5,0.5,0.8,0.8
					c0.1,0.1,0.2,0.3,0.4,0.4c0,0,0.4,0.5,0.2,0.3c0.8-0.4,1.6-0.9,2.4-1.3c-0.4-0.8-1.3-1.2-2-1.6c-0.1,1-0.3,2-0.4,3
					c0.4-0.1,0.7-0.4,1-0.6c0.7-0.4,0.7-1.4,0-1.8c-0.2-0.1-0.1,0-0.3-0.3c-0.5-0.7-1.7-0.6-2.3,0c-0.7,0.7-0.7,2.1,0.3,2.5
					c0.8,0.3,1.6,0.9,2.5,0.8c1.2-0.1,2-1.9,0.7-2.5c-0.8-0.4-1.5-1-2.2-1.5c-0.6-0.4-1.3-1-2.1-0.8C121.9,36,122.1,37.4,123,37.4
					L123,37.4z"/>
			</g>
			<g>
				<path class="st13" d="M148.3,74.4c3.8-1.9,6.6-6.3,6.4-10.7c0-0.6-0.9-0.9-1.2-0.3c-0.9,1.4-1.2,2.9-1.6,4.5
					c-0.7,2.4-2,4.3-4.1,5.7C147.4,73.9,147.8,74.7,148.3,74.4L148.3,74.4z"/>
			</g>
			<g>
				<path class="st13" d="M149,73.2c2.9-3.9,4.2-7.1,3.5-12c-0.6-3.9-1.5-8.2-5.7-9.6c-3.6-1.3-7.1-0.6-10,1.8
					c-2.7,2.2-5.8,5.3-7.4,8.4c-0.6,1.2,0.6,2.5,1.8,1.8c4.5-2.3,6.1-8.8,11.8-9.3c3.9-0.3,5.5,3,6.4,6.2c1.2,4.4,1,8.1-1.1,12.2
					C147.9,73.2,148.7,73.6,149,73.2L149,73.2z"/>
			</g>
			<g>
				<path class="st13" d="M130.6,65.4c3-2.7,5.6-5.9,8.9-8.2c2.1-1.4,4.3-1.9,6.7-1.2c1.9,0.5,3.4,2,5.2,2.7c1,0.4,1.7-0.9,1.3-1.7
					c-2.2-4.6-8.3-5.6-12.6-3.8c-4.9,2.1-7.2,7.6-10.1,11.7C129.8,65.3,130.3,65.7,130.6,65.4L130.6,65.4z"/>
			</g>
			<g>
				<path class="st13" d="M142.6,54.3c1.8,1.1,3.9,1.9,5.8,2.9c1.9,1.1,3.5,2.9,5.7,3.6c0.8,0.3,1.4-0.7,1-1.3
					c-2.1-3.5-8.3-6.2-12.2-6.2C142.4,53.4,142.2,54,142.6,54.3L142.6,54.3z"/>
			</g>
		</g>
		<g>
			<path class="st13" d="M133.8,65.6c-6,5.4,1.4,10.8,6.8,12.1c4.1,1,7.5-1.1,10.1-4.1c3.3-3.8,4.2-7.7,3.7-12.6
				c-0.1-1.5-1.9-1.9-2.7-0.7c-1.6,2.2-0.9,4.5-1.5,7c-0.7,2.6-3.5,5.9-6,6.9c-2.2,0.9-5.1-0.1-7.1-1c-3.1-1.4-4.2-3.7-2.3-6.8
				C135,65.7,134.3,65.2,133.8,65.6L133.8,65.6z"/>
		</g>
	</g>
</g>
</svg>
