<?xml version="1.0" encoding="utf-8"?>
<!-- Generator: Adobe Illustrator 21.0.0, SVG Export Plug-In . SVG Version: 6.00 Build 0)  -->
<svg version="1.1" id="Слой_3" xmlns="http://www.w3.org/2000/svg" xmlns:xlink="http://www.w3.org/1999/xlink" x="0px" y="0px"
	 viewBox="0 0 200 109" style="enable-background:new 0 0 200 109;" xml:space="preserve">
<style type="text/css">
	.st0{fill:#2D3228;}
	.st1{fill:#46463C;}
	.st2{fill:#32372D;}
	.st3{fill:#8C8C78;}
	.st4{fill:#D1CFCF;}
	.st5{fill:#E2E2E2;}
</style>
<path class="st0" d="M66.9,28.7c7.3-5.7,16.4-6.3,21.2-0.1c4.9,6.2,2.2,14.9-5.1,20.6c-7.3,5.7-17.2,5.2-21.2,0.1
	C57.8,44.2,59.6,34.4,66.9,28.7z"/>
<path class="st1" d="M71.4,50c-3.6,0-6.6-1.2-8.3-3.4c-3.3-4.2-2-12.9,4.8-18.3c3.4-2.7,7.2-4.1,10.8-4.1c3.3,0,6.1,1.3,8.1,3.8
	c2.5,3.2,2.3,6.7,1.7,9c-0.9,3.4-3.2,6.6-6.5,9.2C78.9,48.6,75.2,50,71.4,50z"/>
<path class="st0" d="M92.9,65.9c-8.2,2.7-16.5,0-18.9-7.5c-2.5-7.5,2.5-14.6,10.7-17.3c8.2-2.7,16.9,1.3,18.9,7.5
	C105.7,54.7,101.1,63.2,92.9,65.9z"/>
<path class="st2" d="M86.8,61.9c-4.7,0-8.3-2.3-9.6-6.2c-1.1-3.3-0.1-5.9,1-7.6c1.6-2.5,4.3-4.4,7.6-5.5c1.4-0.5,2.8-0.7,4.3-0.7
	c4.8,0,9.3,2.6,10.4,6.1c1.4,4.3-2,10.9-8.6,13.1C90.1,61.6,88.4,61.9,86.8,61.9z"/>
<path class="st0" d="M124.2,43.6c6-6.2,14.6-7.6,20.2-2.2c5.7,5.5,4.5,14.1-1.5,20.3c-6,6.2-15.6,6.7-20.2,2.2
	C118,59.4,118.2,49.8,124.2,43.6z"/>
<path class="st2" d="M131,63.5c-2.9,0-5.4-0.9-7.1-2.5c-3.9-3.7-4-12.2,1.5-17.9c3.1-3.2,7-5,10.7-5c2.7,0,5.2,1,7.2,2.9
	c2.3,2.3,3.4,5.2,3.1,8.5c-0.3,3.3-1.9,6.6-4.6,9.4C138.9,61.8,135,63.5,131,63.5z"/>
<path class="st1" d="M131,60.2c-2.5,0-4.6-0.7-5.9-2.1c-3.2-3.1-3.3-10.6,1.5-15.6c2.8-2.9,6.2-4.5,9.5-4.5c2.3,0,4.4,0.8,6,2.5
	c2,1.9,2.9,4.4,2.6,7.2c-0.3,2.9-1.7,5.9-4.2,8.4C138,58.7,134.5,60.2,131,60.2z"/>
<path class="st0" d="M106.8,29.2c6-6.2,14.6-7.6,20.2-2.2c5.7,5.5,4.5,14.1-1.5,20.3c-6,6.2-15.6,6.7-20.2,2.2
	C100.7,44.9,100.8,35.4,106.8,29.2z"/>
<path class="st1" d="M113.6,49.1c-2.9,0-5.4-0.9-7.1-2.5c-3.9-3.7-4-12.2,1.5-17.9c3.1-3.2,7-5,10.7-5c2.7,0,5.2,1,7.2,2.9
	c2.3,2.3,3.4,5.2,3.1,8.5c-0.3,3.3-1.9,6.6-4.6,9.4C121.5,47.4,117.6,49.1,113.6,49.1z"/>
<ellipse transform="matrix(0.6724 -0.7402 0.7402 0.6724 19.0622 101.2783)" class="st3" cx="123.9" cy="29.1" rx="1.8" ry="2.1"/>
<path class="st0" d="M88.1,24.9c6-6.2,14.6-7.6,20.2-2.2c5.7,5.5,4.5,14.1-1.5,20.3c-6,6.2-15.6,6.7-20.2,2.2
	C82,40.7,82.1,31.1,88.1,24.9z"/>
<path class="st1" d="M94.9,44.9c-2.9,0-5.4-0.9-7.1-2.5c-3.9-3.7-4-12.2,1.5-17.9c3.1-3.2,7-5,10.7-5c2.7,0,5.2,1,7.2,2.9
	c2.3,2.3,3.4,5.2,3.1,8.5c-0.3,3.3-1.9,6.6-4.6,9.4C102.8,43.2,98.9,44.9,94.9,44.9z"/>
<path class="st0" d="M65.8,68c-8.2,2.7-16.5,0-18.9-7.5c-2.5-7.5,2.5-14.6,10.7-17.3c8.2-2.7,16.9,1.3,18.9,7.5
	C78.5,56.8,74,65.2,65.8,68z"/>
<path class="st2" d="M59.7,65.6c-5.5,0-9.7-2.8-11.2-7.4c-1-3.1-0.6-6.2,1.2-9c1.8-2.8,4.8-5,8.5-6.2c1.6-0.5,3.2-0.8,4.8-0.8
	c5.6,0,10.6,3,12,7.2c1.7,5.1-2.1,12.7-9.7,15.2C63.4,65.3,61.5,65.6,59.7,65.6z"/>
<path class="st1" d="M59.7,62.3c-4.7,0-8.3-2.3-9.6-6.2c-0.9-2.6-0.5-5.2,1-7.6c1.6-2.4,4.3-4.4,7.6-5.5c1.4-0.5,2.8-0.7,4.3-0.7
	c4.8,0,9.3,2.6,10.4,6.1c1.4,4.3-2,10.9-8.6,13.1C63,62,61.3,62.3,59.7,62.3z"/>
<path class="st0" d="M107.4,39.6c8.6,0.7,15.2,6.4,14.5,14.3c-0.6,7.8-8,12.5-16.6,11.8c-8.6-0.7-15-7.8-14.5-14.3
	C91.3,44.9,98.8,38.9,107.4,39.6z"/>
<path class="st2" d="M107,62.4c-0.5,0-1,0-1.5-0.1c-8-0.6-13.4-7.1-13-12.5c0.4-5.5,6.8-10.3,13.6-10.3c0.4,0,0.8,0,1.2,0
	c3.9,0.3,7.3,1.7,9.7,4c2.4,2.3,3.5,5.2,3.3,8.5C119.8,58.1,114.3,62.4,107,62.4z"/>
<path class="st1" d="M107,59c-0.5,0-0.9,0-1.4-0.1c-3.3-0.3-6.3-1.7-8.6-4c-2-2-3.1-4.5-2.9-6.7c0.4-4.6,6-8.7,11.9-8.7
	c0.4,0,0.7,0,1.1,0c3.5,0.3,6.6,1.5,8.7,3.5c2,1.9,3,4.4,2.8,7.1C118.2,55.4,113.4,59,107,59z"/>
<path class="st4" d="M120.4,94.7c0,1.8-1.5,3.3-3.3,3.3H80.8c-1.8,0-3.3-1.5-3.3-3.3v-9.5h43V94.7z"/>
<path class="st4" d="M44,57.3c1.4,19.1,25.5,34.3,54.9,34.3s53.5-15.2,54.9-34.3H44z"/>
<ellipse transform="matrix(0.4777 -0.8785 0.8785 0.4777 31.8689 102.6578)" class="st3" cx="102.3" cy="24.5" rx="3.3" ry="4.3"/>
<ellipse transform="matrix(0.9866 -0.163 0.163 0.9866 -3.6343 17.7582)" class="st3" cx="106.4" cy="31" rx="1.8" ry="2.1"/>
<ellipse transform="matrix(0.4777 -0.8785 0.8785 0.4777 16.3646 85.3696)" class="st3" cx="80" cy="28.9" rx="3.3" ry="4.3"/>
<ellipse transform="matrix(0.4777 -0.8785 0.8785 0.4777 -6.3959 84.4824)" class="st3" cx="67.9" cy="47.6" rx="2.6" ry="4.3"/>
<ellipse transform="matrix(0.4777 -0.8785 0.8785 0.4777 18.8879 120.8868)" class="st3" cx="111.1" cy="44.6" rx="2.6" ry="4.3"/>
<ellipse transform="matrix(0.314 -0.9494 0.9494 0.314 28.4791 141.3311)" class="st3" cx="112" cy="51" rx="1.4" ry="1.8"/>
<ellipse transform="matrix(0.4777 -0.8785 0.8785 0.4777 34.3089 143.8897)" class="st3" cx="138.2" cy="43.1" rx="3.3" ry="4.3"/>
<path class="st5" d="M153.8,57.3H98.9v34.3C128.4,91.6,152.4,76.4,153.8,57.3z"/>
</svg>
