<?xml version="1.0" encoding="utf-8"?>
<!-- Generator: Adobe Illustrator 21.0.0, SVG Export Plug-In . SVG Version: 6.00 Build 0)  -->
<svg version="1.1" id="Слой_2" xmlns="http://www.w3.org/2000/svg" xmlns:xlink="http://www.w3.org/1999/xlink" x="0px" y="0px"
	 viewBox="0 0 200 109" style="enable-background:new 0 0 200 109;" xml:space="preserve">
<style type="text/css">
	.st0{fill:#97593F;}
	.st1{fill:#F79E6A;}
	.st2{fill:#F69252;}
	.st3{fill:#E98347;}
	.st4{fill:#E68245;}
	.st5{fill:#F0E4C4;}
	.st6{fill:#E4CD9B;}
	.st7{fill:#FFF4DF;}
</style>
<g>
	<g>
		<path class="st0" d="M161.4,90.1c-0.8-0.9-2.4-1.9-3.6-1.2c-0.9,0.6-0.8,1.7,0,2.3c0.5,0.4,1,0.3,1.6,0.3c0.2,0,0.2,0,0.1,0
			c0.1,0,0.2,0,0.3,0.1c0.2,0,0.5,0.1,0.7,0.2C161.4,92.1,162,90.8,161.4,90.1L161.4,90.1z"/>
		<path class="st0" d="M158.9,92.9C158.8,92.8,158.8,92.8,158.9,92.9c0,0.2,0,0.4,0.1,0.7c0.1-0.3,0-0.6-0.1-0.9
			c0,0.1,0.1,0.3,0.1,0.4c0-0.2-0.1-0.5-0.2-0.7c0-0.1-0.1-0.2-0.2-0.2c-0.1-0.2-0.2-0.3-0.3-0.5c-0.1-0.2-0.3-0.5-0.5-0.7
			c-1.1-1.1-3,0-2.6,1.5c0.2,0.7,0.7,1.2,1.4,1.5c0.4,0.2,0.9,0.4,1.4,0.3c0,0,0,0,0.1,0c-0.2,0-0.2,0,0.1,0c0.2,0,0.4-0.1,0.5-0.3
			c-0.2,0.1-0.4,0.2-0.7,0.3c0.1,0,0.2,0,0.3,0C159,94.1,159.4,93.4,158.9,92.9L158.9,92.9z"/>
		<path class="st0" d="M155.5,95.6c0.3-0.4,0.4-0.9,0.4-1.4c0-0.5,0-1.1-0.3-1.5c-0.3-0.5-0.8-0.8-1.3-0.8c-0.7,0-1.3,0.5-1.5,1.1
			c-0.2,0.8,0.1,1.5,0.5,2.1C153.8,95.7,155,96.3,155.5,95.6L155.5,95.6z"/>
		<path class="st0" d="M152.1,96.3C152.1,96.1,152.1,96.2,152.1,96.3c0-0.1,0-0.2,0-0.3c0-0.2,0-0.3,0-0.5c0-0.1,0.1-0.6,0-0.1
			c0-0.3,0.1-0.5,0.1-0.8c0-0.7-0.4-1.3-1.1-1.5c-0.8-0.2-1.6,0.3-1.9,1.1c-0.2,0.7,0,1.4,0.4,2c0.2,0.3,0.5,0.5,0.8,0.7
			c0.1,0.1,0.3,0.1,0.4,0.2c0.1,0,0.2,0,0.3,0c-0.2,0-0.2,0,0,0C151.5,97.2,152.1,96.9,152.1,96.3L152.1,96.3z"/>
		<path class="st0" d="M147.8,96.9C147.8,96.9,147.8,96.9,147.8,96.9c-0.1,0.1-0.3,0.2-0.5,0.4c0.1,0,0.2-0.1,0.3-0.1
			C147.6,97.1,147.7,97.1,147.8,96.9c-0.2,0.2-0.2,0.2,0.1,0c0.1-0.1,0.2-0.3,0.3-0.4c0.2-0.3-0.2,0.2,0.1-0.1
			c0.2-0.3,0.3-0.4,0.1-0.2c0.1-0.1,0.2-0.2,0.3-0.3c0.3-0.3-0.2,0.2,0.1-0.1c0.3-0.2,0.5-0.4,0.6-0.7c0.2-0.5,0.3-1,0-1.5
			c-0.4-0.6-1-0.8-1.7-0.7c-1.6,0.3-2.7,3.6-0.9,4.3c-0.2-0.1-0.4-0.3-0.6-0.4c0,0,0,0,0,0.1C146.6,97.5,147.3,97.5,147.8,96.9
			L147.8,96.9z"/>
		<path class="st1" d="M161.5,88.5c0-0.3-0.1-0.5-0.2-0.8c-0.2-0.3-0.5-0.7-1-0.7c-0.4,0-0.7,0.3-0.7,0.7c0,0.3,0.2,0.5,0.4,0.8
			c0,0,0.2,0.2,0,0c0,0,0,0.1,0,0.1c0,0,0-0.1,0-0.1c0,0.1,0,0.1,0-0.1c0,0.2,0.1,0.4,0.2,0.5c0.1,0.1,0.3,0.2,0.5,0.2
			C161.1,89.2,161.5,88.9,161.5,88.5L161.5,88.5z"/>
		<path class="st1" d="M160.3,91.8c-0.3-0.5-0.7-0.7-1.2-1c-0.6-0.4-1.7-0.9-2.1-0.1c-0.2,0.3-0.1,0.7,0.1,1
			c0.3,0.4,0.7,0.6,1.2,0.7c0.6,0.1,1.2,0.2,1.8,0C160.3,92.3,160.4,92,160.3,91.8L160.3,91.8z"/>
		<path class="st1" d="M154.4,94.7c-0.2-0.6-0.6-1-1.2-1.3c-0.5-0.2-1-0.1-1.3,0.3c-0.2,0.4-0.1,1,0.3,1.3c0.3,0.1,0.5,0.3,0.8,0.3
			c0.1,0,0.3,0.1,0.4,0.1c0,0,0.1,0,0.1,0c-0.2,0,0,0,0,0C154.1,95.5,154.6,95.1,154.4,94.7L154.4,94.7z"/>
		<path class="st1" d="M149.8,96.8c-0.2,0.3,0.2-0.2,0.2-0.3c0.1-0.2,0.2-0.4,0.2-0.6c0-0.2,0.1-0.5,0.1-0.7c0-0.4-0.1-0.6-0.3-0.9
			c-0.4-0.9-1.9-0.9-2.3,0c-0.2,0.3-0.2,0.6-0.3,0.9c0,0.2,0,0.5,0.1,0.7c0,0.2,0.1,0.4,0.2,0.6c0,0.1,0.4,0.6,0.2,0.3
			C148.5,97.5,149.3,97.5,149.8,96.8L149.8,96.8z"/>
		<path class="st1" d="M146.1,97.1c0.5-0.5,1.4-1.1,1.9-1.8c0.3-0.5,0.2-1.3-0.2-1.7c-0.4-0.4-1.2-0.6-1.7-0.2
			c-0.5,0.4-0.9,0.8-1.1,1.4c-0.3,0.7-0.4,1.3-0.2,2C144.9,97.3,145.7,97.5,146.1,97.1L146.1,97.1z"/>
		<path class="st2" d="M176.3,57.7c-1.1,11.9-6.7,21.2-14.9,27.2c-1.1,0.8-2.2,1.6-3.4,2.2c-0.8,0.5-1.7,1-2.6,1.4
			c-0.6,0.3-1.1,0.5-1.7,0.8c-1.1,0.5-2.3,1-3.5,1.4c-0.4,0.1-0.7,0.3-1.1,0.4c-2.1,0.7-4.2,1.2-6.4,1.6c0,0,0,0,0,0
			c-0.9,0.2-1.8,0.3-2.8,0.4h0c-2,0.2-4,0.4-6.1,0.4c-5.9,0-12.3-3.8-17-7.1c-3.8-2.7-6.7-5.6-9-9.6c-3.2-5.9-5.2-14.4-4.9-21
			c0.4-9.4,5.6-17.8,11.3-24.9c0.4-0.5,0.9-1.1,1.3-1.6c2.3-2.9,4-5.8,4.2-9.7c0.1-1.9-0.6-3.9-1.2-5.7c-0.5-1.8-1-3.5-0.3-4.4
			c0.1-0.1,0.2-0.2,0.4-0.3c0.1,0,0.1-0.1,0.2-0.1c0.2-0.1,0.4-0.1,0.6-0.1c0,0,0,0,0.1,0c0.3,0,0.5,0,0.9,0c0.1,0,0.2,0,0.3,0
			c0.2,0,0.3,0.1,0.5,0.1c0.7,0.2,1.4,0.4,2.1,0.7c1.2,0.6,2.2,1.3,3.1,2.2c2.7,2.6,5.5,4.9,9,6.1c8.2,3,16.9,3.4,24.7,7.5
			c7.1,3.8,12.1,11.7,14.6,19.2c0.2,0.7,0.4,1.4,0.6,2.1C176.2,50.4,176.6,54.3,176.3,57.7z"/>
		<path class="st3" d="M153.1,94.6c2.7-1,7.7-4,8.3-7.1c0.8-4-4.5-2.5-6.5-1.2c-1.2,0.7-2.6,1.4-4.1,2.1c-1.1,0.5-8.5,3.8-6.7,5.7
			C145.4,95.4,151.6,95.1,153.1,94.6z"/>
		<path class="st2" d="M148.4,93.2c1.7,3.7,11.9-3.3,8.1-5c-1-0.5-2.8,0.2-3.7,0.5C151,89.2,147.3,90.8,148.4,93.2z"/>
		<path class="st4" d="M176.3,57.7c-1.1,11.9-6.7,21.2-14.9,27.2c-1.1,0.8-2.2,1.6-3.4,2.2c-0.8,0.5-1.7,1-2.6,1.4
			c-0.6,0.3-1.1,0.5-1.7,0.8c-1.1,0.5-2.3,1-3.5,1.4c-0.4,0.1-0.7,0.3-1.1,0.4c-2.1,0.7-4.2,1.2-6.4,1.6c0,0,0,0,0,0
			c-0.9,0.2-1.8,0.3-2.8,0.4h0c-2,0.2-4,0.4-6.1,0.4c-5.9,0-12.3-3.8-17-7.1c-3.8-2.7-6.7-5.6-9-9.6c-3.2-5.9-5.2-14.4-4.9-21
			c0.4-9.4,5.6-17.8,11.3-24.9c0.4-0.5,0.9-1.1,1.3-1.6c-1.3,2.8-2.8,5.4-4.1,7.9c-3.3,6.7-2.6,13.8-2.4,20.9
			c0.2,6.4,2.4,12.7,6.4,17.7c1.8,2.3,4.2,4.1,6.9,5.3c0.9,0.4,1.8,0.8,2.8,1.1c3.6,1.2,7.5,1.8,11.1,2.1c2.6,0.2,5.2,0,7.8-0.6
			c0.4-0.1,0.8-0.2,1.1-0.2c3.3-0.8,6.6-2,9.7-3.6c0.4-0.2,0.9-0.5,1.3-0.7c3.6-2.1,7-4.6,9.9-7.5c0.7-0.7,1.4-1.5,2.1-2.2
			c1-1.1,1.9-2.3,2.7-3.4c3.2-4.7,3.9-9.4,4.5-14.9c0.1-1.4,0.1-2.7,0-4.1C176.2,50.4,176.6,54.3,176.3,57.7z"/>
		<path class="st1" d="M142.8,92.7c-0.9,0.2-1.8,0.3-2.8,0.4h0c-6.6-2.8-12.7-6.7-17.5-12c-1.9-2.1-3.5-4.4-5-6.9
			c-5.3-9.3-8.2-21.2-6.1-31.9c0.5-2.6,1.3-5.1,2.6-7.4c1.4-2.6,3.1-5,4.5-7.6c1.5-2.7,2.7-5.8,2.4-9c-0.3-3.2-1.6-5.9-2.7-8.9
			c-0.1-0.3-0.2-0.7-0.4-1c-0.1-0.2,0.2-0.3,0.3-0.1c0.1,0.1,0.2,0.2,0.2,0.3c0.1,0.2,0.2,0.3,0.3,0.5c1.4,2.2,2.4,4.7,2.8,7.3
			c0,0,0,0,0,0c0.2,1.4,0.3,2.8,0.2,4.2c-0.4,3.8-2.5,7.3-4.5,10.5c-2.1,3.3-4,6.7-4.8,10.5c-0.8,3.6-0.9,7.2-0.6,10.9
			c0.9,10.9,5.2,22.1,13.3,29.7c0.2,0.2,0.5,0.4,0.7,0.6c4.5,4,9.7,7.1,15.3,9.3C141.8,92.3,142.3,92.5,142.8,92.7z"/>
		<path class="st1" d="M150.3,90.8c-0.4,0.1-0.7,0.3-1.1,0.4c-1.5-2.6-3.2-5-5-7.4c-1.8-2.5-3.7-4.9-5.6-7.4
			c-6.7-8.8-14-18.6-15.8-29.8c-0.4-2.8-0.6-5.6-0.4-8.4c0.3-3.3,0.8-6.7,0.8-10c0.1-3.5-0.2-7-1.2-10.5c-0.1-0.4-0.2-0.8-0.4-1.2
			c0,0,0,0,0,0c-0.2-0.6-0.4-1.3-0.8-1.8c-0.4-0.7-0.9-1.2-1.2-2c-0.4-1.1-0.8-2.3-1.1-3.4c0-0.2-0.1-0.4-0.1-0.6
			c0-0.2-0.1-0.4-0.1-0.7c0-0.2,0.2-0.4,0.4-0.2c0.2,0.4,0.5,0.8,0.7,1.2c0.1,0.1,0.1,0.2,0.2,0.3c0.3,0.4,0.5,0.8,0.8,1.2
			c0.5,0.7,1.2,1.5,1.4,2.3c0,0.1,0.1,0.3,0.1,0.4c0.1,0.4,0.1,0.8,0.3,1.2c0.2,0.5,0.4,1,0.6,1.6c0.3,1,0.6,2,0.8,3
			c0.8,3.8,0.9,7.6,0.6,11.4c-0.2,3.3-0.8,6.5-0.8,9.8c0,2.9,0.3,5.8,1,8.6c1.3,5.6,3.8,10.8,6.9,15.6c3.2,5,6.8,9.6,10.4,14.2
			c1.2,1.6,2.4,3.1,3.6,4.7c0.5,0.6,0.9,1.3,1.4,1.9C147.9,87,149.4,88.8,150.3,90.8z"/>
		<path class="st1" d="M156.4,82.3c0,2.1-0.4,4.2-0.9,6.3c-0.6,0.3-1.1,0.5-1.7,0.8c0.7-2.3,1.3-4.6,1.3-7.1c0-0.8,0-1.6-0.1-2.5
			c-0.1-2.2-0.4-4.4-0.9-6.6c-2.6-12.5-9.9-23.1-16.8-33.6c-1.8-2.7-3.7-5.4-5.3-8.3c-1.8-3.1-3.2-6.4-4.7-9.6
			c-0.7-1.5-1.4-3-2.3-4.4c-0.8-1.2-1.6-2.3-2.5-3.5c-0.1-0.2-0.3-0.4-0.5-0.6c-0.9-1.2-1.8-2.6-2.3-4c0-0.1-0.1-0.2-0.1-0.3
			c-0.2-0.7-0.4-1.5-0.3-2.3c0-0.1,0-0.1,0-0.1c0.1-0.2,0.5-0.2,0.6,0.1c0.1,0.5,0.2,0.9,0.4,1.3c0.1,0.4,0.3,0.8,0.4,1.1
			c0.8,1.9,2,3.5,3.3,5.3c1.8,2.5,3.2,5,4.5,7.8c1.5,3.2,3,6.5,4.8,9.6c1.7,2.8,3.5,5.5,5.3,8.2c3.5,5.2,7,10.4,10,16
			c2.9,5.4,5.4,11.1,6.8,17.1c0.4,2,0.8,4.1,1,6.2C156.4,80.2,156.4,81.3,156.4,82.3z"/>
		<path class="st1" d="M168.2,69.4c-0.3,1.5-0.7,3-1.2,4.4c-1.4,3.9-3.2,7.7-5.6,11.1c-1.1,0.8-2.2,1.6-3.4,2.2
			c3.4-4.8,6.5-10,8.1-15.6c0.6-2.2,1.1-4.4,1.2-6.7c0.5-7-1.5-13.7-4.9-19.8c-3.3-5.7-8.6-9.9-13.9-13.6c-2.6-1.8-5.1-3.7-7.8-5.4
			c-2.7-1.7-5.6-3.3-8.2-5.2c-2.7-1.9-4.9-4.1-7.1-6.6c-1.5-1.7-3-3.5-4.3-5.3c-0.3-0.4-0.6-0.8-0.9-1.2c-0.3-0.5-0.7-0.9-1-1.4
			c0-0.1-0.1-0.1-0.1-0.2c-0.1-0.2,0.2-0.4,0.3-0.3c1.4,1.1,2.6,2.4,3.8,3.8c2.4,2.8,4.6,5.9,7.5,8.3c4,3.3,8.6,5.6,12.9,8.4
			c5.2,3.4,10.6,6.9,14.9,11.4c4.6,4.7,7.9,10.8,9.4,17.3C169.1,59.9,169.2,64.7,168.2,69.4z"/>
		<path class="st0" d="M147.6,97.2C147.7,97.1,147.7,97.1,147.6,97.2c0.1,0,0.2-0.1,0.3-0.2c0.1-0.1,0.1-0.2,0.2-0.2
			c0.3-0.2,0.5-0.6,0.6-1c0.1-0.4,0-0.7-0.3-1c-0.4-0.4-0.8-0.3-1.2-0.2c-0.4,0.2-0.8,0.6-0.9,1.1c0,0.2-0.1,0.4-0.1,0.6
			c0,0.2,0,0.3,0.1,0.5c0,0.1,0.1,0.1,0.1,0.2c-0.1-0.1-0.1-0.1-0.1,0C146.8,97.2,147.3,97.4,147.6,97.2L147.6,97.2z"/>
		<path class="st0" d="M151.7,95.4c0-0.1,0-0.1,0-0.2c-0.1-0.3-0.3-0.6-0.7-0.7c-0.4-0.2-0.9-0.2-1.3,0.2c-0.4,0.4-0.4,1.1,0,1.5
			c0.2,0.2,0.4,0.3,0.6,0.4c0.1,0,0.3,0,0.4,0.1c-0.1,0-0.2,0-0.3,0c0,0,0,0,0,0c0.2,0,0.3,0,0.5,0c0.2,0,0.3-0.1,0.4-0.2
			C151.7,96.1,151.8,95.7,151.7,95.4L151.7,95.4z"/>
		<path class="st1" d="M152.7,26.7c0.1,1.1,1.1,2.1,1.9,2.9c1,1,2.4,2,3.9,1.6c1.3-0.3,1.5-1.9,0.7-2.8c-0.7-0.8-1.9-1.1-2.8-1.6
			c-0.8-0.5-2.1-1.3-3-0.9C153,25.9,152.7,26.3,152.7,26.7L152.7,26.7z"/>
		<path class="st1" d="M160.9,32.4c0,0.5,0,0.9,0.2,1.4c0.2,0.5,0.9,1,1.5,1c0.4,0,0.7-0.2,0.9-0.5c0.2-0.3,0.2-0.7,0-1.1
			c-0.1-0.2-0.2-0.3-0.4-0.4c0.2,0.2,0.1,0,0,0c-0.1-0.1-0.2-0.2-0.3-0.3c0.3,0.2,0.1,0.1,0,0c-0.2-0.2-0.4-0.4-0.6-0.6
			c-0.2-0.2-0.5-0.3-0.8-0.2C161.1,31.8,160.9,32.1,160.9,32.4L160.9,32.4z"/>
		<path class="st1" d="M115.1,43.6c-0.5,0.4-0.8,1.2-1,1.8c-0.3,0.9-0.3,1.9,0.1,2.7c0.5,1,2.1,1,2.6,0c0.4-0.8,0.4-1.6,0.2-2.4
			c-0.1-0.6-0.2-1.3-0.5-1.9C116.3,43.2,115.5,43.2,115.1,43.6L115.1,43.6z"/>
		<path class="st1" d="M116.5,52.2c-0.2,0.3-0.2,0.6-0.1,1c0.2,0.7,1,1,1.6,0.6c0.3-0.2,0.5-0.5,0.5-0.9c0-0.3-0.2-0.8-0.5-0.9
			c-0.1-0.1-0.3-0.1-0.4-0.2c0.1,0,0.1,0.1,0.2,0.1c0,0,0,0,0,0c-0.2-0.1-0.4-0.2-0.7-0.1C116.8,51.9,116.6,52,116.5,52.2
			L116.5,52.2z"/>
	</g>
	<g>
		<g>
			<path class="st0" d="M49.4,88.4C49.5,88.4,49.5,88.4,49.4,88.4c0.3-0.3,0.4-0.7,0.3-0.9c-0.3-1.3,0.2-2.7-0.4-3.9
				c-0.2-0.5-1-0.5-1.3,0c-0.7,1.2-0.4,3.1,0,4.4c0.1,0.4,0.5,0.6,0.9,0.7C49.1,88.6,49.3,88.5,49.4,88.4L49.4,88.4z"/>
			<path class="st0" d="M46.8,82.9c-0.7,0-1.1,0.5-1.5,1.1c-0.5,0.7-0.8,1.4-1,2.2c0,0.2,0,0.4,0.2,0.6c0.8,0.6,1-0.4,1.2-0.9
				c0.2-0.5,0.5-1,0.8-1.5c0.3-0.5,0.6-0.7,0.6-1.3C47,83,46.9,82.9,46.8,82.9L46.8,82.9z"/>
			<path class="st0" d="M40.2,80.1c0.1,0.1,0.1,0.2,0.2,0.3c0.2,0.2,0.4,0.3,0.6,0.3c0.5,0.2,1.1,0.5,1.6,0.2
				c0.5-0.2,0.7-0.8,0.3-1.2c-0.4-0.5-1-0.5-1.5-0.4c-0.2,0-0.4,0.1-0.6,0.1c-0.1,0-0.4,0.2-0.4,0.3C40.2,79.8,40,79.9,40.2,80.1
				L40.2,80.1z"/>
			<path class="st0" d="M40.8,82.6c1.9,0.1,3.6-0.3,5.2,0.9c1,0.8,2.1-1,1-1.7c-1.7-1.1-5-1.4-6.4,0.4
				C40.5,82.4,40.6,82.6,40.8,82.6L40.8,82.6z"/>
			<path class="st0" d="M42,85.3c1.2-0.8,2.5-1,4-1c1.1,0,2.2,0,2.8-1c0.1-0.2,0-0.4-0.2-0.5c-1.2-0.3-2.7,0.1-3.9,0.3
				c-1.4,0.2-2.3,0.6-3.1,1.8C41.5,85.1,41.8,85.4,42,85.3L42,85.3z"/>
			<path class="st0" d="M47.6,86.5c0.5-0.8,0.7-1.6,1.1-2.4c0.2-0.4,0.8-1.4,0.1-1.8C48,82,47.3,83,47,83.7
				c-0.4,0.9-0.6,1.7-0.4,2.7C46.8,86.8,47.4,86.9,47.6,86.5L47.6,86.5z"/>
			<path class="st0" d="M48.1,83.8c0.6,0.2,0.7,1,1.1,1.4c0.4,0.5,0.7,0.9,1.1,1.4c0.6,0.8,1.9,1.9,2.9,1.3c0.2-0.1,0.3-0.4,0.2-0.6
				c-0.2-0.4-0.7-0.7-1.1-1.1c-0.5-0.4-0.9-0.8-1.3-1.3c-0.4-0.4-0.7-0.9-1.2-1.2c-0.5-0.2-1-0.2-1.5-0.3
				C48,83.4,47.8,83.7,48.1,83.8L48.1,83.8z"/>
			<path class="st4" d="M55.1,85.3c-3.9-2.1-8.1-0.1-11.4-3.6c-1.1-1.2-3.3-4.6-2.3-6.1c1.7-2.4,7.1,0,8.9,0.7L55.1,85.3z"/>
			<path class="st4" d="M74.8,18.8c2.6-0.8,5.6-1.8,7.9-3.7c-0.7,2.1-1.5,4.3-1.3,6.8L74.8,18.8z"/>
			<path class="st4" d="M94.5,25.1c-2.1-2,1.1-5.9,2.6-7.6c0,6.1,5.8,13.4,2.7,19.4L94.5,25.1z"/>
			<path class="st2" d="M100.1,75.6C94,83.4,84.5,87.9,74.7,89c-10.8,1.1-20.8-2.6-29.3-9c-0.5-0.4-1-0.7-1.4-1.1
				c-8.1-6.4-14.1-14.4-13.1-25.5c0.6-6.6,4.9-13.6,8.9-18.9c4.8-6.4,11-10.8,18.7-13.3C62.3,19.8,67,18,71,17.8
				c3.6-0.1,7,1.7,10.8,0.7c2.3-0.7,7.9-6.2,10-3.6c2.3,2.7-0.4,6.5,2.5,9.3c4.5,4.3,8.3,7,10.9,12.9c1.1,2.5,1.6,5.1,1.9,7.8
				c0,0.1,0,0.2,0,0.3c0,0,0,0,0,0C108.1,55.5,106.5,67.3,100.1,75.6z"/>
			<path class="st4" d="M100.1,75.6C94,83.4,84.5,87.9,74.7,89c-10.8,1.1-20.8-2.6-29.3-9c-0.5-0.4-1-0.7-1.4-1.1c0,0,0,0,0.1,0
				c0.1,0,4.3,3.1,5,3.4c1.4,0.6,3.2,1,4.5,1.5c4.7,1.7,10.5,3.1,15.6,2.8c11.6-0.5,23.8-9,30-18.5c2.9-4.4,4.8-8.4,6.1-13.5
				c0.7-2.9,1.5-6.2,1.9-9.4C108.1,55.5,106.5,67.3,100.1,75.6z"/>
			<path class="st5" d="M85,17.8c2-1,4.2-4.7,5.9-1.9c1.3,2.1-0.8,5.3,0.6,7.7c0.9,1.6,2.9,2.2,4.3,3.2c3.2,2.5,6.3,6.6,7.7,10.4
				c2.7,7.4-0.4,18.6-4.3,25.1c-4.9,8.2-12.7,17.1-22.4,19.5c-4.6,1.1-9.4,1.6-14.1,1.5c-4.1-0.2-7.6-1.8-11.8-1.3
				c-1.9,0.2-4.1,1.4-5.9,0.4c-1.5-0.8-1.5-2.6-2.4-4c-3.4-5.4-9.5-9.9-11.2-16.3c-0.9-3.4-1.1-7.7-0.5-11.3
				c1.3-6.9,5.5-13.7,10.3-18.7c4-4.1,7.9-6.5,12.8-9.3c4-2.2,8.6-3.8,13.2-3.7C73.1,19.1,79.5,20.6,85,17.8z"/>
		</g>
		<path class="st6" d="M44.5,77.5c-0.4-1.6-1-3.2-1.9-4.6c-1-1.7-2.1-3.3-2.9-5.1c-1.7-3.7-3-7.7-3.2-11.8c-0.4-6.8,3-13.6,7.2-18.8
			c4.5-5.6,10.3-9.7,17.1-11.9c3.6-1.2,7.3-1.8,11-2.4c3.2-0.6,6.4-0.8,9.6-1.4c2.1-0.3,4.1-1.2,5.7-2.7c0.1-0.1,0-0.3-0.2-0.3
			c-1.4,0.6-2.9,0.8-4.4,1.1c-1.7,0.3-3.3,0.5-5,0.7c-3.4,0.3-6.9,0.6-10.3,1.2c-7.1,1.3-13.7,3.8-19.3,8.3
			c-5.2,4.3-9.4,10-11.9,16.2c-2.6,6.8-1.8,13.9,1,20.5c0.8,2,1.8,3.9,3,5.7c1.2,1.8,2.7,3.5,3.5,5.5C43.7,78.4,44.6,78.2,44.5,77.5
			L44.5,77.5z"/>
		<path class="st6" d="M89.6,16.9C89.6,16.9,89.6,17,89.6,16.9C89.6,17,89.7,16.9,89.6,16.9c-0.1,0-0.2,0.2-0.3,0.3
			c-0.1,0.2-0.2,0.4-0.2,0.6c0,0.2,0.2,0.4,0.4,0.2c0.2-0.2,0.3-0.3,0.4-0.5c0-0.2,0-0.5-0.2-0.5c0,0,0.1,0.1,0.1,0.1
			c0,0,0-0.1,0-0.1C89.8,16.9,89.7,16.8,89.6,16.9L89.6,16.9z"/>
		<path class="st6" d="M88.6,18.9c-1.6,2.8,0.4,5.8,2.1,8c2.3,2.9,4.5,5.6,5.8,9.1c2.4,6.2,1.8,13.1-0.5,19.2
			c-2.4,6-6.7,11.3-11.9,15.2C78.3,74.8,71.7,77,64.5,77c-3.5,0-6.9-0.4-10.4-0.3c-3,0.1-6.2,0.5-8.4,2.7c-0.6,0.6,0.2,1.7,0.9,1.2
			c2.6-1.7,5.9-1.9,8.9-1.8c3.6,0.1,7.2,0.5,10.8,0.3c6.9-0.3,13.3-2.8,18.8-6.9c10-7.4,16.5-19.9,14-32.5c-0.7-3.6-2.4-7-4.4-10
			c-2.1-3.1-7-6.4-5.6-10.6C89.2,18.9,88.8,18.7,88.6,18.9L88.6,18.9z"/>
		<path class="st6" d="M85.6,21.6c-3,1-5.7,2.7-8.4,4.4c-2.8,1.8-5.7,3.5-8.4,5.4c-2.8,1.9-5.4,4-8,6c-2.5,1.9-4.9,3.9-7.2,6.1
			c-0.1,0.1,0,0.2,0.1,0.1c2.5-2.1,5.1-4.1,7.7-6c2.7-2,5.6-3.7,8.4-5.4c2.7-1.7,5.4-3.4,8.1-5c2.7-1.6,5.5-3.2,7.8-5.3
			C85.8,21.7,85.7,21.6,85.6,21.6L85.6,21.6z"/>
		<path class="st6" d="M50.4,47.1c-4.1,4.8-6.6,10.3-6.7,16.7c-0.1,3,0.2,6,0.5,9c0.1,1.6,0.3,3.2,0.3,4.8c0.1,1.3-0.3,3.5,0.6,4.6
			c0.2,0.2,0.6,0.2,0.8,0c0.9-0.9,0.5-2.6,0.4-3.7c-0.1-1.6-0.2-3.2-0.4-4.8c-0.3-2.9-0.6-5.8-0.6-8.7c-0.2-6.5,1.2-12.4,5.2-17.6
			C50.7,47.2,50.5,47,50.4,47.1L50.4,47.1z"/>
		<path class="st6" d="M86.1,22.2c-1,2.5-1.3,5.3-1.7,7.9c-0.4,2.8-0.7,5.6-0.8,8.4c-0.2,5-0.1,9.7-2.8,14.1
			c-5,8.1-13.7,13.5-21.7,18.3c-0.2,0.1-0.1,0.6,0.2,0.5c8.8-3.7,17.2-9.6,22.6-17.6c2.8-4.1,3.2-9,3.3-13.8c0-2.9,0.2-5.7,0.5-8.6
			c0.3-3,1.1-6,0.9-9.1C86.6,22,86.2,21.9,86.1,22.2L86.1,22.2z"/>
		<path class="st6" d="M56.3,72.9c-0.3,0.1-0.5,0.3-0.9,0.4c0,0,0,0,0,0C55.8,73.2,56,73.1,56.3,72.9C56.3,72.9,56.3,72.9,56.3,72.9
			L56.3,72.9z"/>
		<path class="st6" d="M51.6,75.2c-1.2,0.8-2.4,1.7-3.5,2.6c-1,0.8-2.4,1.9-2.7,3.2c-0.1,0.3,0.2,0.5,0.5,0.4c1-0.5,1.8-1.8,2.6-2.6
			c1.1-1,2.4-1.9,3.6-2.7C52.8,75.8,52.2,74.8,51.6,75.2L51.6,75.2z"/>
		<path class="st6" d="M79.7,31.4c-0.7,1.3-1.4,2.7-2.3,3.9c-0.8,1.1-1.8,2.1-2.4,3.3c-0.1,0.2,0.2,0.5,0.4,0.3
			c0.9-1,1.6-2.2,2.4-3.3c0.9-1.2,1.9-2.4,2.7-3.7C80.7,31.3,79.9,30.9,79.7,31.4L79.7,31.4z"/>
		<path class="st6" d="M68.1,46.6c-2.8,3.7-5.7,7.3-8.4,11c-1.4,1.9-2.8,3.9-4.1,5.9c-1.3,2-2.8,4-3.8,6.2c-0.1,0.3,0.2,0.7,0.5,0.4
			c1.4-1.8,2.5-3.8,3.9-5.7c1.4-2,2.8-3.9,4.3-5.8c2.9-3.8,5.8-7.6,8.6-11.5C69.5,46.6,68.6,46.1,68.1,46.6L68.1,46.6z"/>
		<g>
			<g>
				<path class="st6" d="M48.4,76.3C48.4,76.3,48.4,76.2,48.4,76.3C48.3,76.2,48.3,76.3,48.4,76.3L48.4,76.3z"/>
			</g>
		</g>
		<path class="st7" d="M49.1,72.6c0.4-3.1,1.5-6.1,2.3-9.1c0.1-0.4-0.4-0.6-0.7-0.3c-0.9,1.3-1.4,2.7-1.8,4.2
			c-0.5,1.7-0.4,3.4-0.5,5.1C48.3,73,49,73.1,49.1,72.6L49.1,72.6z"/>
		<path class="st7" d="M79.8,28.1c-5.2,4.1-10.5,8.2-15.4,12.8c-2.4,2.2-4.6,4.5-6.6,7c-2,2.4-4,5.2-5,8.2c-0.1,0.4,0.4,0.6,0.6,0.3
			c1.9-2.6,3.5-5.4,5.5-7.9c2-2.5,4.2-4.8,6.6-7c4.7-4.5,10-8.4,14.7-12.8C80.6,28.3,80.1,27.9,79.8,28.1L79.8,28.1z"/>
		<path class="st7" d="M82.6,29.3c-0.9,1.8-1.4,3.8-2,5.7c-0.6,2.2-1.3,4.4-2.1,6.6c-1.3,3.6-3.4,6.9-5.8,9.9
			c-2.2,2.8-4.8,5.4-7.4,7.9c-2.6,2.5-5.5,4.9-7.7,7.8c-0.2,0.3,0.2,0.5,0.4,0.3c2.9-2.3,5.6-5.1,8.4-7.6c2.7-2.6,5.4-5.2,7.8-8.1
			c2.3-2.9,4.1-6,5.4-9.4c0.8-2.2,1.5-4.4,2.1-6.6c0.6-2.1,1.2-4.2,1.4-6.4C83.2,29.2,82.7,29.1,82.6,29.3L82.6,29.3z"/>
		<path class="st7" d="M59.9,73.6c4.7-1.5,9.6-2.6,14.2-4.5c4.5-1.9,8.4-4.6,11.3-8.5c3.5-4.7,5.3-10.9,5.7-16.7
			c0.2-2.8-0.1-5.6-0.6-8.4c-0.2-1.5-0.7-2.9-1.1-4.4c-0.5-1.7-0.8-3.4-1.4-5c-0.1-0.4-0.6-0.2-0.6,0.2c0.3,1.4,0.7,2.8,1.1,4.2
			c0.4,1.4,0.5,2.9,0.7,4.4c0.3,2.8,0.6,5.5,0.5,8.3c-0.2,5.8-2,11.7-5.3,16.5c-5.6,8.1-16,10.4-24.7,13.8
			C59.6,73.3,59.7,73.6,59.9,73.6L59.9,73.6z"/>
		<path class="st7" d="M77.2,23.2c-0.3,0.2-0.6,0.3-1,0.4c-0.1,0-0.1,0.2,0,0.2c0.4,0,0.8-0.2,1.1-0.4
			C77.4,23.3,77.3,23.1,77.2,23.2L77.2,23.2z"/>
		<path class="st7" d="M74.1,23.9C64,27.3,55.2,33.1,47.7,40.6c-3.2,3.2-5.8,7.2-7.1,11.5c-0.6,2.1-0.8,4.2-0.8,6.4
			c0,2.3,0.2,5.1,1.4,7c0.2,0.4,0.8,0.2,0.8-0.2c0.1-2.1-0.6-4.3-0.7-6.4c-0.1-2.1,0.1-4.3,0.7-6.4c1.2-4.5,4-8.4,7.3-11.6
			c7.1-7,15.8-12.6,25.1-16.1C74.9,24.6,74.7,23.7,74.1,23.9L74.1,23.9z"/>
	</g>
</g>
</svg>
