<?xml version="1.0" encoding="utf-8"?>
<!-- Generator: Adobe Illustrator 21.0.0, SVG Export Plug-In . SVG Version: 6.00 Build 0)  -->
<svg version="1.1" id="Слой_3" xmlns="http://www.w3.org/2000/svg" xmlns:xlink="http://www.w3.org/1999/xlink" x="0px" y="0px"
	 viewBox="0 0 200 109" style="enable-background:new 0 0 200 109;" xml:space="preserve">
<style type="text/css">
	.st0{fill:#EAB071;}
	.st1{fill:#AF3535;}
	.st2{fill:#F93838;}
	.st3{opacity:0.7;fill:#F2BFB1;}
	.st4{fill:#F2BFB1;}
	.st5{opacity:0.32;fill:#FFFFFF;}
</style>
<g>
	<path class="st0" d="M33,66.4c1.1,5.7,8.3,7.6,14,8.3c28.9,3.5,58.1,7,86.9,2.7c3.1-0.5,6.2-1,8.8-2.6c2.6-1.6,4.7-4.5,4.6-7.6
		c0-0.3,0-4.5,0-4.8c-0.7-4.2-5.3-2.8-9.4-4.3c-21.4-7.9-45-5.3-67.9-5.3c-6.9,0-32.2-4.4-37.1,5.5C32,60,32.5,64,33,66.4z"/>
	<path class="st1" d="M33,62.1c1.1,5.7,8.3,7.6,14,8.3c28.9,3.5,58.1,7,86.9,2.7c3.1-0.5,6.2-1,8.8-2.6c2.6-1.6,4.7-4.5,4.6-7.6
		c-0.3-4.7-5.1-7.5-9.5-9.1c-21.4-7.9-45-5.3-67.9-5.3C62,48.4,29.7,45.1,33,62.1z"/>
	<path class="st2" d="M137.5,53.5c-21.4-7.9-45-5.3-67.9-5.3c-8,0-40.3-3.3-37,13.6c1.1,5.7,8.3,7.6,14,8.3
		c4.4,0.5,8.9,1.1,13.3,1.6c0.3-1.8,1.5-3.3,2.8-4.5c7-6.6,16.9-8.9,26.4-10.3c10-1.5,20.1-2.4,30.2-2.6c7.4-0.2,14.9,0,22.2,1.2
		C140.3,54.6,138.9,54,137.5,53.5z"/>
	<path class="st3" d="M45.1,59.5c0.7,0.6,1.7,0.5,2.5,0.5c1.6-0.2,3.2-0.5,4.7-1c0.5-0.2,1.1-0.4,1.5-0.8c0.4-0.4,0.6-1.1,0.3-1.6
		c-0.3-0.6-1-0.7-1.7-0.7C51.4,55.7,41.9,56.8,45.1,59.5z"/>
	<path class="st4" d="M78.8,70.4c0.4,0.2,0.8,0.3,1.2,0.4c3,0.5,6.2,0.9,8.8-0.6c0.2-0.1,0.4-0.2,0.5-0.4c0.2-0.4,0-0.8-0.4-1.1
		c-0.3-0.2-0.8-0.3-1.2-0.3c-2.2-0.2-4.6-0.5-6.8-0.4C80,68.1,76.7,69.1,78.8,70.4z"/>
	<path class="st3" d="M118.7,63.1c0.4,0.8,1.5,0.8,2.4,0.5c2.2-0.6,4.1-2,5.6-3.7c2.5-2.7,0.2-6.2-3.1-4.1
		C122.3,56.7,118,61.8,118.7,63.1z"/>
	<path class="st3" d="M88.8,55.1c0.6,0.4,1.4,0.7,2.1,0.8c1.6,0.3,3.2,0.5,4.9,0.5c1.2,0,2.5-0.1,3.6-0.8c0.7-0.4,1.2-1.2,1-2
		c-0.2-0.7-0.9-1-1.5-1.3c-2.5-1-5.8-1.7-8.4-1.2C88.6,51.6,86.5,53.4,88.8,55.1z"/>
	<path class="st4" d="M132.3,67.9c-1-0.5-2.3-0.3-3.1,0.5c-0.1,0.1-0.3,0.3-0.3,0.5c0,0.3,0.3,0.5,0.6,0.6c2.4,0.9,5.2,0.4,7.1-1.2
		c-1.6-0.6-3.3-0.7-4.9-0.5L132.3,67.9z"/>
	<path class="st3" d="M71.6,50.5c-1.3-0.2-2.7,0-4,0.5c-0.2,0.1-0.4,0.2-0.5,0.4c-0.3,0.5,0.5,0.9,1.1,1c2.2,0.2,4.4,0.1,6.5-0.4
		c0.3-0.1,0.8-0.3,0.7-0.6c-0.1-0.2-0.2-0.2-0.4-0.3c-1.1-0.4-2.4-0.5-3.6-0.3L71.6,50.5z"/>
</g>
<g>
	<path class="st0" d="M75.2,84.5c1.7,5.6,9,6.7,14.8,6.8c29.1,0.4,58.5,0.8,86.7-6.4c3-0.8,6.1-1.7,8.5-3.5c2.5-1.9,4.2-4.9,3.8-8
		c0-0.3-0.5-4.5-0.5-4.8c-1.2-4.1-5.6-2.3-9.8-3.3c-22.1-5.6-45.4-0.6-68.1,1.9c-6.8,0.7-32.5-0.9-36.3,9.4
		C73.5,78.2,74.4,82.1,75.2,84.5z"/>
	<path class="st1" d="M74.7,80.1c1.7,5.6,9,6.7,14.8,6.8c29.1,0.4,58.5,0.8,86.7-6.4c3-0.8,6.1-1.7,8.5-3.5c2.5-1.9,4.2-4.9,3.8-8
		c-0.7-4.6-5.9-7-10.4-8.1c-22.1-5.6-45.4-0.6-68.1,1.9C102.1,63.5,69.6,63.6,74.7,80.1z"/>
	<path class="st2" d="M177.7,60.6c-22.1-5.6-45.4-0.6-68.1,1.9c-8,0.9-40.5,0.9-35.3,17.5c1.7,5.6,9,6.7,14.8,6.8
		c4.5,0.1,8.9,0.1,13.4,0.2c0.1-1.8,1.1-3.4,2.3-4.8c6.2-7.3,15.9-10.6,25.2-13.1c9.8-2.6,19.7-4.5,29.8-5.8
		c7.3-0.9,14.8-1.5,22.2-1.1C180.6,61.4,179.2,61,177.7,60.6z"/>
	<path class="st3" d="M86.5,76.3c0.7,0.5,1.7,0.4,2.6,0.2c1.6-0.3,3.1-0.8,4.5-1.5c0.5-0.2,1.1-0.5,1.4-1c0.4-0.5,0.5-1.1,0.2-1.6
		c-0.4-0.5-1.1-0.6-1.7-0.6C92.3,71.9,82.9,74,86.5,76.3z"/>
	<path class="st3" d="M121.1,83.7c0.4,0.2,0.8,0.2,1.3,0.2c3,0.2,6.2,0.3,8.7-1.5c0.2-0.1,0.4-0.3,0.4-0.5c0.2-0.4-0.1-0.8-0.5-1
		c-0.4-0.2-0.8-0.2-1.2-0.2c-2.2,0-4.7,0-6.8,0.4C122,81.3,118.9,82.6,121.1,83.7z"/>
	<path class="st3" d="M160,72.2c0.5,0.7,1.6,0.6,2.4,0.3c2.1-0.9,3.9-2.5,5.2-4.3c2.2-3-0.5-6.2-3.5-3.8
		C162.9,65.4,159.2,70.9,160,72.2z"/>
	<path class="st3" d="M129.5,67.3c0.7,0.4,1.5,0.5,2.2,0.6c1.6,0.2,3.3,0.2,4.9,0c1.2-0.1,2.5-0.4,3.5-1.1c0.6-0.5,1.1-1.3,0.8-2
		c-0.3-0.6-1-0.9-1.6-1.1c-2.6-0.7-5.9-1.1-8.5-0.3C128.9,63.9,127,65.9,129.5,67.3z"/>
	<path class="st3" d="M174,75.5c-1-0.4-2.3,0-3,0.8c-0.1,0.1-0.2,0.3-0.2,0.5c0,0.3,0.4,0.5,0.7,0.5c2.4,0.6,5.2-0.1,6.9-2
		c-1.6-0.4-3.3-0.4-5,0L174,75.5z"/>
	<path class="st3" d="M111.8,64.6c-1.4,0-2.7,0.3-3.9,0.9c-0.2,0.1-0.4,0.2-0.4,0.4c-0.2,0.5,0.6,0.9,1.2,0.8c2.2,0,4.3-0.4,6.4-1
		c0.3-0.1,0.8-0.4,0.6-0.7c-0.1-0.2-0.3-0.2-0.4-0.3c-1.2-0.3-2.4-0.3-3.6,0.1L111.8,64.6z"/>
</g>
<path class="st5" d="M80.3,72.9c-1.4,1.6-2.1,4-1.4,6c0.6,1.7,2.2,2.8,3.9,3.3c1.7,0.5,3.5,0.4,5.3,0.2c0.9-0.1,1.8-0.4,2.1-1.2
	c0.4-1.2-1-2.2-1.7-3.2c-1.4-1.8-0.7-4.6,0.9-6.2c1.7-1.6,4-2.3,6.3-2.7c2.3-0.4,4.6-0.7,6.7-1.7c0.4-0.2,0.9-0.6,0.8-1.1
	c-0.2-0.8-6.7-0.6-7.5-0.5c-1.8,0.1-3.6,0.3-5.3,1C87.1,68.1,82.7,70.1,80.3,72.9z"/>
<path class="st5" d="M113.3,65.8c5.5-0.7,10.9-1.1,16.4-1.4c1.3,0,2.8-0.2,3.6-1.2c0.1-0.1,0.2-0.3,0.2-0.5c0-0.4-0.6-0.6-1-0.6
	c-4.4-0.4-8.9-0.2-13.3,0.6c-1.6,0.3-3.6,0.4-5.2,1.1C113.1,64.1,111,66.1,113.3,65.8z"/>
</svg>
