<?xml version="1.0" encoding="utf-8"?>
<!-- Generator: Adobe Illustrator 21.0.0, SVG Export Plug-In . SVG Version: 6.00 Build 0)  -->
<svg version="1.1" id="Слой_2" xmlns="http://www.w3.org/2000/svg" xmlns:xlink="http://www.w3.org/1999/xlink" x="0px" y="0px"
	 viewBox="0 0 200 109" style="enable-background:new 0 0 200 109;" xml:space="preserve">
<style type="text/css">
	.st0{opacity:0.2;clip-path:url(#SVGID_2_);}
	.st1{fill:#AC1618;}
	.st2{fill:#5C6E1C;}
	.st3{opacity:0.33;}
	.st4{fill:#F63D1F;}
	.st5{opacity:0.44;}
	.st6{opacity:0.18;}
	.st7{fill:#B91C23;}
	.st8{opacity:0.42;clip-path:url(#SVGID_4_);}
	.st9{opacity:0.29;}
	.st10{fill:#E2220E;}
	.st11{opacity:0.23;}
	.st12{fill:#FFFFFF;}
	.st13{opacity:0.36;clip-path:url(#SVGID_6_);}
	.st14{fill:#2F3B0D;}
	.st15{opacity:0.2;clip-path:url(#SVGID_6_);}
	.st16{fill:#7B913E;}
	.st17{opacity:0.55;}
	.st18{opacity:0.22;}
	.st19{fill:#CA1A0B;}
	.st20{fill:#F58F51;}
	.st21{fill:#F09453;}
	.st22{opacity:0.3;}
	.st23{fill:#EECCA7;}
	.st24{fill:#8AA03C;}
	.st25{opacity:0.15;}
	.st26{fill:#FFE7CF;}
	.st27{fill:#FFE4A9;}
	.st28{opacity:0.37;clip-path:url(#SVGID_8_);}
	.st29{fill:#C9DB40;}
</style>
<g>
	<g>
		<g>
			<defs>
				<path id="SVGID_1_" d="M98.3,28.4c-6,1.3-12,2.6-18,3.9c-2.8,0.6-5.6,1.2-8.4,2.1c-11.1,3.4-15.3,10-17.2,15.4
					c-0.6,1.9-0.6,7.5-0.5,9.5c0.1,1.9,2,7.9,2.6,9.6c0.9,2.5,1.5,5.1,2.8,7.4c4.6,8.5,16.8,18.8,55.9,3.4c2.7-1.1,8.8-4.5,9.3-7.9
					c0.7-5.5-1.5-6.4-0.6-9.5c0.3-1.1,0.9-2.1,1.4-3.2c1.2-2.5,1.8-5.3,1.3-8.1c-0.5-2.7-2.1-5.3-4.5-6.7c-1.1-0.6-2.3-1-3.2-1.9
					c-1.7-1.7-1.3-4.5-2.3-6.7c-0.9-2-2.7-3.4-4.5-4.7c-1.7-1.2-3.5-2.5-5.5-3.1C104,27.2,101.1,27.8,98.3,28.4z"/>
			</defs>
			<use xlink:href="#SVGID_1_"  style="overflow:visible;fill:#CC1213;"/>
			<clipPath id="SVGID_2_">
				<use xlink:href="#SVGID_1_"  style="overflow:visible;"/>
			</clipPath>
			<g class="st0">
				<path class="st1" d="M114,21.9c-7-8.5-55.4,9.4-60.5,16C50,42.4,42,54.3,43.4,59.7c1.3,5.2,8.2,22.1,9.6,27.1
					c0.6,2.3,26.8,4.3,26.7,6.6c-0.1,3.4,44.8,9,50.5,6.7c5.1-2,4.8-9.7,0.6-12.4c-5.5-3.5-11.9-4.7-16.6-9.2
					c-2.3-2.2-3.5-4.2-4-6.9c-0.9-4.2-0.1-9.1-0.5-13.4c-0.3-4-1.9-8-4.2-11.4c-2-3-5.5-5.6-6.3-9.2c-0.7-2.8,1.6-5.5,3.5-7.1
					c2.9-2.5,6.2-3,9.7-4.1C114.5,25.9,115.4,23.6,114,21.9L114,21.9z"/>
			</g>
			<g class="st0">
				<path class="st1" d="M88.1,25c-8.5-7.1-52.7,19.5-56.5,26.9c-2.6,5.1-8.3,18.3-5.9,23.4c2.3,4.9,12.1,20.2,14.4,24.9
					c1,2.1,27.1-0.7,27.5,1.6c0.6,3.4,45.7,0.5,50.9-2.8c4.7-2.9,3-10.4-1.7-12.3c-6-2.4-12.6-2.4-18-5.9c-2.7-1.8-4.2-3.5-5.3-6.1
					c-1.7-4-1.8-8.9-3-13.1c-1.1-3.9-3.4-7.5-6.2-10.4c-2.5-2.6-6.4-4.5-7.9-7.8c-1.2-2.6,0.6-5.7,2.2-7.7c2.4-3,5.5-4.1,8.8-5.8
					C89.4,28.9,89.8,26.5,88.1,25L88.1,25z"/>
			</g>
			<g class="st0">
				<path class="st1" d="M76.4,25.4C67,17.5,17.6,47.1,13.4,55.5c-2.9,5.7-9.2,20.4-6.6,26.1c2.5,5.4,13.6,22.6,16.1,27.8
					c1.2,2.4,30.3-0.8,30.7,1.7c0.6,3.8,51,0.6,56.9-3.1c5.2-3.3,3.3-11.7-1.9-13.7c-6.8-2.7-14-2.7-20.1-6.6c-3-2-4.7-3.9-5.9-6.8
					c-1.9-4.5-2-10-3.3-14.6c-1.2-4.4-3.8-8.4-6.9-11.6c-2.8-2.9-7.2-5-8.8-8.8c-1.3-2.9,0.7-6.4,2.4-8.5c2.6-3.3,6.2-4.6,9.8-6.5
					C77.9,29.7,78.4,27,76.4,25.4L76.4,25.4z"/>
			</g>
		</g>
		<path class="st2" d="M57,68.4c0.5,0.4,0.7,1.2,0.9,1.8c0.6,1.8,1.9,3.5,3.7,3.8c1.7,0.3,3.5-0.7,4.6-2.1c3.3-3.8,3.1-9.6,1.9-14.5
			c-0.6-2.4-1.6-5.1-3.9-6.1c-2-0.9-4.5-0.2-6.1,1.4c-1.5,1.6-2.2,3.9-2.2,6.1c0,0.7,0.1,1.4-0.3,2c-0.4,0.7-1.2,1.1-1.9,1.3
			c-1.9,0.7-3.9,1.3-6,1.7c-2.5,0.5-5.8,0.5-7.1-1.7c-0.3-0.6-0.5-1.2-0.9-1.8c-0.4-0.5-1.1-0.9-1.7-0.6c-0.5,0.2-0.7,0.8-0.8,1.3
			c-0.4,1.3-0.8,2.7-0.7,4.1c0,1.4,0.6,2.8,1.7,3.7c0.7,0.5,1.6,0.8,2.5,1c4,0.9,8.5,1.8,12-0.3C54.1,68.6,55.8,67.4,57,68.4z"/>
		<g class="st3">
			<path class="st4" d="M67.4,47.6c4.1-0.5,8.2-1.9,12.2-2.8c4.2-0.9,8.4-1.5,12.7-2.1c4.2-0.6,8.5-1.1,12.8-1.3
				c3.8-0.1,10.7-2.9,8-8c-2.3-4.5-7.2-4.1-11.5-3.8c-4.8,0.4-9.5,1.5-14.1,2.8c-7.6,2.1-17.8,4.9-22.3,11.9
				C64.1,46,65.6,47.9,67.4,47.6L67.4,47.6z"/>
		</g>
		<g class="st5">
			<path class="st4" d="M72.4,58.4c3.1,1.7,6.5,1.4,9.9,1.1c3.9-0.2,7.8-0.6,11.8-1.1c3.6-0.4,7.3-0.4,10.9-0.2
				c3.9,0.2,7.6,1.3,11.4,1.7c8.8,1.1,10.9-12.1,2.9-14.9c-7.9-2.7-17.4-1.4-25.4,0.2c-4.3,0.9-8.5,2.1-12.6,3.6
				c-3.5,1.4-7.4,2.6-9.7,5.7C70.8,55.8,71.2,57.8,72.4,58.4L72.4,58.4z"/>
		</g>
		<g class="st6">
			<path class="st7" d="M118.8,70.7c-3-0.6-5.7-0.2-8.7,0.1c-3.5,0.4-7.1,0.7-10.6,1.3c-3.5,0.7-7,1.4-10.6,0.8
				c-9.1-1.5-15.2-1.6-16.7,2.8c-1.7,5.1,2.8,9.2,7.6,8.6c5.6-0.7,12.8-0.1,19-1.5c3.8-0.9,7.8-2.1,11.5-3.4c3.5-1.3,6.2-3,9.1-5.1
				C120.8,73.3,120.3,71,118.8,70.7L118.8,70.7z"/>
		</g>
		<g>
			<defs>
				<path id="SVGID_3_" d="M98.3,28.4c-6,1.3-12,2.6-18,3.9c-2.8,0.6-5.6,1.2-8.4,2.1c-11.1,3.4-15.3,10-17.2,15.4
					c-0.6,1.9-0.6,7.5-0.5,9.5c0.1,1.9,2,7.9,2.6,9.6c0.9,2.5,1.5,5.1,2.8,7.4c4.6,8.5,16.8,18.8,55.9,3.4c2.7-1.1,8.8-4.5,9.3-7.9
					c0.7-5.5-1.5-6.4-0.6-9.5c0.3-1.1,0.9-2.1,1.4-3.2c1.2-2.5,1.8-5.3,1.3-8.1c-0.5-2.7-2.1-5.3-4.5-6.7c-1.1-0.6-2.3-1-3.2-1.9
					c-1.7-1.7-1.3-4.5-2.3-6.7c-0.9-2-2.7-3.4-4.5-4.7c-1.7-1.2-3.5-2.5-5.5-3.1C104,27.2,101.1,27.8,98.3,28.4z"/>
			</defs>
			<clipPath id="SVGID_4_">
				<use xlink:href="#SVGID_3_"  style="overflow:visible;"/>
			</clipPath>
			<g class="st8">
				<path class="st7" d="M69.5,48.8c2,0.3,3.8-0.4,5.7-0.8c2.8-0.5,5.7-1,8.5-1.6c5.6-1.1,11.2-2.1,16.9-2.8
					c5.5-0.6,10.9-0.7,16.4-0.9c4.8-0.2,9.2,2.2,13.9,2.8c2.4,0.3,3.2-3,1.8-4.4c-3.6-3.8-7.7-5.9-13-6.3
					c-5.9-0.4-11.5,1.9-17.2,2.9c-5.9,1-11.7,1.8-17.4,3.4c-5.7,1.6-10.8,3.6-16,6.3C68.4,47.8,68.8,48.7,69.5,48.8L69.5,48.8z"/>
			</g>
			<g class="st8">
				<path class="st7" d="M75.4,67.5c11.4,1.8,22.6,2.4,34.1,2c10.5-0.4,21.3-1.2,27.7-10.7c1.7-2.6-1.1-5.9-3.9-5.1
					c-3.8,1-6.9,3.2-10.4,4.9c-4.3,2.1-10.1,2.1-14.8,2.7c-10.8,1.3-21.5,3.8-32.4,4.2C74.5,65.5,74.2,67.3,75.4,67.5L75.4,67.5z"/>
			</g>
		</g>
		<g class="st9">
			<path class="st10" d="M77.3,82.3c-2.6-2.2-5.4-4.2-6.8-7.3c-1.6-3.5-7.1-0.4-5.3,3.1c1.9,3.7,6.3,6.4,10.3,7.2
				C77.1,85.5,78.8,83.5,77.3,82.3L77.3,82.3z"/>
		</g>
		<g class="st11">
			<path class="st12" d="M93.8,36.7c2.4-0.3,5-0.4,7.4-0.4c1.1,0,2.4,0.1,3.5,0.2c1.2,0.2,2.3,0.7,3.5,0.2c0.9-0.3,1.5-1,1.5-2
				c0-3.4-4.3-4.4-7-4.2C99.1,30.8,96,32.1,93,34C91.9,34.7,92.2,36.9,93.8,36.7L93.8,36.7z"/>
		</g>
		<g class="st11">
			<path class="st12" d="M93.8,51.7c2.5-0.1,5.1-0.3,7.6-0.4c2.7-0.1,5.6,0.1,8.2-0.8c1.4-0.5,2-2.7,0.4-3.4
				c-5-2.3-11.8-0.4-16.6,1.3C91.7,49,91.8,51.8,93.8,51.7L93.8,51.7z"/>
		</g>
		<g class="st11">
			<path class="st12" d="M114.8,49.7c0,0.1,0,0.1,0,0.2c0-0.2-0.1-0.4-0.1-0.6c0,0.4,0.1,0.7,0.1,1.1c0.2,1,1.2,1.9,2.2,2.2
				c1,0.2,1.9,0,2.7-0.7c0.7-0.7,1-1.7,0.7-2.7c-0.5-1.8-2.5-2.7-4.2-2c-0.5,0.2-0.9,0.4-1.2,1C114.8,48.6,114.8,49.2,114.8,49.7
				L114.8,49.7z"/>
		</g>
		<g>
			<path class="st12" d="M106.2,33.1c0.3,0.4,0.6,0.9,0.9,1.4c0.5,0.7,0.9,1.3,1.9,1.2c0.4-0.1,0.7-0.5,0.7-0.9
				c0.1-0.7-0.6-1.2-1.1-1.6c-0.4-0.4-0.9-0.7-1.4-1C106.6,31.8,105.8,32.4,106.2,33.1L106.2,33.1z"/>
		</g>
		<g>
			<defs>
				<path id="SVGID_5_" d="M57,68.4c0.5,0.4,0.7,1.2,0.9,1.8c0.6,1.8,1.9,3.5,3.7,3.8c1.7,0.3,3.5-0.7,4.6-2.1
					c3.3-3.8,3.1-9.6,1.9-14.5c-0.6-2.4-1.6-5.1-3.9-6.1c-2-0.9-4.5-0.2-6.1,1.4c-1.5,1.6-2.2,3.9-2.2,6.1c0,0.7,0.1,1.4-0.3,2
					c-0.4,0.7-1.2,1.1-1.9,1.3c-1.9,0.7-3.9,1.3-6,1.7c-2.5,0.5-5.8,0.5-7.1-1.7c-0.3-0.6-0.5-1.2-0.9-1.8c-0.4-0.5-1.1-0.9-1.7-0.6
					c-0.5,0.2-0.7,0.8-0.8,1.3c-0.4,1.3-0.8,2.7-0.7,4.1c0,1.4,0.6,2.8,1.7,3.7c0.7,0.5,1.6,0.8,2.5,1c4,0.9,8.5,1.8,12-0.3
					C54.1,68.6,55.8,67.4,57,68.4z"/>
			</defs>
			<clipPath id="SVGID_6_">
				<use xlink:href="#SVGID_5_"  style="overflow:visible;"/>
			</clipPath>
			<g class="st13">
				<path class="st14" d="M57,63.4c-3.7,2.2-6.9,3.3-11.3,3.2c-1.5,0-2.9,0-4.3-0.5c-2.2-0.7-1.5-4.3-1.4-6c0-2.4-3.5-2.8-4.1-0.6
					c-1.8,6.5,1.7,11.2,8.2,11.4c4.4,0.2,14.4-0.5,14.2-6.8C58.3,63.5,57.6,63.1,57,63.4L57,63.4z"/>
			</g>
			<g class="st15">
				<path class="st14" d="M60.8,67.6c0.4,2.6,1.5,5.4,3.3,7.2c0.5,0.5,1.1-0.1,0.9-0.7c-1.1-2.3-2.6-4.3-3.2-6.9
					C61.7,66.6,60.6,66.9,60.8,67.6L60.8,67.6z"/>
			</g>
			<g class="st15">
				<path class="st14" d="M62.7,66.6c0.8,2.4,2.6,4.7,4.8,5.9c0.6,0.3,1.1-0.4,0.7-0.9c-1.6-1.8-3.5-3.2-4.9-5.3
					C63.1,66,62.6,66.2,62.7,66.6L62.7,66.6z"/>
			</g>
			<g class="st15">
				<path class="st14" d="M65.4,65.3c1.9,1.6,4.4,2.3,6.8,2.6c0.5,0.1,0.9-0.6,0.4-0.9c-2.2-1-4.6-1.1-6.7-2.4
					C65.6,64.4,65.1,65,65.4,65.3L65.4,65.3z"/>
			</g>
			<g class="st15">
				<path class="st14" d="M65.5,63c2.9,0.5,5.5-1,7.7-2.7c0.5-0.4,0-1.3-0.6-1.1c-2.4,0.9-4.5,2.3-7.1,2.8
					C64.9,62.1,64.9,62.9,65.5,63L65.5,63z"/>
			</g>
			<g class="st15">
				<path class="st14" d="M63.4,61c2.3-2.2,4.8-4.8,5.7-8c0.1-0.5-0.7-0.9-0.9-0.4c-1.4,2.9-3.1,5.5-5.2,7.9
					C62.6,60.8,63,61.3,63.4,61L63.4,61z"/>
			</g>
			<g class="st15">
				<path class="st14" d="M62.1,59.4c1.3-3.8,2.8-8,0.4-11.6c-0.4-0.5-1.3-0.2-1.1,0.5c1.3,3.9,0.8,7-0.2,10.9
					C61.1,59.8,61.9,60,62.1,59.4L62.1,59.4z"/>
			</g>
			<g class="st15">
				<path class="st14" d="M61.1,58c-0.4-3.5-1-6.9-2.7-10c-0.2-0.4-0.9-0.1-0.8,0.3c1,3.3,2.1,6.4,2.6,9.8
					C60.3,58.6,61.1,58.5,61.1,58L61.1,58z"/>
			</g>
			<g class="st15">
				<path class="st14" d="M59.7,59.6c0-3.3-2.8-5.2-4.6-7.6c-0.5-0.6-1.4-0.1-1,0.6c1.2,2.5,3.8,4.4,4.6,7.1
					C58.9,60.3,59.7,60.2,59.7,59.6L59.7,59.6z"/>
			</g>
		</g>
		<g>
			<path class="st16" d="M41.6,64.2c4.5,2.8,11.1,0.4,15.3-1.6c1.2-0.6,0.1-2.5-1.1-1.8c-2.2,1.1-3.8,1.8-6.3,2.2
				c-2.6,0.5-5.1,1.7-7.8,0.8C41.5,63.6,41.4,64.1,41.6,64.2L41.6,64.2z"/>
		</g>
		<g class="st17">
			<path class="st16" d="M38.8,62.9c0.5,2.3,0.7,4.4,3.4,4.9c3,0.5,7.1,0.4,10.1-0.4c0.2,0,0.1-0.3-0.1-0.3c-2.5,0.4-5,0.3-7.5,0.4
				c-0.8,0-1.6,0.1-2.4,0.1c-2.6,0-2.7-3.2-3.1-4.8C39.1,62.6,38.8,62.7,38.8,62.9L38.8,62.9z"/>
		</g>
		<g class="st17">
			<path class="st16" d="M53,67.1c0.6-0.1,1.3,0,1.9-0.2c0.1,0,0.1-0.2-0.1-0.2C54.2,66.7,53.6,66.9,53,67.1C53,67,53,67.1,53,67.1
				L53,67.1z"/>
		</g>
		<g class="st17">
			<path class="st16" d="M44.5,69.2c2.1,0.4,4.3,0,6.4-0.4c0.2,0,0.1-0.3,0-0.3c-2.1-0.1-4.1,0.7-6.2,0.3
				C44.3,68.7,44.2,69.1,44.5,69.2L44.5,69.2z"/>
		</g>
		<g class="st17">
			<path class="st16" d="M63.3,59.1c1-1.4,2.7-2.7,3.1-4.4c0.1-0.4-0.4-0.5-0.6-0.2c-0.5,0.7-0.9,1.4-1.4,2.1
				c-0.6,0.8-1.1,1.5-1.6,2.3C62.6,59.1,63.1,59.3,63.3,59.1L63.3,59.1z"/>
		</g>
		<g class="st17">
			<path class="st16" d="M61.7,55.3c0.3-1,0.7-2,0.5-3.1c0-0.3-0.4-0.2-0.5,0.1c-0.1,1-0.3,2-0.4,3C61.3,55.4,61.6,55.5,61.7,55.3
				L61.7,55.3z"/>
		</g>
		<g class="st17">
			<path class="st16" d="M59.6,56.9c-0.3-0.9-0.5-1.9-1.1-2.6c-0.2-0.2-0.5,0-0.4,0.2c0.3,0.9,0.8,1.7,1.3,2.5
				C59.4,57.1,59.6,57,59.6,56.9L59.6,56.9z"/>
		</g>
		<g class="st17">
			<path class="st16" d="M58.3,59.1c-0.3-0.5-0.5-1-0.9-1.4c-0.1-0.1-0.3,0-0.3,0.2c0.2,0.5,0.6,1,0.9,1.4
				C58.1,59.4,58.4,59.2,58.3,59.1L58.3,59.1z"/>
		</g>
		<g class="st17">
			<path class="st16" d="M64.1,61.6c0.7-0.2,1.4-0.3,2.1-0.6c0.2,0,0.1-0.3,0-0.3c-0.8,0.1-1.5,0.3-2.2,0.5
				C63.7,61.2,63.8,61.6,64.1,61.6L64.1,61.6z"/>
		</g>
		<g class="st17">
			<path class="st16" d="M63.7,65.6c0.7,1.5,1.9,2.9,3.3,3.9c0.3,0.2,0.7-0.3,0.4-0.6c-1.1-1.2-2.3-2.3-3.1-3.8
				C64.1,64.7,63.5,65.1,63.7,65.6L63.7,65.6z"/>
		</g>
		<g class="st17">
			<path class="st16" d="M62.9,70c0.2,0.6,0.5,1.1,0.9,1.6c0.1,0.1,0.4,0,0.3-0.2c-0.2-0.6-0.5-1.1-0.7-1.7
				C63.2,69.4,62.8,69.7,62.9,70L62.9,70z"/>
		</g>
		<g class="st17">
			<path class="st16" d="M59.3,67.7c0.1,1.6,0.1,3.2,1.1,4.5c0.3,0.4,0.8,0.1,0.6-0.4c-0.6-1.4-0.9-2.8-1.2-4.3
				C59.8,67.3,59.3,67.4,59.3,67.7L59.3,67.7z"/>
		</g>
		<g class="st18">
			<path class="st4" d="M97.4,79.1c-7.8,2.1-18.5,2.8-24.2-3.9c-3.8-4.4-10.7,2.8-6.3,6.3c9,7.1,22.7,6.6,31.5-0.6
				C99.3,80.1,98.4,78.8,97.4,79.1L97.4,79.1z"/>
		</g>
	</g>
	<g>
		<path class="st4" d="M125.5,89.8c1.3,1.2,2.6,2.6,4.3,3.3c1.2,0.5,2.4,0.7,3.7,0.8c4.6,0.4,9.5,0,13.5-2.4
			c1.9-1.2,3.6-2.8,5.1-4.5c11.9-12.8,19.4-29.5,21.2-46.8c0.2-2.4,0.4-4.8-0.5-7.1c-1.7-4.4-7.1-6.7-11.7-5.7
			c-3.6,0.9-7,3.4-10.7,2.9c-1.5-0.2-2.9-1-4.3-1.3c-1.5-0.3-3.2-0.2-4.2,1c-0.7,0.5-1.5-0.4-1.9-1.2c-2.8-5.8-9.2-9.7-15.7-9.6
			c-2.5,0.1-5.1,0.7-7.1,2.3c-4,3.1-4.6,8.7-5.8,13.6c-1.4,5.7-3.9,11.1-5.9,16.6c-1.4,3.8-2.5,7.7-3.4,11.6
			c-1.3,5.8-2,12.4,1.1,17.5c2.5,4,7.3,6.5,12,6.2c1.5-0.1,3-0.5,4.4-0.3C121.8,86.9,123.8,88.3,125.5,89.8z"/>
		<path class="st19" d="M167.8,32.6c-2.8-3.4-8.4-1.3-13.5,0.6c-2.2,0.8-4.9,0.3-6.9-1c-2.7-1.7-3.7-3.7-7.3-3.7
			c-1.2,0-2.8-1.5-3.7-0.8c-6.2-2.4-10.5-10-18.4-1.3c-3.2,3.6-3.1,8.3-4.4,12.9c-0.9,3.3-2.1,6.7-3.1,9.9c-0.4,1.1-2.4,6.5-2.7,7.6
			c-0.2,0.5-0.3,1-0.5,1.5c-2.9,7.9-4,17.9,4.9,23.1c3.3,1.9,7.5,1.5,11.1,2.4c4,0.9,7.5,5.1,11.7,5.6c9.2,1.2,15.1-4.9,20.1-11.8
			c3.7-5.1,8.6-13,10.7-18.9C168.1,52.3,172.5,38.4,167.8,32.6z"/>
		<g class="st5">
			<path class="st20" d="M116.6,79.3c0.8-3.1,0.8-6.2,1.6-9.3c0.5-2.1,1.5-3.9,2.4-5.9c1.7-3.8,3.4-7.6,5.2-11.4
				c2.1-4.4,4.2-8.8,7-12.8c0.4-0.5,1-1.1,1.5-1.6c0.1-0.1,1.1-0.7,0.4-0.4c3.5-1.3-1.1,0.3,1.8-0.5c0.7-0.2,3-1.6,1.9-1
				c1-0.5,1.6-1.7,1.6-2.9c0.1-3.4-2.5-5.2-5.5-5.6c-2.6-0.3-5,1.3-6.8,3c-4.1,3.9-6.5,10.5-8.2,15.8c-1.6,5-2.6,10.2-3.7,15.3
				c-0.5,2.5-1.4,4.8-1.7,7.3c-0.3,2.8-1.3,8.6,1.6,10.3C116,79.9,116.5,79.7,116.6,79.3L116.6,79.3z"/>
		</g>
		<g class="st5">
			<path class="st20" d="M128.6,82.6c12.2,7.4,21.9-9.2,25.2-18.7c2.3-6.6,4.8-13.1,3.8-20.2c-1-7.3-9.4-12.6-16.2-12.8
				c-3.7-0.1-7.2,2.7-8.2,6.2c-1.1,3.9,0.8,7.3,3.9,9.6c0.8,0.7,1.8,1.2,2.9,1.5c0,0,2.9,1.1,1.3,0.4c0.5,0.2,1,0.5,1.5,0.8
				c-0.6-0.3-0.8-1,0.1,0.6c1.8,3.1,0.3,7.7-0.4,10.9c-0.8,3.6-2,7.1-3.8,10.4c-1.4,2.5-5.6,9.2-8.9,8.4
				C128.1,79.2,127,81.6,128.6,82.6L128.6,82.6z"/>
		</g>
		<g>
			<path class="st21" d="M115.5,31.4c1.4-2.3,2.9-4.7,5.2-6.2c3.1-2,7.9-0.1,10.1,2.3c3.2,3.4,5.9,5.4,10.7,4.5c1-0.2,1-1.8,0-2
				c-3.7-0.6-6-1.9-8.6-4.6c-1.9-2-4.5-3.1-7.2-3.3c-6.2-0.5-8.8,4.1-10.6,9.3C115.2,31.4,115.4,31.5,115.5,31.4L115.5,31.4z"/>
		</g>
		<g>
			<path class="st21" d="M170,46.3c-0.6-5.3,2.7-12.4-3-16c-3.1-1.9-6.9,0.2-9.8,1.2c-3.3,1.2-7.9,1-11.3,0.3
				c-0.7-0.2-1.6,0.5-1.3,1.3c1.6,3.9,10.5,2,13.4,1.1c2.2-0.6,4-1.8,6.4-2c3.1-0.3,3.8,3.2,4.2,5.4c0.6,2.9-0.4,6.1,1.1,8.8
				C169.7,46.6,170,46.5,170,46.3L170,46.3z"/>
		</g>
		<g class="st5">
			<path class="st20" d="M133.9,81.3c5.7-4.3,10.2-7.4,12.9-14.4c2-5.2,4.4-15.3,0.9-20.1c-0.9-1.2-3.3-1.4-3.6,0.5
				c-0.4,2.5,0.1,4.9,0.1,7.4c0,3.3-0.5,6.7-1.1,9.9c-1.3,6.6-5.3,11.2-9.5,16.1C133.3,81,133.6,81.6,133.9,81.3L133.9,81.3z"/>
		</g>
		<g class="st5">
			<path class="st20" d="M116.7,74.5c2.4-5.6,4-11.4,6.4-16.9c1.3-3,2.8-5.8,4.7-8.5c1.9-2.7,4.6-4.5,6.5-7.2c0.9-1.3-0.6-3.2-2-2.6
				c-5.8,2.1-9.6,9.5-11.7,14.9c-2.6,6.5-3.9,13.3-4.1,20.3C116.3,74.6,116.6,74.7,116.7,74.5L116.7,74.5z"/>
		</g>
		<g class="st5">
			<path class="st20" d="M117.9,69.6c1.3-11.4,9.9-19.9,17.7-27.4c0.9-0.8-0.2-2.2-1.3-1.7c-9.3,5.3-17,18.3-16.6,29
				C117.7,69.7,117.9,69.7,117.9,69.6L117.9,69.6z"/>
		</g>
		<g class="st5">
			<path class="st20" d="M144.2,67.8c1.5-3.7,3.4-6.9,3.7-11c0.3-3.9-0.8-8.3-1.7-12c-0.2-0.8-1.5-0.8-1.6,0
				c-0.5,3.6,0.5,7.1,0.6,10.7c0.2,4.1-1.6,8.1-2,12.2C143.1,68.3,144,68.3,144.2,67.8L144.2,67.8z"/>
		</g>
		<g class="st22">
			<path class="st4" d="M147.2,82.8c11.8-10,19.2-26.2,19-41.6c-0.1-3.9-6-3.9-6,0c-0.1,3.8-0.1,7.6-0.8,11.4
				c-0.6,3.4-2,6.5-3.2,9.7c-2.7,7-5.1,13.7-10,19.5C145.6,82.5,146.5,83.5,147.2,82.8L147.2,82.8z"/>
		</g>
		<g class="st22">
			<path class="st4" d="M116.5,44.8c-3.1,5.2-6.4,10.3-8.3,16.1c-1.5,4.4-4,12,0.2,15.6c1.9,1.6,4.3,0.5,4.6-1.9
				c0.3-2.3-0.5-4.7-0.4-7c0.1-2.6,0.8-5.1,1.2-7.6c0.9-4.9,3-9.6,4.7-14.3C119,44.4,117.1,43.7,116.5,44.8L116.5,44.8z"/>
		</g>
		<g class="st22">
			<path class="st4" d="M115.8,46.9c0.2,0.1,0.3,0.1,0.5,0.1c0.3,0,0.4-0.3,0.2-0.5c-0.1-0.1-0.2-0.3-0.4-0.4
				C115.7,45.7,115.2,46.7,115.8,46.9L115.8,46.9z"/>
		</g>
		<g class="st22">
			<path class="st4" d="M117.7,40.8c0.1,0,0.1,0.1,0.2,0.1c0.2,0.1,0.5-0.1,0.4-0.4c0-0.1-0.1-0.1-0.1-0.2
				C117.8,39.9,117.2,40.5,117.7,40.8L117.7,40.8z"/>
		</g>
		<g class="st22">
			<path class="st4" d="M119.1,36.5c0,0.4,0.2,0.8,0.6,0.8c0.4,0.1,0.7-0.2,0.6-0.6c0-0.1-0.1-0.3-0.1-0.4
				C120.2,35.7,119.1,35.9,119.1,36.5L119.1,36.5z"/>
		</g>
		<g class="st22">
			<path class="st4" d="M117.7,33.7c0,0.3,0,0.5,0.2,0.7c0.1,0.2,0.4,0.2,0.6,0c0.2-0.2,0.2-0.4,0.2-0.7
				C118.7,33.1,117.7,33.1,117.7,33.7L117.7,33.7z"/>
		</g>
		<g class="st22">
			<path class="st4" d="M120.2,31.5C120.2,31.5,120.2,31.5,120.2,31.5c0.2,0.7,1.1,0.7,1.2,0.1c0,0,0-0.1,0-0.1
				c0.1-0.4-0.2-0.8-0.6-0.8C120.4,30.7,120.1,31.1,120.2,31.5L120.2,31.5z"/>
		</g>
		<g class="st22">
			<path class="st4" d="M122.9,29.2c0,0.2,0,0.3,0.1,0.5c0.1,0.2,0.3,0.2,0.4,0c0.1-0.2,0.1-0.3,0.1-0.5
				C123.6,28.8,122.9,28.8,122.9,29.2L122.9,29.2z"/>
		</g>
		<g class="st22">
			<path class="st4" d="M122.1,33.2C122.2,33.2,122.2,33.2,122.1,33.2C122.1,33.2,122.1,33.2,122.1,33.2L122.1,33.2z"/>
		</g>
		<g class="st22">
			<path class="st4" d="M119.8,34.2c0.1,0.2,0.2,0.4,0.4,0.5c0.2,0.1,0.3,0,0.5-0.2c0,0,0,0,0,0c0.1-0.1,0.1-0.2,0-0.3
				c-0.1-0.2,0-0.1,0,0.1C120.8,33.5,119.6,33.5,119.8,34.2L119.8,34.2z"/>
		</g>
		<g class="st22">
			<path class="st4" d="M117.1,38C117.1,38,117.1,38.1,117.1,38c0.1,0.3,0.2,0.5,0.4,0.5c0.1,0,0.2,0,0.3,0c0.2,0,0.4-0.2,0.4-0.4
				c0,0,0-0.1,0-0.1C118.4,37.1,116.8,37.1,117.1,38L117.1,38z"/>
		</g>
		<g class="st22">
			<path class="st4" d="M115.2,40.7c0,0.4,0.1,0.7,0.5,0.9c0.3,0.2,0.6-0.1,0.6-0.5c0-0.1,0-0.3,0-0.5C116.3,40,115.2,40,115.2,40.7
				L115.2,40.7z"/>
		</g>
		<g class="st22">
			<path class="st4" d="M161.5,37c0.1,0,0.1-0.1,0-0.1C161.4,36.9,161.4,37,161.5,37L161.5,37z"/>
		</g>
		<g class="st22">
			<path class="st4" d="M161.6,37C161.6,37,161.7,37,161.6,37c0,0-0.1-0.1-0.1-0.1c0,0-0.1-0.1-0.1-0.1
				C161.4,36.9,161.5,36.9,161.6,37c-0.2-0.1-0.1-0.3-0.1-0.1c0,0.3,0.1,0.5,0.4,0.6c0.2,0.1,0.5,0.1,0.6-0.1
				c0.6-0.6-0.2-1.6-0.9-1.2c-0.1,0.1-0.2,0.2-0.2,0.4c0,0,0,0,0-0.1C161.2,36.7,161.3,37.1,161.6,37L161.6,37z"/>
		</g>
		<g class="st22">
			<path class="st4" d="M162.7,40.1c0,0.1,0,0.2,0,0.3c0,0.2,0.1,0.5,0.4,0.5c0.1,0,0.2,0,0.3,0c0.2,0,0.4-0.3,0.4-0.5
				c0-0.1,0-0.2,0-0.3C163.8,39.4,162.6,39.4,162.7,40.1L162.7,40.1z"/>
		</g>
		<g class="st22">
			<path class="st4" d="M159.5,38.2c0,0.2,0.1,0.2,0.2,0.3c0.1,0.1,0.2,0.1,0.3,0c0.1-0.1,0.2-0.2,0.2-0.3
				C160.4,37.5,159.3,37.5,159.5,38.2L159.5,38.2z"/>
		</g>
		<g class="st22">
			<path class="st4" d="M161.9,42.7c0,0.3,0,0.6,0.3,0.9c0.2,0.2,0.4,0.2,0.6,0c0.3-0.2,0.3-0.5,0.3-0.9C163,42,161.9,42,161.9,42.7
				L161.9,42.7z"/>
		</g>
		<g class="st22">
			<path class="st4" d="M164.2,39.3c0.9,0,0.9-1.3,0-1.3S163.3,39.3,164.2,39.3L164.2,39.3z"/>
		</g>
		<g class="st22">
			<path class="st4" d="M161.1,42.7c0,0.1,0,0.1-0.1,0.2c-0.1,0.3,0.1,0.7,0.4,0.5c0.4-0.1,0.5-0.4,0.5-0.7
				C162,42.2,161.1,42.2,161.1,42.7L161.1,42.7z"/>
		</g>
		<g class="st22">
			<path class="st4" d="M162.1,50.6c0,0.3,0,0.5,0.2,0.8c0.2,0.3,0.6,0.3,0.7,0c0.2-0.2,0.1-0.5,0.2-0.8
				C163.2,49.9,162.1,49.9,162.1,50.6L162.1,50.6z"/>
		</g>
		<g class="st22">
			<path class="st4" d="M158.5,58.3c0,0.4,0.2,0.9,0.7,1c0.3,0,0.5-0.1,0.6-0.3c0.1-0.3,0-0.6,0-0.8
				C159.6,57.5,158.4,57.6,158.5,58.3L158.5,58.3z"/>
		</g>
		<g class="st22">
			<path class="st4" d="M156.4,64.9c0,0.5,0,0.9,0.3,1.3c0.1,0.2,0.5,0.2,0.6,0c0.3-0.4,0.3-0.8,0.3-1.3
				C157.6,64.1,156.4,64.1,156.4,64.9L156.4,64.9z"/>
		</g>
		<g class="st22">
			<path class="st4" d="M153.4,73.2c0,0.1,0,0.1,0.1,0.2c0.1,0.2,0.3,0.2,0.4,0c0-0.1,0-0.1,0.1-0.2C154,72.8,153.3,72.8,153.4,73.2
				L153.4,73.2z"/>
		</g>
		<g class="st22">
			<path class="st4" d="M147.1,80.6c0,0.3,0.1,0.4,0.3,0.6c0.1,0.1,0.4,0.1,0.5,0c0.2-0.2,0.2-0.4,0.3-0.6
				C148.2,80,147.1,80,147.1,80.6L147.1,80.6z"/>
		</g>
		<g class="st22">
			<path class="st4" d="M142.3,85.3c0,0.1,0,0.2,0.1,0.3c0.1,0.2,0.3,0.2,0.4,0c0.1-0.1,0.1-0.2,0.1-0.3
				C142.9,84.9,142.2,84.9,142.3,85.3L142.3,85.3z"/>
		</g>
		<g class="st22">
			<path class="st4" d="M143.3,83.6c0,0.1,0,0.2,0,0.3c0,0.1,0.1,0.3,0.2,0.4c0.2,0.1,0.3,0.1,0.5,0c0.1-0.1,0.2-0.2,0.2-0.4
				c0-0.1,0-0.2,0-0.3C144.2,83,143.2,83,143.3,83.6L143.3,83.6z"/>
		</g>
		<g class="st22">
			<path class="st4" d="M145.9,84.8c0,0.1,0,0.2,0.1,0.2c0.1,0.1,0.2,0.1,0.2,0c0.1-0.1,0.1-0.1,0.1-0.2
				C146.5,84.4,145.8,84.4,145.9,84.8L145.9,84.8z"/>
		</g>
		<g class="st22">
			<path class="st4" d="M140.5,84.8C140.5,84.8,140.5,84.8,140.5,84.8c-0.7,0.1-0.7,1-0.1,1c0,0,0.1,0,0.1,0
				C141.2,85.9,141.2,84.7,140.5,84.8L140.5,84.8z"/>
		</g>
		<g class="st22">
			<path class="st4" d="M137,86.5c-0.4,0-0.6,0.2-0.5,0.6c0.1,0.3,0.5,0.3,0.6,0c0,0-0.1,0.1-0.1,0.1
				C137.4,87.2,137.4,86.4,137,86.5L137,86.5z"/>
		</g>
		<g class="st22">
			<path class="st4" d="M134,86.4c0.4,0,0.4-0.7,0-0.7S133.5,86.4,134,86.4L134,86.4z"/>
		</g>
		<g class="st22">
			<path class="st4" d="M108,71.2c0.2,0.4,0.5,0.6,0.8,0.8c0.3,0.2,0.7-0.1,0.6-0.5c-0.1-0.4-0.3-0.7-0.6-1
				C108.4,70,107.6,70.6,108,71.2L108,71.2z"/>
		</g>
		<g class="st22">
			<path class="st4" d="M109.4,64.8C109.4,64.9,109.5,64.9,109.4,64.8c0.1,0.2,0.2,0.4,0.4,0.4c0.1,0,0.2,0,0.3,0
				c0.2,0,0.3-0.2,0.4-0.4c0,0,0-0.1,0-0.1C110.7,64,109.2,64,109.4,64.8L109.4,64.8z"/>
		</g>
		<g class="st22">
			<path class="st4" d="M110.7,67.9C110.7,67.9,110.7,67.9,110.7,67.9C110.7,67.9,110.7,67.9,110.7,67.9L110.7,67.9z"/>
		</g>
		<g class="st22">
			<path class="st4" d="M106.7,67.3c-0.1,0.4,0,0.7,0.2,0.9c0.2,0.2,0.6,0.3,0.8,0.1c0.5-0.3,0.3-0.8,0.1-1.2
				C107.6,66.7,106.8,66.8,106.7,67.3L106.7,67.3z"/>
		</g>
		<g class="st22">
			<path class="st4" d="M110.7,68.1c0,0.3,0,0.5,0.2,0.7c0.2,0.2,0.5,0.2,0.6,0c0.2-0.2,0.2-0.4,0.2-0.7
				C111.8,67.4,110.7,67.4,110.7,68.1L110.7,68.1z"/>
		</g>
		<g class="st22">
			<path class="st4" d="M108.7,67.4c0.1,0.2,0.1,0.3,0.3,0.4c0.1,0.1,0.3,0.1,0.4,0c0.2-0.1,0.2-0.2,0.3-0.4
				C110,66.6,108.4,66.6,108.7,67.4L108.7,67.4z"/>
		</g>
		<g class="st22">
			<path class="st4" d="M112.3,62.7c-0.1,0.5,0.1,1.1,0.7,1.1c0.2,0,0.4-0.2,0.4-0.4c0-0.2-0.1-0.4-0.1-0.6
				C113.3,62.2,112.4,62.1,112.3,62.7L112.3,62.7z"/>
		</g>
		<g class="st22">
			<path class="st4" d="M112.4,58.4c0,0.1,0.1,0.2,0.2,0.3c0.1,0.1,0.3,0.1,0.4,0c0.1-0.1,0.1-0.2,0.2-0.3
				C113.4,57.8,112.2,57.8,112.4,58.4L112.4,58.4z"/>
		</g>
		<g class="st22">
			<path class="st4" d="M109.7,60.9c0,0.2,0.1,0.4,0.3,0.5c0.1,0.1,0.3,0.1,0.4,0c0.2-0.1,0.2-0.3,0.3-0.5
				C110.6,60.4,109.6,60.4,109.7,60.9L109.7,60.9z"/>
		</g>
		<g class="st22">
			<path class="st4" d="M113.8,54.2c-0.1,0.3,0,0.6,0.3,0.8c0.6,0.4,1.2-0.7,0.4-1c0.1,0.1,0.1,0.1,0.2,0.2
				C114.6,53.8,113.9,53.8,113.8,54.2L113.8,54.2z"/>
		</g>
		<g class="st22">
			<path class="st4" d="M116.1,52.9C116.2,52.9,116.2,52.9,116.1,52.9c0.8-0.1,0.8-1.1,0.1-1.1c0,0-0.1,0-0.1,0
				C115.4,51.7,115.4,52.9,116.1,52.9L116.1,52.9z"/>
		</g>
		<g class="st22">
			<path class="st4" d="M112.4,79.4c0.6,0,0.6-0.9,0-0.9S111.8,79.4,112.4,79.4L112.4,79.4z"/>
		</g>
		<g class="st22">
			<path class="st4" d="M111.2,76.5c0,0.2,0,0.3,0.2,0.4c0.1,0.1,0.3,0.1,0.4,0c0.1-0.1,0.2-0.2,0.2-0.4
				C112.1,76,111.2,76,111.2,76.5L111.2,76.5z"/>
		</g>
		<g class="st22">
			<path class="st4" d="M110.3,78.3c0.2-0.1,0.3-0.1,0.4-0.3c0.1-0.1,0.1-0.3,0-0.4c-0.1-0.2-0.2-0.2-0.4-0.3
				C109.5,77.1,109.5,78.6,110.3,78.3L110.3,78.3z"/>
		</g>
		<g class="st22">
			<path class="st4" d="M115,81.3c0.6,0,0.6-1,0-1C114.4,80.3,114.4,81.3,115,81.3L115,81.3z"/>
		</g>
		<g class="st22">
			<path class="st4" d="M117.5,81.1c0,0.1,0.1,0.2,0.1,0.3c0.1,0.1,0.3,0.1,0.4,0c0.1-0.1,0.1-0.2,0.1-0.3
				C118.3,80.5,117.4,80.5,117.5,81.1L117.5,81.1z"/>
		</g>
		<g class="st22">
			<path class="st4" d="M131.1,85.4c0.1,0.1,0.1,0.1,0.2,0.2c0.1,0.1,0.1,0,0.1-0.1C131.3,85.4,131.3,85.3,131.1,85.4
				C131.1,85.2,131,85.3,131.1,85.4L131.1,85.4z"/>
		</g>
		<g class="st22">
			<path class="st4" d="M130.6,84.9c0,0.2,0,0.3,0.1,0.5c0.1,0.2,0.4,0.2,0.5,0c0.1-0.2,0.1-0.3,0.1-0.5
				C131.4,84.5,130.6,84.5,130.6,84.9L130.6,84.9z"/>
		</g>
		<g class="st22">
			<path class="st4" d="M132.2,86.9c0,0.3-0.1,0.5,0.1,0.7c0.2,0.2,0.5,0.3,0.7,0.1c0.2-0.1,0.2-0.3,0.1-0.5c0,0,0,0,0-0.1
				c-0.1-0.1-0.1-0.1,0,0C133.3,86.5,132.3,86.3,132.2,86.9L132.2,86.9z"/>
		</g>
		<g class="st22">
			<path class="st21" d="M124.8,26.9c0.2,0.2,0.3,0.4,0.6,0.4c0.3,0.1,0.5-0.2,0.5-0.5c-0.1-0.3-0.2-0.4-0.4-0.6
				C125.1,25.9,124.4,26.5,124.8,26.9L124.8,26.9z"/>
		</g>
		<g class="st22">
			<path class="st21" d="M123.3,31.1c0,0.1,0,0.2,0,0.3c0,0.6,0.9,0.6,1,0c0-0.1,0-0.2,0-0.3C124.3,30.5,123.3,30.5,123.3,31.1
				L123.3,31.1z"/>
		</g>
		<g class="st22">
			<path class="st21" d="M120,30.8c-0.1,0.4,0,0.7,0.3,0.9c0.2,0.1,0.4,0.1,0.6-0.1c0,0,0,0,0,0c0.1-0.1,0.1-0.3,0.1-0.4
				c0-0.1,0-0.1-0.1-0.2c0,0-0.1-0.1-0.1-0.1c-0.2-0.1-0.1-0.1,0,0.1C121.1,30.4,120.1,30.1,120,30.8L120,30.8z"/>
		</g>
		<g class="st22">
			<path class="st21" d="M120.6,33.9c0.1,0.3,0.3,0.5,0.6,0.6c0.5,0.2,1.1-0.6,0.6-1c0,0,0,0-0.1,0c0.1,0.1,0.1,0.2,0.2,0.3
				c0,0,0,0,0-0.1c0,0.1,0,0.2,0,0.3c0,0,0-0.1,0-0.1c0.1-0.4-0.2-0.8-0.6-0.8C120.8,33.1,120.5,33.5,120.6,33.9L120.6,33.9z"/>
		</g>
		<g class="st22">
			<path class="st21" d="M115.6,45.9c0.7,0,0.7-1.1,0-1.1C114.8,44.8,114.8,45.9,115.6,45.9L115.6,45.9z"/>
		</g>
		<g class="st22">
			<path class="st21" d="M114,47.6c0,0.2,0,0.4,0.1,0.6c0.1,0.2,0.5,0.2,0.6,0c0.1-0.2,0.1-0.3,0.1-0.6C115,47,113.9,47,114,47.6
				L114,47.6z"/>
		</g>
		<g class="st22">
			<path class="st21" d="M156.5,37.2c0,0.1,0,0.1,0.1,0.2c0.1,0.2,0.4,0.2,0.5,0c0-0.1,0-0.1,0.1-0.2
				C157.3,36.7,156.4,36.7,156.5,37.2L156.5,37.2z"/>
		</g>
		<g class="st22">
			<path class="st21" d="M159.5,36.1c-0.3,0-0.4,0.2-0.5,0.5c-0.1,0.1,0,0.4,0.1,0.5c0,0,0,0,0,0c0.1,0.1,0.3,0.2,0.5,0.1
				c0.1-0.1,0.2-0.2,0.3-0.3c-0.1,0.1-0.2,0.2-0.3,0.2c0,0,0,0,0,0C160.4,37.1,160.3,35.9,159.5,36.1L159.5,36.1z"/>
		</g>
		<g class="st22">
			<path class="st21" d="M162.8,45.8c-0.1,0.4-0.2,0.7,0,1.1c0.1,0.2,0.4,0.2,0.6,0.1c0.3-0.2,0.3-0.6,0.4-0.9
				C163.8,45.5,162.9,45.2,162.8,45.8L162.8,45.8z"/>
		</g>
		<g class="st22">
			<path class="st21" d="M161.8,48.5c0,0.1,0,0.2,0.1,0.3c0.2,0.3,0.5,0.3,0.8,0c0.1-0.1,0.1-0.2,0.1-0.3
				C162.9,47.7,161.7,47.7,161.8,48.5L161.8,48.5z"/>
		</g>
		<g class="st22">
			<path class="st21" d="M164.1,49.4c0.1,0.6,0.8,0.6,1,0C165.2,48.6,163.9,48.6,164.1,49.4L164.1,49.4z"/>
		</g>
		<g class="st22">
			<path class="st21" d="M163.1,52.7c0,0.1,0,0.1,0,0.2c0.1,0.2,0.4,0.2,0.4,0c0-0.1,0-0.1,0-0.2C163.8,52.3,163,52.3,163.1,52.7
				L163.1,52.7z"/>
		</g>
		<g class="st22">
			<path class="st21" d="M160.7,55.5c-0.2,0.4-0.2,0.6,0,1c0.2,0.4,0.6,0.5,0.9,0.1c0,0,0.1-0.1,0.1-0.1c0.1-0.1,0.2-0.2,0.2-0.3
				C162.5,55.5,161.1,54.7,160.7,55.5L160.7,55.5z"/>
		</g>
		<g class="st22">
			<path class="st21" d="M155,70.5c0,0.3,0.1,0.5,0.3,0.7c0.2,0.2,0.4,0.2,0.6,0c0.2-0.2,0.2-0.4,0.3-0.7
				C156.1,69.8,155,69.8,155,70.5L155,70.5z"/>
		</g>
		<g class="st22">
			<path class="st21" d="M153.7,74c0.2,0.4,0.8,0.4,1,0c0.2-0.4,0-0.9-0.5-0.9S153.5,73.6,153.7,74L153.7,74z"/>
		</g>
		<g class="st22">
			<path class="st21" d="M151.2,78.1c0.4,0,0.4-0.6,0-0.6C150.8,77.5,150.8,78.1,151.2,78.1L151.2,78.1z"/>
		</g>
		<g class="st22">
			<path class="st21" d="M149.3,79.7c-0.2,0.3-0.3,0.6-0.1,0.9c0.1,0.2,0.3,0.2,0.5,0.1c0.2-0.2,0.2-0.4,0.4-0.6
				C150.4,79.6,149.6,79.2,149.3,79.7L149.3,79.7z"/>
		</g>
		<g class="st22">
			<path class="st21" d="M143.1,85.4C143.2,85.4,143.2,85.3,143.1,85.4C143.1,85.3,143.1,85.4,143.1,85.4L143.1,85.4z"/>
		</g>
		<g class="st22">
			<path class="st21" d="M141,87.1C141,87.2,141,87.2,141,87.1c0.1,0.6,0.9,0.6,1,0.1c0,0,0-0.1,0-0.1
				C142.1,86.3,140.8,86.3,141,87.1L141,87.1z"/>
		</g>
		<g class="st22">
			<path class="st21" d="M138.8,87.6c0.4,0.2,0.9-0.2,0.6-0.6C139,86.3,138.1,87.3,138.8,87.6L138.8,87.6z"/>
		</g>
		<g class="st22">
			<path class="st21" d="M113.1,80.5c0.7,0,0.7-1.2,0-1.2S112.4,80.5,113.1,80.5L113.1,80.5z"/>
		</g>
		<g class="st22">
			<path class="st21" d="M117.1,82.1C117.1,82.1,117.1,82.1,117.1,82.1c0.8,0,0.8-1,0.1-1c0,0-0.1,0-0.1,0
				C116.4,81.1,116.4,82.1,117.1,82.1L117.1,82.1z"/>
		</g>
		<g class="st22">
			<path class="st21" d="M110.9,77.1c-0.1,0-0.1-0.1-0.2-0.1C110.7,77,110.8,77.1,110.9,77.1c0.1,0.1,0.3,0.2,0.4,0c0,0,0,0,0,0
				c0.1-0.2,0.1-0.3,0.1-0.5c-0.1-0.2-0.3-0.3-0.5-0.3C110.3,76.2,110.3,77.1,110.9,77.1L110.9,77.1z"/>
		</g>
		<g class="st22">
			<path class="st21" d="M110.9,74.4C110.9,74.4,110.9,74.4,110.9,74.4C110.9,74.4,110.9,74.4,110.9,74.4L110.9,74.4z"/>
		</g>
		<g class="st22">
			<path class="st21" d="M107.9,75.5c0.2,0.2,0.5,0.4,0.8,0.2c0.3-0.1,0.4-0.6,0.1-0.8c-0.1-0.1-0.2-0.1-0.2-0.2
				C108.2,74.4,107.5,75.1,107.9,75.5L107.9,75.5z"/>
		</g>
		<g>
			<path class="st23" d="M138.3,29.1c0.4-1.5-0.6,1.8-0.4,0.9c-0.1,0.7-0.2,1.4-0.3,2.1c-0.1,1.6,0.2-0.9-0.1,0.7
				c-0.2,0.7-0.4,1.4-0.6,2.1c-0.6,1.8,0.7-1.2-0.2,0.3c-0.3,0.5-1.7,2.3-0.2,0.5c0.3-0.4,3.3-1.4,1.5-0.9c4.1-1,8.1,3.6,6.3,7.4
				c1.1-2.3,2-4.2,2.2-6.8c0.2-3.4-2.6-7.4-6.1-8c-7.4-1.2-13,5.2-13.3,12.2c-0.3,6.3,4.7,12.2,11.2,12.3c5.8,0.1,10-3.5,12-8.8
				c1.3-3.5,0-7.7-1.7-10.8c-0.7-1.3-1.8-2.5-2.8-3.7c-0.5-0.5-1-0.9-1.6-1.3c-0.3-0.2-3.1-0.7-2-0.5
				C140.5,26.6,138.8,27.3,138.3,29.1L138.3,29.1z"/>
		</g>
		<g class="st17">
			<path class="st12" d="M141.4,35.3c-0.2,1.4-0.8,2.3-1.8,3.8c-0.1,0.3-0.3,0.7-0.4,1c0.1-0.3,0.1-0.2-0.1,0.2
				c-0.3,0.7-0.6,1.4-0.8,2.2c-0.3,0.9-0.3,1.8-0.3,2.8c0.1,2.5,2.8,4.2,5,2.9c2.9-1.6,4.6-4.9,4.5-8.2c-0.1-2.5-1.6-6.5-4.9-5.9
				C142.1,34.3,141.5,34.8,141.4,35.3L141.4,35.3z"/>
		</g>
		<g class="st17">
			<path class="st12" d="M137.4,32.1c-0.5,1-1.2,1.8-1.9,2.7c-0.9,1.2-1.2,2.4-1.3,3.9c0,1.7,2.2,2.7,3.4,1.4c1-1.1,1.7-2.1,2.1-3.5
				c0.4-1.2,0.5-2.5,0.3-3.7C140,31.5,138.1,30.6,137.4,32.1L137.4,32.1z"/>
		</g>
		<path class="st24" d="M139.2,32.1c-1.1-0.2-2.3-0.5-3.2-1.1s-1.6-1.8-1.4-2.9c0.4-2.1,3.1-2.6,4.7-3.9c1.9-1.6,2.2-4.4,2.3-6.9
			c0.2-3.5,0.1-7.5-2.6-9.7c-0.8-0.7-2-1.4-1.9-2.5c2.7-1.2,5.6-2.1,8.6-2.7c1.7,5.6,2.2,11.5,1.4,17.3c-0.2,1.7-0.6,3.4-0.4,5.1
			c0.2,1.7,1,3.4,2.6,4.1c0.4,0.2,0.8,0.3,1.2,0.6c1.1,0.9,0.5,2.8-0.6,3.5c-1.2,0.7-2.7,0.5-4,0.3C143.5,33,141.4,32.6,139.2,32.1z
			"/>
		<g class="st25">
			<path class="st7" d="M134.1,55.6c-1.6,2.9-3,5.8-5.1,8.4c-2.3,2.9-6.2,4.7-7.7,8.1c-0.9,2-0.7,4.6,1.5,5.7
				c5.9,3.1,10.6-2.5,13.7-6.9c1.6-2.3,2.8-4.8,3.5-7.5c0.8-3-0.1-5.3-1.7-7.9C137.4,54,135,53.9,134.1,55.6L134.1,55.6z"/>
		</g>
		<path class="st26" d="M147.8,52.1c0,0.7-0.6,1.3-1.3,1.3c-0.7,0-1.3-0.6-1.3-1.3c0-0.7,1.3-1.9,1.3-1.9S147.8,51.4,147.8,52.1z"/>
		<path class="st26" d="M129.3,50.1c0,0.7-0.6,1.3-1.3,1.3c-0.7,0-1.3-0.6-1.3-1.3c0-0.7,1.3-1.9,1.3-1.9S129.3,49.3,129.3,50.1z"/>
		<path class="st27" d="M148.5,56.6c-0.6,0.4-1.4,0.2-1.8-0.4c-0.4-0.6-0.2-1.4,0.4-1.8c0.6-0.4,2.3,0,2.3,0S149.1,56.2,148.5,56.6z
			"/>
		<path class="st27" d="M123.5,39.6c-0.7,0-1.3-0.5-1.4-1.2c0-0.7,0.5-1.3,1.2-1.4c0.7,0,2,1.2,2,1.2S124.2,39.6,123.5,39.6z"/>
		<path class="st27" d="M143.1,64.5c-0.5,0.5-1.3,0.6-1.9,0.1c-0.5-0.5-0.6-1.3-0.1-1.9c0.5-0.5,2.3-0.5,2.3-0.5
			S143.6,63.9,143.1,64.5z"/>
		<path class="st27" d="M154.7,39.9c-0.7,0-1.3-0.5-1.4-1.2s0.5-1.3,1.2-1.4c0.7,0,2,1.2,2,1.2S155.4,39.9,154.7,39.9z"/>
		<path class="st27" d="M120.8,49.5c-0.7,0-1.2-0.5-1.3-1.1c0-0.7,0.5-1.2,1.1-1.3c0.7,0,1.8,1.1,1.8,1.1S121.5,49.4,120.8,49.5z"/>
		<path class="st26" d="M125.3,49.9c0.4,0.5,0.2,1.2-0.3,1.6c-0.5,0.4-1.2,0.2-1.6-0.3c-0.4-0.5,0-2,0-2S124.9,49.4,125.3,49.9z"/>
		<path class="st26" d="M152.5,51.7c0.4,0.6,0.3,1.4-0.3,1.8c-0.6,0.4-1.4,0.3-1.8-0.3c-0.4-0.6,0-2.3,0-2.3S152.1,51.1,152.5,51.7z
			"/>
		<path class="st26" d="M153.7,41.8c0.4,0.6,0.3,1.4-0.3,1.8c-0.6,0.4-1.4,0.3-1.8-0.3c-0.4-0.6,0-2.3,0-2.3S153.2,41.2,153.7,41.8z
			"/>
		<path class="st26" d="M126,47.3c-0.3,0.7-1,1-1.7,0.7c-0.7-0.3-1-1-0.7-1.7c0.3-0.7,1.9-1.3,1.9-1.3S126.3,46.7,126,47.3z"/>
		<g>
			<defs>
				<path id="SVGID_7_" d="M139.2,32.1c-1.1-0.2-2.3-0.5-3.2-1.1s-1.6-1.8-1.4-2.9c0.4-2.1,3.1-2.6,4.7-3.9c1.9-1.6,2.2-4.4,2.3-6.9
					c0.2-3.5,0.1-7.5-2.6-9.7c-0.8-0.7-2-1.4-1.9-2.5c2.7-1.2,5.6-2.1,8.6-2.7c1.7,5.6,2.2,11.5,1.4,17.3c-0.2,1.7-0.6,3.4-0.4,5.1
					c0.2,1.7,1,3.4,2.6,4.1c0.4,0.2,0.8,0.3,1.2,0.6c1.1,0.9,0.5,2.8-0.6,3.5c-1.2,0.7-2.7,0.5-4,0.3
					C143.5,33,141.4,32.6,139.2,32.1z"/>
			</defs>
			<clipPath id="SVGID_8_">
				<use xlink:href="#SVGID_7_"  style="overflow:visible;"/>
			</clipPath>
			<g class="st28">
				<path class="st29" d="M142,3c3.7,5.4,3.6,14,1.6,19.9c-2.2,6.3,2.6,13.6,9.5,12.1c2.1-0.5,3.5-2.6,3.6-4.7
					c0.1-3.3-1.4-5-3.9-6.9c-1.3-0.9-0.6-9.6-0.9-11.5c-0.6-4.4-3.2-10.3-7.9-11.4C142.5,0.2,141.1,1.7,142,3L142,3z"/>
			</g>
		</g>
	</g>
</g>
</svg>
