<?xml version="1.0" encoding="utf-8"?>
<!-- Generator: Adobe Illustrator 21.0.0, SVG Export Plug-In . SVG Version: 6.00 Build 0)  -->
<svg version="1.1" id="Слой_3" xmlns="http://www.w3.org/2000/svg" xmlns:xlink="http://www.w3.org/1999/xlink" x="0px" y="0px"
	 viewBox="0 0 200 109" style="enable-background:new 0 0 200 109;" xml:space="preserve">
<style type="text/css">
	.st0{fill:#877F7A;}
	.st1{fill:#A79185;}
	.st2{fill:#5C5B5A;}
	.st3{fill:#E46025;}
	.st4{fill:#F47F31;}
	.st5{fill:#F6954D;}
	.st6{fill:#F9AD80;}
	.st7{fill:#E88C56;}
</style>
<g>
	<path class="st0" d="M90.3,90c0.5-0.8,0-1.6-0.2-2.4c-0.3-1-0.8-2-1.1-3.1c-0.5-2.2-1.3-4.2-1.6-6.4c-0.6-4,0-8.1,1.1-12
		c1.1-4.3,3-8.4,5.3-12.2c1.5-2.5,3.2-4.8,5-7c1.8-2.2,4.3-4.3,4.8-7.2c0.2-1-0.6-2.3-1.8-1.9c-0.6,0.2-1.2,0.3-1.7,0.7
		c-0.7,0.5-1.4,1.1-2,1.7c-1.1,1.1-2,2.3-3,3.5c-2,2.4-3.9,4.9-5.4,7.7c-2.5,4.4-4.6,9.2-5.7,14.2c-1.1,4.7-1.1,9.5-0.1,14.2
		c0.5,2.3,1.4,4.5,2.5,6.7C86.6,87,89.3,91.6,90.3,90L90.3,90z"/>
	<path class="st1" d="M141.9,27.7c1.4,5,1.3,11,0.6,16.5c-0.2,1.2-0.3,2.3-0.5,3.4c-1.3,7.5-2.4,15-3.6,22.5c-0.3,1.7-0.6,3.4-1.1,5
		c-1.3,4.4-3.5,8.7-6.6,12.1c-4.7,5.2-9.8,7.7-16.5,9.6c-7.2,2-17.6,0.5-23-5.2c-2-2.1-4.2-4.4-5.4-7.2c-0.2-0.4-0.4-0.9-0.5-1.3
		c-0.9-2.9-0.9-6.4-0.4-9.8c0.7-4.7,2.4-9.3,4.1-12.7c1.9-3.8,4.5-6.8,8.1-9c2.7-1.6,5.9-2.2,8.8-3.4c8-3.4,15.5-10.3,20-17.7
		c3.1-5.2,2.6-11.7,5.6-16.7l0.3-0.6c1.7,2.2,4.1,3.9,5.8,6.6C139.1,22.3,141.1,24.7,141.9,27.7z"/>
	<path class="st0" d="M142.5,44.2c-0.2,1.2-0.3,2.3-0.5,3.4c-1.3,7.5-2.4,15-3.6,22.5c-0.3,1.7-0.6,3.4-1.1,5
		c-1.3,4.4-3.5,8.7-6.6,12.1c-4.7,5.2-9.8,7.7-16.5,9.6c-7.2,2-17.6,0.5-23-5.2c-2-2.1-4.2-4.4-5.4-7.2c-0.2-0.4-0.4-0.9-0.5-1.3
		c0.8-0.7,1.9-1.3,3.3-1.8c4.3-1.3,8.8-1.7,13.1-2.9c5.4-1.5,10.5-3.9,15.2-7.1c3.9-2.6,6.8-6,9-9.8c2.9-4.9,4.8-10.4,6.5-15.9
		c0.9-2.9,1.7-9.2,4.7-10.8l0.3-0.2C139.1,37.7,141,40.9,142.5,44.2z"/>
	<path class="st2" d="M137.2,75.2c-1.3,4.4-3.5,8.7-6.6,12.1c-4.7,5.2-9.8,7.7-16.5,9.6c-7.2,2-17.6,0.5-23-5.2
		c-2-2.1-4.2-4.4-5.4-7.2c-0.2-0.4-0.4-0.9-0.5-1.3c-0.9-2.9-0.9-6.4-0.4-9.8c0.1,0,0.1,0,0.2,0c3.5,0.8,6.3,1.6,10,1.5
		c4.8-0.1,8.7-1.2,13.2-2.9c5.6-2.1,9.6-5.7,14.3-9.2c1.4-1,2.5-1.4,3.4-1.3c1.4,0.1,2.5,1.3,3.8,3c2,2.5,3.9,5.1,5.9,7.6
		C136.3,73.1,136.8,74.1,137.2,75.2z"/>
	<path class="st3" d="M125,13.1c1.9,2.3,4,4.8,4.8,7.6c0.8,2.8,0.8,6.1,0.7,9.2c-0.2,9-6.7,16.8-13.1,22.1c-2.1,1.7-5.7,5.2-7.1,1.3
		c-1.4-3.7,1.9-8.4,2.6-12c1.7-8.9,5.5-17.5,10.1-25.1c0.5-0.9,0.9-2,1.8-2.7L125,13.1z"/>
	<path class="st4" d="M135.6,18.9c0.1,0.3,0.2,0.7,0.3,1c0,0.1,0.1,0.2,0.1,0.3c0.7,2.2,1.3,4.4,1.7,6.7c0.1,0.4,0.2,0.9,0.2,1.3
		c0.5,3.4,0.8,6.9,0.7,10.3l0,0c0,0.7,0,1.5-0.1,2.2c0,0.3,0,0.6-0.1,0.9c-0.1,1-0.1,2-0.2,3c0,0.7-0.1,1.4-0.1,2.1
		c-0.2,3.3-0.3,6.7-0.6,9.9c-0.1,1.1-0.2,2.1-0.4,3.2c-0.5,3.6-1.3,7.2-2.6,10.7c-0.1,0.2-0.2,0.4-0.3,0.7c-0.1,0.3-0.2,0.6-0.4,0.9
		c-1.1,2.5-2.6,4.8-4.3,7c0,0,0,0,0,0c-0.4,0.6-0.9,1.1-1.4,1.6c-0.8,0.9-1.7,1.8-2.6,2.7c-0.6,0.6-1.2,1.1-1.8,1.6
		c-0.6,0.5-1.2,0.9-1.8,1.4l0,0c-0.8,0.6-1.7,1.2-2.6,1.7c-1,0.6-2.1,1.2-3.2,1.8l0,0c-1.1,0.5-2.2,1-3.4,1.5l0,0
		c-0.7,0.3-1.5,0.5-2.2,0.8c-1.8,0.6-3.8,0.7-5.9,0.6l0,0c-0.8,0-1.7,0-2.5-0.1c-0.5,0-1.1,0-1.6-0.1c-3.7-0.1-7.3-0.5-10.6-2.4
		c0,0,0,0,0,0c0,0-0.1,0-0.1-0.1c-0.7-0.4-1.4-1-2-1.6c-2.1-2.2-3.5-5.5-4.2-8.9c-0.1-0.6-0.3-1.1-0.4-1.7l0,0
		c-0.3-1.8-0.4-3.5-0.4-5.1l0,0c0-0.2,0-0.4,0-0.6c0-0.2,0-0.4,0-0.7c0.2-2.2,0.7-4.3,1.4-6.3c0.2-0.5,0.3-1,0.5-1.4
		c0.5-1.5,1.2-3,1.8-4.5c0.5-1.1,0.9-2.3,1.4-3.5c0.6-1.5,1.2-2.9,1.8-4.3c0.1-0.2,0.2-0.4,0.3-0.6c0.3-0.6,0.6-1.2,0.9-1.8
		c0.4-0.7,0.7-1.4,1.1-2c0.2-0.3,0.3-0.5,0.5-0.8c0.2-0.3,0.3-0.5,0.5-0.8c0,0,0,0,0,0c0.4-0.6,0.7-1.1,1.1-1.6c0,0,0,0,0,0
		c0.3-0.4,0.6-0.8,0.8-1.2c2.1-3,4.3-5.9,6.7-8.7c0.3-0.3,0.5-0.6,0.8-0.9l0,0c1.1-1.3,2.3-2.6,3.5-3.9c0.5-0.5,0.9-1,1.4-1.5
		c1.6-1.7,3.2-3.4,4.8-5c0.4-0.4,0.8-0.8,1.2-1.2c1.1-1.1,2.2-2.2,3.3-3.3c0.2-0.2,0.4-0.4,0.6-0.6c0.1-0.1,0.2-0.2,0.3-0.2
		c1.3-1.3,5.1-5.3,7.1-4c0.3,0.2,0.6,0.5,0.8,1c0.4,1,0.2,2.2-0.2,3.4c-0.1,0.2-0.1,0.3-0.2,0.5c-0.6,1.5-1.5,2.9-2.1,3.7
		c0,0,0,0,0,0c-0.3,0.4-0.5,0.7-0.8,1.1c-1.1,1.6-1.8,3.1-2.4,5c-0.2,0.5-0.3,1-0.5,1.5c0,0,0,0,0,0.1c-0.4,1.1-0.8,2.1-1.4,3
		c-0.2,0.4-0.5,0.8-0.7,1.1c-0.7,1.1-1.4,2.2-2,3.3c-0.1,0.2-0.2,0.4-0.3,0.6c-0.1,0.3-0.3,0.7-0.4,1c-0.5,1.7-0.6,3.5-1.1,5.3
		c-0.1,0.3-0.1,0.6-0.2,0.9c0,0.1,0,0.2-0.1,0.3c-0.6,1.9-1.3,4.1-1.7,6.2c-0.1,0.5-0.2,1.1-0.2,1.6c0.2,0.1,0.3,0.2,0.5,0.3l0,0
		c0.3,0.1,0.5,0.2,0.7,0.2c0,0,0,0,0,0c0.7,0.1,1.1-0.2,1.5-0.7c0.5-0.6,0.8-1.6,1.4-2.4c0.7-1,1.6-1.9,2.5-2.7
		c0.3-0.2,0.5-0.5,0.8-0.7c0.6-0.5,1.2-1.1,1.8-1.6c1.1-1,2-2.2,2.8-3.6c0.2-0.4,0.4-0.8,0.6-1.2c0.6-1.2,1.1-2.5,1.5-3.9
		c0.1-0.4,0.2-0.8,0.4-1.2c0.4-1.4,0.7-2.9,0.9-4.2c0.1-0.5,0.1-1,0.2-1.5c0-0.1,0-0.2,0-0.3c0.2-1.9,0.4-3.8,0.7-5.6
		c0-0.1,0-0.3,0.1-0.4c0.1-0.9,0.3-1.9,0.4-2.8c0.1-0.5,0.1-1.3,0.2-2.2c0-0.2,0-0.4,0.1-0.6c0-0.1,0-0.2,0-0.3
		c0.3-3,0.9-6.5,3.6-4.4C133.6,14.4,134.8,16.8,135.6,18.9z"/>
	<path class="st5" d="M119.9,28.1c-0.2,0.5-0.3,1-0.5,1.5c-0.6-0.1-1.3-0.3-1.9-0.4c-2.3-0.5-4.8-1.2-7.2-0.7
		c-1.4,0.3-2.8,0.6-4.1,0.7c0.5-0.5,0.9-1,1.4-1.5c1.1-0.4,2.2-0.7,3.4-0.9c2.1-0.3,4.5,0.3,6.6,0.7
		C118.3,27.7,119.1,27.9,119.9,28.1z"/>
	<path class="st5" d="M138.7,38.4L138.7,38.4c0,0.7,0,1.5-0.1,2.2c-2.3-3.1-4.7-6-8.2-7.8c-1.2-0.6-2.4-1.1-3.6-1.4
		c0.1-0.5,0.1-1,0.2-1.5c1.3,0.4,2.6,0.8,3.8,1.5C133.9,33.1,136.4,35.6,138.7,38.4z"/>
	<path class="st5" d="M118,32.7c-0.2,0.4-0.5,0.8-0.7,1.1c-5-1.1-10.2-1.1-15.4,0.1c0.3-0.3,0.5-0.6,0.8-0.9l0,0
		C107.6,31.2,112.9,31.4,118,32.7z"/>
	<path class="st5" d="M138.3,44.5c0,0.7-0.1,1.4-0.1,2.1c-0.2-0.2-0.4-0.5-0.7-0.7c-3.1-3.2-6.7-6.1-10.6-8.3
		c-0.5-0.3-1-0.5-1.5-0.8c0.1-0.4,0.2-0.8,0.4-1.2c0.5,0.2,1,0.5,1.4,0.7C131.4,38.4,135.1,41.2,138.3,44.5z"/>
	<path class="st5" d="M115.1,37.8c-0.1,0.3-0.3,0.7-0.4,1c-0.4-0.1-0.8-0.1-1.3-0.2c-6.7-0.8-13.7,0.8-19.1,5.2
		c0.3-0.4,0.6-0.8,0.8-1.2c2-1.8,4.2-3.1,6.8-3.9c3.2-1,6.6-1.4,9.9-1.2c0.6,0,1.2,0.1,1.7,0.1C114.1,37.7,114.6,37.7,115.1,37.8z"
		/>
	<path class="st5" d="M137.6,56.5c-0.1,1.1-0.2,2.1-0.4,3.2c-0.7-2.2-1.8-4.3-2.9-6.3c-1.5-2.6-3.2-5.1-5.3-7.2
		c-1.7-1.7-3.6-3.2-5.7-4.3c0.2-0.4,0.4-0.8,0.6-1.2c2.1,1.1,4,2.5,5.7,4.2c2.3,2.3,4.2,5,5.9,7.8C136.3,54,137,55.2,137.6,56.5z"/>
	<path class="st5" d="M129.7,79c-0.4,0.6-0.9,1.1-1.4,1.6c-0.8,0-1.6,0-2.3-0.1c-3.1-0.3-6.1-1.2-9-2.4c-3-1.3-6.1-2.8-8.7-4.8
		c-1-0.8-1.7-1.7-2.5-2.6c-0.1-0.1-0.2-0.2-0.3-0.3c-0.7-0.7-1.6-0.8-2.6-1c-4.5-0.9-9.4-3.4-12.3-6.9c-1.3-1.6-2.3-3.5-2.4-5.6
		c0-0.3,0-0.6,0-0.9c0.6-1.5,1.2-2.9,1.8-4.3c0.1-0.2,0.2-0.4,0.3-0.6c0,0,0,0,0.1,0c0.1-0.1,0.3,0.1,0.2,0.2
		c-0.1,0.4-0.2,0.8-0.4,1.2c-0.3,0.7-0.7,1.4-0.8,2.2c-0.2,1.1-0.3,2.3,0.1,3.4c0.6,2.1,2,3.9,3.6,5.3c1.8,1.5,3.8,2.7,6,3.6
		c1.9,0.8,3.8,1,5.7,1.7c0.5,0.2,1,0.5,1.4,0.8c1.1,0.9,2,2.3,3.2,3.2c2.6,1.8,5.5,3.3,8.5,4.5C121.7,78.5,125.7,79.1,129.7,79z"/>
	<path class="st5" d="M125.7,83.3c-0.6,0.6-1.2,1.1-1.8,1.6c-2.4-0.4-4.8-1.3-6.7-2.2c-2.5-1.1-4.9-2.5-7.2-4
		c-2.2-1.6-3.9-3.7-6-5.3c-4-2.9-9.4-2.5-14-4c-1.8-0.6-3.6-1.5-4.8-3c-0.3-0.4-0.5-0.7-0.6-1.1c0.2-0.5,0.3-1,0.5-1.4
		c0.4,1.1,1.1,2.1,2.1,2.8c1.6,1.1,3.5,1.7,5.4,2.1c4.2,0.9,8.9,1,12.4,3.7c1.9,1.5,3.4,3.4,5.5,4.8c2,1.4,4.1,2.7,6.4,3.7
		c2.4,1.1,5,2,7.6,2.3C124.8,83.2,125.3,83.3,125.7,83.3z"/>
	<path class="st5" d="M122.1,86.3c-0.8,0.6-1.7,1.2-2.6,1.7c-4.6-0.8-9.3-2.4-13-5.4c-1.8-1.5-3.5-3.3-5.9-3.7
		c-2.7-0.6-5.6-0.7-8.3-1.3c-2.6-0.6-5.4-1.3-7.5-2.9c-0.7-0.5-1.3-1.2-1.8-1.9l0,0c0-0.2,0-0.4,0-0.6c0-0.2,0-0.4,0-0.7
		c0.9,1,1.8,2,3,2.6c2.4,1.2,5.4,1.8,8.1,2.3c2.5,0.4,5.3,0.3,7.7,1.1c1.8,0.6,3.2,1.7,4.7,2.9c3.9,3.2,8.8,5.1,13.8,5.7
		C120.9,86.2,121.5,86.2,122.1,86.3z"/>
	<path class="st5" d="M116.3,89.8c-1.1,0.5-2.2,1-3.4,1.5l0,0c-3.2-0.9-6.3-2.3-9-4.2c-1.8-1.3-3.2-1.9-5.4-2
		c-2.2-0.1-4.4-0.4-6.5-1c-2.9-0.9-5.8-2.5-8.1-4.5c-0.1-0.6-0.3-1.1-0.4-1.7c1.3,0.9,2.6,1.8,4.1,2.6c1.8,1,3.7,1.7,5.6,2.1
		c2.2,0.5,4.4,0.3,6.6,0.5c1.7,0.2,3.2,0.8,4.6,1.8C107.9,87.4,112,89.1,116.3,89.8z"/>
	<path class="st5" d="M104.8,92.6c-0.8,0-1.7,0-2.5-0.1c-0.5-0.4-0.9-0.8-1.4-1.3c-0.6-0.6-1.4-1.7-2.2-2.1
		c-0.4-0.2-1.8,0.3-2.2,0.4c-1.4,0.3-2.8,0.5-4.1,0.6c-0.7,0-1.5,0-2.2,0c0,0,0,0,0,0c0,0-0.1,0-0.1-0.1c-0.7-0.4-1.4-1-2-1.6
		c2.1,0.3,4.2,0.3,6.4-0.1c1.2-0.3,2.4-0.6,3.6-0.8c0.5-0.1,1-0.1,1.5,0.1c0.6,0.3,1.1,1,1.6,1.5c1.1,1.1,2.1,2.2,3.3,3.1
		C104.5,92.4,104.7,92.5,104.8,92.6z"/>
	<path class="st5" d="M131.9,66c-0.2,1.2-0.3,2.4-1.1,3.5c-0.6,0.8-1.3,1.5-2.2,1.9c-2.3,1.2-4.5,1.2-6.9,1
		c-2.6-0.2-5.1-0.4-7.6-1.3c-2.3-0.9-4.4-2.1-6.7-3.2c-0.2-0.1-0.5-0.2-0.7-0.3c-2.3-1-4.7-1.8-6.9-3.1c-2.4-1.4-4.6-3.1-6.3-5.3
		c-1.6-2-2.9-4.3-3.4-6.8c0-0.1,0-0.2,0-0.2c0-0.2-0.1-0.3-0.1-0.5c0.1-0.2,0.2-0.4,0.3-0.6c0.3-0.6,0.6-1.2,0.9-1.8
		c0,1.3,0.1,2.6,0.6,4c0.8,2.2,2.1,4.3,3.8,6c1.7,1.8,3.7,3.3,5.9,4.5c1.9,1.1,4,1.8,5.9,2.7c0,0,0.1,0,0.1,0c4,2,8,5.2,12.6,5.4
		c4.5,0.1,10.1-0.8,11.5-5.7C131.7,65.7,132,65.8,131.9,66z"/>
	<path class="st5" d="M113.6,44.1c-0.1,0.3-0.1,0.6-0.2,0.9c-0.3-0.1-0.6-0.2-1-0.3c-0.2,0-0.4-0.1-0.6-0.1c-1-0.2-2-0.3-3-0.5
		c-1.4-0.3-2.8-0.7-4.2-0.7c-2.2-0.1-4.5,0.4-6.5,1.1c-1.9,0.6-4,1.4-5.7,2.6c0.2-0.3,0.3-0.5,0.5-0.8c0.2-0.3,0.3-0.5,0.5-0.8
		c0,0,0,0,0,0c1.3-0.9,2.9-1.5,4.5-1.9c2.1-0.6,4.5-1.2,6.8-0.9c1.6,0.2,3.2,0.6,4.8,0.8c0.9,0.1,1.8,0.2,2.7,0.3
		c0.3,0.1,0.6,0.1,0.9,0.2C113.2,44,113.4,44,113.6,44.1z"/>
	<path class="st5" d="M132.9,63.2c0.4,1.4,0.6,2.9,1,4.3c0.3,1,0.6,1.9,0.8,2.9c-0.1,0.2-0.2,0.4-0.3,0.7c-0.1,0.3-0.2,0.6-0.4,0.9
		c-0.2,0-0.4-0.2-0.5-0.4c-1.5-5.2-2-10.4-4.9-15c-1.4-2.3-3.2-4.1-5.5-5.5c-0.9-0.6-1.8-1.1-2.8-1.7c-0.8-0.5-1.6-1-2.4-1.5
		c0.3-0.2,0.5-0.5,0.8-0.7c0.8,0.5,1.6,1,2.4,1.5c1.2,0.7,2.4,1.4,3.6,2.2c2.1,1.4,3.7,3.1,5,5.3C131.1,58.2,132.2,60.6,132.9,63.2z
		"/>
	<path class="st5" d="M113.1,60.2c-3.3,1.1-0.7,4.8,0.9,6.3c2.2,2,6.2,3.9,8.9,1.9c1.6-1.1,1.7-2.7,1.6-4.5c-0.2-2-1.3-3.3-3-4.2
		c-2.8-1.6-8.8-2.5-9.9,1.6c-0.2,0.7,0.7,1,1.1,0.5c1.7-2.5,5.5-1.9,7.8-0.9c1.3,0.6,2.5,1.6,3.2,2.8c0.6,1-0.8,3-1.7,3.6
		c-2,1.3-5-0.4-6.7-1.6c-1.3-1-3.5-3.3-1.9-5C113.6,60.5,113.4,60.1,113.1,60.2L113.1,60.2z"/>
	<path class="st5" d="M117,62.7c-0.1-0.1,0-0.4-0.1-0.5c-0.1-0.2-0.4-0.2-0.6-0.2c-0.1,0-0.3,0.1-0.3,0.3c-0.2,1,0.2,1.8,1,2.5
		c0.6,0.5,1.5,0.9,2.2,0.5c0.9-0.5,0.5-1.8,0-2.4c-0.5-0.6-2.4-1.4-2.9-0.4c-0.1,0.2,0,0.6,0.3,0.7c0.3,0.1,0.6,0,0.8-0.1
		c0.3-0.1,0.7,0,1,0.2c0.3,0.2,1,1.2,0.4,1.3c-0.4,0.1-1-0.3-1.3-0.6c-0.5-0.4-0.7-1-0.6-1.6c-0.1,0.1-0.1,0.2-0.2,0.3
		c-0.2-0.1-0.3-0.1-0.2,0c0,0,0.1,0.1,0.1,0.1c0.1,0.1,0.2,0.1,0.3,0.1C117,63.1,117.1,62.9,117,62.7L117,62.7z"/>
	<path class="st5" d="M97.4,55.6c-0.3,0.8,0.4,2,0.7,2.7c0.5,1.2,1.1,2.3,2,3.3c1.6,1.8,4.5,1.9,6-0.2c1.4-1.9-0.2-4.3-1.8-5.6
		c-1.4-1-5.1-3.1-6.6-1.2c-0.1,0.2,0,0.4,0.2,0.5c0.7,0.1,1.4,0,2.2,0.2c1,0.2,2,0.7,2.9,1.3c1.5,0.9,3.7,2.9,2,4.6
		c-1.8,1.9-3.9,0.5-5.1-1.3c-0.6-0.8-1-1.7-1.4-2.6c-0.2-0.6-0.4-1.3-0.9-1.7C97.5,55.5,97.4,55.5,97.4,55.6L97.4,55.6z"/>
	<path class="st5" d="M101.1,57.1c-0.5,0.4-0.1,1.4,0.1,1.9c0.4,0.8,1.4,1,2.2,0.8c0.2,0,0.4-0.3,0.3-0.5c-0.1-0.7-0.4-1.4-1-1.9
		c-0.5-0.4-1.3-0.7-1.8-0.4c-0.2,0.1-0.3,0.6,0,0.7c0.4,0.2,0.8,0.2,1.2,0.5c0.4,0.3,0.7,0.8,0.8,1.3c0.1-0.2,0.2-0.3,0.3-0.5
		c-0.6,0.2-1.1,0.1-1.5-0.4c-0.2-0.2-0.4-0.5-0.4-0.8C101.2,57.6,101.3,57.3,101.1,57.1C101.2,57.1,101.1,57.1,101.1,57.1
		L101.1,57.1z"/>
	<path class="st5" d="M104.3,45.8C104.3,45.8,104.3,45.8,104.3,45.8c0.2-0.1,0.1-0.4-0.1-0.3c-0.1,0-0.1,0.1-0.2,0.1
		c-0.2,0.1,0,0.4,0.1,0.3C104.2,45.9,104.3,45.8,104.3,45.8c0.2-0.1,0.1-0.4-0.1-0.3c0,0,0,0,0,0C104,45.6,104.1,45.9,104.3,45.8
		L104.3,45.8z"/>
	<path class="st5" d="M103.6,46.2c-2.2,1.9-1.6,5,0.3,6.9c2.3,2.2,5.2,0.8,6.3-1.9c1.1-2.7-1.3-4.9-3.7-5.6
		c-2.7-0.7-5.7,1.6-4.3,4.5c0.2,0.3,0.7,0.3,0.8-0.1c0.2-1,0.1-2,0.8-2.7c0.6-0.6,1.6-0.6,2.4-0.5c1.8,0.3,4.2,2,3.6,4
		c-0.6,2.5-3.7,3.1-5.5,1.6C102.5,50.9,101.9,48,103.6,46.2C103.7,46.2,103.7,46.1,103.6,46.2L103.6,46.2z"/>
	<path class="st5" d="M105.2,49c0,0.4,0,0.8,0.2,1.2c0.1,0.1,0.1,0.2,0.2,0.3c0.2,0.1,0.3,0.2,0.5,0.2c0.6,0,1.3-0.5,1.3-1.1
		c0-0.3-0.2-0.6-0.4-0.8c-0.1-0.1-0.3-0.2-0.5-0.2c-0.1,0-0.2-0.1-0.3-0.1c-0.2,0-0.3,0.1-0.4,0.2c-0.1,0.1-0.1,0.2,0,0.3
		c0.1,0.1,0.2,0.3,0.4,0.3c0.1,0,0.2,0.1,0.3,0.1c-0.1,0,0,0,0,0c0,0,0.1,0,0.1,0.1c0.1,0.1-0.1-0.1,0,0c0,0,0,0,0.1,0.1
		c0,0.1-0.1-0.1,0,0c0,0,0,0,0,0c0,0,0,0,0,0c0,0.1,0-0.1,0-0.1c0,0,0,0,0,0.1c0,0.1,0-0.1,0-0.1c0,0,0,0,0,0c0,0.1,0-0.1,0,0
		c0,0,0,0,0,0.1c0,0.1,0-0.1,0-0.1c0,0,0,0,0,0c0,0,0,0.1,0,0.1c0,0,0,0,0,0.1c0,0.1,0.1-0.1,0,0c0,0,0,0,0,0c0,0-0.1,0.1-0.1,0.1
		c0.1-0.1,0,0-0.1,0c0,0-0.1,0-0.1,0c-0.1,0,0.1,0,0,0c0,0,0,0-0.1,0c0,0-0.1,0-0.1,0c0,0-0.1,0,0,0c0,0-0.1,0-0.1,0
		c0,0-0.3,0-0.1,0c0,0-0.1,0-0.1,0c0,0,0,0,0,0c-0.1,0,0.1,0,0,0c0,0-0.1,0-0.1,0c-0.1,0,0,0,0,0c0,0,0,0,0,0c0,0,0,0,0,0
		c0,0,0-0.1,0,0c0,0,0,0,0,0c0,0,0-0.1-0.1-0.1c0-0.1,0-0.1,0-0.1c-0.1-0.2-0.1-0.4-0.1-0.7C105.5,48.7,105.2,48.7,105.2,49
		L105.2,49z"/>
	<path class="st5" d="M100.2,45.2c-0.8,1.1-1.2,1.9-1,3.3c0.2,1.3,1,2.5,1.5,3.7c0.1,0.1,0.3,0,0.2-0.1c-0.4-2.3-2-4.6-0.5-6.8
		C100.5,45.2,100.3,45,100.2,45.2L100.2,45.2z"/>
	<path class="st5" d="M96.4,46.1c-0.9,0.9-1.4,2.5-1.1,3.8c0,0.2,0.3,0.2,0.3,0c0.5-1.2,0.3-2.5,1.1-3.6
		C96.8,46.1,96.5,45.9,96.4,46.1L96.4,46.1z"/>
	<path class="st5" d="M116.8,53.5c1-1.3,2.4-1.6,3.9-1c0.9,0.3,2.6,1.4,2.2,2.6c-0.2,0.7-1.2,1-1.8,1.2c-0.9,0.3-1.9,0-2.7-0.6
		c-0.5-0.4-1-1-1-1.6c0-0.6,0.6-0.7,1.1-0.9c0.1-0.1,0.1-0.2,0-0.3c-0.7-0.6-1.7-0.4-2.2,0.4c-0.5,0.9,0.1,2,0.7,2.7
		c1.5,1.9,5.1,2,6.6,0c2.5-3.1-5.9-6.9-7-2.6C116.5,53.6,116.7,53.6,116.8,53.5L116.8,53.5z"/>
	<path class="st5" d="M119.7,54.3C119.6,54.3,119.7,54.3,119.7,54.3c0.1,0,0.2,0,0.2,0c0.1,0-0.1,0,0,0c0.1,0,0,0,0.1,0
		c0.3,0.1,0.5,0.3,0.7,0.5c0.1-0.3,0.2-0.6,0.2-0.8c-0.4,0.1-0.9,0-1.3,0c-0.5,0-0.7,0.7-0.1,0.9c0.5,0.1,1.1,0.2,1.7,0.1
		c0.4-0.1,0.5-0.6,0.2-0.8c-0.5-0.5-1.7-1.2-2.3-0.4C119.1,54,119.3,54.3,119.7,54.3L119.7,54.3z"/>
	<path class="st5" d="M123.2,21.9C123.2,21.9,123.2,22,123.2,21.9c-0.3,0.4-0.6,0.8-0.8,1.1c-0.8-0.2-1.6-0.4-2.3-0.5
		c-1.3-0.1-2.7-0.2-4.1-0.1c-1.2,0-2.4,0.1-3.6,0.2c0.4-0.4,0.8-0.8,1.2-1.2c1.1-0.1,2.2-0.1,3.3-0.1
		C118.7,21.3,121.2,21.2,123.2,21.9z"/>
	<path class="st5" d="M137.7,26.7c0.1,0.4,0.2,0.9,0.2,1.3c-0.2-0.1-0.4-0.2-0.7-0.4c-3-1.7-6.3-3-9.6-3.8c0-0.1,0-0.3,0.1-0.4
		C131.2,24.1,134.6,25.1,137.7,26.7z"/>
	<path class="st5" d="M125.5,17.7c-0.1,0.2-0.1,0.3-0.2,0.5c-2.8-0.2-5.6-0.1-8.4,0c0.2-0.2,0.4-0.4,0.6-0.6
		C120.2,17.5,122.8,17.6,125.5,17.7z"/>
	<path class="st5" d="M135.6,18.9c0.1,0.3,0.2,0.7,0.3,1c-2.5-0.5-5.1-1-7.6-1.3c0-0.2,0-0.4,0.1-0.6
		C130.8,18.1,133.2,18.4,135.6,18.9z"/>
	<path class="st6" d="M113.1,52.1c-3.2-2.7-7.8,4-3.5,6.7c4.8,2.9,8-5,3.7-6.2L113.1,52.1z"/>
	<path class="st7" d="M110.1,54.1c-1.3,1.6,0.4,4.2,2.3,2.8C115.2,55,112,51.7,110.1,54.1z"/>
	<path class="st6" d="M109.1,61.3c-0.5,0.2-0.7,0.6-0.9,1.1c-0.3,0.8-0.7,1.6-1,2.4c-0.3,0.8-0.7,1.7-1.1,2.5
		c-0.3,0.8,0,1.4-0.1,2.3c0,0.1,0.1,0.1,0.1,0c0.5-0.7,1.1-1,1.5-1.9c0.3-0.8,0.7-1.7,1.1-2.5c0.4-1,1.5-2.9,0.7-3.9
		C109.2,61.3,109.1,61.3,109.1,61.3L109.1,61.3z"/>
	<path class="st6" d="M105.8,70.4c-0.2,0.4-0.4,0.7-0.5,1c-0.2,0.6-0.2,1.4-0.6,1.9c-0.2,0.2-0.3,0.7-0.4,1
		c-0.2,0.5-0.4,0.9-0.4,1.5c0,0.1,0.1,0.1,0.1,0.1c0.3-0.3,0.5-0.5,0.6-0.8c0.2-0.4,0.6-1.1,0.6-1.5c0-0.7,0.4-1.1,0.6-1.6
		C105.9,71.4,105.8,70.9,105.8,70.4C105.8,70.4,105.8,70.4,105.8,70.4L105.8,70.4z"/>
	<path class="st6" d="M98.5,88.6c-0.3,0.3-0.5,0.7-0.6,1.1c-0.2,0.4-0.4,1-0.8,1.2c0.1,0,0.3-0.1,0.4-0.1c0,0,0,0-0.1,0
		c-0.9,0-1.3,1.2-0.5,1.7c0.8,0.5,1.6-0.4,1.3-1.2c0,0,0,0,0-0.1c0,0.2,0,0.4,0.1,0.6c0.1-0.5,0.4-1,0.6-1.5
		c0.2-0.5,0.3-1.1,0.1-1.6C98.9,88.5,98.6,88.5,98.5,88.6L98.5,88.6z"/>
	<path class="st6" d="M98.8,87.9c0.7-0.2,1.3-0.9,1.4-1.7c0.1-1.4,1.1-2.8,1.6-4.1c0.2-0.4,0.5-1,0.5-1.4c0-0.9,0.6-1.4,0.7-2.2
		c0.1-1.2,1.2-2,1.3-3.3c0-0.1-0.1-0.2-0.2-0.1c-0.9,0.7-0.9,1.5-1.2,2.5c-0.4,1.2-1,2.3-1.5,3.4c-0.5,1.3-0.7,2.6-1.4,3.8
		c-0.5,1-1.6,1.5-1.5,2.8C98.5,87.8,98.6,88,98.8,87.9L98.8,87.9z"/>
	<path class="st6" d="M109.4,62c0.3-0.5,0.7-1,1-1.6c0.2-0.5,0.5-1.1,0.3-1.6c0,0.1,0,0.2,0,0.3c0,0,0-0.1,0.1-0.1
		c0.4-0.6-0.9-0.8-0.7-0.1c0,0,0,0.1,0,0.1c0-0.1,0.1-0.2,0.1-0.3c-0.3,0.3-0.3,0.8-0.5,1.2c-0.2,0.6-0.4,1.2-0.6,1.8
		C108.8,62,109.2,62.2,109.4,62L109.4,62z"/>
	<path class="st6" d="M94.6,50.3c0.2,0.2,0.4,0.4,0.7,0.5c0,0,0.1-0.1,0-0.1C95,50.6,94.8,50.4,94.6,50.3
		C94.6,50.2,94.6,50.3,94.6,50.3L94.6,50.3z"/>
	<g>
		<g>
			<path class="st6" d="M109.9,56.5c0.6,0,0.6-0.9,0-0.9C109.3,55.6,109.3,56.5,109.9,56.5L109.9,56.5z"/>
		</g>
	</g>
</g>
<g>
	<path class="st0" d="M56.1,78.7c0.6-0.6,0.4-1.6,0.3-2.4c-0.1-1.1-0.4-2.1-0.4-3.2c0-2.2-0.4-4.3-0.2-6.6c0.3-4.1,1.8-7.9,3.7-11.5
		c2-4,4.8-7.5,7.8-10.7c2-2.1,4.2-4,6.4-5.8c2.2-1.7,5.1-3.3,6.2-6c0.4-1-0.1-2.4-1.4-2.3c-0.7,0.1-1.2,0-1.9,0.3
		c-0.8,0.3-1.6,0.8-2.3,1.3c-1.3,0.8-2.5,1.8-3.7,2.7c-2.5,1.9-4.9,4-7,6.3c-3.4,3.8-6.5,8-8.7,12.6c-2.1,4.3-3.2,9-3.2,13.8
		c0,2.4,0.4,4.7,1,7C53.1,75.1,54.7,80.1,56.1,78.7L56.1,78.7z"/>
	<path class="st1" d="M120.1,29.3c0.3,5.2-1.2,11-3.1,16.2c-0.4,1.1-0.8,2.2-1.3,3.2c-2.9,7.1-5.7,14.1-8.4,21.2
		c-0.6,1.6-1.4,3.1-2.2,4.6c-2.3,4-5.3,7.7-9.1,10.3c-5.7,4-11.3,5.4-18.2,5.7c-7.4,0.4-17.2-3.3-21.3-10.1
		c-1.5-2.5-3.1-5.2-3.7-8.2c-0.1-0.5-0.2-0.9-0.2-1.4c-0.3-3,0.5-6.4,1.8-9.7c1.7-4.4,4.4-8.6,6.8-11.5c2.6-3.3,5.9-5.7,9.9-7
		c3-1,6.2-0.9,9.3-1.4c8.6-1.5,17.4-6.6,23.4-12.9c4.2-4.4,5.1-10.9,9.2-15l0.4-0.5c1.1,2.5,3.2,4.7,4.2,7.7
		C118.5,23.4,119.9,26.2,120.1,29.3z"/>
	<path class="st0" d="M117,45.5c-0.4,1.1-0.8,2.2-1.3,3.2c-2.9,7.1-5.7,14.1-8.4,21.2c-0.6,1.6-1.4,3.1-2.2,4.6
		c-2.3,4-5.3,7.7-9.1,10.3c-5.7,4-11.3,5.4-18.2,5.7c-7.4,0.4-17.2-3.3-21.3-10.1c-1.5-2.5-3.1-5.2-3.7-8.2
		c-0.1-0.5-0.2-0.9-0.2-1.4c0.9-0.5,2.1-0.9,3.7-1c4.5-0.3,8.9,0.3,13.4,0c5.6-0.3,11.2-1.5,16.4-3.6c4.4-1.7,7.9-4.4,11-7.5
		c3.9-4.1,7-9.1,9.8-14.1c1.5-2.7,3.7-8.6,7-9.6l0.4-0.1C115.2,38.5,116.3,42,117,45.5z"/>
	<path class="st2" d="M105.1,74.6c-2.3,4-5.3,7.7-9.1,10.3c-5.7,4-11.3,5.4-18.2,5.7c-7.4,0.4-17.2-3.3-21.3-10.1
		c-1.5-2.5-3.1-5.2-3.7-8.2c-0.1-0.5-0.2-0.9-0.2-1.4c-0.3-3,0.5-6.4,1.8-9.7c0.1,0,0.1,0.1,0.2,0.1c3.2,1.5,5.8,3,9.4,3.7
		c4.7,1,8.8,0.8,13.5,0.1c6-0.8,10.6-3.5,15.9-5.8c1.6-0.7,2.7-0.8,3.6-0.5c1.3,0.4,2.1,1.8,3,3.8c1.4,2.9,2.7,5.8,4,8.7
		C104.6,72.4,104.9,73.5,105.1,74.6z"/>
	<path class="st3" d="M106.8,11.4c1.3,2.6,2.9,5.6,3,8.4c0.1,2.9-0.6,6.2-1.3,9.1c-2.2,8.7-10.2,14.9-17.7,18.7
		c-2.4,1.2-6.7,3.8-7.2-0.3c-0.5-3.9,3.7-7.8,5.1-11.1c3.6-8.3,9.2-15.9,15.4-22.3c0.7-0.8,1.4-1.8,2.3-2.2L106.8,11.4z"/>
	<path class="st4" d="M115.9,19.3c0.1,0.4,0.1,0.7,0.1,1c0,0.1,0,0.2,0,0.3c0.2,2.3,0.3,4.6,0.2,6.9c0,0.5,0,0.9-0.1,1.4
		c-0.2,3.4-0.7,6.9-1.6,10.2l0,0c-0.2,0.7-0.4,1.4-0.6,2.1c-0.1,0.3-0.2,0.6-0.3,0.9c-0.3,1-0.6,1.9-0.9,2.9c-0.2,0.7-0.4,1.3-0.6,2
		c-0.9,3.2-1.7,6.4-2.8,9.6c-0.3,1-0.7,2-1,3c-1.3,3.4-2.8,6.8-4.9,9.9c-0.1,0.2-0.3,0.4-0.4,0.6c-0.2,0.3-0.4,0.5-0.6,0.8
		c-1.6,2.2-3.6,4.1-5.7,5.9c0,0,0,0,0,0c-0.6,0.4-1.1,0.9-1.7,1.3c-1,0.7-2.1,1.4-3.1,2c-0.7,0.4-1.4,0.8-2.2,1.2
		c-0.7,0.3-1.4,0.7-2,1l0,0c-1,0.4-1.9,0.8-2.9,1.1c-1.2,0.4-2.3,0.7-3.5,1l0,0c-1.2,0.3-2.4,0.5-3.6,0.7l0,0
		c-0.8,0.1-1.6,0.2-2.4,0.3c-1.9,0.1-3.9-0.2-5.8-0.7l0,0c-0.8-0.2-1.6-0.4-2.4-0.6c-0.5-0.1-1-0.3-1.5-0.4c-3.6-0.9-7-2.1-9.8-4.6
		c0,0,0,0,0,0c0,0-0.1-0.1-0.1-0.1c-0.6-0.6-1.1-1.2-1.6-2c-1.5-2.6-2.2-6.2-2.2-9.6c0-0.6,0-1.2,0-1.7l0,0c0.1-1.8,0.3-3.6,0.7-5
		l0,0c0-0.2,0.1-0.4,0.2-0.6c0.1-0.2,0.1-0.4,0.2-0.6c0.7-2.1,1.6-4,2.7-5.8c0.3-0.4,0.5-0.9,0.8-1.3c0.9-1.3,1.8-2.6,2.7-4
		c0.7-1,1.4-2,2.1-3.1c0.9-1.3,1.8-2.6,2.7-3.8c0.1-0.2,0.3-0.3,0.4-0.5c0.4-0.5,0.8-1.1,1.3-1.6c0.5-0.6,1-1.2,1.5-1.7
		c0.2-0.2,0.4-0.4,0.6-0.6c0.2-0.2,0.4-0.4,0.7-0.7c0,0,0,0,0,0c0.5-0.5,0.9-0.9,1.4-1.4c0,0,0,0,0,0c0.4-0.3,0.7-0.7,1.1-1
		c2.7-2.5,5.5-4.8,8.5-7c0.3-0.2,0.6-0.5,1-0.7l0,0c1.4-1,2.8-2,4.2-3c0.5-0.4,1.1-0.7,1.6-1.1c1.9-1.3,3.9-2.6,5.8-3.8
		c0.5-0.3,1-0.6,1.5-0.9c1.3-0.8,2.6-1.7,3.9-2.5c0.3-0.2,0.5-0.3,0.8-0.5c0.1-0.1,0.2-0.1,0.3-0.2c1.5-1,6.1-4.1,7.8-2.4
		c0.3,0.3,0.4,0.6,0.5,1.1c0.2,1-0.3,2.2-1,3.3c-0.1,0.2-0.2,0.3-0.3,0.5c-0.9,1.3-2.1,2.5-2.9,3.2c0,0,0,0,0,0
		c-0.3,0.3-0.7,0.6-1,0.9c-1.4,1.3-2.4,2.7-3.5,4.3c-0.3,0.4-0.6,0.9-0.8,1.4c0,0,0,0,0,0.1c-0.6,1-1.3,1.8-2,2.7
		c-0.3,0.3-0.6,0.6-0.9,1c-0.9,0.9-1.8,1.8-2.7,2.8c-0.2,0.2-0.3,0.4-0.4,0.6c-0.2,0.3-0.4,0.6-0.6,0.9c-0.9,1.6-1.4,3.3-2.2,4.9
		c-0.1,0.3-0.3,0.6-0.4,0.8c0,0.1-0.1,0.2-0.1,0.2c-1,1.7-2.2,3.7-3,5.7c-0.2,0.5-0.4,1-0.6,1.5c0.2,0.1,0.3,0.3,0.4,0.4l0,0
		c0.2,0.2,0.4,0.3,0.6,0.4c0,0,0,0,0,0c0.7,0.3,1.2,0.1,1.6-0.3c0.6-0.5,1.1-1.4,1.9-2.1c0.9-0.8,2-1.5,3-2.1
		c0.3-0.2,0.6-0.3,0.9-0.5c0.7-0.4,1.4-0.8,2.1-1.2c1.3-0.7,2.4-1.7,3.5-2.9c0.3-0.3,0.6-0.7,0.9-1c0.9-1.1,1.7-2.2,2.4-3.4
		c0.2-0.4,0.4-0.7,0.6-1.1c0.7-1.3,1.3-2.6,1.8-3.9c0.2-0.5,0.4-0.9,0.5-1.4c0-0.1,0.1-0.2,0.1-0.3c0.6-1.8,1.2-3.6,1.9-5.4
		c0-0.1,0.1-0.3,0.1-0.4c0.3-0.9,0.7-1.8,1-2.6c0.2-0.4,0.4-1.2,0.7-2.1c0.1-0.2,0.1-0.4,0.2-0.6c0-0.1,0.1-0.2,0.1-0.3
		c0.9-2.9,2.3-6.1,4.5-3.5C114.9,14.5,115.5,17.1,115.9,19.3z"/>
	<path class="st5" d="M98.6,24.8c-0.3,0.4-0.6,0.9-0.8,1.4c-0.6-0.3-1.2-0.6-1.8-0.8c-2.1-1-4.4-2.2-6.8-2.3c-1.5,0-2.8,0-4.2-0.2
		c0.5-0.4,1.1-0.7,1.6-1.1c1.1-0.1,2.3-0.2,3.5-0.1c2.2,0.2,4.3,1.2,6.2,2.1C97.1,24.1,97.8,24.5,98.6,24.8z"/>
	<path class="st5" d="M114.6,39L114.6,39c-0.2,0.7-0.4,1.4-0.6,2.1c-1.6-3.5-3.3-6.8-6.3-9.4c-1-0.9-2.1-1.6-3.2-2.2
		c0.2-0.5,0.4-0.9,0.5-1.4c1.2,0.7,2.3,1.4,3.4,2.3C111.1,32.8,113,35.8,114.6,39z"/>
	<path class="st5" d="M95.7,28.9c-0.3,0.3-0.6,0.6-0.9,1c-4.6-2.2-9.7-3.3-15-3.3c0.3-0.2,0.6-0.5,1-0.7l0,0
		C85.9,25.2,91,26.6,95.7,28.9z"/>
	<path class="st5" d="M112.9,44.9c-0.2,0.7-0.4,1.3-0.6,2c-0.2-0.3-0.3-0.6-0.5-0.8c-2.3-3.8-5.2-7.4-8.5-10.4
		c-0.4-0.4-0.8-0.7-1.3-1.1c0.2-0.4,0.4-0.7,0.6-1.1c0.4,0.3,0.8,0.7,1.2,1C107.5,37.5,110.5,41,112.9,44.9z"/>
	<path class="st5" d="M91.7,33.3c-0.2,0.3-0.4,0.6-0.6,0.9c-0.4-0.2-0.8-0.3-1.2-0.5c-6.4-2.3-13.6-2.3-19.7,0.9
		c0.4-0.3,0.7-0.7,1.1-1c2.3-1.3,4.8-2.1,7.5-2.3c3.3-0.3,6.7,0,10,1c0.6,0.2,1.1,0.3,1.7,0.5C90.8,32.9,91.2,33.1,91.7,33.3z"/>
	<path class="st5" d="M109.6,56.5c-0.3,1-0.7,2-1,3c-0.2-2.3-0.8-4.6-1.5-6.8c-0.9-2.8-2-5.7-3.6-8.2c-1.3-2-2.8-3.9-4.6-5.4
		c0.3-0.3,0.6-0.7,0.9-1c1.8,1.5,3.4,3.3,4.7,5.4c1.7,2.8,3,5.8,4,8.9C108.9,53.7,109.3,55.1,109.6,56.5z"/>
	<path class="st5" d="M96.9,76.7c-0.6,0.4-1.1,0.9-1.7,1.3c-0.8-0.2-1.5-0.3-2.3-0.6c-3-1-5.7-2.5-8.2-4.3c-2.6-1.9-5.3-4.1-7.4-6.6
		c-0.8-1-1.3-2.1-1.9-3.1c-0.1-0.1-0.1-0.2-0.2-0.3c-0.5-0.8-1.4-1.2-2.3-1.6c-4.2-1.9-8.4-5.4-10.5-9.5c-0.9-1.8-1.5-3.9-1.1-6
		c0.1-0.3,0.1-0.6,0.2-0.9c0.9-1.3,1.8-2.6,2.7-3.8c0.1-0.2,0.3-0.3,0.4-0.5c0,0,0,0,0.1,0c0.1-0.1,0.2,0.1,0.2,0.2
		c-0.2,0.4-0.4,0.8-0.7,1.1c-0.5,0.6-1,1.2-1.3,1.9c-0.5,1-0.7,2.2-0.7,3.3c0.1,2.2,1.1,4.2,2.4,6c1.4,1.9,3.1,3.5,5.1,4.9
		c1.7,1.2,3.5,1.8,5.2,2.9c0.5,0.3,0.9,0.7,1.2,1.1c0.9,1.2,1.4,2.7,2.4,3.8c2.1,2.3,4.7,4.4,7.3,6.2C89.2,74.4,93,75.9,96.9,76.7z"
		/>
	<path class="st5" d="M92.1,80c-0.7,0.4-1.4,0.8-2.2,1.2c-2.3-1-4.4-2.3-6.1-3.6c-2.2-1.6-4.2-3.5-6.1-5.5c-1.8-2-3-4.5-4.7-6.5
		c-3.3-3.8-8.6-4.5-12.8-7c-1.7-1-3.1-2.2-4-4c-0.2-0.4-0.3-0.8-0.4-1.2c0.3-0.4,0.5-0.9,0.8-1.3c0.2,1.2,0.6,2.3,1.4,3.2
		c1.3,1.5,3.1,2.4,4.8,3.2c3.9,1.8,8.4,2.9,11.3,6.3c1.6,1.9,2.6,4.1,4.3,5.9c1.7,1.8,3.5,3.5,5.4,5c2.1,1.6,4.4,3,6.9,3.9
		C91.3,79.7,91.7,79.9,92.1,80z"/>
	<path class="st5" d="M87.9,82.1c-1,0.4-1.9,0.8-2.9,1.1c-4.4-1.8-8.5-4.4-11.5-8.1c-1.5-1.8-2.7-3.9-4.9-4.9
		c-2.6-1.1-5.3-1.9-7.8-3.1c-2.4-1.1-5-2.4-6.7-4.5c-0.6-0.7-1-1.4-1.3-2.2l0,0c0-0.2,0.1-0.4,0.2-0.6c0.1-0.2,0.1-0.4,0.2-0.6
		c0.6,1.2,1.3,2.4,2.3,3.2c2.1,1.7,4.9,3,7.4,4c2.4,0.9,5.1,1.5,7.3,2.8c1.6,1,2.8,2.4,3.9,3.9c3.1,4,7.4,6.9,12.2,8.6
		C86.8,81.8,87.4,81.9,87.9,82.1z"/>
	<path class="st5" d="M81.5,84.3c-1.2,0.3-2.4,0.5-3.6,0.7l0,0c-3-1.6-5.7-3.6-7.9-6.1c-1.5-1.6-2.7-2.5-4.8-3.1
		c-2.1-0.6-4.2-1.3-6.1-2.4c-2.6-1.5-5.1-3.7-7-6.2c0-0.6,0-1.2,0-1.7c1.1,1.2,2.2,2.4,3.4,3.4c1.5,1.3,3.2,2.5,5,3.3
		c2.1,1,4.2,1.3,6.4,2c1.7,0.5,2.9,1.5,4.1,2.7C73.9,80.1,77.4,82.7,81.5,84.3z"/>
	<path class="st5" d="M69.7,84.5c-0.8-0.2-1.6-0.4-2.4-0.6c-0.4-0.5-0.7-1-1-1.5c-0.5-0.7-1-1.9-1.7-2.5c-0.4-0.3-1.9-0.1-2.3-0.1
		c-1.4,0-2.8-0.1-4.2-0.4c-0.7-0.1-1.4-0.3-2.2-0.5c0,0,0,0,0,0c0,0-0.1-0.1-0.1-0.1c-0.6-0.6-1.1-1.2-1.6-2c2,0.7,4,1.2,6.2,1.3
		c1.2,0,2.5,0,3.7,0c0.5,0,1,0.1,1.4,0.5c0.5,0.5,0.9,1.2,1.2,1.8c0.8,1.3,1.6,2.6,2.5,3.8C69.4,84.3,69.5,84.4,69.7,84.5z"/>
	<path class="st5" d="M102,64.5c-0.5,1.1-0.8,2.3-1.8,3.1c-0.8,0.6-1.6,1.1-2.6,1.4c-2.5,0.6-4.6,0.2-7-0.5c-2.5-0.7-4.9-1.5-7.1-3
		c-2-1.4-3.8-3.1-5.8-4.5c-0.2-0.2-0.4-0.3-0.6-0.4C75,59,72.9,57.7,71,55.9c-2-1.9-3.8-4.1-5-6.6c-1.1-2.3-1.8-4.8-1.8-7.4
		c0-0.1,0-0.2,0-0.2c0-0.2,0-0.4,0-0.6c0.1-0.2,0.3-0.3,0.4-0.5c0.4-0.5,0.8-1.1,1.3-1.6c-0.3,1.3-0.5,2.6-0.3,4
		c0.3,2.3,1.1,4.6,2.4,6.6c1.3,2.1,2.9,4,4.7,5.7c1.6,1.5,3.5,2.6,5.2,4c0,0,0.1,0,0.1,0.1c3.5,2.8,6.6,6.9,11.1,8
		c4.3,1.1,10,1.4,12.5-3.1C101.8,64.2,102.1,64.3,102,64.5z"/>
	<path class="st5" d="M88.9,39.1c-0.1,0.3-0.3,0.6-0.4,0.8c-0.3-0.2-0.6-0.4-0.9-0.5c-0.2-0.1-0.4-0.2-0.6-0.3
		c-0.9-0.4-1.9-0.7-2.8-1.1c-1.3-0.6-2.6-1.3-4-1.7c-2.1-0.6-4.4-0.6-6.6-0.4c-2,0.2-4.3,0.5-6.1,1.3c0.2-0.2,0.4-0.4,0.6-0.6
		c0.2-0.2,0.4-0.4,0.7-0.7c0,0,0,0,0,0c1.5-0.6,3.1-0.8,4.8-0.9c2.2-0.1,4.7-0.2,6.8,0.6c1.5,0.5,3,1.2,4.6,1.8
		c0.8,0.3,1.7,0.6,2.5,0.9c0.3,0.1,0.6,0.2,0.8,0.4C88.5,38.9,88.7,39,88.9,39.1z"/>
	<path class="st5" d="M103.5,62c0.1,1.5-0.1,2.9,0,4.4c0,1,0.2,2,0.1,3c-0.1,0.2-0.3,0.4-0.4,0.6c-0.2,0.3-0.4,0.5-0.6,0.8
		c-0.2-0.1-0.3-0.3-0.4-0.5c-0.4-5.4,0.3-10.6-1.5-15.7c-0.9-2.6-2.2-4.7-4.1-6.6c-0.8-0.8-1.6-1.5-2.3-2.3c-0.7-0.7-1.4-1.3-2-2
		c0.3-0.2,0.6-0.3,0.9-0.5c0.7,0.7,1.3,1.3,2,2c1,0.9,2.1,1.9,3,2.9c1.7,1.8,2.9,3.9,3.7,6.2C102.8,56.7,103.4,59.3,103.5,62z"/>
	<path class="st5" d="M84.9,54.7c-3.5,0.3-1.7,4.6-0.5,6.3c1.7,2.4,5.2,5.2,8.3,3.9c1.8-0.8,2.2-2.3,2.5-4c0.3-2-0.6-3.5-2-4.8
		c-2.4-2.2-8-4.4-10-0.6c-0.3,0.6,0.5,1.2,1,0.7c2.2-2.1,5.8-0.7,7.8,0.8c1.1,0.8,2.1,2.1,2.5,3.4c0.4,1.1-1.5,2.8-2.5,3.2
		c-2.3,0.9-4.8-1.4-6.1-3c-1.1-1.3-2.7-4-0.8-5.3C85.3,55.1,85.2,54.7,84.9,54.7L84.9,54.7z"/>
	<path class="st5" d="M88.1,58c0-0.1,0.1-0.4,0-0.5c-0.1-0.2-0.3-0.3-0.5-0.3c-0.1,0-0.3,0.1-0.3,0.2c-0.4,0.9-0.2,1.9,0.4,2.6
		c0.4,0.6,1.2,1.2,2,1c1-0.3,0.8-1.7,0.5-2.4c-0.4-0.7-2.1-1.9-2.8-1c-0.2,0.2-0.2,0.6,0.1,0.7c0.2,0.1,0.6,0.1,0.8,0.1
		c0.3,0,0.7,0.2,0.9,0.4c0.2,0.2,0.7,1.3,0.1,1.4c-0.4,0-0.9-0.5-1.1-0.8c-0.4-0.5-0.4-1.1-0.3-1.7c-0.1,0.1-0.2,0.2-0.3,0.3
		c-0.2-0.2-0.3-0.2-0.2,0c0,0,0.1,0.1,0.1,0.1c0.1,0.1,0.1,0.1,0.2,0.2C88,58.4,88.2,58.2,88.1,58L88.1,58z"/>
	<path class="st5" d="M70.6,46.8c-0.5,0.7-0.1,2,0.1,2.8c0.2,1.3,0.6,2.5,1.2,3.7c1.2,2.2,4,2.8,5.9,1.1c1.8-1.6,0.8-4.3-0.5-5.8
		c-1.1-1.3-4.3-4.1-6.1-2.7c-0.2,0.1-0.1,0.4,0.1,0.5c0.7,0.3,1.4,0.3,2.1,0.6c1,0.4,1.8,1.1,2.5,1.8c1.2,1.2,3,3.6,0.9,5
		c-2.2,1.4-3.9-0.4-4.7-2.3c-0.4-0.9-0.6-1.9-0.8-2.8c-0.1-0.6-0.1-1.4-0.5-1.9C70.7,46.7,70.6,46.7,70.6,46.8L70.6,46.8z"/>
	<path class="st5" d="M73.9,49c-0.6,0.3-0.4,1.4-0.3,1.9c0.2,0.9,1.2,1.3,1.9,1.3c0.2,0,0.4-0.2,0.4-0.4c0-0.7-0.1-1.4-0.6-2
		c-0.4-0.5-1.1-1-1.7-0.8c-0.3,0.1-0.4,0.5-0.2,0.7c0.4,0.3,0.8,0.4,1.1,0.7c0.4,0.4,0.5,0.9,0.5,1.4c0.1-0.1,0.3-0.3,0.4-0.4
		c-0.6,0-1.1-0.2-1.4-0.7c-0.2-0.3-0.2-0.5-0.2-0.8C73.8,49.6,73.9,49.3,73.9,49C73.9,49,73.9,49,73.9,49L73.9,49z"/>
	<path class="st5" d="M79.4,38.7C79.4,38.7,79.5,38.7,79.4,38.7c0.2-0.1,0.2-0.3,0-0.3c-0.1,0-0.1,0-0.2,0c-0.2,0-0.1,0.4,0.1,0.3
		C79.3,38.8,79.4,38.7,79.4,38.7c0.2-0.1,0.2-0.4,0-0.3c0,0,0,0-0.1,0C79.2,38.5,79.2,38.8,79.4,38.7L79.4,38.7z"/>
	<path class="st5" d="M78.7,38.9c-2.5,1.4-2.7,4.5-1.2,6.8c1.8,2.7,4.9,1.9,6.5-0.5c1.7-2.4-0.2-5.1-2.4-6.3
		c-2.5-1.3-5.9,0.3-5.2,3.4c0.1,0.3,0.6,0.4,0.8,0.1c0.4-0.9,0.5-1.9,1.4-2.5c0.7-0.5,1.7-0.3,2.4,0c1.7,0.7,3.6,2.8,2.7,4.7
		c-1.2,2.3-4.3,2.3-5.7,0.4C76.5,43.3,76.6,40.4,78.7,38.9C78.8,39,78.7,38.9,78.7,38.9L78.7,38.9z"/>
	<path class="st5" d="M79.6,42c-0.1,0.4-0.2,0.8-0.1,1.2c0,0.1,0.1,0.3,0.2,0.4c0.1,0.2,0.3,0.3,0.5,0.3c0.6,0.1,1.4-0.2,1.5-0.8
		c0.1-0.3,0-0.6-0.3-0.9C81.3,42.1,81.2,42,81,42c-0.1-0.1-0.2-0.1-0.3-0.1c-0.1,0-0.3,0-0.4,0.1c-0.1,0-0.1,0.2-0.1,0.3
		c0.1,0.1,0.1,0.3,0.3,0.4c0.1,0,0.2,0.1,0.3,0.2c-0.1-0.1,0,0,0,0c0,0,0.1,0.1,0.1,0.1c0.1,0.1-0.1-0.1,0,0c0,0,0,0.1,0.1,0.1
		c0,0.1,0-0.1,0,0c0,0,0,0,0,0c0,0,0,0,0,0c0,0.1,0-0.1,0-0.1c0,0,0,0,0,0.1c0,0.1,0-0.1,0-0.1c0,0,0,0,0,0c0,0.1,0-0.1,0,0
		c0,0,0,0,0,0.1c0,0.1,0.1-0.1,0,0c0,0,0,0,0,0c0,0,0,0-0.1,0.1c0,0,0,0-0.1,0.1c0,0,0.1-0.1,0,0c0,0,0,0,0,0c0,0-0.1,0.1-0.2,0.1
		c0.2-0.1,0,0-0.1,0c0,0-0.1,0-0.1,0c-0.1,0,0.1,0,0,0c0,0,0,0-0.1,0c0,0-0.1,0-0.1,0c0,0-0.1,0,0,0c0,0-0.1,0-0.1,0
		c0,0-0.3,0-0.1,0c0,0-0.1,0-0.1,0c0,0,0,0,0,0c-0.1,0,0.1,0,0,0c0,0,0,0-0.1,0c-0.1,0,0,0,0,0c0,0,0,0,0,0c0,0,0,0,0,0
		c0,0,0-0.1,0,0c0,0,0,0,0,0c0,0,0-0.1,0-0.1c0-0.1,0-0.1,0-0.1c0-0.2,0-0.5,0.1-0.7C80,41.9,79.7,41.8,79.6,42L79.6,42z"/>
	<path class="st5" d="M75.6,37.2c-1,0.9-1.6,1.6-1.7,3c-0.1,1.3,0.4,2.7,0.7,4c0,0.2,0.3,0.1,0.3,0c0.1-2.3-0.9-4.9,1-6.7
		C75.8,37.3,75.7,37.1,75.6,37.2L75.6,37.2z"/>
	<path class="st5" d="M71.6,37.3c-1.1,0.7-1.9,2.1-1.9,3.4c0,0.2,0.2,0.2,0.3,0.1c0.7-1,0.8-2.4,1.8-3.3
		C72,37.4,71.8,37.2,71.6,37.3L71.6,37.3z"/>
	<path class="st5" d="M90,49c1.3-1.1,2.7-1,4.1-0.1c0.8,0.5,2.2,1.9,1.6,3c-0.4,0.6-1.4,0.7-2,0.8c-1,0.1-1.9-0.5-2.5-1.2
		c-0.4-0.5-0.8-1.2-0.6-1.8c0.1-0.6,0.7-0.6,1.2-0.7c0.1,0,0.1-0.2,0.1-0.2c-0.6-0.7-1.6-0.7-2.2-0.1c-0.7,0.7-0.3,2,0.1,2.8
		c1.1,2.2,4.5,3,6.5,1.5c3.1-2.5-4.2-8-6.3-4C89.6,49,89.8,49.1,90,49L90,49z"/>
	<path class="st5" d="M92.6,50.4C92.5,50.4,92.6,50.4,92.6,50.4c0.1,0,0.2,0,0.2,0c0.1,0-0.1,0,0,0c0.1,0,0,0,0.1,0
		c0.3,0.1,0.4,0.4,0.6,0.6c0.1-0.3,0.3-0.5,0.4-0.8c-0.5,0-0.8-0.2-1.3-0.3c-0.5-0.1-0.8,0.6-0.3,0.8c0.5,0.2,1.1,0.4,1.6,0.4
		c0.4,0,0.6-0.5,0.4-0.8C94,50,93,49,92.3,49.7C92,50,92.2,50.3,92.6,50.4L92.6,50.4z"/>
	<path class="st5" d="M103.1,19.6C103.1,19.6,103.1,19.6,103.1,19.6c-0.4,0.3-0.7,0.6-1,0.9c-0.7-0.3-1.4-0.7-2.2-1
		c-1.3-0.4-2.6-0.8-3.9-1c-1.2-0.2-2.4-0.4-3.6-0.6c0.5-0.3,1-0.6,1.5-0.9c1.1,0.1,2.2,0.3,3.2,0.6C98.8,18,101.3,18.5,103.1,19.6z"
		/>
	<path class="st5" d="M116.2,27.5c0,0.5,0,0.9-0.1,1.4c-0.2-0.2-0.4-0.3-0.6-0.5c-2.6-2.3-5.5-4.3-8.6-5.8c0-0.1,0.1-0.3,0.1-0.4
		C110.4,23.5,113.5,25.2,116.2,27.5z"/>
	<path class="st5" d="M106.2,16c-0.1,0.2-0.2,0.3-0.3,0.5c-2.7-0.8-5.4-1.3-8.2-1.9c0.3-0.2,0.5-0.3,0.8-0.5
		C101.1,14.6,103.7,15.2,106.2,16z"/>
	<path class="st5" d="M115.9,19.3c0.1,0.4,0.1,0.7,0.1,1c-2.4-1-4.7-2-7.2-2.9c0.1-0.2,0.1-0.4,0.2-0.6
		C111.4,17.5,113.7,18.3,115.9,19.3z"/>
	<path class="st6" d="M86.7,46.8c-2.5-3.4-8.5,2.2-4.8,5.7c4,3.9,8.9-3.2,5-5.2L86.7,46.8z"/>
	<path class="st7" d="M83.3,48.1c-1.6,1.3-0.6,4.2,1.6,3.3C88,50.1,85.7,46.1,83.3,48.1z"/>
	<path class="st6" d="M80.7,54.9c-0.6,0.1-0.8,0.4-1.1,0.9c-0.5,0.7-1,1.4-1.5,2.2c-0.5,0.7-1.1,1.5-1.6,2.2
		c-0.5,0.7-0.3,1.4-0.6,2.2c0,0.1,0.1,0.1,0.1,0.1c0.6-0.6,1.3-0.8,1.8-1.5c0.5-0.8,1.1-1.5,1.6-2.2c0.6-0.9,2.1-2.5,1.5-3.7
		C80.8,54.9,80.7,54.9,80.7,54.9L80.7,54.9z"/>
	<path class="st6" d="M75.5,63c-0.2,0.3-0.5,0.6-0.7,0.9c-0.3,0.5-0.5,1.3-1,1.7c-0.3,0.2-0.4,0.6-0.6,0.9c-0.3,0.5-0.5,0.8-0.7,1.4
		c0,0.1,0.1,0.1,0.1,0.1c0.3-0.2,0.6-0.3,0.8-0.7c0.2-0.4,0.8-0.9,0.9-1.3c0.1-0.7,0.6-1,0.9-1.5C75.4,64,75.4,63.5,75.5,63
		C75.5,63,75.5,63,75.5,63L75.5,63z"/>
	<path class="st6" d="M64.4,79.2c-0.3,0.2-0.6,0.6-0.8,0.9c-0.2,0.3-0.6,0.8-1,1c0.1,0,0.3,0,0.4,0c0,0,0,0-0.1,0
		c-0.9-0.3-1.5,0.9-0.9,1.6c0.7,0.7,1.7-0.1,1.5-0.9c0,0,0,0,0-0.1c0,0.2,0,0.4-0.1,0.6c0.2-0.5,0.6-0.9,0.9-1.4
		c0.3-0.4,0.6-1,0.4-1.5C64.8,79.2,64.6,79.1,64.4,79.2L64.4,79.2z"/>
	<path class="st6" d="M64.8,78.6c0.7-0.1,1.5-0.6,1.7-1.3c0.4-1.3,1.7-2.5,2.5-3.6c0.2-0.4,0.7-0.8,0.8-1.3c0.2-0.8,0.9-1.2,1.1-2
		c0.4-1.2,1.6-1.7,2-3c0-0.1-0.1-0.2-0.2-0.1c-1,0.5-1.2,1.3-1.7,2.2c-0.6,1.1-1.5,2-2.2,3c-0.7,1.2-1.3,2.3-2.2,3.4
		c-0.7,0.9-1.9,1.2-2.1,2.4C64.6,78.4,64.7,78.6,64.8,78.6L64.8,78.6z"/>
	<path class="st6" d="M80.8,55.6c0.5-0.4,0.9-0.8,1.3-1.4c0.3-0.4,0.8-0.9,0.6-1.5c0,0.1-0.1,0.2-0.1,0.3c0,0,0.1-0.1,0.1-0.1
		c0.5-0.6-0.7-1-0.7-0.3c0,0,0,0.1,0,0.1c0.1-0.1,0.1-0.2,0.2-0.3c-0.4,0.2-0.5,0.7-0.7,1.1c-0.3,0.5-0.6,1.1-1,1.6
		C80.3,55.5,80.6,55.8,80.8,55.6L80.8,55.6z"/>
	<path class="st6" d="M69,41c0.2,0.2,0.3,0.5,0.6,0.6c0,0,0.1,0,0-0.1C69.3,41.4,69.2,41.2,69,41C69,40.9,68.9,41,69,41L69,41z"/>
	<g>
		<g>
			<path class="st6" d="M82.6,50.4c0.6,0,0.6-0.9,0-0.9C82,49.5,82,50.4,82.6,50.4L82.6,50.4z"/>
		</g>
	</g>
</g>
</svg>
