<?xml version="1.0" encoding="utf-8"?>
<!-- Generator: Adobe Illustrator 21.0.0, SVG Export Plug-In . SVG Version: 6.00 Build 0)  -->
<svg version="1.1" id="Слой_2" xmlns="http://www.w3.org/2000/svg" xmlns:xlink="http://www.w3.org/1999/xlink" x="0px" y="0px"
	 viewBox="0 0 200 109" style="enable-background:new 0 0 200 109;" xml:space="preserve">
<style type="text/css">
	.st0{fill:#E28681;}
	.st1{fill:#CC7976;}
	.st2{opacity:0.32;fill:#FFFFFF;}
</style>
<g>
	<path class="st0" d="M37.1,81.6c3.8,1.8,8.2,2.1,12.4,2c13.7-0.1,27.2-3.1,40.8-5c26.9-3.7,54.5-2.7,81.2,2.7
		c5.4,1.1,12,2,15.6-2.1c2.9-3.3,2.4-8.5-0.1-12.1c-2.5-3.6-6.4-5.8-10.4-7.6c-22.6-10.1-48.4-9.3-73.1-8.3
		C84,52,64.7,53.1,45.7,57.8C40.9,59,35.2,59.7,32.2,64C27.8,70.3,30.4,78.4,37.1,81.6z"/>
	<path class="st1" d="M186.9,67.1c-1.3-1.9-3-3.4-4.9-4.6c0,0.5-0.1,0.9,0,1.3c0.1,2.8-2.2,5.1-4.8,6c-2.6,0.9-5.5,0.6-8.2,0.4
		c-33.7-3.1-67.8-2.4-101.4,2.2c-8.4,1.1-16.9,2.5-25.4,2c-3.9-0.2-8-0.9-11.2-3.1c-0.3-0.2-0.7-0.5-0.9-0.7
		c-0.1,4.6,2.6,9,7.1,11.1c3.8,1.8,8.2,2.1,12.4,2c13.7-0.1,27.2-3.1,40.8-5c26.9-3.7,54.5-2.7,81.2,2.7c5.4,1.1,12,2,15.6-2.1
		c0.3-0.4,0.6-0.8,0.8-1.2c0.4-0.8,0.7-1.6,0.9-2.5C189.3,72.7,188.6,69.5,186.9,67.1z"/>
	<path class="st2" d="M38.4,73c0.5,0.4,1.2,0.4,1.8,0.4c4.7-0.1,9-2.8,13.3-4.5c8.7-3.5,18.4-3.5,27.8-3.9c2.6-0.1,5.3-0.2,7.6-1.5
		c0.2-0.1,0.4-0.2,0.4-0.4c0.1-0.4-0.3-0.7-0.7-0.9c-3.1-1.3-6.5-1.3-9.9-1c-3.7,0.3-7.3,0.8-11,1.2c-6.4,0.8-12.8,1.7-19,3.3
		C47.6,66,33.2,69.4,38.4,73z"/>
	<path class="st2" d="M121.9,58.6c-0.3,0.5-0.4,1.3,0,1.8c0.4,0.6,1.3,0.7,2,0.8c3,0.1,5.9-0.5,8.6-1.7c0.4-0.2,0.9-0.6,0.8-1
		c-0.1-0.2-0.2-0.3-0.4-0.4c-1.4-0.9-3.1-1-4.8-0.8C126.5,57.3,122.9,57,121.9,58.6z"/>
</g>
<g>
	<path class="st0" d="M172.9,105.6c-3.8,1.8-8.2,2.1-12.4,2c-13.7-0.1-27.2-3.1-40.8-5c-26.9-3.7-54.5-2.7-81.2,2.7
		c-5.4,1.1-12,2-15.6-2.1c-2.9-3.3-2.4-8.5,0.1-12.1c2.5-3.6,6.4-5.8,10.4-7.6c22.6-10.1,48.4-9.3,73.1-8.3
		c19.5,0.8,38.7,1.9,57.7,6.6c4.8,1.2,10.5,1.9,13.5,6.2C182.2,94.3,179.5,102.4,172.9,105.6z"/>
	<path class="st1" d="M23,91.1c1.3-1.9,3-3.4,4.9-4.6c0,0.5,0.1,0.9,0,1.3c-0.1,2.8,2.2,5.1,4.8,6c2.6,0.9,5.5,0.6,8.2,0.4
		c33.7-3.1,67.8-2.4,101.4,2.2c8.4,1.1,16.9,2.5,25.4,2c3.9-0.2,8-0.9,11.2-3.1c0.3-0.2,0.7-0.5,0.9-0.7c0.1,4.6-2.6,9-7.1,11.1
		c-3.8,1.8-8.2,2.1-12.4,2c-13.7-0.1-27.2-3.1-40.8-5c-26.9-3.7-54.5-2.7-81.2,2.7c-5.4,1.1-12,2-15.6-2.1c-0.3-0.4-0.6-0.8-0.8-1.2
		c-0.4-0.8-0.7-1.6-0.9-2.5C20.6,96.7,21.4,93.5,23,91.1z"/>
	<path class="st2" d="M173.5,92c-0.5,0.4-1.2,0.4-1.8,0.4c-4.7-0.1-9-2.8-13.3-4.5c-8.7-3.5-18.4-3.5-27.8-3.9
		c-2.6-0.1-5.3-0.2-7.6-1.5c-0.2-0.1-0.4-0.2-0.4-0.4c-0.1-0.4,0.3-0.7,0.7-0.9c3.1-1.3,6.5-1.3,9.9-1c3.7,0.3,7.3,0.8,11,1.2
		c6.4,0.8,12.8,1.7,19,3.3C164.4,85,178.7,88.4,173.5,92z"/>
	<path class="st2" d="M119,79.6c0.3,0.5,0.4,1.3,0,1.8c-0.4,0.6-1.3,0.7-2,0.8c-3,0.1-5.9-0.5-8.6-1.7c-0.4-0.2-0.9-0.6-0.8-1
		c0.1-0.2,0.2-0.3,0.4-0.4c1.4-0.9,3.1-1,4.8-0.8C114.4,78.3,118,78,119,79.6z"/>
</g>
<g>
	<path class="st0" d="M28.1,59.6c3.8,1.8,8.2,2.1,12.4,2c13.7-0.1,27.2-3.1,40.8-5c26.9-3.7,54.5-2.7,81.2,2.7
		c5.4,1.1,12,2,15.6-2.1c2.9-3.3,2.4-8.5-0.1-12.1c-2.5-3.6-6.4-5.8-10.4-7.6c-22.6-10.1-48.4-9.3-73.1-8.3
		C75,30,55.7,31.1,36.7,35.8C31.9,37,26.2,37.7,23.2,42C18.8,48.3,21.4,56.4,28.1,59.6z"/>
	<path class="st1" d="M177.9,45.1c-1.3-1.9-3-3.4-4.9-4.6c0,0.5-0.1,0.9,0,1.3c0.1,2.8-2.2,5.1-4.8,6c-2.6,0.9-5.5,0.6-8.2,0.4
		c-33.7-3.1-67.8-2.4-101.4,2.2c-8.4,1.1-16.9,2.5-25.4,2c-3.9-0.2-8-0.9-11.2-3.1c-0.3-0.2-0.7-0.5-0.9-0.7
		c-0.1,4.6,2.6,9,7.1,11.1c3.8,1.8,8.2,2.1,12.4,2c13.7-0.1,27.2-3.1,40.8-5c26.9-3.7,54.5-2.7,81.2,2.7c5.4,1.1,12,2,15.6-2.1
		c0.3-0.4,0.6-0.8,0.8-1.2c0.4-0.8,0.7-1.6,0.9-2.5C180.3,50.7,179.6,47.5,177.9,45.1z"/>
	<path class="st2" d="M27.4,46c0.5,0.4,1.2,0.4,1.8,0.4c4.7-0.1,9-2.8,13.3-4.5c8.7-3.5,18.4-3.5,27.8-3.9c2.6-0.1,5.3-0.2,7.6-1.5
		c0.2-0.1,0.4-0.2,0.4-0.4c0.1-0.4-0.3-0.7-0.7-0.9c-3.1-1.3-6.5-1.3-9.9-1c-3.7,0.3-7.3,0.8-11,1.2c-6.4,0.8-12.8,1.7-19,3.3
		C36.6,39,22.2,42.4,27.4,46z"/>
	<path class="st2" d="M81.9,33.6c-0.3,0.5-0.4,1.3,0,1.8c0.4,0.6,1.3,0.7,2,0.8c3,0.1,5.9-0.5,8.6-1.7c0.4-0.2,0.9-0.6,0.8-1
		c-0.1-0.2-0.2-0.3-0.4-0.4c-1.4-0.9-3.1-1-4.8-0.8C86.5,32.3,82.9,32,81.9,33.6z"/>
</g>
</svg>
