<?xml version="1.0" encoding="utf-8"?>
<!-- Generator: Adobe Illustrator 21.0.0, SVG Export Plug-In . SVG Version: 6.00 Build 0)  -->
<svg version="1.1" id="Слой_2" xmlns="http://www.w3.org/2000/svg" xmlns:xlink="http://www.w3.org/1999/xlink" x="0px" y="0px"
	 viewBox="0 0 200 109" style="enable-background:new 0 0 200 109;" xml:space="preserve">
<style type="text/css">
	.st0{fill:#C3E2E1;}
	.st1{fill:#C43922;}
	.st2{fill:#B53221;}
	.st3{fill:#E2786D;}
	.st4{fill:#F75237;}
	.st5{fill:#D15E52;}
	.st6{fill:#F4AA67;}
	.st7{fill:#EF8675;}
	.st8{opacity:0.28;fill:#FFFFFF;}
	.st9{fill:#E54C23;}
	.st10{fill:#99261D;}
</style>
<g>
	<path class="st0" d="M29.8,81.5c1.4,1.2,3.2,1.7,5,2.1c25.8,6.8,52.4,10,79,13.1c7.4,0.9,14.8,1.8,22.2,2c0.4-1.9-0.3-3.9-1.6-5.2
		c16.8-0.2,33.6-1.1,50.3-2.7c-2.3-3.4-6.6-4.8-10.4-6.4c-14.9-5.9-27.5-17-42.9-21.4c-10.9-3.1-22.4-2.7-33.6-2.2
		c-13.8,0.6-27.6,1.1-41.5,1.7c-5.6,0.2-11.2,0.5-16.4,2.4C35,66.8,22.8,75.6,29.8,81.5z"/>
	<g>
		<path class="st1" d="M19.5,68.4c0.6,1.9,1.4,3.8,2.8,5.4c2.4,2.8,6.4,4.3,10.4,5.6c22.8,7.6,48.5,9.4,72.7,5.1
			c-4.7-5.4-13.2-7.9-18.9-12.7C81.8,68,79.4,62.8,76,58.1c-7.4-10.3-14-23.9-26.9-29.7C36.2,22.5,23,40.5,20,48.9
			C17.9,55.2,17.6,62,19.5,68.4z"/>
		<path class="st2" d="M105.7,85c-4.7-5.4-13.2-7.9-18.9-12.7c-4.6-3.9-7.1-9.1-10.5-13.7c-0.9-1.2-1.8-2.5-2.7-3.8
			c-0.4,0-0.8-0.1-1.2-0.1c-10.4-0.6-21.2-1-30.3-4.9c2.7,4.3,3.5,9.6,1.2,14.1c-1.5,3.1-4.7,5.8-8.5,7.1c-5.1,1.7-8.2,0-13.1-0.7
			c-0.5-0.1-1-0.1-1.4-0.1c0.5,1.5,1.3,3,2.4,4.2c2.4,2.8,6.4,4.3,10.4,5.6C55.8,87.5,81.6,89.3,105.7,85z"/>
		<path class="st3" d="M60.4,32.6c-4.6-2.4-9.5-4.8-15-5.3c-5.5-0.4-11.7,1.9-13.1,6.1c-0.6,1.8-0.2,3.8,0.4,5.6
			c2,6.1,6.6,11.6,12.8,15.5c3.5,2.2,7.5,3.9,11.1,6.1c3.5,2.1,6.6,4.7,10.1,6.9c5.2,3.2,11.2,5.5,17.2,7.8
			c7.1,2.7,14.5,6.6,21.6,9.3c-10.1-9.4-23.3-22-27.8-35.3c-1.1-3.3-1.6-7.6-4.7-10.2C69.8,36.5,64.4,34.6,60.4,32.6z"/>
		<path class="st4" d="M86.1,74.9c-6-2.2-12-4.5-17.3-7.7c-3.5-2.1-6.6-4.6-10.2-6.7c-3.6-2.1-7.6-3.8-11.1-5.9
			c-6.2-3.8-10.9-9.1-13-14.9c-0.7-1.8-1.1-3.6-0.5-5.4c1.2-4,7.4-6.1,12.8-5.6c5.5,0.5,10.3,2.9,15,5.2c3.5,1.8,8.3,3.4,11.6,5.7
			c-0.1-0.1-0.3-0.3-0.5-0.4c-3.2-2.7-8.7-4.6-12.6-6.6c-4.6-2.4-9.5-4.8-15-5.3c-5.5-0.4-11.7,1.9-13.1,6.1
			c-0.6,1.8-0.2,3.8,0.4,5.6c2,6.1,6.6,11.6,12.8,15.5c3.5,2.2,7.5,3.9,11.1,6.1c3.5,2.1,6.6,4.7,10.1,6.9
			c5.2,3.2,11.2,5.5,17.2,7.8C91,78,98.4,82,105.5,84.7c-1.5-1-3.2-3.2-4.6-4.3C96,78.6,91.1,76.7,86.1,74.9z"/>
		<path class="st5" d="M71,47.3c-0.6,0.1-1.2-0.2-1.6-0.5c-1.1-0.8-1.6-1.9-2.2-3s-1.6-2.1-3-2.3c-1.7-0.3-3.3,0.8-3.9,2
			c-0.6,1.2-0.5,2.7-0.3,4c0.6,4.5,3.3,6.3,7.1,9.6c1.2,1.1,2.8,1.5,4.5,1.8c1.8,0.3,2.5,2.2,3.7,1.1c0.5-0.4,0.7,0.1,1.3-0.2
			c0.8-0.3,1.9,0,2.5,0.6c0.6,0.6,0.8,1.3,1,2c0.3,1.2,0.6,2.5-0.1,3.5c-0.5,0.7-1.5,1.1-2.5,1.4c-1.8,0.5-3.9,0.5-5.5-0.3
			c-0.9-0.5-1.4-1.2-2-1.9c-0.9-1.1-1.8-2.2-3.2-3c-1.5-0.9-3.3-1.3-5-1.9C56,58.2,52,54,48.8,49.7c-1-1.4-2-2.9-2.4-4.5
			c-1.1-4.2,2.6-8.8,7.8-9.8c3.2-0.6,6.7-0.1,9.8,0.8c1.5,0.4,3,0.9,4.2,1.7c2.6,1.5,4,4,5.2,6.4c0.4,0.7,0.7,1.4,0.3,2.1
			c-0.3,0.6-1.3,0.6-1.9,0.3C71.7,47,71.4,47.2,71,47.3z"/>
		<path class="st6" d="M55.8,39.7c-0.5-0.6-1-1.3-0.9-2c0-0.1,0-0.2,0.1-0.3c0.2-0.1,0.5-0.1,0.7,0c0.8,0.3,1.4,0.8,1.9,1.3
			c0.5,0.5,3.6,3.2,2.3,3.5C58.6,42.4,56.4,40.4,55.8,39.7z"/>
		<path class="st6" d="M50.3,40.4c-0.1,0.1-0.1,0.2-0.1,0.3c0.1,0.5,0.6,0.9,1.1,1.2c1.6,1,3.5,1.8,5.5,2.1c0.2,0,0.5,0,0.7-0.1
			c0.2-0.2,0-0.5-0.2-0.7c-1-0.9-2.3-1.8-3.6-2.4C53,40.5,50.9,39.4,50.3,40.4z"/>
		<path class="st6" d="M53.7,45.1c-1.1-0.1-2.3,0-3.2,0.5c-0.4,0.2-0.8,0.6-0.8,1c0,0.2,0.1,0.5,0.3,0.6c0.4,0.3,0.9,0.4,1.5,0.5
			c1.8,0.2,3.7,0.2,5.5,0.1c0.4,0,0.8-0.1,1.1-0.3C59.5,46.2,54.5,45.2,53.7,45.1z"/>
		<path class="st6" d="M54.4,51.3c-0.7,0.5-1.3,1.1-1.3,1.8c0,0.1,0,0.2,0.1,0.3c0.1,0.1,0.3,0,0.4,0c0.7-0.2,1.4-0.4,2.2-0.6
			c0.8-0.2,1.6-0.4,2.2-0.8c0.8-0.5,1.3-1.1,1.7-1.8c0.1-0.1,0.1-0.2,0-0.3c-0.1-0.1-0.1-0.1-0.2-0.1C57.9,49.5,55.6,50.5,54.4,51.3
			z"/>
		<path class="st6" d="M57.1,54.8c-0.2,0.2-0.3,0.3-0.4,0.5c-0.1,0.4,0.3,0.8,0.7,0.9c0.4,0.1,0.9,0.1,1.4,0.1
			c0.8-0.1,1.7-0.4,2.3-0.8c0.2-0.2,0.4-0.4,0.5-0.6c0.3-0.8-0.8-1.6-1.7-1.5C58.9,53.3,57.8,54.2,57.1,54.8z"/>
		<path class="st6" d="M61.7,58c-0.1,0.2-0.1,0.4,0,0.6c0.1,0.2,0.4,0.3,0.7,0.3c0.6,0,1.1-0.2,1.5-0.6c0.5-0.5,1-2-0.1-2.3
			C62.7,55.9,61.9,57.4,61.7,58z"/>
		<path class="st6" d="M61.7,39.3c0.2,0.3,0.5,0.6,0.9,0.8c0.1,0.1,0.3,0.1,0.5,0.1c0.3-0.1,0.3-0.4,0.2-0.7
			c-0.2-0.6-0.8-2.8-1.6-2.9C60.1,36.3,61.4,38.9,61.7,39.3z"/>
		<path class="st6" d="M65.8,38.6c-0.1,0.7-0.2,1.5,0.1,2.2c0.1,0.3,0.4,0.6,0.8,0.6c0.4,0,0.7-0.4,0.7-0.7c0.2-0.7,0.2-1.8-0.3-2.3
			C66.6,37.7,65.9,37.8,65.8,38.6z"/>
		<path class="st6" d="M67,61.3c0.1,0.3,0.4,0.7,0.8,0.7c0.5,0,0.7-0.5,0.7-0.8c0-0.6-0.2-2.2-1.3-2.2C66,58.9,66.8,60.8,67,61.3z"
			/>
		<path class="st6" d="M71.5,64.6c0.1,0.3,0.2,0.6,0.4,0.9c0.2,0.2,0.7,0.4,1.1,0.2c0.4-0.2,0.4-0.6,0.4-1c-0.1-0.7-0.3-4-1.6-4.1
			C70.5,60.5,71.4,64.1,71.5,64.6z"/>
		<path class="st6" d="M76.2,64.4c0.2,0.4,0.4,0.9,0.8,1.3c0.1,0.2,0.3,0.3,0.6,0.3c0.3,0,0.4-0.2,0.5-0.4c0.3-0.8-0.1-1.7-0.5-2.4
			c-0.2-0.5-0.9-2-1.7-1.4C75,62.2,75.9,63.8,76.2,64.4z"/>
		<path class="st6" d="M69.2,41c0.1-0.1,0.1-0.3,0.3-0.3c0.1,0,0.2,0,0.2,0.1c0.4,0.2,0.5,0.6,0.6,0.9c0.2,0.8,0.1,1.6-0.1,2.4
			c-0.2,0.7-0.5,2-1.2,0.8C68.4,43.8,68.6,42.2,69.2,41z"/>
		<path class="st7" d="M76.9,47.4c0.1,0.9-0.3,1.9-1.2,2.4c-0.9,0.5-2.4,0.5-3-0.3c-0.1,0.9-1.8,1.1-2.7,0.6
			c-0.9-0.5-1.3-1.5-1.7-2.3c-0.4-0.9-1-1.8-2.1-2c-0.3-0.1-0.6-0.1-0.8,0c-0.2,0.1-0.4,0.4-0.4,0.6c-0.4,1.1-0.1,2.3,0.8,3.1
			c-0.6-0.2-1.3-0.4-1.9-0.5c-0.5,1.1,1.1,2.1,2.6,2.3c0.3,0,0.8,0.1,0.8,0.4c0,0.2-0.1,0.3-0.2,0.5c-0.5,0.6-0.8,1.3-0.5,2
			c0.3,0.7,1.4,1.1,2.1,0.7c0.6-0.3,1.2-1.1,1.7-0.7c-0.1,1.1-0.1,2.2,0.8,3.1c0.9,0.8,2.9,0.8,3.2-0.3c0.1-0.4,0-0.9,0.4-1.1
			c0.5-0.2,1,0.2,1.2,0.6c0.2,0.4,0.4,0.9,0.9,1c0.3,0,0.5,0,0.8,0c1.1,0,1.9,0.9,2.4,1.7c2.2,3.5,5.5,6.6,9.5,8.9
			c-1.4-0.9-2.3-2.1-3.2-3.3c-4-5.7-7.1-11.8-9.3-18.1c-0.2-0.5-0.3-0.9-0.6-1.3C76.6,46.1,76.8,46.7,76.9,47.4z"/>
		<path class="st8" d="M38.4,39.7c0.6,0.4,1.5,0.7,2.3,0.5c0.9-0.3,1.2-1.1,1.4-1.9c0.4-1.4,1-2.8,2.1-3.9c1.1-1.2,2.7-2,4.5-2.1
			c0.4,0,0.8,0,1.3,0c0.4-0.1,0.8-0.3,0.9-0.6c0.1-0.4-0.3-0.7-0.6-1c-0.9-0.5-2-0.7-3.1-0.7c-2.5-0.1-5.1,0.4-7.3,1.5
			c-1,0.5-1.9,1.1-2.5,1.8C36,35.1,36.3,38.3,38.4,39.7z"/>
		<path class="st8" d="M38.3,43.2c0.5,1.6,2.1,2.8,3.7,3.9c0.3,0.2,0.6,0.4,1,0.5c0.4,0.1,0.9,0,1.1-0.3c0.1-0.1,0.1-0.3,0.1-0.4
			c0-0.9-0.1-1.9-0.4-2.8c-0.2-0.8-0.6-1.8-1.6-2.1C40.5,41.4,37.6,41.2,38.3,43.2z"/>
		<path class="st9" d="M23.8,46.9c-1,2.7-1.5,5.5-1.5,8.3c0,1.5,0.3,3.2,1.5,4.3c0.5,0.5,1.3,0.9,2.1,0.7c0.8-0.2,1.1-1,1.3-1.7
			c0.9-2.2,3.3-3.9,4.6-6c1.8-3.1,1-6.7-0.5-9.9C28.8,37.1,24.7,44.6,23.8,46.9z"/>
	</g>
	<g>
		<path class="st1" d="M60.8,52c-0.1,2-0.1,4.1,0.7,6.1c1.3,3.4,4.5,6.3,7.7,8.9c18.7,15.1,42.1,25.9,66.2,30.4
			c-2.5-6.7-9.6-12.1-13.2-18.5c-3-5.3-3.4-11-4.9-16.5C113.9,50,112.5,35,102.6,25c-10-10.1-28.7,2-34.5,8.9
			C63.8,39.1,61.2,45.3,60.8,52z"/>
		<path class="st2" d="M135.5,97.9c-2.5-6.7-9.6-12.1-13.2-18.5c-3-5.3-3.4-11-4.9-16.5c-0.4-1.5-0.8-3-1.1-4.5
			c-0.4-0.2-0.8-0.3-1.1-0.5c-9.5-4.3-19.4-8.4-26.6-15.3c1,5-0.1,10.2-3.8,13.6c-2.5,2.4-6.4,3.8-10.5,3.7c-5.4-0.2-7.7-2.9-12-5.3
			c-0.4-0.2-0.9-0.4-1.3-0.6c0,1.6,0.1,3.2,0.7,4.8c1.3,3.4,4.5,6.3,7.7,8.9C88,82.6,111.5,93.4,135.5,97.9z"/>
		<path class="st3" d="M111.7,32.9c-3.5-3.9-7.2-7.9-12.1-10.2c-5-2.3-11.6-2.4-14.4,1.1c-1.2,1.5-1.5,3.5-1.6,5.4
			c-0.2,6.4,2.1,13.2,6.5,19c2.5,3.3,5.6,6.3,8.2,9.6c2.5,3.2,4.5,6.7,7,10c3.7,4.9,8.6,9.1,13.4,13.4c5.7,5,11.2,11.3,16.9,16.4
			c-6.1-12.4-14.1-28.8-13.6-42.8c0.1-3.5,1.2-7.7-0.8-11.1C119.1,39.9,114.6,36.2,111.7,32.9z"/>
		<path class="st4" d="M120.8,81.5c-4.8-4.2-9.7-8.5-13.5-13.3c-2.5-3.2-4.6-6.6-7.2-9.8c-2.6-3.2-5.8-6.2-8.3-9.5
			c-4.5-5.7-7-12.4-6.9-18.5c0-1.9,0.3-3.8,1.4-5.2c2.6-3.3,9.1-3.1,14-0.7c4.9,2.4,8.7,6.3,12.2,10.2c2.7,2.9,6.6,6.1,8.9,9.4
			c-0.1-0.2-0.2-0.4-0.3-0.5c-2.1-3.7-6.5-7.4-9.5-10.6c-3.5-3.9-7.2-7.9-12.1-10.2c-5-2.3-11.6-2.4-14.4,1.1
			c-1.2,1.5-1.5,3.5-1.6,5.4c-0.2,6.4,2.1,13.2,6.5,19c2.5,3.3,5.6,6.3,8.2,9.6c2.5,3.2,4.5,6.7,7,10c3.7,4.9,8.6,9.1,13.4,13.4
			c5.7,5,11.3,11.4,17,16.4c-1-1.4-1.8-4.1-2.8-5.6C128.8,88.5,124.8,85,120.8,81.5z"/>
		<path class="st5" d="M116.4,50.3c-0.6-0.1-1-0.6-1.3-1.1c-0.7-1.1-0.8-2.4-1-3.6c-0.2-1.2-0.8-2.5-2-3.2c-1.5-0.8-3.3-0.4-4.4,0.5
			c-1,0.9-1.4,2.3-1.7,3.6c-1,4.4,0.9,7,3.3,11.5c0.8,1.4,2.1,2.4,3.6,3.3c1.5,0.9,1.6,2.9,3.1,2.3c0.6-0.3,0.6,0.3,1.3,0.3
			c0.9,0,1.7,0.7,2.1,1.4c0.3,0.7,0.3,1.5,0.2,2.3c-0.1,1.2-0.3,2.5-1.4,3.2c-0.8,0.5-1.8,0.5-2.8,0.4c-1.9-0.2-3.9-0.9-5-2.3
			c-0.6-0.8-0.9-1.6-1.2-2.5c-0.5-1.3-0.9-2.7-1.9-3.9c-1.1-1.4-2.7-2.4-4-3.5c-4.7-3.9-7-9.2-8.4-14.4c-0.5-1.7-0.9-3.4-0.7-5
			c0.5-4.3,5.6-7.3,10.8-6.4c3.3,0.5,6.3,2.3,8.9,4.2c1.3,0.9,2.5,1.9,3.4,3c1.9,2.4,2.3,5.2,2.7,7.8c0.1,0.7,0.2,1.6-0.4,2.1
			c-0.5,0.4-1.5,0.1-1.9-0.4C117.2,50.3,116.7,50.4,116.4,50.3z"/>
		<path class="st6" d="M104.8,37.9c-0.3-0.8-0.5-1.6-0.1-2.2c0.1-0.1,0.1-0.2,0.3-0.2c0.2-0.1,0.5,0.1,0.7,0.3
			c0.6,0.5,1,1.2,1.4,1.9c0.3,0.6,2.2,4.2,0.9,4.1C106.5,41.4,105.2,38.7,104.8,37.9z"/>
		<path class="st6" d="M99.4,36.7c-0.1,0.1-0.2,0.2-0.2,0.3c-0.1,0.5,0.2,1,0.6,1.5c1.2,1.5,2.6,2.9,4.4,3.9
			c0.2,0.1,0.5,0.2,0.7,0.1c0.3-0.1,0.2-0.5,0-0.7c-0.6-1.3-1.5-2.5-2.5-3.5C102,37.7,100.4,35.9,99.4,36.7z"/>
		<path class="st6" d="M101,42.2c-1-0.5-2.1-0.7-3.2-0.6c-0.5,0.1-1,0.2-1.1,0.6c-0.1,0.2,0,0.5,0.1,0.7c0.2,0.4,0.7,0.7,1.2,1
			c1.6,0.9,3.4,1.4,5.1,2c0.4,0.1,0.8,0.2,1.1,0.1C106,45.3,101.7,42.6,101,42.2z"/>
		<path class="st6" d="M99.5,48.3c-0.8,0.2-1.6,0.6-1.9,1.2c0,0.1-0.1,0.2,0,0.3c0.1,0.1,0.2,0.1,0.4,0.1c0.7,0.1,1.5,0.1,2.2,0.2
			c0.8,0.1,1.6,0.2,2.4,0c0.9-0.2,1.6-0.6,2.2-1.1c0.1-0.1,0.2-0.2,0.1-0.3c0-0.1-0.1-0.1-0.2-0.2C103.3,47.8,100.9,47.9,99.5,48.3z
			"/>
		<path class="st6" d="M100.8,52.5c-0.2,0.1-0.4,0.2-0.5,0.4c-0.2,0.3,0,0.8,0.3,1.1c0.4,0.3,0.8,0.4,1.3,0.5c0.8,0.2,1.7,0.2,2.4,0
			c0.3-0.1,0.5-0.2,0.7-0.4c0.6-0.6-0.2-1.7-1.1-2C103,51.8,101.6,52.2,100.8,52.5z"/>
		<path class="st6" d="M103.8,57.1c-0.1,0.2-0.3,0.4-0.2,0.6c0,0.2,0.3,0.5,0.6,0.6c0.5,0.2,1.1,0.2,1.6,0c0.6-0.3,1.6-1.5,0.7-2.2
			C105.6,55.5,104.3,56.7,103.8,57.1z"/>
		<path class="st6" d="M110.5,39.6c0.1,0.4,0.3,0.8,0.6,1.1c0.1,0.1,0.3,0.2,0.4,0.2c0.3,0,0.4-0.3,0.5-0.6c0-0.6,0.3-2.9-0.5-3.3
			C110,36.2,110.4,39.2,110.5,39.6z"/>
		<path class="st6" d="M114.6,40.3c-0.4,0.6-0.7,1.3-0.7,2.1c0,0.3,0.2,0.7,0.5,0.8c0.4,0.1,0.8-0.1,1-0.4c0.4-0.6,0.8-1.6,0.5-2.3
			C115.6,39.8,114.9,39.7,114.6,40.3z"/>
		<path class="st6" d="M107.7,62.1c0,0.3,0.1,0.8,0.5,0.9c0.4,0.2,0.8-0.2,1-0.5c0.2-0.6,0.6-2.1-0.4-2.5
			C107.6,59.5,107.7,61.5,107.7,62.1z"/>
		<path class="st6" d="M110.8,66.8c0,0.3-0.1,0.7,0.1,1c0.1,0.3,0.5,0.6,0.9,0.6c0.4,0,0.6-0.4,0.7-0.8c0.2-0.7,1.1-3.9,0-4.4
			C111.2,62.6,110.8,66.2,110.8,66.8z"/>
		<path class="st6" d="M115.2,68.2c0.1,0.5,0.1,1,0.3,1.5c0.1,0.2,0.2,0.4,0.4,0.5c0.2,0.1,0.5-0.1,0.6-0.2c0.5-0.7,0.5-1.6,0.4-2.4
			c0-0.5-0.2-2.2-1.1-1.9C114.9,65.8,115.1,67.5,115.2,68.2z"/>
		<path class="st6" d="M116.9,43.9c0.1-0.1,0.2-0.2,0.4-0.1c0.1,0,0.2,0.1,0.2,0.2c0.3,0.3,0.3,0.7,0.2,1.1c-0.1,0.8-0.5,1.6-1,2.2
			c-0.4,0.6-1.1,1.7-1.4,0.3C115.2,46.1,116,44.8,116.9,43.9z"/>
		<path class="st7" d="M121.9,52.5c-0.3,0.9-1,1.7-2,1.8c-1.1,0.2-2.4-0.4-2.7-1.3c-0.4,0.8-2.1,0.4-2.8-0.4
			c-0.7-0.8-0.7-1.8-0.7-2.8c-0.1-0.9-0.3-2-1.2-2.6c-0.2-0.2-0.5-0.3-0.8-0.3c-0.3,0-0.5,0.2-0.6,0.4c-0.7,0.9-0.9,2.1-0.4,3.2
			c-0.5-0.4-1.1-0.8-1.6-1.2c-0.9,0.8,0.3,2.4,1.6,3.1c0.3,0.2,0.7,0.4,0.6,0.7c0,0.2-0.2,0.3-0.4,0.4c-0.7,0.4-1.2,0.9-1.2,1.7
			c0,0.7,0.9,1.5,1.7,1.4c0.7-0.1,1.5-0.6,1.9-0.1c-0.4,1-0.9,2.1-0.4,3.1c0.5,1.1,2.5,1.7,3.1,0.9c0.2-0.3,0.3-0.8,0.8-0.9
			c0.5,0,0.9,0.6,0.9,1c0,0.5,0,1,0.5,1.3c0.2,0.1,0.5,0.2,0.8,0.2c1.1,0.4,1.4,1.5,1.6,2.5c0.8,4.1,2.8,8.1,5.7,11.7
			c-1-1.3-1.4-2.8-1.8-4.2c-1.7-6.7-2.5-13.5-2.3-20.2c0-0.5,0-0.9-0.1-1.4C122,51.2,122.1,51.9,121.9,52.5z"/>
		<path class="st8" d="M88.6,31.8c0.4,0.6,1.2,1.2,2,1.2c0.9,0,1.5-0.6,2-1.3c0.9-1.1,1.9-2.2,3.3-3c1.4-0.7,3.3-0.9,4.9-0.3
			c0.4,0.1,0.8,0.3,1.2,0.4c0.4,0.1,0.9,0,1.1-0.3c0.2-0.3,0-0.8-0.3-1.1c-0.6-0.8-1.6-1.3-2.6-1.7c-2.3-1-4.9-1.4-7.3-1.2
			c-1.1,0.1-2.1,0.3-3,0.8C87.9,26.6,87.1,29.7,88.6,31.8z"/>
		<path class="st8" d="M87.2,35c-0.1,1.7,1,3.4,2.1,4.9c0.2,0.3,0.4,0.6,0.8,0.9c0.3,0.2,0.8,0.3,1.1,0.1c0.1-0.1,0.2-0.2,0.2-0.4
			c0.3-0.9,0.5-1.8,0.7-2.8c0.1-0.9,0-1.9-0.8-2.5C89.9,34.1,87.3,32.9,87.2,35z"/>
		<path class="st9" d="M72.4,33.3c-1.9,2.1-3.3,4.6-4.3,7.2c-0.5,1.4-0.9,3-0.1,4.6c0.3,0.6,0.9,1.3,1.7,1.4
			c0.9,0.1,1.4-0.6,1.9-1.1c1.6-1.8,4.5-2.4,6.4-4c2.8-2.2,3.3-5.9,3-9.4C80.5,25.9,74,31.5,72.4,33.3z"/>
	</g>
	<path class="st10" d="M81.8,87.6c6.5,0,13.1,0,19.5-0.5c-0.7-0.6-1.9-1.3-2.8-1.8c-4.4-2-8.8-3.9-12.8-6.6
		c-3.4-2.3-6.7-4.8-10.3-6.8c-0.3,0.8,1.2,2.3,1.7,3c0.8,1.3,1.5,2.6,2.2,4C80.5,81.7,81.3,84.6,81.8,87.6z"/>
	<path class="st10" d="M110.8,73.6c1.4,1.3,2.8,2.5,4.4,3.5c1.8,1.1,3.9,1.7,5.8,2.6c3.2,1.4,6.3,3.4,8.9,5.8
		c-0.8-1.6-1.4-3.3-1.9-5.1c-0.7-2.4-1-5-1.8-7.4c-1.2-3.9-3.5-7.5-6.4-10.3c-2.2-2.1-4.9-3.7-7.9-3.9c-2.8-0.2-7.6,1.9-7.8,5.2
		C103.8,67.8,108.4,71.5,110.8,73.6z"/>
	<g>
		<path class="st1" d="M102.4,59.5c0.3,2,0.7,4,1.9,5.8c1.9,3.1,5.6,5.3,9.3,7.3c21.3,11.2,46.4,17.2,70.8,17
			c-3.7-6.1-11.7-10-16.6-15.6c-3.9-4.6-5.5-10.1-8.1-15.3c-5.6-11.4-9.9-25.8-21.6-33.7c-11.8-7.9-27.8,7.6-32.1,15.5
			C102.8,46.3,101.5,52.9,102.4,59.5z"/>
		<path class="st2" d="M184.6,90c-3.7-6.1-11.7-10-16.6-15.6c-3.9-4.6-5.5-10.1-8.1-15.3c-0.7-1.4-1.3-2.8-2-4.2
			c-0.4-0.1-0.8-0.2-1.2-0.3c-10.1-2.3-20.7-4.5-29.1-9.8c1.9,4.7,1.9,10-1.1,14.1c-2,2.8-5.6,5-9.6,5.6c-5.3,0.9-8.1-1.4-12.8-2.9
			c-0.5-0.2-0.9-0.3-1.4-0.4c0.3,1.6,0.8,3.1,1.7,4.6c1.9,3.1,5.6,5.3,9.3,7.3C135,84.3,160.1,90.3,184.6,90z"/>
		<path class="st3" d="M148.6,30.9c-4.2-3.1-8.6-6.3-13.9-7.6c-5.3-1.3-11.9-0.1-13.9,3.9c-0.9,1.7-0.8,3.7-0.5,5.6
			c1,6.3,4.6,12.5,10,17.4c3.1,2.8,6.8,5.1,9.9,7.8c3.1,2.7,5.7,5.7,8.8,8.4c4.6,4.1,10.2,7.3,15.7,10.5c6.6,3.8,13.2,8.9,19.8,12.8
			c-8.4-11-19.4-25.5-21.7-39.4c-0.6-3.4-0.4-7.7-2.9-10.8C157.2,36.3,152.1,33.6,148.6,30.9z"/>
		<path class="st4" d="M167,76.8c-5.5-3.2-11.1-6.4-15.8-10.4c-3.1-2.7-5.8-5.6-8.9-8.2c-3.2-2.7-6.9-5-10-7.7
			c-5.5-4.8-9.2-10.8-10.4-16.8c-0.4-1.8-0.5-3.7,0.3-5.4c1.9-3.8,8.3-4.8,13.6-3.5c5.3,1.4,9.7,4.5,13.9,7.6
			c3.2,2.3,7.6,4.8,10.5,7.5c-0.1-0.2-0.2-0.3-0.4-0.5c-2.7-3.2-7.8-6-11.4-8.6c-4.2-3.1-8.6-6.3-13.9-7.6
			c-5.3-1.3-11.9-0.1-13.9,3.9c-0.9,1.7-0.8,3.7-0.5,5.6c1,6.3,4.6,12.5,10,17.4c3.1,2.8,6.8,5.1,9.9,7.8c3.1,2.7,5.7,5.7,8.8,8.4
			c4.6,4.1,10.2,7.3,15.7,10.5c6.6,3.8,13.3,9,19.9,12.8c-1.3-1.2-2.6-3.7-3.8-4.9C176.1,82.1,171.5,79.5,167,76.8z"/>
		<path class="st5" d="M156.6,47.1c-0.6,0-1.1-0.4-1.5-0.8c-0.9-1-1.2-2.2-1.7-3.3c-0.5-1.1-1.3-2.3-2.6-2.8
			c-1.6-0.5-3.4,0.2-4.2,1.4c-0.8,1.1-0.9,2.5-1,3.9c-0.1,4.5,2.2,6.7,5.4,10.6c1,1.2,2.5,1.9,4.2,2.5c1.7,0.6,2.2,2.6,3.5,1.7
			c0.5-0.4,0.7,0.2,1.4,0c0.9-0.2,1.8,0.3,2.3,1c0.5,0.7,0.6,1.4,0.7,2.2c0.1,1.2,0.2,2.6-0.7,3.4c-0.6,0.6-1.7,0.9-2.7,1
			c-1.9,0.2-4-0.1-5.4-1.2c-0.8-0.6-1.2-1.4-1.7-2.2c-0.7-1.2-1.5-2.5-2.6-3.5c-1.3-1.1-3.1-1.8-4.7-2.7c-5.3-2.9-8.6-7.7-11-12.4
			c-0.8-1.6-1.5-3.2-1.7-4.8c-0.4-4.3,4-8.2,9.3-8.4c3.3-0.1,6.6,1,9.6,2.4c1.4,0.7,2.8,1.4,3.9,2.3c2.3,1.9,3.3,4.6,4.1,7.2
			c0.2,0.7,0.5,1.5,0,2.1c-0.4,0.5-1.4,0.4-2,0C157.3,46.9,156.9,47.1,156.6,47.1z"/>
		<path class="st6" d="M142.8,37.1c-0.4-0.7-0.8-1.5-0.6-2.2c0-0.1,0.1-0.2,0.2-0.3c0.2-0.1,0.5,0,0.7,0.1c0.7,0.4,1.2,1,1.7,1.6
			c0.4,0.6,3,3.7,1.7,3.8C145.2,40.3,143.3,37.9,142.8,37.1z"/>
		<path class="st6" d="M137.3,37c-0.1,0.1-0.1,0.2-0.1,0.3c0,0.5,0.4,1,0.9,1.4c1.5,1.2,3.2,2.3,5.1,3c0.2,0.1,0.5,0.1,0.7,0
			c0.2-0.2,0.1-0.5-0.1-0.7c-0.9-1.1-1.9-2.1-3.2-3C139.9,37.5,138.1,36.1,137.3,37z"/>
		<path class="st6" d="M139.9,42.2c-1.1-0.3-2.2-0.3-3.2,0c-0.5,0.2-0.9,0.4-1,0.8c0,0.2,0.1,0.5,0.2,0.7c0.3,0.4,0.8,0.6,1.4,0.7
			c1.7,0.5,3.6,0.8,5.4,1c0.4,0,0.8,0.1,1.1-0.1C145.4,44.2,140.6,42.3,139.9,42.2z"/>
		<path class="st6" d="M139.6,48.3c-0.8,0.3-1.5,0.9-1.6,1.6c0,0.1,0,0.2,0.1,0.3c0.1,0.1,0.2,0.1,0.4,0.1c0.7-0.1,1.5-0.1,2.2-0.2
			c0.8-0.1,1.6-0.2,2.3-0.4c0.8-0.3,1.4-0.9,1.9-1.5c0.1-0.1,0.2-0.2,0.1-0.3c0-0.1-0.1-0.1-0.2-0.1
			C143.3,47.1,140.9,47.7,139.6,48.3z"/>
		<path class="st6" d="M141.7,52.2c-0.2,0.1-0.4,0.3-0.5,0.5c-0.2,0.4,0.1,0.8,0.5,1c0.4,0.2,0.9,0.3,1.4,0.3c0.8,0,1.7-0.1,2.4-0.4
			c0.3-0.1,0.5-0.3,0.6-0.5c0.4-0.7-0.5-1.7-1.4-1.8C143.7,51.1,142.4,51.8,141.7,52.2z"/>
		<path class="st6" d="M145.6,56.2c-0.1,0.2-0.2,0.4-0.1,0.6c0.1,0.2,0.4,0.4,0.7,0.4c0.6,0.1,1.2,0,1.6-0.3
			c0.6-0.4,1.3-1.8,0.2-2.3C147,54.3,145.9,55.7,145.6,56.2z"/>
		<path class="st6" d="M148.7,37.7c0.2,0.3,0.4,0.7,0.8,0.9c0.1,0.1,0.3,0.2,0.5,0.1c0.3,0,0.4-0.4,0.3-0.7
			c-0.1-0.6-0.3-2.9-1.1-3.2C147.6,34.5,148.5,37.3,148.7,37.7z"/>
		<path class="st6" d="M152.8,37.7c-0.3,0.7-0.5,1.4-0.2,2.2c0.1,0.3,0.3,0.6,0.7,0.7c0.4,0.1,0.7-0.3,0.9-0.6
			c0.3-0.6,0.5-1.7,0.1-2.4C153.8,36.9,153.1,37,152.8,37.7z"/>
		<path class="st6" d="M150.4,60.3c0.1,0.3,0.3,0.7,0.7,0.8c0.5,0.1,0.8-0.3,0.8-0.7c0.1-0.6,0.2-2.2-0.9-2.4
			C149.8,57.8,150.3,59.8,150.4,60.3z"/>
		<path class="st6" d="M154.3,64.3c0,0.3,0.1,0.6,0.3,0.9c0.2,0.3,0.6,0.5,1,0.4c0.4-0.1,0.5-0.6,0.6-0.9c0-0.7,0.3-4-0.9-4.3
			C153.9,60.1,154.2,63.8,154.3,64.3z"/>
		<path class="st6" d="M158.9,64.8c0.1,0.5,0.3,0.9,0.6,1.4c0.1,0.2,0.3,0.4,0.5,0.4c0.3,0,0.4-0.2,0.5-0.4c0.4-0.8,0.2-1.6-0.1-2.5
			c-0.1-0.5-0.6-2.1-1.5-1.7C158.1,62.5,158.7,64.2,158.9,64.8z"/>
		<path class="st6" d="M155.8,40.6c0.1-0.1,0.2-0.2,0.3-0.2c0.1,0,0.2,0.1,0.2,0.1c0.3,0.3,0.4,0.6,0.5,1c0.1,0.8-0.2,1.6-0.5,2.4
			c-0.3,0.7-0.8,1.9-1.3,0.6C154.6,43.2,155.1,41.7,155.8,40.6z"/>
		<path class="st7" d="M162.4,48.2c-0.1,0.9-0.6,1.8-1.6,2.2c-1,0.4-2.5,0.1-3-0.8c-0.3,0.9-2,0.8-2.8,0.2c-0.8-0.7-1-1.7-1.3-2.6
			c-0.2-0.9-0.7-1.9-1.7-2.4c-0.3-0.1-0.6-0.2-0.8-0.1c-0.3,0.1-0.4,0.3-0.5,0.5c-0.5,1-0.4,2.2,0.3,3.2c-0.6-0.3-1.2-0.6-1.8-0.9
			c-0.7,1,0.8,2.3,2.2,2.7c0.3,0.1,0.7,0.3,0.7,0.5c0,0.2-0.2,0.3-0.3,0.4c-0.6,0.5-1,1.2-0.8,1.9c0.2,0.7,1.2,1.3,1.9,1
			c0.6-0.2,1.4-0.9,1.8-0.4c-0.2,1-0.5,2.2,0.2,3.2c0.7,1,2.8,1.2,3.2,0.2c0.2-0.4,0.1-0.9,0.6-1c0.5-0.2,1,0.4,1.1,0.8
			c0.1,0.4,0.2,1,0.7,1.2c0.2,0.1,0.5,0.1,0.8,0.1c1.1,0.1,1.7,1.2,2,2.1c1.6,3.9,4.3,7.5,7.9,10.4c-1.2-1.1-2-2.5-2.6-3.8
			c-3-6.3-5-12.8-6.2-19.4c-0.1-0.5-0.2-0.9-0.4-1.4C162.3,46.8,162.4,47.5,162.4,48.2z"/>
		<path class="st8" d="M125.7,34.3c0.6,0.5,1.4,0.9,2.2,0.8c0.9-0.1,1.4-0.9,1.7-1.6c0.7-1.3,1.5-2.6,2.7-3.5c1.2-1,3-1.6,4.8-1.3
			c0.4,0.1,0.8,0.2,1.2,0.2c0.4,0,0.9-0.2,1-0.5c0.2-0.4-0.1-0.8-0.5-1c-0.8-0.6-1.8-1-2.9-1.2c-2.5-0.5-5.1-0.4-7.4,0.3
			c-1,0.3-2,0.7-2.8,1.4C124.1,29.3,123.8,32.6,125.7,34.3z"/>
		<path class="st8" d="M125,37.8c0.3,1.7,1.7,3.1,3,4.5c0.3,0.3,0.5,0.5,0.9,0.7c0.4,0.2,0.9,0.1,1.1-0.1c0.1-0.1,0.1-0.3,0.2-0.4
			c0.2-0.9,0.2-1.9,0.1-2.8c-0.1-0.9-0.3-1.8-1.3-2.3C127.4,36.3,124.6,35.6,125,37.8z"/>
		<path class="st9" d="M110.1,39c-1.4,2.5-2.4,5.2-2.8,7.9c-0.2,1.5-0.3,3.2,0.8,4.5c0.4,0.6,1.2,1.1,1.9,1c0.9-0.1,1.2-0.9,1.6-1.5
			c1.3-2,3.9-3.3,5.5-5.1c2.3-2.7,2.1-6.4,1.2-9.8C116.7,30.1,111.4,36.9,110.1,39z"/>
	</g>
</g>
</svg>
